<svg width="27" height="21" viewBox="0 0 27 21" fill="none" xmlns="http://www.w3.org/2000/svg">
<path d="M13.5002 21.0002C6.9848 21.0002 1.67126 15.6869 1.67126 9.17189C1.67126 6.83153 2.36706 4.49117 3.69545 2.59358C3.7587 2.46707 3.88522 2.40381 4.01173 2.40381H22.9887C23.1153 2.40381 23.2418 2.46707 23.305 2.59358C24.6334 4.55442 25.3292 6.83153 25.3292 9.17189C25.3292 15.6869 20.0157 21.0002 13.5002 21.0002ZM4.20153 3.16285C3.06291 4.93394 2.43031 7.02128 2.43031 9.17189C2.43031 15.2442 7.36434 20.2412 13.5002 20.2412C19.5729 20.2412 24.5702 15.3074 24.5702 9.17189C24.5702 7.02128 23.9376 4.93394 22.799 3.16285H4.20153Z" fill="#1499A2"/>
<path d="M22.8618 3.16265H4.20111C3.31551 3.16265 2.61969 2.46687 2.61969 1.58132C2.61969 0.695783 3.31551 0 4.20111 0H22.8618C23.7474 0 24.4433 0.695783 24.4433 1.58132C24.4433 2.46687 23.7474 3.16265 22.8618 3.16265ZM4.13783 0.759044C3.69503 0.759044 3.3155 1.13855 3.3155 1.58132C3.3155 2.0241 3.69503 2.40361 4.13783 2.40361H22.7986C23.2414 2.40361 23.6209 2.0241 23.6209 1.58132C23.6209 1.13855 23.2414 0.759044 22.7986 0.759044H4.13783Z" fill="#1499A2"/>
<path d="M24.4434 6.19851C24.3801 6.19851 24.2536 6.19853 24.1903 6.13527C22.862 5.18648 20.8377 4.93346 18.6238 5.43949C16.0302 6.07202 12.8674 6.57804 8.9455 5.69249C5.08684 4.80695 2.68307 6.07202 2.68307 6.13527C2.4933 6.26178 2.24028 6.19852 2.17702 6.00876C2.05051 5.819 2.11377 5.566 2.30354 5.50274C2.43006 5.43949 4.96032 4.04791 9.13526 4.99671C12.9307 5.819 15.967 5.37623 18.434 4.7437C20.8378 4.17442 23.0517 4.42743 24.6332 5.56598C24.8229 5.69249 24.8229 5.94551 24.6964 6.13527C24.6964 6.13527 24.5699 6.19851 24.4434 6.19851Z" fill="#1499A2"/>
<path d="M6.79448 9.93069C5.97215 9.93069 5.27631 9.23489 5.27631 8.4126C5.27631 7.59031 5.97215 6.89453 6.79448 6.89453C7.61682 6.89453 8.31266 7.59031 8.31266 8.4126C8.31266 9.23489 7.61682 9.93069 6.79448 9.93069ZM6.79448 7.71683C6.41494 7.71683 6.09867 8.03308 6.09867 8.4126C6.09867 8.79212 6.41494 9.10839 6.79448 9.10839C7.17402 9.10839 7.49029 8.79212 7.49029 8.4126C7.49029 8.03308 7.17402 7.71683 6.79448 7.71683Z" fill="#1499A2"/>
<path d="M21.0911 9.93051C20.3953 9.93051 19.826 9.36123 19.826 8.66545C19.826 7.96967 20.3953 7.40039 21.0911 7.40039C21.7869 7.40039 22.3563 7.96967 22.3563 8.66545C22.3563 9.36123 21.7869 9.93051 21.0911 9.93051ZM21.0911 8.22267C20.8381 8.22267 20.6484 8.41244 20.6484 8.66545C20.6484 8.91846 20.8381 9.10821 21.0911 9.10821C21.3441 9.10821 21.5339 8.91846 21.5339 8.66545C21.5972 8.47569 21.3441 8.22267 21.0911 8.22267Z" fill="#1499A2"/>
<path d="M8.37592 17.1415C7.61684 17.1415 7.04755 16.5722 7.04755 15.8132C7.04755 15.0541 7.61684 14.4849 8.37592 14.4849C9.135 14.4849 9.7043 15.0541 9.7043 15.8132C9.7043 16.5722 9.135 17.1415 8.37592 17.1415ZM8.37592 15.3072C8.05964 15.3072 7.8066 15.5602 7.8066 15.8764C7.8066 16.1927 8.05964 16.4457 8.37592 16.4457C8.69221 16.4457 8.94525 16.1927 8.94525 15.8764C8.94525 15.4969 8.69221 15.3072 8.37592 15.3072Z" fill="#1499A2"/>
<path d="M17.7381 18.2167C17.0423 18.2167 16.4097 17.6474 16.4097 16.8884C16.4097 16.1926 16.979 15.5601 17.7381 15.5601C18.4339 15.5601 19.0665 16.1293 19.0665 16.8884C19.0665 17.6474 18.4972 18.2167 17.7381 18.2167ZM17.7381 16.3823C17.4851 16.3823 17.2321 16.6354 17.2321 16.8884C17.2321 17.1414 17.4851 17.3944 17.7381 17.3944C17.9911 17.3944 18.2442 17.1414 18.2442 16.8884C18.3074 16.6354 18.0544 16.3823 17.7381 16.3823Z" fill="#1499A2"/>
<path d="M15.1447 11.3857C14.9549 11.3857 14.7652 11.196 14.7652 11.0062C14.7652 10.2472 14.0061 9.55137 13.6265 9.36161C12.8675 8.9821 12.741 8.34957 12.8042 7.78029C10.5902 8.15981 10.274 10.4369 10.2107 10.5634C10.2107 10.7532 9.95767 10.943 9.7679 10.8797C9.57813 10.8797 9.38836 10.6267 9.45162 10.4369C9.45162 10.3737 9.95765 6.95801 13.3103 6.95801C13.4368 6.95801 13.5633 7.02125 13.6265 7.14776C13.6898 7.27427 13.6898 7.40077 13.6265 7.52728C13.5633 7.65379 13.3103 8.34958 13.9428 8.66585C14.5754 8.98211 15.5242 9.93089 15.5242 11.0062C15.5875 11.196 15.3977 11.3857 15.1447 11.3857Z" fill="#1499A2"/>
<path d="M14.7016 15.2437C14.5751 15.2437 14.4486 15.2437 14.3221 15.2437C13.3732 15.1805 12.7407 14.5479 12.7407 14.5479C12.5509 14.4214 12.5509 14.1684 12.6774 13.9787C12.8039 13.7889 13.057 13.7889 13.2467 13.9154C13.2467 13.9154 13.7528 14.3582 14.3853 14.4214C14.5751 14.4214 14.7649 14.4214 14.9547 14.4214C14.7016 14.1684 14.5118 13.9154 14.3853 13.5991C14.3221 13.4094 14.3853 13.1564 14.6384 13.0931C14.8281 13.0299 15.0812 13.0931 15.1444 13.3461C15.2709 13.6624 15.777 14.1052 16.03 14.3582C16.1565 14.4214 16.2198 14.6112 16.1565 14.7377C16.0933 14.8642 16.03 14.9907 15.9035 15.054C15.9035 15.1172 15.3974 15.2437 14.7016 15.2437Z" fill="#1499A2"/>
<path d="M19.2561 15.0541C19.1928 15.0541 19.0663 15.0541 19.003 14.9909L16.8523 13.4728C16.536 13.2198 16.0932 13.2198 15.7137 13.4096C15.6504 13.4096 15.5872 13.4728 15.5239 13.536C12.0448 16.3192 8.62896 13.6625 7.68011 12.8403C7.49034 12.6505 7.42706 12.4607 7.42706 12.2077C7.42706 11.9547 7.55359 11.765 7.68011 11.5752C8.62896 10.6897 12.0448 8.03305 15.5239 10.8794C15.5872 10.9427 15.6504 11.0059 15.7137 11.0059C16.0932 11.1957 16.536 11.1324 16.8523 10.9427L19.003 9.4246C19.1295 9.29809 19.3826 9.36135 19.5091 9.4246C19.6356 9.55111 19.6989 9.74088 19.5724 9.93064C19.5091 9.99389 18.3072 12.2077 19.5724 14.5481C19.6356 14.7379 19.6356 14.9276 19.5091 15.0541C19.4458 14.9909 19.3193 15.0541 19.2561 15.0541ZM12.1713 10.3101C10.4001 10.3101 8.94523 11.4487 8.18615 12.0812V12.1445C8.18615 12.1445 8.18615 12.1445 8.18615 12.2077C9.26152 13.2198 12.1081 15.2439 15.0179 12.9035C15.1444 12.777 15.2709 12.7138 15.3974 12.6505C16.03 12.3342 16.7258 12.3975 17.2951 12.8403L18.3705 13.5993C18.0542 12.4607 18.1807 11.4487 18.3705 10.6897L17.2951 11.4487C16.7258 11.8282 16.03 11.8915 15.3974 11.6385C15.2709 11.5752 15.1444 11.512 15.0179 11.3854C14.069 10.6264 13.0569 10.3101 12.1713 10.3101Z" fill="#1499A2"/>
<path d="M16.2203 13.2202C16.0306 13.2202 15.8408 13.0304 15.8408 12.8407V11.3859C15.8408 11.1961 16.0306 11.0063 16.2203 11.0063C16.4101 11.0063 16.5998 11.1961 16.5998 11.3859V12.8407C16.5998 13.0304 16.4733 13.2202 16.2203 13.2202Z" fill="#1499A2"/>
<path d="M25.8983 21.0003H1.10169C0.911923 21.0003 0.722168 20.8105 0.722168 20.6207C0.722168 20.431 0.911923 20.2412 1.10169 20.2412H25.8983C26.0881 20.2412 26.2779 20.431 26.2779 20.6207C26.2779 20.8105 26.1514 21.0003 25.8983 21.0003Z" fill="#1499A2"/>
</svg>
