<svg width="23" height="21" viewBox="0 0 23 21" fill="none" xmlns="http://www.w3.org/2000/svg">
<path d="M9.58828 8.71564C7.80431 8.71564 6.32617 7.2375 6.32617 5.45353C6.32617 3.66956 7.80431 2.19141 9.58828 2.19141C11.3722 2.19141 12.8504 3.66956 12.8504 5.45353C12.8504 7.28847 11.3722 8.71564 9.58828 8.71564ZM9.58828 2.95596C8.21208 2.95596 7.09073 4.07733 7.09073 5.45353C7.09073 6.82973 8.21208 7.95108 9.58828 7.95108C10.9645 7.95108 12.0858 6.82973 12.0858 5.45353C12.0858 4.07733 10.9645 2.95596 9.58828 2.95596Z" fill="#1499A2"/>
<path d="M7.09116 14.0168C6.88728 14.0168 6.73438 13.8639 6.73438 13.66V11.1624C6.73438 10.9586 6.88728 10.8057 7.09116 10.8057C7.29504 10.8057 7.44796 10.9586 7.44796 11.1624V13.66C7.44796 13.8639 7.29504 14.0168 7.09116 14.0168Z" fill="#1499A2"/>
<path d="M12.0853 14.0168C11.8814 14.0168 11.7285 13.8639 11.7285 13.66V11.1624C11.7285 10.9586 11.8814 10.8057 12.0853 10.8057C12.2892 10.8057 12.4421 10.9586 12.4421 11.1624V13.66C12.4421 13.8639 12.2892 14.0168 12.0853 14.0168Z" fill="#1499A2"/>
<path d="M15.2465 14.0174H3.93102C3.72714 14.0174 3.57422 13.8645 3.57422 13.6606V13.2528C3.57422 11.1121 4.64461 9.17517 6.47954 8.10479C6.63246 8.00285 6.88731 8.05383 6.98925 8.20674C7.09119 8.35965 7.04021 8.6145 6.8873 8.71644C5.30722 9.68488 4.33878 11.3669 4.33878 13.2528V13.3038H14.9406V13.2528C14.9406 11.3669 13.9722 9.68488 12.3921 8.71644C12.2392 8.6145 12.1882 8.41062 12.2902 8.20674C12.3921 8.05383 12.596 8.00285 12.7999 8.10479C14.6348 9.22614 15.7052 11.1121 15.7052 13.2528V13.6606C15.6033 13.8645 15.4504 14.0174 15.2465 14.0174Z" fill="#1499A2"/>
<path d="M8.8742 7.08441C8.72129 7.08441 8.61935 7.03344 8.56838 6.88053C8.46644 6.67665 8.56839 6.47277 8.7213 6.37083H8.77227C9.28198 6.11597 9.89361 6.11597 10.4033 6.37083C10.6072 6.47277 10.6582 6.67665 10.5562 6.88053C10.4543 7.08441 10.2504 7.13538 10.0465 7.03344C9.74071 6.88053 9.3839 6.88053 9.07808 7.03344H9.02712C9.02712 7.08441 8.97614 7.08441 8.8742 7.08441Z" fill="#1499A2"/>
<path d="M8.5701 5.55554C8.8516 5.55554 9.0798 5.32734 9.0798 5.04584C9.0798 4.76434 8.8516 4.53613 8.5701 4.53613C8.2886 4.53613 8.06039 4.76434 8.06039 5.04584C8.06039 5.32734 8.2886 5.55554 8.5701 5.55554Z" fill="#1499A2"/>
<path d="M10.6093 5.55554C10.8908 5.55554 11.119 5.32734 11.119 5.04584C11.119 4.76434 10.8908 4.53613 10.6093 4.53613C10.3278 4.53613 10.0996 4.76434 10.0996 5.04584C10.0996 5.32734 10.3278 5.55554 10.6093 5.55554Z" fill="#1499A2"/>
<path d="M13.2584 9.3276C13.1565 9.3276 13.0545 9.27663 12.9526 9.17469C12.7997 9.02178 12.8507 8.76693 13.0036 8.66498L13.8191 8.00237C14.3288 7.54364 14.6346 6.93199 14.6346 6.21841V3.00726C14.6346 2.34464 14.3798 1.733 13.8701 1.32524C13.4623 0.968443 12.9016 0.764557 12.341 0.764557H6.68323C6.12255 0.764557 5.56188 0.968443 5.15411 1.32524C4.69538 1.733 4.38956 2.39561 4.38956 3.00726V6.21841C4.38956 6.88102 4.69538 7.54364 5.20509 8.00237L6.0206 8.66498C6.17352 8.8179 6.22449 9.02178 6.07158 9.17469C5.91867 9.3276 5.71478 9.37858 5.56187 9.22566L4.74634 8.56304C4.03275 8.00236 3.625 7.13588 3.625 6.21841V3.00726C3.625 2.14076 3.98179 1.32523 4.64441 0.764557C5.20509 0.254853 5.91867 0 6.63226 0H12.29C13.0545 0 13.7172 0.254853 14.2778 0.764557C14.9404 1.32523 15.2972 2.14076 15.2972 3.00726V6.21841C15.2972 7.13588 14.8895 7.95139 14.1759 8.56304L13.3604 9.22566C13.4113 9.3276 13.3094 9.3276 13.2584 9.3276Z" fill="#1499A2"/>
<path d="M0.872425 21.0003C0.668543 21.0003 0.515625 20.8473 0.515625 20.6435V16.7187C0.515625 14.8328 2.04475 13.3037 3.93065 13.3037C4.13454 13.3037 4.28744 13.4566 4.28744 13.6605C4.28744 13.8644 4.13454 14.0173 3.93065 14.0173C2.45251 14.0173 1.22921 15.2406 1.22921 16.7187V20.6435C1.22921 20.8473 1.07631 21.0003 0.872425 21.0003Z" fill="#1499A2"/>
<path d="M18.3037 21.0003C18.0998 21.0003 17.9469 20.8473 17.9469 20.6435V16.7187C17.9469 15.2406 16.7236 14.0173 15.2455 14.0173C15.0416 14.0173 14.8887 13.8644 14.8887 13.6605C14.8887 13.4566 15.0416 13.3037 15.2455 13.3037C17.1314 13.3037 18.6605 14.8328 18.6605 16.7187V20.6435C18.6605 20.8473 18.5076 21.0003 18.3037 21.0003Z" fill="#1499A2"/>
<path d="M18.3048 16.82H9.18102C8.97714 16.82 8.82422 16.6671 8.82422 16.4632C8.82422 16.2593 8.97714 16.1064 9.18102 16.1064H18.3048C18.5086 16.1064 18.6615 16.2593 18.6615 16.4632C18.6615 16.6671 18.5086 16.82 18.3048 16.82Z" fill="#1499A2"/>
<path d="M5.9185 16.82H0.872425C0.668543 16.82 0.515625 16.6671 0.515625 16.4632C0.515625 16.2593 0.668543 16.1064 0.872425 16.1064H5.9185C6.12238 16.1064 6.27529 16.2593 6.27529 16.4632C6.27529 16.6671 6.12238 16.82 5.9185 16.82Z" fill="#1499A2"/>
<path d="M17.54 11.927C17.3361 11.927 17.1322 11.9269 16.9793 11.876C16.7754 11.876 16.6225 11.6721 16.6735 11.4682C16.6735 11.2643 16.8774 11.1114 17.0813 11.1624C17.2342 11.1624 17.3871 11.2134 17.591 11.2134C19.8846 11.2134 21.7706 9.32745 21.7706 7.03378C21.7706 4.74011 19.8846 2.85421 17.591 2.85421C16.7754 2.85421 15.9599 3.10906 15.2463 3.56779C15.0934 3.66973 14.8386 3.61876 14.7366 3.46585C14.6347 3.31293 14.6856 3.05808 14.8386 2.95614C15.6541 2.39547 16.6225 2.14062 17.591 2.14062C20.2924 2.14062 22.4841 4.33234 22.4841 7.03378C22.4332 9.73522 20.2415 11.927 17.54 11.927Z" fill="#1499A2"/>
<path d="M20.7496 7.39056C20.5457 7.39056 20.3928 7.23764 20.3928 7.03376C20.3928 5.45367 19.1185 4.17942 17.5384 4.17942C17.3346 4.17942 17.1816 4.0265 17.1816 3.82262C17.1816 3.61874 17.3346 3.46582 17.5384 3.46582C19.5263 3.46582 21.1064 5.04591 21.1064 7.03376C21.1064 7.23764 20.9535 7.39056 20.7496 7.39056Z" fill="#1499A2"/>
<path d="M19.1185 8.97083C19.0166 8.97083 18.9146 8.91985 18.8637 8.86888L17.2836 7.28879C17.2326 7.23782 17.1816 7.13588 17.1816 7.03394V5.35192C17.1816 5.14803 17.3346 4.99512 17.5384 4.99512C17.7423 4.99512 17.8952 5.14803 17.8952 5.35192V6.88103L19.3734 8.35917C19.5263 8.51208 19.5263 8.71597 19.3734 8.86888C19.3224 8.97082 19.2205 8.97083 19.1185 8.97083Z" fill="#1499A2"/>
<path d="M5.45957 3.41477H4.08336C3.87948 3.41477 3.72656 3.26185 3.72656 3.05797C3.72656 2.85409 3.87948 2.70117 4.08336 2.70117H5.45957C5.66345 2.70117 5.81636 2.85409 5.81636 3.05797C5.81636 3.26185 5.66345 3.41477 5.45957 3.41477Z" fill="#1499A2"/>
<path d="M12.9527 3.21163H10.761C10.5571 3.21163 10.4042 3.05873 10.4042 2.85485C10.4042 2.65096 10.5571 2.49805 10.761 2.49805H12.9527C13.1566 2.49805 13.3095 2.65096 13.3095 2.85485C13.3605 3.05873 13.1566 3.21163 12.9527 3.21163Z" fill="#1499A2"/>
</svg>
