<svg width="21" height="19" viewBox="0 0 21 19" fill="none" xmlns="http://www.w3.org/2000/svg">
<path d="M9.58958 10.7138C9.58958 13.0816 7.70752 14.9636 5.33978 14.9636C2.97203 14.9636 1.08998 13.0816 1.08998 10.7138C1.08998 8.34608 2.97203 1 5.33978 1C7.70752 1 9.58958 8.34608 9.58958 10.7138Z" stroke="#1499A2" stroke-width="0.9" stroke-miterlimit="10" stroke-linecap="round" stroke-linejoin="round"/>
<path d="M5.33998 18.0004V4.64393L7.52559 3.06543" stroke="#1499A2" stroke-width="0.9" stroke-miterlimit="10" stroke-linecap="round" stroke-linejoin="round"/>
<path d="M15.6601 12.5352V17.9992" stroke="#1499A2" stroke-width="0.9" stroke-miterlimit="10" stroke-linecap="round" stroke-linejoin="round"/>
<path d="M15.6598 14.9644C18.0069 14.9644 19.9096 13.0617 19.9096 10.7146C19.9096 8.36754 18.0069 6.46484 15.6598 6.46484C13.3127 6.46484 11.41 8.36754 11.41 10.7146C11.41 13.0617 13.3127 14.9644 15.6598 14.9644Z" stroke="#1499A2" stroke-width="0.9" stroke-miterlimit="10" stroke-linecap="round" stroke-linejoin="round"/>
<path d="M1.08998 17.9985H19.3034" stroke="#1499A2" stroke-width="0.9" stroke-miterlimit="10" stroke-linecap="round" stroke-linejoin="round"/>
<path d="M5.33928 11.928L1.27162 8.95312" stroke="#1499A2" stroke-width="0.9" stroke-miterlimit="10" stroke-linecap="round" stroke-linejoin="round"/>
<path d="M5.33987 9.62018L9.10397 7.43457" stroke="#1499A2" stroke-width="0.9" stroke-miterlimit="10" stroke-linecap="round" stroke-linejoin="round"/>
<path d="M5.3399 6.64606L2.48646 4.64258" stroke="#1499A2" stroke-width="0.9" stroke-miterlimit="10" stroke-linecap="round" stroke-linejoin="round"/>
<path d="M15.6598 12.5347L11.41 10.3491" stroke="#1499A2" stroke-width="0.9" stroke-miterlimit="10" stroke-linecap="round" stroke-linejoin="round"/>
<path d="M17.4815 7.07129L15.6601 12.5353L19.9099 10.714" stroke="#1499A2" stroke-width="0.9" stroke-miterlimit="10" stroke-linecap="round" stroke-linejoin="round"/>
<path d="M15.6609 12.5348L13.1717 7.25293" stroke="#1499A2" stroke-width="0.9" stroke-miterlimit="10" stroke-linecap="round" stroke-linejoin="round"/>
</svg>
