<svg width="27" height="17" viewBox="0 0 27 17" fill="none" xmlns="http://www.w3.org/2000/svg">
<path d="M18.3283 13.9093C16.8704 13.9093 15.4733 13.3743 14.3799 12.3638H12.5576C11.4642 13.3743 10.1278 13.9093 8.60919 13.9093C5.4505 13.9093 2.89925 11.4127 2.89925 8.32171C2.89925 5.23071 5.4505 2.73413 8.60919 2.73413H18.2675C21.4262 2.73413 23.9775 5.23071 23.9775 8.32171C23.9775 11.4127 21.4262 13.9093 18.3283 13.9093ZM12.3753 11.4722H14.5014C14.6229 11.4722 14.7444 11.5316 14.8051 11.591C15.7163 12.4827 16.9311 13.0177 18.2675 13.0177C20.9403 13.0177 23.0663 10.8777 23.0663 8.32171C23.0663 5.70625 20.8795 3.62577 18.2675 3.62577H8.60919C5.93645 3.62577 3.81041 5.76569 3.81041 8.32171C3.81041 10.9372 5.99719 13.0177 8.60919 13.0177C9.94556 13.0177 11.1605 12.4827 12.0716 11.591C12.1931 11.5316 12.3146 11.4722 12.3753 11.4722Z" fill="#1499A2"/>
<path d="M14.5622 16.9998H12.4362C12.1325 16.9998 11.8288 16.8809 11.5858 16.6431C11.3428 16.4053 11.2821 16.1081 11.2821 15.7515L11.7073 12.1255C11.7073 11.8877 11.9502 11.7094 12.1932 11.7688C12.4362 11.7688 12.6184 12.0066 12.5577 12.2444L12.1325 15.8704C12.1325 15.9893 12.1932 16.0487 12.1932 16.0487C12.1932 16.1081 12.254 16.1081 12.3755 16.1081H14.5015C14.623 16.1081 14.6837 16.0487 14.6837 16.0487C14.6837 15.9892 14.7445 15.9298 14.7445 15.8704L14.5622 14.6221C14.5622 14.3843 14.6837 14.1465 14.9267 14.1465C15.1697 14.1465 15.4127 14.2654 15.4127 14.5032L15.5949 15.7515C15.6556 16.0487 15.5342 16.4053 15.2912 16.6431C15.1697 16.8214 14.866 16.9998 14.5622 16.9998Z" fill="#1499A2"/>
<path d="M4.84461 2.25882C4.72313 2.25882 4.54089 2.19937 4.48014 2.08048C4.35866 1.90216 4.4194 1.60494 4.60163 1.48606L6.24173 0.416104C6.66694 0.118892 7.15289 0 7.69959 0H10.7368C10.9798 0 11.162 0.178334 11.162 0.416104C11.162 0.653874 10.9798 0.83219 10.7368 0.83219H7.69959C7.33512 0.83219 7.0314 0.951075 6.72768 1.1294L5.08759 2.19938C5.02684 2.25882 4.90536 2.25882 4.84461 2.25882Z" fill="#1499A2"/>
<path d="M22.0956 2.25882C22.0348 2.25882 21.9133 2.25882 21.8526 2.19938L20.2125 1.1294C19.9088 0.951075 19.605 0.83219 19.2406 0.83219H16.2034C15.9604 0.83219 15.7782 0.653874 15.7782 0.416104C15.7782 0.178334 15.9604 0 16.2034 0H19.2406C19.7873 0 20.2732 0.178334 20.6984 0.416104L22.3385 1.48606C22.5208 1.60494 22.5815 1.90216 22.46 2.08048C22.3993 2.19937 22.2778 2.25882 22.0956 2.25882Z" fill="#1499A2"/>
<path d="M8.18369 9.74783C6.90806 9.74783 5.81467 9.03452 5.4502 8.024C5.38946 7.78623 5.51094 7.54846 5.69318 7.48902C5.93615 7.42958 6.17914 7.54846 6.23988 7.72679C6.48286 8.38066 7.27252 8.85619 8.12294 8.85619C8.97336 8.85619 9.76303 8.38066 10.006 7.72679C10.0668 7.48902 10.3097 7.37014 10.5527 7.48902C10.7957 7.54846 10.9172 7.78623 10.7957 8.024C10.492 9.09396 9.39857 9.74783 8.18369 9.74783Z" fill="#1499A2"/>
<path d="M8.18578 10.7587C7.9428 10.7587 7.76057 10.5804 7.76057 10.3426V9.33212C7.76057 9.09435 7.9428 8.91602 8.18578 8.91602C8.42876 8.91602 8.61099 9.09435 8.61099 9.33212V10.3426C8.61099 10.5804 8.42876 10.7587 8.18578 10.7587Z" fill="#1499A2"/>
<path d="M5.99682 10.1049C5.87533 10.1049 5.81458 10.0455 5.69309 9.98605C5.51086 9.80772 5.51087 9.56995 5.63236 9.39162L6.30054 8.61886C6.48277 8.44054 6.72575 8.44053 6.90798 8.55942C7.09021 8.73774 7.09021 8.97551 6.96873 9.15384L6.30054 9.9266C6.23979 10.0455 6.1183 10.1049 5.99682 10.1049Z" fill="#1499A2"/>
<path d="M10.3699 10.1058C10.2484 10.1058 10.1269 10.0464 10.0661 9.92749L9.39795 9.15473C9.21572 8.97641 9.27646 8.67919 9.4587 8.56031C9.64093 8.38198 9.94465 8.44143 10.0661 8.61975L10.7343 9.39252C10.9166 9.57084 10.8558 9.86806 10.6736 9.98694C10.5521 10.1058 10.4306 10.1058 10.3699 10.1058Z" fill="#1499A2"/>
<path d="M18.8145 9.74783C17.5389 9.74783 16.4455 9.03452 16.0811 8.024C16.0203 7.78623 16.1418 7.54846 16.3241 7.48902C16.567 7.42958 16.81 7.54846 16.8707 7.72679C17.1137 8.38066 17.9034 8.85619 18.7538 8.85619C19.6042 8.85619 20.3939 8.38066 20.6369 7.72679C20.6976 7.48902 20.9406 7.37014 21.1836 7.48902C21.4266 7.54846 21.548 7.78623 21.4266 8.024C21.1228 9.09396 20.0294 9.74783 18.8145 9.74783Z" fill="#1499A2"/>
<path d="M18.8166 10.7587C18.5737 10.7587 18.3914 10.5804 18.3914 10.3426V9.33212C18.3914 9.09435 18.5737 8.91602 18.8166 8.91602C19.0596 8.91602 19.2418 9.09435 19.2418 9.33212V10.3426C19.2418 10.5804 19.0596 10.7587 18.8166 10.7587Z" fill="#1499A2"/>
<path d="M21.0007 10.1058C20.8792 10.1058 20.7577 10.0464 20.697 9.92749L20.0288 9.15473C19.8466 8.97641 19.9073 8.67919 20.0896 8.56031C20.2718 8.38198 20.5755 8.44143 20.697 8.61975L21.3652 9.39252C21.5474 9.57084 21.4867 9.86806 21.3044 9.98694C21.1829 10.1058 21.0615 10.1058 21.0007 10.1058Z" fill="#1499A2"/>
<path d="M16.6277 10.1049C16.5062 10.1049 16.4454 10.0455 16.324 9.98605C16.1417 9.80772 16.1417 9.56995 16.2632 9.39162L16.9314 8.61886C17.1136 8.44054 17.3566 8.44053 17.5388 8.55942C17.7211 8.73774 17.7211 8.97551 17.5996 9.15384L16.9314 9.9266C16.8707 10.0455 16.7492 10.1049 16.6277 10.1049Z" fill="#1499A2"/>
<path d="M3.44679 9.33181H3.26456C1.92819 9.33181 0.834793 8.26184 0.834793 6.95411C0.834793 5.64638 1.92819 4.57642 3.26456 4.57642H4.72242C4.9654 4.57642 5.14763 4.75473 5.14763 4.9925C5.14763 5.23027 4.9654 5.40861 4.72242 5.40861H3.26456C2.41414 5.40861 1.68522 6.12192 1.68522 6.95411C1.68522 7.78631 2.41414 8.49962 3.26456 8.49962H3.44679C3.68977 8.49962 3.872 8.67793 3.872 8.9157C3.872 9.15347 3.68977 9.33181 3.44679 9.33181Z" fill="#1499A2"/>
<path d="M23.7354 9.33181H23.4925C23.2495 9.33181 23.0673 9.15347 23.0673 8.9157C23.0673 8.67793 23.2495 8.49962 23.4925 8.49962H23.6747C24.5251 8.49962 25.254 7.78631 25.254 6.95411C25.254 6.12192 24.5251 5.40861 23.6747 5.40861H22.2776C22.0346 5.40861 21.8524 5.23027 21.8524 4.9925C21.8524 4.75473 22.0346 4.57642 22.2776 4.57642H23.7354C25.0718 4.57642 26.1652 5.64638 26.1652 6.95411C26.1652 8.26184 25.0718 9.33181 23.7354 9.33181Z" fill="#1499A2"/>
</svg>
