<svg width="23" height="23" viewBox="0 0 23 23" fill="none" xmlns="http://www.w3.org/2000/svg">
<path d="M11.5003 22C15.1096 22 18.0628 19.0469 18.0628 15.4375V9.99063C18.0628 8.67813 17.0128 7.5625 15.6346 7.5625H7.30026C5.98776 7.5625 4.87213 8.61251 4.87213 9.99063V15.4375C4.93776 19.0469 7.89089 22 11.5003 22Z" stroke="#1499A2" stroke-width="1.5" stroke-miterlimit="10" stroke-linecap="round" stroke-linejoin="round"/>
<path d="M8.21875 7.5625C8.21875 5.725 9.6625 4.28125 11.5 4.28125C13.3375 4.28125 14.7812 5.725 14.7812 7.5625" stroke="#1499A2" stroke-width="1.5" stroke-miterlimit="10" stroke-linecap="round" stroke-linejoin="round"/>
<path d="M4.9375 10.1875C3.49375 10.1875 2.3125 9.00625 2.3125 7.5625" stroke="#1499A2" stroke-width="1.5" stroke-miterlimit="10" stroke-linecap="round" stroke-linejoin="round"/>
<path d="M4.9375 18.0625C3.49375 18.0625 2.3125 19.2437 2.3125 20.6875" stroke="#1499A2" stroke-width="1.5" stroke-miterlimit="10" stroke-linecap="round" stroke-linejoin="round"/>
<path d="M18.0625 10.1875C19.5063 10.1875 20.6875 9.00625 20.6875 7.5625" stroke="#1499A2" stroke-width="1.5" stroke-miterlimit="10" stroke-linecap="round" stroke-linejoin="round"/>
<path d="M18.0625 14.125H21.3438" stroke="#1499A2" stroke-width="1.5" stroke-miterlimit="10" stroke-linecap="round" stroke-linejoin="round"/>
<path d="M1.65625 14.125H4.9375" stroke="#1499A2" stroke-width="1.5" stroke-miterlimit="10" stroke-linecap="round" stroke-linejoin="round"/>
<path d="M18.0625 18.0625C19.5063 18.0625 20.6875 19.2437 20.6875 20.6875" stroke="#1499A2" stroke-width="1.5" stroke-miterlimit="10" stroke-linecap="round" stroke-linejoin="round"/>
<path d="M6.90625 1V3.625L8.875 5.59375" stroke="#1499A2" stroke-width="1.5" stroke-miterlimit="10" stroke-linecap="round" stroke-linejoin="round"/>
<path d="M16.0938 1V3.625L14.125 5.59375" stroke="#1499A2" stroke-width="1.5" stroke-miterlimit="10" stroke-linecap="round" stroke-linejoin="round"/>
<path d="M11.5 11.5V18.7188L7.89062 20.95" stroke="#1499A2" stroke-width="1.5" stroke-miterlimit="10" stroke-linecap="round" stroke-linejoin="round"/>
<path d="M4.9375 10.8438H18.0625" stroke="#1499A2" stroke-width="1.5" stroke-miterlimit="10" stroke-linecap="round" stroke-linejoin="round"/>
<path d="M11.5 18.7188L14.7812 20.6875" stroke="#1499A2" stroke-width="1.5" stroke-miterlimit="10" stroke-linecap="round" stroke-linejoin="round"/>
</svg>
