<svg width="23" height="22" viewBox="0 0 23 22" fill="none" xmlns="http://www.w3.org/2000/svg">
<path d="M11.5011 13.4409C9.46984 13.4409 7.78429 11.3232 7.78429 8.73006C7.78429 8.25465 7.82752 7.77924 7.95717 7.34705C8.00039 7.17417 8.17327 7.04452 8.38936 7.08774C8.56224 7.13096 8.69189 7.30384 8.64867 7.51993C8.56224 7.9089 8.51902 8.34109 8.51902 8.73006C8.51902 10.9342 9.8588 12.7494 11.5443 12.7494C13.2299 12.7494 14.5697 10.9342 14.5697 8.73006C14.5697 8.29787 14.5265 7.86567 14.44 7.4767C14.3968 7.30382 14.5265 7.08773 14.6993 7.04451C14.8722 7.00129 15.0883 7.13096 15.1315 7.30384C15.2612 7.77925 15.3044 8.25465 15.3044 8.73006C15.218 11.3232 13.5324 13.4409 11.5011 13.4409Z" fill="#1499A2"/>
<path d="M16.3836 12.5774C16.2108 12.5774 16.0379 12.4045 16.0379 12.2316V8.73086C16.0379 5.61909 14.0066 3.11239 11.5431 3.11239C9.03641 3.11239 7.00511 5.61909 7.00511 8.73086V12.2316C7.00511 12.4045 6.83224 12.5774 6.65937 12.5774C6.48649 12.5774 6.31361 12.4045 6.31361 12.2316V8.73086C6.31361 5.27334 8.64744 2.4209 11.4999 2.4209C14.3523 2.4209 16.6862 5.23012 16.6862 8.73086V12.2316C16.6862 12.4045 16.5565 12.5774 16.3836 12.5774Z" fill="#1499A2"/>
<path d="M17.8102 22.0006H5.19023C5.01735 22.0006 4.8877 21.8709 4.84448 21.6981L4.32585 17.8948C4.19619 17.0304 4.49873 16.166 5.06057 15.4745C5.62242 14.8262 6.4868 14.4373 7.35118 14.4373H7.91303C8.47487 14.4373 8.9935 14.0915 9.25282 13.6161L9.72822 12.5789C9.81466 12.406 10.0308 12.3195 10.2036 12.406C10.3765 12.4924 10.4629 12.7085 10.3765 12.8814L9.9011 13.9186C9.55535 14.6534 8.77741 15.172 7.95625 15.172H7.3944C6.7029 15.172 6.05461 15.4745 5.62242 15.9931C5.19023 16.5118 4.97413 17.1601 5.06057 17.8516L5.53598 21.3523H17.5509L18.0263 17.8516C18.1127 17.1601 17.8966 16.5118 17.4644 15.9931C17.0322 15.4745 16.3839 15.172 15.6924 15.172H15.1306C14.3094 15.172 13.5315 14.6966 13.1857 13.9619L12.6671 12.8814C12.5807 12.7085 12.6671 12.4924 12.84 12.406C13.0129 12.3195 13.229 12.406 13.3154 12.5789L13.834 13.6593C14.0933 14.178 14.612 14.4805 15.1738 14.4805H15.7357C16.6 14.4805 17.4644 14.8695 18.0263 15.5178C18.5881 16.166 18.8907 17.0736 18.761 17.938L18.2424 21.7413C18.1127 21.8709 17.983 22.0006 17.8102 22.0006Z" fill="#1499A2"/>
<path d="M11.1112 7.73742H8.30194C8.12906 7.73742 7.95619 7.56455 7.95619 7.39167C7.95619 7.2188 8.12906 7.0459 8.30194 7.0459H11.1112C11.284 7.0459 11.4569 7.2188 11.4569 7.39167C11.4569 7.60777 11.284 7.73742 11.1112 7.73742Z" fill="#1499A2"/>
<path d="M14.7002 7.73742H13.3604C13.1876 7.73742 13.0147 7.56455 13.0147 7.39167C13.0147 7.2188 13.1876 7.0459 13.3604 7.0459H14.7002C14.8731 7.0459 15.046 7.2188 15.046 7.39167C15.046 7.60777 14.9163 7.73742 14.7002 7.73742Z" fill="#1499A2"/>
<path d="M8.73522 21.9975C8.56234 21.9975 8.43269 21.8678 8.38947 21.695L7.91406 18.4103C7.87084 18.151 7.65474 17.9781 7.43865 17.9781C7.26577 17.9781 7.0929 17.8052 7.0929 17.6324C7.0929 17.4595 7.26577 17.2866 7.43865 17.2866C8.00049 17.2866 8.51913 17.7188 8.60556 18.2807L9.08097 21.5653C9.12419 21.7382 8.99453 21.911 8.77844 21.9543C8.77844 21.9975 8.77843 21.9975 8.73522 21.9975Z" fill="#1499A2"/>
<path d="M14.2686 21.9972H14.2254C14.0525 21.954 13.9229 21.7811 13.9229 21.6083L14.3983 18.3236C14.4847 17.7618 15.0034 17.3296 15.5652 17.3296C15.7381 17.3296 15.911 17.5025 15.911 17.6753C15.911 17.8482 15.7381 18.0211 15.5652 18.0211C15.3059 18.0211 15.133 18.194 15.0898 18.4533L14.6144 21.7379C14.5712 21.8676 14.4415 21.9972 14.2686 21.9972Z" fill="#1499A2"/>
<path d="M6.05143 15.5156C5.96499 15.5156 5.87855 15.4724 5.83534 15.4292C3.89048 13.7436 2.76679 11.3234 2.76679 8.77345C2.76679 3.93292 6.69971 0 11.5402 0C16.3808 0 20.3137 3.93292 20.3137 8.77345C20.3137 11.3666 19.19 13.7869 17.2452 15.4292C17.1155 15.5588 16.8994 15.5156 16.7697 15.386C16.6401 15.2563 16.6833 15.0402 16.813 14.9106C18.6282 13.3547 19.6654 11.1505 19.6654 8.77345C19.6654 4.32189 16.035 0.69152 11.5835 0.69152C7.13191 0.69152 3.50151 4.32189 3.50151 8.77345C3.50151 11.1505 4.53876 13.3979 6.35396 14.9106C6.48362 15.0402 6.52684 15.2563 6.39718 15.386C6.26753 15.4724 6.13787 15.5156 6.05143 15.5156Z" fill="#1499A2"/>
<path d="M20.8795 13.743C20.8363 13.743 20.793 13.743 20.7066 13.6998C20.5337 13.6133 20.4473 13.3973 20.5337 13.2244C21.2252 11.8414 21.571 10.3287 21.571 8.7296C21.571 6.65508 20.9659 4.66702 19.7558 2.98148C19.6261 2.8086 19.6693 2.59249 19.8422 2.50605C20.0151 2.37639 20.2312 2.41962 20.3176 2.59249C21.571 4.40769 22.2625 6.52542 22.2625 8.7728C22.2625 10.4583 21.8735 12.0575 21.1388 13.5701C21.0956 13.6566 20.9659 13.743 20.8795 13.743Z" fill="#1499A2"/>
<path d="M2.16375 13.7439C2.03409 13.7439 1.90443 13.6575 1.86122 13.571C1.12649 12.0584 0.737522 10.4593 0.737522 8.77372C0.737522 6.56956 1.38581 4.40861 2.68238 2.59341C2.81203 2.42054 2.98491 2.42053 3.15778 2.50697C3.33066 2.63663 3.33066 2.80952 3.24422 2.9824C2.07731 4.66794 1.42903 6.656 1.42903 8.73052C1.42903 10.2864 1.77478 11.7991 2.46628 13.2253C2.55272 13.3982 2.46628 13.6143 2.2934 13.7007C2.25019 13.7007 2.20697 13.7439 2.16375 13.7439Z" fill="#1499A2"/>
</svg>
