<svg width="19" height="25" viewBox="0 0 19 25" fill="none" xmlns="http://www.w3.org/2000/svg">
<path d="M11.6598 9.75975H9.79795C9.25035 9.86927 8.81226 9.43119 8.81226 8.88358C8.81226 8.55502 8.97655 8.22647 9.25035 7.95267C9.52415 7.67886 9.90747 7.56934 10.2908 7.56934H12.4264C12.8098 7.56934 13.1931 7.67886 13.4669 7.95267C13.7407 8.22647 13.905 8.50026 13.905 8.88358C13.905 9.15739 13.7955 9.37643 13.6312 9.54072" stroke="#1499A2" stroke-width="0.9" stroke-miterlimit="10" stroke-linecap="round" stroke-linejoin="round"/>
<path d="M3.28102 15.5655C3.66434 15.0179 3.88337 14.5798 4.15717 13.9774C4.37622 13.4298 5.41667 12.2798 5.85475 11.8418L8.75707 8.93945C9.52371 9.7061 9.52371 10.9108 8.75707 11.6775L7.55233 12.8822L9.08562 14.5798C9.96178 15.5655 9.90703 17.044 8.9761 17.9202" stroke="#1499A2" stroke-width="0.9" stroke-miterlimit="10" stroke-linecap="round" stroke-linejoin="round"/>
<path d="M10.7263 12.4461L16.1476 7.0248C16.5309 6.64147 17.1333 6.64147 17.5166 7.0248C17.8999 7.40812 17.8999 8.01049 17.5166 8.39381L12.0953 13.8151" stroke="#1499A2" stroke-width="0.9" stroke-miterlimit="10" stroke-linecap="round" stroke-linejoin="round"/>
<path d="M12.1482 13.8146L16.3647 9.59804C16.7481 9.21472 17.3504 9.21472 17.7338 9.59804C18.1171 9.98136 18.1171 10.5837 17.7338 10.9671L13.5172 15.1836" stroke="#1499A2" stroke-width="0.9" stroke-miterlimit="10" stroke-linecap="round" stroke-linejoin="round"/>
<path d="M9.13647 21.3711C9.62931 20.9878 10.1222 20.6592 10.7245 20.3854C11.2174 20.1664 11.6555 19.8378 12.0388 19.4545L15.1054 16.3879L18.0077 13.4856C18.391 13.1023 18.391 12.4999 18.0077 12.1166C17.6243 11.7333 17.022 11.7333 16.6387 12.1166L13.5721 15.1832" stroke="#1499A2" stroke-width="0.9" stroke-miterlimit="10" stroke-linecap="round" stroke-linejoin="round"/>
<path d="M10.6178 7.07841C11.2749 6.47605 11.9868 5.81892 12.3701 5.4356C13.0272 4.77847 13.7391 4.01183 13.52 2.97138C13.301 1.82141 12.3153 1 11.1654 1C9.8511 1 8.81065 2.09521 8.81065 3.40946C8.81065 2.09521 7.7702 1.05476 6.45595 1C5.30598 1 4.26554 1.82141 4.0465 2.97138C3.82746 4.01183 4.48458 4.72372 5.19647 5.49036C5.85359 6.14749 8.15353 8.22838 8.64637 8.72123" stroke="#1499A2" stroke-width="0.9" stroke-miterlimit="10" stroke-linecap="round" stroke-linejoin="round"/>
<path d="M0.704849 17.2646L2.8405 15.1289L9.57605 21.8645L7.44038 24.0001L0.704849 17.2646Z" stroke="#1499A2" stroke-width="0.9" stroke-miterlimit="10" stroke-linecap="round" stroke-linejoin="round"/>
</svg>
