<svg width="31" height="30" viewBox="0 0 31 30" fill="none" xmlns="http://www.w3.org/2000/svg">
<path d="M29.3316 24.9684C29.085 23.6538 28.0995 22.6042 26.7817 22.22L26.3591 19.6497L25.5489 5.18202C25.3867 2.27625 22.8713 0 19.8224 0H11.9064C10.9615 0 10.0738 0.351796 9.40662 0.990642L8.43221 1.92439C6.90235 2.01796 5.66417 3.1906 5.57418 4.67085L4.67675 19.4208L4.21656 22.22C2.89871 22.6043 1.91319 23.6538 1.66674 24.9684L0.820256 29.4831C0.775507 29.722 0.942041 29.9504 1.19236 29.9931C1.2198 29.9978 1.24706 30 1.274 30C1.49272 30 1.68675 29.8506 1.72665 29.6379L2.57313 25.1232C2.72984 24.2875 3.28432 23.5944 4.05113 23.2265L3.02111 29.4922C2.9817 29.732 3.15333 29.9569 3.40457 29.9945C3.42876 29.9981 3.45276 29.9999 3.47652 29.9999C3.69928 29.9999 3.89515 29.8451 3.93076 29.6285L6.23817 15.5928C6.32644 15.0556 6.80401 14.6658 7.37359 14.6658H9.89714C10.2233 14.6658 10.4886 14.9191 10.4886 15.2304V17.2599C10.4886 17.3359 10.4239 17.3977 10.3443 17.3977H8.31651C8.29717 17.3977 8.28139 17.3827 8.28139 17.3643V16.9533C8.28139 16.9348 8.29711 16.9198 8.31651 16.9198H8.96349C9.21774 16.9198 9.42387 16.7231 9.42387 16.4804C9.42387 16.2376 9.21774 16.0409 8.96349 16.0409H8.31651C7.78946 16.0409 7.36064 16.4502 7.36064 16.9533V17.3643C7.36064 17.8674 7.7894 18.2766 8.31651 18.2766H9.84287L8.6783 19.3958C8.59249 19.4783 8.54436 19.5899 8.54455 19.7062L8.5489 22.4673C8.54786 22.4795 8.54694 22.4918 8.54694 22.5042C8.54694 22.7469 8.75307 22.9436 9.00732 22.9436H9.00934H9.01002H21.5301L21.5238 29.5601C21.5235 29.8028 21.7295 29.9997 21.9837 29.9999H21.9842C22.2382 29.9999 22.4443 29.8034 22.4445 29.5609L22.4539 19.706C22.4541 19.5898 22.406 19.4783 22.3202 19.3959L21.1556 18.2767H22.682C23.209 18.2767 23.6378 17.8674 23.6378 17.3643V16.9534C23.6378 16.4503 23.209 16.041 22.682 16.041H22.035C21.7807 16.041 21.5746 16.2377 21.5746 16.4805C21.5746 16.7232 21.7807 16.9199 22.035 16.9199H22.682C22.7013 16.9199 22.717 16.9349 22.717 16.9534V17.3643C22.717 17.3828 22.7013 17.3978 22.682 17.3978H20.6542C20.5746 17.3978 20.5098 17.336 20.5098 17.26V15.2305C20.5098 14.9192 20.7751 14.6659 21.1013 14.6659H23.6248C24.1944 14.6659 24.6719 15.0557 24.7602 15.5928L27.0676 29.6286C27.1032 29.8453 27.2991 29.9999 27.5218 29.9999C27.5455 29.9999 27.5695 29.9982 27.5938 29.9945C27.845 29.9569 28.0166 29.7321 27.9772 29.4923L26.9472 23.2265C27.714 23.5944 28.2685 24.2875 28.4252 25.1233L29.2716 29.6379C29.3115 29.8507 29.5056 30.0001 29.7243 30.0001C29.7512 30.0001 29.7785 29.9978 29.8059 29.9931C30.0562 29.9504 30.2228 29.722 30.178 29.4831L29.3316 24.9684ZM10.5813 18.814C10.8465 19 11.1263 19.1639 11.418 19.3044C11.2122 19.4879 11.0826 19.7485 11.0826 20.0379V21.9383C11.0826 21.9812 11.0863 22.0231 11.0919 22.0646H9.46899L9.46555 19.8863L10.5813 18.814ZM18.8629 19.9118C18.9358 19.9118 18.995 19.9684 18.995 20.0379V21.9383C18.995 22.0079 18.9357 22.0644 18.8629 22.0644H12.1355C12.0626 22.0644 12.0033 22.0078 12.0033 21.9383V20.0379C12.0033 19.9683 12.0626 19.9118 12.1355 19.9118H18.8629ZM21.5308 22.0646H19.9066C19.912 22.0231 19.9158 21.9812 19.9158 21.9383V20.0379C19.9158 19.7485 19.7862 19.4879 19.5804 19.3044C19.8721 19.1639 20.1519 19 20.4171 18.814L21.533 19.8864L21.5308 22.0646ZM23.6248 13.7869H22.829V10.4079L23.3473 10.4385C23.357 10.439 23.3666 10.4393 23.3762 10.4393C23.6175 10.4393 23.8201 10.26 23.8352 10.027C23.851 9.78473 23.6579 9.57625 23.4042 9.56131L22.413 9.50283C20.6933 9.28445 19.9501 8.48149 19.1633 7.63147C18.3261 6.72702 17.4605 5.79186 15.5128 5.73655C14.6932 5.71346 13.9393 5.77973 13.2723 5.93354C13.0251 5.99055 12.8731 6.22792 12.9329 6.46387C12.9926 6.69983 13.2413 6.84514 13.4885 6.78784C14.076 6.65237 14.748 6.59424 15.4856 6.6151C17.0345 6.65905 17.7014 7.37934 18.4734 8.21336C18.8377 8.60694 19.2237 9.02365 19.7188 9.38875L17.7818 10.1894C17.5484 10.2859 17.4412 10.5446 17.5423 10.7673C17.6176 10.9331 17.787 11.0322 17.965 11.0322C18.026 11.0322 18.0881 11.0205 18.1477 10.9959L20.6845 9.94715C21.0397 10.102 21.4429 10.2283 21.9083 10.3142V13.7868H21.1014C20.2676 13.7868 19.5892 14.4344 19.5892 15.2304V17.2599C19.5857 17.5667 19.5618 17.8447 19.7753 18.1727C18.9417 18.7288 17.9448 19.0318 16.9201 19.0329H14.0784C13.0537 19.0318 12.0568 18.7288 11.2233 18.1727C11.38 18.001 11.4321 17.551 11.4093 17.2599V15.2304C11.4093 14.4345 10.7309 13.7869 9.89708 13.7869H9.09006V8.64842C9.09006 8.14955 9.51521 7.74379 10.0378 7.74379H11.4791C11.7334 7.74379 11.9395 7.54709 11.9395 7.30434C11.9395 7.06159 11.7334 6.86489 11.4791 6.86489H10.0378C9.0075 6.86489 8.16931 7.66498 8.16931 8.64842V13.7869H7.37347C6.80229 13.7869 6.28268 14.0048 5.90664 14.3647L6.49335 4.72177C6.55896 3.64259 7.49734 2.79726 8.62968 2.79726C8.75208 2.79726 8.86945 2.75074 8.95582 2.66794L10.0588 1.61103C10.5519 1.13894 11.208 0.878904 11.9064 0.878904H19.8224C22.3817 0.878904 24.4933 2.78958 24.6295 5.2289L25.1441 14.4169C24.7647 14.026 24.2231 13.7869 23.6248 13.7869Z" fill="#1499A2"/>
<path d="M9.99958 9.33823C9.89854 9.56095 10.0058 9.8197 10.2391 9.91608L12.8501 10.9955C12.9097 11.0202 12.9718 11.0318 13.0329 11.0318C13.2108 11.0318 13.3804 10.9327 13.4556 10.7669C13.5566 10.5442 13.4494 10.2855 13.216 10.1891L10.605 9.10966C10.3716 9.01298 10.1006 9.11546 9.99958 9.33823Z" fill="#1499A2"/>
<path d="M9.00982 24.1221C9.0097 24.1221 9.00951 24.1221 9.00939 24.1221C8.75514 24.1223 8.54919 24.3192 8.54944 24.5619L8.55429 29.5612C8.55453 29.8037 8.7606 30.0002 9.01467 30.0002H9.0151C9.26935 30 9.47529 29.803 9.47505 29.5603L9.4702 24.5611C9.46995 24.3185 9.26389 24.1221 9.00982 24.1221Z" fill="#1499A2"/>
<path d="M13.1193 13.0193C13.3518 12.9209 13.4566 12.6613 13.3536 12.4395C12.8322 11.3172 11.5473 11.293 10.9406 11.4369C10.6948 11.4952 10.5458 11.7318 10.6056 11.9667C10.6654 12.2017 10.9141 12.3461 11.1604 12.2903C11.2639 12.2668 12.1804 12.0823 12.5119 12.7957C12.588 12.9597 12.7564 13.0572 12.933 13.0572C12.9953 13.0572 13.0587 13.045 13.1193 13.0193Z" fill="#1499A2"/>
<path d="M17.88 13.0194C17.9406 13.0451 18.004 13.0573 18.0663 13.0573C18.2428 13.0573 18.4113 12.9598 18.4874 12.7958C18.8185 12.0832 19.7337 12.2667 19.8385 12.2904C20.0846 12.3474 20.3331 12.2043 20.3943 11.9694C20.4557 11.7339 20.3054 11.4955 20.0586 11.4369C19.4521 11.2929 18.1671 11.3172 17.6457 12.4395C17.5427 12.6614 17.6475 12.9211 17.88 13.0194Z" fill="#1499A2"/>
<path d="M27.481 10.1998C27.5672 10.1998 27.6544 10.1766 27.7321 10.1283L30.4253 8.4511C30.6383 8.31851 30.6983 8.04622 30.5594 7.84296C30.4204 7.63958 30.1352 7.58245 29.9223 7.71499L27.2291 9.39218C27.0161 9.52478 26.9561 9.79706 27.095 10.0003C27.1833 10.1296 27.3306 10.1998 27.481 10.1998Z" fill="#1499A2"/>
<path d="M30.4253 15.983L27.7321 14.3059C27.5191 14.1732 27.2339 14.2305 27.095 14.4338C26.956 14.6371 27.0161 14.9094 27.2291 15.042L29.9223 16.7191C30 16.7674 30.0872 16.7906 30.1734 16.7906C30.3238 16.7906 30.4712 16.7204 30.5594 16.5912C30.6983 16.3879 30.6383 16.1156 30.4253 15.983Z" fill="#1499A2"/>
<path d="M27.4805 12.6562H29.1956C29.4499 12.6562 29.656 12.4596 29.656 12.2168C29.656 11.974 29.4499 11.7773 29.1956 11.7773H27.4805C27.2262 11.7773 27.0201 11.974 27.0201 12.2168C27.0201 12.4596 27.2262 12.6562 27.4805 12.6562Z" fill="#1499A2"/>
<path d="M0.572772 8.45107L3.26599 10.1283C3.34364 10.1766 3.43087 10.1997 3.51711 10.1997C3.66744 10.1997 3.81482 10.1295 3.90309 10.0003C4.04207 9.79709 3.98203 9.5248 3.76909 9.3922L1.07587 7.71502C0.862934 7.58242 0.577683 7.63961 0.438771 7.84299C0.299798 8.04613 0.359831 8.31847 0.572772 8.45107Z" fill="#1499A2"/>
<path d="M1.07589 16.7191L3.76911 15.042C3.98205 14.9094 4.04208 14.6371 3.90317 14.4338C3.7642 14.2304 3.47895 14.1732 3.26601 14.3058L0.572788 15.983C0.359847 16.1156 0.299814 16.3878 0.438725 16.5911C0.526996 16.7203 0.674378 16.7905 0.824769 16.7905C0.911013 16.7905 0.998301 16.7674 1.07589 16.7191Z" fill="#1499A2"/>
<path d="M3.51785 11.7773H1.80279C1.54853 11.7773 1.34241 11.974 1.34241 12.2168C1.34241 12.4596 1.54853 12.6562 1.80279 12.6562H3.51785C3.77211 12.6562 3.97823 12.4596 3.97823 12.2168C3.97823 11.974 3.77211 11.7773 3.51785 11.7773Z" fill="#1499A2"/>
<path d="M12.7526 15.4972V16.2728C12.7526 16.5155 12.9587 16.7122 13.2129 16.7122H17.7861C18.0404 16.7122 18.2465 16.5155 18.2465 16.2728V15.4972C18.2465 14.4052 17.3773 13.5498 16.2677 13.5498H14.7927C13.6678 13.5498 12.7526 14.4234 12.7526 15.4972ZM13.6733 15.4972C13.6733 14.908 14.1755 14.4287 14.7927 14.4287H16.2677C16.8709 14.4287 17.3257 14.8881 17.3257 15.4972V15.8333H13.6733V15.4972Z" fill="#1499A2"/>
</svg>
