<svg width="21" height="19" viewBox="0 0 21 19" fill="none" xmlns="http://www.w3.org/2000/svg">
<path d="M9.31494 2.18604C9.31494 1.51395 9.82889 1 10.501 1C11.1731 1 11.687 1.51395 11.687 2.18604V2.58138C11.687 3.25347 11.1731 3.76742 10.501 3.76742C9.82889 3.76742 9.31494 3.25347 9.31494 2.58138V2.18604Z" stroke="#1499A2" stroke-width="0.9" stroke-linecap="round" stroke-linejoin="round"/>
<path d="M6.66309 10.8037L5.47705 14.8362" stroke="#1499A2" stroke-width="0.9" stroke-linecap="round" stroke-linejoin="round"/>
<path d="M2.98681 8.51042C2.98681 7.71973 3.38216 7.71973 4.17285 7.71973C4.96354 7.71973 7.81003 10.2104 7.81003 10.2104C8.00771 10.3685 8.04724 10.6453 7.92864 10.843C7.81003 11.0802 7.53329 11.1988 7.29608 11.1197L5.35889 10.0918L4.96354 10.8825" stroke="#1499A2" stroke-width="0.9" stroke-linecap="round" stroke-linejoin="round"/>
<path d="M4.17285 6.53419C4.82788 6.53419 5.35889 6.00318 5.35889 5.34815C5.35889 4.69312 4.82788 4.16211 4.17285 4.16211C3.51782 4.16211 2.98681 4.69312 2.98681 5.34815C2.98681 6.00318 3.51782 6.53419 4.17285 6.53419Z" stroke="#1499A2" stroke-width="0.9" stroke-linecap="round" stroke-linejoin="round"/>
<path d="M12.8735 6.93083V6.14014C12.8735 5.23084 11.6875 4.9541 10.5015 4.9541C9.31543 4.9541 8.12939 5.23084 8.12939 6.14014V6.93083" stroke="#1499A2" stroke-width="0.9" stroke-linecap="round" stroke-linejoin="round"/>
<path d="M1.40673 17.6047V14.0466C1.40673 13.4931 1.80208 13.2559 2.59277 13.2559C3.38346 13.2559 6.22996 15.3512 6.22996 15.3512C6.42763 15.5093 6.46716 15.7861 6.34856 15.9837C6.22996 16.221 5.95321 16.3396 5.716 16.2605L3.77881 15.6279L3.38346 16.0233" stroke="#1499A2" stroke-width="0.9" stroke-linecap="round" stroke-linejoin="round"/>
<path d="M2.59277 12.0693C3.2478 12.0693 3.77881 11.5383 3.77881 10.8833C3.77881 10.2283 3.2478 9.69727 2.59277 9.69727C1.93774 9.69727 1.40673 10.2283 1.40673 10.8833C1.40673 11.5383 1.93774 12.0693 2.59277 12.0693Z" stroke="#1499A2" stroke-width="0.9" stroke-linecap="round" stroke-linejoin="round"/>
<path d="M7.02197 9.53962L7.33825 8.51172H13.6638L13.9801 9.53962" stroke="#1499A2" stroke-width="0.9" stroke-linecap="round" stroke-linejoin="round"/>
<path d="M15.8777 16.0625L16.4312 17.9997H4.5708L5.12428 16.0625" stroke="#1499A2" stroke-width="0.9" stroke-linecap="round" stroke-linejoin="round"/>
<path d="M15.52 14.8362L14.3735 10.8037" stroke="#1499A2" stroke-width="0.9" stroke-linecap="round" stroke-linejoin="round"/>
<path d="M18.0129 8.51042C18.0129 7.71973 17.6176 7.71973 16.8269 7.71973C16.0362 7.71973 13.1897 10.2104 13.1897 10.2104C12.992 10.3685 12.9525 10.6453 13.0711 10.843C13.1897 11.0802 13.4665 11.1988 13.7037 11.1197L15.6409 10.0918L16.0362 10.8825" stroke="#1499A2" stroke-width="0.9" stroke-linecap="round" stroke-linejoin="round"/>
<path d="M16.8232 6.53419C17.4783 6.53419 18.0093 6.00318 18.0093 5.34815C18.0093 4.69312 17.4783 4.16211 16.8232 4.16211C16.1682 4.16211 15.6372 4.69312 15.6372 5.34815C15.6372 6.00318 16.1682 6.53419 16.8232 6.53419Z" stroke="#1499A2" stroke-width="0.9" stroke-linecap="round" stroke-linejoin="round"/>
<path d="M19.593 17.6047V14.0466C19.593 13.4931 19.1977 13.2559 18.407 13.2559C17.6163 13.2559 14.7698 15.3512 14.7698 15.3512C14.5721 15.5093 14.5326 15.7861 14.6512 15.9837C14.7698 16.221 15.0465 16.3396 15.2837 16.2605L17.2209 15.6279L17.6163 16.0233" stroke="#1499A2" stroke-width="0.9" stroke-linecap="round" stroke-linejoin="round"/>
<path d="M18.4072 12.0693C19.0623 12.0693 19.5933 11.5383 19.5933 10.8833C19.5933 10.2283 19.0623 9.69727 18.4072 9.69727C17.7522 9.69727 17.2212 10.2283 17.2212 10.8833C17.2212 11.5383 17.7522 12.0693 18.4072 12.0693Z" stroke="#1499A2" stroke-width="0.9" stroke-linecap="round" stroke-linejoin="round"/>
</svg>
