<svg width="148" height="383" viewBox="0 0 148 383" fill="none" xmlns="http://www.w3.org/2000/svg">
<mask id="mask0_109_58" style="mask-type:luminance" maskUnits="userSpaceOnUse" x="-1" y="0" width="150" height="383">
<path d="M33.518 70.1831C42.585 61.135 50.48 60.7284 53.18 60.8809C58.987 60.6776 66.729 61.7958 74.879 63.6766C77.273 63.575 78.394 62.05 78.852 60.2201C78.394 60.2709 77.986 60.2709 77.528 60.2201C69.327 59.8134 63.062 50.4604 62.756 38.7691C62.705 38.9216 62.603 39.0233 62.552 39.0233C61.788 39.1249 61.686 37.9558 61.584 37.1933C61.33 35.16 61.381 30.9919 61.584 27.9419C62.145 20.1139 69.072 12.6924 77.121 11.5741C73.657 9.8967 71.161 7.15179 73.759 3.39024C74.472 2.32278 75.643 1.50947 77.07 0.950324C82.978 -1.43877 92.962 0.645334 91.842 7.55844C91.485 9.8967 89.702 11.8283 87.563 12.7941C88.072 12.9974 88.582 13.2516 89.04 13.5057C89.6 13.8107 90.11 14.1666 90.568 14.5224C98.565 19.3006 103.354 26.1628 101.622 35.8209C101.061 38.9724 99.89 42.0223 98.667 45.0214C97.547 47.8171 95.305 48.8846 93.624 51.1212C93.523 51.2229 93.421 51.3754 93.319 51.477C93.217 58.9493 93.828 68.2515 99.126 70.8439C104.678 73.0296 109.619 75.2662 113.083 77.2995C135.241 87.2625 127.957 169.457 107.429 217.087C103.354 240.469 96.019 263.699 96.019 263.699C96.019 263.699 110.587 272.036 115.732 282.355C123.831 298.671 122.608 325.155 128.415 336.185C135.852 350.316 150.369 379.24 147.67 381.934C146.894 382.707 143.69 384.105 140.704 381.454C139.763 380.618 136.203 374.863 135.146 373.801C127.882 366.504 121.956 356.541 118.533 348.792C114.866 340.455 86.595 293.944 81.45 288.81C82.927 310.414 79.107 336.439 79.107 348.893C79.107 356.367 71.173 353.348 65.761 358.13C64.589 359.166 63.372 360.842 62.188 361.598C59.73 363.167 57.357 363.307 55.419 363.307C48.656 358.13 65.761 346.962 65.761 346.962C65.761 346.962 56.134 299.536 56.134 274.679C32.091 250.737 17.88 185.774 17.88 168.847C17.88 161.68 20.477 154.31 24.603 148.006C23.89 147.803 23.33 147.396 22.362 146.38C20.019 144.042 17.014 141.246 14.772 138.806C12.276 136.112 9.88199 133.265 7.64099 130.317C5.65399 127.674 3.71898 124.929 2.19098 122.031C1.12098 120.049 -1.84615e-05 117.762 -1.84615e-05 115.474C-0.102018 105.918 22.26 81.4169 33.518 70.1831ZM103.863 162.341C104.27 153.191 104.423 142.669 104.474 130.876C100.96 138.145 97.699 143.737 95.968 145.414C95.968 145.414 99.635 150.548 103.863 162.341ZM18.389 119.134C21.292 122.946 24.247 126.759 27.15 130.571C28.322 132.096 29.392 133.672 30.614 135.146C31.123 135.756 31.837 136.823 32.601 137.179C33.314 137.484 34.638 136.773 35.453 136.62C40.038 133.418 45.182 131.537 50.276 131.537C50.276 131.537 46.354 122.031 42.941 109.984C42.33 109.679 41.719 109.323 41.26 108.917C40.598 108.307 39.987 107.697 39.426 106.985C39.07 106.579 38.764 106.172 38.459 105.714C37.644 104.545 37.134 103.122 36.625 101.75C29.493 110.34 22.057 116.999 17.778 118.321C18.032 118.626 18.236 118.88 18.389 119.134Z" fill="#1499A2"/>
</mask>
<g mask="url(#mask0_109_58)">
<path d="M53.18 60.8809L53.215 61.8803L53.169 61.8819L53.123 61.8793L53.18 60.8809ZM74.879 63.6766L74.922 64.6757L74.786 64.6815L74.654 64.651L74.879 63.6766ZM78.852 60.2201L78.742 59.2262L80.172 59.0676L79.822 60.4631L78.852 60.2201ZM77.528 60.2201L77.578 59.2213L77.608 59.2228L77.638 59.2262L77.528 60.2201ZM62.756 38.7691L61.808 38.4523L63.756 38.743L62.756 38.7691ZM62.552 39.0233L62.42 38.032L62.486 38.0233H62.552V39.0233ZM61.584 37.1933L60.593 37.3258L60.592 37.3176L61.584 37.1933ZM61.584 27.9419L60.587 27.8753V27.8706L61.584 27.9419ZM77.121 11.5741L77.556 10.6741L80.523 12.1109L77.258 12.5646L77.121 11.5741ZM73.759 3.39023L74.59 3.94574L74.586 3.95216L74.581 3.95851L73.759 3.39023ZM77.07 0.950318L77.444 1.87745L77.435 1.88132L77.07 0.950318ZM91.842 7.55843L90.853 7.40767L90.855 7.39842L91.842 7.55843ZM87.563 12.7941L87.192 13.7228L85.007 12.8507L87.151 11.8827L87.563 12.7941ZM89.04 13.5057L88.562 14.3841L88.555 14.3803L89.04 13.5057ZM90.568 14.5224L90.055 15.3808L90.003 15.3496L89.955 15.3124L90.568 14.5224ZM101.622 35.8209L100.637 35.6458V35.6444L101.622 35.8209ZM98.667 45.0214L97.739 44.6493L97.741 44.6439L98.667 45.0214ZM93.624 51.1212L94.424 51.722L94.381 51.7788L94.331 51.829L93.624 51.1212ZM93.319 51.477L92.319 51.4634L92.324 51.0566L92.612 50.7692L93.319 51.477ZM99.126 70.8439L98.759 71.7744L98.722 71.7597L98.686 71.7421L99.126 70.8439ZM113.083 77.2995L112.673 78.2116L112.623 78.1893L112.577 78.1619L113.083 77.2995ZM107.429 217.087L106.444 216.915L106.464 216.799L106.51 216.691L107.429 217.087ZM96.019 263.699L95.522 264.567L94.822 264.167L95.065 263.398L96.019 263.699ZM115.732 282.355L116.626 281.908L116.627 281.91L115.732 282.355ZM128.415 336.185L129.3 335.719V335.72L128.415 336.185ZM118.533 348.792L117.618 349.196V349.194L118.533 348.792ZM81.45 288.81L80.453 288.878L80.271 286.22L82.157 288.102L81.45 288.81ZM55.419 363.307V364.307H55.08L54.811 364.101L55.419 363.307ZM65.761 346.962L66.741 346.763L66.876 347.428L66.308 347.799L65.761 346.962ZM56.134 274.679L56.84 273.97L57.134 274.263V274.679H56.134ZM24.603 148.006L24.878 147.045L26.184 147.417L25.44 148.554L24.603 148.006ZM22.362 146.38L23.069 145.672L23.078 145.681L23.086 145.69L22.362 146.38ZM14.772 138.806L15.506 138.126L15.509 138.129L14.772 138.806ZM7.64101 130.317L6.845 130.922L6.842 130.918L7.64101 130.317ZM2.191 122.031L3.071 121.557L3.075 121.565L2.191 122.031ZM2.02656e-06 115.474L1 115.463V115.474H2.02656e-06ZM103.863 162.341L104.862 162.385L102.922 162.678L103.863 162.341ZM104.474 130.876L103.574 130.441L105.474 130.88L104.474 130.876ZM95.968 145.414L95.154 145.995L94.653 145.295L95.272 144.696L95.968 145.414ZM18.389 119.134L17.593 119.74L17.56 119.696L17.532 119.649L18.389 119.134ZM27.15 130.571L26.357 131.18L26.355 131.177L27.15 130.571ZM30.614 135.146L29.847 135.787L29.844 135.784L30.614 135.146ZM32.601 137.179L32.207 138.099L32.193 138.092L32.179 138.086L32.601 137.179ZM35.453 136.62L36.026 137.44L35.849 137.563L35.637 137.603L35.453 136.62ZM50.276 131.537L51.201 131.156L51.771 132.537H50.276V131.537ZM42.941 109.984L43.388 109.089L43.783 109.287L43.903 109.712L42.941 109.984ZM41.26 108.917L40.597 109.665L40.59 109.659L40.583 109.652L41.26 108.917ZM39.426 106.985L40.178 106.326L40.196 106.346L40.212 106.367L39.426 106.985ZM38.459 105.714L39.279 105.143L39.285 105.151L39.29 105.159L38.459 105.714ZM36.625 101.75L35.855 101.111L36.96 99.7797L37.562 101.402L36.625 101.75ZM17.778 118.321L17.01 118.962L16.047 117.809L17.483 117.365L17.778 118.321ZM32.811 69.4752C42.105 60.201 50.29 59.7161 53.236 59.8825L53.123 61.8793C50.67 61.7407 43.064 62.0691 34.224 70.8909L32.811 69.4752ZM53.145 59.8815C59.081 59.6736 66.923 60.8143 75.104 62.7022L74.654 64.651C66.535 62.7774 58.892 61.6815 53.215 61.8803L53.145 59.8815ZM74.837 62.6775C75.81 62.6362 76.448 62.3162 76.893 61.8815C77.356 61.4286 77.682 60.7788 77.882 59.9771L79.822 60.4631C79.565 61.4913 79.101 62.5189 78.291 63.3114C77.462 64.122 76.342 64.6154 74.922 64.6757L74.837 62.6775ZM78.963 61.214C78.431 61.2729 77.95 61.2729 77.418 61.214L77.638 59.2262C78.023 59.2689 78.357 59.2689 78.742 59.2262L78.963 61.214ZM77.479 61.2188C72.984 60.996 69.11 58.323 66.355 54.2903C63.601 50.2576 61.913 44.8028 61.756 38.7952L63.756 38.743C63.904 44.4267 65.502 49.494 68.007 53.1623C70.512 56.8307 73.872 59.0375 77.578 59.2213L77.479 61.2188ZM63.704 39.0859C63.639 39.283 63.537 39.4607 63.413 39.6049C63.352 39.6762 63.268 39.7587 63.161 39.8318C63.08 39.8868 62.861 40.0233 62.552 40.0233V38.0233C62.398 38.0233 62.277 38.0604 62.205 38.089C62.129 38.119 62.073 38.1532 62.036 38.1782C61.963 38.2275 61.919 38.275 61.896 38.3018C61.848 38.3571 61.822 38.4077 61.808 38.4523L63.704 39.0859ZM62.684 40.0145C62.201 40.0788 61.758 39.9326 61.422 39.6292C61.128 39.363 60.97 39.0256 60.878 38.7683C60.699 38.2674 60.636 37.6463 60.593 37.3258L62.576 37.0609C62.604 37.2719 62.625 37.4569 62.658 37.6511C62.69 37.8428 62.724 37.9904 62.762 38.0964C62.804 38.214 62.821 38.1974 62.764 38.1457C62.727 38.1129 62.67 38.0743 62.593 38.0504C62.516 38.0265 62.454 38.0276 62.42 38.032L62.684 40.0145ZM60.592 37.3176C60.325 35.1849 60.382 30.9376 60.587 27.8753L62.582 28.0086C62.379 31.0461 62.334 35.1352 62.577 37.069L60.592 37.3176ZM60.587 27.8706C61.182 19.5636 68.475 11.7658 76.983 10.5837L77.258 12.5646C69.67 13.6191 63.108 20.6641 62.582 28.0133L60.587 27.8706ZM76.685 12.4742C74.881 11.6009 73.165 10.3779 72.285 8.73614C71.835 7.89552 71.608 6.95142 71.705 5.92539C71.802 4.90705 72.212 3.87003 72.936 2.82196L74.581 3.95851C74.006 4.79121 73.754 5.50789 73.696 6.11457C73.639 6.71357 73.766 7.26582 74.048 7.7913C74.632 8.88178 75.896 9.86995 77.556 10.6741L76.685 12.4742ZM72.927 2.83473C73.789 1.544 75.158 0.625549 76.705 0.0193061L77.435 1.88132C76.128 2.39338 75.154 3.10153 74.59 3.94574L72.927 2.83473ZM76.695 0.0232301C79.881 -1.26499 84.105 -1.34239 87.423 -0.177477C89.091 0.408365 90.606 1.33515 91.629 2.66318C92.673 4.01733 93.152 5.72392 92.829 7.71845L90.855 7.39842C91.092 5.93638 90.743 4.79005 90.045 3.88377C89.327 2.95139 88.186 2.21026 86.76 1.70958C83.889 0.701433 80.167 0.776581 77.444 1.87745L76.695 0.0232301ZM92.83 7.70918C92.411 10.458 90.346 12.635 87.974 13.7055L87.151 11.8827C89.059 11.0216 90.559 9.33541 90.853 7.40767L92.83 7.70918ZM87.934 11.8654C88.493 12.0887 89.042 12.3632 89.525 12.6312L88.555 14.3803C88.122 14.14 87.651 13.9062 87.192 13.7228L87.934 11.8654ZM89.518 12.6274C90.14 12.9661 90.696 13.3556 91.181 13.7324L89.955 15.3124C89.524 14.9775 89.06 14.6554 88.562 14.3841L89.518 12.6274ZM91.081 13.6639C95.179 16.1122 98.524 19.1353 100.615 22.8514C102.716 26.5858 103.51 30.9535 102.606 35.9974L100.637 35.6444C101.465 31.0302 100.731 27.1378 98.872 23.832C97.002 20.5079 93.955 17.7107 90.055 15.3808L91.081 13.6639ZM102.606 35.9959C102.026 39.2623 100.816 42.3994 99.593 45.3989L97.741 44.6439C98.964 41.6452 100.097 38.6825 100.637 35.6458L102.606 35.9959ZM99.596 45.3935C98.96 46.9783 98.008 48.0588 97.057 48.9938C96.079 49.956 95.205 50.6832 94.424 51.722L92.825 50.5204C93.725 49.3226 94.812 48.3978 95.655 47.5682C96.525 46.7113 97.254 45.8602 97.739 44.6493L99.596 45.3935ZM94.331 51.829C94.333 51.8267 94.328 51.8317 94.312 51.8503C94.296 51.8692 94.279 51.891 94.252 51.9246C94.21 51.9769 94.123 52.0873 94.025 52.1849L92.612 50.7692C92.61 50.7715 92.615 50.7665 92.631 50.7479C92.647 50.729 92.664 50.7072 92.691 50.6736C92.733 50.6213 92.82 50.511 92.918 50.4133L94.331 51.829ZM94.319 51.4906C94.268 55.2104 94.398 59.3074 95.173 62.7719C95.958 66.2786 97.342 68.8575 99.565 69.9457L98.686 71.7421C95.612 70.2379 94.041 66.8694 93.222 63.2089C92.393 59.5062 92.268 55.2159 92.319 51.4634L94.319 51.4906ZM99.492 69.9134C105.062 72.106 110.059 74.3648 113.589 76.4371L112.577 78.1619C109.179 76.1676 104.294 73.9533 98.759 71.7744L99.492 69.9134ZM113.493 76.3875C119.506 79.0912 123.291 86.546 125.412 96.4369C127.55 106.41 128.073 119.205 127.261 133.126C125.638 160.97 118.665 193.543 108.347 217.482L106.51 216.691C116.721 193.001 123.653 160.662 125.265 133.01C126.071 119.183 125.542 106.586 123.456 96.8562C121.352 87.0451 117.739 80.4893 112.673 78.2116L113.493 76.3875ZM108.414 217.258C106.369 228.99 103.509 240.675 101.161 249.421C99.987 253.795 98.941 257.438 98.187 259.988C97.811 261.263 97.507 262.264 97.298 262.948C97.193 263.29 97.112 263.553 97.057 263.73C97.029 263.818 97.008 263.886 96.994 263.931C96.987 263.954 96.981 263.971 96.978 263.982C96.976 263.988 96.975 263.993 96.974 263.996C96.973 263.997 96.973 263.998 96.973 263.999C96.972 263.999 96.972 264 96.972 264C96.972 264 96.972 264 96.019 263.699C95.065 263.398 95.065 263.398 95.065 263.398C95.065 263.398 95.065 263.398 95.065 263.397C95.065 263.397 95.066 263.396 95.066 263.394C95.067 263.392 95.068 263.388 95.07 263.382C95.073 263.371 95.079 263.355 95.085 263.333C95.099 263.289 95.12 263.223 95.147 263.136C95.201 262.961 95.282 262.702 95.386 262.363C95.593 261.685 95.895 260.689 96.269 259.421C97.019 256.884 98.061 253.258 99.23 248.902C101.569 240.188 104.413 228.566 106.444 216.915L108.414 217.258ZM96.019 263.699C96.515 262.831 96.515 262.831 96.516 262.832C96.516 262.832 96.516 262.832 96.517 262.832C96.517 262.832 96.518 262.833 96.519 262.834C96.521 262.835 96.524 262.837 96.528 262.839C96.536 262.843 96.548 262.85 96.562 262.859C96.592 262.876 96.635 262.901 96.691 262.934C96.803 263 96.965 263.096 97.174 263.223C97.59 263.476 98.188 263.848 98.921 264.325C100.386 265.28 102.393 266.662 104.564 268.372C108.88 271.77 113.953 276.545 116.626 281.908L114.837 282.801C112.366 277.845 107.582 273.293 103.327 269.943C101.213 268.279 99.257 266.931 97.829 266.001C97.116 265.536 96.536 265.175 96.135 264.932C95.935 264.811 95.78 264.718 95.676 264.657C95.624 264.626 95.584 264.603 95.559 264.588C95.546 264.581 95.536 264.575 95.53 264.572C95.527 264.57 95.525 264.569 95.523 264.568L95.522 264.567C95.522 264.567 95.522 264.567 96.019 263.699ZM116.627 281.91C120.76 290.236 122.494 301.099 123.923 311.111C124.642 316.148 125.282 320.968 126.104 325.226C126.929 329.494 127.92 333.097 129.3 335.719L127.53 336.651C126.007 333.758 124.973 329.915 124.141 325.605C123.306 321.285 122.657 316.396 121.943 311.394C120.506 301.327 118.802 290.79 114.836 282.799L116.627 281.91ZM129.3 335.72C133.022 342.792 138.521 353.576 142.755 362.936C144.87 367.612 146.681 371.96 147.795 375.322C148.351 376.997 148.747 378.469 148.913 379.633C148.995 380.213 149.027 380.761 148.974 381.241C148.923 381.702 148.778 382.24 148.376 382.642L146.963 381.226C146.899 381.29 146.957 381.287 146.986 381.021C147.013 380.775 147.003 380.411 146.932 379.915C146.792 378.927 146.439 377.587 145.897 375.951C144.816 372.69 143.039 368.419 140.933 363.761C136.723 354.453 131.245 343.71 127.53 336.651L129.3 335.72ZM117.618 349.194C115.818 345.103 107.877 331.458 99.693 318.123C95.612 311.473 91.487 304.926 88.064 299.726C86.352 297.125 84.819 294.866 83.557 293.101C82.28 291.316 81.32 290.093 80.744 289.518L82.157 288.102C82.867 288.811 83.915 290.164 85.184 291.938C86.467 293.732 88.015 296.014 89.734 298.626C93.173 303.85 97.31 310.416 101.398 317.077C109.553 330.365 117.581 344.144 119.448 348.389L117.618 349.194ZM82.448 288.742C83.192 299.617 82.601 311.583 81.83 322.354C81.056 333.172 80.107 342.714 80.107 348.893H78.107C78.107 342.619 79.069 332.921 79.835 322.211C80.605 311.455 81.186 299.606 80.453 288.878L82.448 288.742ZM54.811 364.101C53.806 363.332 53.184 362.398 52.946 361.337C52.712 360.295 52.873 359.232 53.243 358.224C53.973 356.239 55.606 354.231 57.346 352.487C59.108 350.721 61.075 349.132 62.593 347.989C63.354 347.416 64.006 346.952 64.469 346.63C64.701 346.469 64.886 346.344 65.013 346.258C65.077 346.215 65.126 346.182 65.16 346.16C65.177 346.149 65.191 346.14 65.2 346.134C65.204 346.131 65.208 346.129 65.21 346.127C65.211 346.126 65.212 346.126 65.213 346.125C65.214 346.125 65.214 346.125 65.214 346.125C65.214 346.124 65.215 346.124 65.761 346.962C66.308 347.799 66.308 347.799 66.308 347.799C66.308 347.799 66.307 347.8 66.306 347.8C66.305 347.801 66.302 347.803 66.298 347.805C66.291 347.81 66.28 347.818 66.265 347.828C66.234 347.848 66.188 347.878 66.129 347.918C66.009 347.999 65.833 348.118 65.61 348.273C65.164 348.582 64.533 349.031 63.796 349.586C62.318 350.699 60.432 352.226 58.762 353.899C57.071 355.594 55.696 357.35 55.12 358.914C54.838 359.682 54.772 360.341 54.897 360.9C55.019 361.441 55.341 361.988 56.027 362.513L54.811 364.101ZM65.761 346.962C64.781 347.161 64.781 347.16 64.781 347.16C64.781 347.159 64.781 347.159 64.781 347.158C64.781 347.157 64.78 347.154 64.78 347.151C64.778 347.146 64.777 347.137 64.774 347.125C64.77 347.102 64.763 347.068 64.753 347.022C64.735 346.931 64.708 346.796 64.673 346.619C64.602 346.264 64.498 345.741 64.366 345.067C64.103 343.719 63.726 341.767 63.274 339.346C62.37 334.506 61.165 327.792 59.96 320.3C57.554 305.338 55.134 287.196 55.134 274.679H57.134C57.134 287.019 59.528 305.018 61.935 319.983C63.137 327.454 64.339 334.151 65.24 338.979C65.691 341.394 66.066 343.34 66.329 344.683C66.46 345.355 66.564 345.875 66.634 346.227C66.669 346.403 66.696 346.537 66.714 346.627C66.723 346.672 66.73 346.706 66.735 346.729C66.737 346.74 66.739 346.749 66.74 346.754C66.74 346.757 66.741 346.759 66.741 346.761V346.762C66.741 346.763 66.741 346.763 65.761 346.962ZM55.428 275.388C43.218 263.229 33.598 240.791 27.035 219.426C20.466 198.043 16.88 177.459 16.88 168.847H18.88C18.88 177.163 22.399 197.524 28.947 218.839C35.5 240.173 45.007 262.187 56.84 273.97L55.428 275.388ZM16.88 168.847C16.88 161.447 19.558 153.889 23.767 147.459L25.44 148.554C21.397 154.73 18.88 161.913 18.88 168.847H16.88ZM24.329 148.968C23.35 148.689 22.637 148.118 21.638 147.069L23.086 145.69C24.023 146.674 24.43 146.917 24.878 147.045L24.329 148.968ZM21.656 147.088C19.354 144.79 16.295 141.941 14.036 139.482L15.509 138.129C17.732 140.55 20.684 143.293 23.069 145.672L21.656 147.088ZM14.039 139.485C11.521 136.768 9.106 133.896 6.845 130.922L8.437 129.712C10.659 132.634 13.032 135.456 15.506 138.126L14.039 139.485ZM6.842 130.918C4.847 128.263 2.872 125.467 1.306 122.498L3.075 121.565C4.565 124.39 6.462 127.084 8.44 129.716L6.842 130.918ZM1.31101 122.506C0.250007 120.541 -0.999998 118.046 -0.999998 115.474H1C1 117.477 1.992 119.557 3.071 121.557L1.31101 122.506ZM-0.999998 115.485C-1.014 114.11 -0.628 112.546 0.0170003 110.883C0.667 109.209 1.60501 107.373 2.75101 105.436C5.04301 101.563 8.212 97.2119 11.719 92.8326C18.734 84.0707 27.166 75.1087 32.811 69.4752L34.224 70.8909C28.612 76.4913 20.234 85.3966 13.28 94.0826C9.801 98.4273 6.696 102.696 4.472 106.455C3.36 108.334 2.47901 110.068 1.88201 111.607C1.28001 113.157 0.989002 114.449 1 115.463L-0.999998 115.485ZM102.864 162.296C103.271 153.167 103.423 142.661 103.474 130.872L105.474 130.88C105.423 142.677 105.27 153.215 104.862 162.385L102.864 162.296ZM105.375 131.311C103.609 134.962 101.903 138.202 100.416 140.746C98.949 143.256 97.64 145.186 96.663 146.132L95.272 144.696C96.027 143.964 97.214 142.26 98.689 139.737C100.143 137.25 101.825 134.059 103.574 130.441L105.375 131.311ZM95.968 145.414C96.781 144.833 96.781 144.833 96.782 144.833V144.834L96.783 144.835C96.784 144.837 96.785 144.838 96.786 144.84C96.789 144.844 96.792 144.848 96.797 144.855C96.806 144.867 96.818 144.885 96.833 144.907C96.864 144.952 96.909 145.018 96.966 145.104C97.081 145.277 97.247 145.533 97.458 145.876C97.88 146.561 98.482 147.592 99.216 148.991C100.683 151.79 102.675 156.064 104.804 162.003L102.922 162.678C100.823 156.825 98.868 152.636 97.444 149.919C96.732 148.561 96.153 147.571 95.755 146.925C95.556 146.602 95.403 146.365 95.3 146.211C95.249 146.134 95.211 146.078 95.186 146.042C95.174 146.024 95.165 146.011 95.16 146.003C95.157 146 95.155 145.997 95.154 145.996C95.154 145.995 95.153 145.995 95.153 145.994C95.153 145.994 95.154 145.994 95.154 145.995C95.154 145.995 95.154 145.995 95.968 145.414ZM19.185 118.528C20.635 120.432 22.098 122.337 23.563 124.243C25.027 126.149 26.493 128.057 27.946 129.965L26.355 131.177C24.905 129.273 23.441 127.368 21.977 125.462C20.512 123.556 19.047 121.648 17.593 119.74L19.185 118.528ZM27.943 129.962C29.171 131.56 30.168 133.042 31.384 134.508L29.844 135.784C28.615 134.302 27.473 132.632 26.357 131.18L27.943 129.962ZM31.382 134.505C31.522 134.672 31.676 134.872 31.818 135.053C31.967 135.242 32.115 135.428 32.266 135.601C32.59 135.973 32.843 136.189 33.023 136.273L32.179 138.086C31.594 137.814 31.109 137.318 30.758 136.915C30.571 136.701 30.398 136.482 30.246 136.289C30.087 136.087 29.961 135.924 29.847 135.787L31.382 134.505ZM32.994 136.26C32.948 136.24 32.968 136.265 33.123 136.248C33.269 136.232 33.458 136.187 33.698 136.115C33.942 136.04 34.173 135.958 34.447 135.866C34.698 135.783 34.991 135.689 35.269 135.637L35.637 137.603C35.508 137.627 35.33 137.68 35.081 137.763C34.855 137.838 34.558 137.943 34.28 138.028C33.997 138.114 33.671 138.2 33.342 138.236C33.023 138.271 32.61 138.271 32.207 138.099L32.994 136.26ZM34.881 135.8C39.596 132.506 44.937 130.537 50.276 130.537V132.537C45.428 132.537 40.479 134.329 36.026 137.44L34.881 135.8ZM50.276 131.537C49.352 131.918 49.352 131.918 49.352 131.918C49.351 131.917 49.351 131.917 49.351 131.916C49.35 131.915 49.35 131.913 49.349 131.91C49.346 131.905 49.343 131.898 49.34 131.889C49.332 131.87 49.32 131.842 49.305 131.805C49.275 131.731 49.231 131.621 49.173 131.478C49.058 131.191 48.89 130.77 48.678 130.227C48.255 129.141 47.655 127.569 46.948 125.619C45.535 121.721 43.694 116.309 41.979 110.257L43.903 109.712C45.601 115.706 47.427 121.071 48.829 124.938C49.529 126.87 50.123 128.427 50.542 129.5C50.751 130.036 50.916 130.452 51.029 130.732C51.085 130.872 51.128 130.979 51.157 131.05C51.172 131.086 51.183 131.112 51.19 131.13C51.194 131.139 51.196 131.145 51.198 131.15C51.199 131.152 51.2 131.153 51.2 131.154C51.2 131.155 51.2 131.155 51.201 131.155C51.201 131.155 51.201 131.155 51.201 131.156C51.201 131.156 51.201 131.156 50.276 131.537ZM42.495 110.879C41.858 110.561 41.154 110.159 40.597 109.665L41.924 108.169C42.283 108.488 42.802 108.797 43.388 109.089L42.495 110.879ZM40.583 109.652C39.903 109.026 39.248 108.375 38.641 107.604L40.212 106.367C40.725 107.019 41.293 107.588 41.938 108.181L40.583 109.652ZM38.674 107.645C38.285 107.2 37.953 106.758 37.627 106.27L39.29 105.159C39.575 105.586 39.855 105.957 40.178 106.326L38.674 107.645ZM37.638 106.286C36.735 104.991 36.183 103.433 35.687 102.098L37.562 101.402C38.085 102.811 38.552 104.1 39.279 105.143L37.638 106.286ZM37.394 102.388C33.803 106.714 30.126 110.566 26.794 113.51C23.496 116.424 20.431 118.548 18.073 119.276L17.483 117.365C19.403 116.772 22.196 114.905 25.469 112.012C28.708 109.149 32.315 105.376 35.855 101.111L37.394 102.388ZM18.545 117.68C18.798 117.982 19.049 118.29 19.246 118.619L17.532 119.649C17.424 119.469 17.267 119.269 17.01 118.962L18.545 117.68ZM62.726 362.441C60.023 364.166 57.414 364.307 55.419 364.307V362.307C57.3 362.307 59.437 362.168 61.65 360.755L62.726 362.441ZM80.107 348.893C80.107 350.951 79.554 352.442 78.496 353.518C77.478 354.554 76.104 355.084 74.744 355.481C71.897 356.313 68.91 356.682 66.424 358.88L65.099 357.381C68.024 354.796 71.71 354.284 74.183 353.561C75.483 353.182 76.431 352.766 77.07 352.116C77.669 351.507 78.107 350.572 78.107 348.893H80.107ZM66.424 358.88C65.885 359.355 65.341 359.974 64.711 360.651C64.119 361.286 63.439 361.985 62.726 362.441L61.65 360.755C62.12 360.455 62.641 359.938 63.247 359.288C63.815 358.678 64.465 357.941 65.099 357.381L66.424 358.88ZM148.376 382.642C147.797 383.22 146.57 383.842 145.106 383.974C143.58 384.112 141.754 383.724 140.04 382.202L141.368 380.707C142.639 381.835 143.908 382.074 144.926 381.982C146.004 381.885 146.767 381.422 146.963 381.226L148.376 382.642ZM140.04 382.202C139.704 381.903 139.236 381.283 138.774 380.638C138.283 379.952 137.71 379.11 137.141 378.275C136.569 377.433 136.002 376.597 135.512 375.905C135.003 375.187 134.631 374.701 134.437 374.506L135.854 373.095C136.189 373.431 136.658 374.063 137.144 374.749C137.648 375.461 138.227 376.315 138.795 377.15C139.367 377.99 139.926 378.811 140.4 379.473C140.903 380.175 141.234 380.588 141.368 380.707L140.04 382.202ZM134.437 374.506C127.063 367.098 121.075 357.022 117.618 349.196L119.448 348.387C122.838 356.061 128.702 365.91 135.854 373.095L134.437 374.506Z" fill="#1499A2"/>
</g>
<path d="M60.176 34.5576C62.21 36.7055 64.246 38.8239 66.444 40.8054C66.94 41.2523 68.427 42.9377 69.31 43.0736C70.219 43.2133 71.775 42.9667 72.383 42.2076C72.89 41.5739 72.493 43.8641 72.836 44.5995C73.472 45.9613 74.153 47.2165 75.476 47.9605C77.353 49.0167 79.618 50.638 81.909 49.5688C84.285 48.4601 83.646 49.1787 85.249 51.0741C86.96 53.0952 93.209 56.8531 93.209 51.6308C93.209 49.3338 96.92 48.5334 96.92 46.4346" stroke="#1499A2" stroke-linecap="round"/>
</svg>
