<svg width="19" height="23" viewBox="0 0 19 23" fill="none" xmlns="http://www.w3.org/2000/svg">
<path d="M11.5042 11.4751L9.49946 13.3295L7.49469 11.4751" stroke="#1499A2" stroke-width="0.9" stroke-miterlimit="10" stroke-linecap="round" stroke-linejoin="round"/>
<path d="M9.49951 13.5298V15.0334" stroke="#1499A2" stroke-width="0.9" stroke-miterlimit="10" stroke-linecap="round" stroke-linejoin="round"/>
<path d="M6.99304 16.5371H12.005" stroke="#1499A2" stroke-width="0.9" stroke-miterlimit="10" stroke-linecap="round" stroke-linejoin="round"/>
<path d="M6.99304 18.041H12.005" stroke="#1499A2" stroke-width="0.9" stroke-miterlimit="10" stroke-linecap="round" stroke-linejoin="round"/>
<path d="M6.99304 19.5444H12.005" stroke="#1499A2" stroke-width="0.9" stroke-miterlimit="10" stroke-linecap="round" stroke-linejoin="round"/>
<path d="M4.03591 9.62105C3.78531 11.2249 4.23639 12.7284 5.13854 13.8812C6.39152 15.485 6.99295 17.4898 6.99295 19.4945C6.99295 20.8979 8.09558 22.0005 9.49892 22.0005C10.9023 22.0005 12.0049 20.8979 12.0049 19.4945V19.2439C12.0049 17.2392 12.7567 15.3346 13.9595 13.7308C14.6111 12.8287 15.012 11.6759 15.012 10.4731C15.012 7.21531 12.2054 4.60911 8.84737 5.01006C6.44164 5.31078 4.43686 7.21532 4.03591 9.62105Z" stroke="#1499A2" stroke-width="0.9" stroke-miterlimit="10" stroke-linecap="round" stroke-linejoin="round"/>
<path d="M9.5 1V2.50358" stroke="#1499A2" stroke-width="0.9" stroke-miterlimit="10" stroke-linecap="round" stroke-linejoin="round"/>
<path d="M0.478516 10.5225H1.9821" stroke="#1499A2" stroke-width="0.9" stroke-miterlimit="10" stroke-linecap="round" stroke-linejoin="round"/>
<path d="M17.0179 10.5225H18.5215" stroke="#1499A2" stroke-width="0.9" stroke-miterlimit="10" stroke-linecap="round" stroke-linejoin="round"/>
<path d="M3.98688 15.5347L2.9845 16.5371" stroke="#1499A2" stroke-width="0.9" stroke-miterlimit="10" stroke-linecap="round" stroke-linejoin="round"/>
<path d="M15.5143 4.00732L14.5119 5.00971" stroke="#1499A2" stroke-width="0.9" stroke-miterlimit="10" stroke-linecap="round" stroke-linejoin="round"/>
<path d="M15.0131 16.0356L16.0155 17.038" stroke="#1499A2" stroke-width="0.9" stroke-miterlimit="10" stroke-linecap="round" stroke-linejoin="round"/>
<path d="M2.9845 4.00732L3.98688 5.00971" stroke="#1499A2" stroke-width="0.9" stroke-miterlimit="10" stroke-linecap="round" stroke-linejoin="round"/>
</svg>
