<svg width="23" height="19" viewBox="0 0 23 19" fill="none" xmlns="http://www.w3.org/2000/svg">
<path d="M14.9302 3.83346V2.36006C14.9302 1.62336 14.3068 1 13.5701 1H9.48992C8.75323 1 8.12987 1.62336 8.12987 2.36006V3.83346" stroke="#1499A2" stroke-miterlimit="10" stroke-linecap="round" stroke-linejoin="round"/>
<path d="M19.9714 18.0003H3.0273C2.06393 18.0003 1.27055 17.207 1.27055 16.2436V5.53312C1.27055 4.56974 2.06393 3.77637 3.0273 3.77637H19.9714C20.9348 3.77637 21.7281 4.56974 21.7281 5.53312V16.2436C21.7281 17.207 20.9348 18.0003 19.9714 18.0003Z" stroke="#1499A2" stroke-miterlimit="10" stroke-linecap="round" stroke-linejoin="round"/>
<path d="M13.7962 10.6328H9.26266" stroke="#1499A2" stroke-miterlimit="10" stroke-linecap="round" stroke-linejoin="round"/>
<path d="M21.7294 7.23438V7.9144C21.7294 9.3878 20.5394 10.6345 19.0093 10.6345H17.7626" stroke="#1499A2" stroke-miterlimit="10" stroke-linecap="round" stroke-linejoin="round"/>
<path d="M5.29404 10.6345H4.04731C2.57391 10.6345 1.32719 9.44447 1.32719 7.9144V7.23438" stroke="#1499A2" stroke-miterlimit="10" stroke-linecap="round" stroke-linejoin="round"/>
<path d="M8.12488 8.93359H6.4248V12.3337H8.12488V8.93359Z" stroke="#1499A2" stroke-miterlimit="10" stroke-linecap="round" stroke-linejoin="round"/>
<path d="M16.6248 8.93359H14.9247V12.3337H16.6248V8.93359Z" stroke="#1499A2" stroke-miterlimit="10" stroke-linecap="round" stroke-linejoin="round"/>
</svg>
