<svg width="21" height="23" viewBox="0 0 21 23" fill="none" xmlns="http://www.w3.org/2000/svg">
<path d="M9.29354 5.77709C8.97855 7.08957 9.55603 8.34953 10.501 9.03202C10.8685 9.29451 11.026 9.71451 11.026 10.1345V10.922C11.026 11.657 11.6035 12.2345 12.3385 12.2345C13.0735 12.2345 13.6509 11.657 13.6509 10.922V10.082C13.6509 9.662 13.8084 9.29451 14.1759 9.03202C14.9634 8.45453 15.4884 7.50955 15.4884 6.45957C15.4884 4.51711 13.7035 2.94215 11.656 3.41464C10.501 3.67713 9.55604 4.62211 9.29354 5.77709Z" stroke="#1499A2" stroke-width="0.9" stroke-miterlimit="10" stroke-linecap="round" stroke-linejoin="round"/>
<path d="M12.0762 1V2.04998" stroke="#1499A2" stroke-width="0.9" stroke-miterlimit="10" stroke-linecap="round" stroke-linejoin="round"/>
<path d="M6.30273 6.77441H7.8777" stroke="#1499A2" stroke-width="0.9" stroke-miterlimit="10" stroke-linecap="round" stroke-linejoin="round"/>
<path d="M16.8027 6.77441H18.3777" stroke="#1499A2" stroke-width="0.9" stroke-miterlimit="10" stroke-linecap="round" stroke-linejoin="round"/>
<path d="M11.0273 10.4502H13.6523" stroke="#1499A2" stroke-width="0.9" stroke-miterlimit="10" stroke-linecap="round" stroke-linejoin="round"/>
<path d="M8.92765 9.71484L8.03516 10.6598" stroke="#1499A2" stroke-width="0.9" stroke-miterlimit="10" stroke-linecap="round" stroke-linejoin="round"/>
<path d="M16.2245 2.46875L15.332 3.36124" stroke="#1499A2" stroke-width="0.9" stroke-miterlimit="10" stroke-linecap="round" stroke-linejoin="round"/>
<path d="M15.332 9.71484L16.2245 10.6598" stroke="#1499A2" stroke-width="0.9" stroke-miterlimit="10" stroke-linecap="round" stroke-linejoin="round"/>
<path d="M8.03515 2.46875L8.92764 3.36124" stroke="#1499A2" stroke-width="0.9" stroke-miterlimit="10" stroke-linecap="round" stroke-linejoin="round"/>
<path d="M15.2816 16.5933L19.3765 15.7009C19.7965 15.5959 20.269 15.8059 20.4265 16.1733C20.584 16.5933 20.3215 17.0133 19.9015 17.2758L12.7092 20.2683C11.5542 20.6883 10.1367 20.8982 8.92923 20.8982C8.08924 20.8982 7.40676 20.7933 6.56677 20.6358L5.77929 20.4258" stroke="#1499A2" stroke-width="0.9" stroke-miterlimit="10" stroke-linecap="round" stroke-linejoin="round"/>
<path d="M5.77723 20.9499L4.20226 21.9998L0.527336 15.175L2.1023 14.125L5.77723 20.9499Z" stroke="#1499A2" stroke-width="0.9" stroke-miterlimit="10" stroke-linecap="round" stroke-linejoin="round"/>
<path d="M8.92679 17.8005H13.9142C14.6492 17.8005 15.2267 17.223 15.2267 16.488C15.2267 15.753 14.6492 15.1756 13.9142 15.1756H10.5018L10.0293 14.8606C8.9793 14.0731 7.66682 13.6006 6.30185 13.6006C5.46186 13.6006 4.62187 13.7581 3.83439 14.1256L2.57442 14.6506" stroke="#1499A2" stroke-width="0.9" stroke-miterlimit="10" stroke-linecap="round" stroke-linejoin="round"/>
</svg>
