<svg width="17" height="21" viewBox="0 0 17 21" fill="none" xmlns="http://www.w3.org/2000/svg">
<path d="M12.3701 20.9993H4.6115C3.68232 20.9993 2.89253 20.3954 2.61378 19.5127L1.1271 14.3558C0.941262 13.6589 1.03418 12.962 1.40585 12.358C1.77752 11.7541 2.38149 11.3359 3.07837 11.1966C4.56504 10.8714 5.81942 9.98865 6.46984 8.78072L6.70213 8.36259C6.79505 8.17675 7.02735 8.1303 7.21318 8.22322C8.04944 8.64135 9.02506 8.64135 9.86132 8.22322C9.95423 8.17676 10.0472 8.17676 10.1401 8.22322C10.233 8.26968 10.3259 8.31613 10.3724 8.40905L10.6047 8.82717C11.2551 10.0351 12.5095 10.9178 13.9961 11.243C14.693 11.3824 15.297 11.8005 15.6686 12.4045C16.0403 13.0085 16.1332 13.7518 15.9474 14.4022L14.4607 19.5591C14.0891 20.3489 13.2993 20.9993 12.3701 20.9993ZM7.16672 8.96655L7.12026 9.05947C6.37692 10.4532 4.93671 11.4753 3.21774 11.847C2.70669 11.9399 2.28856 12.2651 2.05627 12.6832C1.77752 13.1014 1.73106 13.6124 1.87044 14.1235L3.35711 19.2804C3.49648 19.8379 4.05399 20.256 4.6115 20.256H12.3701C12.9741 20.256 13.4851 19.8843 13.6245 19.2804L15.1112 14.1235C15.2505 13.6589 15.2041 13.1478 14.9253 12.6832C14.6466 12.2651 14.2284 11.9399 13.7639 11.847C12.0449 11.4753 10.6511 10.4997 9.86132 9.05947L9.81487 8.96655C8.97861 9.33822 8.00298 9.33822 7.16672 8.96655Z" fill="#1499A2"/>
<path d="M6.33193 20.9982C6.14609 20.9982 6.00671 20.8588 5.96025 20.6729L5.21691 15.4231C5.17045 15.2373 5.30983 15.0515 5.54213 15.005C5.72796 14.9585 5.91379 15.0979 5.96025 15.3302L6.70359 20.58C6.75005 20.7659 6.61067 20.9517 6.37838 20.9982C6.37838 20.9982 6.37839 20.9982 6.33193 20.9982Z" fill="#1499A2"/>
<path d="M10.6031 21H10.5566C10.3708 20.9535 10.2314 20.7677 10.2314 20.5819L10.9748 15.332C11.0212 15.1462 11.2071 15.0068 11.3929 15.0068C11.5787 15.0533 11.7181 15.2391 11.7181 15.425L10.9748 20.6748C10.9748 20.8606 10.7889 21 10.6031 21Z" fill="#1499A2"/>
<path d="M8.47135 12.0334C7.26343 12.0334 6.00904 11.6617 4.98695 10.9184C4.80112 10.779 4.80113 10.5932 4.89404 10.4074C5.03342 10.2215 5.21926 10.2215 5.40509 10.3144C7.26344 11.6153 9.72574 11.6153 11.5376 10.3144C11.7235 10.1751 11.9558 10.2215 12.0487 10.4074C12.188 10.5932 12.1416 10.8255 11.9557 10.9184C10.9337 11.6617 9.72574 12.0334 8.47135 12.0334Z" fill="#1499A2"/>
<path d="M11.7253 6.73734H11.6789C10.5639 6.59797 9.26301 6.31922 8.00862 5.99401C6.33611 5.57588 4.71007 5.01837 3.45568 4.46087C3.26985 4.36795 3.17693 4.18212 3.26985 3.94982C3.36277 3.76399 3.5486 3.67107 3.73444 3.76399C4.94236 4.3215 6.52196 4.83254 8.14801 5.25067C9.40239 5.57588 10.6103 5.80817 11.7253 5.94755C11.9112 5.994 12.0505 6.17984 12.0505 6.36568C12.0505 6.59797 11.9112 6.73734 11.7253 6.73734Z" fill="#1499A2"/>
<path d="M13.8578 6.87616C13.2538 6.87616 12.557 6.8297 11.7207 6.69032C11.5349 6.64387 11.3955 6.45803 11.3955 6.27219C11.442 6.08636 11.6278 5.94698 11.8136 5.94698C14.5082 6.31865 15.298 5.94699 15.391 5.85407C15.391 5.76115 14.9728 5.20365 13.2539 4.46031C13.068 4.36739 12.9751 4.18156 13.068 3.99572C13.1609 3.80989 13.3468 3.71697 13.5326 3.80989C16.3666 5.06427 16.1808 5.85407 16.0878 6.08636C15.902 6.64386 15.1587 6.87616 13.8578 6.87616Z" fill="#1499A2"/>
<path d="M3.63413 4.50606C3.58768 4.50606 3.54122 4.50605 3.49476 4.45959C0.660787 3.20521 0.89308 2.41542 0.939539 2.18312C1.21829 1.16103 3.68059 1.30041 5.72477 1.57916C5.91061 1.62562 6.04999 1.81145 6.04999 1.99728C6.00353 2.18312 5.8177 2.32249 5.63186 2.32249C2.93726 1.90437 1.82226 2.18312 1.68288 2.36896C1.68288 2.46187 2.101 3.01938 3.81997 3.76271C4.0058 3.85563 4.09873 4.04147 4.00581 4.27376C3.91289 4.41314 3.77351 4.50606 3.63413 4.50606Z" fill="#1499A2"/>
<path d="M8.46962 9.24527C6.42544 9.24527 4.75293 7.57276 4.75293 5.52858V3.71669C4.75293 1.67251 6.42544 0 8.46962 0C10.5138 0 12.1863 1.67251 12.1863 3.71669V5.52858C12.1863 7.57276 10.5138 9.24527 8.46962 9.24527ZM8.46962 0.743341C6.84357 0.743341 5.49627 2.09064 5.49627 3.71669V5.52858C5.49627 7.15464 6.84357 8.50193 8.46962 8.50193C10.0957 8.50193 11.443 7.15464 11.443 5.52858V3.71669C11.443 2.04418 10.1421 0.743341 8.46962 0.743341Z" fill="#1499A2"/>
<path d="M3.12443 6.87672C1.77713 6.87672 1.03379 6.59797 0.894418 6.04046C0.84796 5.80817 0.615667 5.01838 3.44964 3.76399C3.63548 3.67107 3.86777 3.76399 3.91423 3.94982C4.00715 4.13566 3.91423 4.36795 3.7284 4.46087C2.00943 5.25067 1.5913 5.76172 1.5913 5.90109C1.63776 5.99401 2.47402 6.36568 5.16862 5.99401C5.35445 5.94755 5.54029 6.08692 5.58674 6.31922C5.6332 6.50505 5.49382 6.69088 5.26153 6.73734C4.47173 6.83026 3.72839 6.87672 3.12443 6.87672Z" fill="#1499A2"/>
<path d="M11.8112 5.111C11.7183 5.111 11.6718 5.111 11.5789 5.06454C11.486 5.01808 11.4396 4.8787 11.4396 4.78579V3.7637C11.4396 3.20619 11.3002 2.69515 11.0214 2.23056C10.975 2.13764 10.9285 1.99827 11.0214 1.85889C11.0679 1.76597 11.1608 1.67306 11.3002 1.67306C13.3444 1.39431 15.8067 1.20847 16.0854 2.27702C16.3642 3.34557 13.9948 4.46058 11.9971 5.15746C11.9041 5.111 11.8577 5.111 11.8112 5.111ZM11.9041 2.27702C12.09 2.74161 12.1829 3.20619 12.1829 3.71724V4.22828C14.4594 3.34557 15.2956 2.60223 15.2956 2.4164C15.2027 2.18411 14.2271 1.95181 11.9041 2.27702Z" fill="#1499A2"/>
</svg>
