<svg width="25" height="17" viewBox="0 0 25 17" fill="none" xmlns="http://www.w3.org/2000/svg">
<path d="M13.0007 8.86661C12.7908 8.86661 12.6334 8.65674 12.6334 8.49935C12.7384 7.08276 13.8402 6.40069 14.6272 6.19083V2.62312C14.6272 2.41326 14.7845 2.25586 14.9944 2.25586C15.2043 2.25586 15.3617 2.41326 15.3617 2.62312V6.50563C15.3617 6.71549 15.2043 6.87289 15.0469 6.87289C14.9944 6.87289 13.4729 7.13522 13.368 8.55181C13.3155 8.70921 13.1581 8.86661 13.0007 8.86661Z" fill="#1499A2"/>
<path d="M14.9912 13.7985H7.85581C7.75088 13.7985 7.64595 13.746 7.59348 13.6935C7.54101 13.6411 7.48856 13.5362 7.48856 13.4312V12.0146C7.48856 11.0702 7.33115 10.0734 7.06882 9.18145L6.85896 8.49939C6.70156 8.02719 6.64909 7.555 6.64909 7.0828V6.4532C6.64909 6.24334 6.8065 6.08594 7.01636 6.08594C7.22623 6.08594 7.38362 6.24334 7.38362 6.4532V7.0828C7.38362 7.50253 7.43609 7.92226 7.54103 8.28952L7.75089 8.97158C8.06569 9.96844 8.22308 10.9653 8.22308 12.0146V13.064H14.5715V10.4931C14.5715 10.3882 14.624 10.2832 14.6764 10.2308L16.4078 8.34199C16.88 7.86979 17.1423 7.18773 17.1423 6.50567V2.62316C17.1423 2.0985 16.7751 1.67877 16.3029 1.62631C16.0406 1.62631 15.7782 1.67877 15.6208 1.83617C15.411 1.99357 15.306 2.2559 15.306 2.51823C15.306 2.7281 15.1486 2.8855 14.9388 2.8855C14.7289 2.8855 14.5715 2.7281 14.5715 2.51823C14.5715 2.04604 14.7814 1.62631 15.0962 1.31151C15.411 0.996711 15.8832 0.839312 16.3554 0.891778C17.1948 0.944245 17.8769 1.73124 17.8769 2.62316V6.50567C17.8769 7.3976 17.5621 8.18459 16.985 8.81419L15.3585 10.598V13.3788C15.3585 13.6411 15.1486 13.7985 14.9912 13.7985Z" fill="#1499A2"/>
<path d="M14.7305 17.0001H8.17217C7.07038 17.0001 6.17846 16.1082 6.17846 15.0064C6.17846 13.9046 7.07038 13.0127 8.17217 13.0127H14.7305C15.8322 13.0127 16.7242 13.9046 16.7242 15.0064C16.7242 16.1082 15.8322 17.0001 14.7305 17.0001ZM8.17217 13.7997C7.49011 13.7997 6.91298 14.3768 6.91298 15.0589C6.91298 15.7409 7.49011 16.3181 8.17217 16.3181H14.7305C15.4125 16.3181 15.9896 15.7409 15.9896 15.0589C15.9896 14.3768 15.4125 13.7997 14.7305 13.7997H8.17217Z" fill="#1499A2"/>
<path d="M13.9976 5.66655C13.6303 5.66655 13.263 5.50915 13.0532 5.24682C12.7908 4.98449 12.6334 4.66969 12.6334 4.30243V1.78405C12.6334 1.04952 13.263 0.419922 13.9976 0.419922C14.3648 0.419922 14.7321 0.57732 14.9419 0.839652C15.2043 1.10198 15.3617 1.41678 15.3617 1.78405V4.30243C15.3617 5.03695 14.7321 5.66655 13.9976 5.66655ZM13.9976 1.15445C13.8402 1.15445 13.6828 1.20692 13.5778 1.31185C13.4729 1.41678 13.4204 1.57418 13.4204 1.73158V4.24996C13.4204 4.40736 13.4729 4.56476 13.5778 4.66969C13.6828 4.77462 13.8402 4.82709 13.9976 4.82709C14.155 4.82709 14.3123 4.77462 14.4173 4.66969C14.5222 4.56476 14.5747 4.40736 14.5747 4.24996V1.73158C14.5747 1.57418 14.5222 1.41678 14.4173 1.31185C14.3123 1.20692 14.155 1.15445 13.9976 1.15445Z" fill="#1499A2"/>
<path d="M12.0034 6.03362C11.6362 6.03362 11.2689 5.87622 11.059 5.61389C10.7967 5.35156 10.6393 5.03676 10.6393 4.6695V1.36412C10.6393 0.996859 10.7967 0.682062 11.059 0.41973C11.3214 0.157399 11.6362 0 12.0034 0C12.3707 0 12.7379 0.157399 12.9478 0.41973C13.2101 0.682062 13.3675 0.996859 13.3675 1.36412V4.6695C13.3675 5.03676 13.2101 5.35156 12.9478 5.61389C12.6855 5.87622 12.3707 6.03362 12.0034 6.03362ZM12.0034 0.734528C11.6362 0.734528 11.3738 0.996859 11.3738 1.36412V4.6695C11.3738 4.8269 11.4263 4.9843 11.5312 5.08923C11.6361 5.19416 11.7936 5.24663 11.951 5.24663C12.1084 5.24663 12.2657 5.19416 12.3707 5.08923C12.4756 4.9843 12.5281 4.8269 12.5281 4.6695V1.36412C12.5281 1.20672 12.4756 1.04933 12.3707 0.944393C12.3182 0.786994 12.1608 0.734528 12.0034 0.734528Z" fill="#1499A2"/>
<path d="M10.0093 5.66655C9.64203 5.66655 9.32724 5.50915 9.06491 5.24682C8.80258 4.98449 8.64517 4.66969 8.64517 4.30243V1.78405C8.64517 1.04952 9.27477 0.419922 10.0093 0.419922C10.7438 0.419922 11.3734 1.04952 11.3734 1.78405V4.30243C11.3734 5.03695 10.7438 5.66655 10.0093 5.66655ZM10.0093 1.15445C9.8519 1.15445 9.69451 1.20692 9.58957 1.31185C9.48464 1.41678 9.43217 1.57418 9.43217 1.73158V4.24996C9.43217 4.40736 9.48464 4.56476 9.58957 4.66969C9.69451 4.77462 9.8519 4.82709 10.0093 4.82709C10.3766 4.82709 10.6389 4.56476 10.6389 4.19749V1.67911C10.6389 1.41678 10.3241 1.15445 10.0093 1.15445Z" fill="#1499A2"/>
<path d="M8.01322 5.29869C7.27869 5.29869 6.64909 4.6691 6.64909 3.93457V2.62291C6.64909 1.88838 7.27869 1.25879 8.01322 1.25879C8.74775 1.25879 9.37735 1.88838 9.37735 2.62291V3.93457C9.37735 4.6691 8.74775 5.29869 8.01322 5.29869ZM8.01322 1.99332C7.64596 1.99332 7.38362 2.25565 7.38362 2.62291V3.93457C7.38362 4.30183 7.64596 4.56417 8.01322 4.56417C8.38048 4.56417 8.64281 4.30183 8.64281 3.93457V2.62291C8.64281 2.30811 8.32802 1.99332 8.01322 1.99332Z" fill="#1499A2"/>
<path d="M14.9893 6.82071H4.33864C4.12878 6.82071 3.97137 6.66331 3.97137 6.45345V3.25301C3.97137 3.14807 4.02385 3.04314 4.07631 2.99068C4.12878 2.93821 4.23371 2.88574 4.33864 2.88574H7.01443C7.22429 2.88574 7.38168 3.04314 7.38168 3.25301C7.38168 3.46287 7.22429 3.62027 7.01443 3.62027H4.7059V6.08618H14.9893C15.1992 6.08618 15.3566 6.24358 15.3566 6.45345C15.3566 6.66331 15.1467 6.82071 14.9893 6.82071Z" fill="#1499A2"/>
<path d="M20.6604 6.82071H17.5124C17.3025 6.82071 17.1451 6.66331 17.1451 6.45345V3.25301C17.1451 3.14807 17.1976 3.04314 17.2501 2.99068C17.3025 2.93821 17.4074 2.88574 17.5124 2.88574H20.6604C20.8702 2.88574 21.0276 3.04314 21.0276 3.25301V6.45345C21.0276 6.55838 20.9752 6.66331 20.9227 6.71578C20.8702 6.76825 20.7653 6.82071 20.6604 6.82071ZM17.8796 6.08618H20.2931V3.62027H17.8796V6.08618Z" fill="#1499A2"/>
<path d="M17.5093 16.9992H5.80932C5.59946 16.9992 5.44207 16.8418 5.44207 16.6319C5.44207 16.422 5.59946 16.2646 5.80932 16.2646H17.5093C17.7192 16.2646 17.8766 16.422 17.8766 16.6319C17.8766 16.8418 17.7192 16.9992 17.5093 16.9992Z" fill="#1499A2"/>
<path d="M23.9642 9.44412H20.6589C20.449 9.44412 20.2916 9.28672 20.2916 9.07686V0.787186C20.2916 0.577321 20.449 0.419922 20.6589 0.419922H23.9642C24.0692 0.419922 24.1741 0.472388 24.2266 0.524854C24.279 0.577321 24.3315 0.682253 24.3315 0.787186V9.07686C24.3315 9.18179 24.279 9.28672 24.2266 9.33919C24.1741 9.39165 24.0692 9.44412 23.9642 9.44412ZM21.0261 8.70959H23.5969V1.15445H21.0261V8.70959Z" fill="#1499A2"/>
<path d="M4.3413 9.44412H1.03592C0.826052 9.44412 0.668663 9.28672 0.668663 9.07686V0.787186C0.668663 0.682253 0.72112 0.577321 0.773586 0.524854C0.826052 0.472388 0.930985 0.419922 1.03592 0.419922H4.3413C4.55117 0.419922 4.70856 0.577321 4.70856 0.787186V9.07686C4.70856 9.18179 4.6561 9.28672 4.60363 9.33919C4.55117 9.39165 4.44623 9.44412 4.3413 9.44412ZM1.40319 8.70959H3.97403V1.15445H1.40319V8.70959Z" fill="#1499A2"/>
<path d="M14.1023 15.4259H8.75072C8.54086 15.4259 8.38345 15.2685 8.38345 15.0587C8.38345 14.8488 8.54086 14.6914 8.75072 14.6914H14.1023C14.3122 14.6914 14.4695 14.8488 14.4695 15.0587C14.4695 15.2161 14.3122 15.4259 14.1023 15.4259Z" fill="#1499A2"/>
</svg>
