<svg width="23" height="22" viewBox="0 0 23 22" fill="none" xmlns="http://www.w3.org/2000/svg">
<path d="M18.641 9.16743C18.641 9.14973 18.641 9.14973 18.641 9.13203C18.641 9.11434 18.641 9.09664 18.641 9.09664V9.07894V9.06124C18.641 9.04354 18.6232 9.04355 18.6232 9.02585C18.6232 9.00815 18.6056 9.00815 18.6056 8.99045C18.6056 8.97276 18.5879 8.97275 18.5879 8.95506C18.5879 8.93736 18.5702 8.93736 18.5702 8.91966L18.5525 8.90197C18.5348 8.88427 18.5348 8.88426 18.5171 8.88426C18.4994 8.88426 18.4994 8.86657 18.4817 8.86657C18.464 8.86657 18.464 8.84887 18.4463 8.84887C18.4286 8.84887 18.4286 8.83117 18.4109 8.83117C18.3932 8.83117 18.3932 8.83117 18.3755 8.81348C18.3578 8.81348 18.3578 8.81348 18.3401 8.81348C18.3224 8.81348 18.3047 8.81348 18.3047 8.81348H18.287H18.2693C18.2516 8.81348 18.2339 8.81348 18.2339 8.81348C18.2162 8.81348 18.1985 8.81348 18.1985 8.81348H18.1808C18.1631 8.81348 16.4641 9.34441 14.5705 9.34441C12.4645 9.34441 10.907 10.7071 10.8362 10.7602C10.7478 10.831 10.7124 10.9372 10.7124 11.0434V17.4854C10.2699 17.0783 9.70359 16.8305 9.06648 16.8305C7.72145 16.8305 6.6419 17.9278 6.6419 19.2551C6.6419 20.6001 7.73915 21.6797 9.06648 21.6797C10.4115 21.6797 11.4911 20.6001 11.4911 19.2551V13.698C11.8804 13.3972 13.0839 12.5831 14.5705 12.5831C15.9686 12.5831 17.2428 12.3176 17.9153 12.1583V17.4676C17.4729 17.0606 16.9066 16.8128 16.2695 16.8128C14.9245 16.8128 13.8449 17.9101 13.8449 19.2374C13.8449 20.5824 14.9421 21.662 16.2695 21.662C17.6145 21.662 18.6941 20.5647 18.6941 19.2374V9.14973C18.6587 9.16742 18.641 9.16743 18.641 9.16743ZM9.01342 20.9187C8.09314 20.9187 7.36752 20.1754 7.36752 19.2728C7.36752 18.3525 8.11083 17.6269 9.01342 17.6269C9.9337 17.6269 10.6593 18.3702 10.6593 19.2728C10.677 20.1754 9.9337 20.9187 9.01342 20.9187ZM14.5351 11.8221C13.2078 11.8221 12.1105 12.353 11.4557 12.7601V11.2204C11.845 10.9195 13.0485 10.1054 14.5351 10.1054C15.9332 10.1054 17.2074 9.83994 17.8799 9.68066V11.3619C17.3136 11.5212 15.9863 11.8221 14.5351 11.8221ZM16.2164 20.9187C15.2961 20.9187 14.5705 20.1754 14.5705 19.2728C14.5705 18.3525 15.3138 17.6269 16.2164 17.6269C17.119 17.6269 17.8623 18.3702 17.8623 19.2728C17.88 20.1754 17.1367 20.9187 16.2164 20.9187Z" fill="#1499A2"/>
<path d="M12.9602 7.02582C12.8894 6.88423 12.7301 6.79575 12.5531 6.83114C12.2877 6.86654 12.0753 6.90194 11.916 6.90194C11.6151 6.90194 11.6152 6.88424 11.4028 6.44179C11.2435 6.08784 11.0311 5.61 10.5356 4.99058C9.98694 4.30037 9.5091 3.99951 8.97817 3.99951C8.7481 3.99951 8.50036 4.0703 8.2172 4.19418C8.2172 4.19418 8.19948 4.19419 8.19948 4.21189C7.89862 4.38886 7.52697 4.60123 7.40309 4.70742C7.38539 4.70742 7.3854 4.72512 7.3677 4.74282C7.29691 4.81361 7.2615 4.91979 7.2615 5.02598V7.06121V10.5831C6.87215 10.2468 6.35891 10.0344 5.79258 10.0344C4.55374 10.0344 3.54498 11.0432 3.54498 12.282C3.54498 13.5209 4.55374 14.5296 5.79258 14.5296C7.03142 14.5296 8.04022 13.5209 8.04022 12.282V7.30898C8.35878 7.13201 8.60655 7.04352 8.74813 7.04352C8.85432 7.04352 8.8897 7.07891 9.08437 7.27359C9.17286 7.36208 9.26136 7.45056 9.36755 7.55675C9.86309 8.12307 10.4294 8.40625 11.0488 8.40625C11.9514 8.40625 12.6416 7.76912 12.9071 7.50366C13.0133 7.34438 13.0486 7.1674 12.9602 7.02582ZM5.79258 13.7156C4.97848 13.7156 4.3237 13.0607 4.3237 12.2466C4.3237 11.4325 4.97848 10.7777 5.79258 10.7777C6.60667 10.7777 7.2615 11.4325 7.2615 12.2466C7.2615 13.0607 6.60667 13.7156 5.79258 13.7156ZM11.0488 7.60985C10.6595 7.60985 10.2878 7.41517 9.93387 7.00812C9.91617 6.99042 9.91618 6.97272 9.89848 6.97272C9.80999 6.90193 9.73919 6.81345 9.6684 6.74266C9.47373 6.53028 9.22594 6.24712 8.7658 6.24712C8.55343 6.24712 8.34106 6.30022 8.05789 6.4241V5.22066C8.16408 5.14987 8.34106 5.04367 8.58883 4.90209C8.7658 4.8136 8.88971 4.77822 9.0136 4.77822C9.17288 4.77822 9.456 4.84901 9.95154 5.48612C10.394 6.03475 10.571 6.4418 10.7126 6.77805C10.8718 7.11431 11.0134 7.43286 11.3674 7.59214C11.2612 7.59214 11.155 7.60985 11.0488 7.60985Z" fill="#1499A2"/>
<path d="M19.0483 5.53953H18.358V4.84931C18.358 4.63694 18.181 4.45996 17.9687 4.45996C17.7563 4.45996 17.5793 4.63694 17.5793 4.84931V5.53953H16.8891C16.6768 5.53953 16.4998 5.71651 16.4998 5.92888C16.4998 6.14125 16.6768 6.31822 16.8891 6.31822H17.5793V7.00843C17.5793 7.22081 17.7563 7.39779 17.9687 7.39779C18.181 7.39779 18.358 7.22081 18.358 7.00843V6.31822H19.0483C19.2606 6.31822 19.4376 6.14125 19.4376 5.92888C19.4199 5.71651 19.2606 5.53953 19.0483 5.53953Z" fill="#1499A2"/>
<path d="M13.951 1.07956H13.2608V0.389341C13.2608 0.176968 13.0838 0 12.8714 0C12.659 0 12.482 0.176968 12.482 0.389341V1.07956H11.7919C11.5795 1.07956 11.4025 1.25654 11.4025 1.46891C11.4025 1.68128 11.5795 1.85826 11.7919 1.85826H12.482V2.54846C12.482 2.76084 12.659 2.93781 12.8714 2.93781C13.0838 2.93781 13.2608 2.76084 13.2608 2.54846V1.85826H13.951C14.1633 1.85826 14.3403 1.68128 14.3403 1.46891C14.3403 1.25654 14.1633 1.07956 13.951 1.07956Z" fill="#1499A2"/>
<path d="M2.80166 7.1323H2.11146V6.44209C2.11146 6.22971 1.93445 6.05273 1.72208 6.05273C1.50971 6.05273 1.33274 6.22971 1.33274 6.44209V7.1323H0.642545C0.430173 7.1323 0.253204 7.30928 0.253204 7.52165C0.253204 7.73402 0.430173 7.91099 0.642545 7.91099H1.33274V8.60121C1.33274 8.81358 1.50971 8.99056 1.72208 8.99056C1.93445 8.99056 2.11146 8.81358 2.11146 8.60121V7.91099H2.80166C3.01403 7.91099 3.191 7.73402 3.191 7.52165C3.191 7.30928 3.01403 7.1323 2.80166 7.1323Z" fill="#1499A2"/>
<path d="M4.62397 16.8305H3.93373V16.1403C3.93373 15.9279 3.75676 15.751 3.54439 15.751C3.33202 15.751 3.15505 15.9279 3.15505 16.1403V16.8305H2.46486C2.25249 16.8305 2.07547 17.0075 2.07547 17.2199C2.07547 17.4323 2.25249 17.6092 2.46486 17.6092H3.15505V18.2994C3.15505 18.5118 3.33202 18.6888 3.54439 18.6888C3.75676 18.6888 3.93373 18.5118 3.93373 18.2994V17.6092H4.62397C4.83634 17.6092 5.01331 17.4323 5.01331 17.2199C5.01331 17.0075 4.83634 16.8305 4.62397 16.8305Z" fill="#1499A2"/>
<path d="M22.3575 15.5034H21.6673V14.8132C21.6673 14.6008 21.4903 14.4238 21.2779 14.4238C21.0655 14.4238 20.8885 14.6008 20.8885 14.8132V15.5034H20.1983C19.986 15.5034 19.809 15.6804 19.809 15.8927C19.809 16.1051 19.986 16.2821 20.1983 16.2821H20.8885V16.9723C20.8885 17.1847 21.0655 17.3616 21.2779 17.3616C21.4903 17.3616 21.6673 17.1847 21.6673 16.9723V16.2821H22.3575C22.5698 16.2821 22.7468 16.1051 22.7468 15.8927C22.7468 15.6627 22.5698 15.5034 22.3575 15.5034Z" fill="#1499A2"/>
</svg>
