<svg width="21" height="23" viewBox="0 0 21 23" fill="none" xmlns="http://www.w3.org/2000/svg">
<path d="M6.68848 17.6895C7.68313 18.6288 9.00933 19.2367 10.5013 19.2367C11.9933 19.2367 13.3195 18.6288 14.3141 17.6895" stroke="#1499A2" stroke-width="0.9" stroke-miterlimit="10" stroke-linecap="round" stroke-linejoin="round"/>
<path d="M13.045 12.6613C12.3819 13.3244 11.4978 13.7665 10.5031 13.7665C9.4532 13.7665 8.45855 13.2691 7.85071 12.5508" stroke="#1499A2" stroke-width="0.9" stroke-miterlimit="10" stroke-linecap="round" stroke-linejoin="round"/>
<path d="M7.18461 15.3691V16.5296C7.18461 17.4137 6.46626 18.1321 5.58212 18.1321H3.8691C2.04557 18.1321 0.553589 19.624 0.553589 21.4476" stroke="#1499A2" stroke-width="0.9" stroke-miterlimit="10" stroke-linecap="round" stroke-linejoin="round"/>
<path d="M20.4463 21.4476C20.4463 19.624 18.9544 18.1321 17.1308 18.1321H15.4178C14.5337 18.1321 13.8153 17.4137 13.8153 16.5296V15.3691" stroke="#1499A2" stroke-width="0.9" stroke-miterlimit="10" stroke-linecap="round" stroke-linejoin="round"/>
<path d="M13.2626 18.6846V22.0001" stroke="#1499A2" stroke-width="0.9" stroke-miterlimit="10" stroke-linecap="round" stroke-linejoin="round"/>
<path d="M7.73547 18.6846V22.0001" stroke="#1499A2" stroke-width="0.9" stroke-miterlimit="10" stroke-linecap="round" stroke-linejoin="round"/>
<path d="M4.97123 7.62988H3.75554C3.47925 7.62988 3.31348 7.85092 3.31348 8.07195V11.0007C3.31348 11.5532 3.75554 12.0506 4.36339 12.0506H4.97123" stroke="#1499A2" stroke-width="0.9" stroke-miterlimit="10" stroke-linecap="round" stroke-linejoin="round"/>
<path d="M4.97742 10.9463C4.97742 13.9855 7.46405 16.4721 10.5033 16.4721C13.5425 16.4721 16.0291 13.9855 16.0291 10.9463" stroke="#1499A2" stroke-width="0.9" stroke-miterlimit="10" stroke-linecap="round" stroke-linejoin="round"/>
<path d="M16.0243 7.62988H17.24C17.5163 7.62988 17.682 7.85092 17.682 8.07195V11.0007C17.682 11.5532 17.24 12.0506 16.6321 12.0506H16.0243" stroke="#1499A2" stroke-width="0.9" stroke-miterlimit="10" stroke-linecap="round" stroke-linejoin="round"/>
<path d="M16.0291 9.28878V6.52585C16.0291 3.48663 13.5425 1 10.5033 1C7.46405 1 4.97742 3.48663 4.97742 6.52585V9.28878" stroke="#1499A2" stroke-width="0.9" stroke-miterlimit="10" stroke-linecap="round" stroke-linejoin="round"/>
<path d="M16.0292 9.34226C16.0292 6.30304 13.5426 3.81641 10.5034 3.81641C7.46417 3.81641 4.97754 6.30304 4.97754 9.34226" stroke="#1499A2" stroke-width="0.9" stroke-miterlimit="10" stroke-linecap="round" stroke-linejoin="round"/>
</svg>
