<svg width="23" height="19" viewBox="0 0 23 19" fill="none" xmlns="http://www.w3.org/2000/svg">
<path d="M19.9994 14.9646H6.64194L4.21331 1H1.17752" stroke="#1499A2" stroke-width="0.9" stroke-miterlimit="10" stroke-linecap="round" stroke-linejoin="round"/>
<path d="M4.82205 2.82227H21.8225L20.001 11.9296H6.64353" stroke="#1499A2" stroke-width="0.9" stroke-miterlimit="10" stroke-linecap="round" stroke-linejoin="round"/>
<path d="M9.07205 2.82227V11.9296" stroke="#1499A2" stroke-width="0.9" stroke-miterlimit="10" stroke-linecap="round" stroke-linejoin="round"/>
<path d="M13.3221 2.82227V11.9296" stroke="#1499A2" stroke-width="0.9" stroke-miterlimit="10" stroke-linecap="round" stroke-linejoin="round"/>
<path d="M20.6065 7.07227H5.42759" stroke="#1499A2" stroke-width="0.9" stroke-miterlimit="10" stroke-linecap="round" stroke-linejoin="round"/>
<path d="M17.5718 2.82227V11.9296" stroke="#1499A2" stroke-width="0.9" stroke-miterlimit="10" stroke-linecap="round" stroke-linejoin="round"/>
<path d="M9.37315 17.9997C10.2115 17.9997 10.891 17.3201 10.891 16.4818C10.891 15.6435 10.2115 14.9639 9.37315 14.9639C8.53484 14.9639 7.85526 15.6435 7.85526 16.4818C7.85526 17.3201 8.53484 17.9997 9.37315 17.9997Z" stroke="#1499A2" stroke-width="0.9" stroke-miterlimit="10" stroke-linecap="round" stroke-linejoin="round"/>
<path d="M17.2677 17.9997C18.106 17.9997 18.7856 17.3201 18.7856 16.4818C18.7856 15.6435 18.106 14.9639 17.2677 14.9639C16.4294 14.9639 15.7498 15.6435 15.7498 16.4818C15.7498 17.3201 16.4294 17.9997 17.2677 17.9997Z" stroke="#1499A2" stroke-width="0.9" stroke-miterlimit="10" stroke-linecap="round" stroke-linejoin="round"/>
</svg>
