<svg width="23" height="23" viewBox="0 0 23 23" fill="none" xmlns="http://www.w3.org/2000/svg">
<path d="M5.88145 16.0386C2.68158 19.1927 3.32156 17.4557 1.72162 19.0556C0.761663 20.0156 0.761662 20.6555 1.58449 21.4326C2.40731 22.2098 3.04728 22.2098 4.00724 21.2955C5.56147 19.7413 4.6015 19.8327 7.1614 17.2728" stroke="#1499A2" stroke-width="0.9" stroke-linecap="round" stroke-linejoin="round"/>
<path d="M12.874 19.285C17.9233 19.285 22.0165 15.1917 22.0165 10.1425C22.0165 5.09323 17.9233 1 12.874 1C7.82475 1 3.73152 5.09323 3.73152 10.1425C3.73152 15.1917 7.82475 19.285 12.874 19.285Z" stroke="#1499A2" stroke-width="0.9" stroke-linecap="round" stroke-linejoin="round"/>
<path d="M7.84863 15.1712V13.3427C7.84863 11.9257 10.5457 11.0571 12.877 11.0571C15.2083 11.0571 17.9054 11.9257 17.9054 13.3427V15.1712" stroke="#1499A2" stroke-width="0.9" stroke-linejoin="round"/>
<path d="M13.3316 11.0572H12.4173C11.5488 11.0572 10.8631 10.6 10.4517 9.91434C10.2688 9.54864 10.1317 9.18294 10.1317 8.77153V6.02878C10.1317 4.74884 11.1374 3.74316 12.4173 3.74316H13.3316C14.6115 3.74316 15.6172 4.74884 15.6172 6.02878V8.77153C15.6172 9.18294 15.48 9.54864 15.2972 9.91434C14.8858 10.6 14.2001 11.0572 13.3316 11.0572Z" stroke="#1499A2" stroke-width="0.9" stroke-linejoin="round"/>
<path d="M15.3905 11.5137L12.8763 14.2564L10.3622 11.5137" stroke="#1499A2" stroke-width="0.9" stroke-linejoin="round"/>
<path d="M10.1317 6.02974C10.1317 6.02974 11.5031 5.43548 12.4173 6.02974C13.7887 6.94399 15.6172 6.48687 15.6172 6.48687" stroke="#1499A2" stroke-width="0.9" stroke-linejoin="round"/>
</svg>
