<svg width="21" height="19" viewBox="0 0 21 19" fill="none" xmlns="http://www.w3.org/2000/svg">
<path d="M18.4274 9.57279V10.6319H9.85388V9.57279C9.85388 7.95896 10.7616 6.54687 12.0729 5.84082C12.6276 6.29471 13.3841 6.54685 14.1406 6.54685C14.8971 6.54685 15.6536 6.29471 16.2083 5.84082C16.5614 6.04255 16.864 6.29469 17.1666 6.54685C17.9735 7.35377 18.4274 8.41285 18.4274 9.57279Z" stroke="#1499A2" stroke-width="0.9" stroke-miterlimit="10" stroke-linecap="round" stroke-linejoin="round"/>
<path d="M14.1397 5.33719C15.3374 5.33719 16.3082 4.36626 16.3082 3.16858C16.3082 1.9709 15.3374 1 14.1397 1C12.942 1 11.9711 1.9709 11.9711 3.16858C11.9711 4.36626 12.942 5.33719 14.1397 5.33719Z" stroke="#1499A2" stroke-width="0.9" stroke-miterlimit="10" stroke-linecap="round" stroke-linejoin="round"/>
<path d="M16.766 10.6837V9.57422" stroke="#1499A2" stroke-width="0.9" stroke-miterlimit="10" stroke-linecap="round" stroke-linejoin="round"/>
<path d="M11.5199 10.6837V9.57422" stroke="#1499A2" stroke-width="0.9" stroke-miterlimit="10" stroke-linecap="round" stroke-linejoin="round"/>
<path d="M15.2506 6.39648L14.7967 8.16161H13.4855L13.0316 6.39648" stroke="#1499A2" stroke-width="0.9" stroke-miterlimit="10" stroke-linecap="round" stroke-linejoin="round"/>
<path d="M15.1469 10.6837H13.1801L13.4826 8.16211H14.7939L15.1469 10.6837Z" stroke="#1499A2" stroke-width="0.9" stroke-miterlimit="10" stroke-linecap="round" stroke-linejoin="round"/>
<path d="M8.8363 17.8428V15.7246" stroke="#1499A2" stroke-width="0.9" stroke-miterlimit="10" stroke-linecap="round" stroke-linejoin="round"/>
<path d="M4.50232 17.8428V15.7246" stroke="#1499A2" stroke-width="0.9" stroke-miterlimit="10" stroke-linecap="round" stroke-linejoin="round"/>
<path d="M10.8301 15.8122V18.0002H2.23083V15.8122C2.23083 14.184 3.14135 12.7592 4.45653 12.0469C5.01295 12.5048 5.77169 12.7592 6.53045 12.7592C7.2892 12.7592 8.04794 12.5048 8.60436 12.0469C8.95845 12.2504 9.26196 12.5048 9.56546 12.7592C10.3748 13.5225 10.8301 14.591 10.8301 15.8122Z" stroke="#1499A2" stroke-width="0.9" stroke-miterlimit="10" stroke-linecap="round" stroke-linejoin="round"/>
<path d="M8.84424 9.40045C8.84424 9.9081 8.65747 10.3234 8.37731 10.6926C8.00377 11.108 7.49012 11.3849 6.88311 11.3849C6.27611 11.3849 5.71583 11.108 5.34229 10.6926C5.06214 10.3696 4.87537 9.9081 4.87537 9.40045C4.87537 8.29286 5.76249 7.41602 6.88311 7.41602C7.95704 7.41602 8.84424 8.29286 8.84424 9.40045Z" stroke="#1499A2" stroke-width="0.9" stroke-miterlimit="10" stroke-linecap="round" stroke-linejoin="round"/>
<path d="M20.0914 11.8878V14.8493C20.0914 15.4804 19.5405 16.0145 18.8894 16.0145H11.0259V15.529C11.0259 14.4124 10.525 13.3443 9.77376 12.6161C9.47324 12.3248 9.17271 12.082 8.82211 11.9364C8.27117 12.3733 7.51989 12.6161 6.7686 12.6161C5.96722 12.6161 5.26603 12.3733 4.71509 11.9364C3.41285 12.6161 2.51129 13.9754 2.51129 15.529V16.0145H2.11058C1.45947 16.0145 0.908569 15.4804 0.908569 14.8493V11.8878C0.908569 11.2567 1.45947 10.7227 2.11058 10.7227H5.16587C5.56656 11.1596 6.11747 11.4509 6.81867 11.4509C7.46979 11.4509 8.07086 11.1596 8.42146 10.7227H18.9395C19.5405 10.7227 20.0914 11.2567 20.0914 11.8878Z" stroke="#1499A2" stroke-width="0.9" stroke-miterlimit="10" stroke-linecap="round" stroke-linejoin="round"/>
</svg>
