<svg width="19" height="23" viewBox="0 0 19 23" fill="none" xmlns="http://www.w3.org/2000/svg">
<path d="M17.9121 17.8243V21.9996H1.08789V17.8243C1.08789 14.6314 2.80715 11.9297 5.38604 10.4561C6.49127 11.3157 7.96491 11.8069 9.43856 11.8069C10.9122 11.8069 12.3859 11.3157 13.4912 10.4561C14.228 10.8245 14.842 11.3157 15.3332 11.8069C16.9297 13.4034 17.9121 15.4911 17.9121 17.8243Z" stroke="#1499A2" stroke-width="0.9" stroke-miterlimit="10" stroke-linecap="round" stroke-linejoin="round"/>
<path d="M9.56221 9.35067C11.8682 9.35067 13.7375 7.48131 13.7375 5.17533C13.7375 2.86936 11.8682 1 9.56221 1C7.25623 1 5.38684 2.86936 5.38684 5.17533C5.38684 7.48131 7.25623 9.35067 9.56221 9.35067Z" stroke="#1499A2" stroke-width="0.9" stroke-miterlimit="10" stroke-linecap="round" stroke-linejoin="round"/>
<path d="M5.38684 17.8242V21.9995H13.7375V17.8242" stroke="#1499A2" stroke-width="0.9" stroke-miterlimit="10" stroke-linecap="round" stroke-linejoin="round"/>
</svg>
