<svg width="15" height="25" viewBox="0 0 15 25" fill="none" xmlns="http://www.w3.org/2000/svg">
<path d="M11.0111 6.054C11.522 4.39354 11.9052 2.98854 11.9052 2.98854C12.1607 2.15831 11.6498 1.32808 10.8834 1.07262C10.117 0.817166 9.28679 1.26421 9.03133 1.96671" stroke="#1499A2" stroke-width="0.9" stroke-miterlimit="10" stroke-linecap="round"/>
<path d="M12.6094 11.8658C12.6094 11.8658 12.0346 10.333 11.7791 9.43895C11.0766 6.94826 9.99094 3.05256 9.99094 3.05256C9.73548 2.22233 8.90525 1.77527 8.07502 1.96686C7.24479 2.22232 6.79774 3.05255 6.98933 3.88278C6.98933 3.88278 8.07502 7.71462 8.71366 10.0137" stroke="#1499A2" stroke-width="0.9" stroke-miterlimit="10" stroke-linecap="round"/>
<path d="M6.86149 11.2283V8.29054C6.86149 7.46031 6.15898 6.75781 5.32875 6.75781H5.20102C4.37079 6.75781 3.66829 7.46031 3.66829 8.29054V11.6115C3.66829 12.4417 4.37079 13.1442 5.20102 13.1442H5.26489C5.58421 13.1442 5.96739 13.0165 6.22285 12.8249" stroke="#1499A2" stroke-width="0.9" stroke-miterlimit="10" stroke-linecap="round"/>
<path d="M0.474968 8.92726V11.6096C0.474968 12.4398 1.17747 13.1423 2.0077 13.1423H2.13543C2.96566 13.1423 3.66816 12.4398 3.66816 11.6096V8.92726C3.66816 8.09703 2.96566 7.39453 2.13543 7.39453H2.0077C1.17747 7.39453 0.474968 8.09703 0.474968 8.92726Z" stroke="#1499A2" stroke-width="0.9" stroke-miterlimit="10" stroke-linecap="round"/>
<path d="M1.81809 21.1885C1.37104 20.2944 1.11559 19.2725 1.11559 18.2507V13.1416" stroke="#1499A2" stroke-width="0.9" stroke-miterlimit="10" stroke-linecap="round"/>
<path d="M13.6931 21.3171C14.204 20.3591 14.5233 19.2096 14.5233 18.06V14.4198C14.5233 13.0148 13.3737 11.8652 11.9687 11.8652H6.22097V12.5677C6.22097 13.5896 7.0512 14.4198 8.07303 14.4198H10.6914V16.3357H8.13689C6.73188 16.3357 5.58233 17.4853 5.58233 18.8903" stroke="#1499A2" stroke-width="0.9" stroke-miterlimit="10" stroke-linecap="round"/>
<path d="M14.525 23.9999V21.4453H0.474968V23.9999" stroke="#1499A2" stroke-width="0.9" stroke-miterlimit="10" stroke-linecap="round"/>
</svg>
