<svg width="15" height="17" viewBox="0 0 15 17" fill="none" xmlns="http://www.w3.org/2000/svg">
<path d="M3.36331 11V15.3333" stroke="#1499A2" stroke-width="0.9" stroke-linecap="round" stroke-linejoin="round"/>
<path d="M1.77272 10.6667H1.13638C0.818204 10.6667 0.500031 10.3667 0.500031 10.0001V7.66679C0.500031 6.00015 1.13638 5.3335 2.72724 5.3335H3.99994C5.59081 5.3335 8.77254 5.3335 8.77254 5.3335C9.40889 5.3335 8.77254 6.6668 8.13619 6.6668H4.95446V15.3333C4.95446 15.7 4.6681 16 4.31811 16H3.99994C3.64995 16 3.36359 15.7 3.36359 15.3333C3.36359 15.7 3.07724 16 2.72724 16H2.40907C2.05908 16 1.77272 15.7 1.77272 15.3333V8.33344" stroke="#1499A2" stroke-width="0.9" stroke-linecap="round" stroke-linejoin="round"/>
<path d="M10.3633 5.3335C10.6815 5.3335 10.6179 5.3335 10.9997 5.3335H12.2724C13.8632 5.3335 14.4996 6.00015 14.4996 7.66679V10.0001C14.4996 10.3667 14.1814 10.6667 13.8632 10.6667H13.2269" stroke="#1499A2" stroke-width="0.9" stroke-linecap="round" stroke-linejoin="round"/>
<path d="M10.0462 10.666H9.40981C9.09164 10.666 8.77347 10.366 8.77347 9.9993V7.66602" stroke="#1499A2" stroke-width="0.9" stroke-linecap="round" stroke-linejoin="round"/>
<path d="M11.6367 11V15.3333" stroke="#1499A2" stroke-width="0.9" stroke-linecap="round" stroke-linejoin="round"/>
<path d="M13.2267 8.33301V15.3329C13.2267 15.6995 12.9403 15.9995 12.5903 15.9995H12.2722C11.9222 15.9995 11.6358 15.6995 11.6358 15.3329C11.6358 15.6995 11.3495 15.9995 10.9995 15.9995H10.6813C10.3313 15.9995 10.045 15.6995 10.045 15.3329V8.33301" stroke="#1499A2" stroke-width="0.9" stroke-linecap="round" stroke-linejoin="round"/>
<path d="M4.63526 2.29997C4.63526 1.59999 4.06255 1 3.36257 1C2.66259 1 2.08987 1.56665 2.08987 2.29997V2.7333C2.08987 3.43329 2.66259 4.03328 3.36257 4.03328C4.06255 4.03328 4.63526 3.46662 4.63526 2.7333V2.29997Z" stroke="#1499A2" stroke-width="0.9" stroke-linecap="round" stroke-linejoin="round"/>
<path d="M12.9087 2.29997C12.9087 1.59999 12.336 1 11.636 1C10.936 1 10.3633 1.56665 10.3633 2.29997V2.7333C10.3633 3.43329 10.936 4.03328 11.636 4.03328C12.336 4.03328 12.9087 3.46662 12.9087 2.7333V2.29997Z" stroke="#1499A2" stroke-width="0.9" stroke-linecap="round" stroke-linejoin="round"/>
</svg>
