<svg width="25" height="19" viewBox="0 0 25 19" fill="none" xmlns="http://www.w3.org/2000/svg">
<path d="M23.215 8.58984C22.2512 4.97553 20.7453 3.71052 19.1791 3.89124H5.80612C4.23992 3.77076 2.73395 4.97553 1.77014 8.58984C0.565365 12.927 1.16775 17.0835 2.97491 17.8666C4.66158 18.5894 6.83017 16.3004 8.09518 12.6258H16.89C18.155 16.3004 20.3236 18.5894 22.0103 17.8666C23.8777 17.0835 24.4198 12.927 23.215 8.58984Z" stroke="#1499A2" stroke-miterlimit="10" stroke-linecap="round" stroke-linejoin="round"/>
<path d="M9.48036 7.5057H7.73346V5.75879H5.92631V7.5057H4.17937V9.31286H5.92631V11.0598H7.73346V9.31286H9.48036V7.5057Z" stroke="#1499A2" stroke-miterlimit="10" stroke-linecap="round" stroke-linejoin="round"/>
<path d="M16.8315 8.40879C17.5634 8.40879 18.1568 7.81545 18.1568 7.08354C18.1568 6.35162 17.5634 5.7583 16.8315 5.7583C16.0996 5.7583 15.5062 6.35162 15.5062 7.08354C15.5062 7.81545 16.0996 8.40879 16.8315 8.40879Z" stroke="#1499A2" stroke-miterlimit="10" stroke-linecap="round" stroke-linejoin="round"/>
<path d="M19.4817 11.0592C20.2136 11.0592 20.8069 10.4659 20.8069 9.73395C20.8069 9.00203 20.2136 8.40869 19.4817 8.40869C18.7498 8.40869 18.1565 9.00203 18.1565 9.73395C18.1565 10.4659 18.7498 11.0592 19.4817 11.0592Z" stroke="#1499A2" stroke-miterlimit="10" stroke-linecap="round" stroke-linejoin="round"/>
<path d="M12.4926 3.89144V1" stroke="#1499A2" stroke-miterlimit="10" stroke-linecap="round" stroke-linejoin="round"/>
</svg>
