<svg width="23" height="19" viewBox="0 0 23 19" fill="none" xmlns="http://www.w3.org/2000/svg">
<path d="M22.125 15.875V18H0.875V15.875H22.125Z" stroke="#1499A2" stroke-width="0.9" stroke-miterlimit="10" stroke-linecap="round" stroke-linejoin="round"/>
<path d="M10.9688 1V1.74375C10.9688 2.96562 10.7031 4.13437 10.1719 5.19687C9.64062 6.25937 9.375 7.48125 9.375 8.65V15.875H14.6875V8.65C14.6875 7.42812 14.4219 6.25937 13.8906 5.19687C13.3594 4.13437 13.0938 2.9125 13.0938 1.74375V1" stroke="#1499A2" stroke-width="0.9" stroke-miterlimit="10" stroke-linecap="round" stroke-linejoin="round"/>
<path d="M13.625 1H10.4375" stroke="#1499A2" stroke-width="0.9" stroke-miterlimit="10" stroke-linecap="round" stroke-linejoin="round"/>
<path d="M10.4375 8.96875H13.625" stroke="#1499A2" stroke-width="0.9" stroke-miterlimit="10" stroke-linecap="round" stroke-linejoin="round"/>
<path d="M17.3438 11.625H19.4688" stroke="#1499A2" stroke-width="0.9" stroke-miterlimit="10" stroke-linecap="round" stroke-linejoin="round"/>
<path d="M3.53125 10.5625H6.71875" stroke="#1499A2" stroke-width="0.9" stroke-miterlimit="10" stroke-linecap="round" stroke-linejoin="round"/>
<path d="M3.53125 13.2188H6.71875" stroke="#1499A2" stroke-width="0.9" stroke-miterlimit="10" stroke-linecap="round" stroke-linejoin="round"/>
<path d="M3.53125 4.1875H6.71875" stroke="#1499A2" stroke-width="0.9" stroke-miterlimit="10" stroke-linecap="round" stroke-linejoin="round"/>
<path d="M6.1875 4.93125V4.1875H4.0625V4.93125C4.0625 6.15312 3.47812 7.26875 2.46875 7.90625V15.875H7.78125V7.90625C6.77188 7.26875 6.1875 6.1 6.1875 4.93125Z" stroke="#1499A2" stroke-width="0.9" stroke-miterlimit="10" stroke-linecap="round" stroke-linejoin="round"/>
<path d="M20.5312 15.875H16.2812V9.5H21.5938L20.5312 11.0938V15.875Z" stroke="#1499A2" stroke-width="0.9" stroke-miterlimit="10" stroke-linecap="round" stroke-linejoin="round"/>
</svg>
