<svg width="21" height="22" viewBox="0 0 21 22" fill="none" xmlns="http://www.w3.org/2000/svg">
<path d="M6.92065 17.5791C7.86802 18.4212 9.07855 18.8949 10.3943 18.8949C11.7101 18.8949 12.9207 18.4212 13.868 17.5791" stroke="#1499A2" stroke-width="0.9" stroke-miterlimit="10" stroke-linecap="round" stroke-linejoin="round"/>
<path d="M12.9206 12.6316C12.2891 13.2632 11.447 13.6843 10.4996 13.6843C9.49958 13.6843 8.55221 13.2106 7.97327 12.5264" stroke="#1499A2" stroke-width="0.9" stroke-miterlimit="10" stroke-linecap="round" stroke-linejoin="round"/>
<path d="M5.23694 11.5264C5.5001 14.2106 7.76325 16.2632 10.5001 16.2632C13.2369 16.2632 15.5001 14.2106 15.7633 11.5264" stroke="#1499A2" stroke-width="0.9" stroke-miterlimit="10" stroke-linecap="round" stroke-linejoin="round"/>
<path d="M8.55273 10.4739H5.76325C5.44746 10.4739 5.23694 10.2107 5.23694 9.94755V8.3686C5.23694 8.05281 5.5001 7.84229 5.76325 7.84229H8.92115C9.23694 7.84229 9.44746 8.10544 9.44746 8.3686V9.57912C9.44746 10.0528 9.02641 10.4739 8.55273 10.4739Z" stroke="#1499A2" stroke-width="0.9" stroke-miterlimit="10" stroke-linecap="round" stroke-linejoin="round"/>
<path d="M15.2369 10.4739H12.4475C11.9212 10.4739 11.5527 10.0528 11.5527 9.57912V8.3686C11.5527 8.05281 11.8159 7.84229 12.0791 7.84229H15.2369C15.5527 7.84229 15.7633 8.10544 15.7633 8.3686V9.94755C15.7633 10.2107 15.5001 10.4739 15.2369 10.4739Z" stroke="#1499A2" stroke-width="0.9" stroke-miterlimit="10" stroke-linecap="round" stroke-linejoin="round"/>
<path d="M9.44739 8.89453H11.5527" stroke="#1499A2" stroke-width="0.9" stroke-miterlimit="10" stroke-linecap="round" stroke-linejoin="round"/>
<path d="M7.34216 15.2104V16.3157C7.34216 17.1578 6.65795 17.842 5.81584 17.842H4.18426C2.44742 17.842 1.02637 19.2631 1.02637 20.9999" stroke="#1499A2" stroke-width="0.9" stroke-miterlimit="10" stroke-linecap="round" stroke-linejoin="round"/>
<path d="M19.9737 20.9999C19.9737 19.2631 18.5527 17.842 16.8159 17.842H15.1843C14.3422 17.842 13.658 17.1578 13.658 16.3157V15.2104" stroke="#1499A2" stroke-width="0.9" stroke-miterlimit="10" stroke-linecap="round" stroke-linejoin="round"/>
<path d="M9.44739 18.8945V20.9998" stroke="#1499A2" stroke-width="0.9" stroke-miterlimit="10" stroke-linecap="round" stroke-linejoin="round"/>
<path d="M11.5527 18.8945V20.9998" stroke="#1499A2" stroke-width="0.9" stroke-miterlimit="10" stroke-linecap="round" stroke-linejoin="round"/>
<path d="M5.23691 7.84229H4.07901C3.81585 7.84229 3.65796 8.05281 3.65796 8.26333V11.0528C3.65796 11.5791 4.07901 12.0528 4.65796 12.0528H5.23691" stroke="#1499A2" stroke-width="0.9" stroke-miterlimit="10" stroke-linecap="round" stroke-linejoin="round"/>
<path d="M15.7632 7.84229H16.9211C17.1842 7.84229 17.3421 8.05281 17.3421 8.26333V11.0528C17.3421 11.5791 16.9211 12.0528 16.3421 12.0528H15.7632" stroke="#1499A2" stroke-width="0.9" stroke-miterlimit="10" stroke-linecap="round" stroke-linejoin="round"/>
<path d="M5.23694 8.89474V4.15789C5.23694 2.42105 6.65799 1 8.39483 1H12.6054C14.3422 1 15.7633 2.42105 15.7633 4.15789V8.89474" stroke="#1499A2" stroke-width="0.9" stroke-miterlimit="10" stroke-linecap="round" stroke-linejoin="round"/>
<path d="M15.7632 6.26298H9.44743C8.28953 6.26298 7.34216 5.31561 7.34216 4.15771" stroke="#1499A2" stroke-width="0.9" stroke-miterlimit="10" stroke-linecap="round" stroke-linejoin="round"/>
</svg>
