<svg width="21" height="21" viewBox="0 0 21 21" fill="none" xmlns="http://www.w3.org/2000/svg">
<path d="M10.0762 6.48926H10.4985H11.3429C13.4539 6.48926 14.2983 7.33368 14.2983 9.44473V12.4002C14.2983 12.8646 13.8761 13.2446 13.4539 13.2446H12.6095" stroke="#1499A2" stroke-width="0.9" stroke-linecap="round" stroke-linejoin="round"/>
<path d="M10.502 16.1987V19.1542" stroke="#1499A2" stroke-width="0.9" stroke-linecap="round" stroke-linejoin="round"/>
<path d="M12.6128 10.29V19.1565C12.6128 19.6209 12.2328 20.0009 11.7684 20.0009H11.3462C10.8818 20.0009 10.5018 19.6209 10.5018 19.1565C10.5018 19.6209 10.1218 20.0009 9.65736 20.0009H9.23515C8.77072 20.0009 8.39073 19.6209 8.39073 19.1565V15.3566" stroke="#1499A2" stroke-width="0.9" stroke-linecap="round" stroke-linejoin="round"/>
<path d="M2.47818 13.2446H1.63376C1.21155 13.2446 0.789337 12.8646 0.789337 12.4002V9.44473C0.789337 7.33368 1.63376 6.48926 3.74481 6.48926H5.43365C7.5447 6.48926 8.38912 7.33368 8.38912 9.44473V12.4002C8.38912 12.8646 7.96691 13.2446 7.5447 13.2446H6.70028" stroke="#1499A2" stroke-width="0.9" stroke-linecap="round" stroke-linejoin="round"/>
<path d="M4.58808 13.6675V19.1562" stroke="#1499A2" stroke-width="0.9" stroke-linecap="round" stroke-linejoin="round"/>
<path d="M6.70281 10.29V19.1565C6.70281 19.6209 6.32282 20.0009 5.85839 20.0009H5.43618C4.97174 20.0009 4.59176 19.6209 4.59176 19.1565C4.59176 19.6209 4.21177 20.0009 3.74734 20.0009H3.32513C2.86069 20.0009 2.48071 19.6209 2.48071 19.1565V10.29" stroke="#1499A2" stroke-width="0.9" stroke-linecap="round" stroke-linejoin="round"/>
<path d="M15.5664 6.48926H16.4108H17.2552C19.3663 6.48926 20.2107 7.33368 20.2107 9.44473V12.4002C20.2107 12.8646 19.7885 13.2446 19.3663 13.2446H18.5218" stroke="#1499A2" stroke-width="0.9" stroke-linecap="round" stroke-linejoin="round"/>
<path d="M16.412 16.1987V19.1542" stroke="#1499A2" stroke-width="0.9" stroke-linecap="round" stroke-linejoin="round"/>
<path d="M18.5209 10.29V19.1565C18.5209 19.6209 18.1409 20.0009 17.6765 20.0009H17.2543C16.7899 20.0009 16.4099 19.6209 16.4099 19.1565C16.4099 19.6209 16.0299 20.0009 15.5654 20.0009H15.1432C14.6788 20.0009 14.2988 19.6209 14.2988 19.1565V15.3566" stroke="#1499A2" stroke-width="0.9" stroke-linecap="round" stroke-linejoin="round"/>
<path d="M6.2781 2.64662C6.2781 1.75998 5.51812 1 4.58926 1C3.6604 1 2.90042 1.71775 2.90042 2.64662V3.19549C2.90042 4.08213 3.6604 4.84211 4.58926 4.84211C5.51812 4.84211 6.2781 4.12435 6.2781 3.19549V2.64662Z" stroke="#1499A2" stroke-width="0.9" stroke-linecap="round" stroke-linejoin="round"/>
<path d="M12.1883 2.64662C12.1883 1.75998 11.4283 1 10.4995 1C9.57062 1 8.81065 1.71775 8.81065 2.64662V3.19549C8.81065 4.08213 9.57062 4.84211 10.4995 4.84211C11.4283 4.84211 12.1883 4.12435 12.1883 3.19549V2.64662Z" stroke="#1499A2" stroke-width="0.9" stroke-linecap="round" stroke-linejoin="round"/>
<path d="M18.0984 2.64662C18.0984 1.75998 17.3384 1 16.4095 1C15.4807 1 14.7207 1.71775 14.7207 2.64662V3.19549C14.7207 4.08213 15.4807 4.84211 16.4095 4.84211C17.3384 4.84211 18.0984 4.12435 18.0984 3.19549V2.64662Z" stroke="#1499A2" stroke-width="0.9" stroke-linecap="round" stroke-linejoin="round"/>
</svg>
