<svg width="25" height="23" viewBox="0 0 25 23" fill="none" xmlns="http://www.w3.org/2000/svg">
<path d="M11.8943 7.73164H4.31197C4.15931 7.73164 4.05753 7.68075 3.95575 7.57897C3.90486 7.4772 3.85398 7.32453 3.90487 7.22276L5.12618 4.16948C5.17706 4.01681 5.32973 3.91504 5.48239 3.91504H10.6221C10.7747 3.91504 10.9274 4.01681 10.9783 4.16948L12.1996 7.22276C12.2505 7.32453 12.2505 7.4772 12.1487 7.57897C12.1487 7.68075 11.9961 7.73164 11.8943 7.73164ZM4.92263 6.96832H11.2836L10.3676 4.67836H5.78772L4.92263 6.96832Z" fill="#1499A2"/>
<path d="M13.5183 4.68169H2.67921C2.01766 4.68169 1.50879 4.17281 1.50879 3.51127V1.78108C1.50879 0.814208 2.323 0 3.28987 0H12.9586C13.9255 0 14.7397 0.814208 14.7397 1.78108V3.51127C14.6888 4.17281 14.1799 4.68169 13.5183 4.68169ZM3.28987 0.814208C2.78099 0.814208 2.32299 1.22131 2.32299 1.78108V3.51127C2.32299 3.71482 2.47565 3.86749 2.67921 3.86749H13.5183C13.7219 3.86749 13.8746 3.71482 13.8746 3.51127V1.78108C13.8746 1.2722 13.4675 0.814208 12.9077 0.814208H3.28987Z" fill="#1499A2"/>
<path d="M8.13661 4.67863C7.93305 4.67863 7.7295 4.47508 7.7295 4.27153V2.79578C7.7295 2.59222 7.93305 2.38867 8.13661 2.38867C8.34016 2.38867 8.5437 2.59222 8.5437 2.79578V4.27153C8.49281 4.52597 8.34016 4.67863 8.13661 4.67863Z" fill="#1499A2"/>
<path d="M10.1171 4.67863C9.91353 4.67863 9.70998 4.47508 9.70998 4.27153V2.79578C9.70998 2.59222 9.91353 2.38867 10.1171 2.38867C10.3206 2.38867 10.5242 2.59222 10.5242 2.79578V4.27153C10.5242 4.52597 10.3715 4.67863 10.1171 4.67863Z" fill="#1499A2"/>
<path d="M12.1483 4.67863C11.9448 4.67863 11.7412 4.47508 11.7412 4.27153V2.79578C11.7412 2.59222 11.9448 2.38867 12.1483 2.38867C12.3519 2.38867 12.5554 2.59222 12.5554 2.79578V4.27153C12.5554 4.52597 12.3519 4.67863 12.1483 4.67863Z" fill="#1499A2"/>
<path d="M6.09168 4.67863C5.88813 4.67863 5.68458 4.47508 5.68458 4.27153V2.79578C5.68458 2.59222 5.88813 2.38867 6.09168 2.38867C6.29524 2.38867 6.49878 2.59222 6.49878 2.79578V4.27153C6.49878 4.52597 6.29524 4.67863 6.09168 4.67863Z" fill="#1499A2"/>
<path d="M4.06043 4.67863C3.85687 4.67863 3.65332 4.47508 3.65332 4.27153V2.79578C3.65332 2.59222 3.85687 2.38867 4.06043 2.38867C4.26398 2.38867 4.46752 2.59222 4.46752 2.79578V4.27153C4.46752 4.52597 4.26398 4.67863 4.06043 4.67863Z" fill="#1499A2"/>
<path d="M10.4212 20.0495H1.36316C1.15961 20.0495 0.956055 19.8459 0.956055 19.6424V10.8387C0.956055 10.6352 1.15961 10.4316 1.36316 10.4316H10.4212C11.1337 10.4316 11.6934 10.9914 11.6934 11.7038V18.7773C11.6934 19.4897 11.1337 20.0495 10.4212 20.0495ZM1.77027 19.2353H10.4212C10.6757 19.2353 10.8792 19.0317 10.8792 18.7773V11.7038C10.8792 11.4494 10.6757 11.2458 10.4212 11.2458H1.77027V19.2353Z" fill="#1499A2"/>
<path d="M16.5328 21.5766C16.3293 21.5766 16.1257 21.3731 16.1257 21.1695V15.4701C16.1257 15.2665 16.3293 15.063 16.5328 15.063C16.7364 15.063 16.9399 15.2665 16.9399 15.4701V21.2204C16.9399 21.424 16.7364 21.5766 16.5328 21.5766Z" fill="#1499A2"/>
<path d="M19.5254 14.0437H13.775C13.5715 14.0437 13.3679 13.8401 13.3679 13.6366C13.3679 13.433 13.5715 13.2295 13.775 13.2295H19.5254C19.7289 13.2295 19.9325 13.433 19.9325 13.6366C19.9325 13.8401 19.7798 14.0437 19.5254 14.0437Z" fill="#1499A2"/>
<path d="M22.7884 18.5742C22.6867 18.5742 22.5849 18.5233 22.4831 18.4724L20.244 16.2333C20.0914 16.0807 20.0914 15.8262 20.244 15.6736C20.3967 15.5209 20.6511 15.5209 20.8038 15.6736L23.0429 17.9127C23.1955 18.0653 23.1955 18.3198 23.0429 18.4724C22.992 18.5233 22.8902 18.5742 22.7884 18.5742Z" fill="#1499A2"/>
<path d="M20.7998 19.3872C20.2401 19.3872 19.6803 19.2345 19.1714 18.9801C19.0188 18.8783 18.9679 18.7256 18.9679 18.573C18.9679 18.4712 18.9679 18.4203 18.9679 18.3185C18.9679 17.5552 18.6116 16.8428 18.001 16.3339C17.8992 16.2321 17.8483 16.1304 17.8483 15.9777C17.8483 15.825 17.8992 15.7233 18.0519 15.6724C18.7643 15.2144 19.1714 14.4511 19.1714 13.6369V13.586C19.1714 13.4333 19.2732 13.2806 19.375 13.2297C20.6472 12.6191 22.1229 12.8735 23.0898 13.8404C24.362 15.1126 24.362 17.199 23.0898 18.4712C22.4791 19.0819 21.614 19.3872 20.7998 19.3872ZM19.7821 18.3694C20.6981 18.7765 21.7667 18.573 22.53 17.8606C23.4969 16.8937 23.4969 15.3162 22.53 14.4002C21.8685 13.7386 20.8507 13.4842 19.9347 13.8404C19.8838 14.7055 19.5276 15.4688 18.8661 16.0795C19.4767 16.6901 19.7821 17.5043 19.7821 18.3694Z" fill="#1499A2"/>
<path d="M16.5252 21.5766C14.7441 21.5766 13.2683 20.1009 13.2683 18.3198C13.2683 16.5387 14.7441 15.063 16.5252 15.063C18.3062 15.063 19.782 16.5387 19.782 18.3198C19.782 20.1009 18.3062 21.5766 16.5252 21.5766ZM16.5252 15.8772C15.1512 15.8772 14.0825 16.9967 14.0825 18.3198C14.0825 19.6938 15.2021 20.7624 16.5252 20.7624C17.8991 20.7624 18.9678 19.6429 18.9678 18.3198C18.9678 16.9458 17.8991 15.8772 16.5252 15.8772Z" fill="#1499A2"/>
<path d="M18.255 16.4356C18.1533 16.4356 18.1024 16.3847 18.0006 16.3338C17.1864 15.7231 16.016 15.6722 15.2017 16.232C15.0491 16.3338 14.8964 16.3338 14.7438 16.232C13.9296 15.6213 13.4207 14.6545 13.4207 13.6367C13.4207 11.8556 14.8964 10.3799 16.6775 10.3799C18.4586 10.3799 19.9343 11.8556 19.9343 13.6367C19.9343 14.7562 19.3746 15.774 18.4586 16.3847C18.4077 16.3847 18.3059 16.4356 18.255 16.4356ZM16.5248 15.0616C17.1355 15.0616 17.6953 15.2142 18.255 15.5705C18.8148 15.1125 19.171 14.4 19.171 13.6876C19.171 12.3136 18.0515 11.245 16.7284 11.245C15.3544 11.245 14.2858 12.3645 14.2858 13.6876C14.2858 14.4 14.5911 15.0107 15.0491 15.4687C15.4562 15.1634 15.9651 15.0616 16.5248 15.0616Z" fill="#1499A2"/>
<path d="M13.4215 23.0004H2.83685C1.81909 23.0004 1.00488 22.1862 1.00488 21.1684V10.3293C1.00488 8.44645 2.53152 6.9707 4.36348 6.9707H11.9458C13.8287 6.9707 15.3044 8.49734 15.3044 10.3293V11.398C15.3044 11.4997 15.2535 11.6524 15.1517 11.7033C14.592 12.1613 14.2358 12.8737 14.2358 13.5861C14.2358 14.2986 14.5411 15.011 15.1517 15.469C15.2535 15.5708 15.3044 15.6725 15.3044 15.7743V15.927C15.3044 16.0796 15.2535 16.1814 15.1517 16.2323C14.4902 16.6903 14.134 17.4536 14.134 18.2169C14.134 18.9803 14.5411 19.7436 15.1517 20.2016C15.2535 20.2525 15.3044 20.4051 15.3044 20.5069V21.0158C15.2535 22.1353 14.4393 23.0004 13.4215 23.0004ZM4.3126 7.73402C2.88774 7.73402 1.7682 8.90445 1.7682 10.2784V21.0667C1.7682 21.6264 2.22619 22.0844 2.78596 22.0844H13.3707C13.9304 22.0844 14.3884 21.6264 14.3884 21.0667V20.7613C13.6251 20.1507 13.218 19.2347 13.218 18.2169C13.218 17.301 13.6251 16.4359 14.2866 15.8252C13.676 15.2146 13.3707 14.4003 13.3707 13.5353C13.3707 12.6193 13.7269 11.7542 14.4393 11.1435V10.2275C14.4393 8.80267 13.2689 7.68313 11.8949 7.68313H4.3126V7.73402Z" fill="#1499A2"/>
</svg>
