<svg width="23" height="23" viewBox="0 0 23 23" fill="none" xmlns="http://www.w3.org/2000/svg">
<path d="M21.1087 7.90727H17.211C16.9326 7.90727 16.5985 7.79591 16.4315 7.57319C16.2088 7.35046 16.1531 7.07205 16.1531 6.73796C16.2088 6.23682 16.5985 5.90273 17.1553 5.84705L20.9974 5.45728C21.3315 5.4016 21.7212 5.51296 21.944 5.79137C22.1667 6.06978 22.3337 6.34819 22.3337 6.73796C22.3337 7.35046 21.7769 7.90727 21.1087 7.90727ZM21.1087 6.18114C21.0531 6.18114 17.211 6.57091 17.211 6.57091C17.044 6.57091 16.9326 6.68227 16.9326 6.79364C16.9326 6.905 16.9883 6.96069 16.9883 7.01637C17.044 7.07205 17.0997 7.12773 17.211 7.12773H21.1087C21.3872 7.12773 21.5542 6.905 21.5542 6.68227C21.5542 6.57091 21.4985 6.40387 21.3872 6.34819C21.3315 6.23683 21.2201 6.18114 21.1087 6.18114Z" fill="#1499A2"/>
<path d="M20.6561 22.9988H1.05614C0.833417 22.9988 0.666382 22.8317 0.666382 22.609C0.666382 22.3863 0.833417 22.2192 1.05614 22.2192H20.6561C20.8788 22.2192 21.0459 22.3863 21.0459 22.609C21.0459 22.8317 20.8788 22.9988 20.6561 22.9988Z" fill="#1499A2"/>
<path d="M13.1979 13.1987C13.1422 13.1987 13.0865 13.1987 13.0308 13.143C12.6967 13.0317 12.3627 12.8646 11.9729 12.7533C11.6945 12.6419 10.5809 12.3078 8.74335 11.6396C8.52063 11.5839 8.40925 11.3612 8.52061 11.1385C8.5763 10.9158 8.79904 10.8044 9.02176 10.9158C10.8593 11.5283 11.9729 11.918 12.1956 12.0294C12.5854 12.1408 12.9195 12.2521 13.3092 12.4192C13.532 12.4748 13.5876 12.7532 13.532 12.9203C13.532 13.0873 13.3649 13.1987 13.1979 13.1987Z" fill="#1499A2"/>
<path d="M14.0901 20.826C12.531 20.826 10.8049 20.4362 9.07875 19.7123C8.52193 19.4339 7.79807 19.0441 6.85148 18.543C4.45717 17.2066 3.06514 14.6453 3.1765 11.9169C3.23218 11.193 3.56627 10.5805 4.17876 10.1908C4.79126 9.80098 5.45944 9.68962 6.12762 9.91234C6.12762 9.91234 7.57534 10.4135 9.07875 10.9703C9.30147 11.026 9.41285 11.2487 9.30149 11.4714C9.2458 11.6942 9.02306 11.8055 8.80034 11.6942C7.29693 11.193 5.84921 10.6362 5.84921 10.6362C5.40376 10.4692 4.95831 10.5248 4.56854 10.8033C4.17877 11.0817 3.95604 11.4714 3.95604 11.9169C3.84468 14.3669 5.06967 16.6498 7.24126 17.8191C8.13216 18.3203 8.85602 18.71 9.35715 18.9328C11.139 19.7123 12.9765 20.0464 14.4799 19.9907C15.8719 19.9351 16.8742 19.4339 17.2083 18.6544C17.4867 18.0419 17.431 17.318 17.1526 16.5941C16.5958 15.2021 15.0924 13.9214 13.0878 13.1419C12.8651 13.0862 12.8094 12.8078 12.8651 12.6407C12.9208 12.418 13.1992 12.3623 13.3662 12.418C15.5935 13.3089 17.2083 14.701 17.8765 16.3157C18.2662 17.2623 18.2662 18.2089 17.9321 18.9885C17.4867 20.0464 16.2617 20.7146 14.5356 20.826C14.3685 20.826 14.2015 20.826 14.0901 20.826Z" fill="#1499A2"/>
<path d="M15.9188 14.7553C15.8074 14.7553 15.7517 14.6997 15.6404 14.644C15.2506 14.3099 14.8051 13.9758 14.304 13.6974C14.1926 13.6417 14.137 13.586 14.137 13.4747C14.0813 13.3633 14.137 13.2519 14.1926 13.1963L17.7006 7.294C17.7563 7.18264 17.9233 7.12695 18.0347 7.12695H19.8165C19.9835 7.12695 20.0949 7.18264 20.1506 7.294C20.2063 7.40536 20.2063 7.57241 20.1506 7.68377L16.3085 14.5326C16.2529 14.644 16.1415 14.6997 16.0301 14.6997C15.9188 14.7553 15.9188 14.7553 15.9188 14.7553ZM15.0279 13.2519C15.3063 13.419 15.529 13.586 15.8074 13.7531L19.0926 7.90649H18.2017L15.0279 13.2519Z" fill="#1499A2"/>
<path d="M12.7455 18.9366C11.4092 18.9366 10.2955 17.823 10.2955 16.4866C10.2955 15.1503 11.4092 14.0366 12.7455 14.0366C14.0819 14.0366 15.1955 15.1503 15.1955 16.4866C15.1955 17.8787 14.1376 18.9366 12.7455 18.9366ZM12.7455 14.8718C11.8546 14.8718 11.0751 15.5957 11.0751 16.5423C11.0751 17.4332 11.7989 18.2127 12.7455 18.2127C13.6364 18.2127 14.416 17.4889 14.416 16.5423C14.416 15.5957 13.6921 14.8718 12.7455 14.8718Z" fill="#1499A2"/>
<path d="M7.73188 11.3056C7.6762 11.3056 7.62053 11.3056 7.62053 11.3056C6.61826 10.9715 5.83871 10.6931 5.83871 10.6931C5.67166 10.6374 5.50462 10.5818 5.28189 10.6374C5.11484 10.6374 4.94779 10.5261 4.89211 10.3033L3.22166 2.842C3.1103 2.2295 3.38872 1.617 4.00122 1.39427C4.22394 1.28291 4.44667 1.39428 4.50235 1.61701C4.55803 1.83973 4.50235 2.06246 4.27963 2.11814C4.0569 2.2295 3.94553 2.45223 4.00122 2.67495L5.61598 9.80221C5.78303 9.80221 5.95007 9.85789 6.11711 9.91357C6.11711 9.91357 6.56256 10.0806 7.17506 10.3033L5.05917 2.73064C5.00348 2.50791 5.11485 2.28518 5.33757 2.2295C5.5603 2.17382 5.78302 2.28518 5.83871 2.50791L8.12166 10.8045C8.17734 10.9715 8.12165 11.0829 8.01029 11.1943C7.95461 11.2499 7.84324 11.3056 7.73188 11.3056Z" fill="#1499A2"/>
<path d="M6.79388 3.34315C6.7382 3.34315 6.7382 3.34315 6.68251 3.34315L5.40184 3.00907C4.67798 2.84202 4.06548 2.34089 3.67571 1.72839L3.00752 0.614755C2.89616 0.44771 2.95185 0.169302 3.11889 0.0579383C3.28594 -0.0534251 3.56434 0.00225492 3.67571 0.1693L4.34388 1.28293C4.62229 1.72839 5.06775 2.11816 5.62457 2.22952L6.90524 2.56361C7.12796 2.6193 7.23933 2.84202 7.18365 3.06475C7.12796 3.23179 6.96093 3.34315 6.79388 3.34315Z" fill="#1499A2"/>
<path d="M8.90376 13.9803C8.84808 13.9803 8.79239 13.9803 8.79239 13.9803L5.39582 12.7553C5.17309 12.6997 5.06172 12.4769 5.17308 12.2542C5.22876 12.0315 5.4515 11.9201 5.67423 12.0315L9.0708 13.2565C9.29352 13.3122 9.4049 13.5349 9.29354 13.7576C9.23786 13.869 9.0708 13.9803 8.90376 13.9803Z" fill="#1499A2"/>
<path d="M14.4724 22.9995C14.2497 22.9995 14.0827 22.8324 14.0827 22.6097L13.9713 20.3824C13.9713 20.1597 14.1383 19.9927 14.3611 19.9927C14.5838 19.9927 14.7509 20.1597 14.7509 20.3824L14.8622 22.6097C14.8622 22.8324 14.6952 22.9995 14.4724 22.9995Z" fill="#1499A2"/>
<path d="M4.0685 23C4.01282 23 4.01283 23 3.95715 23C3.73442 22.9443 3.62306 22.7216 3.67874 22.4989L5.40488 17.1534C5.46056 16.9307 5.68328 16.8193 5.90601 16.875C6.12873 16.9307 6.2401 17.1534 6.18442 17.3762L4.45828 22.7216C4.4026 22.8887 4.23555 23 4.0685 23Z" fill="#1499A2"/>
</svg>
