<svg width="154" height="372" viewBox="0 0 154 372" fill="none" xmlns="http://www.w3.org/2000/svg">
<mask id="mask0_109_60" style="mask-type:luminance" maskUnits="userSpaceOnUse" x="-1" y="0" width="156" height="372">
<path fill-rule="evenodd" clip-rule="evenodd" d="M98.696 18.3559C97.713 17.3593 96.297 16.8411 94.881 17.0404C94.448 17.0802 94.055 17.2397 93.662 17.3992C93.976 15.2066 94.37 10.702 92.324 9.54597C91.026 8.78855 90.122 10.2237 90.122 10.2237C90.122 10.2237 85.835 2.49005 81.587 0.696175C76.473 -1.45647 73.956 1.93196 74.939 3.44679C74.939 3.44679 64.713 -0.180831 61.055 7.55277C57.304 15.4761 62.083 19.1242 63.166 19.8237C63.047 20.218 62.915 20.6637 62.773 21.1528C62.293 21.3505 61.782 21.6088 61.291 21.9444C61.016 22.1437 60.937 22.5424 61.134 22.8214C61.33 23.1004 61.724 23.1802 61.999 22.9809C62.1 22.9124 62.203 22.8475 62.307 22.7862C61.088 27.1451 59.497 33.5665 59.14 38.4742C59.016 38.7322 58.919 39.0028 58.853 39.2845C57.948 43.1912 58.695 49.6491 67.073 49.6491C67.26 49.6491 67.463 49.6506 67.676 49.6521C68.201 49.6558 68.785 49.66 69.338 49.6439C69.233 50.1566 69.109 50.6393 68.97 51.0934C68.812 51.6022 68.636 52.0764 68.45 52.519H68.451C68.325 52.8134 68.193 53.0925 68.057 53.3571C66.349 55.0497 62.883 56.0569 59.796 56.9539C58.645 57.2886 57.546 57.6079 56.611 57.9418C56.322 58.0504 55.924 58.236 55.476 58.4453L55.475 58.4455C54.278 59.0042 52.721 59.732 51.891 59.616C47.21 58.8985 40.327 59.2573 34.702 65.6355C33.709 66.7485 29.146 73.6007 23.692 81.792L23.691 81.7926C16.838 92.0842 8.57799 104.49 4.21899 110.283C-2.03501 118.575 0.207005 125.671 1.30901 127.743C2.41001 129.816 8.19199 140.022 15.193 145.802C22.417 151.778 26.511 155.595 29.274 158.17L29.275 158.171C31.506 160.251 32.868 161.521 34.309 162.465C35.447 163.221 40.776 169.256 42.949 172.53C42.928 172.522 42.906 172.516 42.884 172.51C42.869 172.51 42.854 172.511 42.84 172.511C41.378 172.081 39.822 172.968 41.428 175.062C42.815 176.889 44.294 177.168 46.51 176.635C46.591 176.819 46.827 176.947 47.171 176.855C48.127 176.6 48.987 176.166 49.606 175.5C49.328 183.513 48.686 192.874 47.368 202.726C43.592 230.95 42.648 267.824 43.12 272.129C43.592 276.435 45.48 342.41 43.592 346.715C41.704 351.02 30.376 359.631 26.128 361.544C24.932 362.083 23.849 362.659 22.815 363.209C20.174 364.614 17.852 365.85 14.8 365.85C12.44 365.85 12.44 369.198 14.8 370.633C15.973 371.356 18.678 370.906 21.101 370.504C22.822 370.218 24.4 369.956 25.184 370.155C27.072 370.633 41.704 371.59 45.008 371.112C46.128 370.949 48.323 371.076 50.757 371.216C55.506 371.489 61.164 371.815 61.528 370.155C62.248 366.993 61.361 364.326 60.357 361.305C59.386 358.384 58.305 355.131 58.46 350.781C58.866 339.125 62.439 325.36 65.511 313.526C67.797 304.719 69.805 296.982 70.024 291.982C70.794 275.3 69.6 271.291 68.996 269.261L68.995 269.259C68.921 269.01 68.856 268.791 68.804 268.582C68.332 266.668 76.199 210.54 77.143 211.975C77.644 212.736 78.676 226.328 79.676 239.49C80.561 251.132 81.42 262.44 81.863 264.236C82.217 265.674 82.444 269.023 82.74 273.381C83.23 280.625 83.91 290.655 85.678 299.317C86.59 303.784 87.51 307.719 88.386 311.463C90.23 319.345 91.877 326.387 92.837 335.792C94.253 349.665 95.118 362.74 93.702 363.697C93.543 363.804 93.354 363.924 93.146 364.056C91.503 365.096 88.669 366.89 89.926 369.437C91.106 371.829 93.623 371.71 95.629 370.474C96.888 371.43 98.776 371.391 99.995 370.394C101.018 371.51 102.788 371.789 104.125 371.112C104.168 371.09 104.21 371.067 104.253 371.044H104.254C104.448 370.939 104.647 370.833 104.873 370.833C105.069 370.833 105.266 370.952 105.423 371.072C106.475 371.637 107.468 371.348 108.46 371.06C109.286 370.819 110.111 370.579 110.969 370.833C111.132 370.888 111.295 370.962 111.471 371.041L111.581 371.091C111.625 371.111 111.67 371.131 111.717 371.151C113.959 372.028 115.493 370.155 115.689 368.122C115.88 366.105 115.033 364.285 114.174 362.437C113.437 360.851 112.691 359.245 112.582 357.478C112.549 357.013 112.55 356.555 112.552 356.098C112.554 355.458 112.556 354.82 112.464 354.169C112.28 352.914 111.749 351.768 111.214 350.611C110.831 349.784 110.445 348.951 110.183 348.07C109.594 345.982 109.479 343.673 109.366 341.418C109.313 340.358 109.261 339.311 109.16 338.304C108.806 334.835 108.727 331.327 108.845 327.819C109.078 321.631 109.405 316.607 109.7 312.059V312.057C110.303 302.779 110.777 295.483 110.065 284.328C109.526 275.755 108.694 271.115 108.109 267.855C107.712 265.641 107.429 264.064 107.429 262.323C107.429 261.247 107.341 258.438 107.216 254.477V254.474V254.468V254.467V254.465C106.842 242.569 106.141 220.304 106.525 203.444C106.732 194.399 106.065 184.391 105.299 175.243C106.811 175.37 108.56 175.269 109.239 175.062C109.548 174.952 109.563 174.773 109.42 174.636C111.972 174.046 113.533 173.183 113.88 172.192C114.313 170.956 113.408 169.88 111.756 170.039C110.104 170.199 110.065 169.322 112.464 168.006C112.551 167.961 112.637 167.918 112.723 167.874C114.478 166.984 116.221 166.099 120.645 156.485C123.584 153.856 128.975 150.616 134.282 147.427C140.48 143.701 146.565 140.045 148.493 137.51C156.677 126.813 154.216 121.714 150.829 114.697C150.113 113.215 149.357 111.648 148.65 109.924C148.486 109.524 148.245 108.923 147.937 108.155L147.932 108.141L147.931 108.138C144.551 99.6979 133.122 71.1569 125.09 64.8782C118.437 59.7006 112.031 58.9783 109.292 58.935C106.027 57.0947 101.064 56.0046 98.421 55.4242C97.621 55.2485 97.033 55.1195 96.77 55.0305C95.83 54.7129 93.901 54.0261 91.939 52.7484C90.218 51.2593 88.615 49.6173 87.842 47.855C87.051 46.0518 86.923 43.4095 87.041 40.9473C87.14 40.9161 87.236 40.8801 87.329 40.8391C88.192 40.4572 89.157 39.3786 90.125 37.9181C91.901 37.1834 93.623 35.5399 93.302 31.8954C94.845 28.3867 96.019 24.8028 96.218 23.0598C96.572 19.8707 94.409 18.8741 93.701 18.6748C94.094 18.3958 94.566 18.2363 95.038 18.1566C96.061 17.9971 97.123 18.3958 97.87 19.1532C98.382 19.7113 99.208 18.914 98.696 18.3559ZM27.331 126.987C28.356 124.037 32.86 116.631 37.195 109.833C37.301 110.16 37.413 110.53 37.534 110.96C37.902 112.264 38.61 113.253 39.367 114.312C40.554 115.973 41.864 117.804 42.176 121.284C42.26 122.191 43.192 125.39 44.359 129.396C46.479 136.67 49.374 146.604 49.374 150.305C49.374 150.305 49.484 151.81 49.59 154.508C49.397 154.317 49.193 154.151 48.98 154.014C48.784 153.894 48.587 153.775 48.39 153.695C48.272 153.615 48.194 153.575 48.194 153.575H48.154C45.008 151.941 42.608 151.662 42.608 151.662C42.608 151.662 32.336 137.307 27.911 129.53C28.359 129.556 28.798 129.118 28.488 128.66L28.487 128.659L28.486 128.658L28.485 128.657L28.451 128.608L28.434 128.583C28.067 128.051 27.699 127.518 27.331 126.987ZM114.169 106.232C111.878 111.829 109.892 117.072 109.475 119.61C109.164 121.496 108.502 123.83 107.722 126.575C106.13 132.183 104.051 139.507 103.496 148.232C103.46 148.825 103.444 149.487 103.444 150.213C104.712 149.571 106.156 148.921 107.744 148.274C111.009 146.958 125.523 129.059 126.86 126.747C128.013 124.811 119.872 112.255 114.169 106.232Z" fill="#1499A2"/>
</mask>
<g mask="url(#mask0_109_60)">
<path d="M94.881 17.0404L94.973 18.0362L94.997 18.034L95.021 18.0306L94.881 17.0404ZM98.696 18.3559L99.434 17.6803L99.421 17.6667L99.408 17.6535L98.696 18.3559ZM93.662 17.3992L92.672 17.2571L92.425 18.9797L94.037 18.3259L93.662 17.3992ZM92.324 9.54595L91.82 10.4098L91.832 10.4165L92.324 9.54595ZM90.122 10.2237L89.247 10.7085L90.067 12.1865L90.968 10.7569L90.122 10.2237ZM81.587 0.696161L81.976 -0.225067L81.975 -0.225495L81.587 0.696161ZM74.939 3.44677L74.605 4.38923L77.383 5.37465L75.778 2.90229L74.939 3.44677ZM63.166 19.8237L64.124 20.1119L64.34 19.3916L63.709 18.9836L63.166 19.8237ZM62.773 21.1528L63.154 22.0774L63.598 21.8942L63.733 21.4323L62.773 21.1528ZM61.291 21.9444L60.727 21.1188L60.716 21.1264L60.705 21.1344L61.291 21.9444ZM61.999 22.9809L61.439 22.1523L61.426 22.1613L61.413 22.1708L61.999 22.9809ZM62.307 22.7862L63.27 23.0554L63.94 20.656L61.797 21.9259L62.307 22.7862ZM59.14 38.4742L60.042 38.9063L60.123 38.7356L60.137 38.5468L59.14 38.4742ZM58.853 39.2845L57.879 39.0546L57.878 39.0589L58.853 39.2845ZM67.676 49.6521L67.669 50.6521H67.676V49.6521ZM67.676 49.6521L67.683 48.6521H67.676V49.6521ZM69.338 49.6439L70.317 49.8441L70.57 48.6076L69.309 48.6443L69.338 49.6439ZM68.97 51.0934L69.925 51.3908L69.927 51.3857L68.97 51.0934ZM68.45 52.519L67.528 52.1329L66.901 53.6293L68.52 53.5166L68.45 52.519ZM68.451 52.519L69.37 52.9123L70.014 51.4078L68.381 51.5214L68.451 52.519ZM68.057 53.3571L68.761 54.0674L68.873 53.9557L68.946 53.8148L68.057 53.3571ZM56.611 57.9418L56.275 57L56.267 57.0027L56.26 57.0055L56.611 57.9418ZM55.476 58.4453L55.893 59.354L55.899 59.3514L55.476 58.4453ZM55.475 58.4455L55.058 57.5369L55.049 57.541L55.04 57.5454L55.475 58.4455ZM55.475 58.4455L55.04 57.5454L55.028 57.5513L55.475 58.4455ZM55.475 58.4455L55.898 59.3518L55.91 59.3462L55.922 59.3402L55.475 58.4455ZM51.891 59.616L51.739 60.6046L51.753 60.6064L51.891 59.616ZM34.702 65.6355L35.448 66.3015L35.453 66.2969L34.702 65.6355ZM23.692 81.792L24.521 82.3504L24.524 82.3463L23.692 81.792ZM23.691 81.7926L24.515 82.3592L24.521 82.3504L23.691 81.7926ZM23.691 81.7926L22.867 81.2264L22.862 81.2334L23.691 81.7926ZM23.691 81.7926L22.862 81.2334L22.859 81.2389L23.691 81.7926ZM29.274 158.17L28.592 158.902L28.598 158.907L29.274 158.17ZM29.275 158.171L30.004 157.487L29.978 157.459L29.95 157.434L29.275 158.171ZM29.275 158.171L28.545 158.855L28.568 158.879L28.593 158.902L29.275 158.171ZM34.309 162.465L34.862 161.632L34.857 161.628L34.309 162.465ZM42.949 172.53L42.619 173.474L45.424 174.452L43.782 171.977L42.949 172.53ZM42.884 172.51L43.129 171.541L43.008 171.51H42.884V172.51ZM42.84 172.511L42.557 173.471L42.719 173.518L42.887 173.51L42.84 172.511ZM41.428 175.062L42.225 174.457L42.222 174.453L41.428 175.062ZM46.51 176.635L47.425 176.232L47.089 175.467L46.276 175.662L46.51 176.635ZM49.606 175.5L50.605 175.535L50.698 172.855L48.873 174.819L49.606 175.5ZM14.8 370.633L15.324 369.782L15.319 369.779L14.8 370.633ZM61.528 370.155L60.553 369.933L60.551 369.941L61.528 370.155ZM70.024 291.982L69.025 291.936L69.024 291.938L70.024 291.982ZM68.996 269.261L69.954 268.976L69.95 268.96L69.945 268.945L68.996 269.261ZM68.996 269.261L68.036 269.543L68.041 269.56L68.047 269.577L68.996 269.261ZM68.995 269.259L69.955 268.977L69.954 268.974L68.995 269.259ZM79.676 239.49L80.675 239.435L80.674 239.425L80.673 239.415L79.676 239.49ZM79.676 239.49L78.678 239.546V239.556L78.679 239.567L79.676 239.49ZM88.386 311.463L89.365 311.259L89.363 311.247L89.36 311.235L88.386 311.463ZM88.386 311.463L87.407 311.667L87.411 311.687L87.416 311.706L88.386 311.463ZM88.386 311.463L89.36 311.236L89.358 311.229L89.356 311.221L88.386 311.463ZM95.629 370.474L96.234 369.678L95.689 369.263L95.105 369.622L95.629 370.474ZM99.995 370.394L100.733 369.718L100.094 369.022L99.362 369.62L99.995 370.394ZM104.125 371.112L103.674 370.219L103.673 370.22L104.125 371.112ZM104.253 371.044L104.726 371.925L104.738 371.919L104.749 371.912L104.253 371.044ZM104.254 371.044L103.78 370.163L103.769 370.169L103.758 370.176L104.254 371.044ZM105.423 371.072L104.818 371.868L104.881 371.915L104.95 371.952L105.423 371.072ZM110.969 370.833L111.289 369.885L111.271 369.879L111.253 369.874L110.969 370.833ZM111.471 371.041L111.057 371.952H111.058L111.471 371.041ZM111.581 371.091L111.168 372.002L111.171 372.003L111.581 371.091ZM111.717 371.151L111.318 372.069L111.335 372.076L111.352 372.083L111.717 371.151ZM115.689 368.122L116.685 368.218V368.216L115.689 368.122ZM112.582 357.478L113.58 357.417L113.579 357.408L112.582 357.478ZM112.464 354.169L113.454 354.03L113.453 354.025L112.464 354.169ZM110.183 348.07L109.22 348.342L109.222 348.349L109.224 348.356L110.183 348.07ZM109.16 338.304L110.155 338.204V338.202L109.16 338.304ZM108.845 327.819L107.846 327.782V327.786L108.845 327.819ZM109.7 312.059L110.698 312.124L110.699 312.114L109.7 312.059ZM109.7 312.059L110.699 312.113V312.108L109.7 312.059ZM109.7 312.057L108.702 311.993V312L108.701 312.007L109.7 312.057ZM110.065 284.328L109.067 284.391V284.392L110.065 284.328ZM107.216 254.477L106.217 254.505V254.509L107.216 254.477ZM107.216 254.474L108.216 254.446V254.441L107.216 254.474ZM107.216 254.468L108.215 254.435V254.42L108.214 254.405L107.216 254.468ZM107.216 254.467H106.216V254.498L106.218 254.53L107.216 254.467ZM107.216 254.467H108.216V254.446L108.215 254.425L107.216 254.467ZM107.216 254.465L108.215 254.424L108.214 254.41L107.216 254.465ZM107.216 254.465L106.216 254.496L106.217 254.508V254.52L107.216 254.465ZM105.299 175.243L105.383 174.246L104.204 174.148L104.303 175.326L105.299 175.243ZM109.239 175.062L109.53 176.019L109.553 176.012L109.576 176.004L109.239 175.062ZM109.42 174.636L109.195 173.662L107.389 174.08L108.73 175.36L109.42 174.636ZM112.464 168.006L112.004 167.118L111.994 167.124L111.983 167.129L112.464 168.006ZM120.645 156.485L119.979 155.74L119.824 155.879L119.737 156.067L120.645 156.485ZM148.493 137.51L147.699 136.903L147.697 136.905L148.493 137.51ZM148.65 109.924L149.576 109.545L149.575 109.544L148.65 109.924ZM147.932 108.141L148.861 107.77L148.86 107.769L147.932 108.141ZM125.09 64.8782L125.706 64.0904L125.704 64.089L125.09 64.8782ZM109.292 58.935L108.801 59.8062L109.022 59.9309L109.276 59.9349L109.292 58.935ZM91.939 52.7484L91.285 53.5047L91.336 53.5492L91.393 53.5863L91.939 52.7484ZM87.041 40.9473L86.741 39.9931L86.075 40.202L86.042 40.8995L87.041 40.9473ZM87.329 40.8391L87.733 41.7539L87.734 41.7535L87.329 40.8391ZM90.125 37.9181L89.743 36.9941L89.46 37.1109L89.292 37.3656L90.125 37.9181ZM93.302 31.8954L92.387 31.4929L92.284 31.7276L92.306 31.9829L93.302 31.8954ZM96.218 23.0598L97.212 23.1733V23.1702L96.218 23.0598ZM93.701 18.6748L93.123 17.8592L91.416 19.0702L93.43 19.6374L93.701 18.6748ZM95.038 18.1566L94.884 17.1684L94.872 17.1705L95.038 18.1566ZM97.87 19.1532L98.608 18.4776L98.595 18.464L98.582 18.4508L97.87 19.1532ZM37.195 109.833L38.146 109.525L37.492 107.508L36.352 109.296L37.195 109.833ZM27.331 126.987L26.387 126.658L26.22 127.138L26.509 127.555L27.331 126.987ZM42.176 121.284L41.18 121.374V121.376L42.176 121.284ZM49.374 150.305H48.374V150.342L48.376 150.378L49.374 150.305ZM49.59 154.508L48.89 155.221L50.689 156.99L50.59 154.468L49.59 154.508ZM48.98 154.014L49.522 153.173L49.511 153.166L49.5 153.159L48.98 154.014ZM48.39 153.695L47.831 154.523L47.917 154.582L48.015 154.622L48.39 153.695ZM48.194 153.575L48.646 152.683L48.433 152.575H48.194V153.575ZM48.154 153.575L47.693 154.463L47.91 154.575H48.154V153.575ZM42.608 151.662L41.795 152.244L42.053 152.604L42.493 152.655L42.608 151.662ZM27.911 129.53L27.969 128.532L26.132 128.425L27.042 130.024L27.911 129.53ZM28.488 128.66L29.315 128.099L29.308 128.088L28.488 128.66ZM28.485 128.656L27.662 129.224L27.664 129.228L28.485 128.656ZM114.169 106.232L114.895 105.544L113.83 104.419L113.243 105.853L114.169 106.232ZM103.496 148.232L102.498 148.169V148.172L103.496 148.232ZM103.444 150.213L102.444 150.214L102.446 151.839L103.896 151.105L103.444 150.213ZM107.744 148.274L107.37 147.346L107.366 147.348L107.744 148.274ZM126.86 126.747L126.001 126.235L125.994 126.246L126.86 126.747ZM95.021 18.0306C96.107 17.8777 97.212 18.275 97.985 19.0582L99.408 17.6535C98.214 16.4436 96.487 15.8045 94.742 16.0501L95.021 18.0306ZM94.037 18.3259C94.453 18.1576 94.711 18.0603 94.973 18.0362L94.789 16.0446C94.186 16.1002 93.658 16.3218 93.286 16.4724L94.037 18.3259ZM91.832 10.4165C92.079 10.556 92.317 10.8317 92.511 11.3214C92.706 11.812 92.826 12.4422 92.881 13.1601C92.991 14.595 92.826 16.1837 92.672 17.2571L94.652 17.5412C94.812 16.4221 95.002 14.6622 94.875 13.0077C94.812 12.1809 94.667 11.3311 94.37 10.5834C94.073 9.83482 93.592 9.11389 92.817 8.67538L91.832 10.4165ZM90.122 10.2237C90.968 10.7569 90.968 10.7573 90.967 10.7576C90.967 10.7574 90.967 10.7577 90.967 10.7576C90.967 10.7581 90.966 10.7592 90.966 10.7596C90.966 10.7604 90.965 10.7612 90.965 10.7618C90.964 10.7631 90.963 10.7641 90.963 10.7648C90.962 10.7663 90.962 10.7665 90.962 10.7657C90.963 10.764 90.967 10.7582 90.974 10.749C90.987 10.7303 91.011 10.6993 91.043 10.6617C91.11 10.5831 91.199 10.4952 91.299 10.4277C91.397 10.3606 91.477 10.3332 91.537 10.3269C91.582 10.3221 91.67 10.3221 91.82 10.4098L92.828 8.68224C92.33 8.39122 91.818 8.28644 91.328 8.33776C90.854 8.38752 90.464 8.57682 90.174 8.77382C89.885 8.9704 89.667 9.19401 89.524 9.36074C89.451 9.44593 89.394 9.52114 89.353 9.57796C89.332 9.6065 89.315 9.63075 89.302 9.64973C89.296 9.65923 89.291 9.66745 89.286 9.67425C89.284 9.67765 89.282 9.68071 89.28 9.6834C89.279 9.68474 89.279 9.686 89.278 9.68716C89.278 9.68774 89.277 9.68831 89.277 9.68884C89.277 9.68911 89.276 9.68948 89.276 9.68961C89.276 9.68999 89.276 9.69036 90.122 10.2237ZM81.198 1.61738C82.095 1.99634 83.055 2.71951 84.013 3.65656C84.962 4.58493 85.862 5.67556 86.644 6.72892C87.425 7.77997 88.078 8.77874 88.536 9.51532C88.765 9.88308 88.944 10.1842 89.066 10.3921C89.126 10.496 89.173 10.5766 89.203 10.6304C89.219 10.6574 89.23 10.6776 89.237 10.6908C89.241 10.6973 89.244 10.7021 89.245 10.7051C89.246 10.7066 89.247 10.7079 89.247 10.7085C89.247 10.7084 89.247 10.7085 90.122 10.2237C90.996 9.73878 90.996 9.73861 90.996 9.73841C90.996 9.73862 90.996 9.73831 90.996 9.73841C90.996 9.73799 90.995 9.73693 90.995 9.73627C90.994 9.73496 90.993 9.73318 90.992 9.73094C90.99 9.72647 90.986 9.72015 90.981 9.71204C90.972 9.69581 90.959 9.67241 90.942 9.64226C90.908 9.58196 90.858 9.49461 90.793 9.38357C90.663 9.16154 90.474 8.84444 90.235 8.45914C89.756 7.68961 89.072 6.64286 88.25 5.53627C87.43 4.432 86.461 3.25288 85.411 2.22668C84.371 1.20914 83.202 0.292918 81.976 -0.225067L81.198 1.61738ZM75.778 2.90229C75.741 2.84533 75.686 2.69002 75.786 2.41169C75.883 2.13842 76.118 1.80511 76.533 1.52698C77.334 0.990667 78.872 0.638207 81.199 1.61781L81.975 -0.225495C79.188 -1.39854 76.911 -1.13311 75.42 -0.134661C74.69 0.354592 74.16 1.01787 73.902 1.73871C73.647 2.45448 73.646 3.29078 74.1 3.99125L75.778 2.90229ZM61.959 7.98065C63.561 4.59274 66.576 3.65526 69.389 3.59946C70.795 3.57156 72.107 3.76971 73.073 3.97828C73.554 4.08211 73.944 4.18734 74.211 4.2656C74.345 4.30469 74.447 4.33694 74.514 4.35877C74.547 4.36968 74.572 4.37798 74.587 4.38321C74.595 4.38582 74.6 4.38767 74.603 4.38869C74.605 4.3892 74.606 4.38951 74.606 4.3896C74.605 4.3895 74.605 4.38923 74.939 3.44677C75.274 2.5043 75.273 2.50416 75.273 2.50401C75.273 2.50394 75.272 2.50377 75.272 2.50363C75.271 2.50335 75.27 2.50301 75.269 2.50262C75.267 2.50184 75.264 2.50085 75.26 2.49964C75.253 2.49724 75.244 2.494 75.232 2.48999C75.209 2.48196 75.175 2.47083 75.133 2.45706C75.049 2.42952 74.928 2.39139 74.774 2.3464C74.467 2.25648 74.03 2.13872 73.495 2.0233C72.43 1.79337 70.956 1.56796 69.349 1.59986C66.134 1.66365 62.206 2.77948 60.151 7.12517L61.959 7.98065ZM63.709 18.9836C63.253 18.6894 61.967 17.737 61.215 15.9999C60.483 14.3079 60.19 11.7172 61.959 7.98065L60.151 7.12517C58.169 11.312 58.389 14.5067 59.38 16.7944C60.35 19.0371 61.996 20.2586 62.624 20.6638L63.709 18.9836ZM63.733 21.4323C63.874 20.9463 64.006 20.5035 64.124 20.1119L62.209 19.5354C62.089 19.9324 61.956 20.381 61.813 20.8733L63.733 21.4323ZM61.855 22.77C62.278 22.481 62.725 22.254 63.154 22.0774L62.392 20.2282C61.861 20.4469 61.286 20.7366 60.727 21.1188L61.855 22.77ZM61.951 22.2453C62.022 22.3463 62.033 22.4554 62.019 22.5349C62.004 22.6123 61.96 22.6943 61.877 22.7544L60.705 21.1344C60.013 21.6349 59.785 22.644 60.316 23.3975L61.951 22.2453ZM61.413 22.1708C61.517 22.0954 61.634 22.0811 61.724 22.0981C61.81 22.1146 61.894 22.1637 61.951 22.2453L60.316 23.3975C60.809 24.0965 61.824 24.3419 62.585 23.7909L61.413 22.1708ZM61.797 21.9259C61.677 21.9967 61.558 22.0721 61.439 22.1523L62.559 23.8094C62.643 23.7526 62.729 23.6984 62.816 23.6466L61.797 21.9259ZM60.137 38.5468C60.487 33.7479 62.053 27.4108 63.27 23.0554L61.344 22.5171C60.124 26.8794 58.508 33.3851 58.142 38.4015L60.137 38.5468ZM59.826 39.5144C59.875 39.3051 59.948 39.1021 60.042 38.9063L58.238 38.042C58.084 38.3623 57.963 38.7006 57.879 39.0546L59.826 39.5144ZM67.073 48.6491C63.18 48.6491 61.28 47.1784 60.364 45.4614C59.398 43.6488 59.405 41.3297 59.827 39.5101L57.878 39.0589C57.395 41.146 57.324 44.0092 58.599 46.4022C59.926 48.8909 62.588 50.6491 67.073 50.6491V48.6491ZM67.683 48.6521C67.471 48.6506 67.265 48.6491 67.073 48.6491V50.6491C67.256 50.6491 67.455 50.6505 67.669 50.6521L67.683 48.6521ZM69.309 48.6443C68.777 48.6598 68.211 48.6559 67.683 48.6521L67.669 50.6521C68.19 50.6558 68.792 50.6602 69.367 50.6435L69.309 48.6443ZM69.927 51.3857C70.075 50.901 70.206 50.3876 70.317 49.8441L68.358 49.4437C68.259 49.9256 68.143 50.3776 68.014 50.8012L69.927 51.3857ZM69.373 52.9052C69.569 52.4363 69.756 51.9324 69.925 51.3908L68.016 50.796C67.867 51.272 67.702 51.7166 67.528 52.1329L69.373 52.9052ZM68.946 53.8148C69.093 53.5293 69.235 53.2287 69.37 52.9123L67.531 52.1257C67.415 52.398 67.293 52.6557 67.168 52.8993L68.946 53.8148ZM60.075 57.9142C61.61 57.4684 63.293 56.9799 64.809 56.3847C66.309 55.7957 67.758 55.0608 68.761 54.0674L67.353 52.6468C66.647 53.346 65.51 53.9609 64.078 54.523C62.663 55.0788 61.07 55.5424 59.517 55.9937L60.075 57.9142ZM56.947 58.8835C57.848 58.5618 58.916 58.2512 60.075 57.9142L59.517 55.9937C58.374 56.326 57.244 56.654 56.275 57L56.947 58.8835ZM55.899 59.3514C56.363 59.1348 56.718 58.9696 56.962 58.878L56.26 57.0055C55.925 57.1312 55.485 57.3372 55.053 57.5393L55.899 59.3514ZM55.911 59.3459L55.04 57.5454L55.039 57.5456L55.911 59.3459ZM51.753 60.6064C52.127 60.6587 52.511 60.61 52.843 60.5383C53.188 60.4641 53.546 60.3498 53.892 60.2221C54.581 59.9678 55.308 59.6275 55.898 59.3518L55.052 57.5397C54.446 57.8228 53.796 58.1256 53.199 58.3458C52.902 58.4553 52.641 58.536 52.422 58.5831C52.192 58.6327 52.07 58.6314 52.029 58.6257L51.753 60.6064ZM35.453 66.2969C40.77 60.2671 47.251 59.9164 51.74 60.6045L52.043 58.6276C47.17 57.8806 39.884 58.2474 33.952 64.9741L35.453 66.2969ZM24.524 82.3463C27.252 78.2494 29.754 74.4921 31.698 71.6199C33.669 68.7079 35.009 66.794 35.448 66.3015L33.957 64.9695C33.403 65.5901 31.964 67.6587 30.042 70.4988C28.092 73.3788 25.586 77.1433 22.859 81.2378L24.524 82.3463ZM5.018 110.885C9.399 105.063 17.68 92.6244 24.523 82.3474L22.859 81.2389C15.996 91.545 7.756 103.918 3.42 109.682L5.018 110.885ZM2.192 127.274C1.233 125.47 -0.954998 118.804 5.018 110.885L3.421 109.681C-3.114 118.345 -0.818008 125.872 0.425992 128.213L2.192 127.274ZM15.831 145.031C8.99599 139.387 3.29 129.341 2.192 127.274L0.425992 128.213C1.52999 130.292 7.389 140.656 14.557 146.573L15.831 145.031ZM29.956 157.439C27.186 154.857 23.076 151.025 15.831 145.031L14.556 146.572C21.758 152.531 25.837 156.333 28.592 158.902L29.956 157.439ZM29.95 157.434V157.433L28.598 158.907L28.599 158.908L29.95 157.434ZM34.857 161.628C33.504 160.742 32.21 159.541 29.957 157.44L28.593 158.902C30.801 160.961 32.233 162.3 33.761 163.301L34.857 161.628ZM43.782 171.977C42.66 170.285 40.75 167.919 38.996 165.898C38.116 164.883 37.264 163.942 36.556 163.204C35.881 162.5 35.256 161.894 34.862 161.632L33.756 163.298C33.931 163.414 34.4 163.846 35.112 164.588C35.791 165.296 36.621 166.211 37.486 167.208C39.224 169.212 41.066 171.5 42.115 173.083L43.782 171.977ZM42.638 173.48C42.633 173.478 42.627 173.476 42.619 173.474L43.278 171.585C43.229 171.568 43.179 171.553 43.129 171.541L42.638 173.48ZM42.887 173.51C42.886 173.51 42.885 173.51 42.884 173.51V171.51C42.853 171.51 42.823 171.511 42.793 171.512L42.887 173.51ZM42.222 174.453C41.879 174.007 41.776 173.714 41.754 173.567C41.736 173.451 41.768 173.461 41.74 173.494C41.734 173.501 41.778 173.448 41.944 173.42C42.104 173.393 42.321 173.401 42.557 173.471L43.122 171.552C42.211 171.284 40.965 171.331 40.226 172.187C39.365 173.184 39.754 174.522 40.635 175.671L42.222 174.453ZM46.276 175.662C45.241 175.911 44.512 175.935 43.93 175.771C43.373 175.614 42.825 175.249 42.225 174.457L40.632 175.667C41.418 176.702 42.303 177.39 43.387 177.696C44.444 177.994 45.563 177.891 46.744 177.607L46.276 175.662ZM46.914 175.889C46.908 175.891 46.984 175.87 47.104 175.917C47.226 175.964 47.354 176.069 47.425 176.232L45.595 177.038C45.927 177.791 46.745 178.004 47.429 177.822L46.914 175.889ZM48.873 174.819C48.421 175.306 47.751 175.666 46.914 175.889L47.429 177.822C48.504 177.535 49.553 177.026 50.338 176.181L48.873 174.819ZM48.359 202.859C49.682 192.968 50.327 183.573 50.605 175.535L48.606 175.465C48.33 183.453 47.689 192.781 46.377 202.594L48.359 202.859ZM44.114 272.02C44.004 271.021 43.972 267.982 44.053 263.456C44.134 258.964 44.325 253.08 44.65 246.446C45.298 233.176 46.476 216.932 48.359 202.859L46.377 202.594C44.483 216.744 43.302 233.05 42.652 246.349C42.327 253 42.135 258.905 42.054 263.42C41.973 267.901 41.999 271.085 42.126 272.238L44.114 272.02ZM44.508 347.116C44.692 346.696 44.807 346.048 44.895 345.339C44.989 344.587 45.067 343.63 45.131 342.508C45.261 340.261 45.34 337.296 45.381 333.862C45.462 326.99 45.388 318.194 45.241 309.405C44.946 291.862 44.356 274.231 44.114 272.02L42.126 272.238C42.355 274.333 42.945 291.843 43.241 309.439C43.388 318.22 43.462 326.994 43.381 333.838C43.34 337.262 43.261 340.191 43.135 342.393C43.071 343.495 42.996 344.402 42.91 345.091C42.819 345.823 42.728 346.195 42.676 346.313L44.508 347.116ZM26.539 362.456C28.785 361.444 32.761 358.745 36.376 355.802C38.196 354.321 39.953 352.754 41.383 351.274C42.79 349.818 43.96 348.366 44.508 347.116L42.676 346.313C42.28 347.217 41.326 348.455 39.945 349.884C38.587 351.29 36.893 352.802 35.113 354.251C31.531 357.168 27.719 359.731 25.717 360.632L26.539 362.456ZM23.284 364.092C24.322 363.54 25.377 362.979 26.539 362.456L25.717 360.632C24.487 361.186 23.376 361.778 22.345 362.327L23.284 364.092ZM14.8 366.85C18.137 366.85 20.669 365.484 23.284 364.092L22.345 362.327C19.679 363.745 17.568 364.85 14.8 364.85V366.85ZM15.319 369.779C14.428 369.237 14.03 368.359 14.03 367.703C14.03 367.38 14.124 367.169 14.224 367.055C14.308 366.959 14.465 366.85 14.8 366.85V364.85C13.955 364.85 13.226 365.159 12.721 365.736C12.231 366.294 12.03 367.01 12.03 367.703C12.03 369.08 12.812 370.595 14.28 371.488L15.319 369.779ZM20.937 369.518C19.713 369.721 18.483 369.924 17.418 369.992C16.887 370.027 16.429 370.025 16.054 369.981C15.67 369.936 15.443 369.855 15.324 369.782L14.275 371.485C14.743 371.773 15.294 371.906 15.823 371.968C16.361 372.03 16.95 372.027 17.546 371.988C18.731 371.912 20.066 371.69 21.264 371.491L20.937 369.518ZM25.429 369.185C24.845 369.037 24.092 369.077 23.386 369.154C22.644 369.234 21.789 369.376 20.937 369.518L21.264 371.491C22.133 371.346 22.927 371.215 23.601 371.142C24.311 371.065 24.739 371.074 24.938 371.124L25.429 369.185ZM44.864 370.122C44.129 370.228 42.673 370.261 40.798 370.231C38.949 370.202 36.765 370.113 34.62 369.994C32.476 369.874 30.377 369.726 28.701 369.577C26.983 369.425 25.806 369.281 25.429 369.185L24.938 371.124C25.505 371.268 26.866 371.423 28.525 371.57C30.227 371.72 32.347 371.87 34.509 371.99C36.671 372.111 38.883 372.201 40.766 372.231C42.622 372.261 44.234 372.234 45.151 372.101L44.864 370.122ZM50.815 370.218C49.602 370.148 48.429 370.08 47.419 370.051C46.425 370.022 45.519 370.027 44.864 370.122L45.151 372.101C45.616 372.034 46.368 372.021 47.361 372.05C48.337 372.078 49.479 372.144 50.7 372.214L50.815 370.218ZM60.551 369.941C60.588 369.773 60.684 369.916 60.069 370.102C59.534 370.264 58.744 370.367 57.742 370.411C55.75 370.501 53.205 370.355 50.815 370.218L50.7 372.214C53.058 372.35 55.716 372.504 57.831 372.409C58.882 372.362 59.872 372.252 60.649 372.017C61.346 371.805 62.286 371.366 62.504 370.369L60.551 369.941ZM59.408 361.62C60.423 364.675 61.202 367.082 60.553 369.933L62.503 370.377C63.293 366.904 62.299 363.977 61.306 360.989L59.408 361.62ZM57.46 350.745C57.299 355.291 58.435 358.694 59.408 361.62L61.306 360.989C60.337 358.073 59.311 354.971 59.459 350.816L57.46 350.745ZM64.543 313.275C61.479 325.078 57.871 338.958 57.46 350.746L59.459 350.816C59.86 339.292 63.399 325.641 66.479 313.777L64.543 313.275ZM69.024 291.938C68.812 296.806 66.843 304.414 64.543 313.275L66.479 313.777C68.751 305.024 70.799 297.159 71.023 292.025L69.024 291.938ZM68.037 269.547C68.596 271.424 69.793 275.308 69.025 291.936L71.022 292.028C71.795 275.293 70.604 271.157 69.954 268.976L68.037 269.547ZM68.047 269.577L69.945 268.945L69.944 268.944L68.047 269.577ZM68.036 269.541V269.543L69.955 268.979V268.977L68.036 269.541ZM67.833 268.821C67.892 269.058 67.964 269.301 68.037 269.544L69.954 268.974C69.878 268.719 69.82 268.524 69.775 268.342L67.833 268.821ZM77.978 211.425C77.916 211.33 77.792 211.173 77.578 211.063C77.336 210.938 77.062 210.917 76.814 210.989C76.426 211.102 76.236 211.4 76.201 211.453C76.077 211.64 75.994 211.873 75.938 212.041C75.812 212.426 75.67 213 75.517 213.704C75.207 215.129 74.821 217.23 74.389 219.778C73.524 224.88 72.466 231.831 71.453 238.88C70.439 245.931 69.47 253.088 68.783 258.604C68.44 261.361 68.166 263.715 67.993 265.441C67.907 266.304 67.845 267.018 67.812 267.553C67.795 267.819 67.785 268.052 67.784 268.24C67.783 268.39 67.784 268.623 67.833 268.821L69.775 268.342C69.794 268.421 69.783 268.428 69.784 268.253C69.785 268.117 69.792 267.926 69.808 267.677C69.839 267.179 69.898 266.494 69.983 265.641C70.154 263.937 70.425 261.603 70.768 258.851C71.452 253.35 72.42 246.206 73.432 239.165C74.445 232.122 75.5 225.19 76.361 220.112C76.792 217.57 77.172 215.507 77.471 214.129C77.623 213.432 77.746 212.945 77.838 212.665C77.893 212.501 77.907 212.499 77.868 212.558C77.853 212.58 77.817 212.632 77.755 212.691C77.698 212.745 77.572 212.852 77.373 212.909C77.143 212.976 76.887 212.957 76.661 212.84C76.464 212.739 76.355 212.597 76.307 212.524L77.978 211.425ZM80.673 239.415C80.174 232.835 79.665 226.141 79.219 220.996C78.996 218.424 78.787 216.231 78.603 214.63C78.511 213.831 78.423 213.167 78.341 212.672C78.3 212.426 78.258 212.207 78.214 212.027C78.183 211.9 78.118 211.637 77.978 211.425L76.307 212.524C76.23 212.407 76.232 212.341 76.271 212.502C76.298 212.612 76.331 212.776 76.368 213C76.442 213.445 76.525 214.071 76.616 214.859C76.797 216.431 77.003 218.602 77.226 221.169C77.671 226.3 78.179 232.983 78.679 239.566L80.673 239.415ZM82.834 263.997C82.743 263.629 82.612 262.662 82.453 261.145C82.298 259.661 82.122 257.723 81.931 255.472C81.551 250.97 81.116 245.238 80.673 239.415L78.679 239.567C79.121 245.386 79.557 251.128 79.939 255.64C80.129 257.896 80.306 259.849 80.464 261.354C80.618 262.826 80.761 263.946 80.892 264.476L82.834 263.997ZM83.737 273.314C83.59 271.138 83.459 269.2 83.32 267.626C83.182 266.072 83.032 264.801 82.834 263.997L80.892 264.476C81.048 265.109 81.189 266.232 81.327 267.802C81.464 269.351 81.594 271.266 81.742 273.449L83.737 273.314ZM86.658 299.117C84.905 290.532 84.229 280.57 83.737 273.314L81.742 273.449C82.232 280.68 82.914 290.778 84.698 299.517L86.658 299.117ZM89.36 311.235C88.484 307.49 87.567 303.569 86.658 299.117L84.698 299.517C85.614 304 86.537 307.947 87.412 311.691L89.36 311.235ZM89.365 311.26V311.259L87.407 311.667L89.365 311.26ZM93.832 335.691C92.864 326.216 91.204 319.119 89.36 311.236L87.413 311.691C89.256 319.573 90.889 326.559 91.842 335.894L93.832 335.691ZM94.262 364.525C94.565 364.32 94.741 364.027 94.847 363.803C94.959 363.563 95.041 363.292 95.104 363.015C95.231 362.461 95.312 361.755 95.361 360.945C95.46 359.316 95.439 357.118 95.33 354.546C95.113 349.394 94.54 342.633 93.832 335.691L91.842 335.894C92.549 342.824 93.117 349.537 93.332 354.63C93.44 357.181 93.458 359.298 93.365 360.823C93.319 361.59 93.246 362.171 93.155 362.569C93.109 362.768 93.066 362.89 93.036 362.954C92.999 363.033 93.016 362.954 93.142 362.868L94.262 364.525ZM93.681 364.901C93.885 364.771 94.088 364.643 94.262 364.525L93.142 362.868C92.998 362.966 92.823 363.077 92.611 363.211L93.681 364.901ZM90.823 368.995C90.603 368.548 90.58 368.186 90.646 367.874C90.716 367.543 90.903 367.194 91.213 366.826C91.853 366.067 92.833 365.437 93.681 364.901L92.611 363.211C91.815 363.714 90.558 364.501 89.684 365.536C89.238 366.066 88.849 366.708 88.689 367.461C88.526 368.235 88.621 369.052 89.029 369.88L90.823 368.995ZM95.105 369.622C94.23 370.161 93.322 370.405 92.579 370.322C91.894 370.246 91.264 369.889 90.823 368.995L89.029 369.88C89.768 371.378 90.986 372.157 92.357 372.31C93.669 372.456 95.022 372.022 96.154 371.325L95.105 369.622ZM99.362 369.62C98.499 370.325 97.123 370.353 96.234 369.678L95.024 371.27C96.653 372.508 99.053 372.456 100.628 371.168L99.362 369.62ZM103.673 370.22C102.717 370.704 101.438 370.488 100.733 369.718L99.258 371.07C100.598 372.532 102.859 372.874 104.577 372.004L103.673 370.22ZM103.78 370.163C103.735 370.187 103.703 370.204 103.674 370.219L104.577 372.004C104.632 371.976 104.686 371.947 104.726 371.925L103.78 370.163ZM103.758 370.176H103.757L104.749 371.912H104.75L103.758 370.176ZM104.873 369.833C104.353 369.833 103.932 370.081 103.78 370.163L104.726 371.925C104.777 371.897 104.813 371.878 104.847 371.862C104.88 371.845 104.9 371.836 104.914 371.831C104.941 371.821 104.921 371.833 104.873 371.833V369.833ZM106.028 370.276C105.859 370.147 105.429 369.833 104.873 369.833V371.833C104.82 371.833 104.782 371.825 104.759 371.819C104.738 371.813 104.727 371.808 104.73 371.809C104.732 371.81 104.741 371.815 104.758 371.825C104.774 371.836 104.794 371.85 104.818 371.868L106.028 370.276ZM108.181 370.099C107.139 370.403 106.541 370.537 105.897 370.191L104.95 371.952C106.409 372.737 107.797 372.294 108.739 372.02L108.181 370.099ZM111.253 369.874C110.069 369.524 108.957 369.873 108.181 370.099L108.739 372.02C109.614 371.765 110.154 371.634 110.686 371.792L111.253 369.874ZM111.884 370.131C111.719 370.056 111.509 369.959 111.289 369.885L110.649 371.78C110.756 371.816 110.871 371.867 111.057 371.952L111.884 370.131ZM111.993 370.18L111.883 370.13L111.058 371.952L111.168 372.002L111.993 370.18ZM112.115 370.234C112.074 370.216 112.033 370.198 111.991 370.179L111.171 372.003C111.217 372.024 111.266 372.046 111.318 372.069L112.115 370.234ZM114.694 368.026C114.614 368.848 114.267 369.57 113.805 369.981C113.395 370.346 112.848 370.52 112.081 370.22L111.352 372.083C112.828 372.66 114.169 372.335 115.135 371.475C116.05 370.66 116.567 369.429 116.685 368.218L114.694 368.026ZM113.268 362.858C114.149 364.754 114.854 366.326 114.694 368.028L116.685 368.216C116.905 365.884 115.918 363.815 115.081 362.015L113.268 362.858ZM111.584 357.54C111.706 359.527 112.545 361.303 113.268 362.858L115.081 362.015C114.33 360.399 113.675 358.964 113.58 357.417L111.584 357.54ZM111.552 356.095C111.551 356.546 111.549 357.041 111.584 357.548L113.579 357.408C113.55 356.985 113.55 356.563 113.552 356.101L111.552 356.095ZM111.474 354.309C111.554 354.878 111.554 355.444 111.552 356.095L113.552 356.101C113.554 355.471 113.557 354.763 113.454 354.03L111.474 354.309ZM110.306 351.032C110.853 352.211 111.315 353.227 111.474 354.314L113.453 354.025C113.245 352.602 112.646 351.325 112.121 350.191L110.306 351.032ZM109.224 348.356C109.511 349.318 109.928 350.215 110.306 351.032L112.121 350.191C111.733 349.353 111.379 348.585 111.141 347.785L109.224 348.356ZM108.367 341.468C108.479 343.698 108.595 346.125 109.22 348.342L111.145 347.799C110.593 345.839 110.478 343.647 110.365 341.368L108.367 341.468ZM108.165 338.403C108.263 339.381 108.314 340.403 108.367 341.468L110.365 341.368C110.312 340.313 110.258 339.24 110.155 338.204L108.165 338.403ZM107.846 327.786C107.727 331.331 107.806 334.884 108.165 338.405L110.155 338.202C109.806 334.786 109.728 331.324 109.845 327.853L107.846 327.786ZM108.702 311.993C108.407 316.541 108.079 321.578 107.846 327.782L109.845 327.857C110.077 321.683 110.403 316.671 110.698 312.124L108.702 311.993ZM108.702 312.002L110.699 312.114V312.113L108.702 312.002ZM108.701 312.007V312.008L110.699 312.108V312.107L108.701 312.007ZM109.067 284.392C109.775 295.479 109.305 302.72 108.702 311.993L110.698 312.122C111.301 302.838 111.78 295.488 111.063 284.264L109.067 284.392ZM107.125 268.031C107.706 271.27 108.531 275.87 109.067 284.391L111.063 284.265C110.52 275.641 109.682 270.96 109.093 267.678L107.125 268.031ZM106.429 262.323C106.429 264.168 106.731 265.836 107.125 268.031L109.093 267.678C108.693 265.447 108.429 263.959 108.429 262.323H106.429ZM106.217 254.509C106.342 258.482 106.429 261.268 106.429 262.323H108.429C108.429 261.227 108.34 258.393 108.216 254.446L106.217 254.509ZM106.217 254.502V254.505L108.216 254.449V254.446L106.217 254.502ZM106.217 254.5V254.508L108.216 254.441L108.215 254.435L106.217 254.5ZM106.217 254.508V254.509L108.215 254.425L106.217 254.508ZM106.217 254.508L108.215 254.425V254.424L106.217 254.508ZM106.217 254.52L108.214 254.41V254.409L106.217 254.52ZM106.216 254.495V254.496L108.215 254.435V254.433L106.216 254.495ZM105.525 203.421C105.141 220.314 105.842 242.606 106.216 254.496L108.215 254.433C107.841 242.529 107.142 220.295 107.524 203.467L105.525 203.421ZM104.303 175.326C105.068 184.469 105.731 194.433 105.525 203.421L107.524 203.467C107.733 194.366 107.062 184.313 106.296 175.16L104.303 175.326ZM108.948 174.105C108.734 174.171 108.231 174.244 107.532 174.279C106.86 174.312 106.09 174.306 105.383 174.246L105.216 176.239C106.021 176.307 106.881 176.313 107.631 176.276C108.354 176.24 109.065 176.16 109.53 176.019L108.948 174.105ZM108.73 175.36C108.653 175.287 108.407 174.985 108.548 174.551C108.609 174.363 108.718 174.248 108.79 174.19C108.825 174.161 108.855 174.144 108.874 174.134C108.883 174.129 108.89 174.126 108.895 174.124C108.9 174.122 108.902 174.121 108.902 174.121L109.576 176.004C109.833 175.912 110.282 175.687 110.45 175.167C110.64 174.582 110.33 174.122 110.11 173.913L108.73 175.36ZM112.936 171.861C112.883 172.012 112.665 172.32 111.996 172.688C111.352 173.041 110.42 173.378 109.195 173.662L109.646 175.611C110.972 175.304 112.097 174.914 112.958 174.441C113.794 173.982 114.53 173.362 114.824 172.522L112.936 171.861ZM111.852 171.035C112.456 170.976 112.757 171.155 112.87 171.276C112.965 171.378 113.044 171.554 112.936 171.861L114.824 172.522C115.149 171.594 114.991 170.614 114.329 169.908C113.685 169.222 112.708 168.943 111.66 169.044L111.852 171.035ZM111.983 167.129C111.348 167.478 110.836 167.817 110.457 168.143C110.119 168.433 109.734 168.84 109.616 169.352C109.547 169.652 109.568 170.008 109.768 170.334C109.956 170.641 110.231 170.809 110.457 170.901C110.882 171.073 111.39 171.079 111.852 171.035L111.66 169.044C111.296 169.079 111.179 169.035 111.208 169.047C111.235 169.058 111.369 169.118 111.475 169.291C111.593 169.485 111.593 169.682 111.565 169.8C111.543 169.895 111.51 169.922 111.546 169.875C111.577 169.834 111.643 169.761 111.761 169.66C111.998 169.456 112.381 169.192 112.945 168.883L111.983 167.129ZM112.271 166.982C112.185 167.026 112.095 167.071 112.004 167.118L112.924 168.894C113.006 168.852 113.089 168.81 113.176 168.766L112.271 166.982ZM119.737 156.067C117.533 160.856 116.031 163.393 114.898 164.832C113.813 166.209 113.078 166.572 112.271 166.982L113.176 168.766C114.123 168.285 115.137 167.761 116.469 166.069C117.752 164.44 119.334 161.728 121.554 156.904L119.737 156.067ZM133.767 146.57C128.5 149.735 123.006 153.032 119.979 155.74L121.312 157.231C124.163 154.681 129.45 151.497 134.797 148.284L133.767 146.57ZM147.697 136.905C146.848 138.021 144.982 139.486 142.433 141.191C139.92 142.871 136.872 144.703 133.767 146.57L134.797 148.284C137.89 146.425 140.984 144.566 143.545 142.853C146.069 141.165 148.21 139.534 149.289 138.116L147.697 136.905ZM149.928 115.132C151.641 118.681 152.986 121.505 153 124.728C153.014 127.909 151.721 131.645 147.699 136.903L149.287 138.118C153.449 132.678 155.017 128.516 155 124.719C154.983 120.965 153.403 117.73 151.729 114.262L149.928 115.132ZM147.725 110.304C148.445 112.059 149.214 113.653 149.928 115.132L151.729 114.262C151.013 112.778 150.269 111.237 149.576 109.545L147.725 110.304ZM147.009 108.526C147.316 109.292 147.559 109.899 147.726 110.305L149.575 109.544C149.413 109.149 149.175 108.554 148.866 107.783L147.009 108.526ZM147.003 108.512L147.009 108.526L148.866 107.783L148.861 107.77L147.003 108.512ZM147.002 108.51L147.004 108.513L148.86 107.769L148.859 107.766L147.002 108.51ZM124.474 65.6661C126.33 67.1165 128.472 69.9417 130.719 73.6207C132.947 77.2701 135.218 81.656 137.352 86.1283C141.621 95.071 145.312 104.289 147.002 108.51L148.859 107.766C147.169 103.547 143.457 94.2742 139.157 85.2668C137.008 80.764 134.704 76.3099 132.425 72.5783C130.165 68.8762 127.866 65.7792 125.706 64.0904L124.474 65.6661ZM109.276 59.9349C111.868 59.9759 118.042 60.6608 124.476 65.6674L125.704 64.089C118.831 58.7405 112.193 57.9808 109.308 57.9351L109.276 59.9349ZM98.206 56.4009C100.89 56.9902 105.692 58.0539 108.801 59.8062L109.783 58.0639C106.362 56.1355 101.238 55.019 98.635 54.4475L98.206 56.4009ZM96.45 55.9779C96.781 56.0897 97.445 56.2338 98.206 56.4009L98.635 54.4475C97.796 54.2632 97.286 54.1494 97.09 54.0831L96.45 55.9779ZM91.393 53.5863C93.462 54.9334 95.485 55.6521 96.45 55.9779L97.09 54.0831C96.174 53.7736 94.34 53.1188 92.485 51.9105L91.393 53.5863ZM86.926 48.2566C87.795 50.2389 89.551 52.0047 91.285 53.5047L92.593 51.9921C90.885 50.514 89.434 48.9957 88.758 47.4534L86.926 48.2566ZM86.042 40.8995C85.923 43.3775 86.035 46.2243 86.926 48.2566L88.758 47.4534C88.067 45.8793 87.922 43.4416 88.039 40.9951L86.042 40.8995ZM86.925 39.9244C86.868 39.9495 86.807 39.9725 86.741 39.9931L87.34 41.9015C87.473 41.8597 87.605 41.8107 87.733 41.7539L86.925 39.9244ZM89.292 37.3656C88.827 38.0668 88.378 38.6524 87.959 39.098C87.531 39.5536 87.181 39.811 86.924 39.9247L87.734 41.7535C88.34 41.4854 88.904 41.0125 89.416 40.4682C89.937 39.9139 90.455 39.2299 90.959 38.4706L89.292 37.3656ZM92.306 31.9829C92.451 33.6308 92.128 34.7223 91.657 35.4594C91.182 36.2025 90.494 36.6832 89.743 36.9941L90.508 38.8421C91.532 38.4183 92.592 37.7099 93.342 36.5364C94.096 35.357 94.474 33.8045 94.299 31.8079L92.306 31.9829ZM95.225 22.9463C95.044 24.5301 93.924 27.9974 92.387 31.4929L94.218 32.298C95.767 28.7761 96.995 25.0756 97.212 23.1733L95.225 22.9463ZM93.43 19.6374C93.656 19.7009 94.181 19.9171 94.603 20.4024C94.996 20.8532 95.372 21.6178 95.225 22.9495L97.212 23.1702C97.419 21.3128 96.891 19.9845 96.113 19.0899C95.364 18.2298 94.455 17.848 93.972 17.7122L93.43 19.6374ZM94.872 17.1705C94.3 17.2671 93.674 17.4683 93.123 17.8592L94.28 19.4904C94.515 19.3232 94.832 19.2055 95.205 19.1426L94.872 17.1705ZM98.582 18.4508C97.636 17.4921 96.261 16.9537 94.884 17.1684L95.193 19.1446C95.861 19.0404 96.61 19.2994 97.159 19.8555L98.582 18.4508ZM97.959 19.0314C97.901 18.9685 97.846 18.8457 97.859 18.7012C97.871 18.5805 97.924 18.5 97.972 18.4536C98.02 18.4077 98.112 18.3481 98.252 18.3431C98.42 18.3372 98.549 18.414 98.608 18.4776L97.133 19.8287C97.447 20.1714 97.872 20.3578 98.322 20.3419C98.745 20.327 99.107 20.1378 99.361 19.8926C99.616 19.6468 99.812 19.2973 99.851 18.8875C99.891 18.4541 99.747 18.0223 99.434 17.6803L97.959 19.0314ZM36.352 109.296C34.182 112.699 31.964 116.262 30.159 119.348C28.372 122.403 26.937 125.076 26.387 126.658L28.276 127.315C28.751 125.948 30.081 123.443 31.885 120.358C33.672 117.304 35.874 113.765 38.038 110.371L36.352 109.296ZM38.497 110.688C38.373 110.248 38.257 109.865 38.146 109.525L36.244 110.142C36.345 110.455 36.454 110.812 36.572 111.231L38.497 110.688ZM40.18 113.731C39.411 112.655 38.81 111.8 38.497 110.688L36.572 111.231C36.994 112.728 37.808 113.852 38.554 114.894L40.18 113.731ZM43.172 121.195C42.835 117.441 41.395 115.43 40.18 113.731L38.554 114.894C39.713 116.516 40.892 118.167 41.18 121.374L43.172 121.195ZM45.319 129.116C44.735 127.11 44.212 125.317 43.825 123.912C43.426 122.463 43.203 121.536 43.171 121.192L41.18 121.376C41.232 121.939 41.517 123.065 41.897 124.443C42.289 125.866 42.816 127.675 43.399 129.676L45.319 129.116ZM50.374 150.305C50.374 148.305 49.611 144.769 48.63 140.942C47.637 137.068 46.378 132.75 45.319 129.116L43.399 129.676C44.46 133.316 45.709 137.602 46.693 141.439C47.689 145.322 48.374 148.604 48.374 150.305H50.374ZM50.59 154.468C50.536 153.113 50.482 152.057 50.44 151.338C50.42 150.978 50.403 150.703 50.39 150.517C50.384 150.424 50.38 150.354 50.376 150.306C50.375 150.282 50.373 150.264 50.372 150.252C50.372 150.246 50.372 150.241 50.371 150.238C50.371 150.236 50.371 150.235 50.371 150.234C50.371 150.233 50.371 150.232 50.371 150.232C50.371 150.232 50.371 150.232 49.374 150.305C48.376 150.378 48.376 150.378 48.376 150.378C48.376 150.378 48.377 150.38 48.377 150.382C48.377 150.384 48.377 150.388 48.377 150.394C48.378 150.405 48.379 150.422 48.381 150.444C48.384 150.49 48.389 150.558 48.395 150.648C48.407 150.829 48.423 151.098 48.444 151.452C48.484 152.16 48.538 153.205 48.591 154.547L50.59 154.468ZM48.438 154.854C48.586 154.95 48.737 155.071 48.89 155.221L50.291 153.795C50.056 153.563 49.8 153.353 49.522 153.173L48.438 154.854ZM48.015 154.622C48.123 154.665 48.248 154.739 48.461 154.868L49.5 153.159C49.319 153.049 49.052 152.884 48.766 152.768L48.015 154.622ZM48.194 153.575C47.742 154.467 47.742 154.467 47.741 154.467C47.741 154.466 47.739 154.466 47.739 154.466C47.738 154.466 47.738 154.465 47.737 154.465C47.736 154.464 47.735 154.464 47.734 154.463C47.732 154.462 47.732 154.462 47.732 154.462C47.733 154.463 47.738 154.466 47.747 154.471C47.763 154.48 47.793 154.498 47.831 154.523L48.95 152.866C48.87 152.812 48.801 152.77 48.749 152.74C48.723 152.725 48.701 152.712 48.683 152.703C48.675 152.698 48.667 152.694 48.661 152.691C48.658 152.689 48.655 152.688 48.652 152.687C48.651 152.686 48.65 152.685 48.649 152.685C48.648 152.685 48.648 152.684 48.647 152.684C48.646 152.684 48.646 152.684 48.646 152.683C48.646 152.683 48.646 152.683 48.194 153.575ZM48.154 154.575H48.194V152.575H48.154V154.575ZM42.608 151.662C42.493 152.655 42.494 152.655 42.493 152.655C42.493 152.655 42.492 152.655 42.491 152.655C42.49 152.655 42.492 152.655 42.493 152.655C42.495 152.655 42.498 152.656 42.504 152.657C42.517 152.658 42.538 152.661 42.569 152.666C42.629 152.675 42.723 152.69 42.847 152.714C43.096 152.761 43.468 152.84 43.935 152.97C44.872 153.228 46.191 153.682 47.693 154.463L48.615 152.688C46.971 151.834 45.517 151.331 44.467 151.042C43.942 150.897 43.517 150.805 43.218 150.748C43.068 150.72 42.95 150.701 42.867 150.688C42.825 150.682 42.792 150.677 42.768 150.674C42.756 150.673 42.746 150.671 42.739 150.67C42.735 150.67 42.732 150.67 42.73 150.669C42.729 150.669 42.727 150.669 42.726 150.669C42.726 150.669 42.725 150.669 42.724 150.669C42.724 150.669 42.724 150.669 42.608 151.662ZM27.042 130.024C29.277 133.953 32.973 139.517 36.094 144.077C37.658 146.362 39.082 148.403 40.116 149.873C40.633 150.608 41.053 151.2 41.343 151.609C41.488 151.813 41.601 151.972 41.678 152.079C41.716 152.133 41.745 152.174 41.765 152.202C41.775 152.215 41.782 152.226 41.787 152.233C41.79 152.237 41.792 152.239 41.793 152.241C41.794 152.242 41.794 152.243 41.795 152.243C41.795 152.243 41.795 152.243 41.795 152.244C41.795 152.244 41.795 152.244 42.608 151.662C43.422 151.08 43.422 151.08 43.422 151.08C43.422 151.08 43.421 151.08 43.421 151.079C43.421 151.079 43.421 151.078 43.42 151.077C43.419 151.076 43.417 151.073 43.414 151.07C43.41 151.063 43.402 151.053 43.393 151.039C43.373 151.012 43.344 150.971 43.306 150.918C43.23 150.812 43.118 150.654 42.974 150.451C42.685 150.044 42.267 149.454 41.752 148.722C40.722 147.257 39.302 145.224 37.744 142.948C34.623 138.386 30.97 132.884 28.78 129.035L27.042 130.024ZM27.66 129.222C27.631 129.178 27.587 129.083 27.593 128.95C27.598 128.823 27.647 128.724 27.694 128.663C27.773 128.561 27.871 128.526 27.969 128.532L27.853 130.528C28.399 130.56 28.94 130.319 29.273 129.891C29.655 129.399 29.724 128.701 29.315 128.099L27.66 129.222ZM27.667 129.231L27.668 129.232L29.308 128.088L29.307 128.087L27.667 129.231ZM27.666 129.231H27.667L29.307 128.087L27.666 129.231ZM27.666 129.23V129.231L29.307 128.087L29.306 128.086L27.666 129.23ZM27.665 129.229L27.666 129.23L29.306 128.086L27.665 129.229ZM27.664 129.228L27.665 129.229L29.306 128.086L29.305 128.084L27.664 129.228ZM27.628 129.176L27.662 129.224L29.307 128.087L29.274 128.039L27.628 129.176ZM27.611 129.151L27.628 129.176L29.274 128.039L29.257 128.015L27.611 129.151ZM26.509 127.555C26.876 128.087 27.244 128.619 27.611 129.151L29.257 128.015C28.889 127.482 28.522 126.95 28.154 126.418L26.509 127.555ZM110.461 119.772C110.654 118.602 111.225 116.734 112.061 114.406C112.888 112.098 113.951 109.404 115.094 106.61L113.243 105.853C112.096 108.657 111.02 111.382 110.178 113.73C109.343 116.058 108.713 118.079 108.488 119.448L110.461 119.772ZM108.684 126.848C109.458 124.124 110.14 121.728 110.461 119.772L108.488 119.448C108.189 121.265 107.546 123.536 106.76 126.302L108.684 126.848ZM104.494 148.296C105.041 139.688 107.092 132.457 108.684 126.848L106.76 126.302C105.168 131.91 103.06 139.326 102.498 148.169L104.494 148.296ZM104.444 150.212C104.444 149.5 104.46 148.86 104.494 148.293L102.498 148.172C102.46 148.79 102.444 149.473 102.444 150.214L104.444 150.212ZM107.366 147.348C105.759 148.003 104.289 148.664 102.993 149.321L103.896 151.105C105.134 150.478 106.553 149.839 108.122 149.199L107.366 147.348ZM125.994 126.246C125.704 126.747 124.6 128.236 122.984 130.281C121.392 132.295 119.358 134.78 117.264 137.235C115.169 139.692 113.022 142.107 111.202 143.984C110.291 144.924 109.473 145.718 108.791 146.311C108.078 146.933 107.606 147.251 107.37 147.346L108.118 149.201C108.699 148.967 109.395 148.438 110.105 147.82C110.846 147.174 111.708 146.336 112.638 145.376C114.5 143.455 116.677 141.005 118.786 138.533C120.895 136.059 122.945 133.555 124.553 131.521C126.135 129.519 127.347 127.903 127.726 127.248L125.994 126.246ZM113.442 106.919C116.237 109.87 119.659 114.459 122.239 118.555C123.529 120.603 124.59 122.497 125.252 123.98C125.586 124.725 125.802 125.33 125.905 125.779C125.956 126.004 125.971 126.158 125.97 126.252C125.969 126.355 125.949 126.322 126.001 126.235L127.719 127.259C127.915 126.93 127.967 126.572 127.97 126.275C127.974 125.97 127.927 125.65 127.854 125.334C127.71 124.702 127.435 123.962 127.078 123.164C126.361 121.559 125.246 119.575 123.932 117.489C121.304 113.318 117.804 108.616 114.895 105.544L113.442 106.919Z" fill="#1499A2"/>
</g>
<path d="M63.5 21C65.105 23.1779 65.212 28.3258 66.947 30.3349C67.339 30.788 68.512 32.4969 69.209 32.6347C69.926 32.7764 71.155 32.5264 71.634 31.7566C72.034 31.1141 71.721 33.4363 71.992 34.1819C72.494 35.5627 73.031 36.8354 74.075 37.5898C75.557 38.6607 77.344 40.3046 79.153 39.2206C81.028 38.0963 81.5 45 86 40.5" stroke="#1499A2" stroke-linecap="round"/>
</svg>
