<svg width="23" height="21" viewBox="0 0 23 21" fill="none" xmlns="http://www.w3.org/2000/svg">
<path d="M20.1746 12.1132C19.9481 12.1132 19.7783 11.9434 19.7783 11.717C19.7217 10.1887 19.2688 8.66038 18.4197 7.41509C18.3065 7.24528 18.3631 7.07547 18.4763 6.96226C18.5896 6.84906 20.8538 4.13208 18.8726 0.792453C18.1367 0.962264 15.8724 1.75472 15.2497 4.75472C15.2497 4.86793 15.1365 4.98113 15.0233 5.03774C14.9101 5.09434 14.7969 5.09434 14.6837 5.03774C14.6837 5.03774 13.4383 4.41509 11.4571 4.41509C9.4758 4.41509 8.23044 5.03774 8.23044 5.03774C8.11723 5.09434 8.00403 5.09434 7.89081 5.03774C7.7776 4.98113 7.72098 4.86793 7.66437 4.75472C7.04169 1.69811 4.77743 0.962264 4.04154 0.792453C2.06029 4.13208 4.43776 6.96226 4.43776 6.96226C4.55097 7.07547 4.55099 7.30189 4.49439 7.41509C3.64528 8.71698 3.19241 10.1887 3.1358 11.717C3.1358 11.9434 2.96597 12.1132 2.73954 12.1132C2.51312 12.1132 2.34332 11.9434 2.34332 11.717C2.39993 10.1321 2.85278 8.60377 3.64528 7.24528C3.07921 6.39623 1.3244 3.50943 3.47546 0.169811C3.53207 0.0566037 3.70187 0 3.87169 0C3.92829 0 7.26814 0.452831 8.28707 4.18868C8.85314 3.96226 9.98527 3.67925 11.4571 3.67925C12.9288 3.67925 14.061 4.01887 14.627 4.18868C15.646 0.452831 18.9858 0 19.0424 0C19.2122 0 19.3254 0.0566037 19.4386 0.169811C21.5897 3.50943 19.8349 6.45283 19.2688 7.24528C20.1179 8.60377 20.5708 10.1321 20.5708 11.717C20.5708 11.8868 20.401 12.0566 20.1746 12.1132Z" fill="#1499A2"/>
<path d="M11.4571 21C8.00406 21 4.89068 19.0755 3.36228 16.0189C3.24907 15.8491 3.36228 15.566 3.5321 15.5094C3.70192 15.3962 3.98497 15.5094 4.04158 15.6792C5.45675 18.5094 8.2871 20.2076 11.4571 20.2076C14.6271 20.2076 17.4574 18.4528 18.8726 15.6792C18.9858 15.5094 19.2123 15.3962 19.3821 15.5094C19.5519 15.6226 19.6651 15.8491 19.5519 16.0189C18.0235 19.0755 14.9101 21 11.4571 21Z" fill="#1499A2"/>
<path d="M7.77721 11.6039C6.70167 11.6039 5.79596 10.6983 5.79596 9.62279C5.79596 9.39637 5.96579 9.22656 6.19222 9.22656C6.41864 9.22656 6.58847 9.39637 6.58847 9.62279C6.58847 10.302 7.15453 10.8115 7.77721 10.8115C8.45649 10.8115 8.96594 10.2454 8.96594 9.62279C8.96594 9.39637 9.13577 9.22656 9.3622 9.22656C9.58863 9.22656 9.75846 9.39637 9.75846 9.62279C9.75846 10.6983 8.90935 11.6039 7.77721 11.6039Z" fill="#1499A2"/>
<path d="M15.1929 11.6039C14.1173 11.6039 13.2116 10.6983 13.2116 9.62279C13.2116 9.39637 13.3814 9.22656 13.6079 9.22656C13.8343 9.22656 14.0041 9.39637 14.0041 9.62279C14.0041 10.302 14.5702 10.8115 15.1929 10.8115C15.8721 10.8115 16.3816 10.2454 16.3816 9.62279C16.3816 9.39637 16.5515 9.22656 16.7779 9.22656C17.0043 9.22656 17.1741 9.39637 17.1741 9.62279C17.1741 10.6983 16.2684 11.6039 15.1929 11.6039Z" fill="#1499A2"/>
<path d="M11.4568 16.0753C11.0605 16.0753 10.6643 15.8489 10.4378 15.5092L9.70195 14.4338C9.41891 14.0375 9.41889 13.5847 9.64532 13.1319C9.87175 12.6791 10.268 12.4526 10.7209 12.4526H12.1926C12.6455 12.4526 13.0984 12.6791 13.2682 13.1319C13.4946 13.5281 13.438 14.0375 13.2116 14.4338L12.4757 15.5092C12.3059 15.9055 11.9096 16.0753 11.4568 16.0753ZM10.7775 13.3017C10.6076 13.3017 10.4378 13.4149 10.3812 13.5281C10.3246 13.6979 10.3246 13.8677 10.3812 13.9809L11.1171 15.0564C11.2869 15.3394 11.6832 15.3394 11.853 15.0564L12.5889 13.9809C12.7021 13.8111 12.7021 13.6413 12.5889 13.5281C12.5323 13.3583 12.3625 13.3017 12.1926 13.3017H10.7775Z" fill="#1499A2"/>
<path d="M9.98498 17.6601C9.02266 17.6601 8.17354 17.094 7.77729 16.245L7.43766 15.5657C7.32445 15.3959 7.43766 15.1129 7.60748 15.0563C7.7773 14.9431 8.06031 15.0563 8.11692 15.2261L8.45658 15.9054C8.73962 16.4714 9.3057 16.8676 9.98498 16.8676C10.6077 16.8676 11.1171 16.3582 11.1171 15.7356C11.1171 15.5091 11.2869 15.3393 11.5133 15.3393C11.7398 15.3393 11.9096 15.5091 11.9096 15.7356C11.853 16.811 11.0039 17.6601 9.98498 17.6601Z" fill="#1499A2"/>
<path d="M12.985 17.6601C11.9094 17.6601 11.0603 16.811 11.0603 15.7356C11.0603 15.5091 11.2301 15.3393 11.4566 15.3393C11.683 15.3393 11.8528 15.5091 11.8528 15.7356C11.8528 16.3582 12.3623 16.8676 12.985 16.8676C13.6076 16.8676 14.2303 16.4714 14.5134 15.9054L14.853 15.2261C14.9662 15.0563 15.1926 14.9431 15.3625 15.0563C15.5323 15.1695 15.6455 15.3959 15.5323 15.5657L15.1926 16.245C14.7964 17.094 13.9473 17.6601 12.985 17.6601Z" fill="#1499A2"/>
<path d="M17.91 12.5659C17.8534 12.5659 17.8533 12.5659 17.8533 12.5659C17.6269 12.5659 17.4571 12.3961 17.4571 12.1696C17.4571 11.9432 17.6269 11.7734 17.8533 11.7734C17.8533 11.7734 17.8534 11.7734 17.91 11.7734C18.193 11.7734 20.7969 11.7168 21.4196 9.84888C21.4762 9.62247 21.7026 9.56586 21.9291 9.62247C22.1555 9.67907 22.2687 9.90549 22.1555 10.1319C21.363 12.5093 18.3628 12.5659 17.91 12.5659Z" fill="#1499A2"/>
<path d="M5.51278 6.56624C5.39956 6.56624 5.28635 6.50963 5.22974 6.39643C3.70135 4.4719 4.26744 2.49077 4.32404 2.43416C4.38065 2.20775 4.60706 2.09454 4.83349 2.15114C5.05992 2.20775 5.17313 2.43416 5.11652 2.66058C5.11652 2.71718 4.72029 4.13228 5.626 5.60397C5.90904 5.37756 6.30528 5.09454 6.75814 5.03794C6.98457 4.98133 7.15438 5.15114 7.21099 5.32095C7.2676 5.54737 7.09778 5.71718 6.92796 5.77378C6.36189 5.88699 5.90904 6.45303 5.90904 6.45303C5.73921 6.50963 5.62599 6.56624 5.51278 6.56624Z" fill="#1499A2"/>
<path d="M17.4573 6.5662C17.3441 6.5662 17.2309 6.5096 17.1743 6.39639C17.1743 6.39639 16.7214 5.83035 16.1554 5.71714C15.9289 5.66054 15.8157 5.49073 15.8723 5.26431C15.9289 5.0379 16.0988 4.92469 16.3252 4.9813C16.778 5.0945 17.1743 5.32092 17.4573 5.54733C18.4196 4.07564 18.0234 2.71714 17.9668 2.60394C17.9102 2.37752 18.0234 2.20771 18.2498 2.0945C18.4763 2.0379 18.6461 2.15111 18.7593 2.37752C18.7593 2.43413 19.382 4.47186 17.8536 6.33979C17.6838 6.5096 17.5705 6.5662 17.4573 6.5662Z" fill="#1499A2"/>
<path d="M21.5328 14.4905H21.4762L19.0987 14.1509C18.8722 14.0942 18.759 13.9244 18.759 13.698C18.8156 13.4716 18.9855 13.3584 19.2119 13.3584L21.5894 13.698C21.8158 13.7546 21.929 13.9244 21.929 14.1509C21.8724 14.3207 21.7026 14.4905 21.5328 14.4905Z" fill="#1499A2"/>
<path d="M20.2312 18.3961C20.0047 18.3961 19.8349 18.2263 19.8349 17.9999C19.8349 16.4716 18.4197 15.5659 17.514 15.2263C17.3442 15.1131 17.231 14.8867 17.3442 14.7168C17.4574 14.547 17.6838 14.4338 17.8537 14.547C18.7028 14.9433 20.6274 16.0187 20.6274 18.0565C20.6274 18.2263 20.4576 18.3961 20.2312 18.3961Z" fill="#1499A2"/>
<path d="M5.06025 12.566C4.60739 12.566 1.66382 12.4528 0.814715 10.1321C0.758108 9.90565 0.871301 9.67924 1.04112 9.62263C1.26755 9.56603 1.49399 9.67924 1.5506 9.84905C2.22989 11.8302 5.06023 11.7736 5.11684 11.7736C5.34327 11.7736 5.5131 11.9434 5.5131 12.1698C5.5131 12.3962 5.34327 12.566 5.11684 12.566H5.06025Z" fill="#1499A2"/>
<path d="M1.4375 14.4907C1.26768 14.4907 1.09785 14.3775 1.04124 14.1511C0.984637 13.9247 1.15448 13.7549 1.38091 13.6982L3.75841 13.3586C3.98484 13.302 4.15465 13.4718 4.21126 13.6982C4.26787 13.9247 4.09803 14.0945 3.8716 14.1511L1.49413 14.4907C1.49413 14.4907 1.49411 14.4907 1.4375 14.4907Z" fill="#1499A2"/>
<path d="M2.73954 18.3961C2.51312 18.3961 2.34332 18.2262 2.34332 17.9998C2.34332 15.9621 4.26794 14.8866 5.11705 14.4904C5.28687 14.3772 5.56992 14.4904 5.62653 14.6602C5.73974 14.83 5.62653 15.113 5.45671 15.1696C4.60761 15.5659 3.19241 16.4149 3.1358 17.9432C3.1358 18.2262 2.96597 18.3961 2.73954 18.3961Z" fill="#1499A2"/>
<path d="M11.4566 8.54691C11.2301 8.54691 11.0603 8.3771 11.0603 8.15069V5.99974C11.0603 5.77333 11.2301 5.60352 11.4566 5.60352C11.683 5.60352 11.8528 5.77333 11.8528 5.99974V8.15069C11.8528 8.3771 11.683 8.54691 11.4566 8.54691Z" fill="#1499A2"/>
<path d="M13.3247 8.09434C13.0983 8.09434 12.9285 7.92453 12.9285 7.69811V6.39623C12.9285 6.16981 13.0983 6 13.3247 6C13.5512 6 13.721 6.16981 13.721 6.39623V7.69811C13.721 7.92453 13.5512 8.09434 13.3247 8.09434Z" fill="#1499A2"/>
<path d="M9.64546 8.09434C9.41903 8.09434 9.24921 7.92453 9.24921 7.69811V6.39623C9.24921 6.16981 9.41903 6 9.64546 6C9.87189 6 10.0417 6.16981 10.0417 6.39623V7.69811C10.0417 7.92453 9.87189 8.09434 9.64546 8.09434Z" fill="#1499A2"/>
</svg>
