<svg width="31" height="30" viewBox="0 0 31 30" fill="none" xmlns="http://www.w3.org/2000/svg">
<path d="M8.90413 22.0655H7.58895C7.58796 22.0655 7.58698 22.0654 7.586 22.0654H5.28108C3.48657 22.0654 1.95463 23.2865 1.63859 24.9689L0.790487 29.4829C0.745636 29.7218 0.912549 29.9502 1.16344 29.9929C1.19094 29.9976 1.21826 29.9999 1.24527 29.9999C1.46448 29.9999 1.65895 29.8505 1.69894 29.6377L2.54704 25.1237C2.78428 23.8609 3.93409 22.9443 5.28108 22.9443H7.12457V29.5603C7.12457 29.803 7.33117 29.9997 7.586 29.9997C7.84083 29.9997 8.04742 29.803 8.04742 29.5603V22.9445H8.90413C9.15897 22.9445 9.36556 22.7477 9.36556 22.505C9.36556 22.2623 9.15897 22.0655 8.90413 22.0655Z" fill="#1499A2"/>
<path d="M30.2101 29.4831L29.3621 24.969C29.046 23.2867 27.5141 22.0656 25.7196 22.0656H18.7566V19.9136H20.4074C22.1503 19.9136 23.7658 19.2459 24.9561 18.0334C26.1466 16.8208 26.7378 15.2407 26.6208 13.5841L26.2574 8.44598C26.2402 8.20381 26.019 8.02065 25.766 8.03705C25.5118 8.05334 25.3195 8.26287 25.3367 8.50504L25.7001 13.6431C25.7997 15.0542 25.2962 16.4002 24.2821 17.4331C23.4265 18.3046 22.3131 18.8457 21.0942 18.9935C22.1594 18.1996 22.8458 16.9647 22.8458 15.5796V8.42424C22.8458 8.18155 22.6392 7.98479 22.3843 7.98479C22.1294 7.98479 21.9229 8.18155 21.9229 8.42424V10.3047C20.1684 10.1851 18.6536 9.37656 17.415 7.89561C16.3883 6.66784 15.9451 5.41552 15.9386 5.39683C15.8329 5.04796 15.2293 4.95093 15.062 5.39677C15.0577 5.40931 14.6149 6.66485 13.5856 7.89561C12.3471 9.37656 10.8323 10.1851 9.07771 10.3047V8.42424C9.07771 8.18155 8.87112 7.98479 8.61629 7.98479C8.36146 7.98479 8.15487 8.18155 8.15487 8.42424V15.5796C8.15487 16.9647 8.84122 18.1995 9.90643 18.9935C8.68753 18.8457 7.57409 18.3047 6.71854 17.4331C5.70445 16.4002 5.20089 15.0542 5.30049 13.6432L5.80929 6.45432C5.91659 4.93669 6.61808 3.5288 7.78468 2.48994C8.95128 1.45107 10.4733 0.878905 12.0704 0.878905H18.9302C20.5273 0.878905 22.0493 1.45107 23.2159 2.48994C24.3824 3.5288 25.084 4.93669 25.1912 6.45432C25.2083 6.69643 25.4271 6.87989 25.6826 6.86325C25.9369 6.84696 26.1291 6.63743 26.112 6.39526C25.9889 4.6545 25.1842 3.03954 23.8461 1.84793C22.508 0.656249 20.7622 0 18.9302 0H12.0704C10.2385 0 8.49263 0.656249 7.15444 1.84793C5.8163 3.03954 5.01164 4.65444 4.88859 6.3952L4.3798 13.5841C4.26278 15.2406 4.85402 16.8208 6.04449 18.0334C7.23485 19.2459 8.85026 19.9136 10.5932 19.9136H12.2439V22.0657H11.0604C10.9205 22.0657 10.7882 22.1261 10.7006 22.2299C10.613 22.3337 10.5796 22.4698 10.6098 22.5999C10.6191 22.6398 10.8418 23.5877 11.307 24.5503C11.986 25.9552 12.8234 26.6678 13.7958 26.6682C14.4641 26.6789 15.1327 26.3924 15.5003 25.9172C15.8444 26.3699 16.4911 26.6718 17.2049 26.6682C18.1773 26.6677 19.0146 25.9552 19.6936 24.5503C19.9941 23.9286 20.1932 23.3135 20.2992 22.9447H22.9532V29.5605C22.9532 29.8032 23.1598 29.9999 23.4147 29.9999C23.6696 29.9999 23.8761 29.8032 23.8761 29.5605V22.9445H25.7196C27.0666 22.9445 28.2164 23.8611 28.4537 25.1238L29.3017 29.6379C29.3416 29.8506 29.5362 30.0001 29.7554 30.0001C29.7823 30.0001 29.8097 29.9978 29.8372 29.9931C30.088 29.9503 30.255 29.722 30.2101 29.4831ZM9.07771 15.5796V11.1853C11.1142 11.0611 12.9213 10.1118 14.3268 8.41996C14.8562 7.78276 15.2401 7.14848 15.5003 6.64973C15.7605 7.14848 16.1445 7.78282 16.6737 8.41996C18.0793 10.1118 19.8864 11.0612 21.9229 11.1853V15.5796C21.9229 17.4847 20.2955 19.0346 18.2952 19.0346C18.0403 19.0346 17.8338 19.2313 17.8338 19.474V22.2915L15.5003 24.0378L13.1667 22.2915V19.474C13.1667 19.2313 12.9601 19.0346 12.7053 19.0346C10.7051 19.0345 9.07771 17.4846 9.07771 15.5796ZM14.8624 25.2392C14.6907 25.5699 14.3016 25.793 13.7962 25.7893C12.7709 25.7888 12.0018 24.0293 11.6598 22.9445H12.5457L15.0159 24.7931C14.9936 24.9161 14.9495 25.0803 14.8624 25.2392ZM17.2044 25.7894C16.536 25.796 16.0904 25.4218 15.9846 24.7931L18.4547 22.9447H19.3407C18.9986 24.0297 18.2296 25.7888 17.2044 25.7894Z" fill="#1499A2"/>
<path d="M15.5001 15.6866C16.112 15.6866 16.6982 15.4699 17.1505 15.0765C17.3388 14.9128 17.3519 14.6349 17.1801 14.4556C17.0082 14.2764 16.7163 14.2638 16.5282 14.4274C16.2463 14.6727 15.8811 14.8077 15.5 14.8077C15.1189 14.8077 14.7538 14.6726 14.4718 14.4274C14.2836 14.2639 13.9918 14.2765 13.8199 14.4557C13.6481 14.6349 13.6613 14.9129 13.8495 15.0765C14.3021 15.4699 14.8882 15.6866 15.5001 15.6866Z" fill="#1499A2"/>
<path d="M18.8208 13.1671H20.2353C20.4902 13.1671 20.6968 12.9703 20.6968 12.7276C20.6968 12.4849 20.4902 12.2882 20.2353 12.2882H19.7903L20.0205 12.0184C20.1811 11.83 20.1511 11.5533 19.9533 11.4002C19.7554 11.247 19.4648 11.2758 19.3042 11.4641L18.4627 12.4505C18.3504 12.5821 18.3277 12.7634 18.4042 12.9165C18.4807 13.0696 18.6429 13.1671 18.8208 13.1671Z" fill="#1499A2"/>
<path d="M10.764 13.167H12.1785C12.3566 13.167 12.5187 13.0695 12.5952 12.9164C12.6717 12.7634 12.6489 12.582 12.5366 12.4504L11.6951 11.4641C11.5344 11.2758 11.2439 11.2471 11.0461 11.4002C10.8483 11.5532 10.8182 11.8299 10.9789 12.0183L11.2092 12.2881H10.7642C10.5093 12.2881 10.3027 12.4849 10.3027 12.7276C10.3027 12.9703 10.5092 13.167 10.764 13.167Z" fill="#1499A2"/>
<path d="M26.2153 19.0551C25.9604 19.0551 25.7539 19.2518 25.7539 19.4945C25.7539 19.7372 25.9604 19.934 26.2153 19.934H26.7714V20.4637C26.7714 20.7064 26.978 20.9031 27.2329 20.9031C27.4878 20.9031 27.6943 20.7064 27.6943 20.4637V19.934H28.2505C28.5054 19.934 28.7119 19.7372 28.7119 19.4945C28.7119 19.2518 28.5054 19.0551 28.2505 19.0551H27.6943V18.5254C27.6943 18.2827 27.4878 18.0859 27.2329 18.0859C26.978 18.0859 26.7714 18.2827 26.7714 18.5254V19.0551H26.2153Z" fill="#1499A2"/>
<path d="M10.4985 15.0342C10.7534 15.0342 10.96 14.8374 10.96 14.5947C10.96 14.352 10.7534 14.1553 10.4985 14.1553C10.2437 14.1553 10.0371 14.352 10.0371 14.5947C10.0371 14.8374 10.2437 15.0342 10.4985 15.0342Z" fill="#1499A2"/>
<path d="M12.0591 15.0342C12.3139 15.0342 12.5205 14.8374 12.5205 14.5947C12.5205 14.352 12.3139 14.1553 12.0591 14.1553C11.8042 14.1553 11.5977 14.352 11.5977 14.5947C11.5977 14.8374 11.8042 15.0342 12.0591 15.0342Z" fill="#1499A2"/>
<path d="M18.9419 15.0342C19.1967 15.0342 19.4033 14.8374 19.4033 14.5947C19.4033 14.352 19.1967 14.1553 18.9419 14.1553C18.6871 14.1553 18.4805 14.352 18.4805 14.5947C18.4805 14.8374 18.6871 15.0342 18.9419 15.0342Z" fill="#1499A2"/>
<path d="M20.5005 15.0342C20.7553 15.0342 20.9619 14.8374 20.9619 14.5947C20.9619 14.352 20.7553 14.1553 20.5005 14.1553C20.2456 14.1553 20.0391 14.352 20.0391 14.5947C20.0391 14.8374 20.2456 15.0342 20.5005 15.0342Z" fill="#1499A2"/>
<path d="M29.1724 16.209C29.4272 16.209 29.6338 16.0122 29.6338 15.7695C29.6338 15.5268 29.4272 15.3301 29.1724 15.3301C28.9175 15.3301 28.7109 15.5268 28.7109 15.7695C28.7109 16.0122 28.9175 16.209 29.1724 16.209Z" fill="#1499A2"/>
<path d="M11.4252 6.68361C11.0935 6.95753 10.6688 7.16859 10.0458 6.94511C9.79103 6.85359 9.50433 6.99111 9.43536 7.25009C9.37722 7.46859 9.51258 7.69417 9.73449 7.77251C10.041 7.88079 10.322 7.92362 10.5748 7.92362C11.2319 7.92362 11.6987 7.63417 12.04 7.34314C12.2478 7.16589 12.2489 6.85669 12.0395 6.6812C11.8635 6.53378 11.6022 6.53736 11.4252 6.68361Z" fill="#1499A2"/>
<path d="M20.9457 6.94886C20.1287 7.23702 19.655 6.77753 19.6036 6.72404C19.4415 6.54251 19.155 6.52195 18.9661 6.67827L18.9618 6.68191C18.7632 6.84626 18.7535 7.13794 18.9428 7.31185C19.2775 7.61906 19.7514 7.92415 20.4261 7.92415C20.6827 7.92415 20.9685 7.87997 21.2804 7.76806C21.5549 7.66962 21.6731 7.34859 21.4941 7.10138C21.3734 6.93486 21.1448 6.87861 20.9457 6.94886Z" fill="#1499A2"/>
</svg>
