<svg width="23" height="21" viewBox="0 0 23 21" fill="none" xmlns="http://www.w3.org/2000/svg">
<path d="M7.30437 5.6725C7.107 5.6725 6.95898 5.50805 6.95898 5.32715V2.07096C6.95898 1.87361 7.12345 1.72559 7.30437 1.72559C7.50173 1.72559 7.64976 1.89006 7.64976 2.07096V5.32715C7.64976 5.5245 7.50173 5.6725 7.30437 5.6725Z" fill="#1499A2"/>
<path d="M21.185 19.3563H1.81036C1.61299 19.3563 1.46497 19.1919 1.46497 19.011V6.16705C1.46497 5.96971 1.62944 5.8217 1.81036 5.8217H5.08333V2.07215C5.08333 1.8748 5.2478 1.72678 5.42872 1.72678H6.94185V0.345371C6.94185 0.148025 7.10632 0 7.28724 0H15.6917C15.8891 0 16.0371 0.164471 16.0371 0.345371V1.72678H17.5502C17.7476 1.72678 17.8956 1.89125 17.8956 2.07215V5.8217H21.1686C21.366 5.8217 21.514 5.98615 21.514 6.16705V19.011C21.5469 19.2083 21.3824 19.3563 21.185 19.3563ZM2.15575 18.6656H20.8396V6.52887H17.5667C17.3693 6.52887 17.2213 6.36442 17.2213 6.18352V2.43394H15.7082C15.5108 2.43394 15.3628 2.26949 15.3628 2.08859V0.707164H7.66552V2.08859C7.66552 2.28593 7.50105 2.43394 7.32013 2.43394H5.807V6.18352C5.807 6.38086 5.64253 6.52887 5.46161 6.52887H2.15575V18.6656Z" fill="#1499A2"/>
<path d="M15.7085 5.6725C15.5112 5.6725 15.3632 5.50805 15.3632 5.32715V2.07096C15.3632 1.87361 15.5276 1.72559 15.7085 1.72559C15.9059 1.72559 16.0539 1.89006 16.0539 2.07096V5.32715C16.0539 5.5245 15.8895 5.6725 15.7085 5.6725Z" fill="#1499A2"/>
<path d="M16.0272 19.3551H6.99773C6.80037 19.3551 6.65234 19.1906 6.65234 19.0097V11.823C6.65234 11.0172 7.31023 10.3594 8.11614 10.3594H14.9088C15.7147 10.3594 16.3726 11.0172 16.3726 11.823V19.0097C16.3726 19.2071 16.2081 19.3551 16.0272 19.3551ZM7.34312 18.6643H15.6654V11.823C15.6654 11.3954 15.32 11.0501 14.8923 11.0501H8.09969C7.67207 11.0501 7.32668 11.3954 7.32668 11.823V18.6643H7.34312Z" fill="#1499A2"/>
<path d="M12.1409 6.57848H10.858C10.6606 6.57848 10.5126 6.41403 10.5126 6.23313V5.11484H9.39422C9.19685 5.11484 9.04883 4.95037 9.04883 4.76947V3.48674C9.04883 3.28939 9.2133 3.14139 9.39422 3.14139H10.5126V2.02309C10.5126 1.82574 10.6771 1.67773 10.858 1.67773H12.1409C12.3383 1.67773 12.4863 1.84219 12.4863 2.02309V3.14139H13.6047C13.802 3.14139 13.9501 3.30584 13.9501 3.48674V4.76947C13.9501 4.96682 13.7856 5.11484 13.6047 5.11484H12.4863V6.23313C12.5027 6.41403 12.3383 6.57848 12.1409 6.57848ZM11.2034 5.87133H11.7955V4.75303C11.7955 4.55569 11.96 4.40768 12.1409 4.40768H13.2593V3.81565H12.1409C11.9435 3.81565 11.7955 3.6512 11.7955 3.4703V2.352H11.2034V3.4703C11.2034 3.66764 11.0389 3.81565 10.858 3.81565H9.73961V4.40768H10.858C11.0554 4.40768 11.2034 4.57213 11.2034 4.75303V5.87133Z" fill="#1499A2"/>
<path d="M5.9244 9.67019H3.52312C3.32575 9.67019 3.17773 9.50574 3.17773 9.32484C3.17773 9.14394 3.3422 8.97949 3.52312 8.97949H5.9244C6.12176 8.97949 6.26979 9.14394 6.26979 9.32484C6.26979 9.50574 6.12176 9.67019 5.9244 9.67019Z" fill="#1499A2"/>
<path d="M5.9244 8.27322H3.52312C3.32575 8.27322 3.17773 8.10877 3.17773 7.92787C3.17773 7.74697 3.3422 7.58252 3.52312 7.58252H5.9244C6.12176 7.58252 6.26979 7.74697 6.26979 7.92787C6.26979 8.10877 6.12176 8.27322 5.9244 8.27322Z" fill="#1499A2"/>
<path d="M5.52967 13.5018H3.52312C3.32575 13.5018 3.17773 13.3373 3.17773 13.1564C3.17773 12.959 3.3422 12.811 3.52312 12.811H5.52967C5.72703 12.811 5.87506 12.9755 5.87506 13.1564C5.8915 13.3373 5.72703 13.5018 5.52967 13.5018Z" fill="#1499A2"/>
<path d="M5.52967 12.1062H3.52312C3.32575 12.1062 3.17773 11.9418 3.17773 11.7609C3.17773 11.58 3.3422 11.4155 3.52312 11.4155H5.52967C5.72703 11.4155 5.87506 11.58 5.87506 11.7609C5.87506 11.9418 5.72703 12.1062 5.52967 12.1062Z" fill="#1499A2"/>
<path d="M5.52967 17.3347H3.52312C3.32575 17.3347 3.17773 17.1703 3.17773 16.9894C3.17773 16.8085 3.3422 16.644 3.52312 16.644H5.52967C5.72703 16.644 5.87506 16.8085 5.87506 16.9894C5.87506 17.1703 5.72703 17.3347 5.52967 17.3347Z" fill="#1499A2"/>
<path d="M5.52979 15.9353H3.52324C3.32588 15.9353 3.17786 15.7709 3.17786 15.59C3.17786 15.3926 3.34232 15.2446 3.52324 15.2446H5.52979C5.72715 15.2446 5.87518 15.4091 5.87518 15.59C5.89163 15.7709 5.72715 15.9353 5.52979 15.9353Z" fill="#1499A2"/>
<path d="M19.4767 13.5018H17.4701C17.2728 13.5018 17.1248 13.3373 17.1248 13.1564C17.1248 12.959 17.2892 12.811 17.4701 12.811H19.4767C19.6741 12.811 19.8221 12.9755 19.8221 13.1564C19.8221 13.3373 19.6741 13.5018 19.4767 13.5018Z" fill="#1499A2"/>
<path d="M19.4767 12.1067H17.4701C17.2728 12.1067 17.1248 11.9423 17.1248 11.7614C17.1248 11.5805 17.2892 11.416 17.4701 11.416H19.4767C19.6741 11.416 19.8221 11.5805 19.8221 11.7614C19.8221 11.9423 19.6741 12.1067 19.4767 12.1067Z" fill="#1499A2"/>
<path d="M19.4767 17.3347H17.4701C17.2728 17.3347 17.1248 17.1703 17.1248 16.9894C17.1248 16.8085 17.2892 16.644 17.4701 16.644H19.4767C19.6741 16.644 19.8221 16.8085 19.8221 16.9894C19.8221 17.1703 19.6741 17.3347 19.4767 17.3347Z" fill="#1499A2"/>
<path d="M19.4767 15.9353H17.4701C17.2728 15.9353 17.1248 15.7709 17.1248 15.59C17.1248 15.3926 17.2892 15.2446 17.4701 15.2446H19.4767C19.6741 15.2446 19.8221 15.4091 19.8221 15.59C19.8221 15.7709 19.6741 15.9353 19.4767 15.9353Z" fill="#1499A2"/>
<path d="M14.199 9.67019H8.80437C8.60701 9.67019 8.45898 9.50574 8.45898 9.32484C8.45898 9.14394 8.62346 8.97949 8.80437 8.97949H14.199C14.3964 8.97949 14.5444 9.14394 14.5444 9.32484C14.5444 9.50574 14.3964 9.67019 14.199 9.67019Z" fill="#1499A2"/>
<path d="M14.199 8.27371H8.80437C8.60701 8.27371 8.45898 8.10926 8.45898 7.92836C8.45898 7.74746 8.62346 7.58301 8.80437 7.58301H14.199C14.3964 7.58301 14.5444 7.74746 14.5444 7.92836C14.5444 8.10926 14.3964 8.27371 14.199 8.27371Z" fill="#1499A2"/>
<path d="M19.4749 9.67019H17.0737C16.8763 9.67019 16.7283 9.50574 16.7283 9.32484C16.7283 9.14394 16.8927 8.97949 17.0737 8.97949H19.4749C19.6723 8.97949 19.8203 9.14394 19.8203 9.32484C19.8203 9.50574 19.6723 9.67019 19.4749 9.67019Z" fill="#1499A2"/>
<path d="M19.4749 8.27371H17.0737C16.8763 8.27371 16.7283 8.10926 16.7283 7.92836C16.7283 7.74746 16.8927 7.58301 17.0737 7.58301H19.4749C19.6723 7.58301 19.8203 7.74746 19.8203 7.92836C19.8203 8.10926 19.6723 8.27371 19.4749 8.27371Z" fill="#1499A2"/>
<path d="M11.4957 19.3551C11.2983 19.3551 11.1503 19.1906 11.1503 19.0097V10.7047C11.1503 10.5074 11.3147 10.3594 11.4957 10.3594C11.693 10.3594 11.841 10.5238 11.841 10.7047V19.0097C11.841 19.2071 11.693 19.3551 11.4957 19.3551Z" fill="#1499A2"/>
<path d="M9.95647 15.0476C9.75911 15.0476 9.61108 14.8831 9.61108 14.7022V13.3043C9.61108 13.107 9.77556 12.959 9.95647 12.959C10.1538 12.959 10.3019 13.1234 10.3019 13.3043V14.7022C10.3019 14.8995 10.1374 15.0476 9.95647 15.0476Z" fill="#1499A2"/>
<path d="M13.0601 15.0471C12.8627 15.0471 12.7147 14.8826 12.7147 14.7017V13.3038C12.7147 13.1065 12.8792 12.9585 13.0601 12.9585C13.2575 12.9585 13.4055 13.1229 13.4055 13.3038V14.7017C13.4055 14.8991 13.2575 15.0471 13.0601 15.0471Z" fill="#1499A2"/>
<path d="M21.9768 20.9998H1.02325C0.825881 20.9998 0.677856 20.8354 0.677856 20.6545V19.0099C0.677856 18.8126 0.842328 18.6646 1.02325 18.6646H21.9768C22.1742 18.6646 22.3222 18.829 22.3222 19.0099V20.6545C22.3222 20.8518 22.1742 20.9998 21.9768 20.9998ZM1.38508 20.3091H21.6315V19.3553H1.38508V20.3091Z" fill="#1499A2"/>
</svg>
