<svg width="21" height="19" viewBox="0 0 21 19" fill="none" xmlns="http://www.w3.org/2000/svg">
<path d="M1.99807 17.9998V17.1498C1.99807 16.5831 3.27308 16.2998 4.54809 16.2998C5.8231 16.2998 7.09811 16.5831 7.09811 17.1498V17.9998" stroke="#1499A2" stroke-width="0.9" stroke-linecap="round" stroke-linejoin="round"/>
<path d="M6.00002 11.7143C6.00002 10.7912 5.32502 10 4.50002 10C3.67502 10 3.00002 10.7472 3.00002 11.7143V12.2857C3.00002 13.2088 3.67502 14 4.50002 14C5.32502 14 6.00002 13.2528 6.00002 12.2857V11.7143Z" stroke="#1499A2" stroke-width="0.9" stroke-linecap="round" stroke-linejoin="round"/>
<path d="M1.15041 6.23425V1.80527C1.15041 1.36237 1.53292 1 2.00042 1L7.95047 1.40263C8.41797 1.40263 8.80047 1.76501 8.80047 2.2079V6.23425C8.80047 6.67715 8.41797 7.03952 7.95047 7.03952H5.82545L3.70043 8.65006V7.03952H2.00042C1.53292 7.03952 1.15041 6.67715 1.15041 6.23425Z" stroke="#1499A2" stroke-width="0.9" stroke-linecap="round" stroke-linejoin="round"/>
<path d="M19.8493 6.10004V1.85001C19.8493 1.3825 19.4668 1 18.9993 1L13.0492 1.85001C12.5817 1.85001 12.1992 2.23251 12.1992 2.70001V6.10004C12.1992 6.56754 12.5817 6.95005 13.0492 6.95005H15.1743L17.2993 8.65006V6.95005H18.9993C19.4668 6.95005 19.8493 6.56754 19.8493 6.10004Z" stroke="#1499A2" stroke-width="0.9" stroke-linecap="round" stroke-linejoin="round"/>
<path d="M13.9002 17.9998V17.1498C13.9002 16.5831 15.1753 16.2998 16.4503 16.2998C17.7253 16.2998 19.0003 16.5831 19.0003 17.1498V17.9998" stroke="#1499A2" stroke-width="0.9" stroke-linecap="round" stroke-linejoin="round"/>
<path d="M18 11.7143C18 10.7912 17.325 10 16.5 10C15.675 10 15 10.7472 15 11.7143V12.2857C15 13.2088 15.675 14 16.5 14C17.325 14 18 13.2528 18 12.2857V11.7143Z" stroke="#1499A2" stroke-width="0.9" stroke-linecap="round" stroke-linejoin="round"/>
<path d="M7.10159 14.6C7.10159 14.0333 8.8016 13.75 10.5016 13.75C12.2016 13.75 13.9016 14.0333 13.9016 14.6" stroke="#1499A2" stroke-width="0.9" stroke-linecap="round" stroke-linejoin="round"/>
<path d="M12.2028 10.1066C12.2028 9.32194 11.4378 8.64941 10.5028 8.64941C9.56776 8.64941 8.80276 9.28458 8.80276 10.1066V10.5923C8.80276 11.3769 9.56776 12.0494 10.5028 12.0494C11.4378 12.0494 12.2028 11.4143 12.2028 10.5923V10.1066Z" stroke="#1499A2" stroke-width="0.9" stroke-linecap="round" stroke-linejoin="round"/>
</svg>
