<svg width="31" height="23" viewBox="0 0 31 23" fill="none" xmlns="http://www.w3.org/2000/svg">
<path d="M16.9186 8.73003C16.8247 8.73003 16.7777 8.73004 16.6839 8.6831C16.4961 8.54227 16.4492 8.30755 16.543 8.11977C16.59 8.07283 17.6227 6.47675 20.7679 6.89924C21.0026 6.94618 21.1435 7.13395 21.1435 7.36867C21.0965 7.60338 20.9087 7.74424 20.674 7.74424C18.0922 7.36869 17.2941 8.4953 17.2941 8.54225C17.2003 8.68307 17.0594 8.73003 16.9186 8.73003Z" fill="#1499A2"/>
<path d="M18.9903 11.1709C18.1923 11.1709 17.5351 11.0301 17.4881 11.0301C17.2534 10.9832 17.1126 10.7484 17.1595 10.5137C17.2064 10.279 17.4412 10.1382 17.6759 10.1851C17.6759 10.1851 20.023 10.7015 21.2436 9.66875C21.4313 9.52792 21.666 9.52791 21.8538 9.71568C21.9946 9.90345 21.9947 10.1382 21.8069 10.326C21.0089 11.0301 19.8822 11.1709 18.9903 11.1709Z" fill="#1499A2"/>
<path d="M15.9814 15.3955H15.7467C15.512 15.3955 15.3242 15.2078 15.3242 14.973C15.3242 14.7383 15.512 14.5506 15.7467 14.5506H15.9814C16.1692 14.5506 16.357 14.5036 16.4978 14.3628L17.0611 13.8934C17.2489 13.7525 17.5305 13.7525 17.6714 13.9403C17.8122 14.1281 17.8122 14.4097 17.6244 14.5506L17.0611 15.02C16.7795 15.2547 16.4039 15.3955 15.9814 15.3955Z" fill="#1499A2"/>
<path d="M14.6169 8.72981C14.4761 8.72981 14.3352 8.68285 14.2413 8.54203C14.1944 8.49508 13.3964 7.36847 10.8614 7.74401C10.6267 7.79096 10.439 7.60316 10.392 7.36845C10.3451 7.13373 10.5328 6.94596 10.7675 6.89902C13.9127 6.47653 14.9455 8.02567 14.9924 8.11955C15.1333 8.30733 15.0394 8.58899 14.8516 8.68288C14.7577 8.72982 14.7108 8.72981 14.6169 8.72981Z" fill="#1499A2"/>
<path d="M12.6085 11.171C11.7165 11.171 10.5899 10.9832 9.79187 10.2791C9.6041 10.1382 9.60408 9.85658 9.74491 9.66881C9.88574 9.48103 10.1674 9.48105 10.3552 9.62187C11.5757 10.6546 13.9229 10.1382 13.9229 10.1382C14.1576 10.0913 14.3923 10.2321 14.4392 10.4668C14.4862 10.7016 14.3453 10.9363 14.1106 10.9832C14.0167 11.0302 13.4065 11.171 12.6085 11.171Z" fill="#1499A2"/>
<path d="M15.8005 15.3955H15.5657C15.1902 15.3955 14.7677 15.2547 14.4861 15.02L13.9227 14.5506C13.735 14.4097 13.7349 14.1281 13.8758 13.9403C14.0166 13.7525 14.2983 13.7525 14.4861 13.8934L15.0493 14.3628C15.1902 14.5036 15.378 14.5506 15.5657 14.5506H15.8005C16.0352 14.5506 16.2229 14.7383 16.2229 14.973C16.2229 15.2078 16.0352 15.3955 15.8005 15.3955Z" fill="#1499A2"/>
<path d="M15.8376 18.82C15.7907 18.82 15.7907 18.82 15.7438 18.82C15.4621 18.82 14.4294 18.773 13.4436 17.7872C13.3497 17.6933 13.3027 17.5994 13.3027 17.4586C13.3027 17.3647 13.3497 17.2239 13.4436 17.1769C13.4905 17.13 14.1946 16.5197 15.7438 16.3789H15.7907C17.2929 16.4728 18.044 17.13 18.0909 17.1769C18.1848 17.2708 18.2318 17.3647 18.2318 17.4586C18.2318 17.5525 18.1848 17.6933 18.0909 17.7872C17.152 18.773 16.0724 18.82 15.8376 18.82ZM15.7907 17.975C15.8377 17.975 16.4479 18.0219 17.1051 17.5525C16.8235 17.4117 16.401 17.2708 15.7907 17.2239C15.1805 17.2708 14.758 17.4117 14.4763 17.5525C15.1335 18.0219 15.7438 17.975 15.7907 17.975C15.7438 17.975 15.7438 17.975 15.7907 17.975Z" fill="#1499A2"/>
<path d="M15.7555 20.4645C15.5677 20.4645 15.1452 20.4176 14.8166 20.089C14.6288 19.9481 14.6288 19.6665 14.8166 19.4787C14.9574 19.2909 15.2391 19.2909 15.4269 19.4787C15.5677 19.6195 15.7555 19.6195 15.8024 19.6195H15.8494C15.8494 19.6195 16.0841 19.6195 16.2249 19.4787C16.4127 19.3379 16.6474 19.3379 16.8352 19.4787C16.976 19.6665 16.976 19.9012 16.8352 20.089C16.4127 20.4645 15.9432 20.4645 15.7555 20.4645Z" fill="#1499A2"/>
<path d="M6.26998 12.532C6.08221 12.532 5.89443 12.3912 5.84748 12.1565L5.56584 10.0441C5.51889 9.80934 5.70666 9.62157 5.94137 9.57462C6.17609 9.52768 6.36386 9.71545 6.41081 9.95016L6.69245 12.0626C6.7394 12.2973 6.55163 12.4851 6.31691 12.532C6.26997 12.532 6.26998 12.532 6.26998 12.532Z" fill="#1499A2"/>
<path d="M8.23877 18.3515C8.19183 18.3515 8.1449 18.3515 8.05101 18.3515C7.67547 18.3045 7.34687 18.0698 7.11215 17.7412L4.53028 13.798C3.92002 12.8591 3.5914 11.7325 3.54446 10.5589L3.45059 8.024C3.21588 7.50763 2.88727 7.08513 2.41784 6.75653C2.23007 6.6157 2.18312 6.38098 2.32395 6.19321C2.32395 6.14626 2.37088 6.14629 2.37088 6.09934L4.29556 2.39083C4.34251 2.29694 4.48333 2.20305 4.57721 2.15611C4.71804 2.10917 4.85887 2.15612 4.95275 2.25L6.59576 3.70523C7.06519 4.12772 7.44075 4.6441 7.72241 5.20741C7.95712 5.72379 8.09795 6.33404 8.09795 6.89735L8.19184 10.3242C8.23878 11.2631 7.67545 12.0611 6.83048 12.3897L9.22459 16.239C9.55319 16.8024 9.50625 17.5535 8.98988 17.9759C8.84905 18.2107 8.52043 18.3515 8.23877 18.3515ZM3.26281 6.33406C3.6853 6.75655 4.06085 7.22598 4.29556 7.74235C4.29556 7.7893 4.3425 7.83623 4.3425 7.88318L4.43639 10.512C4.48333 11.4978 4.76498 12.4836 5.28136 13.2816L7.86323 17.2248C7.95712 17.3657 8.05101 17.4126 8.19184 17.4596C8.33267 17.4596 8.47349 17.4126 8.56738 17.3657C8.75515 17.2249 8.75517 16.9432 8.61434 16.7085L5.89161 12.3428C5.79773 12.2019 5.79773 12.0611 5.89161 11.9203C5.9855 11.7794 6.07941 11.6856 6.26718 11.6856C6.92439 11.6386 7.4877 11.0753 7.44076 10.3712L7.34687 6.94431C7.34687 6.47488 7.20603 6.00544 7.01826 5.58295C6.83049 5.11352 6.50187 4.69104 6.12633 4.36244L4.90582 3.28276L3.26281 6.33406Z" fill="#1499A2"/>
<path d="M1.6679 7.41277C1.38624 7.41277 1.1046 7.36581 0.869888 7.22498L0.353497 6.94333C0.165724 6.84945 0.0718551 6.56778 0.165741 6.38001C0.259628 6.19224 0.541263 6.09834 0.729036 6.19223L1.24543 6.4739C1.4332 6.56779 1.6679 6.61472 1.90261 6.52083C2.13733 6.47389 2.32512 6.28614 2.41901 6.09836L4.53145 2.01431C4.76616 1.59182 4.57839 1.02848 4.15591 0.793768C3.96813 0.699882 3.87424 0.418246 3.96812 0.230473C4.06201 0.0427008 4.34367 -0.0511969 4.53145 0.0426894C5.32948 0.512121 5.65808 1.54487 5.23559 2.38985L3.12315 6.4739C2.88844 6.89639 2.55983 7.17804 2.0904 7.31887C1.99651 7.41276 1.85567 7.41277 1.6679 7.41277Z" fill="#1499A2"/>
<path d="M25.3327 12.5307H25.2857C25.051 12.4837 24.9102 12.2959 24.9102 12.0612L25.1918 9.94878C25.2388 9.71407 25.4265 9.57324 25.6613 9.57324C25.896 9.62019 26.0368 9.80796 26.0368 10.0427L25.7552 12.1551C25.7082 12.3898 25.5204 12.5307 25.3327 12.5307Z" fill="#1499A2"/>
<path d="M23.3602 18.3505C23.0316 18.3505 22.75 18.2096 22.4683 18.0218C21.9989 17.5994 21.905 16.8483 22.2336 16.2849L24.6277 12.4356C23.8297 12.107 23.2663 11.309 23.2663 10.3701L23.3602 6.94328C23.3602 6.33302 23.501 5.76969 23.7358 5.25331C24.0174 4.68999 24.346 4.17364 24.8624 3.75115L26.5054 2.2959C26.5993 2.20201 26.7401 2.15507 26.881 2.20201C27.0218 2.24895 27.1157 2.29589 27.1626 2.43672L29.0873 6.14524C29.0873 6.19219 29.1342 6.19219 29.1342 6.23913C29.275 6.42691 29.2281 6.66163 29.0404 6.80246C28.6179 7.13106 28.2423 7.55352 28.0076 8.0699L27.9137 10.6048C27.8668 11.7315 27.5382 12.8581 26.9279 13.797L24.346 17.7402C24.1583 18.0688 23.7827 18.3035 23.4072 18.3505C23.4541 18.3035 23.4072 18.3505 23.3602 18.3505ZM26.6932 3.28172L25.4727 4.36141C25.0971 4.69001 24.7685 5.11249 24.5808 5.58192C24.393 6.00441 24.2991 6.47385 24.2521 6.94328L24.1583 10.3701C24.1583 11.0743 24.6746 11.6376 25.3318 11.6845C25.4727 11.6845 25.6135 11.7784 25.7074 11.9192C25.8013 12.0601 25.7543 12.2009 25.7074 12.3417L22.9847 16.7074C22.8439 16.9422 22.8908 17.2238 23.0316 17.3647C23.1255 17.4585 23.2663 17.5055 23.4072 17.4585C23.548 17.4585 23.6419 17.3647 23.7358 17.2708L26.3176 13.3275C26.834 12.4826 27.1626 11.5437 27.1626 10.5579L27.2565 7.92908C27.2565 7.88213 27.2565 7.83519 27.3035 7.78825C27.5382 7.27188 27.9137 6.7555 28.3362 6.37996L26.6932 3.28172Z" fill="#1499A2"/>
<path d="M29.8869 7.41541C29.746 7.41541 29.5583 7.36846 29.4174 7.32152C28.9949 7.18069 28.6194 6.89903 28.3847 6.47655L26.2722 2.39249C25.8497 1.54751 26.1314 0.514764 26.9764 0.0453324C27.1641 -0.0485539 27.4458 -0.00159928 27.5397 0.233116C27.6336 0.420889 27.5866 0.702525 27.3519 0.796411C26.9294 1.03113 26.7886 1.54752 26.9764 2.01695L29.0888 6.10101C29.1827 6.28878 29.3705 6.47653 29.6052 6.52348C29.8399 6.57042 30.0277 6.57043 30.2624 6.47655C30.4502 6.38266 30.7318 6.42958 30.8257 6.6643C30.9196 6.85207 30.8726 7.13374 30.6379 7.22762C30.4502 7.36845 30.1685 7.41541 29.8869 7.41541Z" fill="#1499A2"/>
<path d="M15.7922 23C14.7594 23 13.6797 22.6714 12.8348 21.9672C11.0979 20.6059 9.73652 19.0568 8.75071 17.3199C8.70377 17.226 8.70375 17.1321 8.70375 17.0382C8.70375 16.8974 8.70378 16.8035 8.60989 16.6627L7.85878 15.4421L7.81185 15.3952C7.34242 14.1747 7.01381 12.9072 6.91992 11.6398C6.91992 11.405 7.06075 11.2173 7.29546 11.1703C7.53018 11.1703 7.71795 11.3112 7.76489 11.5459C7.85878 12.7194 8.14046 13.893 8.60989 15.0197L9.36097 16.1932C9.5018 16.428 9.54875 16.6627 9.54875 16.9443C10.4876 18.5404 11.7551 19.9956 13.3511 21.2631C14.8064 22.3897 16.778 22.3897 18.2332 21.2631C19.8293 19.9956 21.1437 18.5404 22.0356 16.9443C22.0356 16.6627 22.1295 16.428 22.2234 16.1932L22.9745 15.0197C23.397 13.893 23.6786 12.7194 23.8194 11.5459C23.8194 11.3112 24.0542 11.1234 24.2889 11.1703C24.5236 11.1703 24.7114 11.405 24.6644 11.6398C24.5705 12.9072 24.2419 14.1747 23.7725 15.3952C23.7725 15.4422 23.7725 15.4421 23.7255 15.4421L22.9745 16.7096C22.9275 16.8035 22.8806 16.9443 22.8806 17.0851C22.8806 17.179 22.8806 17.2729 22.8336 17.3668C21.8478 19.1037 20.4395 20.6528 18.7496 22.0142C17.8577 22.6714 16.8249 23 15.7922 23Z" fill="#1499A2"/>
</svg>
