<svg width="19" height="23" viewBox="0 0 19 23" fill="none" xmlns="http://www.w3.org/2000/svg">
<path d="M4.51184 12.4727C4.51184 15.2161 6.7565 17.4608 9.49996 17.4608C12.2434 17.4608 14.4881 15.2161 14.4881 12.4727" stroke="#1499A2" stroke-width="0.9" stroke-miterlimit="10" stroke-linecap="round" stroke-linejoin="round"/>
<path d="M6.10767 18.7078C7.00553 19.5059 8.15278 19.9548 9.39982 19.9548C10.6468 19.9548 11.7941 19.5059 12.692 18.7078" stroke="#1499A2" stroke-width="0.9" stroke-miterlimit="10" stroke-linecap="round" stroke-linejoin="round"/>
<path d="M8.00354 21.9501V21.6508C8.00354 21.152 8.3527 20.6532 8.9014 20.3041L9.20069 20.1544C9.40021 20.0546 9.64963 20.0546 9.84915 20.1544L10.0986 20.3041C10.6473 20.6532 10.9964 21.152 10.9964 21.6508V22" stroke="#1499A2" stroke-width="0.9" stroke-miterlimit="10" stroke-linecap="round" stroke-linejoin="round"/>
<path d="M11.7941 14.0192C11.1955 14.6178 10.3974 15.0168 9.49958 15.0168C8.55184 15.0168 7.65398 14.5679 7.10529 13.9194" stroke="#1499A2" stroke-width="0.9" stroke-miterlimit="10" stroke-linecap="round" stroke-linejoin="round"/>
<path d="M6.50711 16.4631V17.5106C6.50711 18.3087 5.85866 18.9572 5.06056 18.9572H3.51424C1.86816 18.9572 0.521362 20.304 0.521362 21.9501" stroke="#1499A2" stroke-width="0.9" stroke-miterlimit="10" stroke-linecap="round" stroke-linejoin="round"/>
<path d="M18.4786 21.9501C18.4786 20.304 17.1318 18.9572 15.4857 18.9572H13.9394C13.1413 18.9572 12.4929 18.3087 12.4929 17.5106V16.4631" stroke="#1499A2" stroke-width="0.9" stroke-miterlimit="10" stroke-linecap="round" stroke-linejoin="round"/>
<path d="M4.51188 9.47974H3.41449C3.16508 9.47974 3.01544 9.67926 3.01544 9.87879V12.5225C3.01544 13.0213 3.41449 13.4702 3.96318 13.4702H4.51188" stroke="#1499A2" stroke-width="0.9" stroke-miterlimit="10" stroke-linecap="round" stroke-linejoin="round"/>
<path d="M14.4881 9.47974H15.5855C15.8349 9.47974 15.9845 9.67926 15.9845 9.87879V12.5225C15.9845 13.0213 15.5855 13.4702 15.0368 13.4702H14.4881" stroke="#1499A2" stroke-width="0.9" stroke-miterlimit="10" stroke-linecap="round" stroke-linejoin="round"/>
<path d="M4.51184 10.4775V8.48226C4.51184 5.7388 6.7565 3.49414 9.49996 3.49414C12.2434 3.49414 14.4881 5.7388 14.4881 8.48226V10.4775H10.4976C8.30281 10.4775 6.50709 8.68179 6.50709 6.48701" stroke="#1499A2" stroke-width="0.9" stroke-miterlimit="10" stroke-linecap="round" stroke-linejoin="round"/>
<path d="M7.10569 4.09264C7.05581 3.89311 7.00592 3.69359 7.00592 3.49406C7.00592 2.09739 8.10331 1 9.49998 1C10.8967 1 11.994 2.09739 11.994 3.49406C11.994 3.69359 11.9442 3.94299 11.8943 4.14252" stroke="#1499A2" stroke-width="0.9" stroke-miterlimit="10" stroke-linecap="round" stroke-linejoin="round"/>
</svg>
