<svg width="148" height="383" viewBox="0 0 148 383" fill="none" xmlns="http://www.w3.org/2000/svg">
<mask id="mask0_109_59" style="mask-type:luminance" maskUnits="userSpaceOnUse" x="0" y="0" width="149" height="383">
<path d="M114.482 70.1831C105.415 61.135 97.5201 60.7284 94.8204 60.8809C89.0134 60.6776 81.2708 61.7958 73.1207 63.6766C70.7267 63.575 69.606 62.05 69.1476 60.2201C69.606 60.2709 70.0135 60.2709 70.472 60.2201C78.673 59.8134 84.9384 50.4604 85.244 38.7691C85.2949 38.9216 85.3968 39.0233 85.4477 39.0233C86.2118 39.1249 86.3137 37.9558 86.4156 37.1933C86.6703 35.16 86.6193 30.9919 86.4156 27.9419C85.8553 20.1139 78.9277 12.6924 70.8795 11.5741C74.3433 9.8967 76.8392 7.15179 74.2414 3.39024C73.5282 2.32278 72.3567 1.50947 70.9304 0.950324C65.0216 -1.43877 55.0377 0.645334 56.1584 7.55844C56.5149 9.8967 58.2978 11.8283 60.4372 12.7941C59.9278 12.9974 59.4184 13.2516 58.96 13.5057C58.3997 13.8107 57.8903 14.1666 57.4318 14.5224C49.4346 19.3006 44.6464 26.1628 46.3783 35.8209C46.9386 38.9724 48.1102 42.0223 49.3327 45.0214C50.4533 47.8171 52.6946 48.8846 54.3755 51.1212C54.4774 51.2229 54.5793 51.3754 54.6812 51.477C54.7831 58.9493 54.1718 68.2515 48.8742 70.8439C43.322 73.0296 38.381 75.2662 34.9172 77.2995C12.7592 87.2625 20.0433 169.457 40.5713 217.087C44.6464 240.469 51.9815 263.699 51.9815 263.699C51.9815 263.699 37.4132 272.036 32.2684 282.355C24.1693 298.671 25.3918 325.155 19.5849 336.185C12.1479 350.316 -2.36941 379.24 0.330301 381.934C1.10554 382.707 4.3104 384.105 7.29578 381.454C8.23732 380.618 11.7974 374.863 12.8545 373.801C20.1177 366.504 26.0435 356.541 29.4669 348.792C33.1344 340.455 61.405 293.944 66.5497 288.81C65.0725 310.414 68.8929 336.439 68.8929 348.893C68.8929 356.367 76.8273 353.348 82.2386 358.13C83.4108 359.166 84.6281 360.842 85.8122 361.598C88.27 363.167 90.6429 363.307 92.581 363.307C99.3439 358.13 82.2386 346.962 82.2386 346.962C82.2386 346.962 91.8659 299.536 91.8659 274.679C115.909 250.737 130.12 185.774 130.12 168.847C130.12 161.68 127.523 154.31 123.397 148.006C124.11 147.803 124.67 147.396 125.638 146.38C127.981 144.042 130.986 141.246 133.228 138.806C135.724 136.112 138.118 133.265 140.359 130.317C142.346 127.674 144.281 124.929 145.809 122.031C146.879 120.049 148 117.762 148 115.474C148.102 105.918 125.74 81.4169 114.482 70.1831ZM44.137 162.341C43.7295 153.191 43.5767 142.669 43.5258 130.876C47.0405 138.145 50.3005 143.737 52.0324 145.414C52.0324 145.414 48.3649 150.548 44.137 162.341ZM129.611 119.134C126.708 122.946 123.753 126.759 120.85 130.571C119.678 132.096 118.608 133.672 117.386 135.146C116.877 135.756 116.163 136.823 115.399 137.179C114.686 137.484 113.362 136.773 112.547 136.62C107.962 133.418 102.818 131.537 97.7238 131.537C97.7238 131.537 101.646 122.031 105.059 109.984C105.67 109.679 106.281 109.323 106.74 108.917C107.402 108.307 108.013 107.697 108.574 106.985C108.93 106.579 109.236 106.172 109.541 105.714C110.356 104.545 110.866 103.122 111.375 101.75C118.507 110.34 125.943 116.999 130.222 118.321C129.968 118.626 129.764 118.88 129.611 119.134Z" fill="#1499A2"/>
</mask>
<g mask="url(#mask0_109_59)">
<path d="M94.8204 60.8809L94.7854 61.8803L94.8311 61.8819L94.8767 61.8793L94.8204 60.8809ZM73.1207 63.6766L73.0783 64.6757L73.2136 64.6815L73.3456 64.651L73.1207 63.6766ZM69.1476 60.2201L69.2578 59.2262L67.828 59.0676L68.1776 60.4631L69.1476 60.2201ZM70.472 60.2201L70.4224 59.2213L70.392 59.2228L70.3618 59.2262L70.472 60.2201ZM85.244 38.7691L86.1925 38.4523L84.2443 38.743L85.244 38.7691ZM85.4477 39.0233L85.5796 38.032L85.514 38.0233H85.4477V39.0233ZM86.4156 37.1933L87.4068 37.3258L87.4078 37.3176L86.4156 37.1933ZM86.4156 27.9419L87.4134 27.8753L87.413 27.8706L86.4156 27.9419ZM70.8795 11.5741L70.4436 10.6741L67.4767 12.1109L70.7418 12.5646L70.8795 11.5741ZM74.2414 3.39023L73.4099 3.94574L73.4142 3.95216L73.4185 3.95851L74.2414 3.39023ZM70.9304 0.950318L70.5555 1.87745L70.5654 1.88132L70.9304 0.950318ZM56.1584 7.55843L57.147 7.40767L57.1455 7.39842L56.1584 7.55843ZM60.4372 12.7941L60.8079 13.7228L62.9929 12.8507L60.8486 11.8827L60.4372 12.7941ZM58.96 13.5057L59.4381 14.3841L59.4448 14.3803L58.96 13.5057ZM57.4318 14.5224L57.9447 15.3808L57.9969 15.3496L58.045 15.3124L57.4318 14.5224ZM46.3783 35.8209L47.3628 35.6458L47.3626 35.6444L46.3783 35.8209ZM49.3327 45.0214L50.2609 44.6493L50.2587 44.6439L49.3327 45.0214ZM54.3755 51.1212L53.5762 51.722L53.6189 51.7788L53.6692 51.829L54.3755 51.1212ZM54.6812 51.477L55.6811 51.4634L55.6755 51.0566L55.3876 50.7692L54.6812 51.477ZM48.8742 70.8439L49.2406 71.7744L49.2778 71.7597L49.3138 71.7421L48.8742 70.8439ZM34.9172 77.2995L35.3273 78.2116L35.3767 78.1893L35.4235 78.1619L34.9172 77.2995ZM40.5713 217.087L41.5565 216.915L41.5363 216.799L41.4897 216.691L40.5713 217.087ZM51.9815 263.699L52.4781 264.567L53.1778 264.167L52.9351 263.398L51.9815 263.699ZM32.2684 282.355L31.3735 281.908L31.3727 281.91L32.2684 282.355ZM19.5849 336.185L18.7 335.719L18.6999 335.72L19.5849 336.185ZM29.4669 348.792L30.3816 349.196L30.3822 349.194L29.4669 348.792ZM66.5497 288.81L67.5474 288.878L67.7292 286.22L65.8434 288.102L66.5497 288.81ZM92.581 363.307V364.307H92.9198L93.1889 364.101L92.581 363.307ZM82.2386 346.962L81.2586 346.763L81.1236 347.428L81.6919 347.799L82.2386 346.962ZM91.8659 274.679L91.1603 273.97L90.8659 274.263V274.679H91.8659ZM123.397 148.006L123.122 147.045L121.816 147.417L122.56 148.554L123.397 148.006ZM125.638 146.38L124.931 145.672L124.922 145.681L124.914 145.69L125.638 146.38ZM133.228 138.806L132.494 138.126L132.491 138.129L133.228 138.806ZM140.359 130.317L141.155 130.922L141.158 130.918L140.359 130.317ZM145.809 122.031L144.929 121.557L144.925 121.565L145.809 122.031ZM148 115.474L147 115.463V115.474H148ZM44.137 162.341L43.138 162.385L45.0783 162.678L44.137 162.341ZM43.5258 130.876L44.426 130.441L42.5258 130.88L43.5258 130.876ZM52.0324 145.414L52.8461 145.995L53.3466 145.295L52.7281 144.696L52.0324 145.414ZM129.611 119.134L130.407 119.74L130.44 119.696L130.468 119.649L129.611 119.134ZM120.85 130.571L121.643 131.18L121.645 131.177L120.85 130.571ZM117.386 135.146L118.153 135.787L118.156 135.784L117.386 135.146ZM115.399 137.179L115.793 138.099L115.807 138.092L115.821 138.086L115.399 137.179ZM112.547 136.62L111.974 137.44L112.151 137.563L112.363 137.603L112.547 136.62ZM97.7238 131.537L96.7994 131.156L96.2294 132.537H97.7238V131.537ZM105.059 109.984L104.612 109.089L104.217 109.287L104.097 109.712L105.059 109.984ZM106.74 108.917L107.403 109.665L107.41 109.659L107.417 109.652L106.74 108.917ZM108.574 106.985L107.822 106.326L107.804 106.346L107.788 106.367L108.574 106.985ZM109.541 105.714L108.721 105.143L108.715 105.151L108.71 105.159L109.541 105.714ZM111.375 101.75L112.145 101.111L111.04 99.7797L110.438 101.402L111.375 101.75ZM130.222 118.321L130.99 118.962L131.953 117.809L130.517 117.365L130.222 118.321ZM115.189 69.4752C105.895 60.201 97.7099 59.7161 94.764 59.8825L94.8767 61.8793C97.3303 61.7407 104.936 62.0691 113.776 70.8909L115.189 69.4752ZM94.8553 59.8815C88.9191 59.6736 81.0771 60.8143 72.8959 62.7022L73.3456 64.651C81.4646 62.7774 89.1078 61.6815 94.7854 61.8803L94.8553 59.8815ZM73.1632 62.6775C72.1896 62.6362 71.552 62.3162 71.1075 61.8815C70.6443 61.4286 70.3184 60.7788 70.1176 59.9771L68.1776 60.4631C68.4351 61.4913 68.8988 62.5189 69.7091 63.3114C70.538 64.122 71.6578 64.6154 73.0783 64.6757L73.1632 62.6775ZM69.0374 61.214C69.5691 61.2729 70.0505 61.2729 70.5822 61.214L70.3618 59.2262C69.9766 59.2689 69.643 59.2689 69.2578 59.2262L69.0374 61.214ZM70.5215 61.2188C75.0165 60.996 78.8905 58.323 81.6445 54.2903C84.3986 50.2576 86.0866 44.8028 86.2437 38.7952L84.2443 38.743C84.0958 44.4267 82.4982 49.494 79.993 53.1623C77.4877 56.8307 74.1285 59.0375 70.4224 59.2213L70.5215 61.2188ZM84.2955 39.0859C84.3614 39.283 84.4634 39.4607 84.5873 39.6049C84.6485 39.6762 84.7316 39.7587 84.839 39.8318C84.9199 39.8868 85.1385 40.0233 85.4477 40.0233V38.0233C85.6024 38.0233 85.7229 38.0604 85.7951 38.089C85.8706 38.119 85.9273 38.1532 85.9641 38.1782C86.0365 38.2275 86.0815 38.275 86.1045 38.3018C86.152 38.3571 86.1776 38.4077 86.1925 38.4523L84.2955 39.0859ZM85.3158 40.0145C85.7992 40.0788 86.242 39.9326 86.5776 39.6292C86.8721 39.363 87.0301 39.0256 87.1219 38.7683C87.3005 38.2674 87.3639 37.6463 87.4068 37.3258L85.4244 37.0609C85.3962 37.2719 85.3747 37.4569 85.3424 37.6511C85.3105 37.8428 85.2759 37.9904 85.2381 38.0964C85.1962 38.214 85.1791 38.1974 85.2363 38.1457C85.2726 38.1129 85.3302 38.0743 85.4069 38.0504C85.4837 38.0265 85.5464 38.0276 85.5796 38.032L85.3158 40.0145ZM87.4078 37.3176C87.675 35.1849 87.618 30.9376 87.4134 27.8753L85.4178 28.0086C85.6207 31.0461 85.6656 35.1352 85.4233 37.069L87.4078 37.3176ZM87.413 27.8706C86.8184 19.5636 79.525 11.7658 71.0171 10.5837L70.7418 12.5646C78.3304 13.6191 84.8921 20.6641 85.4181 28.0133L87.413 27.8706ZM71.3153 12.4742C73.1186 11.6009 74.8349 10.3779 75.7149 8.73614C76.1655 7.89552 76.3921 6.95142 76.2947 5.92539C76.1979 4.90705 75.788 3.87003 75.0642 2.82196L73.4185 3.95851C73.9936 4.79121 74.246 5.50789 74.3036 6.11457C74.3605 6.71357 74.2338 7.26582 73.9522 7.7913C73.3677 8.88178 72.1042 9.86995 70.4436 10.6741L71.3153 12.4742ZM75.0729 2.83473C74.2106 1.544 72.8418 0.625549 71.2954 0.0193061L70.5654 1.88132C71.8716 2.39338 72.8459 3.10153 73.4099 3.94574L75.0729 2.83473ZM71.3053 0.0232301C68.1192 -1.26499 63.8948 -1.34239 60.5771 -0.177477C58.9086 0.408365 57.3938 1.33515 56.3706 2.66318C55.3274 4.01733 54.8479 5.72392 55.1713 7.71845L57.1455 7.39842C56.9085 5.93638 57.2568 4.79005 57.955 3.88377C58.6733 2.95139 59.8137 2.21026 61.2396 1.70958C64.1109 0.701433 67.8327 0.776581 70.5555 1.87745L71.3053 0.0232301ZM55.1698 7.70918C55.589 10.458 57.6543 12.635 60.0257 13.7055L60.8486 11.8827C58.9412 11.0216 57.4409 9.33541 57.147 7.40767L55.1698 7.70918ZM60.0665 11.8654C59.507 12.0887 58.9585 12.3632 58.4751 12.6312L59.4448 14.3803C59.8784 14.14 60.3486 13.9062 60.8079 13.7228L60.0665 11.8654ZM58.4819 12.6274C57.8597 12.9661 57.3042 13.3556 56.8187 13.7324L58.045 15.3124C58.4763 14.9775 58.9396 14.6554 59.4381 14.3841L58.4819 12.6274ZM56.9189 13.6639C52.8212 16.1122 49.4756 19.1353 47.3851 22.8514C45.2843 26.5858 44.4895 30.9535 45.394 35.9974L47.3626 35.6444C46.5352 31.0302 47.2685 27.1378 49.1282 23.832C50.9981 20.5079 54.0452 17.7107 57.9447 15.3808L56.9189 13.6639ZM45.3937 35.9959C45.9745 39.2623 47.184 42.3994 48.4067 45.3989L50.2587 44.6439C49.0364 41.6452 47.9027 38.6825 47.3628 35.6458L45.3937 35.9959ZM48.4045 45.3935C49.0398 46.9783 49.9924 48.0588 50.9426 48.9938C51.9205 49.956 52.7954 50.6832 53.5762 51.722L55.1749 50.5204C54.2747 49.3226 53.1885 48.3978 52.3454 47.5682C51.4746 46.7113 50.7463 45.8602 50.2609 44.6493L48.4045 45.3935ZM53.6692 51.829C53.6668 51.8267 53.672 51.8317 53.6877 51.8503C53.7037 51.8692 53.7212 51.891 53.7481 51.9246C53.7901 51.9769 53.877 52.0873 53.9748 52.1849L55.3876 50.7692C55.3899 50.7715 55.3847 50.7665 55.369 50.7479C55.3531 50.729 55.3355 50.7072 55.3086 50.6736C55.2666 50.6213 55.1797 50.511 55.0819 50.4133L53.6692 51.829ZM53.6813 51.4906C53.732 55.2104 53.6023 59.3074 52.8267 62.7719C52.0416 66.2786 50.6583 68.8575 48.4347 69.9457L49.3138 71.7421C52.3877 70.2379 53.9588 66.8694 54.7783 63.2089C55.6073 59.5062 55.7323 55.2159 55.6811 51.4634L53.6813 51.4906ZM48.5079 69.9134C42.9383 72.106 37.9412 74.3648 34.411 76.4371L35.4235 78.1619C38.8208 76.1676 43.7057 73.9533 49.2406 71.7744L48.5079 69.9134ZM34.5071 76.3875C28.4939 79.0912 24.7091 86.546 22.5882 96.4369C20.4498 106.41 19.9273 119.205 20.7387 133.126C22.3616 160.97 29.3353 193.543 39.653 217.482L41.4897 216.691C31.2793 193.001 24.347 160.662 22.7353 133.01C21.9294 119.183 22.4575 106.586 24.5438 96.8562C26.6476 87.0451 30.2615 80.4893 35.3273 78.2116L34.5071 76.3875ZM39.5862 217.258C41.6308 228.99 44.4914 240.675 46.8387 249.421C48.0128 253.795 49.0594 257.438 49.8127 259.988C50.1893 261.263 50.4927 262.264 50.7022 262.948C50.8069 263.29 50.8881 263.553 50.9433 263.73C50.9708 263.818 50.9919 263.886 51.0061 263.931C51.0132 263.954 51.0186 263.971 51.0222 263.982C51.0241 263.988 51.0254 263.993 51.0264 263.996C51.0269 263.997 51.0272 263.998 51.0275 263.999C51.0276 263.999 51.0277 264 51.0278 264C51.0278 264 51.0279 264 51.9815 263.699C52.9351 263.398 52.9351 263.398 52.9351 263.398C52.9351 263.398 52.9349 263.398 52.9348 263.397C52.9346 263.397 52.9343 263.396 52.9339 263.394C52.933 263.392 52.9318 263.388 52.93 263.382C52.9266 263.371 52.9214 263.355 52.9145 263.333C52.9007 263.289 52.8801 263.223 52.8529 263.136C52.7986 262.961 52.7183 262.702 52.6145 262.363C52.4069 261.685 52.1054 260.689 51.7307 259.421C50.9813 256.884 49.9394 253.258 48.7704 248.902C46.4314 240.188 43.587 228.566 41.5565 216.915L39.5862 217.258ZM51.9815 263.699C51.4848 262.831 51.4846 262.831 51.4843 262.832C51.4846 262.832 51.4841 262.832 51.4843 262.832C51.4836 262.832 51.4819 262.833 51.4808 262.834C51.4786 262.835 51.4756 262.837 51.4716 262.839C51.4637 262.843 51.4523 262.85 51.4376 262.859C51.4081 262.876 51.365 262.901 51.3092 262.934C51.1974 263 51.0345 263.096 50.8262 263.223C50.4097 263.476 49.8115 263.848 49.0787 264.325C47.6138 265.28 45.6068 266.662 43.4356 268.372C39.1199 271.77 34.0474 276.545 31.3735 281.908L33.1634 282.801C35.6342 277.845 40.4182 273.293 44.6729 269.943C46.7869 268.279 48.7435 266.931 50.1709 266.001C50.8842 265.536 51.4644 265.175 51.8646 264.932C52.0648 264.811 52.2198 264.718 52.3241 264.657C52.3762 264.626 52.4155 264.603 52.4415 264.588C52.4544 264.581 52.464 264.575 52.4702 264.572C52.4732 264.57 52.4754 264.569 52.4768 264.568C52.4774 264.568 52.4779 264.567 52.4781 264.567C52.478 264.567 52.4782 264.567 52.4781 264.567C52.478 264.567 52.4781 264.567 51.9815 263.699ZM31.3727 281.91C27.2398 290.236 25.5059 301.099 24.0771 311.111C23.3584 316.148 22.7182 320.968 21.8957 325.226C21.0712 329.494 20.0804 333.097 18.7 335.719L20.4697 336.651C21.9928 333.758 23.0268 329.915 23.8594 325.605C24.6939 321.285 25.3432 316.396 26.0571 311.394C27.4936 301.327 29.1979 290.79 33.1642 282.799L31.3727 281.91ZM18.6999 335.72C14.9779 342.792 9.4787 353.576 5.24517 362.936C3.13037 367.612 1.31913 371.96 0.204833 375.322C-0.350526 376.997 -0.746937 378.469 -0.912549 379.633C-0.995085 380.213 -1.02706 380.761 -0.974029 381.241C-0.923046 381.702 -0.778239 382.24 -0.376084 382.642L1.03665 381.226C1.10134 381.29 1.04319 381.287 1.01386 381.021C0.986578 380.775 0.996939 380.411 1.06751 379.915C1.20813 378.927 1.56106 377.587 2.10326 375.951C3.18407 372.69 4.96078 368.419 7.06746 363.761C11.2769 354.453 16.7548 343.71 20.4697 336.651L18.6999 335.72ZM30.3822 349.194C32.1821 345.103 40.1228 331.458 48.3066 318.123C52.388 311.473 56.5128 304.926 59.9361 299.726C61.6482 297.125 63.181 294.866 64.4431 293.101C65.7197 291.316 66.6798 290.093 67.2561 289.518L65.8434 288.102C65.1335 288.811 64.0847 290.164 62.8163 291.938C61.5332 293.732 59.9847 296.014 58.2656 298.626C54.8266 303.85 50.6899 310.416 46.602 317.077C38.4475 330.365 30.4192 344.144 28.5515 348.389L30.3822 349.194ZM65.5521 288.742C64.8084 299.617 65.399 311.583 66.1699 322.354C66.9442 333.172 67.8929 342.714 67.8929 348.893H69.8929C69.8929 342.619 68.9314 332.921 68.1648 322.211C67.3949 311.455 66.8139 299.606 67.5474 288.878L65.5521 288.742ZM93.1889 364.101C94.1939 363.332 94.8163 362.398 95.0541 361.337C95.2878 360.295 95.1271 359.232 94.7567 358.224C94.0268 356.239 92.3941 354.231 90.6539 352.487C88.8924 350.721 86.9249 349.132 85.4072 347.989C84.6463 347.416 83.9939 346.952 83.5307 346.63C83.299 346.469 83.1143 346.344 82.9868 346.258C82.923 346.215 82.8735 346.182 82.8395 346.16C82.8225 346.149 82.8094 346.14 82.8003 346.134C82.7958 346.131 82.7923 346.129 82.7898 346.127C82.7885 346.126 82.7875 346.126 82.7868 346.125C82.787 346.125 82.7864 346.125 82.7868 346.125C82.7865 346.124 82.7854 346.124 82.2386 346.962C81.6919 347.799 81.6919 347.799 81.6919 347.799C81.6917 347.799 81.692 347.799 81.6919 347.799C81.6922 347.799 81.6929 347.8 81.6937 347.8C81.6954 347.801 81.698 347.803 81.7017 347.805C81.709 347.81 81.7203 347.818 81.7355 347.828C81.7658 347.848 81.8115 347.878 81.8714 347.918C81.9911 347.999 82.1674 348.118 82.3902 348.273C82.836 348.582 83.4671 349.031 84.2041 349.586C85.6823 350.699 87.5685 352.226 89.2379 353.899C90.9287 355.594 92.3043 357.35 92.8795 358.914C93.1617 359.682 93.2278 360.341 93.1025 360.9C92.9812 361.441 92.6589 361.988 91.9732 362.513L93.1889 364.101ZM82.2386 346.962C83.2187 347.161 83.2187 347.16 83.2188 347.16C83.2189 347.159 83.219 347.159 83.2191 347.158C83.2194 347.157 83.2199 347.154 83.2205 347.151C83.2217 347.146 83.2235 347.137 83.2258 347.125C83.2305 347.102 83.2374 347.068 83.2466 347.022C83.2649 346.931 83.2921 346.796 83.3274 346.619C83.3982 346.264 83.5018 345.741 83.6337 345.067C83.8974 343.719 84.2741 341.767 84.7259 339.346C85.6296 334.506 86.8345 327.792 88.0396 320.3C90.4463 305.338 92.8659 287.196 92.8659 274.679H90.8659C90.8659 287.019 88.4719 305.018 86.065 319.983C84.8632 327.454 83.6613 334.151 82.7599 338.979C82.3092 341.394 81.9337 343.34 81.6709 344.683C81.5396 345.355 81.4364 345.875 81.3661 346.227C81.3309 346.403 81.304 346.537 81.2859 346.627C81.2769 346.672 81.27 346.706 81.2654 346.729C81.2632 346.74 81.2614 346.749 81.2603 346.754C81.2597 346.757 81.2593 346.759 81.259 346.761C81.2589 346.761 81.2588 346.762 81.2587 346.762C81.2587 346.763 81.2586 346.763 82.2386 346.962ZM92.5716 275.388C104.782 263.229 114.402 240.791 120.965 219.426C127.534 198.043 131.12 177.459 131.12 168.847H129.12C129.12 177.163 125.601 197.524 119.053 218.839C112.5 240.173 102.993 262.187 91.1603 273.97L92.5716 275.388ZM131.12 168.847C131.12 161.447 128.442 153.889 124.233 147.459L122.56 148.554C126.603 154.73 129.12 161.913 129.12 168.847H131.12ZM123.671 148.968C124.65 148.689 125.363 148.118 126.362 147.069L124.914 145.69C123.977 146.674 123.57 146.917 123.122 147.045L123.671 148.968ZM126.344 147.088C128.646 144.79 131.705 141.941 133.964 139.482L132.491 138.129C130.268 140.55 127.316 143.293 124.931 145.672L126.344 147.088ZM133.961 139.485C136.479 136.768 138.894 133.896 141.155 130.922L139.563 129.712C137.341 132.634 134.968 135.456 132.494 138.126L133.961 139.485ZM141.158 130.918C143.153 128.263 145.128 125.467 146.694 122.498L144.925 121.565C143.435 124.39 141.538 127.084 139.56 129.716L141.158 130.918ZM146.689 122.506C147.75 120.541 149 118.046 149 115.474H147C147 117.477 146.008 119.557 144.929 121.557L146.689 122.506ZM149 115.485C149.014 114.11 148.628 112.546 147.983 110.883C147.333 109.209 146.395 107.373 145.249 105.436C142.957 101.563 139.788 97.2119 136.281 92.8326C129.266 84.0707 120.834 75.1087 115.189 69.4752L113.776 70.8909C119.388 76.4913 127.766 85.3966 134.72 94.0826C138.199 98.4273 141.304 102.696 143.528 106.455C144.64 108.334 145.521 110.068 146.118 111.607C146.72 113.157 147.011 114.449 147 115.463L149 115.485ZM45.136 162.296C44.7294 153.167 44.5767 142.661 44.5257 130.872L42.5258 130.88C42.5767 142.677 42.7296 153.215 43.138 162.385L45.136 162.296ZM42.6255 131.311C44.3908 134.962 46.0968 138.202 47.5843 140.746C49.0512 143.256 50.36 145.186 51.3367 146.132L52.7281 144.696C51.9729 143.964 50.7858 142.26 49.311 139.737C47.8568 137.25 46.1755 134.059 44.426 130.441L42.6255 131.311ZM52.0324 145.414C51.2187 144.833 51.2185 144.833 51.2183 144.833C51.2183 144.833 51.2181 144.834 51.2179 144.834C51.2176 144.834 51.2172 144.835 51.2168 144.835C51.2159 144.837 51.2149 144.838 51.2136 144.84C51.211 144.844 51.2075 144.848 51.2032 144.855C51.1945 144.867 51.1823 144.885 51.1667 144.907C51.1356 144.952 51.091 145.018 51.0336 145.104C50.9187 145.277 50.7528 145.533 50.5418 145.876C50.1199 146.561 49.5179 147.592 48.7844 148.991C47.3175 151.79 45.3251 156.064 43.1957 162.003L45.0783 162.678C47.1768 156.825 49.1321 152.636 50.5559 149.919C51.2678 148.561 51.8469 147.571 52.2448 146.925C52.4437 146.602 52.5973 146.365 52.6996 146.211C52.7507 146.134 52.7889 146.078 52.8136 146.042C52.826 146.024 52.8349 146.011 52.8404 146.003C52.8431 146 52.8449 145.997 52.8459 145.996C52.8464 145.995 52.8466 145.995 52.8467 145.994C52.8466 145.994 52.8461 145.995 52.8461 145.995C52.8459 145.995 52.8461 145.995 52.0324 145.414ZM128.815 118.528C127.365 120.432 125.902 122.337 124.437 124.243C122.973 126.149 121.507 128.057 120.054 129.965L121.645 131.177C123.095 129.273 124.559 127.368 126.023 125.462C127.488 123.556 128.953 121.648 130.407 119.74L128.815 118.528ZM120.057 129.962C118.829 131.56 117.832 133.042 116.616 134.508L118.156 135.784C119.385 134.302 120.527 132.632 121.643 131.18L120.057 129.962ZM116.618 134.505C116.478 134.672 116.324 134.872 116.182 135.053C116.033 135.242 115.885 135.428 115.734 135.601C115.41 135.973 115.157 136.189 114.977 136.273L115.821 138.086C116.406 137.814 116.891 137.318 117.242 136.915C117.429 136.701 117.602 136.482 117.754 136.289C117.913 136.087 118.039 135.924 118.153 135.787L116.618 134.505ZM115.006 136.26C115.052 136.24 115.032 136.265 114.877 136.248C114.731 136.232 114.542 136.187 114.302 136.115C114.058 136.04 113.827 135.958 113.553 135.866C113.302 135.783 113.009 135.689 112.731 135.637L112.363 137.603C112.492 137.627 112.67 137.68 112.919 137.763C113.145 137.838 113.442 137.943 113.72 138.028C114.003 138.114 114.329 138.2 114.658 138.236C114.977 138.271 115.39 138.271 115.793 138.099L115.006 136.26ZM113.119 135.8C108.404 132.506 103.063 130.537 97.7238 130.537V132.537C102.572 132.537 107.521 134.329 111.974 137.44L113.119 135.8ZM97.7238 131.537C98.6482 131.918 98.6483 131.918 98.6483 131.918C98.6485 131.917 98.6489 131.917 98.6491 131.916C98.6497 131.915 98.6505 131.913 98.6515 131.91C98.6535 131.905 98.6565 131.898 98.6604 131.889C98.6682 131.87 98.6797 131.842 98.6948 131.805C98.7249 131.731 98.7693 131.621 98.8269 131.478C98.942 131.191 99.1098 130.77 99.3216 130.227C99.7452 129.141 100.345 127.569 101.052 125.619C102.465 121.721 104.306 116.309 106.021 110.257L104.097 109.712C102.399 115.706 100.573 121.071 99.1714 124.938C98.4709 126.87 97.8768 128.427 97.4584 129.5C97.2491 130.036 97.0839 130.452 96.9711 130.732C96.9148 130.872 96.8716 130.979 96.8426 131.05C96.8281 131.086 96.8172 131.112 96.8099 131.13C96.8063 131.139 96.8036 131.145 96.8019 131.15C96.801 131.152 96.8003 131.153 96.7999 131.154C96.7997 131.155 96.7996 131.155 96.7995 131.155C96.7995 131.155 96.7994 131.155 96.7994 131.156C96.7994 131.156 96.7994 131.156 97.7238 131.537ZM105.505 110.879C106.142 110.561 106.846 110.159 107.403 109.665L106.076 108.169C105.717 108.488 105.198 108.797 104.612 109.089L105.505 110.879ZM107.417 109.652C108.097 109.026 108.752 108.375 109.359 107.604L107.788 106.367C107.275 107.019 106.707 107.588 106.062 108.181L107.417 109.652ZM109.326 107.645C109.715 107.2 110.047 106.758 110.373 106.27L108.71 105.159C108.425 105.586 108.145 105.957 107.822 106.326L109.326 107.645ZM110.362 106.286C111.265 104.991 111.817 103.433 112.313 102.098L110.438 101.402C109.915 102.811 109.448 104.1 108.721 105.143L110.362 106.286ZM110.606 102.388C114.197 106.714 117.874 110.566 121.206 113.51C124.504 116.424 127.569 118.548 129.927 119.276L130.517 117.365C128.597 116.772 125.804 114.905 122.531 112.012C119.292 109.149 115.685 105.376 112.145 101.111L110.606 102.388ZM129.455 117.68C129.202 117.982 128.951 118.29 128.754 118.619L130.468 119.649C130.576 119.469 130.733 119.269 130.99 118.962L129.455 117.68ZM85.2741 362.441C87.9771 364.166 90.5864 364.307 92.581 364.307V362.307C90.6995 362.307 88.5629 362.168 86.3503 360.755L85.2741 362.441ZM67.8929 348.893C67.8929 350.951 68.4463 352.442 69.5041 353.518C70.522 354.554 71.8959 355.084 73.2561 355.481C76.1034 356.313 79.0901 356.682 81.5764 358.88L82.9008 357.381C79.9758 354.796 76.2897 354.284 73.817 353.561C72.5171 353.182 71.5692 352.766 70.9303 352.116C70.3313 351.507 69.8929 350.572 69.8929 348.893H67.8929ZM81.5764 358.88C82.1145 359.355 82.6593 359.974 83.2892 360.651C83.8811 361.286 84.5606 361.985 85.2741 362.441L86.3503 360.755C85.8797 360.455 85.3586 359.938 84.7527 359.288C84.1849 358.678 83.5349 357.941 82.9008 357.381L81.5764 358.88ZM-0.376084 382.642C0.203023 383.22 1.42957 383.842 2.8943 383.974C4.41949 384.112 6.24555 383.724 7.95969 382.202L6.63182 380.707C5.36059 381.835 4.09153 382.074 3.07413 381.982C1.99628 381.885 1.23278 381.422 1.03665 381.226L-0.376084 382.642ZM7.95969 382.202C8.29644 381.903 8.76363 381.283 9.22578 380.638C9.7169 379.952 10.2903 379.11 10.8587 378.275C11.4308 377.433 11.9981 376.597 12.4885 375.905C12.9967 375.187 13.3689 374.701 13.5632 374.506L12.1457 373.095C11.8115 373.431 11.3423 374.063 10.8563 374.749C10.3524 375.461 9.77263 376.315 9.20486 377.15C8.6334 377.99 8.07418 378.811 7.59994 379.473C7.09674 380.175 6.76585 380.588 6.63182 380.707L7.95969 382.202ZM13.5632 374.506C20.937 367.098 26.9245 357.022 30.3816 349.196L28.5521 348.387C25.1625 356.061 19.2984 365.91 12.1457 373.095L13.5632 374.506Z" fill="#1499A2"/>
</g>
<path d="M46 35.7147C48.0036 36.0125 50 30.4997 56 40.4997C59.2484 40.4201 57.5743 35.3983 60.5 33.9997C63.3734 32.6261 62.4682 32.9245 64.5 29.9996C65.1643 29.0434 72.5 30.9998 78 24.9998C78.5 20.4998 80.4788 27.2611 81.5 27.9996C84.3148 30.0351 82.6929 31.7487 86 32.2927" stroke="#1499A2" stroke-linecap="round"/>
</svg>
