<svg width="21" height="23" viewBox="0 0 21 23" fill="none" xmlns="http://www.w3.org/2000/svg">
<path d="M16.0241 8.73794H9.33706C8.12123 8.73794 7.12646 7.74317 7.12646 6.52734" stroke="#1499A2" stroke-width="0.9" stroke-miterlimit="10" stroke-linecap="round" stroke-linejoin="round"/>
<path d="M6.7417 18.3542C7.73647 19.2384 9.00755 19.7911 10.4444 19.7911C11.9366 19.7911 13.2629 19.1832 14.2577 18.2437" stroke="#1499A2" stroke-width="0.9" stroke-miterlimit="10" stroke-linecap="round" stroke-linejoin="round"/>
<path d="M13.0421 13.2141C12.3789 13.8772 11.4946 14.3193 10.4999 14.3193C9.44984 14.3193 8.45508 13.822 7.84717 13.1035" stroke="#1499A2" stroke-width="0.9" stroke-miterlimit="10" stroke-linecap="round" stroke-linejoin="round"/>
<path d="M7.1839 15.9209V17.0815C7.1839 17.9657 6.46546 18.6841 5.58123 18.6841H3.86801C2.04427 18.6841 0.552124 20.1763 0.552124 22" stroke="#1499A2" stroke-width="0.9" stroke-miterlimit="10" stroke-linecap="round" stroke-linejoin="round"/>
<path d="M20.4478 22C20.4478 20.1763 18.9557 18.6841 17.1319 18.6841H15.4187C14.5345 18.6841 13.816 17.9657 13.816 17.0815V15.9209" stroke="#1499A2" stroke-width="0.9" stroke-miterlimit="10" stroke-linecap="round" stroke-linejoin="round"/>
<path d="M3.31384 12.6056V8.18443C3.31384 4.20536 6.5192 1 10.4983 1C14.4773 1 17.6827 4.20536 17.6827 8.18443V12.6056" stroke="#1499A2" stroke-width="0.9" stroke-miterlimit="10" stroke-linecap="round" stroke-linejoin="round"/>
<path d="M16.029 11.5016C16.029 14.5412 13.5421 17.0281 10.5026 17.0281C7.46299 17.0281 4.97607 14.5412 4.97607 11.5016V8.7384C4.97607 5.69883 7.46299 3.21191 10.5026 3.21191C13.5421 3.21191 16.029 5.69883 16.029 8.7384V11.5016Z" stroke="#1499A2" stroke-width="0.9" stroke-miterlimit="10" stroke-linecap="round" stroke-linejoin="round"/>
<path d="M17.6852 12.6049H17.9615C19.0115 12.6049 19.8958 11.7206 19.8958 10.6706C19.8958 9.62057 19.0115 8.73633 17.9615 8.73633H17.6852" stroke="#1499A2" stroke-width="0.9" stroke-miterlimit="10" stroke-linecap="round" stroke-linejoin="round"/>
</svg>
