<svg width="19" height="23" viewBox="0 0 19 23" fill="none" xmlns="http://www.w3.org/2000/svg">
<path d="M11.6751 11.8555C11.569 11.8555 11.5159 11.8025 11.4098 11.7494C11.1444 11.4841 10.9322 11.1657 10.773 10.6881C10.0831 10.9534 9.28708 10.9534 8.54413 10.6881C8.38493 11.1657 8.17266 11.4841 7.90732 11.7494C7.74812 11.9086 7.48278 11.8555 7.37664 11.6963C7.21744 11.5371 7.27051 11.2718 7.42971 11.1657C7.64198 10.9534 7.85425 10.5819 7.96039 10.0512C8.01346 9.9451 8.06652 9.83896 8.17266 9.78589C8.27879 9.73283 8.38493 9.73283 8.49107 9.78589C9.23401 10.1574 10.0831 10.1574 10.826 9.78589C10.9322 9.73283 11.0383 9.73283 11.1444 9.78589C11.2506 9.83896 11.3036 9.9451 11.3567 10.0512C11.5159 10.5819 11.6751 10.9534 11.8874 11.1657C12.0466 11.3249 12.0466 11.5371 11.9405 11.6963C11.8874 11.8025 11.7813 11.8555 11.6751 11.8555Z" fill="#1499A2"/>
<path d="M9.65394 10.8991C9.44167 10.8991 9.28247 10.7399 9.28247 10.5276C9.28247 10.3153 9.44167 10.1561 9.65394 10.1561C11.0868 10.1561 12.3073 8.98865 12.3073 7.50276V6.81289C12.3073 6.60062 12.4665 6.44141 12.6788 6.44141C12.8911 6.44141 13.0503 6.60062 13.0503 6.81289V7.50276C13.0503 9.36013 11.5113 10.8991 9.65394 10.8991Z" fill="#1499A2"/>
<path d="M3.81938 13.5005C3.66018 13.5005 3.50098 13.3943 3.44791 13.2351C3.34178 12.9167 3.28871 12.5453 3.28871 12.1738C3.28871 11.8554 3.34177 11.537 3.39484 11.2716C3.55404 10.741 3.50098 10.2103 3.28871 9.73268C3.07644 9.20201 2.91724 8.67133 2.91724 8.08758C2.91724 6.60169 3.71325 5.22192 5.03994 4.47897C5.62369 4.16057 5.99516 3.6299 6.10129 3.04616V2.99309C6.4197 1.40106 7.74639 0.180498 9.33841 0.0212949C10.8774 -0.137908 12.3102 0.605042 13.0531 1.93173C13.1062 2.03787 13.2124 2.144 13.3716 2.144C14.9636 2.51547 16.0249 3.89524 16.0249 5.48727C16.0249 6.07102 15.8657 6.70782 15.5473 7.2385C15.4412 7.45077 15.3881 7.76917 15.5473 8.03451C15.7065 8.40598 15.8127 8.83053 15.8127 9.20201C15.8127 9.94495 15.5473 10.6348 15.0697 11.1655C14.8574 11.3778 14.8044 11.6431 14.8044 11.9084V11.9615C14.8044 12.0146 14.8044 12.0677 14.8044 12.1207C14.8044 12.333 14.5921 12.4922 14.3798 12.4922C14.1676 12.4922 14.0084 12.2799 14.0084 12.0677C14.0084 12.0146 14.0084 11.9615 14.0084 11.9084V11.8554C14.0084 11.3778 14.1676 10.9532 14.486 10.5818C14.8575 10.1572 15.0697 9.67961 15.0697 9.14894C15.0697 8.83053 15.0167 8.56518 14.9105 8.24678C14.6982 7.76917 14.6982 7.18543 14.9636 6.76089C15.2289 6.33635 15.3351 5.91181 15.3351 5.4342C15.3351 4.16058 14.486 3.09923 13.2654 2.83389C12.894 2.72775 12.6286 2.51548 12.4694 2.19707C11.8857 1.13572 10.7182 0.551978 9.49762 0.658113C8.224 0.817316 7.16264 1.77253 6.95037 3.04616V3.09923C6.79117 3.94831 6.26049 4.63818 5.51755 5.06272C4.45619 5.64646 3.81938 6.81396 3.81938 8.03451C3.81938 8.51212 3.92552 8.93666 4.08472 9.41427C4.35006 9.99802 4.40313 10.741 4.19086 11.4308C4.13779 11.6431 4.08472 11.9084 4.08472 12.1738C4.08472 12.4391 4.13779 12.7575 4.19086 13.0229C4.24392 13.2351 4.13779 13.4474 3.92552 13.5005C3.87245 13.5005 3.81938 13.5005 3.81938 13.5005Z" fill="#1499A2"/>
<path d="M16.4108 17.1099C16.1985 17.1099 16.0393 16.9507 16.0393 16.7385V16.2078C16.0393 13.8197 14.4473 11.8562 12.4838 11.8562H12.2185C12.2185 11.9624 12.2715 12.0154 12.2715 12.1216C12.2715 12.8115 11.7408 13.4483 10.8918 13.7136C10.6795 13.7667 10.3611 13.8197 10.0427 13.8197H9.24667C8.92826 13.8197 8.66293 13.7667 8.39759 13.7136C7.54851 13.4483 7.01783 12.8115 7.01783 12.1216C7.01783 12.0154 7.01783 11.9624 7.0709 11.8562H6.80556C4.84206 11.8562 3.25002 13.8197 3.25002 16.2078V16.6323C3.25002 16.8446 3.09082 17.0038 2.87855 17.0038C2.66628 17.0038 2.50708 16.8446 2.50708 16.6323V16.2078C2.50708 13.3952 4.41752 11.1133 6.80556 11.1133H7.65464C7.81384 11.1133 7.91998 11.2194 7.97305 11.3256C8.02611 11.4317 8.02611 11.5909 7.91998 11.7501C7.81384 11.9093 7.76077 12.0154 7.76077 12.1746C7.76077 12.5461 8.07918 12.8645 8.60986 13.0237C8.76906 13.0768 8.98133 13.0768 9.1936 13.0768H9.98962C10.255 13.0768 10.4142 13.0768 10.5734 13.0237C11.104 12.8645 11.4224 12.493 11.4224 12.1746C11.4224 12.0154 11.3694 11.9093 11.2632 11.7501C11.1571 11.644 11.1571 11.4848 11.2102 11.3256C11.2632 11.2194 11.4224 11.1133 11.5286 11.1133H12.3777C14.7657 11.1133 16.6761 13.3952 16.6761 16.2078V16.7385C16.7823 16.9507 16.6231 17.1099 16.4108 17.1099Z" fill="#1499A2"/>
<path d="M9.66122 10.8991C7.80385 10.8991 6.26489 9.36013 6.26489 7.50276V6.81289C6.26489 6.60062 6.42409 6.44141 6.63636 6.44141C6.84863 6.44141 7.00784 6.60062 7.00784 6.81289V7.50276C7.00784 8.93558 8.17532 10.1561 9.66122 10.1561C9.87349 10.1561 10.0327 10.3153 10.0327 10.5276C10.0327 10.7399 9.87349 10.8991 9.66122 10.8991Z" fill="#1499A2"/>
<path d="M11.0916 8.24669C10.7202 8.24669 10.3487 8.14055 9.97723 7.92828C9.92416 7.92828 9.92416 7.87523 9.92416 7.87523H9.39348C9.39348 7.87523 9.34041 7.87521 9.34041 7.92828C8.8628 8.19362 8.33213 8.29976 7.80145 8.19362C7.00544 8.03442 6.36863 7.39761 6.20942 6.60159C6.10329 5.96478 6.20942 5.32797 6.63397 4.85037C7.00544 4.37276 7.58918 4.10742 8.226 4.10742C8.226 4.10742 8.22599 4.10742 8.27906 4.10742C8.49133 4.10742 10.1364 4.10742 11.1447 4.10742C11.7815 4.10742 12.3653 4.37276 12.7367 4.85037C13.1082 5.32797 13.2674 5.96478 13.1613 6.60159C13.0021 7.39761 12.3653 8.03442 11.5693 8.19362C11.357 8.24669 11.2508 8.24669 11.0916 8.24669ZM9.39348 7.13227H9.92416C10.0834 7.13227 10.2426 7.18534 10.4018 7.29148C10.614 7.39762 10.9324 7.55681 11.357 7.45068C11.8346 7.34454 12.2591 6.97307 12.3653 6.44239C12.4714 6.01785 12.3653 5.64638 12.0999 5.32797C11.8346 5.00957 11.4631 4.85037 11.0916 4.85037C10.8263 4.85037 8.5444 4.85037 8.17292 4.85037C7.80145 4.85037 7.42998 5.00957 7.16464 5.32797C6.8993 5.64638 6.79317 6.01785 6.8993 6.44239C7.00544 6.92 7.37691 7.34454 7.90759 7.45068C8.33213 7.55681 8.65053 7.39762 8.8628 7.29148C9.07508 7.18534 9.23428 7.13227 9.39348 7.13227Z" fill="#1499A2"/>
<path d="M17.6193 19.338C17.5132 19.338 17.354 19.3381 17.2479 19.285C12.2064 17.8522 6.84662 17.8522 1.75213 19.285C1.32758 19.3911 0.903037 19.338 0.584631 19.0727C0.266226 18.8074 0.0539551 18.4359 0.0539551 18.0113C0.0539551 17.4276 0.42543 16.8969 1.00917 16.7377C6.58127 15.0926 12.4187 15.0926 17.9908 16.7377C18.5215 16.8969 18.946 17.4276 18.946 18.0113C18.946 18.4359 18.7338 18.8074 18.4154 19.0727C18.15 19.285 17.8847 19.338 17.6193 19.338ZM9.49999 17.4807C12.1534 17.4807 14.8598 17.8521 17.4601 18.542C17.6193 18.5951 17.8316 18.542 17.9378 18.4359C18.097 18.3298 18.15 18.1706 18.15 18.0113C18.15 17.746 17.9908 17.5337 17.7785 17.4807C12.3656 15.8886 6.63435 15.8886 1.22145 17.4807C1.00918 17.5337 0.849969 17.746 0.849969 18.0113C0.849969 18.1706 0.95611 18.3298 1.06224 18.4359C1.22145 18.542 1.38065 18.5951 1.53985 18.542C4.14016 17.8521 6.84661 17.4807 9.49999 17.4807Z" fill="#1499A2"/>
<path d="M1.64613 22.9997C1.43386 22.9997 1.27466 22.8405 1.27466 22.6282V18.9135C1.27466 18.7012 1.43386 18.542 1.64613 18.542C1.8584 18.542 2.01761 18.7012 2.01761 18.9135V22.5751C2.01761 22.8405 1.8584 22.9997 1.64613 22.9997Z" fill="#1499A2"/>
<path d="M17.3532 22.9997C17.1409 22.9997 16.9817 22.8405 16.9817 22.6282V18.9135C16.9817 18.7012 17.1409 18.542 17.3532 18.542C17.5654 18.542 17.7246 18.7012 17.7246 18.9135V22.5751C17.7246 22.8405 17.5654 22.9997 17.3532 22.9997Z" fill="#1499A2"/>
</svg>
