<svg width="19" height="19" viewBox="0 0 19 19" fill="none" xmlns="http://www.w3.org/2000/svg">
<path d="M18.1878 18V17.6223C18.1878 17.2067 17.8478 16.8667 17.4322 16.8667H1.56563C1.15007 16.8667 0.810074 17.2067 0.810074 17.6223V18" stroke="#1499A2" stroke-width="0.9" stroke-linecap="round" stroke-linejoin="round"/>
<path d="M1.94487 16.8667V13.8444C1.94487 12.6733 4.17375 11.9556 6.10041 11.9556C8.02707 11.9556 10.2559 12.6733 10.2559 13.8444V16.8667" stroke="#1499A2" stroke-width="0.9" stroke-linecap="round" stroke-linejoin="round"/>
<path d="M6.47599 11.9546H5.72044C5.00266 11.9546 4.436 11.5768 4.09601 11.0101C3.9449 10.7079 3.83156 10.4057 3.83156 10.0657V7.79904C3.83156 6.74126 4.66267 5.91016 5.72044 5.91016H6.47599C7.53376 5.91016 8.36487 6.74126 8.36487 7.79904V10.0657C8.36487 10.4057 8.25153 10.7079 8.10042 11.0101C7.76043 11.5768 7.19377 11.9546 6.47599 11.9546Z" stroke="#1499A2" stroke-width="0.9" stroke-linecap="round" stroke-linejoin="round"/>
<path d="M8.17468 12.3335L6.09691 14.6002L4.01914 12.3335" stroke="#1499A2" stroke-width="0.9" stroke-linecap="round" stroke-linejoin="round"/>
<path d="M3.83156 7.8003C3.83156 7.8003 4.96489 7.30919 5.72044 7.8003C6.85377 8.55585 8.36487 8.17808 8.36487 8.17808" stroke="#1499A2" stroke-width="0.9" stroke-linecap="round" stroke-linejoin="round"/>
<path d="M9.84107 10.4444H18.1899V1H6.10109V4.02221" stroke="#1499A2" stroke-width="0.9" stroke-linecap="round" stroke-linejoin="round"/>
<path d="M9.87672 7.42214L11.7656 5.53326L13.2767 6.66659L16.2989 3.2666" stroke="#1499A2" stroke-width="0.9" stroke-linecap="round" stroke-linejoin="round"/>
</svg>
