<svg width="15" height="21" viewBox="0 0 15 21" fill="none" xmlns="http://www.w3.org/2000/svg">
<path d="M2.38719 7.2016C2.00235 7.2016 1.56253 7.03668 1.34263 6.70684C1.06774 6.377 0.957791 5.99218 1.01277 5.55239L1.61751 2.08907C1.78244 1.2095 2.49714 0.549805 3.43174 0.549805H4.91611C5.02607 0.549805 5.191 0.604775 5.24597 0.769695C5.30095 0.879642 5.30095 1.04457 5.191 1.15452C4.97109 1.37441 4.86114 1.64927 4.86114 1.92414V2.14403C4.86114 2.30895 4.69621 2.47388 4.53128 2.47388C4.25639 2.47388 4.03649 2.69378 4.03649 2.91367L3.81658 5.88224C3.7616 6.65187 3.15686 7.2016 2.38719 7.2016ZM3.37677 1.26447C2.827 1.26447 2.33221 1.64927 2.27723 2.19901L1.67249 5.66235C1.61751 5.88224 1.67249 6.10212 1.83742 6.26704C1.94737 6.43196 2.16728 6.54191 2.38719 6.54191C2.77202 6.54191 3.10188 6.26705 3.10188 5.88224L3.32179 2.91367C3.37676 2.41891 3.70662 2.03409 4.14644 1.86916C4.14644 1.64927 4.20142 1.42939 4.25639 1.26447H3.37677Z" fill="#1499A2"/>
<path d="M5.90571 4.83768C5.46589 4.83768 5.08105 4.45287 5.08105 4.01308C5.08105 3.57329 5.46589 3.18848 5.90571 3.18848C6.34552 3.18848 6.73036 3.57329 6.73036 4.01308C6.73036 4.45287 6.4005 4.83768 5.90571 4.83768ZM5.90571 3.84815C5.85073 3.84815 5.74077 3.90313 5.74077 4.01308C5.74077 4.06805 5.79575 4.17799 5.90571 4.17799C5.96068 4.17799 6.07063 4.12303 6.07063 4.01308C6.07063 3.90313 6.01566 3.84815 5.90571 3.84815Z" fill="#1499A2"/>
<path d="M6.67542 3.07887C6.56546 3.07887 6.51049 3.02389 6.45551 2.96892C6.34556 2.85897 6.12565 2.74903 5.96072 2.74903C5.79579 2.74903 5.63086 2.5841 5.63086 2.41918C5.63086 2.25426 5.79579 2.08936 5.96072 2.08936C6.34556 2.08936 6.67542 2.25427 6.9503 2.47416C7.06025 2.58411 7.06025 2.804 6.9503 2.96892C6.84035 3.02389 6.78537 3.07887 6.67542 3.07887Z" fill="#1499A2"/>
<path d="M9.0943 4.83768C8.65449 4.83768 8.26965 4.45287 8.26965 4.01308C8.26965 3.57329 8.65449 3.18848 9.0943 3.18848C9.53412 3.18848 9.91895 3.57329 9.91895 4.01308C9.91895 4.45287 9.53412 4.83768 9.0943 4.83768ZM9.0943 3.84815C9.03933 3.84815 8.92938 3.90313 8.92938 4.01308C8.92938 4.06805 8.98435 4.17799 9.0943 4.17799C9.20426 4.17799 9.25924 4.12303 9.25924 4.01308C9.20426 3.90313 9.14928 3.84815 9.0943 3.84815Z" fill="#1499A2"/>
<path d="M8.32471 3.07887C8.21476 3.07887 8.15978 3.02389 8.1048 2.96892C7.99485 2.85897 7.99485 2.63908 8.1048 2.47416C8.37969 2.19929 8.70955 2.08936 9.09438 2.08936C9.25931 2.08936 9.42425 2.25426 9.42425 2.41918C9.42425 2.5841 9.25931 2.74903 9.09438 2.74903C8.92945 2.74903 8.70955 2.804 8.5996 2.96892C8.48964 3.02389 8.43466 3.07887 8.32471 3.07887Z" fill="#1499A2"/>
<path d="M8.98436 9.07063H5.96064C4.91608 9.07063 4.09143 8.24603 4.09143 7.20153V1.8691C4.09143 0.824599 4.91608 0 5.96064 0H8.98436C10.0289 0 10.8536 0.824599 10.8536 1.8691V7.20153C10.8536 8.24603 10.0289 9.07063 8.98436 9.07063ZM6.01562 0.769625C5.35589 0.769625 4.86111 1.31936 4.86111 1.92407V7.25651C4.86111 7.91619 5.35589 8.41095 6.01562 8.41095H9.03933C9.69905 8.41095 10.1938 7.86122 10.1938 7.25651V1.92407C10.1938 1.26439 9.69905 0.769625 9.03933 0.769625H6.01562Z" fill="#1499A2"/>
<path d="M12.6124 7.2016C11.8977 7.2016 11.238 6.65187 11.238 5.88224L11.0181 2.91367C11.0181 2.63881 10.7982 2.47388 10.5233 2.47388C10.3583 2.47388 10.1934 2.30895 10.1934 2.14403V1.92414C10.1934 1.64927 10.0835 1.37441 9.86355 1.15452C9.7536 1.04457 9.7536 0.934616 9.80857 0.769695C9.86355 0.659748 9.9735 0.549805 10.1384 0.549805H11.6228C12.5024 0.549805 13.2721 1.2095 13.437 2.08907L14.0418 5.55239C14.0968 5.93721 13.9868 6.377 13.7119 6.70684C13.3821 7.03668 12.9972 7.2016 12.6124 7.2016ZM10.8531 1.86916C11.2929 2.03409 11.6228 2.41891 11.6778 2.91367L11.8977 5.88224C11.8977 6.26705 12.2275 6.54191 12.6124 6.54191C12.8323 6.54191 12.9972 6.43196 13.1622 6.26704C13.2721 6.10212 13.3821 5.88224 13.3271 5.66235L12.7223 2.19901C12.6124 1.64927 12.1726 1.26447 11.6228 1.26447H10.7432C10.7982 1.42939 10.8531 1.64927 10.8531 1.86916Z" fill="#1499A2"/>
<path d="M9.86408 21.0004H5.08111C4.97115 21.0004 4.91618 20.9455 4.8612 20.8905L2.88204 18.9114C2.27729 18.3067 1.89246 17.4272 1.89246 16.5476V15.0083C1.89246 14.4036 2.33227 13.8539 2.88204 13.689V11.9298C2.88204 10.3906 3.4318 8.90627 4.36641 7.69685L4.42138 7.64187C4.47636 7.5869 4.58631 7.58691 4.69627 7.58691C4.80622 7.58691 4.8612 7.69685 4.91617 7.75183C5.13608 8.13664 5.52092 8.35654 5.96073 8.35654H8.98445C9.42427 8.35654 9.8091 8.13664 10.029 7.75183C10.084 7.64188 10.139 7.58691 10.2489 7.58691C10.3589 7.58691 10.4688 7.5869 10.5238 7.64187L10.5788 7.69685C11.5134 8.90627 12.0631 10.3906 12.0631 11.9298V13.689C12.6129 13.8539 13.0527 14.3487 13.0527 15.0083V16.5476C13.0527 17.4272 12.6679 18.3067 12.0631 18.9114L10.084 20.8905C10.084 20.9455 9.97403 21.0004 9.86408 21.0004ZM5.24603 20.2858H9.75413L11.6233 18.4167C12.1181 17.9219 12.393 17.2622 12.393 16.5476V15.0083C12.393 14.6235 12.1181 14.3486 11.7333 14.3486C11.5684 14.3486 11.4034 14.1837 11.4034 14.0188V11.9298C11.4034 10.7204 11.0186 9.51097 10.3589 8.46648C10.029 8.85129 9.53422 9.01621 9.03943 9.01621H6.01571C5.52092 9.01621 5.02613 8.79632 4.69627 8.46648C3.98157 9.456 3.65171 10.6654 3.65171 11.9298V14.0188C3.65171 14.1837 3.48678 14.3486 3.32185 14.3486C2.93701 14.3486 2.66213 14.6235 2.66213 15.0083V16.5476C2.66213 17.2622 2.93702 17.9219 3.43181 18.4167L5.24603 20.2858Z" fill="#1499A2"/>
<path d="M7.50006 7.86137C6.78536 7.86137 6.2356 7.42158 6.2356 6.87184C6.2356 6.32211 6.78536 5.88232 7.50006 5.88232C8.21476 5.88232 8.76452 6.32211 8.76452 6.87184C8.76452 7.42158 8.21476 7.86137 7.50006 7.86137ZM7.50006 6.542C7.1702 6.542 6.95029 6.70692 6.95029 6.87184C6.95029 7.03676 7.1702 7.20168 7.50006 7.20168C7.82992 7.20168 8.04983 7.03676 8.04983 6.87184C8.04983 6.70692 7.82992 6.542 7.50006 6.542Z" fill="#1499A2"/>
<path d="M7.00522 20.9998H5.13601C4.97108 20.9998 4.80615 20.8349 4.80615 20.67V20.4501C4.80615 20.1752 4.91611 19.8454 5.08104 19.6255V15.8323C5.08104 15.2826 5.52085 14.8428 6.07061 14.8428C6.62038 14.8428 7.0602 15.2826 7.0602 15.8323V19.6255C7.22513 19.8454 7.33508 20.1202 7.33508 20.4501V20.67C7.33508 20.8349 7.17015 20.9998 7.00522 20.9998ZM5.46587 20.2851H6.62038C6.62038 20.1752 6.56541 20.0653 6.45545 19.9553C6.40048 19.9003 6.3455 19.7904 6.3455 19.6805V15.7773C6.3455 15.6124 6.18057 15.4475 6.01564 15.4475C5.85071 15.4475 5.68578 15.6124 5.68578 15.7773V19.6805C5.68578 19.7904 5.6308 19.8454 5.57583 19.9003C5.57583 20.0653 5.52085 20.1752 5.46587 20.2851Z" fill="#1499A2"/>
<path d="M9.86399 20.9998H7.99478C7.82985 20.9998 7.66492 20.8349 7.66492 20.67V20.4501C7.66492 20.1752 7.77487 19.8454 7.9398 19.6255V15.8323C7.9398 15.2826 8.37962 14.8428 8.92938 14.8428C9.47915 14.8428 9.91896 15.2826 9.91896 15.8323V19.6255C10.0839 19.8454 10.1938 20.1202 10.1938 20.4501V20.67C10.1938 20.8349 10.0839 20.9998 9.86399 20.9998ZM8.32464 20.2851H9.47915C9.47915 20.1752 9.42417 20.0653 9.31422 19.9553C9.25924 19.9003 9.20427 19.7904 9.20427 19.6805V15.7773C9.20427 15.6124 9.03934 15.4475 8.87441 15.4475C8.70948 15.4475 8.54454 15.6124 8.54454 15.7773V19.6805C8.54454 19.7904 8.48957 19.8454 8.43459 19.9003C8.43459 20.0653 8.37962 20.1752 8.32464 20.2851Z" fill="#1499A2"/>
<path d="M3.26687 16.2722C3.10194 16.2722 2.93701 16.1073 2.93701 15.9424V14.0183C2.93701 13.8534 3.10194 13.6885 3.26687 13.6885C3.4318 13.6885 3.59673 13.8534 3.59673 14.0183V15.9424C3.59673 16.1623 3.4318 16.2722 3.26687 16.2722Z" fill="#1499A2"/>
<path d="M11.7332 16.2722C11.5682 16.2722 11.4033 16.1073 11.4033 15.9424V14.0183C11.4033 13.8534 11.5682 13.6885 11.7332 13.6885C11.8981 13.6885 12.063 13.8534 12.063 14.0183V15.9424C12.063 16.1623 11.9531 16.2722 11.7332 16.2722Z" fill="#1499A2"/>
<path d="M14.2072 21.0005H0.792872C0.627942 21.0005 0.463013 20.8356 0.463013 20.6707C0.463013 20.5057 0.627942 20.3408 0.792872 20.3408H14.2072C14.3721 20.3408 14.537 20.5057 14.537 20.6707C14.537 20.8356 14.4271 21.0005 14.2072 21.0005Z" fill="#1499A2"/>
</svg>
