<svg width="21" height="23" viewBox="0 0 21 23" fill="none" xmlns="http://www.w3.org/2000/svg">
<path d="M16.4999 4.5H18.9999C19.5499 4.5 19.9999 4.94999 19.9999 5.49999V17.4998C19.9999 18.0498 19.5499 18.4998 18.9999 18.4998H2.00011C1.45012 18.4998 1.00012 18.0498 1.00012 17.4998V5.49999C1.00012 4.94999 1.45012 4.5 2.00011 4.5H4.50008" stroke="#1499A2" stroke-width="0.9" stroke-miterlimit="10" stroke-linecap="round" stroke-linejoin="round"/>
<path d="M19.9999 16.5H1.00012" stroke="#1499A2" stroke-width="0.9" stroke-miterlimit="10" stroke-linecap="round" stroke-linejoin="round"/>
<path d="M14.5 22H6.50012" stroke="#1499A2" stroke-width="0.9" stroke-miterlimit="10" stroke-linecap="round" stroke-linejoin="round"/>
<path d="M7.50012 22L8.75011 21.05C8.9001 20.95 9.0001 20.7 9.0001 20.45V19" stroke="#1499A2" stroke-width="0.9" stroke-miterlimit="10" stroke-linecap="round" stroke-linejoin="round"/>
<path d="M12.0001 19V20.45C12.0001 20.7 12.1001 20.95 12.2501 21.05L13.5001 22" stroke="#1499A2" stroke-width="0.9" stroke-miterlimit="10" stroke-linecap="round" stroke-linejoin="round"/>
<path d="M13.1512 13.7998C12.4512 14.4498 11.5513 14.8498 10.5513 14.8498C9.55128 14.8498 8.65129 14.4498 7.95129 13.7998" stroke="#1499A2" stroke-width="0.9" stroke-miterlimit="10" stroke-linecap="round" stroke-linejoin="round"/>
<path d="M12.4505 10.5502C12.0005 11.0502 11.3005 11.3502 10.6005 11.3502C9.85051 11.3502 9.15051 11.0002 8.65051 10.4502" stroke="#1499A2" stroke-width="0.9" stroke-miterlimit="10" stroke-linecap="round" stroke-linejoin="round"/>
<path d="M13.0001 11.999V12.999C13.0001 13.549 13.4501 13.999 14.0001 13.999H15.3001C16.5501 13.999 17.6001 15.049 17.6001 16.299" stroke="#1499A2" stroke-width="0.9" stroke-miterlimit="10" stroke-linecap="round" stroke-linejoin="round"/>
<path d="M3.40051 16.299C3.40051 15.049 4.4505 13.999 5.70049 13.999H6.95047C7.50046 13.999 7.95046 13.549 7.95046 12.999V11.999" stroke="#1499A2" stroke-width="0.9" stroke-miterlimit="10" stroke-linecap="round" stroke-linejoin="round"/>
<path d="M14 9V9.14999C14 11.05 12.7 12.8 10.9501 13.05C8.8501 13.3499 7.00012 11.55 7.00012 9.35V9" stroke="#1499A2" stroke-width="0.9" stroke-miterlimit="10" stroke-linecap="round" stroke-linejoin="round"/>
<path d="M14 7.50033V6.15034C14 4.10037 12.4501 2.40039 10.5001 2.40039C8.5501 2.40039 7.00012 4.10037 7.00012 6.15034V8.00033" stroke="#1499A2" stroke-width="0.9" stroke-miterlimit="10" stroke-linecap="round" stroke-linejoin="round"/>
<path d="M7.0001 9.49996H6.20011C5.80012 9.49996 5.50012 9.19997 5.50012 8.79997V6.85C5.50012 6.65 5.65013 6.5 5.85012 6.5H7.0001" stroke="#1499A2" stroke-width="0.9" stroke-miterlimit="10" stroke-linecap="round" stroke-linejoin="round"/>
<path d="M14.0001 9.49996H14.8501C15.2001 9.49996 15.5001 9.19997 15.5001 8.84998V6.85C15.5001 6.65 15.3501 6.5 15.1501 6.5H14.0001" stroke="#1499A2" stroke-width="0.9" stroke-miterlimit="10" stroke-linecap="round" stroke-linejoin="round"/>
<path d="M8.8009 5.7002C9.4009 6.75018 10.6009 7.50018 11.9009 7.50018H14.0008" stroke="#1499A2" stroke-width="0.9" stroke-miterlimit="10" stroke-linecap="round" stroke-linejoin="round"/>
<path d="M8.8009 2.84998C8.8009 1.8 9.65088 1 10.6509 1C11.7009 1 12.5009 1.85 12.5009 2.84998" stroke="#1499A2" stroke-width="0.9" stroke-miterlimit="10" stroke-linecap="round" stroke-linejoin="round"/>
</svg>
