<svg width="21" height="23" viewBox="0 0 21 23" fill="none" xmlns="http://www.w3.org/2000/svg">
<path d="M9.52331 15.4C9.17332 15.5 8.82333 15.55 8.42335 15.55C7.22338 15.55 5.82342 14.8 5.02344 14" stroke="#1499A2" stroke-width="0.9" stroke-miterlimit="10" stroke-linecap="round" stroke-linejoin="round"/>
<path d="M9.5245 20.9998V12.8C9.5245 12.35 9.87449 12 10.3245 12H19.6742C20.1242 12 20.4742 12.35 20.4742 12.8V21.9997H5.47461V19.4998H9.4745" stroke="#1499A2" stroke-width="0.9" stroke-miterlimit="10" stroke-linecap="round" stroke-linejoin="round"/>
<path d="M15.0254 17.4999C15.5776 17.4999 16.0253 17.0522 16.0253 16.5C16.0253 15.9477 15.5776 15.5 15.0254 15.5C14.4731 15.5 14.0254 15.9477 14.0254 16.5C14.0254 17.0522 14.4731 17.4999 15.0254 17.4999Z" stroke="#1499A2" stroke-width="0.9" stroke-miterlimit="10" stroke-linecap="round" stroke-linejoin="round"/>
<path d="M5.52525 21.9998H0.525391V17.4999C0.525391 15.5499 2.07535 14 4.02529 14H5.02527V13" stroke="#1499A2" stroke-width="0.9" stroke-miterlimit="10" stroke-linecap="round" stroke-linejoin="round"/>
<path d="M9.6245 10.8C9.12451 11.3 8.47453 11.65 7.72455 11.65C6.92458 11.65 6.2246 11.3 5.72461 10.75" stroke="#1499A2" stroke-width="0.9" stroke-miterlimit="10" stroke-linecap="round" stroke-linejoin="round"/>
<path d="M9.52523 12.9499C8.92524 13.2999 8.27526 13.4999 7.52528 13.4999C5.32534 13.4999 3.52539 11.6999 3.52539 9.49999C3.52539 9.34999 3.52539 9.15 3.57539 9" stroke="#1499A2" stroke-width="0.9" stroke-miterlimit="10" stroke-linecap="round" stroke-linejoin="round"/>
<path d="M11.525 9.5C11.525 10.45 11.175 11.3 10.625 11.9999" stroke="#1499A2" stroke-width="0.9" stroke-miterlimit="10" stroke-linecap="round" stroke-linejoin="round"/>
<path d="M3.52536 9.49992H3.27537C2.87538 9.49992 2.52539 9.14993 2.52539 8.74994V6.89998C2.52539 6.69999 2.67539 6.5 2.92538 6.5H3.52536" stroke="#1499A2" stroke-width="0.9" stroke-miterlimit="10" stroke-linecap="round" stroke-linejoin="round"/>
<path d="M11.5244 9.49977C12.3743 9.49977 13.0243 8.84978 13.0243 7.99981V6.14985C13.0243 3.29993 10.7244 1 7.82446 1H7.67447C4.82455 1 2.47461 3.34993 2.47461 6.19985V6.99983" stroke="#1499A2" stroke-width="0.9" stroke-miterlimit="10" stroke-linecap="round" stroke-linejoin="round"/>
<path d="M5.32617 3.79883C5.32617 5.84877 6.97613 7.49872 9.02607 7.49872H11.526" stroke="#1499A2" stroke-width="0.9" stroke-miterlimit="10" stroke-linecap="round" stroke-linejoin="round"/>
<path d="M3.77536 11.25C3.07538 11.45 2.52539 12.1 2.52539 12.85V13.9999" stroke="#1499A2" stroke-width="0.9" stroke-miterlimit="10" stroke-linecap="round" stroke-linejoin="round"/>
<path d="M4.02536 19.999H3.02539V17.499" stroke="#1499A2" stroke-width="0.9" stroke-miterlimit="10" stroke-linecap="round" stroke-linejoin="round"/>
</svg>
