<svg width="17" height="19" viewBox="0 0 17 19" fill="none" xmlns="http://www.w3.org/2000/svg">
<path d="M0.741318 18.0004V16.8918C0.741318 16.1527 2.0347 15.7832 3.32808 15.7832C4.62146 15.7832 5.91484 16.1527 5.91484 16.8918V18.0004" stroke="#1499A2" stroke-width="0.9" stroke-linecap="round" stroke-linejoin="round"/>
<path d="M4.80891 12.4207C4.80891 11.6447 4.14375 10.9795 3.33076 10.9795C2.51778 10.9795 1.85262 11.6077 1.85262 12.4207V12.9011C1.85262 13.6771 2.51778 14.3423 3.33076 14.3423C4.14375 14.3423 4.80891 13.7141 4.80891 12.9011V12.4207Z" stroke="#1499A2" stroke-width="0.9" stroke-linecap="round" stroke-linejoin="round"/>
<path d="M11.0852 18.0004V16.8918C11.0852 16.1527 12.3785 15.7832 13.6719 15.7832C14.9653 15.7832 16.2587 16.1527 16.2587 16.8918V18.0004" stroke="#1499A2" stroke-width="0.9" stroke-linecap="round" stroke-linejoin="round"/>
<path d="M15.1548 12.4207C15.1548 11.6447 14.4896 10.9795 13.6766 10.9795C12.8636 10.9795 12.1985 11.6077 12.1985 12.4207V12.9011C12.1985 13.6771 12.8636 14.3423 13.6766 14.3423C14.4896 14.3423 15.1548 13.7141 15.1548 12.9011V12.4207Z" stroke="#1499A2" stroke-width="0.9" stroke-linecap="round" stroke-linejoin="round"/>
<path d="M11.0883 6.54379C11.0883 8.02194 10.4601 8.65016 9.97971 9.13055C9.24063 9.86963 9.24063 10.6087 9.24063 10.6087H7.76248C7.76248 10.6087 7.76248 9.86963 7.02341 9.13055C6.54301 8.65016 5.91479 8.02194 5.91479 6.54379C5.91479 5.06564 7.02341 3.95703 8.50156 3.95703C9.97971 3.95703 11.0883 5.06564 11.0883 6.54379Z" stroke="#1499A2" stroke-width="0.9" stroke-linecap="round" stroke-linejoin="round"/>
<path d="M7.76266 6.54297L8.50174 6.91251V8.02112" stroke="#1499A2" stroke-width="0.9" stroke-linecap="round" stroke-linejoin="round"/>
<path d="M8.50096 2.47815V1" stroke="#1499A2" stroke-width="0.9" stroke-linecap="round" stroke-linejoin="round"/>
<path d="M10.7178 3.21643L11.8264 1.73828" stroke="#1499A2" stroke-width="0.9" stroke-linecap="round" stroke-linejoin="round"/>
<path d="M12.2002 4.69669L12.9393 4.32715" stroke="#1499A2" stroke-width="0.9" stroke-linecap="round" stroke-linejoin="round"/>
<path d="M12.5694 6.17188H13.678" stroke="#1499A2" stroke-width="0.9" stroke-linecap="round" stroke-linejoin="round"/>
<path d="M9.24004 6.54297L8.50096 6.91251" stroke="#1499A2" stroke-width="0.9" stroke-linecap="round" stroke-linejoin="round"/>
<path d="M6.28125 3.21643L5.17264 1.73828" stroke="#1499A2" stroke-width="0.9" stroke-linecap="round" stroke-linejoin="round"/>
<path d="M4.80823 4.69669L4.06915 4.32715" stroke="#1499A2" stroke-width="0.9" stroke-linecap="round" stroke-linejoin="round"/>
<path d="M4.43755 6.17188H3.32893" stroke="#1499A2" stroke-width="0.9" stroke-linecap="round" stroke-linejoin="round"/>
<path d="M9.24081 12.0859H7.76266" stroke="#1499A2" stroke-width="0.9" stroke-linecap="round" stroke-linejoin="round"/>
</svg>
