<svg width="23" height="24" viewBox="0 0 23 24" fill="none" xmlns="http://www.w3.org/2000/svg">
<path d="M13.3112 12.7222V10.5692C13.3112 9.61224 14.7466 9.13379 16.182 9.13379C17.6173 9.13379 19.0527 9.61224 19.0527 10.5692V12.7222" stroke="#1499A2" stroke-width="0.9" stroke-linecap="round" stroke-linejoin="round"/>
<path d="M18.0958 5.25806C18.0958 4.25331 17.2346 3.39209 16.182 3.39209C15.1294 3.39209 14.2681 4.20546 14.2681 5.25806V5.88006C14.2681 6.88481 15.1294 7.74604 16.182 7.74604C17.2346 7.74604 18.0958 6.93266 18.0958 5.88006V5.25806Z" stroke="#1499A2" stroke-width="0.9" stroke-linecap="round" stroke-linejoin="round"/>
<path d="M10.0574 6.02378C10.6315 3.15305 13.1195 1 16.1816 1C19.6265 1 22.4015 3.77504 22.4015 7.21992C22.4015 10.6648 19.6265 13.4398 16.1816 13.4398C14.6027 13.4398 13.1673 12.8657 12.0669 11.9088" stroke="#1499A2" stroke-width="0.9" stroke-linecap="round" stroke-linejoin="round"/>
<path d="M6.75632 20.9992C7.85676 19.7552 9.96197 17.2672 10.8232 16.2625C11.9715 14.9228 9.10076 12.387 9.10076 12.387L11.0146 10.1861C11.3973 9.70761 11.3973 9.03778 10.8232 8.55932C10.2969 8.08087 9.57921 8.17655 9.19644 8.60716L5.27312 13.2003L4.12481 11.2865C3.55066 10.3296 2.1153 10.8559 2.45022 11.9085C3.07221 14.0616 3.59852 15.8797 3.31145 16.2146C3.31145 16.2146 2.54591 17.0758 2.45022 17.2194" stroke="#1499A2" stroke-width="0.9" stroke-linecap="round" stroke-linejoin="round"/>
<path d="M2.06739 16.9218L0.598507 18.6245L5.67052 22.9999L7.1394 21.2971L2.06739 16.9218Z" stroke="#1499A2" stroke-width="0.9" stroke-linecap="round" stroke-linejoin="round"/>
</svg>
