<svg width="21" height="21" viewBox="0 0 21 21" fill="none" xmlns="http://www.w3.org/2000/svg">
<path d="M8.83946 16.2301C9.72811 16.2301 10.4764 16.9784 10.4764 17.867C10.4764 18.0541 10.2894 18.2412 10.1023 18.2412C9.91519 18.2412 9.72811 18.0541 9.72811 17.867C9.72811 17.3993 9.35394 16.9784 8.83946 16.9784C8.37175 16.9784 7.95081 17.3526 7.95081 17.867C7.95081 18.0541 7.76373 18.2412 7.57664 18.2412C7.38956 18.2412 7.20247 18.0541 7.20247 17.867C7.20247 16.9316 7.95081 16.2301 8.83946 16.2301Z" fill="#1499A2"/>
<path d="M15.0143 6.5024C14.6869 6.5024 14.453 6.26854 14.453 5.94114C14.453 5.61374 14.6869 5.37988 15.0143 5.37988C15.3416 5.37988 15.5755 5.61374 15.5755 5.94114C15.6223 6.22177 15.3416 6.5024 15.0143 6.5024ZM15.0143 5.75404C14.9207 5.75404 14.8272 5.8476 14.8272 5.94114C14.8272 6.03468 14.9207 6.12823 15.0143 6.12823C15.1078 6.12823 15.2013 6.03468 15.2013 5.94114C15.2013 5.80083 15.1078 5.75404 15.0143 5.75404Z" fill="#1499A2"/>
<path d="M15.0145 3.55486C14.8274 3.55486 14.6403 3.36776 14.6403 3.18067V2.24526C14.6403 2.05817 14.8274 1.87109 15.0145 1.87109C15.2015 1.87109 15.3886 2.05817 15.3886 2.24526V3.18067C15.3886 3.36776 15.2483 3.55486 15.0145 3.55486Z" fill="#1499A2"/>
<path d="M18.7099 6.26788H17.7744C17.5874 6.26788 17.4003 6.08081 17.4003 5.89372C17.4003 5.70664 17.5874 5.51953 17.7744 5.51953H18.7099C18.8969 5.51953 19.084 5.70664 19.084 5.89372C19.084 6.12758 18.8969 6.26788 18.7099 6.26788Z" fill="#1499A2"/>
<path d="M15.0147 9.96206C14.8276 9.96206 14.6405 9.77498 14.6405 9.5879V8.65248C14.6405 8.4654 14.8276 8.27832 15.0147 8.27832C15.2018 8.27832 15.3888 8.4654 15.3888 8.65248V9.5879C15.3888 9.77498 15.2485 9.96206 15.0147 9.96206Z" fill="#1499A2"/>
<path d="M6.27834 13.0578C6.09126 13.0578 5.90417 12.8707 5.90417 12.6836V11.7482C5.90417 11.5611 6.09126 11.374 6.27834 11.374C6.46543 11.374 6.65251 11.5611 6.65251 11.7482V12.6836C6.65251 12.8707 6.5122 13.0578 6.27834 13.0578Z" fill="#1499A2"/>
<path d="M11.5283 13.0578C11.3413 13.0578 11.1542 12.8707 11.1542 12.6836V11.7482C11.1542 11.5611 11.3413 11.374 11.5283 11.374C11.7154 11.374 11.9025 11.5611 11.9025 11.7482V12.6836C11.9025 12.8707 11.7622 13.0578 11.5283 13.0578Z" fill="#1499A2"/>
<path d="M12.2995 6.26788H11.3641C11.177 6.26788 10.9899 6.08081 10.9899 5.89372C10.9899 5.70664 11.177 5.51953 11.3641 5.51953H12.2995C12.4866 5.51953 12.6737 5.70664 12.6737 5.89372C12.6737 6.12758 12.4866 6.26788 12.2995 6.26788Z" fill="#1499A2"/>
<path d="M15.1533 6.12761C15.0597 6.12761 14.9662 6.08083 14.8727 6.03406C14.7323 5.89375 14.7323 5.65987 14.8727 5.51956L16.5096 3.88258C16.65 3.74227 16.8838 3.74227 17.0241 3.88258C17.1644 4.02289 17.1644 4.25676 17.0241 4.39708L15.3871 6.03406C15.3404 6.1276 15.2468 6.12761 15.1533 6.12761Z" fill="#1499A2"/>
<path d="M15.0147 7.57603C14.8276 7.57603 14.6405 7.38895 14.6405 7.20187V6.12614C14.6405 5.93906 14.8276 5.75195 15.0147 5.75195C15.2018 5.75195 15.3888 5.93906 15.3888 6.12614V7.20187C15.3888 7.38895 15.2485 7.57603 15.0147 7.57603Z" fill="#1499A2"/>
<path d="M3.27335 13.47C3.1798 13.47 3.08626 13.4233 3.03949 13.3765C1.54282 12.1137 0.654175 10.2429 0.654175 8.2317C0.654175 5.09805 2.85241 2.33855 5.93929 1.63698C7.15533 0.608022 8.69878 0 10.289 0C11.4115 0 12.534 0.28062 13.563 0.841871C13.7033 0.935413 13.75 1.07575 13.75 1.21606C13.75 1.35637 13.6565 1.49666 13.5162 1.54344C11.6921 2.19823 10.4761 3.92878 10.4761 5.89316C10.4761 7.06243 10.897 8.13815 11.6921 8.98003C11.7857 9.07357 11.8324 9.26065 11.7389 9.35419C11.6921 9.4945 11.5518 9.58804 11.4115 9.58804C10.8035 9.63481 10.1954 9.63481 9.58742 9.58804C7.24888 9.4945 5.23772 9.6816 3.64751 10.1025V13.0491C3.64751 13.1894 3.55397 13.3297 3.41366 13.3765C3.36689 13.47 3.32012 13.47 3.27335 13.47ZM10.289 0.795112C8.83909 0.795112 7.43596 1.3096 6.36023 2.29179C6.31346 2.33856 6.26669 2.38533 6.17314 2.38533C3.41366 2.94659 1.40251 5.42545 1.40251 8.2317C1.40251 9.6816 1.96376 11.0847 2.89918 12.2072V9.86869C2.89918 9.6816 2.99272 9.54127 3.1798 9.4945C4.86356 8.98001 7.06179 8.79294 9.63419 8.88648C9.96159 8.88648 10.3358 8.88648 10.6632 8.88648C10.0551 7.99783 9.72773 6.96889 9.72773 5.89316C9.72773 3.92878 10.8035 2.15148 12.534 1.21606C11.7857 0.935436 11.0373 0.795112 10.289 0.795112Z" fill="#1499A2"/>
<path d="M8.83823 21.0001C5.56426 21.0001 2.89832 18.3342 2.89832 15.0602V9.86866C2.89832 9.68158 2.99186 9.54124 3.17894 9.49447C4.86269 8.97999 7.06093 8.79291 9.63333 8.88645C10.2414 8.88645 10.8026 8.88645 11.4106 8.88645C11.5042 8.88645 11.6445 8.93322 11.6913 9.02676C12.4396 9.82187 13.4218 10.3364 14.4975 10.4767C14.6846 10.5234 14.8249 10.6638 14.8249 10.8508V15.0602C14.7781 18.3342 12.1122 21.0001 8.83823 21.0001ZM3.64665 10.1493V15.0602C3.64665 17.9133 5.9852 20.2518 8.83823 20.2518C11.6913 20.2518 14.0298 17.9133 14.0298 15.0602V11.1315C12.9541 10.9444 11.9719 10.3831 11.2235 9.63481C10.6623 9.63481 10.1478 9.63481 9.58656 9.63481C7.20124 9.54127 5.23686 9.72834 3.64665 10.1493Z" fill="#1499A2"/>
<path d="M15.0134 11.2702C12.0668 11.2702 9.68152 8.88491 9.68152 5.93834C9.68152 2.99177 12.0668 0.606445 15.0134 0.606445C17.96 0.606445 20.3453 2.99177 20.3453 5.93834C20.3921 8.83814 17.96 11.2702 15.0134 11.2702ZM15.0134 1.30801C12.4878 1.30801 10.4299 3.36595 10.4299 5.89158C10.4299 8.41721 12.4878 10.4751 15.0134 10.4751C17.539 10.4751 19.597 8.41721 19.597 5.89158C19.6437 3.36595 17.5858 1.30801 15.0134 1.30801Z" fill="#1499A2"/>
</svg>
