<svg width="23" height="23" viewBox="0 0 23 23" fill="none" xmlns="http://www.w3.org/2000/svg">
<path d="M4.26401 21.9931V15.7466L6.00274 14.1367C6.8399 13.364 7.87026 12.9775 9.02941 12.9775H13.2796C14.1168 12.9775 14.7607 13.6215 14.7607 14.4587C14.7607 15.2959 14.1168 15.9398 13.2796 15.9398H10.2529C9.41577 15.9398 8.77181 16.5838 8.77181 17.421C8.77181 17.8073 8.96501 18.1937 9.22259 18.4513C9.48018 18.7089 9.86655 18.9021 10.2529 18.9021H13.5372C15.2115 18.9021 16.1131 18.9665 17.1434 17.6141L18.9465 15.1671C18.9465 15.1027 19.011 15.1027 19.011 15.1027C19.5905 14.4587 20.6209 14.3943 21.2649 14.9739C21.5869 15.2959 21.78 15.6822 21.78 16.133C21.78 16.455 21.6512 16.8414 21.458 17.099L19.5905 19.4817C18.4314 20.9628 16.5639 21.8644 14.6964 21.8644H4.26401V21.9931Z" stroke="#1499A2" stroke-width="0.9" stroke-miterlimit="10" stroke-linecap="round" stroke-linejoin="round"/>
<path d="M19.0755 15.1666C19.0111 15.1022 19.0111 15.1022 18.9467 15.0378C18.2383 14.3938 17.1436 14.5226 16.6284 15.231L15.4693 16.7765C14.4389 18.1289 12.829 18.9016 11.1546 18.9016" stroke="#1499A2" stroke-width="0.9" stroke-miterlimit="10" stroke-linecap="round" stroke-linejoin="round"/>
<path d="M1.21976 22H4.24643L4.24643 13.4996H1.21976L1.21976 22Z" stroke="#1499A2" stroke-width="0.9" stroke-miterlimit="10" stroke-linecap="round" stroke-linejoin="round"/>
<path d="M11.219 10.724C13.8864 10.724 16.0488 8.56165 16.0488 5.89424C16.0488 3.22682 13.8864 1.06445 11.219 1.06445C8.55156 1.06445 6.38919 3.22682 6.38919 5.89424C6.38919 8.56165 8.55156 10.724 11.219 10.724Z" stroke="#1499A2" stroke-width="0.9" stroke-miterlimit="10" stroke-linecap="round" stroke-linejoin="round"/>
<mask id="mask0_886_8958" style="mask-type:luminance" maskUnits="userSpaceOnUse" x="6" y="1" width="11" height="10">
<path d="M11.2226 10.7884C13.9256 10.7884 16.1168 8.59715 16.1168 5.89417C16.1168 3.19118 13.9256 1 11.2226 1C8.51965 1 6.32846 3.19118 6.32846 5.89417C6.32846 8.59715 8.51965 10.7884 11.2226 10.7884Z" fill="white"/>
</mask>
<g mask="url(#mask0_886_8958)">
<path d="M15.6625 11.0473V13.3012H6.71128V11.0473C6.71128 9.37302 7.67726 7.89191 9.0296 7.11914C9.60917 7.56992 10.3819 7.89191 11.2191 7.89191C12.0562 7.89191 12.7646 7.63432 13.4086 7.11914C13.795 7.31233 14.1169 7.56993 14.4389 7.89191C15.2117 8.72908 15.6625 9.8238 15.6625 11.0473Z" stroke="#1499A2" stroke-width="0.9" stroke-miterlimit="10" stroke-linecap="round" stroke-linejoin="round"/>
<path d="M11.219 6.60448C12.4638 6.60448 13.4729 5.59537 13.4729 4.35058C13.4729 3.10578 12.4638 2.09668 11.219 2.09668C9.97418 2.09668 8.96507 3.10578 8.96507 4.35058C8.96507 5.59537 9.97418 6.60448 11.219 6.60448Z" stroke="#1499A2" stroke-width="0.9" stroke-miterlimit="10" stroke-linecap="round" stroke-linejoin="round"/>
<path d="M8.96518 11.0479V13.3018H13.473V11.0479" stroke="#1499A2" stroke-width="0.9" stroke-miterlimit="10" stroke-linecap="round" stroke-linejoin="round"/>
<path d="M12.3792 7.69727L11.9284 9.56476H10.5117L10.0609 7.69727" stroke="#1499A2" stroke-width="0.9" stroke-miterlimit="10" stroke-linecap="round" stroke-linejoin="round"/>
<path d="M11.9284 9.56445H10.5117L10.0609 13.2995H12.3792L11.9284 9.56445Z" stroke="#1499A2" stroke-width="0.9" stroke-miterlimit="10" stroke-linecap="round" stroke-linejoin="round"/>
</g>
</svg>
