<svg width="21" height="23" viewBox="0 0 21 23" fill="none" xmlns="http://www.w3.org/2000/svg">
<path d="M13.0417 13.2133C12.3785 13.8765 11.4943 14.3186 10.4996 14.3186C9.44956 14.3186 8.45482 13.8212 7.84692 13.1028" stroke="#1499A2" stroke-width="0.9" stroke-miterlimit="10" stroke-linecap="round" stroke-linejoin="round"/>
<path d="M4.97369 12.0527C5.25001 14.8712 7.62633 17.0264 10.5 17.0264C13.3737 17.0264 15.75 14.8712 16.0263 12.0527" stroke="#1499A2" stroke-width="0.9" stroke-miterlimit="10" stroke-linecap="round" stroke-linejoin="round"/>
<path d="M7.18419 15.9209V17.0814C7.18419 17.9656 6.46577 18.6841 5.58156 18.6841H3.8684C2.04472 18.6841 0.552612 20.1762 0.552612 21.9998" stroke="#1499A2" stroke-width="0.9" stroke-miterlimit="10" stroke-linecap="round" stroke-linejoin="round"/>
<path d="M20.4474 21.9998C20.4474 20.1762 18.9553 18.6841 17.1316 18.6841H15.4184C14.5342 18.6841 13.8158 17.9656 13.8158 17.0814V15.9209" stroke="#1499A2" stroke-width="0.9" stroke-miterlimit="10" stroke-linecap="round" stroke-linejoin="round"/>
<path d="M6.9079 18.4077L10.7211 21.5025L14.5342 18.4077" stroke="#1499A2" stroke-width="0.9" stroke-miterlimit="10" stroke-linecap="round" stroke-linejoin="round"/>
<path d="M9.50503 20.5635L7.79187 21.8898" stroke="#1499A2" stroke-width="0.9" stroke-miterlimit="10" stroke-linecap="round" stroke-linejoin="round"/>
<path d="M11.9366 20.5635L13.5945 21.9451" stroke="#1499A2" stroke-width="0.9" stroke-miterlimit="10" stroke-linecap="round" stroke-linejoin="round"/>
<path d="M4.97369 8.18433H3.7579C3.48159 8.18433 3.3158 8.40537 3.3158 8.62642V11.5554C3.3158 12.108 3.7579 12.6054 4.36579 12.6054H4.97369" stroke="#1499A2" stroke-width="0.9" stroke-miterlimit="10" stroke-linecap="round" stroke-linejoin="round"/>
<path d="M16.0263 8.18433H17.2421C17.5184 8.18433 17.6842 8.40537 17.6842 8.62642V11.5554C17.6842 12.108 17.2421 12.6054 16.6342 12.6054H16.0263" stroke="#1499A2" stroke-width="0.9" stroke-miterlimit="10" stroke-linecap="round" stroke-linejoin="round"/>
<path d="M4.97369 9.28947V4.31579C4.97369 2.49211 6.4658 1 8.28948 1H12.7105C14.5342 1 16.0263 2.49211 16.0263 4.31579V9.28947" stroke="#1499A2" stroke-width="0.9" stroke-miterlimit="10" stroke-linecap="round" stroke-linejoin="round"/>
<path d="M7.73681 11.5001C8.65244 11.5001 9.39471 10.7579 9.39471 9.84222C9.39471 8.92659 8.65244 8.18433 7.73681 8.18433C6.82118 8.18433 6.07892 8.92659 6.07892 9.84222C6.07892 10.7579 6.82118 11.5001 7.73681 11.5001Z" stroke="#1499A2" stroke-width="0.9" stroke-miterlimit="10" stroke-linecap="round" stroke-linejoin="round"/>
<path d="M13.2631 11.5001C14.1787 11.5001 14.921 10.7579 14.921 9.84222C14.921 8.92659 14.1787 8.18433 13.2631 8.18433C12.3475 8.18433 11.6052 8.92659 11.6052 9.84222C11.6052 10.7579 12.3475 11.5001 13.2631 11.5001Z" stroke="#1499A2" stroke-width="0.9" stroke-miterlimit="10" stroke-linecap="round" stroke-linejoin="round"/>
<path d="M16.0263 6.5262H9.39473C8.17894 6.5262 7.1842 5.53146 7.1842 4.31567" stroke="#1499A2" stroke-width="0.9" stroke-miterlimit="10" stroke-linecap="round" stroke-linejoin="round"/>
</svg>
