<svg width="19" height="17" viewBox="0 0 19 17" fill="none" xmlns="http://www.w3.org/2000/svg">
<path d="M18.4174 17.0001H4.92222C4.05714 17.0001 3.32183 16.3513 3.23533 15.4863L2.54327 8.17639C2.54327 8.08988 2.54327 8.00338 2.62978 7.91687C2.67303 7.83036 2.80278 7.78711 2.88929 7.78711H4.57619C4.74921 7.78711 4.92222 7.91687 4.92222 8.13314C4.92222 8.30615 4.79246 8.47917 4.57619 8.47917H3.23533L3.92739 15.3997C3.97064 15.9188 4.40317 16.3081 4.92222 16.3081H18.4174C18.5904 16.3081 18.7634 16.4378 18.7634 16.6541C18.7634 16.8704 18.5904 17.0001 18.4174 17.0001Z" fill="#1499A2"/>
<path d="M4.53676 8.47811H2.15781C1.55226 8.47811 1.07647 8.00232 1.07647 7.39677C1.07647 6.79122 1.55226 6.31543 2.15781 6.31543H11.3276C11.5006 6.31543 11.6736 6.44519 11.6736 6.66146C11.6736 6.83447 11.5438 7.00749 11.3276 7.00749H2.15781C1.94154 7.00749 1.72527 7.1805 1.72527 7.44002C1.72527 7.69955 1.89829 7.87256 2.15781 7.87256H4.53676C4.70977 7.87256 4.88278 8.00232 4.88278 8.21859C4.88278 8.34835 4.75303 8.47811 4.53676 8.47811Z" fill="#1499A2"/>
<path d="M11.3699 8.47917H10.1588C9.98582 8.47917 9.8128 8.34941 9.8128 8.13314C9.8128 7.96012 9.94257 7.78711 10.1588 7.78711H11.3699C11.5429 7.78711 11.716 7.91687 11.716 8.13314C11.6727 8.34941 11.5429 8.47917 11.3699 8.47917Z" fill="#1499A2"/>
<path d="M3.10758 10.9849C3.06432 10.9849 3.02107 10.9849 2.97782 10.9417C1.63696 10.4226 0.642129 9.29802 0.252847 7.95715C0.209593 7.74089 0.252841 7.52462 0.382602 7.3516C0.512363 7.17859 0.728626 7.04883 0.944894 7.04883H1.42069C1.5937 7.04883 1.76672 7.17859 1.76672 7.39486C1.76672 7.61113 1.63695 7.74089 1.42069 7.74089H0.944894H0.901651V7.78414C1.20443 8.95199 2.06949 9.90357 3.19409 10.3361C3.3671 10.4226 3.45361 10.5956 3.3671 10.7686C3.3671 10.8984 3.23734 10.9849 3.10758 10.9849Z" fill="#1499A2"/>
<path d="M7.95518 15.3991H3.58656C3.41354 15.3991 3.24053 15.2693 3.24053 15.0531C3.24053 14.8368 3.37029 14.707 3.58656 14.707H7.95518C8.12819 14.707 8.3012 14.8368 8.3012 15.0531C8.3012 15.2693 8.12819 15.3991 7.95518 15.3991Z" fill="#1499A2"/>
<path d="M13.2291 16.9995C13.0561 16.9995 12.8831 16.8698 12.8831 16.6535V15.7884C12.8831 15.6154 13.0129 15.4424 13.2291 15.4424C13.4022 15.4424 13.5752 15.5721 13.5752 15.7884V16.6535C13.5319 16.8265 13.4022 16.9995 13.2291 16.9995Z" fill="#1499A2"/>
<path d="M17.4689 16.9989H8.94788C8.86138 16.9989 8.77488 16.9557 8.68837 16.8692C8.64512 16.7827 8.60186 16.6962 8.60186 16.6097L8.99114 13.7549C9.03439 13.5819 9.16416 13.4521 9.33718 13.4521H17.0363C17.2093 13.4521 17.3391 13.5819 17.3823 13.7549L17.7716 16.6097C17.7716 16.6962 17.7716 16.7827 17.6851 16.8692C17.6419 16.9557 17.5554 16.9989 17.4689 16.9989ZM9.33718 16.3069H17.0796L16.7768 14.1442H9.63994L9.33718 16.3069Z" fill="#1499A2"/>
<path d="M10.1999 16.9995C9.98358 16.9563 9.85381 16.8265 9.85381 16.6102L9.98358 15.7452C10.0268 15.5721 10.1566 15.4424 10.3729 15.4424C10.5459 15.4856 10.6756 15.6154 10.6756 15.8317L10.5459 16.6967C10.5459 16.8698 10.3729 16.9995 10.1999 16.9995Z" fill="#1499A2"/>
<path d="M11.6256 16.9981C11.4094 16.9981 11.2796 16.8251 11.2796 16.6521L11.3228 15.787C11.3228 15.614 11.4959 15.441 11.6689 15.4843C11.8419 15.4843 12.0149 15.6573 11.9716 15.8303L11.9284 16.6954C11.9284 16.8251 11.7986 16.9981 11.6256 16.9981Z" fill="#1499A2"/>
<path d="M16.2109 16.998C16.0379 16.998 15.9082 16.8683 15.8649 16.6953L15.7351 15.8302C15.6919 15.6572 15.8217 15.4842 16.0379 15.4409C16.2109 15.3977 16.384 15.5274 16.4272 15.7437L16.557 16.6088C16.557 16.7818 16.4272 16.9548 16.2109 16.998Z" fill="#1499A2"/>
<path d="M14.829 16.9983C14.656 16.9983 14.5263 16.8685 14.483 16.6955L14.4398 15.8304C14.4398 15.6574 14.5695 15.4844 14.7425 15.4844C14.9155 15.4844 15.0886 15.6141 15.0886 15.7872L15.1318 16.6522C15.1318 16.8252 15.002 16.955 14.829 16.9983Z" fill="#1499A2"/>
<path d="M17.0363 14.1434H9.38042C8.94788 14.1434 8.60186 13.7974 8.60186 13.3648V13.0188C8.60186 12.5863 8.94788 12.2402 9.38042 12.2402H17.0363C17.4689 12.2402 17.8149 12.5863 17.8149 13.0188V13.3648C17.8149 13.7974 17.4689 14.1434 17.0363 14.1434ZM9.38042 12.9323C9.33717 12.9323 9.29392 12.9755 9.29392 13.0188V13.3648C9.29392 13.4081 9.33717 13.4513 9.38042 13.4513H17.0363C17.0796 13.4513 17.1228 13.4081 17.1228 13.3648V13.0188C17.1228 12.9755 17.0796 12.9323 17.0363 12.9323H9.38042Z" fill="#1499A2"/>
<path d="M13.8351 11.8082H12.5375C12.3645 11.8082 12.1915 11.6785 12.1915 11.4622V0.821819C12.1915 0.346029 12.5808 0 13.0133 0H13.3161C13.7919 0 14.1379 0.389283 14.1379 0.821819V11.4622C14.1811 11.6352 14.0514 11.8082 13.8351 11.8082ZM12.8835 11.1162H13.4891V0.821819C13.4891 0.735312 13.4026 0.648804 13.3161 0.648804H13.0133C12.9268 0.648804 12.8403 0.735312 12.8403 0.821819V11.1162H12.8835Z" fill="#1499A2"/>
<path d="M5.48483 11.7647C4.79277 11.7647 4.27374 11.2024 4.27374 10.5536V6.61751C4.27374 6.4445 4.40349 6.27148 4.61976 6.27148C4.79277 6.27148 4.9658 6.40124 4.9658 6.61751V10.5536C4.9658 10.8564 5.22531 11.1159 5.52809 11.1159C5.83086 11.1159 6.09039 10.8564 6.09039 10.5536V10.2508C6.09039 10.0778 6.22015 9.90479 6.43642 9.90479C6.60943 9.90479 6.78244 10.0346 6.78244 10.2508V10.5536C6.73919 11.2457 6.17689 11.7647 5.48483 11.7647Z" fill="#1499A2"/>
<path d="M7.30514 12.8458C6.61309 12.8458 6.09405 12.2835 6.09405 11.6346V9.21245C6.09405 9.03943 6.2238 8.86642 6.44007 8.86642C6.61309 8.86642 6.7861 8.99618 6.7861 9.21245V11.6346C6.7861 11.9374 7.04562 12.1969 7.3484 12.1969C7.65118 12.1969 7.91069 11.9374 7.91069 11.6346V7.69857C7.91069 7.52555 8.04046 7.35254 8.25673 7.35254C8.42974 7.35254 8.60275 7.4823 8.60275 7.69857V11.6346C8.51625 12.2835 7.95395 12.8458 7.30514 12.8458Z" fill="#1499A2"/>
<path d="M9.03143 10.7706C8.38263 10.7706 7.86358 10.2515 7.86358 9.60271C7.86358 9.42969 7.99335 9.25668 8.20962 9.25668C8.38263 9.25668 8.55564 9.38644 8.55564 9.60271C8.55564 9.90548 8.77191 10.1217 9.07469 10.1217C9.37746 10.1217 9.59372 9.90548 9.59372 9.60271V6.66146C9.59372 6.48844 9.72349 6.31543 9.93976 6.31543C10.1128 6.31543 10.2858 6.44519 10.2858 6.66146V9.60271C10.1993 10.2083 9.68024 10.7706 9.03143 10.7706Z" fill="#1499A2"/>
<path d="M14.6561 12.9319H11.8014C11.6284 12.9319 11.4554 12.8021 11.4554 12.5859V11.8505C11.4554 11.4613 11.8014 11.1152 12.1907 11.1152H14.2669C14.6561 11.1152 15.0022 11.4613 15.0022 11.8505V12.5859C14.9589 12.7589 14.8292 12.9319 14.6561 12.9319ZM12.1042 12.2398H14.3101V11.8505C14.3101 11.8073 14.2669 11.8073 14.2669 11.8073H12.1907C12.1474 11.8073 12.1474 11.8505 12.1474 11.8505V12.2398H12.1042Z" fill="#1499A2"/>
<path d="M10.0303 16.9987H2.85024C2.67723 16.9987 2.5042 16.8689 2.5042 16.6527C2.5042 16.4364 2.63397 16.3066 2.85024 16.3066H10.0303C10.2033 16.3066 10.3764 16.4364 10.3764 16.6527C10.3764 16.8689 10.2033 16.9987 10.0303 16.9987Z" fill="#1499A2"/>
</svg>
