<svg width="21" height="23" viewBox="0 0 21 23" fill="none" xmlns="http://www.w3.org/2000/svg">
<path d="M4.97717 11.5C4.97717 14.5395 7.46403 17.0264 10.5035 17.0264C13.543 17.0264 16.0299 14.5395 16.0299 11.5" stroke="#1499A2" stroke-width="0.9" stroke-miterlimit="10" stroke-linecap="round" stroke-linejoin="round"/>
<path d="M6.7428 18.4087C7.73754 19.2929 9.00861 19.7903 10.3902 19.7903C11.7718 19.7903 13.0428 19.2929 14.0376 18.4087" stroke="#1499A2" stroke-width="0.9" stroke-miterlimit="10" stroke-linecap="round" stroke-linejoin="round"/>
<path d="M13.045 13.2121C12.3818 13.8753 11.4976 14.3174 10.5029 14.3174C9.45287 14.3174 8.45812 13.82 7.85022 13.1016" stroke="#1499A2" stroke-width="0.9" stroke-miterlimit="10" stroke-linecap="round" stroke-linejoin="round"/>
<path d="M7.18485 15.9209V17.0814C7.18485 17.9657 6.46643 18.6841 5.58221 18.6841H3.86904C2.04534 18.6841 0.553223 20.1762 0.553223 21.9999" stroke="#1499A2" stroke-width="0.9" stroke-miterlimit="10" stroke-linecap="round" stroke-linejoin="round"/>
<path d="M20.4468 21.9999C20.4468 20.1762 18.9547 18.6841 17.131 18.6841H15.4178C14.5336 18.6841 13.8152 17.9657 13.8152 17.0814V15.9209" stroke="#1499A2" stroke-width="0.9" stroke-miterlimit="10" stroke-linecap="round" stroke-linejoin="round"/>
<path d="M4.42041 18.6841V21.9999" stroke="#1499A2" stroke-width="0.9" stroke-miterlimit="10" stroke-linecap="round" stroke-linejoin="round"/>
<path d="M16.5828 18.6841V21.9999" stroke="#1499A2" stroke-width="0.9" stroke-miterlimit="10" stroke-linecap="round" stroke-linejoin="round"/>
<path d="M4.97285 8.18359H3.75705C3.48073 8.18359 3.31494 8.40464 3.31494 8.6257V11.5547C3.31494 12.1073 3.75705 12.6047 4.36495 12.6047H4.97285" stroke="#1499A2" stroke-width="0.9" stroke-miterlimit="10" stroke-linecap="round" stroke-linejoin="round"/>
<path d="M16.0242 8.18359H17.24C17.5163 8.18359 17.6821 8.40464 17.6821 8.6257V11.5547C17.6821 12.1073 17.24 12.6047 16.6321 12.6047H16.0242" stroke="#1499A2" stroke-width="0.9" stroke-miterlimit="10" stroke-linecap="round" stroke-linejoin="round"/>
<path d="M4.97693 9.28954V6.52636C4.97693 3.48686 7.46379 1 10.5033 1C13.5428 1 16.0296 3.48686 16.0296 6.52636V9.28954" stroke="#1499A2" stroke-width="0.9" stroke-miterlimit="10" stroke-linecap="round" stroke-linejoin="round"/>
<path d="M4.97693 9.28954V6.52636C4.97693 3.48686 7.46379 1 10.5033 1C13.5428 1 16.0296 3.48686 16.0296 6.52636V9.28954H11.6086C9.17696 9.28954 7.18747 7.30005 7.18747 4.86845" stroke="#1499A2" stroke-width="0.9" stroke-miterlimit="10" stroke-linecap="round" stroke-linejoin="round"/>
</svg>
