<svg width="19" height="18" viewBox="0 0 19 18" fill="none" xmlns="http://www.w3.org/2000/svg">
<path d="M2.74433 11.311H2.03322C1.67766 11.311 1.3221 10.991 1.3221 10.5999V8.11098C1.3221 6.33319 2.03322 5.62207 3.81101 5.62207H5.23324C6.40659 5.62207 7.11771 5.94207 7.47327 6.68875" stroke="#1499A2" stroke-width="0.9" stroke-linecap="round" stroke-linejoin="round"/>
<path d="M4.52327 11.666V16.2883" stroke="#1499A2" stroke-width="0.9" stroke-linecap="round" stroke-linejoin="round"/>
<path d="M6.29956 12.7334V16.289C6.29956 16.6801 5.97956 17.0001 5.58844 17.0001H5.23288C4.84177 17.0001 4.52177 16.6801 4.52177 16.289C4.52177 16.6801 4.20176 17.0001 3.81065 17.0001H3.45509C3.06398 17.0001 2.74397 16.6801 2.74397 16.289V8.82227" stroke="#1499A2" stroke-width="0.9" stroke-linecap="round" stroke-linejoin="round"/>
<path d="M11.5272 6.7243C11.8472 5.97763 12.5939 5.62207 13.7672 5.62207H15.1894C16.9672 5.62207 17.6783 6.33319 17.6783 8.11098V10.5999C17.6783 10.991 17.3228 11.311 16.9672 11.311H16.2561" stroke="#1499A2" stroke-width="0.9" stroke-linecap="round" stroke-linejoin="round"/>
<path d="M14.4764 11.666V16.2883" stroke="#1499A2" stroke-width="0.9" stroke-linecap="round" stroke-linejoin="round"/>
<path d="M16.2566 8.82227V16.289C16.2566 16.6801 15.9366 17.0001 15.5455 17.0001H15.1899C14.7988 17.0001 14.4788 16.6801 14.4788 16.289C14.4788 16.6801 14.1588 17.0001 13.7677 17.0001H13.4121C13.021 17.0001 12.701 16.6801 12.701 16.289V12.7334" stroke="#1499A2" stroke-width="0.9" stroke-linecap="round" stroke-linejoin="round"/>
<path d="M8.43174 10.6006L7.36507 11.6673L8.43174 12.7339" stroke="#1499A2" stroke-width="0.9" stroke-linecap="round" stroke-linejoin="round"/>
<path d="M7.36507 11.666H10.9207" stroke="#1499A2" stroke-width="0.9" stroke-linecap="round" stroke-linejoin="round"/>
<path d="M11.6329 8.82227L10.5662 9.88894" stroke="#1499A2" stroke-width="0.9" stroke-linecap="round" stroke-linejoin="round"/>
<path d="M10.5662 7.75488L11.6329 8.82156" stroke="#1499A2" stroke-width="0.9" stroke-linecap="round" stroke-linejoin="round"/>
<path d="M11.6335 8.82227H8.07796" stroke="#1499A2" stroke-width="0.9" stroke-linecap="round" stroke-linejoin="round"/>
<path d="M5.94391 2.38668C5.94391 1.64 5.30391 1 4.52168 1C3.73945 1 3.09944 1.60445 3.09944 2.38668V2.84891C3.09944 3.59558 3.73945 4.23559 4.52168 4.23559C5.30391 4.23559 5.94391 3.63114 5.94391 2.84891V2.38668Z" stroke="#1499A2" stroke-width="0.9" stroke-linecap="round" stroke-linejoin="round"/>
<path d="M15.9009 2.38668C15.9009 1.64 15.2609 1 14.4787 1C13.6965 1 13.0565 1.60445 13.0565 2.38668V2.84891C13.0565 3.59558 13.6965 4.23559 14.4787 4.23559C15.2609 4.23559 15.9009 3.63114 15.9009 2.84891V2.38668Z" stroke="#1499A2" stroke-width="0.9" stroke-linecap="round" stroke-linejoin="round"/>
</svg>
