<svg width="11" height="20" viewBox="0 0 11 20" fill="none" xmlns="http://www.w3.org/2000/svg">
<path d="M10.7456 1.61551V1.59935C10.6325 0.500802 7.98305 0 5.49517 0C3.02344 0 0.357848 0.500802 0.244762 1.59935V1.61551C0.228607 1.7609 -0.272209 5.10501 0.923268 8.36833L1.11716 8.8853C1.73105 10.5654 2.18337 11.7609 2.18337 13.4895V17.6737V18.8045C2.18337 18.8207 2.18337 18.8368 2.18337 18.853C2.18337 19.9677 5.17208 20 5.51134 20C5.85059 20 8.83926 19.9677 8.83926 18.853C8.83926 18.8368 8.83926 18.8207 8.83926 18.8045V17.6737V13.4895C8.83926 11.7609 9.27547 10.5654 9.90551 8.8853L10.0994 8.36833C11.2625 5.10501 10.7779 1.7609 10.7456 1.61551ZM0.842493 2.50404C0.842493 2.50404 0.858679 2.52019 0.874834 2.52019C0.9233 2.5525 0.971733 2.56866 1.00404 2.60097C1.0202 2.61712 1.03636 2.61712 1.05252 2.63328C1.11714 2.66559 1.16562 2.6979 1.23024 2.71405C1.29486 2.74636 1.35947 2.76252 1.42409 2.79483C1.44025 2.79483 1.45639 2.81098 1.4887 2.81098C1.55332 2.82714 1.6018 2.85945 1.66642 2.8756C1.68257 2.8756 1.69872 2.89176 1.69872 2.89176C1.7795 2.90791 1.84414 2.94022 1.92492 2.95638C1.94107 2.95638 1.97336 2.97253 1.98952 2.97253C2.05414 2.98869 2.11875 3.00484 2.18337 3.02099C2.19953 3.02099 2.23186 3.03716 2.24802 3.03716C2.32879 3.05331 2.40954 3.06946 2.50647 3.08562C2.52263 3.08562 2.53879 3.08561 2.55495 3.10177C2.63572 3.11792 2.70033 3.13409 2.7811 3.15024C2.81341 3.15024 2.82957 3.16639 2.86188 3.16639C2.95881 3.18255 3.03962 3.1987 3.13655 3.21486C3.23348 3.23101 3.3304 3.24717 3.41118 3.24717C3.44349 3.24717 3.45964 3.24717 3.49195 3.26332C3.57273 3.27948 3.6535 3.27948 3.73428 3.29563C3.75043 3.29563 3.7666 3.29563 3.78275 3.29563C3.87968 3.31179 3.97658 3.31179 4.07351 3.32794C4.10582 3.32794 4.12198 3.32794 4.15429 3.32794C4.23506 3.32794 4.31584 3.3441 4.39661 3.3441C4.42892 3.3441 4.44508 3.3441 4.47739 3.3441C4.57432 3.3441 4.67127 3.36026 4.78436 3.36026C4.80051 3.36026 4.81668 3.36026 4.83283 3.36026C4.91361 3.36026 4.99436 3.36026 5.09129 3.36026C5.1236 3.36026 5.13975 3.36026 5.17206 3.36026C5.26899 3.36026 5.36595 3.36026 5.47903 3.36026C5.59212 3.36026 5.67288 3.36026 5.78597 3.36026C5.81828 3.36026 5.83443 3.36026 5.86674 3.36026C5.94752 3.36026 6.02831 3.36026 6.12524 3.36026C6.14139 3.36026 6.15752 3.36026 6.17367 3.36026C6.2706 3.36026 6.36756 3.3441 6.48064 3.3441C6.51295 3.3441 6.52911 3.3441 6.56142 3.3441C6.64219 3.3441 6.72297 3.32794 6.80374 3.32794C6.83605 3.32794 6.85221 3.32794 6.88452 3.32794C6.98145 3.32794 7.07839 3.31179 7.17532 3.29563C7.19147 3.29563 7.2076 3.29563 7.22375 3.29563C7.30453 3.27948 7.3853 3.27948 7.46608 3.26332C7.49839 3.26332 7.51454 3.26332 7.54685 3.24717C7.64379 3.23101 7.74075 3.23101 7.82152 3.21486C7.91845 3.1987 8.01538 3.18255 8.09615 3.16639C8.12846 3.16639 8.14462 3.15024 8.17693 3.15024C8.2577 3.13409 8.32231 3.11792 8.40308 3.10177C8.41924 3.10177 8.4354 3.10177 8.45156 3.08562C8.53233 3.06946 8.62928 3.05331 8.71005 3.03716C8.72621 3.03716 8.7585 3.02099 8.77466 3.02099C8.83928 3.00484 8.90389 2.98869 8.96851 2.97253C8.98467 2.97253 9.017 2.95638 9.03315 2.95638C9.11393 2.94022 9.19469 2.90791 9.25931 2.89176C9.27547 2.89176 9.29161 2.8756 9.29161 2.8756C9.35623 2.85945 9.42087 2.82714 9.46933 2.81098C9.48549 2.81098 9.50163 2.79483 9.53394 2.79483C9.59856 2.76252 9.66317 2.74636 9.72779 2.71405C9.79241 2.68174 9.85705 2.66559 9.90551 2.63328C9.92167 2.61712 9.93783 2.61712 9.95399 2.60097C10.0025 2.56866 10.0509 2.5525 10.0994 2.52019C10.0994 2.52019 10.1155 2.50404 10.1317 2.50404C10.1801 3.1664 10.1963 4.18417 10.0509 5.33118C9.01697 4.97577 6.8845 4.65267 5.04282 5.33118C2.97496 6.10662 1.32716 5.28271 0.858663 5.02423C0.794043 3.9903 0.810182 3.10178 0.842493 2.50404ZM5.49517 0.678506C8.51617 0.678506 10.0671 1.37318 10.0671 1.66397C10.0671 1.95476 8.51617 2.64943 5.49517 2.64943C2.47416 2.64943 0.923268 1.95476 0.923268 1.66397C0.939423 1.37318 2.49032 0.678506 5.49517 0.678506ZM5.49517 19.3215C3.97659 19.3215 3.0073 19.0145 2.84575 18.8207V18.1583C3.39502 18.336 4.34816 18.5784 5.49517 18.5784C6.62602 18.5784 7.59535 18.336 8.14462 18.1583V18.8207C7.98307 18.9984 7.01374 19.3215 5.49517 19.3215ZM9.43703 8.12601L9.24314 8.64297C8.59694 10.3877 8.14462 11.6478 8.14462 13.4895V17.4313C7.72459 17.5767 6.72295 17.8837 5.49517 17.8837C4.28354 17.8837 3.26578 17.5767 2.84575 17.4313V13.4895C2.84575 11.6478 2.37724 10.3877 1.74719 8.64297L1.55334 8.12601C1.2787 7.35056 1.08483 6.57512 0.971741 5.83198C1.4887 6.05816 2.29648 6.33279 3.2981 6.33279C3.89584 6.33279 4.57432 6.23586 5.28514 5.96122C7.12682 5.28271 9.1947 5.73505 9.95399 6.00969C9.85706 6.70435 9.69551 7.43134 9.43703 8.12601Z" fill="#1499A2"/>
<path d="M4.65386 15.7674H4.75081C4.94467 15.7674 5.09004 15.622 5.09004 15.4281C5.09004 15.2343 4.94467 15.0889 4.75081 15.0889H4.65386C4.46 15.0889 4.31459 15.2343 4.31459 15.4281C4.31459 15.6058 4.46 15.7674 4.65386 15.7674Z" fill="#1499A2"/>
<path d="M4.47804 11.2273H4.57499C4.76885 11.2273 4.91426 11.0819 4.91426 10.8881C4.91426 10.6942 4.76885 10.5488 4.57499 10.5488H4.47804C4.28418 10.5488 4.13881 10.6942 4.13881 10.8881C4.13881 11.0658 4.30034 11.2273 4.47804 11.2273Z" fill="#1499A2"/>
<path d="M6.65578 8.78887H6.75272C6.94658 8.78887 7.092 8.64348 7.092 8.44961C7.092 8.25575 6.94658 8.11035 6.75272 8.11035H6.65578C6.46192 8.11035 6.31654 8.25575 6.31654 8.44961C6.31654 8.64348 6.46192 8.78887 6.65578 8.78887Z" fill="#1499A2"/>
<path d="M3.99171 8.22246H4.08866C4.28252 8.22246 4.42793 8.07707 4.42793 7.88321C4.42793 7.68935 4.28252 7.54395 4.08866 7.54395H3.99171C3.79785 7.54395 3.65248 7.68935 3.65248 7.88321C3.65248 8.06091 3.79785 8.22246 3.99171 8.22246Z" fill="#1499A2"/>
<path d="M6.39976 13.1824H6.49667C6.69053 13.1824 6.83594 13.037 6.83594 12.8432C6.83594 12.6493 6.69053 12.5039 6.49667 12.5039H6.39976C6.2059 12.5039 6.06049 12.6493 6.06049 12.8432C6.06049 13.037 6.2059 13.1824 6.39976 13.1824Z" fill="#1499A2"/>
</svg>
