<svg width="21" height="23" viewBox="0 0 21 23" fill="none" xmlns="http://www.w3.org/2000/svg">
<path d="M6.74164 18.408C7.73637 19.2922 9.00743 19.7895 10.389 19.7895C11.7706 19.7895 13.0416 19.2922 14.0364 18.408" stroke="#1499A2" stroke-width="0.9" stroke-miterlimit="10" stroke-linecap="round" stroke-linejoin="round"/>
<path d="M13.0417 13.2133C12.3785 13.8765 11.4943 14.3186 10.4996 14.3186C9.44956 14.3186 8.45482 13.8212 7.84692 13.1028" stroke="#1499A2" stroke-width="0.9" stroke-miterlimit="10" stroke-linecap="round" stroke-linejoin="round"/>
<path d="M4.97369 12.0527C5.25001 14.8712 7.62633 17.0264 10.5 17.0264C13.3737 17.0264 15.75 14.8712 16.0263 12.0527" stroke="#1499A2" stroke-width="0.9" stroke-miterlimit="10" stroke-linecap="round" stroke-linejoin="round"/>
<path d="M8.45527 10.9475H5.52633C5.19475 10.9475 4.97369 10.6712 4.97369 10.3949V8.73696C4.97369 8.40538 5.25001 8.18433 5.52633 8.18433H8.84211C9.17369 8.18433 9.39475 8.46064 9.39475 8.73696V10.008C9.39475 10.5054 8.95264 10.9475 8.45527 10.9475Z" stroke="#1499A2" stroke-width="0.9" stroke-miterlimit="10" stroke-linecap="round" stroke-linejoin="round"/>
<path d="M15.4736 10.9475H12.5447C11.9921 10.9475 11.6052 10.5054 11.6052 10.008V8.73696C11.6052 8.40538 11.8815 8.18433 12.1579 8.18433H15.4736C15.8052 8.18433 16.0263 8.46064 16.0263 8.73696V10.3949C16.0263 10.6712 15.75 10.9475 15.4736 10.9475Z" stroke="#1499A2" stroke-width="0.9" stroke-miterlimit="10" stroke-linecap="round" stroke-linejoin="round"/>
<path d="M9.39471 9.28955H11.6052" stroke="#1499A2" stroke-width="0.9" stroke-miterlimit="10" stroke-linecap="round" stroke-linejoin="round"/>
<path d="M11.6052 4.86841H14.3684" stroke="#1499A2" stroke-width="0.9" stroke-miterlimit="10" stroke-linecap="round" stroke-linejoin="round"/>
<path d="M6.07892 4.86841H8.84208" stroke="#1499A2" stroke-width="0.9" stroke-miterlimit="10" stroke-linecap="round" stroke-linejoin="round"/>
<path d="M7.18419 15.9211V17.0817C7.18419 17.9659 6.46577 18.6843 5.58156 18.6843H3.8684C2.04472 18.6843 0.552612 20.1764 0.552612 22.0001" stroke="#1499A2" stroke-width="0.9" stroke-miterlimit="10" stroke-linecap="round" stroke-linejoin="round"/>
<path d="M20.4474 22.0001C20.4474 20.1764 18.9553 18.6843 17.1316 18.6843H15.4184C14.5342 18.6843 13.8158 17.9659 13.8158 17.0817V15.9211" stroke="#1499A2" stroke-width="0.9" stroke-miterlimit="10" stroke-linecap="round" stroke-linejoin="round"/>
<path d="M6.07892 18.6843V22.0001" stroke="#1499A2" stroke-width="0.9" stroke-miterlimit="10" stroke-linecap="round" stroke-linejoin="round"/>
<path d="M14.921 18.6843V22.0001" stroke="#1499A2" stroke-width="0.9" stroke-miterlimit="10" stroke-linecap="round" stroke-linejoin="round"/>
<path d="M4.97369 8.18433H3.7579C3.48159 8.18433 3.3158 8.40538 3.3158 8.62643V11.5554C3.3158 12.108 3.7579 12.6054 4.36579 12.6054H4.97369" stroke="#1499A2" stroke-width="0.9" stroke-miterlimit="10" stroke-linecap="round" stroke-linejoin="round"/>
<path d="M16.0263 8.18433H17.2421C17.5184 8.18433 17.6842 8.40538 17.6842 8.62643V11.5554C17.6842 12.108 17.2421 12.6054 16.6342 12.6054H16.0263" stroke="#1499A2" stroke-width="0.9" stroke-miterlimit="10" stroke-linecap="round" stroke-linejoin="round"/>
<path d="M4.97369 9.28947V4.31579C4.97369 2.49211 6.4658 1 8.28948 1H12.7105C14.5342 1 16.0263 2.49211 16.0263 4.31579V9.28947" stroke="#1499A2" stroke-width="0.9" stroke-miterlimit="10" stroke-linecap="round" stroke-linejoin="round"/>
<path d="M10.2237 5.97361C10.9867 5.97361 11.6053 5.35505 11.6053 4.59203C11.6053 3.829 10.9867 3.21045 10.2237 3.21045C9.46066 3.21045 8.8421 3.829 8.8421 4.59203C8.8421 5.35505 9.46066 5.97361 10.2237 5.97361Z" stroke="#1499A2" stroke-width="0.9" stroke-miterlimit="10" stroke-linecap="round" stroke-linejoin="round"/>
</svg>
