<svg width="154" height="372" viewBox="0 0 154 372" fill="none" xmlns="http://www.w3.org/2000/svg">
<path d="M60 26.3482C61.6529 26.5754 63.3 22.3681 68.25 30C70.9299 29.9393 69.5488 26.1067 71.9625 25.0393C74.333 23.991 73.5862 24.2188 75.2625 21.9865C75.8105 21.2567 81.8625 22.7498 86.4 18.1707C86.8125 14.7363 88.445 19.8965 89.2875 20.4601C91.6097 22.0136 90.2717 23.3214 93 23.7366" stroke="#1499A2" stroke-linecap="round"/>
<mask id="mask0_109_61" style="mask-type:luminance" maskUnits="userSpaceOnUse" x="0" y="0" width="155" height="372">
<path fill-rule="evenodd" clip-rule="evenodd" d="M55.3037 18.3559C56.287 17.3593 57.703 16.8411 59.119 17.0404C59.5516 17.0802 59.945 17.2397 60.3383 17.3992C60.0236 15.2066 59.6303 10.702 61.6756 9.54597C62.9736 8.78855 63.8783 10.2237 63.8783 10.2237C63.8783 10.2237 68.1657 2.49005 72.4137 0.696175C77.527 -1.45647 80.0443 1.93196 79.0609 3.44679C79.0609 3.44679 89.2874 -0.180831 92.9454 7.55277C96.6966 15.4761 91.9174 19.1242 90.8341 19.8237C90.9528 20.218 91.0851 20.6637 91.2276 21.1528C91.7073 21.3505 92.2182 21.6088 92.7092 21.9444C92.9845 22.1437 93.0632 22.5424 92.8665 22.8214C92.6698 23.1004 92.2765 23.1802 92.0012 22.9809C91.8998 22.9124 91.797 22.8475 91.6935 22.7862C92.9117 27.1451 94.5031 33.5665 94.8605 38.4742C94.9841 38.7322 95.0811 39.0028 95.1476 39.2845C96.0523 43.1912 95.3049 49.6491 86.927 49.6491C86.7398 49.6491 86.537 49.6506 86.3244 49.6521C85.7998 49.6558 85.2157 49.66 84.6625 49.6439C84.7673 50.1566 84.8911 50.6393 85.0298 51.0934C85.1883 51.6022 85.3646 52.0764 85.5499 52.519C85.6758 52.8134 85.8072 53.0925 85.9434 53.3571C87.6514 55.0497 91.1171 56.0569 94.2038 56.9539C95.3553 57.2886 96.4541 57.6079 97.3892 57.9418C97.6786 58.0504 98.0761 58.236 98.5244 58.4453L98.5253 58.4458C99.7218 59.0045 101.279 59.732 102.109 59.616C106.79 58.8985 113.673 59.2573 119.298 65.6355C120.291 66.7485 124.854 73.6007 130.308 81.792L130.309 81.7926C137.162 92.0842 145.422 104.49 149.781 110.283C156.035 118.575 153.793 125.671 152.691 127.743C151.59 129.816 145.808 140.022 138.807 145.802C131.583 151.778 127.489 155.595 124.726 158.17L124.725 158.171C122.494 160.251 121.132 161.521 119.691 162.465C118.553 163.221 113.224 169.256 111.051 172.53C111.072 172.522 111.094 172.516 111.116 172.51C111.131 172.51 111.146 172.511 111.16 172.511C112.622 172.081 114.178 172.968 112.572 175.062C111.185 176.889 109.706 177.168 107.49 176.635C107.409 176.819 107.173 176.947 106.829 176.855C105.873 176.6 105.013 176.166 104.394 175.5C104.672 183.513 105.314 192.874 106.632 202.726C110.408 230.95 111.352 267.824 110.88 272.129C110.408 276.435 108.52 342.41 110.408 346.715C112.296 351.02 123.624 359.631 127.872 361.544C129.068 362.083 130.151 362.659 131.185 363.209C133.826 364.614 136.148 365.85 139.2 365.85C141.56 365.85 141.56 369.198 139.2 370.633C138.027 371.356 135.322 370.906 132.899 370.504C131.178 370.218 129.6 369.956 128.816 370.155C126.928 370.633 112.296 371.59 108.992 371.112C107.872 370.949 105.677 371.076 103.243 371.216C98.4946 371.489 92.8365 371.815 92.4725 370.155C91.7526 366.993 92.6392 364.326 93.6434 361.305C94.6143 358.384 95.6953 355.131 95.5406 350.781C95.1347 339.125 91.5612 325.36 88.4893 313.526C86.2032 304.719 84.1948 296.982 83.9767 291.982C83.2062 275.3 84.4 271.291 85.0042 269.261L85.005 269.259C85.0791 269.01 85.1444 268.791 85.196 268.582C85.668 266.668 77.8014 210.54 76.8574 211.975C76.3565 212.736 75.3239 226.328 74.324 239.49C73.4396 251.132 72.5805 262.44 72.1374 264.236C71.7828 265.674 71.5559 269.023 71.2607 273.381C70.7699 280.625 70.0904 290.655 68.3221 299.317C67.4101 303.784 66.4899 307.719 65.6141 311.463C63.7705 319.345 62.1233 326.387 61.1634 335.792C59.7474 349.665 58.8821 362.74 60.2981 363.697C60.4572 363.804 60.6461 363.924 60.8541 364.056C62.4972 365.096 65.331 366.89 64.0741 369.437C62.8942 371.829 60.3768 371.71 58.3708 370.474C57.1122 371.43 55.2241 371.391 54.0048 370.394C52.9821 371.51 51.2121 371.789 49.8748 371.112C49.8323 371.09 49.7897 371.067 49.7469 371.044C49.5526 370.939 49.353 370.833 49.1275 370.833C48.9308 370.833 48.7342 370.952 48.5768 371.072C47.5252 371.637 46.5322 371.348 45.5401 371.06C44.7141 370.819 43.8887 370.579 43.0309 370.833C42.868 370.888 42.7052 370.962 42.5294 371.041L42.4193 371.091C42.3751 371.111 42.3299 371.131 42.2836 371.151C40.0416 372.028 38.5076 370.155 38.3109 368.122C38.1204 366.105 38.9667 364.285 39.8257 362.437C40.5628 360.851 41.3092 359.245 41.4182 357.478C41.451 357.013 41.4496 356.555 41.4482 356.098C41.4463 355.458 41.4444 354.82 41.5362 354.169C41.7196 352.914 42.2507 351.768 42.7864 350.611C43.1696 349.784 43.5552 348.951 43.8176 348.07C44.4063 345.982 44.5217 343.673 44.6343 341.418C44.6873 340.358 44.7396 339.311 44.8402 338.304C45.1942 334.835 45.2729 331.327 45.1549 327.819C44.922 321.631 44.5955 316.607 44.3 312.059L44.2999 312.057C43.6969 302.779 43.2228 295.483 43.9355 284.328C44.4744 275.755 45.3064 271.115 45.8911 267.855C46.2879 265.641 46.5709 264.064 46.5709 262.323C46.5709 261.247 46.6592 258.438 46.7838 254.477L46.7839 254.474L46.7841 254.468V254.467L46.7842 254.465C47.1584 242.569 47.8589 220.304 47.4755 203.444C47.2679 194.399 47.9349 184.391 48.7007 175.243C47.1891 175.37 45.4403 175.269 44.7609 175.062C44.4519 174.952 44.4369 174.773 44.58 174.636C42.028 174.046 40.467 173.183 40.12 172.192C39.6874 170.956 40.592 169.88 42.244 170.039C43.896 170.199 43.9354 169.322 41.536 168.006C41.4494 167.961 41.3633 167.918 41.2771 167.874C39.5225 166.984 37.7787 166.099 33.3548 156.485C30.4158 153.856 25.0252 150.616 19.7185 147.427C13.5197 143.701 7.43541 140.045 5.507 137.51C-2.67687 126.813 -0.215655 121.714 3.1716 114.697C3.88684 113.215 4.64337 111.648 5.34968 109.924C5.51425 109.524 5.7548 108.923 6.06267 108.155L6.06811 108.141L6.06944 108.138C9.44914 99.6979 20.8783 71.1569 28.9102 64.8782C35.5633 59.7006 41.9696 58.9783 44.7082 58.935C47.9731 57.0947 52.9365 56.0046 55.5794 55.4242C56.3793 55.2485 56.9667 55.1195 57.2301 55.0305C58.1704 54.7129 60.0993 54.0261 62.0608 52.7484C63.7822 51.2593 65.3855 49.6173 66.1584 47.855C66.9491 46.0518 67.0774 43.4095 66.9595 40.9473C66.8599 40.9161 66.7637 40.8801 66.671 40.8391C65.8083 40.4572 64.8432 39.3786 63.875 37.9181C62.0995 37.1834 60.3776 35.5399 60.6978 31.8954C59.1549 28.3867 57.9808 24.8028 57.7817 23.0598C57.4277 19.8707 59.591 18.8741 60.299 18.6748C59.9056 18.3958 59.4337 18.2363 58.9618 18.1566C57.9391 17.9971 56.877 18.3958 56.1297 19.1532C55.6183 19.7113 54.7924 18.914 55.3037 18.3559ZM126.669 126.987C125.644 124.037 121.14 116.631 116.805 109.833C116.699 110.16 116.587 110.53 116.466 110.96C116.098 112.264 115.39 113.253 114.633 114.312C113.446 115.973 112.136 117.804 111.824 121.284C111.74 122.191 110.808 125.39 109.641 129.396C107.521 136.67 104.626 146.604 104.626 150.305C104.626 150.305 104.516 151.81 104.41 154.508C104.603 154.317 104.807 154.151 105.02 154.014C105.216 153.894 105.413 153.775 105.61 153.695C105.728 153.615 105.806 153.575 105.806 153.575H105.846C108.992 151.941 111.392 151.662 111.392 151.662C111.392 151.662 121.664 137.307 126.089 129.53C125.641 129.556 125.202 129.118 125.512 128.66L125.513 128.659L125.514 128.658L125.515 128.657L125.549 128.608L125.566 128.583C125.933 128.051 126.301 127.518 126.669 126.987ZM39.8316 106.232C42.1218 111.829 44.1081 117.072 44.5255 119.61C44.8357 121.496 45.4983 123.83 46.2776 126.575C47.8701 132.183 49.9496 139.507 50.5042 148.232C50.5401 148.825 50.5564 149.487 50.5557 150.213C49.2885 149.571 47.8438 148.921 46.2561 148.274C42.9915 146.958 28.4776 129.059 27.1402 126.747C25.9876 124.811 34.1276 112.255 39.8316 106.232Z" fill="#1499A2"/>
</mask>
<g mask="url(#mask0_109_61)">
<path d="M59.1189 17.0404L59.0271 18.0362L59.0033 18.034L58.9795 18.0306L59.1189 17.0404ZM55.3036 18.3559L54.5663 17.6803L54.5788 17.6667L54.5918 17.6535L55.3036 18.3559ZM60.3382 17.3992L61.3281 17.2571L61.5753 18.9797L59.9625 18.3259L60.3382 17.3992ZM61.6755 9.54599L62.1796 10.4098L62.1676 10.4165L61.6755 9.54599ZM63.8782 10.2237L64.7528 10.7085L63.9334 12.1865L63.0322 10.7569L63.8782 10.2237ZM72.4135 0.696192L72.0244 -0.225036L72.0255 -0.225464L72.4135 0.696192ZM79.0607 3.44681L79.3951 4.38926L76.6171 5.37468L78.222 2.90232L79.0607 3.44681ZM90.8339 19.8237L89.8764 20.1119L89.6595 19.3916L90.2915 18.9836L90.8339 19.8237ZM91.2274 21.1528L90.8464 22.0774L90.4017 21.8942L90.2672 21.4323L91.2274 21.1528ZM92.709 21.9444L93.2733 21.1188L93.2844 21.1264L93.2954 21.1344L92.709 21.9444ZM92.001 22.9809L92.5608 22.1523L92.5743 22.1613L92.5874 22.1708L92.001 22.9809ZM91.6933 22.7862L90.7302 23.0554L90.0597 20.656L92.2031 21.9259L91.6933 22.7862ZM94.8603 38.4742L93.9585 38.9063L93.8767 38.7356L93.8629 38.5468L94.8603 38.4742ZM95.1474 39.2845L96.1206 39.0546L96.1216 39.0589L95.1474 39.2845ZM86.3242 49.6521L86.3313 50.6521H86.3242V49.6521ZM86.3242 49.6521L86.3168 48.6521H86.3239L86.3242 49.6521ZM84.6623 49.6439L83.6826 49.8441L83.4299 48.6076L84.6914 48.6443L84.6623 49.6439ZM85.0296 51.0934L84.0749 51.3908L84.0733 51.3857L85.0296 51.0934ZM85.5498 52.519L86.4722 52.1329L87.0986 53.6293L85.4803 53.5166L85.5498 52.519ZM85.5498 52.519L84.6298 52.9123L83.9861 51.4078L85.6186 51.5214L85.5498 52.519ZM85.9432 53.3571L85.2393 54.0674L85.1267 53.9557L85.0541 53.8148L85.9432 53.3571ZM97.389 57.9418L97.7252 57L97.7329 57.0027L97.7404 57.0055L97.389 57.9418ZM98.5242 58.4453L98.1067 59.354L98.1011 59.3514L98.5242 58.4453ZM98.5242 58.4453L98.9421 57.5369L98.9512 57.541L98.9602 57.5454L98.5242 58.4453ZM98.5242 58.4453L98.9602 57.5454L98.9722 57.5513L98.5242 58.4453ZM98.5251 58.4458L98.1011 59.3514L98.0898 59.3462L98.0779 59.3402L98.5251 58.4458ZM102.109 59.616L102.261 60.6046L102.247 60.6064L102.109 59.616ZM119.298 65.6355L118.552 66.3015L118.547 66.2969L119.298 65.6355ZM130.308 81.792L129.479 82.3504L129.476 82.3463L130.308 81.792ZM130.309 81.7926L129.485 82.3592L129.479 82.3504L130.309 81.7926ZM130.309 81.7926L131.133 81.2264L131.138 81.2334L130.309 81.7926ZM130.309 81.7926L131.138 81.2334L131.141 81.2389L130.309 81.7926ZM124.726 158.17L125.408 158.902L125.402 158.907L124.726 158.17ZM124.725 158.171L123.996 157.487L124.022 157.459L124.05 157.434L124.725 158.171ZM124.725 158.171L125.455 158.855L125.432 158.879L125.408 158.902L124.725 158.171ZM119.691 162.465L119.138 161.632L119.143 161.628L119.691 162.465ZM111.051 172.53L111.381 173.474L108.576 174.452L110.218 171.977L111.051 172.53ZM111.116 172.51L110.871 171.541L110.992 171.51H111.116V172.51ZM111.16 172.511L111.443 173.471L111.281 173.518L111.113 173.51L111.16 172.511ZM112.572 175.062L111.775 174.457L111.778 174.453L112.572 175.062ZM107.49 176.635L106.575 176.232L106.911 175.467L107.724 175.662L107.49 176.635ZM104.394 175.5L103.395 175.535L103.302 172.855L105.127 174.819L104.394 175.5ZM139.2 370.633L138.676 369.782L138.681 369.779L139.2 370.633ZM92.4724 370.155L93.4475 369.933L93.4492 369.941L92.4724 370.155ZM83.9765 291.982L84.9754 291.936L84.9755 291.938L83.9765 291.982ZM85.0041 269.261L84.0457 268.976L84.0503 268.96L84.0555 268.945L85.0041 269.261ZM85.0041 269.261L85.9637 269.543L85.9586 269.56L85.953 269.577L85.0041 269.261ZM85.0048 269.259L84.0454 268.977L84.0463 268.974L85.0048 269.259ZM74.3238 239.49L73.3253 239.435L73.3259 239.425L73.3266 239.415L74.3238 239.49ZM74.3238 239.49L75.3222 239.546L75.3216 239.556L75.3209 239.567L74.3238 239.49ZM65.6139 311.463L64.6349 311.259L64.6374 311.247L64.6402 311.235L65.6139 311.463ZM65.6139 311.463L66.5928 311.667L66.5887 311.687L66.5839 311.706L65.6139 311.463ZM65.6139 311.463L64.64 311.236L64.6417 311.229L64.6436 311.221L65.6139 311.463ZM58.3706 370.474L57.7655 369.678L58.3114 369.263L58.8951 369.622L58.3706 370.474ZM54.0047 370.394L53.2674 369.718L53.9058 369.022L54.6375 369.62L54.0047 370.394ZM49.8747 371.112L50.3265 370.219L50.3267 370.22L49.8747 371.112ZM49.7468 371.044L49.2737 371.925L49.2621 371.919L49.2507 371.912L49.7468 371.044ZM49.7468 371.044L50.2197 370.163L50.2312 370.169L50.2425 370.176L49.7468 371.044ZM48.5767 371.072L49.1819 371.868L49.1194 371.915L49.0504 371.952L48.5767 371.072ZM43.0308 370.833L42.7106 369.885L42.7288 369.879L42.7473 369.874L43.0308 370.833ZM42.5293 371.041L42.943 371.952H42.9417L42.5293 371.041ZM42.4191 371.091L42.8315 372.002L42.8294 372.003L42.4191 371.091ZM42.2834 371.151L42.682 372.069L42.665 372.076L42.6477 372.083L42.2834 371.151ZM38.3108 368.122L37.3154 368.218L37.3152 368.216L38.3108 368.122ZM41.4181 357.478L40.42 357.417L40.4206 357.408L41.4181 357.478ZM41.5361 354.169L40.5459 354.03L40.5466 354.025L41.5361 354.169ZM43.8174 348.07L44.7799 348.342L44.7779 348.349L44.7758 348.356L43.8174 348.07ZM44.8401 338.304L43.845 338.204L43.8452 338.202L44.8401 338.304ZM45.1547 327.819L46.154 327.782L46.1542 327.786L45.1547 327.819ZM44.2999 312.059L43.3019 312.124L43.3014 312.114L44.2999 312.059ZM44.2999 312.059L43.3013 312.113L43.3011 312.108L44.2999 312.059ZM44.2998 312.057L45.2977 311.993L45.2982 312L45.2985 312.007L44.2998 312.057ZM43.9354 284.328L44.9334 284.391V284.392L43.9354 284.328ZM46.7837 254.477L47.7833 254.505L47.7832 254.509L46.7837 254.477ZM46.7838 254.474L45.7842 254.446L45.7843 254.441L46.7838 254.474ZM46.784 254.468L45.7846 254.435L45.785 254.42L45.786 254.405L46.784 254.468ZM46.784 254.467H47.784V254.498L47.7821 254.53L46.784 254.467ZM46.784 254.467H45.784L45.7842 254.446L45.7849 254.425L46.784 254.467ZM46.7841 254.465L45.7849 254.424L45.7857 254.41L46.7841 254.465ZM46.7841 254.465L47.7836 254.496L47.7833 254.508L47.7826 254.52L46.7841 254.465ZM48.7006 175.243L48.6171 174.246L49.7958 174.148L49.6971 175.326L48.7006 175.243ZM44.7608 175.062L44.4699 176.019L44.4468 176.012L44.424 176.004L44.7608 175.062ZM44.5799 174.636L44.8054 173.662L46.6112 174.08L45.2703 175.36L44.5799 174.636ZM41.5359 168.006L41.9956 167.118L42.0062 167.124L42.0167 167.129L41.5359 168.006ZM33.3547 156.485L34.0214 155.74L34.1762 155.879L34.2631 156.067L33.3547 156.485ZM5.50682 137.51L6.30105 136.903L6.30264 136.905L5.50682 137.51ZM5.34951 109.924L4.42419 109.545L4.42463 109.544L5.34951 109.924ZM6.0625 108.155L6.99119 108.526L6.99082 108.527L6.0625 108.155ZM6.06793 108.141L5.13925 107.77L5.13977 107.769L6.06793 108.141ZM28.91 64.8782L28.2942 64.0904L28.2959 64.089L28.91 64.8782ZM44.7081 58.935L45.1991 59.8062L44.9779 59.9309L44.7239 59.9349L44.7081 58.935ZM62.0607 52.7484L62.7149 53.5047L62.6635 53.5492L62.6065 53.5863L62.0607 52.7484ZM66.9594 40.9473L67.2586 39.9931L67.9249 40.202L67.9583 40.8995L66.9594 40.9473ZM63.8748 37.9181L64.2572 36.9941L64.5395 37.1109L64.7084 37.3656L63.8748 37.9181ZM60.6976 31.8954L61.613 31.4929L61.7162 31.7276L61.6937 31.9829L60.6976 31.8954ZM57.7816 23.0598L56.788 23.1733L56.7877 23.1702L57.7816 23.0598ZM60.2989 18.6748L60.8775 17.8592L62.5845 19.0702L60.5699 19.6374L60.2989 18.6748ZM58.9616 18.1566L59.1156 17.1684L59.1281 17.1705L58.9616 18.1566ZM56.1296 19.1532L55.3923 18.4776L55.4047 18.464L55.4177 18.4508L56.1296 19.1532ZM116.805 109.833L115.854 109.525L116.508 107.508L117.648 109.296L116.805 109.833ZM126.669 126.987L127.613 126.658L127.78 127.138L127.491 127.555L126.669 126.987ZM111.824 121.284L112.82 121.374V121.376L111.824 121.284ZM104.626 150.305H105.626V150.342L105.624 150.378L104.626 150.305ZM104.41 154.508L105.11 155.221L103.311 156.99L103.41 154.468L104.41 154.508ZM105.02 154.014L104.478 153.173L104.489 153.166L104.5 153.159L105.02 154.014ZM105.61 153.695L106.169 154.523L106.083 154.582L105.985 154.622L105.61 153.695ZM105.806 153.575L105.354 152.683L105.567 152.575H105.806V153.575ZM105.846 153.575L106.307 154.463L106.09 154.575H105.846V153.575ZM111.392 151.662L112.205 152.244L111.947 152.604L111.507 152.655L111.392 151.662ZM126.089 129.53L126.031 128.532L127.868 128.425L126.958 130.024L126.089 129.53ZM125.512 128.66L124.685 128.099L124.692 128.088L125.512 128.66ZM125.515 128.656L126.338 129.224L126.336 129.228L125.515 128.656ZM39.8315 106.232L39.1054 105.544L40.1704 104.419L40.757 105.853L39.8315 106.232ZM50.504 148.232L51.502 148.169L51.5022 148.172L50.504 148.232ZM50.5556 150.213L51.5556 150.214L51.5541 151.839L50.1038 151.105L50.5556 150.213ZM46.2559 148.274L46.6297 147.346L46.6336 147.348L46.2559 148.274ZM27.14 126.747L27.9993 126.235L28.0057 126.246L27.14 126.747ZM58.9795 18.0306C57.8929 17.8777 56.7882 18.275 56.0154 19.0582L54.5918 17.6535C55.7856 16.4436 57.5129 15.8045 59.2583 16.0501L58.9795 18.0306ZM59.9625 18.3259C59.5474 18.1576 59.289 18.0603 59.0271 18.0362L59.2106 16.0446C59.8141 16.1002 60.3424 16.3218 60.7139 16.4724L59.9625 18.3259ZM62.1676 10.4165C61.9208 10.556 61.6833 10.8317 61.4889 11.3214C61.2941 11.812 61.1738 12.4422 61.119 13.1601C61.0094 14.595 61.174 16.1837 61.3281 17.2571L59.3484 17.5412C59.1877 16.4221 58.9984 14.6622 59.1248 13.0077C59.1879 12.1809 59.3332 11.3311 59.63 10.5834C59.9273 9.83486 60.4076 9.11393 61.1835 8.67542L62.1676 10.4165ZM63.8782 10.2237C63.0322 10.7569 63.032 10.7566 63.0322 10.7569C63.0323 10.757 63.033 10.7581 63.0331 10.7583C63.0334 10.7588 63.0337 10.7592 63.0339 10.7596C63.0345 10.7604 63.0349 10.7612 63.0353 10.7618C63.0362 10.7631 63.0368 10.7641 63.0373 10.7648C63.0382 10.7663 63.0384 10.7665 63.0378 10.7657C63.0367 10.764 63.0328 10.7582 63.0261 10.749C63.0126 10.7303 62.9892 10.6993 62.957 10.6617C62.8896 10.5831 62.8006 10.4952 62.7013 10.4277C62.6026 10.3606 62.5231 10.3332 62.463 10.3269C62.4178 10.3221 62.3299 10.3221 62.1796 10.4098L61.1715 8.68227C61.6703 8.39125 62.1821 8.28647 62.6716 8.33779C63.1461 8.38755 63.5361 8.57685 63.8259 8.77385C64.115 8.97043 64.3333 9.19404 64.4761 9.36077C64.549 9.44596 64.6064 9.52118 64.6475 9.578C64.6681 9.60654 64.6848 9.63079 64.6976 9.64977C64.704 9.65927 64.7094 9.66748 64.7138 9.67428C64.716 9.67768 64.718 9.68075 64.7197 9.68344C64.7206 9.68478 64.7214 9.68603 64.7221 9.68719C64.7225 9.68777 64.7228 9.68834 64.7232 9.68887C64.7231 9.68874 64.7233 9.68914 64.7232 9.68887C64.7234 9.68925 64.7241 9.69039 63.8782 10.2237ZM72.8025 1.61741C71.9051 1.99637 70.9451 2.71954 69.9869 3.65659C69.0376 4.58496 68.1381 5.67559 67.3556 6.72895C66.5748 7.78 65.9217 8.77878 65.4636 9.51536C65.2349 9.88312 65.0557 10.1842 64.9342 10.3921C64.8736 10.496 64.8274 10.5766 64.7968 10.6304C64.7815 10.6574 64.7701 10.6776 64.7627 10.6908C64.759 10.6973 64.7563 10.7021 64.7547 10.7051C64.7538 10.7066 64.7532 10.7079 64.7528 10.7085C64.7528 10.7084 64.7528 10.7085 63.8782 10.2237C63.0036 9.73881 63.0037 9.73865 63.0038 9.73845C63.0037 9.73866 63.0038 9.73835 63.0038 9.73845C63.004 9.73803 63.0046 9.73696 63.005 9.7363C63.0057 9.73499 63.0067 9.73322 63.0079 9.73098C63.0104 9.72651 63.014 9.72019 63.0185 9.71208C63.0276 9.69585 63.0408 9.67244 63.058 9.64229C63.0922 9.58199 63.1423 9.49465 63.2071 9.38361C63.3368 9.16158 63.5257 8.84447 63.7653 8.45917C64.2438 7.68964 64.928 6.64289 65.7501 5.5363C66.5704 4.43203 67.5392 3.25291 68.5885 2.22671C69.629 1.20917 70.7978 0.292949 72.0244 -0.225036L72.8025 1.61741ZM78.222 2.90232C78.2589 2.84536 78.3138 2.69005 78.2143 2.41172C78.1167 2.13845 77.882 1.80514 77.4668 1.52701C76.6662 0.990698 75.1284 0.638238 72.8015 1.61784L72.0255 -0.225464C74.8118 -1.39851 77.0894 -1.13308 78.5799 -0.13463C79.3103 0.354623 79.8401 1.0179 80.0977 1.73874C80.3535 2.45451 80.3542 3.29081 79.8995 3.99128L78.222 2.90232ZM92.0415 7.98069C90.4391 4.59278 87.424 3.65529 84.6115 3.59949C83.205 3.57159 81.8932 3.76974 80.9268 3.97831C80.4457 4.08214 80.0556 4.18738 79.7887 4.26564C79.6554 4.30473 79.5532 4.33697 79.4861 4.3588C79.4526 4.36971 79.4279 4.37801 79.4126 4.38324C79.4049 4.38585 79.3996 4.3877 79.3966 4.38872C79.3951 4.38923 79.3943 4.38954 79.394 4.38963C79.3938 4.38969 79.3939 4.38968 79.394 4.38963C79.3941 4.3896 79.395 4.38928 79.3951 4.38926C79.3953 4.38916 79.3951 4.38927 79.0607 3.44681C78.7264 2.50433 78.7268 2.50419 78.7273 2.50404C78.7275 2.50397 78.728 2.5038 78.7283 2.50366C78.7291 2.50338 78.7301 2.50304 78.7312 2.50265C78.7334 2.50187 78.7363 2.50088 78.7397 2.49967C78.7466 2.49727 78.756 2.49403 78.7678 2.49002C78.7914 2.48199 78.8246 2.47086 78.8669 2.45709C78.9514 2.42955 79.0725 2.39142 79.2259 2.34643C79.5326 2.25651 79.97 2.13875 80.5048 2.02333C81.5702 1.7934 83.0437 1.56799 84.6511 1.59989C87.8664 1.66368 91.7938 2.77952 93.8493 7.12521L92.0415 7.98069ZM90.2915 18.9836C90.7472 18.6894 92.0329 17.737 92.7848 15.9999C93.5172 14.3079 93.8105 11.7172 92.0415 7.98069L93.8493 7.12521C95.8315 11.312 95.6105 14.5067 94.6203 16.7944C93.6495 19.0371 92.004 20.2586 91.3764 20.6638L90.2915 18.9836ZM90.2672 21.4323C90.1257 20.9463 89.9942 20.5035 89.8764 20.1119L91.7915 19.5354C91.911 19.9324 92.0442 20.381 92.1875 20.8733L90.2672 21.4323ZM92.1447 22.77C91.722 22.481 91.2751 22.254 90.8464 22.0774L91.6083 20.2282C92.1391 20.4469 92.714 20.7366 93.2733 21.1188L92.1447 22.77ZM92.0489 22.2453C91.9777 22.3463 91.9666 22.4554 91.9813 22.5349C91.9957 22.6123 92.0396 22.6943 92.1226 22.7544L93.2954 21.1344C93.9868 21.6349 94.2147 22.644 93.6837 23.3975L92.0489 22.2453ZM92.5874 22.1708C92.4832 22.0954 92.3658 22.0811 92.2765 22.0981C92.1898 22.1146 92.1064 22.1637 92.0489 22.2453L93.6837 23.3975C93.1911 24.0965 92.1757 24.3419 91.4146 23.7909L92.5874 22.1708ZM92.2031 21.9259C92.3226 21.9967 92.4422 22.0721 92.5608 22.1523L91.4411 23.8094C91.3571 23.7526 91.2711 23.6984 91.1836 23.6466L92.2031 21.9259ZM93.8629 38.5468C93.5134 33.7479 91.9475 27.4108 90.7302 23.0554L92.6564 22.5171C93.8756 26.8794 95.4923 33.3851 95.8576 38.4015L93.8629 38.5468ZM94.1742 39.5144C94.1247 39.3051 94.0523 39.1021 93.9585 38.9063L95.7621 38.042C95.9156 38.3623 96.037 38.7006 96.1206 39.0546L94.1742 39.5144ZM86.9268 48.6491C90.8195 48.6491 92.7203 47.1784 93.6356 45.4614C94.6019 43.6488 94.5945 41.3297 94.1732 39.5101L96.1216 39.0589C96.6049 41.146 96.6762 44.0092 95.4005 46.4022C94.0739 48.8909 91.412 50.6491 86.9268 50.6491V48.6491ZM86.3168 48.6521C86.5285 48.6506 86.7354 48.6491 86.9268 48.6491V50.6491C86.7438 50.6491 86.5447 50.6505 86.3313 50.6521L86.3168 48.6521ZM84.6914 48.6443C85.2234 48.6598 85.7889 48.6559 86.3168 48.6521L86.3313 50.6521C85.81 50.6558 85.2076 50.6602 84.6333 50.6435L84.6914 48.6443ZM84.0733 51.3857C83.9252 50.901 83.7936 50.3876 83.6826 49.8441L85.6421 49.4437C85.7406 49.9256 85.8565 50.3776 85.986 50.8012L84.0733 51.3857ZM84.6273 52.9052C84.431 52.4363 84.2436 51.9324 84.0749 51.3908L85.9844 50.796C86.1327 51.272 86.2979 51.7166 86.4722 52.1329L84.6273 52.9052ZM85.0541 53.8148C84.9071 53.5293 84.7651 53.2287 84.6298 52.9123L86.4686 52.1257C86.5851 52.398 86.7069 52.6557 86.8323 52.8993L85.0541 53.8148ZM93.9245 57.9142C92.3905 57.4684 90.7069 56.9799 89.1909 56.3847C87.691 55.7957 86.2417 55.0608 85.2393 54.0674L86.6471 52.6468C87.3527 53.346 88.4903 53.9609 89.9219 54.523C91.3374 55.0788 92.93 55.5424 94.4827 55.9937L93.9245 57.9142ZM97.0528 58.8835C96.1517 58.5618 95.0842 58.2512 93.9245 57.9142L94.4827 55.9937C95.626 56.326 96.7561 56.654 97.7252 57L97.0528 58.8835ZM98.1011 59.3514C97.6372 59.1348 97.2817 58.9696 97.0376 58.878L97.7404 57.0055C98.0751 57.1312 98.5147 57.3372 98.9473 57.5393L98.1011 59.3514ZM102.247 60.6064C101.873 60.6587 101.489 60.61 101.157 60.5383C100.812 60.4641 100.454 60.3498 100.108 60.2221C99.4195 59.9678 98.6914 59.6271 98.1011 59.3514L98.9473 57.5393C99.5535 57.8224 100.204 58.1256 100.801 58.3458C101.098 58.4553 101.359 58.536 101.578 58.5831C101.808 58.6327 101.93 58.6314 101.971 58.6257L102.247 60.6064ZM118.547 66.2969C113.23 60.2671 106.749 59.9164 102.26 60.6045L101.957 58.6276C106.83 57.8806 114.116 58.2474 120.048 64.9741L118.547 66.2969ZM129.476 82.3463C126.748 78.2494 124.246 74.4921 122.302 71.6199C120.331 68.7079 118.991 66.794 118.552 66.3015L120.043 64.9695C120.597 65.5901 122.036 67.6587 123.958 70.4988C125.908 73.3788 128.414 77.1433 131.141 81.2378L129.476 82.3463ZM148.982 110.885C144.601 105.063 136.32 92.6244 129.477 82.3474L131.141 81.2389C138.004 91.545 146.244 103.918 150.58 109.682L148.982 110.885ZM151.808 127.274C152.767 125.47 154.955 118.804 148.982 110.885L150.579 109.681C157.114 118.345 154.818 125.872 153.574 128.213L151.808 127.274ZM138.169 145.031C145.004 139.387 150.71 129.341 151.808 127.274L153.574 128.213C152.47 130.292 146.611 140.656 139.443 146.573L138.169 145.031ZM124.044 157.439C126.814 154.857 130.924 151.025 138.169 145.031L139.444 146.572C132.242 152.531 128.163 156.333 125.408 158.902L124.044 157.439ZM124.05 157.434V157.433L125.402 158.907L125.401 158.908L124.05 157.434ZM119.143 161.628C120.496 160.742 121.79 159.541 124.043 157.44L125.408 158.902C123.2 160.961 121.767 162.3 120.239 163.301L119.143 161.628ZM110.218 171.977C111.34 170.285 113.25 167.919 115.004 165.898C115.884 164.883 116.736 163.942 117.444 163.204C118.119 162.5 118.744 161.894 119.138 161.632L120.244 163.298C120.069 163.414 119.6 163.846 118.888 164.588C118.209 165.296 117.379 166.211 116.514 167.208C114.776 169.212 112.934 171.5 111.885 173.083L110.218 171.977ZM111.362 173.48C111.367 173.478 111.373 173.476 111.381 173.474L110.722 171.585C110.771 171.568 110.821 171.553 110.871 171.541L111.362 173.48ZM111.113 173.51C111.114 173.51 111.115 173.51 111.116 173.51V171.51C111.147 171.51 111.177 171.511 111.207 171.512L111.113 173.51ZM111.778 174.453C112.121 174.007 112.224 173.714 112.246 173.567C112.264 173.451 112.232 173.461 112.26 173.494C112.266 173.501 112.222 173.448 112.056 173.42C111.896 173.393 111.679 173.401 111.443 173.471L110.878 171.552C111.789 171.284 113.035 171.331 113.774 172.187C114.635 173.184 114.246 174.522 113.365 175.671L111.778 174.453ZM107.724 175.662C108.759 175.911 109.488 175.935 110.07 175.771C110.627 175.614 111.175 175.249 111.775 174.457L113.368 175.667C112.582 176.702 111.697 177.39 110.613 177.696C109.556 177.994 108.437 177.891 107.256 177.607L107.724 175.662ZM107.086 175.889C107.092 175.891 107.016 175.87 106.896 175.917C106.774 175.964 106.646 176.069 106.575 176.232L108.405 177.038C108.073 177.791 107.255 178.004 106.571 177.822L107.086 175.889ZM105.127 174.819C105.579 175.306 106.249 175.666 107.086 175.889L106.571 177.822C105.496 177.535 104.447 177.026 103.662 176.181L105.127 174.819ZM105.641 202.859C104.318 192.968 103.673 183.573 103.395 175.535L105.394 175.465C105.67 183.453 106.311 192.781 107.623 202.594L105.641 202.859ZM109.886 272.02C109.996 271.021 110.028 267.982 109.947 263.456C109.866 258.964 109.675 253.08 109.35 246.446C108.702 233.176 107.524 216.932 105.641 202.859L107.623 202.594C109.517 216.744 110.698 233.05 111.348 246.349C111.673 253 111.865 258.905 111.946 263.42C112.027 267.901 112.001 271.085 111.874 272.238L109.886 272.02ZM109.492 347.116C109.308 346.696 109.193 346.048 109.105 345.339C109.011 344.587 108.933 343.63 108.869 342.508C108.739 340.261 108.66 337.296 108.619 333.862C108.538 326.99 108.612 318.194 108.759 309.405C109.054 291.862 109.644 274.231 109.886 272.02L111.874 272.238C111.645 274.333 111.055 291.843 110.759 309.439C110.612 318.22 110.538 326.994 110.619 333.838C110.66 337.262 110.739 340.191 110.865 342.393C110.929 343.495 111.004 344.402 111.09 345.091C111.181 345.823 111.272 346.195 111.324 346.313L109.492 347.116ZM127.461 362.456C125.215 361.444 121.239 358.745 117.624 355.802C115.804 354.321 114.047 352.754 112.617 351.274C111.21 349.818 110.04 348.366 109.492 347.116L111.324 346.313C111.72 347.217 112.674 348.455 114.055 349.884C115.413 351.29 117.107 352.802 118.887 354.251C122.469 357.168 126.281 359.731 128.283 360.632L127.461 362.456ZM130.716 364.092C129.678 363.54 128.623 362.979 127.461 362.456L128.283 360.632C129.513 361.186 130.624 361.778 131.655 362.327L130.716 364.092ZM139.2 366.85C135.863 366.85 133.331 365.484 130.716 364.092L131.655 362.327C134.321 363.745 136.432 364.85 139.2 364.85V366.85ZM138.681 369.779C139.572 369.237 139.97 368.359 139.97 367.703C139.97 367.38 139.876 367.169 139.776 367.055C139.692 366.959 139.535 366.85 139.2 366.85V364.85C140.045 364.85 140.774 365.159 141.279 365.736C141.769 366.294 141.97 367.01 141.97 367.703C141.97 369.08 141.188 370.595 139.72 371.488L138.681 369.779ZM133.063 369.518C134.287 369.721 135.517 369.924 136.582 369.992C137.113 370.027 137.571 370.025 137.946 369.981C138.33 369.936 138.557 369.855 138.676 369.782L139.725 371.485C139.257 371.773 138.706 371.906 138.177 371.968C137.639 372.03 137.05 372.027 136.454 371.988C135.269 371.912 133.934 371.69 132.736 371.491L133.063 369.518ZM128.571 369.185C129.155 369.037 129.908 369.077 130.614 369.154C131.356 369.234 132.211 369.376 133.063 369.518L132.736 371.491C131.867 371.346 131.073 371.215 130.399 371.142C129.689 371.065 129.261 371.074 129.062 371.124L128.571 369.185ZM109.136 370.122C109.871 370.228 111.327 370.261 113.202 370.231C115.051 370.202 117.235 370.113 119.38 369.994C121.524 369.874 123.623 369.726 125.299 369.577C127.017 369.425 128.194 369.281 128.571 369.185L129.062 371.124C128.495 371.268 127.134 371.423 125.475 371.57C123.773 371.72 121.653 371.87 119.491 371.99C117.329 372.111 115.117 372.201 113.234 372.231C111.378 372.261 109.766 372.234 108.849 372.101L109.136 370.122ZM103.185 370.218C104.398 370.148 105.571 370.08 106.581 370.051C107.575 370.022 108.481 370.027 109.136 370.122L108.849 372.101C108.384 372.034 107.632 372.021 106.639 372.05C105.663 372.078 104.521 372.144 103.3 372.214L103.185 370.218ZM93.4492 369.941C93.4125 369.773 93.3162 369.916 93.931 370.102C94.4656 370.264 95.2557 370.367 96.2582 370.411C98.2497 370.501 100.795 370.355 103.185 370.218L103.3 372.214C100.942 372.35 98.2842 372.504 96.1687 372.409C95.1177 372.362 94.1282 372.252 93.3512 372.017C92.6544 371.805 91.7143 371.366 91.4956 370.369L93.4492 369.941ZM94.5921 361.62C93.5769 364.675 92.7985 367.082 93.4475 369.933L91.4974 370.377C90.7066 366.904 91.7011 363.977 92.6942 360.989L94.5921 361.62ZM96.5397 350.745C96.7014 355.291 95.5648 358.694 94.5921 361.62L92.6942 360.989C93.6634 358.073 94.6887 354.971 94.541 350.816L96.5397 350.745ZM89.4572 313.275C92.5212 325.078 96.1293 338.958 96.5398 350.746L94.541 350.816C94.1397 339.292 90.601 325.641 87.5213 313.777L89.4572 313.275ZM84.9755 291.938C85.1879 296.806 87.157 304.414 89.4572 313.275L87.5213 313.777C85.2491 305.024 83.2014 297.159 82.9774 292.025L84.9755 291.938ZM85.9626 269.547C85.4035 271.424 84.2074 275.308 84.9754 291.936L82.9775 292.028C82.2046 275.293 83.3963 271.157 84.0457 268.976L85.9626 269.547ZM85.953 269.577L84.0555 268.945L84.0556 268.944L85.953 269.577ZM85.9641 269.541L85.9637 269.543L84.045 268.979L84.0454 268.977L85.9641 269.541ZM86.1667 268.821C86.1083 269.058 86.0357 269.301 85.9632 269.544L84.0463 268.974C84.1221 268.719 84.18 268.524 84.2249 268.342L86.1667 268.821ZM76.0217 211.425C76.0845 211.33 76.2084 211.173 76.422 211.063C76.6645 210.938 76.9379 210.917 77.1858 210.989C77.5741 211.102 77.7642 211.4 77.7989 211.453C77.9231 211.64 78.0063 211.873 78.0616 212.041C78.1882 212.426 78.3299 213 78.4831 213.704C78.7927 215.129 79.1787 217.23 79.6106 219.778C80.4755 224.88 81.534 231.831 82.5473 238.88C83.5608 245.931 84.5303 253.088 85.2171 258.604C85.5604 261.361 85.8338 263.715 86.0067 265.441C86.0931 266.304 86.1553 267.018 86.1884 267.553C86.2049 267.819 86.2148 268.052 86.216 268.24C86.217 268.39 86.2155 268.623 86.1667 268.821L84.2249 268.342C84.2055 268.421 84.2172 268.428 84.2161 268.253C84.2152 268.117 84.2076 267.926 84.1922 267.677C84.1614 267.179 84.1021 266.494 84.0167 265.641C83.8461 263.937 83.575 261.603 83.2324 258.851C82.5475 253.35 81.5798 246.206 80.5677 239.165C79.5553 232.122 78.4996 225.19 77.6388 220.112C77.2079 217.57 76.8281 215.507 76.5287 214.129C76.3773 213.432 76.2536 212.945 76.1616 212.665C76.1075 212.501 76.093 212.499 76.1321 212.558C76.1468 212.58 76.183 212.632 76.2446 212.691C76.3016 212.745 76.428 212.852 76.6271 212.909C76.857 212.976 77.1131 212.957 77.3392 212.84C77.5363 212.739 77.6446 212.597 77.6926 212.524L76.0217 211.425ZM73.3266 239.415C73.8265 232.835 74.3351 226.141 74.7814 220.996C75.0044 218.424 75.2127 216.231 75.3972 214.63C75.4893 213.831 75.5768 213.167 75.659 212.672C75.6999 212.426 75.7419 212.207 75.7857 212.027C75.8169 211.9 75.8822 211.637 76.0217 211.425L77.6926 212.524C77.7695 212.407 77.768 212.341 77.7286 212.502C77.7018 212.612 77.6693 212.776 77.632 213C77.558 213.445 77.4749 214.071 77.3841 214.859C77.2029 216.431 76.9966 218.602 76.7739 221.169C76.3287 226.3 75.821 232.983 75.3209 239.566L73.3266 239.415ZM71.1663 263.997C71.2571 263.629 71.3878 262.662 71.5469 261.145C71.7025 259.661 71.8783 257.723 72.0685 255.472C72.4488 250.97 72.8843 245.238 73.3266 239.415L75.3209 239.567C74.8787 245.386 74.4425 251.128 74.0614 255.64C73.8709 257.896 73.6937 259.849 73.5359 261.354C73.3817 262.826 73.2389 263.946 73.1081 264.476L71.1663 263.997ZM70.2627 273.314C70.4101 271.138 70.5414 269.2 70.6805 267.626C70.8177 266.072 70.9679 264.801 71.1663 263.997L73.1081 264.476C72.9519 265.109 72.8114 266.232 72.6727 267.802C72.5358 269.351 72.406 271.266 72.2582 273.449L70.2627 273.314ZM67.3421 299.117C69.0946 290.532 69.7711 280.57 70.2627 273.314L72.2582 273.449C71.7683 280.68 71.0857 290.778 69.3017 299.517L67.3421 299.117ZM64.6402 311.235C65.5162 307.49 66.4333 303.569 67.3421 299.117L69.3017 299.517C68.3865 304 67.4632 307.947 66.5876 311.691L64.6402 311.235ZM64.6348 311.26L64.6349 311.259L66.5928 311.667L64.6348 311.26ZM60.1685 335.691C61.1356 326.216 62.7963 319.119 64.64 311.236L66.5876 311.691C64.7442 319.573 63.1109 326.559 62.1581 335.894L60.1685 335.691ZM59.7381 364.525C59.4346 364.32 59.2586 364.027 59.1533 363.803C59.041 363.563 58.9591 363.292 58.8958 363.015C58.7688 362.461 58.6878 361.755 58.6385 360.945C58.5395 359.316 58.5609 357.118 58.6695 354.546C58.8871 349.394 59.4598 342.633 60.1685 335.691L62.1581 335.894C61.4508 342.824 60.8828 349.537 60.6677 354.63C60.56 357.181 60.5421 359.298 60.6348 360.823C60.6814 361.59 60.7541 362.171 60.8453 362.569C60.891 362.768 60.9343 362.89 60.9643 362.954C61.0012 363.033 60.9844 362.954 60.8578 362.868L59.7381 364.525ZM60.3192 364.901C60.115 364.771 59.9122 364.643 59.7381 364.525L60.8578 362.868C61.002 362.966 61.1771 363.077 61.3889 363.211L60.3192 364.901ZM63.1771 368.995C63.3974 368.548 63.4196 368.186 63.3537 367.874C63.2836 367.543 63.0972 367.194 62.7871 366.826C62.147 366.067 61.1665 365.437 60.3192 364.901L61.3889 363.211C62.1846 363.714 63.4424 364.501 64.3158 365.536C64.7624 366.066 65.1514 366.708 65.3105 367.461C65.4739 368.235 65.3789 369.052 64.9707 369.88L63.1771 368.995ZM58.8951 369.622C59.7698 370.161 60.6779 370.405 61.4212 370.322C62.1056 370.246 62.7361 369.889 63.1771 368.995L64.9707 369.88C64.2318 371.378 63.0136 372.157 61.6429 372.31C60.331 372.456 58.9775 372.022 57.8461 371.325L58.8951 369.622ZM54.6375 369.62C55.5008 370.325 56.8769 370.353 57.7655 369.678L58.9758 371.27C57.347 372.508 54.9472 372.456 53.3718 371.168L54.6375 369.62ZM50.3267 370.22C51.283 370.704 52.5619 370.488 53.2674 369.718L54.742 371.07C53.4021 372.532 51.141 372.874 49.4227 372.004L50.3267 370.22ZM50.2197 370.163C50.2644 370.187 50.2965 370.204 50.3265 370.219L49.4227 372.004C49.3675 371.976 49.3145 371.947 49.2737 371.925L50.2197 370.163ZM49.1274 369.833C49.6466 369.833 50.0676 370.081 50.2197 370.163L49.2737 371.925C49.2229 371.897 49.1866 371.878 49.1528 371.862C49.1204 371.845 49.0995 371.836 49.0859 371.831C49.0592 371.821 49.0794 371.833 49.1274 371.833V369.833ZM47.9716 370.276C48.1409 370.147 48.5714 369.833 49.1274 369.833V371.833C49.1795 371.833 49.2184 371.825 49.2406 371.819C49.2625 371.813 49.2726 371.808 49.2701 371.809C49.2678 371.81 49.2586 371.815 49.242 371.825C49.2256 371.836 49.2057 371.85 49.1819 371.868L47.9716 370.276ZM45.8194 370.099C46.8614 370.403 47.4592 370.537 48.1031 370.191L49.0504 371.952C47.591 372.737 46.2026 372.294 45.2605 372.02L45.8194 370.099ZM42.7473 369.874C43.9311 369.524 45.0427 369.873 45.8194 370.099L45.2605 372.02C44.3851 371.765 43.846 371.634 43.3142 371.792L42.7473 369.874ZM42.1156 370.131C42.2814 370.056 42.4914 369.959 42.7106 369.885L43.3509 371.78C43.2445 371.816 43.1288 371.867 42.943 371.952L42.1156 370.131ZM42.0067 370.18L42.1169 370.13L42.9417 371.952L42.8315 372.002L42.0067 370.18ZM41.8848 370.234C41.9258 370.216 41.9668 370.198 42.0088 370.179L42.8294 372.003C42.7829 372.024 42.7336 372.046 42.682 372.069L41.8848 370.234ZM39.3061 368.026C39.3857 368.848 39.7334 369.57 40.1951 369.981C40.6055 370.346 41.1525 370.52 41.9191 370.22L42.6477 372.083C41.1724 372.66 39.8314 372.335 38.8651 371.475C37.9502 370.66 37.4326 369.429 37.3154 368.218L39.3061 368.026ZM40.7324 362.858C39.8509 364.754 39.1456 366.326 39.3064 368.028L37.3152 368.216C37.0949 365.884 38.0822 363.815 38.9188 362.015L40.7324 362.858ZM42.4162 357.54C42.2936 359.527 41.4551 361.303 40.7324 362.858L38.9188 362.015C39.6702 360.399 40.3246 358.964 40.42 357.417L42.4162 357.54ZM42.4481 356.095C42.4495 356.546 42.4514 357.041 42.4156 357.548L40.4206 357.408C40.4504 356.985 40.4495 356.563 40.4482 356.101L42.4481 356.095ZM42.5263 354.309C42.4461 354.878 42.4462 355.444 42.4481 356.095L40.4482 356.101C40.4463 355.471 40.4425 354.763 40.5459 354.03L42.5263 354.309ZM43.6936 351.032C43.1472 352.211 42.6845 353.227 42.5256 354.314L40.5466 354.025C40.7546 352.602 41.3539 351.325 41.8788 350.191L43.6936 351.032ZM44.7758 348.356C44.4893 349.318 44.0718 350.215 43.6936 351.032L41.8788 350.191C42.267 349.353 42.6206 348.585 42.859 347.785L44.7758 348.356ZM45.6329 341.468C45.5214 343.698 45.4047 346.125 44.7799 348.342L42.8549 347.799C43.4074 345.839 43.5215 343.647 43.6354 341.368L45.6329 341.468ZM45.8351 338.403C45.7374 339.381 45.6861 340.403 45.6329 341.468L43.6354 341.368C43.6881 340.313 43.7415 339.24 43.845 338.204L45.8351 338.403ZM46.1542 327.786C46.2734 331.331 46.1943 334.884 45.8349 338.405L43.8452 338.202C44.1939 334.786 44.2721 331.324 44.1553 327.853L46.1542 327.786ZM45.2977 311.993C45.5932 316.541 45.9206 321.578 46.154 327.782L44.1554 327.857C43.9231 321.683 43.5974 316.671 43.3019 312.124L45.2977 311.993ZM45.2983 312.002L43.3014 312.114L43.3013 312.113L45.2983 312.002ZM45.2985 312.007L45.2986 312.008L43.3011 312.108L43.301 312.107L45.2985 312.007ZM44.9334 284.392C44.2251 295.479 44.6951 302.72 45.2977 311.993L43.3019 312.122C42.6986 302.838 42.2204 295.488 42.9374 284.264L44.9334 284.392ZM46.8753 268.031C46.2945 271.27 45.4691 275.87 44.9334 284.391L42.9374 284.265C43.4795 275.641 44.3181 270.96 44.9067 267.678L46.8753 268.031ZM47.5707 262.323C47.5707 264.168 47.2689 265.836 46.8753 268.031L44.9067 267.678C45.3067 265.447 45.5707 263.959 45.5707 262.323H47.5707ZM47.7832 254.509C47.6582 258.482 47.5707 261.268 47.5707 262.323H45.5707C45.5707 261.227 45.66 258.393 45.7842 254.446L47.7832 254.509ZM47.7834 254.502L47.7833 254.505L45.7841 254.449L45.7842 254.446L47.7834 254.502ZM47.7835 254.5L47.7833 254.508L45.7843 254.441L45.7846 254.435L47.7835 254.5ZM47.7833 254.508L47.7832 254.509L45.7849 254.425L47.7833 254.508ZM47.7833 254.508L45.7849 254.425V254.424L47.7833 254.508ZM47.7826 254.52L45.7857 254.41V254.409L47.7826 254.52ZM47.7837 254.495L47.7836 254.496L45.7846 254.435V254.433L47.7837 254.495ZM48.4751 203.421C48.8593 220.314 48.1576 242.606 47.7836 254.496L45.7846 254.433C46.159 242.529 46.8584 220.295 46.4756 203.467L48.4751 203.421ZM49.6971 175.326C48.9318 184.469 48.2689 194.433 48.4751 203.421L46.4756 203.467C46.2668 194.366 46.9379 184.313 47.7041 175.16L49.6971 175.326ZM45.0517 174.105C45.2665 174.171 45.7694 174.244 46.4681 174.279C47.1401 174.312 47.9105 174.306 48.6171 174.246L48.7841 176.239C47.9792 176.307 47.1194 176.313 46.3692 176.276C45.6458 176.24 44.9346 176.16 44.4699 176.019L45.0517 174.105ZM45.2703 175.36C45.3466 175.287 45.5929 174.985 45.4521 174.551C45.3914 174.363 45.2818 174.248 45.2104 174.19C45.1746 174.161 45.1447 174.144 45.1264 174.134C45.1171 174.129 45.1098 174.126 45.1051 174.124C45.1003 174.122 45.0977 174.121 45.0976 174.121L44.424 176.004C44.1673 175.912 43.7181 175.687 43.5495 175.167C43.3598 174.582 43.6701 174.122 43.8895 173.913L45.2703 175.36ZM41.0638 171.861C41.1166 172.012 41.3351 172.32 42.0045 172.688C42.648 173.041 43.58 173.378 44.8054 173.662L44.3544 175.611C43.0278 175.304 41.9033 174.914 41.0416 174.441C40.2057 173.982 39.4702 173.362 39.1761 172.522L41.0638 171.861ZM42.1479 171.035C41.544 170.976 41.243 171.155 41.1296 171.276C41.0345 171.378 40.9561 171.554 41.0638 171.861L39.1761 172.522C38.8511 171.594 39.0087 170.614 39.6708 169.908C40.3145 169.222 41.2919 168.943 42.34 169.044L42.1479 171.035ZM42.0167 167.129C42.6521 167.478 43.1641 167.817 43.543 168.143C43.8806 168.433 44.2661 168.84 44.3838 169.352C44.4527 169.652 44.4315 170.008 44.2317 170.334C44.0444 170.641 43.7685 170.809 43.5428 170.901C43.1176 171.073 42.6097 171.079 42.1479 171.035L42.34 169.044C42.7041 169.079 42.8206 169.035 42.7924 169.047C42.7653 169.058 42.6311 169.118 42.5253 169.291C42.4071 169.485 42.4074 169.682 42.4346 169.8C42.4566 169.895 42.49 169.922 42.454 169.875C42.4226 169.834 42.3572 169.761 42.2392 169.66C42.0023 169.456 41.6195 169.192 41.0552 168.883L42.0167 167.129ZM41.7294 166.982C41.815 167.026 41.9048 167.071 41.9956 167.118L41.0763 168.894C40.9939 168.852 40.9112 168.81 40.8244 168.766L41.7294 166.982ZM34.2631 156.067C36.4667 160.856 37.9692 163.393 39.1024 164.832C40.1869 166.209 40.9218 166.572 41.7294 166.982L40.8244 168.766C39.8774 168.285 38.8632 167.761 37.5312 166.069C36.2478 164.44 34.6665 161.728 32.4462 156.904L34.2631 156.067ZM20.2334 146.57C25.5002 149.735 30.9941 153.032 34.0214 155.74L32.6879 157.231C29.8373 154.681 24.5498 151.497 19.2031 148.284L20.2334 146.57ZM6.30264 136.905C7.15197 138.021 9.0175 139.486 11.5671 141.191C14.0799 142.871 17.1281 144.703 20.2334 146.57L19.2031 148.284C16.1097 146.425 13.0164 144.566 10.4553 142.853C7.93087 141.165 5.7901 139.534 4.71102 138.116L6.30264 136.905ZM4.072 115.132C2.35858 118.681 1.01448 121.505 0.999944 124.728C0.985601 127.909 2.27883 131.645 6.30105 136.903L4.7126 138.118C0.550955 132.678 -1.01714 128.516 -1.00004 124.719C-0.983118 120.965 0.597021 117.73 2.27085 114.262L4.072 115.132ZM6.27484 110.304C5.55532 112.059 4.7859 113.653 4.072 115.132L2.27085 114.262C2.98744 112.778 3.73107 111.237 4.42419 109.545L6.27484 110.304ZM6.99082 108.527C6.68382 109.293 6.44113 109.899 6.27438 110.305L4.42463 109.544C4.587 109.149 4.82545 108.554 5.13417 107.783L6.99082 108.527ZM6.99664 108.512L6.99119 108.526L5.1338 107.784L5.13925 107.77L6.99664 108.512ZM6.9976 108.51L6.99612 108.513L5.13977 107.769L5.14109 107.766L6.9976 108.51ZM29.5259 65.6661C27.6704 67.1165 25.5281 69.9417 23.2814 73.6207C21.0527 77.2701 18.7821 81.656 16.6475 86.1283C12.3792 95.071 8.68763 104.289 6.9976 108.51L5.14109 107.766C6.83076 103.547 10.5434 94.2742 14.8426 85.2668C16.9917 80.764 19.2956 76.3099 21.5745 72.5783C23.8353 68.8762 26.1337 65.7792 28.2942 64.0904L29.5259 65.6661ZM44.7239 59.9349C42.1318 59.9759 35.9576 60.6608 29.5242 65.6674L28.2959 64.089C35.1687 58.7405 41.8072 57.9808 44.6923 57.9351L44.7239 59.9349ZM55.7939 56.4009C53.1104 56.9902 48.3078 58.0539 45.1991 59.8062L44.2171 58.0639C47.6382 56.1355 52.7623 55.019 55.3648 54.4475L55.7939 56.4009ZM57.55 55.9779C57.2194 56.0897 56.5548 56.2338 55.7939 56.4009L55.3648 54.4475C56.2038 54.2632 56.7138 54.1494 56.9099 54.0831L57.55 55.9779ZM62.6065 53.5863C60.5385 54.9334 58.5147 55.6521 57.55 55.9779L56.9099 54.0831C57.8258 53.7736 59.6598 53.1188 61.5149 51.9105L62.6065 53.5863ZM67.074 48.2566C66.2047 50.2389 64.4491 52.0047 62.7149 53.5047L61.4065 51.9921C63.1152 50.514 64.566 48.9957 65.2424 47.4534L67.074 48.2566ZM67.9583 40.8995C68.0769 43.3775 67.9652 46.2243 67.074 48.2566L65.2424 47.4534C65.9326 45.8793 66.0777 43.4416 65.9606 40.9951L67.9583 40.8995ZM67.0749 39.9244C67.1317 39.9495 67.1928 39.9725 67.2586 39.9931L66.6603 41.9015C66.5267 41.8597 66.3953 41.8107 66.2667 41.7539L67.0749 39.9244ZM64.7084 37.3656C65.1731 38.0668 65.6218 38.6524 66.0409 39.098C66.4692 39.5536 66.8181 39.8107 67.0749 39.9244L66.2667 41.7539C65.6608 41.4858 65.0958 41.0125 64.5839 40.4682C64.0626 39.9139 63.5447 39.2299 63.0413 38.4706L64.7084 37.3656ZM61.6937 31.9829C61.549 33.6308 61.8719 34.7223 62.3429 35.4594C62.8178 36.2025 63.5059 36.6832 64.2572 36.9941L63.4925 38.8421C62.4682 38.4183 61.4076 37.7099 60.6577 36.5364C59.904 35.357 59.526 33.8045 59.7014 31.8079L61.6937 31.9829ZM58.7751 22.9463C58.956 24.5301 60.0759 27.9974 61.613 31.4929L59.7822 32.298C58.2335 28.7761 57.0054 25.0756 56.788 23.1733L58.7751 22.9463ZM60.5699 19.6374C60.3443 19.7009 59.8186 19.9171 59.3965 20.4024C59.0045 20.8532 58.6276 21.6178 58.7755 22.9495L56.7877 23.1702C56.5815 21.3128 57.1093 19.9845 57.8874 19.0899C58.6355 18.2298 59.5455 17.848 60.0279 17.7122L60.5699 19.6374ZM59.1281 17.1705C59.6996 17.2671 60.3265 17.4683 60.8775 17.8592L59.7203 19.4904C59.4846 19.3232 59.1675 19.2055 58.795 19.1426L59.1281 17.1705ZM55.4177 18.4508C56.3636 17.4921 57.7386 16.9537 59.1156 17.1684L58.8075 19.1446C58.1392 19.0404 57.3902 19.2994 56.8414 19.8555L55.4177 18.4508ZM56.0409 19.0314C56.0986 18.9685 56.1542 18.8457 56.1407 18.7012C56.1294 18.5805 56.0757 18.5 56.0276 18.4536C55.98 18.4077 55.8885 18.3481 55.7481 18.3431C55.5803 18.3372 55.4506 18.414 55.3923 18.4776L56.8669 19.8287C56.5529 20.1714 56.1282 20.3578 55.6777 20.3419C55.2546 20.327 54.8926 20.1378 54.6386 19.8926C54.384 19.6468 54.1877 19.2973 54.1494 18.8875C54.1088 18.4541 54.2529 18.0223 54.5663 17.6803L56.0409 19.0314ZM117.648 109.296C119.818 112.699 122.036 116.262 123.841 119.348C125.628 122.403 127.063 125.076 127.613 126.658L125.724 127.315C125.249 125.948 123.919 123.443 122.115 120.358C120.328 117.304 118.126 113.765 115.962 110.371L117.648 109.296ZM115.503 110.688C115.627 110.248 115.743 109.865 115.854 109.525L117.756 110.142C117.655 110.455 117.546 110.812 117.428 111.231L115.503 110.688ZM113.82 113.731C114.589 112.655 115.19 111.8 115.503 110.688L117.428 111.231C117.006 112.728 116.192 113.852 115.446 114.894L113.82 113.731ZM110.828 121.195C111.165 117.441 112.605 115.43 113.82 113.731L115.446 114.894C114.287 116.516 113.108 118.167 112.82 121.374L110.828 121.195ZM108.681 129.116C109.265 127.11 109.788 125.317 110.175 123.912C110.574 122.463 110.797 121.536 110.829 121.192L112.82 121.376C112.768 121.939 112.483 123.065 112.103 124.443C111.711 125.866 111.184 127.675 110.601 129.676L108.681 129.116ZM103.626 150.305C103.626 148.305 104.389 144.769 105.37 140.942C106.363 137.068 107.622 132.75 108.681 129.116L110.601 129.676C109.54 133.316 108.291 137.602 107.307 141.439C106.311 145.322 105.626 148.604 105.626 150.305H103.626ZM103.41 154.468C103.464 153.113 103.518 152.057 103.56 151.338C103.58 150.978 103.597 150.703 103.61 150.517C103.616 150.424 103.62 150.354 103.624 150.306C103.625 150.282 103.627 150.264 103.628 150.252C103.628 150.246 103.628 150.241 103.629 150.238C103.629 150.236 103.629 150.235 103.629 150.234C103.629 150.233 103.629 150.232 103.629 150.232C103.629 150.232 103.629 150.232 104.626 150.305C105.624 150.378 105.624 150.378 105.624 150.378C105.624 150.378 105.623 150.38 105.623 150.382C105.623 150.384 105.623 150.388 105.623 150.394C105.622 150.405 105.621 150.422 105.619 150.444C105.616 150.49 105.611 150.558 105.605 150.648C105.593 150.829 105.577 151.098 105.556 151.452C105.516 152.16 105.462 153.205 105.409 154.547L103.41 154.468ZM105.562 154.854C105.414 154.95 105.263 155.071 105.11 155.221L103.709 153.795C103.944 153.563 104.2 153.353 104.478 153.173L105.562 154.854ZM105.985 154.622C105.877 154.665 105.752 154.739 105.539 154.868L104.5 153.159C104.681 153.049 104.948 152.884 105.234 152.768L105.985 154.622ZM105.806 153.575C106.258 154.467 106.258 154.467 106.259 154.467C106.259 154.466 106.261 154.466 106.261 154.466C106.262 154.466 106.262 154.465 106.263 154.465C106.264 154.464 106.265 154.464 106.266 154.463C106.268 154.462 106.268 154.462 106.268 154.462C106.267 154.463 106.262 154.466 106.253 154.471C106.237 154.48 106.207 154.498 106.169 154.523L105.05 152.866C105.13 152.812 105.199 152.77 105.251 152.74C105.277 152.725 105.299 152.712 105.317 152.703C105.325 152.698 105.333 152.694 105.339 152.691C105.342 152.689 105.345 152.688 105.348 152.687C105.349 152.686 105.35 152.685 105.351 152.685C105.352 152.685 105.352 152.684 105.353 152.684C105.354 152.684 105.354 152.684 105.354 152.683C105.354 152.683 105.354 152.683 105.806 153.575ZM105.846 154.575H105.806V152.575H105.846V154.575ZM111.392 151.662C111.507 152.655 111.506 152.655 111.507 152.655C111.507 152.655 111.508 152.655 111.509 152.655C111.51 152.655 111.51 152.655 111.509 152.655C111.507 152.655 111.502 152.656 111.496 152.657C111.483 152.658 111.462 152.661 111.431 152.666C111.371 152.675 111.277 152.69 111.153 152.714C110.904 152.761 110.532 152.84 110.065 152.97C109.128 153.228 107.809 153.682 106.307 154.463L105.385 152.688C107.029 151.834 108.483 151.331 109.533 151.042C110.058 150.897 110.483 150.805 110.782 150.748C110.932 150.72 111.05 150.701 111.133 150.688C111.175 150.682 111.208 150.677 111.232 150.674C111.244 150.673 111.254 150.671 111.261 150.67C111.265 150.67 111.268 150.67 111.27 150.669C111.271 150.669 111.273 150.669 111.274 150.669C111.274 150.669 111.275 150.669 111.276 150.669C111.276 150.669 111.276 150.669 111.392 151.662ZM126.958 130.024C124.723 133.953 121.027 139.517 117.906 144.077C116.342 146.362 114.918 148.403 113.884 149.873C113.367 150.608 112.947 151.2 112.657 151.609C112.512 151.813 112.399 151.972 112.322 152.079C112.284 152.133 112.255 152.174 112.235 152.202C112.225 152.215 112.218 152.226 112.213 152.233C112.21 152.237 112.208 152.239 112.207 152.241C112.206 152.242 112.206 152.243 112.205 152.243C112.205 152.243 112.205 152.243 112.205 152.244C112.205 152.244 112.205 152.244 111.392 151.662C110.578 151.08 110.578 151.08 110.578 151.08C110.578 151.08 110.579 151.08 110.579 151.079C110.579 151.079 110.579 151.078 110.58 151.077C110.581 151.076 110.583 151.073 110.586 151.07C110.59 151.063 110.598 151.053 110.607 151.039C110.627 151.012 110.656 150.971 110.694 150.918C110.77 150.812 110.882 150.654 111.026 150.451C111.315 150.044 111.733 149.454 112.248 148.722C113.278 147.257 114.698 145.224 116.256 142.948C119.377 138.386 123.03 132.884 125.22 129.035L126.958 130.024ZM126.34 129.222C126.369 129.178 126.413 129.083 126.407 128.95C126.402 128.823 126.353 128.724 126.306 128.663C126.227 128.561 126.129 128.526 126.031 128.532L126.147 130.528C125.601 130.56 125.06 130.319 124.727 129.891C124.345 129.399 124.276 128.701 124.685 128.099L126.34 129.222ZM126.333 129.231L126.332 129.232L124.692 128.088L124.693 128.087L126.333 129.231ZM126.334 129.23L126.333 129.231L124.693 128.087L124.694 128.086L126.334 129.23ZM126.335 129.229L126.334 129.23L124.694 128.086L126.335 129.229ZM126.336 129.228L126.335 129.229L124.694 128.086L124.695 128.084L126.336 129.228ZM126.372 129.176L126.338 129.224L124.693 128.087L124.726 128.039L126.372 129.176ZM126.389 129.151L126.372 129.176L124.726 128.039L124.743 128.015L126.389 129.151ZM127.491 127.555C127.124 128.087 126.756 128.619 126.389 129.151L124.743 128.015C125.111 127.482 125.478 126.95 125.846 126.418L127.491 127.555ZM43.5387 119.772C43.3463 118.602 42.7746 116.734 41.9395 114.406C41.1117 112.098 40.0489 109.404 38.906 106.61L40.757 105.853C41.9043 108.657 42.9797 111.382 43.822 113.73C44.6569 116.058 45.2871 118.079 45.5122 119.448L43.5387 119.772ZM45.3156 126.848C44.5422 124.124 43.8602 121.728 43.5387 119.772L45.5122 119.448C45.811 121.265 46.4543 123.536 47.2395 126.302L45.3156 126.848ZM49.5061 148.296C48.959 139.688 46.9081 132.457 45.3156 126.848L47.2395 126.302C48.8318 131.91 50.9399 139.326 51.502 148.169L49.5061 148.296ZM49.5556 150.212C49.5562 149.5 49.5402 148.86 49.5059 148.293L51.5022 148.172C51.5396 148.79 51.5563 149.473 51.5556 150.214L49.5556 150.212ZM46.6336 147.348C48.2405 148.003 49.7109 148.664 51.0074 149.321L50.1038 151.105C48.866 150.478 47.4467 149.839 45.8782 149.199L46.6336 147.348ZM28.0057 126.246C28.2955 126.747 29.3997 128.236 31.0165 130.281C32.6085 132.295 34.6422 134.78 36.736 137.235C38.8315 139.692 40.9782 142.107 42.7979 143.984C43.7087 144.924 44.5267 145.718 45.2087 146.311C45.9225 146.933 46.3942 147.251 46.6297 147.346L45.8821 149.201C45.3015 148.967 44.6055 148.438 43.8954 147.82C43.1535 147.174 42.2917 146.336 41.3618 145.376C39.5002 143.455 37.3227 141.005 35.2144 138.533C33.1045 136.059 31.055 133.555 29.4475 131.521C27.8647 129.519 26.6532 127.903 26.2744 127.248L28.0057 126.246ZM40.5576 106.919C37.7631 109.87 34.341 114.459 31.7607 118.555C30.4707 120.603 29.4105 122.497 28.7476 123.98C28.4144 124.725 28.1979 125.33 28.0954 125.779C28.0441 126.004 28.0288 126.158 28.0299 126.252C28.0311 126.355 28.0506 126.322 27.9993 126.235L26.2808 127.259C26.0854 126.93 26.0334 126.572 26.03 126.275C26.0265 125.97 26.0734 125.65 26.1456 125.334C26.2898 124.702 26.5648 123.962 26.9218 123.164C27.6392 121.559 28.7544 119.575 30.0684 117.489C32.696 113.318 36.196 108.616 39.1054 105.544L40.5576 106.919Z" fill="#1499A2"/>
</g>
</svg>
