<svg width="21" height="21" viewBox="0 0 21 21" fill="none" xmlns="http://www.w3.org/2000/svg">
<path d="M20.3805 17.9106H2.5802C2.38405 17.9106 2.1879 17.7145 2.1879 17.5183V15.2136C2.1879 15.0175 2.38405 14.8213 2.5802 14.8213H20.3805C20.5767 14.8213 20.7728 15.0175 20.7728 15.2136V17.5183C20.7728 17.7145 20.5767 17.9106 20.3805 17.9106ZM2.97249 17.126H19.9883V15.6059H2.97249V17.126Z" fill="#1499A2"/>
<path d="M2.58076 21.0001H0.619293C0.423146 21.0001 0.226997 20.804 0.226997 20.6078V9.77071C0.226997 9.57456 0.423146 9.37842 0.619293 9.37842H2.0904C2.28654 9.37842 2.48268 9.52553 2.48268 9.72168L2.97305 15.1648C2.97305 15.3609 2.82594 15.5571 2.6298 15.6061C2.43365 15.6061 2.2375 15.459 2.18847 15.2628L1.74713 10.163H1.01158V20.2155H2.18847V17.5185C2.18847 17.3224 2.38462 17.1262 2.58076 17.1262C2.77691 17.1262 2.97305 17.3224 2.97305 17.5185V20.6078C2.97305 20.853 2.77691 21.0001 2.58076 21.0001Z" fill="#1499A2"/>
<path d="M20.3807 20.9994C20.1846 20.9994 19.9884 20.8033 19.9884 20.6071V17.5178C19.9884 17.3216 20.1846 17.1255 20.3807 17.1255C20.5769 17.1255 20.773 17.3216 20.773 17.5178V20.6071C20.773 20.8523 20.5769 20.9994 20.3807 20.9994Z" fill="#1499A2"/>
<path d="M6.35519 7.46546C4.93312 7.46546 3.75624 6.28859 3.75624 4.86652C3.75624 3.44445 4.93312 2.26758 6.35519 2.26758C7.77726 2.26758 8.95414 3.44445 8.95414 4.86652C8.95414 6.28859 7.77726 7.46546 6.35519 7.46546ZM6.35519 3.10121C5.37446 3.10121 4.54083 3.93484 4.54083 4.91558C4.54083 5.89631 5.37446 6.72991 6.35519 6.72991C7.33593 6.72991 8.16955 5.89631 8.16955 4.91558C8.16955 3.8858 7.33593 3.10121 6.35519 3.10121Z" fill="#1499A2"/>
<path d="M7.68274 15.6061H4.69149C4.49534 15.6061 4.2992 15.4099 4.2992 15.2138V10.261C4.2992 9.23128 5.13282 8.34863 6.21163 8.34863C7.2414 8.34863 8.07503 9.18224 8.07503 10.261V12.811L17.1959 14.7724C17.392 14.8215 17.5391 15.0176 17.4901 15.2138C17.4901 15.4099 17.2939 15.557 17.0978 15.557C13.9594 15.6061 7.92792 15.6061 7.68274 15.6061C7.73177 15.6061 7.73177 15.6061 7.68274 15.6061ZM5.08379 14.8215H7.68274V14.8705C7.92792 14.8215 8.41829 14.8215 9.15384 14.8215H13.4691L7.58466 13.5465C7.38852 13.4975 7.29044 13.3504 7.29044 13.1542V10.261C7.29044 9.67261 6.80007 9.18223 6.21163 9.18223C5.62319 9.18223 5.13283 9.67261 5.13283 10.261V14.8215H5.08379Z" fill="#1499A2"/>
<path d="M4.68893 15.605C4.54182 15.605 4.44375 15.556 4.34568 15.4579C4.19857 15.2618 4.2476 15.0166 4.44375 14.9185L7.43499 12.859C7.63114 12.7119 7.87633 12.7609 7.9744 12.9571C8.12151 13.1532 8.07247 13.3984 7.87632 13.4965L4.88508 15.556C4.88508 15.605 4.78701 15.605 4.68893 15.605Z" fill="#1499A2"/>
<path d="M16.1621 9.37817C13.9064 9.37817 12.0921 7.56382 12.0921 5.30813C12.0921 3.19955 13.6612 1.48326 15.7208 1.28711C15.8679 1.28711 16.015 1.33616 16.1131 1.48327C16.2111 1.63038 16.1621 1.77747 16.064 1.92458C15.6227 2.51302 15.4266 3.1505 15.4266 3.88605C15.4266 5.70041 16.8977 7.17152 18.663 7.17152C18.7611 7.17152 18.8591 7.17152 19.0062 7.17152C19.1534 7.17152 19.3005 7.22057 19.3985 7.36768C19.4966 7.51479 19.4476 7.66188 19.3495 7.80899C18.6139 8.78973 17.4371 9.37817 16.1621 9.37817ZM15.0343 2.26784C13.8083 2.70918 12.9257 3.9351 12.9257 5.30813C12.9257 7.12249 14.3968 8.5936 16.2111 8.5936C16.9467 8.5936 17.6822 8.34841 18.2217 7.85805C16.2602 7.61286 14.74 5.89657 14.74 3.83703C14.691 3.34666 14.7891 2.80725 15.0343 2.26784Z" fill="#1499A2"/>
<path d="M15.7212 12.6142C15.6231 12.6142 15.525 12.5652 15.4269 12.5162C15.2798 12.3691 15.2798 12.1239 15.4269 11.9767L16.1625 11.2412C16.3096 11.0941 16.5548 11.0941 16.7019 11.2412C16.849 11.3883 16.849 11.6335 16.7019 11.7806L15.9663 12.5162C15.9173 12.5652 15.8192 12.6142 15.7212 12.6142Z" fill="#1499A2"/>
<path d="M16.4567 12.6142C16.3586 12.6142 16.2606 12.5652 16.1625 12.5162L15.4269 11.7806C15.2798 11.6335 15.2798 11.3883 15.4269 11.2412C15.5741 11.0941 15.8192 11.0941 15.9663 11.2412L16.7019 11.9767C16.849 12.1239 16.849 12.3691 16.7019 12.5162C16.6529 12.5652 16.5548 12.6142 16.4567 12.6142Z" fill="#1499A2"/>
<path d="M9.59235 1.48339C9.49428 1.48339 9.39621 1.43434 9.29813 1.38531C9.15102 1.2382 9.15102 0.992994 9.29813 0.845884L10.0337 0.110333C10.1808 -0.0367776 10.426 -0.0367776 10.5731 0.110333C10.7202 0.257443 10.7202 0.502645 10.5731 0.649755L9.83753 1.38531C9.7885 1.43434 9.69042 1.48339 9.59235 1.48339Z" fill="#1499A2"/>
<path d="M10.3279 1.48339C10.2298 1.48339 10.1318 1.43434 10.0337 1.38531L9.29813 0.649755C9.15102 0.502645 9.15102 0.257443 9.29813 0.110333C9.44524 -0.0367776 9.69042 -0.0367776 9.83753 0.110333L10.5731 0.845884C10.7202 0.992994 10.7202 1.2382 10.5731 1.38531C10.524 1.43434 10.426 1.48339 10.3279 1.48339Z" fill="#1499A2"/>
<path d="M10.4753 9.91744C10.3772 9.91744 10.2792 9.86843 10.1811 9.81939C10.034 9.67228 10.034 9.42708 10.1811 9.27997L10.9166 8.54441C11.0637 8.3973 11.3089 8.3973 11.456 8.54441C11.6031 8.69153 11.6031 8.93673 11.456 9.08384L10.7205 9.81939C10.6714 9.86843 10.5734 9.91744 10.4753 9.91744Z" fill="#1499A2"/>
<path d="M11.2108 9.91744C11.1128 9.91744 11.0147 9.86843 10.9166 9.81939L10.1811 9.08384C10.034 8.93673 10.034 8.69153 10.1811 8.54441C10.3282 8.3973 10.5734 8.3973 10.7205 8.54441L11.456 9.27997C11.6031 9.42708 11.6031 9.67228 11.456 9.81939C11.407 9.86843 11.3089 9.91744 11.2108 9.91744Z" fill="#1499A2"/>
</svg>
