<svg width="27" height="19" viewBox="0 0 27 19" fill="none" xmlns="http://www.w3.org/2000/svg">
<path d="M7.83333 18.0001V17.4334C7.83333 16.1301 6.13333 15.7334 4.43333 15.7334C2.73333 15.7334 1.03333 16.1301 1.03333 17.4334V18.0001" stroke="#1499A2" stroke-width="0.9" stroke-linecap="round" stroke-linejoin="round"/>
<path d="M2.73328 11.7669C2.73328 10.8036 3.46994 10.0669 4.43328 10.0669C5.39661 10.0669 6.13328 10.8036 6.13328 11.7669V12.3336C6.13328 13.2969 5.39661 14.0336 4.43328 14.0336C3.46994 14.0336 2.73328 13.2969 2.73328 12.3336V11.7669Z" stroke="#1499A2" stroke-width="0.9" stroke-linecap="round" stroke-linejoin="round"/>
<path d="M16.9 18.0001V17.4334C16.9 16.1301 15.2 15.7334 13.5 15.7334C11.8 15.7334 10.1 16.1301 10.1 17.4334V18.0001" stroke="#1499A2" stroke-width="0.9" stroke-linecap="round" stroke-linejoin="round"/>
<path d="M11.8 11.7669C11.8 10.8036 12.5367 10.0669 13.5 10.0669C14.4634 10.0669 15.2 10.8036 15.2 11.7669V12.3336C15.2 13.2969 14.4634 14.0336 13.5 14.0336C12.5367 14.0336 11.8 13.2969 11.8 12.3336V11.7669Z" stroke="#1499A2" stroke-width="0.9" stroke-linecap="round" stroke-linejoin="round"/>
<path d="M11.8 8.3665C11.8 7.06317 10.1 6.6665 8.4 6.6665C6.7 6.6665 5 7.06317 5 8.3665" stroke="#1499A2" stroke-width="0.9" stroke-linecap="round" stroke-linejoin="round"/>
<path d="M6.69995 2.7C6.69995 1.73667 7.43662 1 8.39995 1C9.36328 1 10.1 1.73667 10.1 2.7V3.26667C10.1 4.23 9.36328 4.96667 8.39995 4.96667C7.43662 4.96667 6.69995 4.23 6.69995 3.26667V2.7Z" stroke="#1499A2" stroke-width="0.9" stroke-linecap="round" stroke-linejoin="round"/>
<path d="M25.9666 18.0001V17.4334C25.9666 16.1301 24.2666 15.7334 22.5666 15.7334C20.8666 15.7334 19.1666 16.1301 19.1666 17.4334V18.0001" stroke="#1499A2" stroke-width="0.9" stroke-linecap="round" stroke-linejoin="round"/>
<path d="M20.8667 11.7669C20.8667 10.8036 21.6034 10.0669 22.5667 10.0669C23.53 10.0669 24.2667 10.8036 24.2667 11.7669V12.3336C24.2667 13.2969 23.53 14.0336 22.5667 14.0336C21.6034 14.0336 20.8667 13.2969 20.8667 12.3336V11.7669Z" stroke="#1499A2" stroke-width="0.9" stroke-linecap="round" stroke-linejoin="round"/>
<path d="M22 8.3665C22 7.06317 20.3 6.6665 18.6 6.6665C16.9 6.6665 15.2 7.06317 15.2 8.3665" stroke="#1499A2" stroke-width="0.9" stroke-linecap="round" stroke-linejoin="round"/>
<path d="M16.9 2.7C16.9 1.73667 17.6367 1 18.6 1C19.5634 1 20.3 1.73667 20.3 2.7V3.26667C20.3 4.23 19.5634 4.96667 18.6 4.96667C17.6367 4.96667 16.9 4.23 16.9 3.26667V2.7Z" stroke="#1499A2" stroke-width="0.9" stroke-linecap="round" stroke-linejoin="round"/>
</svg>
