<svg width="29" height="17" viewBox="0 0 29 17" fill="none" xmlns="http://www.w3.org/2000/svg">
<path d="M14.465 7.02448C16.1286 7.02448 17.4772 5.67586 17.4772 4.01226C17.4772 2.34865 16.1286 1 14.465 1C12.8014 1 11.4528 2.34865 11.4528 4.01226C11.4528 5.67586 12.8014 7.02448 14.465 7.02448Z" stroke="#1499A2" stroke-width="0.9" stroke-miterlimit="10" stroke-linecap="round" stroke-linejoin="round"/>
<path d="M17.4781 15.9348V12.9854" stroke="#1499A2" stroke-width="0.9" stroke-miterlimit="10" stroke-linecap="round" stroke-linejoin="round"/>
<path d="M11.5134 15.9348V12.9854" stroke="#1499A2" stroke-width="0.9" stroke-miterlimit="10" stroke-linecap="round" stroke-linejoin="round"/>
<path d="M16.0356 8.5293L15.408 10.9767H13.5881L12.9606 8.5293" stroke="#1499A2" stroke-width="0.9" stroke-miterlimit="10" stroke-linecap="round" stroke-linejoin="round"/>
<path d="M15.408 10.9775H13.5881L12.9606 15.9352H16.0356L15.408 10.9775Z" stroke="#1499A2" stroke-width="0.9" stroke-miterlimit="10" stroke-linecap="round" stroke-linejoin="round"/>
<path d="M28.5257 13.6772V15.9364H20.4931V12.9869C20.4931 12.3593 20.3676 11.7318 20.1793 11.167C20.5558 10.5394 21.1206 10.0374 21.7482 9.72363C22.3757 10.2257 23.1288 10.4767 23.9446 10.4767C24.7604 10.4767 25.5135 10.2257 26.141 9.72363C26.5175 9.9119 26.8313 10.1629 27.1451 10.4767C27.9609 11.2925 28.5257 12.4221 28.5257 13.6772Z" stroke="#1499A2" stroke-width="0.9" stroke-miterlimit="10" stroke-linecap="round" stroke-linejoin="round"/>
<path d="M23.9424 9.0955C25.1901 9.0955 26.2015 8.08405 26.2015 6.83634C26.2015 5.58864 25.1901 4.57715 23.9424 4.57715C22.6947 4.57715 21.6832 5.58864 21.6832 6.83634C21.6832 8.08405 22.6947 9.0955 23.9424 9.0955Z" stroke="#1499A2" stroke-width="0.9" stroke-miterlimit="10" stroke-linecap="round" stroke-linejoin="round"/>
<path d="M21.6832 13.6768V15.936H26.2015V13.6768" stroke="#1499A2" stroke-width="0.9" stroke-miterlimit="10" stroke-linecap="round" stroke-linejoin="round"/>
<path d="M25.1324 10.2871L24.6303 12.107H23.2497L22.7477 10.2871" stroke="#1499A2" stroke-width="0.9" stroke-miterlimit="10" stroke-linecap="round" stroke-linejoin="round"/>
<path d="M24.6303 12.1064H23.2497L22.7477 15.9345H25.1324L24.6303 12.1064Z" stroke="#1499A2" stroke-width="0.9" stroke-miterlimit="10" stroke-linecap="round" stroke-linejoin="round"/>
<path d="M20.4308 12.9879V16.0001H8.50745V12.9879C8.50745 12.3604 8.63296 11.7328 8.82122 11.168C9.2605 9.72467 10.3273 8.4696 11.6452 7.7793C12.461 8.40684 13.4651 8.78336 14.5319 8.78336C15.5987 8.78336 16.6028 8.40684 17.4186 7.7793C17.9206 8.03032 18.3599 8.40683 18.7364 8.78336C19.4267 9.47366 19.9288 10.2895 20.1798 11.168C20.3681 11.7328 20.4308 12.3604 20.4308 12.9879Z" stroke="#1499A2" stroke-width="0.9" stroke-miterlimit="10" stroke-linecap="round" stroke-linejoin="round"/>
<path d="M8.82065 11.167C8.63239 11.7318 8.50688 12.3593 8.50688 12.9869V15.9364H0.474243V13.6772C0.474243 12.4221 0.976266 11.2925 1.79208 10.4767C2.10585 10.1629 2.41969 9.9119 2.79621 9.72363C3.42376 10.2257 4.17682 10.4767 4.99263 10.4767C5.80844 10.4767 6.5615 10.2257 7.18904 9.72363C7.87935 10.0374 8.38137 10.5394 8.82065 11.167Z" stroke="#1499A2" stroke-width="0.9" stroke-miterlimit="10" stroke-linecap="round" stroke-linejoin="round"/>
<path d="M4.99324 9.0955C6.24095 9.0955 7.2524 8.08405 7.2524 6.83634C7.2524 5.58864 6.24095 4.57715 4.99324 4.57715C3.74554 4.57715 2.73401 5.58864 2.73401 6.83634C2.73401 8.08405 3.74554 9.0955 4.99324 9.0955Z" stroke="#1499A2" stroke-width="0.9" stroke-miterlimit="10" stroke-linecap="round" stroke-linejoin="round"/>
<path d="M7.31513 13.6748V15.934H2.73401V13.6748" stroke="#1499A2" stroke-width="0.9" stroke-miterlimit="10" stroke-linecap="round" stroke-linejoin="round"/>
<path d="M3.85901 10.2871L4.29826 12.107H5.74165L6.1809 10.2871" stroke="#1499A2" stroke-width="0.9" stroke-miterlimit="10" stroke-linecap="round" stroke-linejoin="round"/>
<path d="M4.29826 12.1064H5.74165L6.1809 15.9345H3.85901L4.29826 12.1064Z" stroke="#1499A2" stroke-width="0.9" stroke-miterlimit="10" stroke-linecap="round" stroke-linejoin="round"/>
</svg>
