<svg width="13" height="19" viewBox="0 0 13 19" fill="none" xmlns="http://www.w3.org/2000/svg">
<path d="M8.39943 15.9243V17.9999H4.55741V15.9243" stroke="#1499A2" stroke-width="0.9" stroke-miterlimit="10" stroke-linecap="round" stroke-linejoin="round"/>
<path d="M6.49534 13.2765C7.30019 13.2765 7.95265 12.6438 7.95265 11.8634C7.95265 11.0829 7.30019 10.4502 6.49534 10.4502C5.69049 10.4502 5.038 11.0829 5.038 11.8634C5.038 12.6438 5.69049 13.2765 6.49534 13.2765Z" stroke="#1499A2" stroke-width="0.9" stroke-miterlimit="10" stroke-linecap="round" stroke-linejoin="round"/>
<path d="M9.81091 6.74116V8.77257H3.31922V6.74116C3.31922 5.63713 4.20244 4.75391 5.30647 4.75391H7.77948C8.88351 4.75391 9.81091 5.63713 9.81091 6.74116Z" stroke="#1499A2" stroke-width="0.9" stroke-miterlimit="10" stroke-linecap="round" stroke-linejoin="round"/>
<path d="M8.61693 7.09375V8.81603H4.46577V7.09375" stroke="#1499A2" stroke-width="0.9" stroke-miterlimit="10" stroke-linecap="round" stroke-linejoin="round"/>
<path d="M6.54385 4.1796C7.42188 4.1796 8.13364 3.46783 8.13364 2.5898C8.13364 1.71178 7.42188 1 6.54385 1C5.66583 1 4.95406 1.71178 4.95406 2.5898C4.95406 3.46783 5.66583 4.1796 6.54385 4.1796Z" stroke="#1499A2" stroke-width="0.9" stroke-miterlimit="10" stroke-linecap="round" stroke-linejoin="round"/>
<path d="M5.9658 4.75391H7.11398L6.93735 5.63713H6.1866L5.9658 4.75391Z" stroke="#1499A2" stroke-width="0.9" stroke-miterlimit="10" stroke-linecap="round" stroke-linejoin="round"/>
<path d="M6.19172 5.63867L5.92673 8.06753L6.14754 8.81827H6.94246L7.20742 8.06753L6.94246 5.63867H6.19172Z" stroke="#1499A2" stroke-width="0.9" stroke-miterlimit="10" stroke-linecap="round" stroke-linejoin="round"/>
<path d="M9.46141 15.6182V17.9588H3.54384V15.6182C3.54384 14.6025 4.38291 13.8076 5.39861 13.8076C5.44277 13.8076 5.6194 13.9401 5.79605 14.1167C6.1935 14.5142 6.85592 14.5142 7.29753 14.1167C7.47418 13.9401 7.65081 13.8076 7.69497 13.8076C8.2249 13.8076 8.66652 14.0284 8.97565 14.3375C9.24062 14.6908 9.46141 15.1325 9.46141 15.6182Z" stroke="#1499A2" stroke-width="0.9" stroke-miterlimit="10" stroke-linecap="round" stroke-linejoin="round"/>
<path d="M9.45878 16.7635V15.6153C9.45878 15.1295 9.238 14.6437 8.92887 14.3346C8.61975 14.0255 8.13396 13.8047 7.64819 13.8047C7.60403 13.8047 7.42737 13.9371 7.25073 14.1138C6.85328 14.5112 6.19088 14.5112 5.74927 14.1138C5.57262 13.9371 5.39597 13.8047 5.35181 13.8047C4.3361 13.8047 3.49703 14.5996 3.49703 15.6153V16.7635H0.670738L1.81892 8.81445H11.1811L12.3293 16.7635H9.45878Z" stroke="#1499A2" stroke-width="0.9" stroke-miterlimit="10" stroke-linecap="round" stroke-linejoin="round"/>
</svg>
