<svg width="15" height="21" viewBox="0 0 15 21" fill="none" xmlns="http://www.w3.org/2000/svg">
<path d="M8.62754 21C7.77551 21 7.12396 20.3484 7.12396 19.4964V13.1313L5.77074 14.1337L6.67288 14.685C6.82324 14.7852 6.92348 14.9857 6.82324 15.1862C6.723 15.3365 6.52252 15.4368 6.32205 15.3365L5.21942 14.685C5.06907 14.5847 4.96883 14.4344 4.96883 14.2339C4.96883 14.0334 5.01894 13.8831 5.1693 13.7828L7.27432 12.2291C7.37456 12.1289 7.52491 12.1289 7.62515 12.179C7.72539 12.2291 7.82563 12.3795 7.82563 12.4797V19.5465C7.82563 19.9976 8.17647 20.3484 8.62754 20.3484C9.07861 20.3484 9.42945 19.9976 9.42945 19.5465V14.4845C9.42945 14.4344 9.42945 14.4344 9.42945 14.3842V7.01671C9.42945 6.91647 9.47957 6.76611 9.5798 6.71599L12.186 4.96181C12.3364 4.86158 12.4867 4.6611 12.5368 4.46062L13.5392 1.35322C13.5894 1.20287 13.5392 1.00239 13.4891 0.902149C13.3889 0.751791 13.2385 0.701671 13.0882 0.701671C12.8376 0.701671 12.6371 0.852028 12.587 1.05251L11.7851 3.65871C11.6848 3.95943 11.4843 4.21003 11.2337 4.4105L9.22897 5.66349C9.07861 5.76372 8.82802 5.7136 8.72778 5.56324C8.62754 5.41289 8.67766 5.16229 8.82801 5.06205L10.8328 3.80907C10.9831 3.70883 11.0333 3.60859 11.0834 3.45823L11.8853 0.852031C12.0357 0.350838 12.5368 0 13.038 0C13.439 0 13.7898 0.200477 14.0404 0.501193C14.291 0.801909 14.3411 1.20287 14.2409 1.60382L13.2385 4.71122C13.1383 5.06205 12.8877 5.36277 12.587 5.56324L10.1311 7.21718V14.4845C10.1311 14.5346 10.1311 14.5346 10.1311 14.5847V19.5465C10.1311 20.2983 9.47957 21 8.62754 21ZM5.92109 17.2912C5.87097 17.2912 5.77074 17.2912 5.72062 17.2411L2.91393 15.1862C2.61322 14.9857 2.41274 14.6348 2.36262 14.284C2.3125 13.9332 2.41274 13.5322 2.66334 13.2816L4.31727 11.327C4.61799 10.9761 4.76835 10.5251 4.76835 10.1241V7.21718L2.3125 5.56324C2.01179 5.36277 1.76119 5.06205 1.66095 4.71122L0.658562 1.60382C0.558324 1.20287 0.608448 0.801909 0.859044 0.501193C1.10964 0.200477 1.46048 0 1.86143 0C2.41274 0 2.86382 0.350838 3.01418 0.852031L3.81608 3.45823C3.8662 3.60859 3.96644 3.70883 4.06668 3.80907L6.07145 5.06205C6.22181 5.16229 6.27193 5.36277 6.17169 5.56324C6.07145 5.7136 5.87097 5.76372 5.6705 5.66349L3.66572 4.4105C3.41513 4.26014 3.16453 3.95943 3.11441 3.65871L2.3125 1.05251C2.26238 0.852028 2.06191 0.701671 1.81131 0.701671C1.66095 0.701671 1.51059 0.801911 1.41035 0.902149C1.31011 1.05251 1.26 1.20287 1.36024 1.35322L2.36262 4.46062C2.41274 4.6611 2.5631 4.81146 2.71346 4.96181L5.31966 6.71599C5.4199 6.76611 5.47002 6.91647 5.47002 7.01671V10.1241C5.47002 10.7255 5.26955 11.327 4.86859 11.8282L3.21465 13.7828C3.11441 13.9332 3.06429 14.0835 3.06429 14.284C3.06429 14.4845 3.16453 14.6348 3.31489 14.7351L6.12157 16.79C6.27193 16.8902 6.32205 17.1408 6.22181 17.2912C6.12157 17.241 6.02133 17.2912 5.92109 17.2912Z" fill="#1499A2"/>
<path d="M6.47224 17.4914C6.22164 17.4914 5.97104 17.4413 5.72045 17.291L5.51997 17.1406C5.36962 17.0404 5.31949 16.8399 5.41973 16.6394C5.51997 16.4891 5.77056 16.4389 5.92092 16.5392L6.1214 16.6895C6.32188 16.8399 6.57248 16.8399 6.77296 16.7396C6.97343 16.6394 7.12379 16.3888 7.12379 16.1382C7.12379 15.8876 7.02355 15.6871 6.82307 15.5869L5.97104 15.0857C5.82069 14.9855 5.77057 14.785 5.87081 14.5845C5.97105 14.4342 6.17152 14.384 6.372 14.4843L7.22403 14.9855C7.62498 15.2361 7.87558 15.6871 7.87558 16.1382C7.87558 16.6394 7.62498 17.0905 7.17391 17.3411C6.92331 17.3912 6.67272 17.4914 6.47224 17.4914Z" fill="#1499A2"/>
<path d="M7.47534 4.31025C6.47295 4.31025 5.67104 3.50834 5.67104 2.50596C5.67104 1.50357 6.47295 0.70166 7.47534 0.70166C8.47773 0.70166 9.27964 1.50357 9.27964 2.50596C9.32976 3.50834 8.47773 4.31025 7.47534 4.31025ZM7.47534 1.40333C6.87391 1.40333 6.37271 1.90452 6.37271 2.50596C6.37271 3.10739 6.87391 3.60858 7.47534 3.60858C8.07677 3.60858 8.57796 3.10739 8.57796 2.50596C8.62808 1.90452 8.07677 1.40333 7.47534 1.40333Z" fill="#1499A2"/>
<path d="M14.3914 21H0.608593C0.408116 21 0.257759 20.8497 0.257759 20.6492C0.257759 20.4487 0.408116 20.2983 0.608593 20.2983H14.3914C14.5919 20.2983 14.7422 20.4487 14.7422 20.6492C14.7422 20.8497 14.5418 21 14.3914 21Z" fill="#1499A2"/>
</svg>
