<svg width="19" height="21" viewBox="0 0 19 21" fill="none" xmlns="http://www.w3.org/2000/svg">
<path d="M13.38 20.9996H5.62116C4.69196 20.9996 3.90215 20.3956 3.62339 19.5129L2.13667 14.3559C1.95083 13.659 2.04375 12.9621 2.41543 12.3581C2.78711 11.7541 3.39109 11.336 4.08799 11.1966C5.5747 10.8714 6.82912 9.98863 7.47956 8.78067L7.71185 8.36253C7.71185 8.36253 7.71186 8.31607 7.75832 8.31607C7.85124 8.17669 8.08354 8.13023 8.22292 8.22315C9.0592 8.64128 10.0349 8.64128 10.8711 8.22315C10.9641 8.17669 11.057 8.17669 11.1499 8.22315C11.2428 8.26961 11.3357 8.31607 11.3822 8.40899L11.6145 8.82713C12.2649 10.0351 13.5193 10.9178 15.0061 11.243C15.703 11.3824 16.3069 11.8006 16.6786 12.4045C17.0503 13.0085 17.1432 13.7519 16.9574 14.4023L15.4707 19.5594C15.099 20.3956 14.3092 20.9996 13.38 20.9996ZM8.17645 9.01297L8.13001 9.10589C7.38665 10.4997 5.94638 11.5218 4.22736 11.8935C3.7163 11.9864 3.29816 12.3116 3.06586 12.7298C2.7871 13.1479 2.74065 13.659 2.88003 14.17L4.36675 19.3271C4.50613 19.8846 5.06364 20.3027 5.62116 20.3027H13.38C13.9839 20.3027 14.495 19.931 14.6344 19.3271L16.1211 14.17C16.2605 13.7054 16.214 13.1944 15.9353 12.7298C15.6565 12.3116 15.2384 11.9864 14.7738 11.8935C13.0548 11.5218 11.661 10.5461 10.8711 9.10589L10.8247 9.01297C9.9884 9.33819 9.01273 9.33819 8.17645 9.01297Z" fill="#1499A2"/>
<path d="M7.38643 20.9993C7.20059 20.9993 7.06121 20.8599 7.01475 20.6741L6.2714 15.4241C6.22494 15.2383 6.36431 15.0524 6.59661 15.006C6.78245 14.9595 6.96829 15.0989 7.01475 15.3312L7.75811 20.5812C7.80457 20.767 7.6652 20.9528 7.4329 20.9993C7.38644 20.9993 7.38643 20.9993 7.38643 20.9993Z" fill="#1499A2"/>
<path d="M11.6127 21.0002H11.5662C11.3804 20.9537 11.241 20.7679 11.241 20.582L11.9844 15.3321C12.0308 15.1462 12.2167 15.0068 12.4025 15.0068C12.5883 15.0533 12.7277 15.2391 12.7277 15.425L11.9844 20.6749C11.9844 20.8608 11.7985 21.0002 11.6127 21.0002Z" fill="#1499A2"/>
<path d="M9.52399 12.0794C8.31604 12.0794 7.06162 11.7077 6.0395 10.9643C5.85366 10.8249 5.85366 10.6391 5.94658 10.4533C6.08596 10.2674 6.2718 10.2674 6.45764 10.3603C8.31603 11.6612 10.7784 11.6612 12.5903 10.3603C12.7762 10.221 13.0085 10.2674 13.1014 10.4533C13.2408 10.6391 13.1943 10.8714 13.0085 10.9643C11.9399 11.7077 10.732 12.0794 9.52399 12.0794Z" fill="#1499A2"/>
<path d="M9.52413 9.24552C7.4799 9.24552 5.80734 7.57297 5.80734 5.52873V3.71679C5.80734 1.67256 7.4799 0 9.52413 0C11.5684 0 13.2409 1.67256 13.2409 3.71679V5.52873C13.2409 7.61943 11.5684 9.24552 9.52413 9.24552ZM9.52413 0.743361C7.89803 0.743361 6.55069 2.0907 6.55069 3.71679V5.52873C6.55069 7.15483 7.89803 8.50216 9.52413 8.50216C11.1502 8.50216 12.4976 7.15483 12.4976 5.52873V3.71679C12.4976 2.0907 11.1502 0.743361 9.52413 0.743361Z" fill="#1499A2"/>
<path d="M8.08261 4.69289C7.47863 4.69289 6.96758 4.32121 6.96758 3.81015C6.96758 3.62431 7.15341 3.43848 7.33925 3.43848C7.52509 3.43848 7.71092 3.62431 7.71092 3.81015C7.71092 3.85661 7.85031 3.94953 8.08261 3.94953C8.31491 3.94953 8.45428 3.85661 8.45428 3.81015C8.45428 3.62431 8.64013 3.43848 8.82597 3.43848C9.01181 3.43848 9.19764 3.62431 9.19764 3.81015C9.19764 4.27475 8.68659 4.69289 8.08261 4.69289Z" fill="#1499A2"/>
<path d="M10.9147 4.69289C10.3107 4.69289 9.79961 4.32121 9.79961 3.81015C9.79961 3.62431 9.93899 3.48493 10.1248 3.48493C10.3107 3.43847 10.4965 3.62431 10.4965 3.81015C10.4965 3.85661 10.6359 3.94953 10.8682 3.94953C11.1005 3.94953 11.2399 3.81015 11.2399 3.81015C11.2399 3.62431 11.4257 3.43848 11.6116 3.43848C11.7974 3.43848 11.9832 3.62431 11.9832 3.81015C12.0297 4.27475 11.5186 4.69289 10.9147 4.69289Z" fill="#1499A2"/>
<path d="M8.36282 6.96816C8.31636 6.96816 8.26989 6.96816 8.22343 6.96816C8.03759 6.9217 7.94467 6.6894 7.99113 6.50356C8.22343 5.89958 8.78096 5.48145 9.47786 5.48145C10.1748 5.48145 10.7787 5.89958 10.9646 6.50356C11.011 6.6894 10.9181 6.9217 10.7323 6.96816C10.5464 7.01462 10.3141 6.9217 10.2677 6.73586C10.1747 6.41064 9.84954 6.22481 9.47786 6.22481C9.10618 6.22481 8.78095 6.4571 8.68803 6.73586C8.64157 6.87524 8.5022 6.96816 8.36282 6.96816Z" fill="#1499A2"/>
<path d="M18.3971 6.17895C18.3506 6.17895 18.2577 6.17895 18.2112 6.13249C17.6537 5.80727 17.282 5.20329 17.282 4.55285C17.282 3.90241 17.6072 3.29844 18.2112 2.97322C18.3971 2.8803 18.6294 2.92675 18.7223 3.11259C18.8152 3.29843 18.7688 3.53074 18.5829 3.62366C18.2577 3.80949 18.0254 4.18117 18.0254 4.55285C18.0254 4.92453 18.2112 5.29621 18.5829 5.48205C18.7688 5.57497 18.8152 5.80727 18.7223 5.99311C18.6758 6.13249 18.5364 6.17895 18.3971 6.17895Z" fill="#1499A2"/>
<path d="M17.6545 7.48076C17.6081 7.48076 17.5151 7.48075 17.4687 7.43429C16.4466 6.83031 15.8426 5.76174 15.8426 4.60024C15.8426 3.43875 16.4466 2.37016 17.4687 1.76619C17.6545 1.67327 17.8868 1.71973 17.9797 1.90557C18.0727 2.09141 18.0262 2.3237 17.8404 2.41662C17.0505 2.88122 16.5859 3.71751 16.5859 4.60024C16.5859 5.48298 17.0505 6.36572 17.8404 6.78386C18.0262 6.87678 18.0727 7.10907 17.9797 7.29491C17.8868 7.38783 17.7474 7.48076 17.6545 7.48076Z" fill="#1499A2"/>
<path d="M16.2773 9.00568C16.1844 9.00568 16.1379 9.00568 16.0915 8.95922C14.7906 8.07648 14.0008 6.58976 14.0008 5.01013C14.0008 3.43049 14.7906 1.94377 16.0915 1.06104C16.2773 0.968115 16.5096 0.968114 16.6025 1.15395C16.6955 1.33979 16.6954 1.57209 16.5096 1.66501C15.3946 2.40837 14.7441 3.66279 14.7441 5.01013C14.7441 6.35746 15.3946 7.61188 16.5096 8.35524C16.6954 8.44816 16.7419 8.68045 16.6025 8.86629C16.5096 8.95921 16.3702 9.00568 16.2773 9.00568Z" fill="#1499A2"/>
<path d="M0.60293 6.17895C0.46355 6.17895 0.370624 6.13249 0.277705 5.99311C0.184785 5.80727 0.231253 5.57497 0.417093 5.48205C0.742312 5.29621 0.974603 4.92453 0.974603 4.55285C0.974603 4.18117 0.788772 3.80949 0.417093 3.62366C0.231253 3.53074 0.184785 3.29843 0.277705 3.11259C0.370624 2.92675 0.602927 2.8803 0.788766 2.97322C1.34629 3.29844 1.71796 3.90241 1.71796 4.55285C1.71796 5.20329 1.34629 5.80727 0.788766 6.13249C0.695847 6.17895 0.64939 6.17895 0.60293 6.17895Z" fill="#1499A2"/>
<path d="M1.34707 7.48076C1.20769 7.48076 1.11477 7.43429 1.02185 7.29491C0.928925 7.10907 0.975394 6.87678 1.16123 6.78386C1.95105 6.31926 2.41564 5.48298 2.41564 4.60024C2.41564 3.71751 1.95105 2.83476 1.16123 2.41662C0.975394 2.3237 0.928925 2.09141 1.02185 1.90557C1.11477 1.71973 1.34707 1.67327 1.53291 1.76619C2.55503 2.37016 3.159 3.43875 3.159 4.60024C3.159 5.76174 2.55503 6.83031 1.53291 7.43429C1.48645 7.43429 1.43999 7.48076 1.34707 7.48076Z" fill="#1499A2"/>
<path d="M2.36797 8.59502C2.22859 8.59502 2.13568 8.54856 2.04276 8.45564C1.94984 8.2698 1.94983 8.0375 2.13567 7.94458C3.25071 7.20122 3.90116 5.94681 3.90116 4.59947C3.90116 3.25213 3.25071 1.99771 2.13567 1.25435C1.94983 1.16143 1.90338 0.929136 2.04276 0.743296C2.13568 0.557457 2.36798 0.510998 2.55382 0.650378C3.8547 1.53312 4.64452 3.01983 4.64452 4.59947C4.64452 6.17911 3.8547 7.66582 2.55382 8.54856C2.50736 8.59502 2.46089 8.59502 2.36797 8.59502Z" fill="#1499A2"/>
</svg>
