<svg width="19" height="21" viewBox="0 0 19 21" fill="none" xmlns="http://www.w3.org/2000/svg">
<path d="M7.90268 7.31153C7.2933 7.31153 6.77767 6.7959 6.77767 6.18653C6.77767 5.57715 7.2933 5.06152 7.90268 5.06152C8.51205 5.06152 9.02768 5.57715 9.02768 6.18653C9.02768 6.7959 8.51205 7.31153 7.90268 7.31153ZM7.90268 5.81152C7.71518 5.81152 7.52767 5.99902 7.52767 6.18653C7.52767 6.37403 7.71518 6.56153 7.90268 6.56153C8.09018 6.56153 8.27768 6.37403 8.27768 6.18653C8.27768 5.99902 8.13705 5.81152 7.90268 5.81152Z" fill="#1499A2"/>
<path d="M11.1368 7.31153C10.5274 7.31153 10.0118 6.7959 10.0118 6.18653C10.0118 5.57715 10.5274 5.06152 11.1368 5.06152C11.7462 5.06152 12.2618 5.57715 12.2618 6.18653C12.2618 6.7959 11.7462 7.31153 11.1368 7.31153ZM11.1368 5.81152C10.9493 5.81152 10.7618 5.99902 10.7618 6.18653C10.7618 6.37403 10.9493 6.56153 11.1368 6.56153C11.3243 6.56153 11.5118 6.37403 11.5118 6.18653C11.5118 5.99902 11.3243 5.81152 11.1368 5.81152Z" fill="#1499A2"/>
<path d="M10.7132 9.60841C10.5257 9.60841 10.3382 9.4209 10.3382 9.2334C10.3382 8.99903 10.0101 8.71777 9.54137 8.71777C9.07262 8.71777 8.74449 8.99903 8.74449 9.2334C8.74449 9.4209 8.55699 9.60841 8.36949 9.60841C8.18199 9.60841 7.99449 9.4209 7.99449 9.2334C7.99449 8.53027 8.69762 7.96777 9.54137 7.96777C10.432 7.96777 11.0883 8.53027 11.0883 9.2334C11.0883 9.4209 10.9008 9.60841 10.7132 9.60841Z" fill="#1499A2"/>
<path d="M10.2933 4.21876H6.44954C6.26204 4.21876 6.07454 4.03125 6.07454 3.84375C6.07454 3.65625 6.26204 3.46875 6.44954 3.46875H10.2933C10.4808 3.46875 10.6683 3.65625 10.6683 3.84375C10.6683 4.07813 10.4808 4.21876 10.2933 4.21876Z" fill="#1499A2"/>
<path d="M16.2014 17.0153H2.842C2.6545 17.0153 2.467 16.8278 2.467 16.6403V14.7184C2.467 13.5466 3.45137 12.5622 4.62325 12.5622C5.93576 12.5622 7.10764 11.8122 7.62327 10.6403C7.71702 10.4528 7.95139 10.359 8.13889 10.4528C8.32639 10.5465 8.42015 10.7809 8.32639 10.9684C7.67014 12.4215 6.21701 13.3591 4.62325 13.3591C3.82638 13.3591 3.217 13.9684 3.217 14.7653V16.3122H15.8264V14.7653C15.8264 13.9684 15.217 13.3591 14.4202 13.3591C12.8264 13.3591 11.3733 12.4215 10.717 10.9684C10.6233 10.7809 10.717 10.5465 10.9045 10.4528C11.092 10.359 11.3264 10.4528 11.4202 10.6403C11.9358 11.8122 13.1545 12.5622 14.4202 12.5622C15.592 12.5622 16.5764 13.5466 16.5764 14.7184V16.6403C16.5764 16.8747 16.3889 17.0153 16.2014 17.0153Z" fill="#1499A2"/>
<path d="M9.49642 11.4834C7.34016 11.4834 5.5589 9.79593 5.46515 7.63967V5.48341C5.65265 3.37403 7.38704 1.78027 9.49642 1.78027C11.5589 1.78027 13.2933 3.32715 13.5277 5.43653C13.5277 5.43653 13.5277 5.43654 13.5277 5.48341V7.63967C13.4808 9.79593 11.6996 11.4834 9.49642 11.4834ZM9.49642 2.53027C7.76204 2.53027 6.35578 3.79591 6.21516 5.53029V7.63967C6.30891 9.37406 7.76204 10.7803 9.49642 10.7803C11.2777 10.7803 12.7308 9.37406 12.7777 7.63967V5.53029C12.6371 3.79591 11.2308 2.53027 9.49642 2.53027Z" fill="#1499A2"/>
<path d="M13.387 13.1719C13.3401 13.1719 13.3401 13.1719 13.2933 13.1719C12.1683 12.8438 11.2776 12.0469 10.762 11.0157C10.7151 10.9688 10.7151 10.9219 10.7151 10.875C10.6682 10.6875 10.762 10.5469 10.9026 10.4532C12.0276 9.93754 12.7776 8.85941 12.8245 7.59378V5.4844C12.637 3.84376 11.2307 2.57814 9.54324 2.57814C7.80886 2.57814 6.4026 3.84376 6.26198 5.57815V7.68753C6.30885 8.90628 7.05886 9.98441 8.18386 10.5C8.32449 10.5938 8.41824 10.7344 8.37136 10.9219C8.37136 10.9688 8.32448 11.0157 8.32448 11.0625C7.80886 12.0938 6.91823 12.8907 5.79322 13.2188C5.69947 13.2657 5.60572 13.2188 5.51197 13.2188C2.79321 12 1.15258 9.60941 1.15258 7.03128C1.15258 3.14064 4.9026 0 9.54324 0C14.1839 0 17.9339 3.14064 17.9339 7.03128C17.9339 9.60941 16.2464 12 13.5745 13.2188C13.4808 13.1719 13.4339 13.1719 13.387 13.1719ZM9.49636 0.65625C5.2776 0.65625 1.85571 3.46876 1.85571 6.9844C1.85571 9.23441 3.30884 11.2969 5.6526 12.4219C6.4026 12.1875 7.05886 11.6719 7.43386 10.9688C6.26198 10.2657 5.51197 9.04691 5.4651 7.68753V5.53127C5.6526 3.42189 7.38698 1.82813 9.49636 1.82813C11.5589 1.82813 13.2933 3.37501 13.5276 5.4844V7.64066C13.4808 9.04691 12.7308 10.2657 11.5589 10.9688C11.9808 11.6719 12.5901 12.1875 13.3401 12.4219C15.6839 11.2969 17.137 9.23441 17.137 6.9844C17.1839 3.46876 13.7151 0.65625 9.49636 0.65625Z" fill="#1499A2"/>
<path d="M18.262 21H0.77757C0.59007 21 0.402569 20.8125 0.402569 20.625V18.0469C0.402569 17.0625 1.19945 16.3125 2.13695 16.3125H16.8558C17.8401 16.3125 18.5901 17.1094 18.5901 18.0469V20.625C18.637 20.8125 18.4495 21 18.262 21ZM1.15257 20.25H17.887V18.0469C17.887 17.4844 17.4183 17.0625 16.9026 17.0625H2.13695C1.57445 17.0625 1.15257 17.5312 1.15257 18.0469V20.25Z" fill="#1499A2"/>
</svg>
