<svg width="25" height="17" viewBox="0 0 25 17" fill="none" xmlns="http://www.w3.org/2000/svg">
<path d="M24.2746 6.90238H16.8956V0.42367C16.8956 0.194178 16.7014 0 16.4719 0H8.54567C8.31618 0 8.12199 0.194178 8.12199 0.42367V3.23053H0.725316C0.495825 3.23053 0.301636 3.42471 0.301636 3.6542V16.5763C0.301636 16.8058 0.495825 17 0.725316 17H8.54567H16.4719H24.2746C24.5041 17 24.6983 16.8058 24.6983 16.5763V7.30841C24.6983 7.09657 24.5041 6.90238 24.2746 6.90238ZM19.6672 12.6573H21.0794V16.3468H19.6672V12.6573ZM23.851 16.1703H21.5737V12.3925C21.5737 12.2513 21.4678 12.1454 21.3266 12.1454H19.4024C19.2611 12.1454 19.1552 12.2513 19.1552 12.3925V16.1703H16.878V7.74973H23.851V16.1703ZM1.14899 4.09553H8.12199V16.1703H5.84474V12.3925C5.84474 12.2513 5.73881 12.1454 5.59759 12.1454H3.67339C3.53217 12.1454 3.42625 12.2513 3.42625 12.3925V16.1703H1.16665V4.09553H1.14899ZM3.92054 12.6573H5.33279V16.3468H3.92054V12.6573ZM16.0483 7.32607V16.1703H13.6121V12.3925C13.6121 12.2513 13.5062 12.1454 13.365 12.1454H11.4408C11.2996 12.1454 11.1936 12.2513 11.1936 12.3925V16.1703H8.987V3.67186V0.864999H16.0483V7.29076C16.0483 7.29076 16.0483 7.30841 16.0483 7.32607ZM11.6879 16.3468V12.6573H13.1002V16.3468H11.6879Z" fill="#1499A2"/>
<path d="M12.0412 2.4707H10.1523C10.0111 2.4707 9.90515 2.57662 9.90515 2.71784V4.60673C9.90515 4.74796 10.0111 4.85388 10.1523 4.85388H12.0412C12.1824 4.85388 12.2883 4.74796 12.2883 4.60673V2.71784C12.306 2.57662 12.1824 2.4707 12.0412 2.4707ZM11.794 4.35958H10.3994V2.96499H11.794V4.35958Z" fill="#1499A2"/>
<path d="M14.9181 2.4707H13.0292C12.888 2.4707 12.7821 2.57662 12.7821 2.71784V4.60673C12.7821 4.74796 12.888 4.85388 13.0292 4.85388H14.9181C15.0594 4.85388 15.1653 4.74796 15.1653 4.60673V2.71784C15.1829 2.57662 15.0594 2.4707 14.9181 2.4707ZM14.671 4.35958H13.2764V2.96499H14.671V4.35958Z" fill="#1499A2"/>
<path d="M12.0412 5.5791H10.1523C10.0111 5.5791 9.90515 5.68502 9.90515 5.82625V7.71513C9.90515 7.85636 10.0111 7.96228 10.1523 7.96228H12.0412C12.1824 7.96228 12.2883 7.85636 12.2883 7.71513V5.82625C12.306 5.68502 12.1824 5.5791 12.0412 5.5791ZM11.794 7.46799H10.3994V6.07339H11.794V7.46799Z" fill="#1499A2"/>
<path d="M14.9181 5.5791H13.0292C12.888 5.5791 12.7821 5.68502 12.7821 5.82625V7.71513C12.7821 7.85636 12.888 7.96228 13.0292 7.96228H14.9181C15.0594 7.96228 15.1653 7.85636 15.1653 7.71513V5.82625C15.1829 5.68502 15.0594 5.5791 14.9181 5.5791ZM14.671 7.46799H13.2764V6.07339H14.671V7.46799Z" fill="#1499A2"/>
<path d="M12.0412 8.66797H10.1523C10.0111 8.66797 9.90515 8.77389 9.90515 8.91512V10.804C9.90515 10.9452 10.0111 11.0511 10.1523 11.0511H12.0412C12.1824 11.0511 12.2883 10.9452 12.2883 10.804V8.93277C12.306 8.79154 12.1824 8.66797 12.0412 8.66797ZM11.794 10.5745H10.3994V9.17991H11.794V10.5745Z" fill="#1499A2"/>
<path d="M14.9181 8.66797H13.0292C12.888 8.66797 12.7821 8.77389 12.7821 8.91512V10.804C12.7821 10.9452 12.888 11.0511 13.0292 11.0511H14.9181C15.0594 11.0511 15.1653 10.9452 15.1653 10.804V8.93277C15.1829 8.79154 15.0594 8.66797 14.9181 8.66797ZM14.671 10.5745H13.2764V9.17991H14.671V10.5745Z" fill="#1499A2"/>
<path d="M2.24409 7.97888H4.13298C4.27421 7.97888 4.38013 7.87297 4.38013 7.73174V5.84285C4.38013 5.70163 4.27421 5.5957 4.13298 5.5957H2.24409C2.10287 5.5957 1.99695 5.70163 1.99695 5.84285V7.73174C1.99695 7.85532 2.10287 7.97888 2.24409 7.97888ZM2.50889 6.07234H3.90349V7.46695H2.50889V6.07234Z" fill="#1499A2"/>
<path d="M5.12104 7.97888H7.00993C7.15116 7.97888 7.25708 7.87297 7.25708 7.73174V5.84285C7.25708 5.70163 7.15116 5.5957 7.00993 5.5957H5.12104C4.97982 5.5957 4.8739 5.70163 4.8739 5.84285V7.73174C4.8739 7.85532 4.97982 7.97888 5.12104 7.97888ZM5.38584 6.07234H6.78044V7.46695H5.38584V6.07234Z" fill="#1499A2"/>
<path d="M4.15056 11.0854C4.29179 11.0854 4.3977 10.9795 4.3977 10.8383V8.93172C4.3977 8.79049 4.29179 8.68457 4.15056 8.68457H2.26167C2.12044 8.68457 2.01453 8.79049 2.01453 8.93172V10.8206C2.01453 10.9618 2.12044 11.0677 2.26167 11.0677H4.15056V11.0854ZM2.50881 9.17887H3.90342V10.5735H2.50881V9.17887Z" fill="#1499A2"/>
<path d="M5.12129 11.0854H7.01017C7.1514 11.0854 7.25732 10.9795 7.25732 10.8383V8.93172C7.25732 8.79049 7.1514 8.68457 7.01017 8.68457H5.12129C4.98006 8.68457 4.87415 8.79049 4.87415 8.93172V10.8206C4.87415 10.9618 4.98006 11.0854 5.12129 11.0854ZM5.38609 9.17887H6.78069V10.5735H5.38609V9.17887Z" fill="#1499A2"/>
<path d="M17.9899 11.0854H19.8788C20.02 11.0854 20.126 10.9795 20.126 10.8383V8.93172C20.126 8.79049 20.02 8.68457 19.8788 8.68457H17.9899C17.8487 8.68457 17.7428 8.79049 17.7428 8.93172V10.8206C17.7251 10.9618 17.8487 11.0854 17.9899 11.0854ZM18.2371 9.17887H19.6317V10.5735H18.2371V9.17887Z" fill="#1499A2"/>
<path d="M20.8688 11.0854H22.7577C22.8989 11.0854 23.0049 10.9795 23.0049 10.8383V8.93172C23.0049 8.79049 22.8989 8.68457 22.7577 8.68457H20.8688C20.7276 8.68457 20.6217 8.79049 20.6217 8.93172V10.8206C20.604 10.9618 20.7276 11.0854 20.8688 11.0854ZM21.116 9.17887H22.5106V10.5735H21.116V9.17887Z" fill="#1499A2"/>
</svg>
