<svg width="53" height="53" viewBox="0 0 53 53" fill="none" xmlns="http://www.w3.org/2000/svg">
<g clip-path="url(#clip0_130_2)">
<path d="M26.5 53C41.1355 53 53 41.1355 53 26.5C53 11.8645 41.1355 0 26.5 0C11.8645 0 0 11.8645 0 26.5C0 41.1355 11.8645 53 26.5 53Z" fill="#66C1BD"/>
<path fill-rule="evenodd" clip-rule="evenodd" d="M33.0495 9.06423C33.0442 8.88275 32.8954 8.73848 32.7138 8.73877C32.5323 8.73906 32.3839 8.88381 32.3792 9.06531C32.3406 10.5378 32.2693 11.6495 32.1545 12.4897C32.09 12.9616 32.0129 13.3393 31.9239 13.6423C31.7938 13.5677 31.6535 13.4749 31.4997 13.3616C30.9796 12.978 30.3547 12.3968 29.5077 11.5967C29.3757 11.472 29.1684 11.475 29.0401 11.6035C28.9118 11.732 28.9092 11.9393 29.0341 12.0711L29.0587 12.0971C29.7127 12.787 30.2271 13.3298 30.624 13.7692C30.4938 13.7219 30.3619 13.6772 30.2285 13.6352C29.2665 13.332 28.3319 13.1805 27.4248 13.1805C26.2428 13.1805 25.1846 13.1943 24.25 13.2218C23.3429 13.2494 22.4908 13.2632 21.6936 13.2632C20.924 13.2632 20.1406 13.2494 19.3435 13.2218C18.5738 13.1667 17.7767 13.1254 16.952 13.0978C16.8421 13.208 16.7871 13.4009 16.7871 13.6765C16.8146 13.952 16.8696 14.1449 16.952 14.2551C17.117 14.2551 17.4056 14.2827 17.8179 14.3378C18.2577 14.3654 18.67 14.4205 19.0548 14.5031C19.4671 14.5858 19.687 14.7098 19.7145 14.8751C19.8245 15.2058 19.8795 15.6467 19.8795 16.1978C19.9069 16.7213 19.9207 17.2862 19.9207 17.8924L19.9619 35.1281C19.9619 35.7343 19.9482 36.2992 19.9207 36.8227C19.9207 37.3463 19.8657 37.7734 19.7558 38.1041C19.7283 38.2418 19.5084 38.3658 19.0961 38.476C18.7112 38.5863 18.2989 38.6689 17.8591 38.724C17.4193 38.7516 17.117 38.7654 16.952 38.7654C16.8696 38.8756 16.8146 39.0685 16.7871 39.344C16.7871 39.6196 16.8421 39.8125 16.952 39.9227C17.7767 39.8676 18.5875 39.8262 19.3847 39.7987C20.1818 39.7436 20.9652 39.716 21.7349 39.716C22.532 39.716 23.3017 39.7436 24.0438 39.7987C24.8135 39.8262 25.6106 39.8676 26.4352 39.9227C26.5452 39.8125 26.5864 39.6196 26.5589 39.344C26.5589 39.0685 26.5177 38.8756 26.4352 38.7654C26.2703 38.7654 25.968 38.7516 25.5282 38.724C25.0884 38.6689 24.676 38.5863 24.2912 38.476C23.9064 38.3658 23.6865 38.2418 23.6315 38.1041C23.5491 37.8285 23.4941 37.4841 23.4666 37.0707V35.6241V35.3761V35.1281V27.6056H25.5694C26.1741 27.6056 26.5864 27.7709 26.8063 28.1016C27.4385 29.0935 28.0982 30.1131 28.7854 31.1602C29.4726 32.1797 30.1186 33.1441 30.7233 34.0535C31.328 34.9628 31.8503 35.7343 32.2901 36.3681C32.7299 37.0019 33.0323 37.429 33.1972 37.6494C33.6645 38.2556 34.1455 38.6827 34.6403 38.9307C35.1351 39.1511 35.5199 39.3165 35.7948 39.4267C36.2071 39.5645 36.853 39.6885 37.7326 39.7987C38.6397 39.8814 39.7667 39.9227 41.1136 39.9227C41.1411 39.8676 41.1823 39.6885 41.2373 39.3854C41.2923 39.0823 41.2648 38.8756 41.1548 38.7654C40.0553 38.6827 39.162 38.4485 38.4748 38.0627C37.8151 37.6769 37.1966 37.0983 36.6194 36.3268C35.7398 35.1419 34.9427 34.0672 34.228 33.1028C33.5133 32.1108 32.8261 31.1188 32.1664 30.1269C31.5067 29.1349 30.8195 28.0465 30.1048 26.8616C31.0119 26.5585 31.8778 26.0625 32.7024 25.3736C33.5545 24.6847 34.2417 23.8856 34.764 22.9763C35.3137 22.067 35.5886 21.1301 35.5886 20.1657C35.5886 19.5484 35.5182 18.9742 35.3775 18.4432C35.5485 18.6054 35.7293 18.7769 35.921 18.958C36.053 19.0827 36.2603 19.0797 36.3886 18.9512C36.5169 18.8227 36.5196 18.6154 36.3947 18.4836C35.5931 17.638 35.0116 17.0148 34.6283 16.4962C34.5311 16.3647 34.4491 16.243 34.3807 16.1292C34.6683 15.9928 35.0387 15.8921 35.5255 15.8185C36.3478 15.6942 37.4425 15.6547 38.9272 15.6125C39.1087 15.6073 39.2531 15.4586 39.2529 15.277C39.2528 15.0955 39.1081 14.947 38.9266 14.9421C37.4419 14.9024 36.3485 14.8648 35.5278 14.7417C35.0402 14.6685 34.6701 14.5678 34.3831 14.431C34.4515 14.3172 34.5335 14.1955 34.6305 14.064C35.0142 13.5439 35.5954 12.9187 36.3953 12.0704C36.5198 11.9383 36.5166 11.7311 36.388 11.6029C36.2594 11.4748 36.0522 11.4722 35.9205 11.5972C35.0764 12.3982 34.4537 12.9796 33.9351 13.3628C33.8031 13.4604 33.681 13.5427 33.5667 13.6112C33.4308 13.3239 33.3304 12.9538 33.257 12.467C33.1329 11.6447 33.0932 10.5498 33.0495 9.06423ZM25.6519 14.5031C27.3316 14.5031 28.6437 14.8247 29.5882 15.4677C29.6315 15.5304 29.6956 15.5776 29.7705 15.5994C30.0029 15.7772 30.2106 15.9767 30.3935 16.1978C31.3555 17.3275 31.8366 18.7742 31.8366 20.5377C31.8366 21.7226 31.5342 22.7559 30.9295 23.6376C30.3247 24.4918 29.5413 25.1669 28.5793 25.6629C27.6447 26.1314 26.6551 26.3656 25.6106 26.3656H23.4666L23.4254 17.9337V16.1564C23.4528 15.5502 23.5216 15.1231 23.6315 14.8751C23.714 14.6822 24.0026 14.572 24.4974 14.5445C25.0196 14.5169 25.4045 14.5031 25.6519 14.5031Z" fill="#F9F9F9"/>
</g>
<defs>
<clipPath id="clip0_130_2">
<rect width="53" height="53" fill="white"/>
</clipPath>
</defs>
</svg>
