<svg width="83" height="89" viewBox="0 0 83 89" fill="none" xmlns="http://www.w3.org/2000/svg">
<g clip-path="url(#clip0_122_6)">
<path fill-rule="evenodd" clip-rule="evenodd" d="M41.0673 1.36035C47.8689 0.620938 54.9359 -1.57621 60.8035 1.93143C68.0167 6.24341 74.2474 13.2484 74.9322 21.6046C75.6532 30.4031 70.5218 38.481 64.3147 44.7776C58.0457 51.1369 49.9927 56.5354 41.0673 55.9575C32.4984 55.4026 25.5072 49.0134 20.656 41.9507C16.6118 36.0628 16.579 28.6846 17.4715 21.6046C18.2337 15.5578 20.5789 9.77624 25.2127 5.8006C29.5379 2.08975 35.3943 1.97709 41.0673 1.36035Z" fill="#D7E1E1"/>
<path fill-rule="evenodd" clip-rule="evenodd" d="M44.4664 33.2637C52.301 34.5166 55.3295 43.5293 60.8653 49.1967C66.2603 54.7198 76.0713 57.837 75.9996 65.5459C75.928 73.2504 66.7623 76.9928 60.5642 81.595C55.6418 85.2498 50.5972 88.6727 44.4664 88.9595C38.0246 89.2608 31.1187 87.9349 26.7837 83.1749C22.5784 78.5574 23.91 71.7359 23.1433 65.5459C22.179 57.7612 17.474 49.5005 21.8011 42.9494C26.5007 35.8343 36.0291 31.9143 44.4664 33.2637Z" fill="#F9F9F9"/>
<path d="M-6 39.2634C2.77882 40.9633 11.9556 40.6251 19.4604 38.8026C25.6673 37.2972 28.1233 40.5413 28.2243 42.6123C28.3253 44.6654 25.89 44.6714 25.495 42.762C25.1921 41.2985 25.3079 34.5977 23.9953 31.976C22.9558 29.8961 22.9677 23.1384 23.9953 22.893C25.0228 22.6506 25.4475 32.7063 26.2939 32.8888C27.1403 33.0714 26.4751 30.1445 27.6244 22.9528C28.7737 15.7612 33.6116 15.3931 31.6782 17.8322C29.7419 20.2713 28.1085 27.4629 28.1709 29.516C28.2303 31.569 28.8361 35.4477 28.0491 34.2894C26.9681 32.6973 26.5969 33.9243 24.42 34.2894C22.2431 34.6546 23.0895 32.0957 21.2749 31.2428C19.4603 30.3929 16.4786 28.2441 17.4617 26.613C18.712 24.542 23.3092 23.9315 22.1599 24.7844C21.0106 25.6373 21.6105 20.6664 23.0865 19.6249C24.6397 18.5265 29.0143 18.2033 28.0461 19.1789C27.078 20.1546 27.4136 16.683 29.0678 15.2285C30.6922 13.8009 35.5152 13.3849 33.9739 14.5461C32.5365 15.6295 34.8589 11.1164 37.0596 9.79062C39.2364 8.47979 43.712 8.20445 42.1409 9.06038C40.5669 9.91332 43.6971 5.80425 45.9958 5.25657C47.938 4.79269 48.6122 5.34037 50.0051 5.70848C51.3949 6.0736 51.095 3.8799 52.2443 3.8799C53.3936 3.8799 50.7861 2.38052 47.7688 3.29631C43.5724 4.56823 40.2016 3.11973 37.8198 5.11591C34.3125 8.05781 31.601 7.90218 29.5043 9.42849C27.3868 10.9668 27.0839 13.8698 26.2999 13.8787C24.6219 13.8937 23.2766 14.8125 23.0331 16.7428C22.7925 18.6552 20.3929 18.6313 19.7455 19.4662C18.7624 20.7352 20.28 22.1538 19.493 22.7643C18.706 23.3748 17.0102 23.7549 16.3925 25.4009C15.7748 27.0469 16.4994 30.0936 19.101 31.6798C21.7026 33.2659 21.8243 32.2903 21.7026 33.2659C21.5808 34.2416 20.9156 35.705 22.0055 35.6422C23.0954 35.5793 25.2099 34.1787 26.9057 34.5438C28.5985 34.909 30.1428 43.8693 35.9191 45.2729C40.7184 46.4371 44.8851 44.4679 45.7315 40.9334C46.5779 37.3989 45.6869 33.646 41.8172 32.1825C37.9475 30.7191 32.198 32.9218 32.0495 38.629C31.898 44.42 37.5526 44.9078 38.0366 44.9078C38.5207 44.9078 36.2013 43.8843 35.3133 42.0437C34.265 39.871 34.6778 35.4058 36.522 35.1574C38.5474 34.882 38.2772 37.3062 36.522 38.2668C34.7401 39.2425 31.4882 38.0364 31.5624 35.4327C31.6218 33.3288 33.763 31.566 35.2509 30.4797C36.8992 29.2795 41.2262 25.8678 51.193 21.9682C55.1042 20.4359 54.6796 18.0148 54.9676 17.907C56.5595 17.3174 55.8259 14.7048 56.5416 14.3726C58.4988 13.4568 57.5276 11.3139 58.1157 10.9578C59.5887 10.063 60.3549 7.6059 59.3867 7.6059C58.4186 7.6059 59.4818 4.47845 57.9137 4.74181C57.1891 4.86452 56.6337 6.29506 54.7894 5.84016C52.6452 5.30745 34.7669 12.4632 31.3219 23.9434C27.8769 35.4237 29.8696 33.1223 30.9595 30.6951C32.0495 28.271 35.3133 15.5906 48.0776 10.5927C60.842 5.59475 56.607 11.4456 55.7606 11.5683C54.9142 11.691 42.4528 13.6393 37.1902 21.9921C31.9277 30.345 30.7784 32.1706 32.29 31.7456C33.8017 31.3176 37.6119 21.8096 44.9326 18.4577C52.2532 15.1058 55.3983 14.19 54.6113 16.264C53.8243 18.335 45.6602 20.4688 42.6963 22.7254C39.7324 24.9819 38.4405 26.2868 39.3077 27.7233C40.1541 29.1239 51.1039 30.7101 54.1866 32.3561C57.2693 34.0021 63.0782 35.5255 62.413 36.6837C61.7478 37.8419 64.9522 37.2313 65.1363 38.8774C65.3175 40.5234 68.3408 40.5234 67.435 41.6217C66.5262 42.7201 69.5525 45.7069 67.3132 46.3144C65.074 46.9249 64.2097 46.1169 64.2097 47.4576C64.2097 48.7984 64.1682 50.214 63.2 50.214C62.2318 50.214 61.2191 49.3491 59.9332 51.2495C58.8373 52.8716 56.8475 52.7728 55.3953 52.3478C53.943 51.9199 52.4314 51.5458 50.798 52.71C49.1646 53.8712 45.1731 52.713 43.8427 52.3478C42.5122 51.9827 40.2135 52.4077 38.7019 52.713C37.1902 53.0182 35.8122 51.7014 34.9658 51.2046C33.2255 50.1841 31.9574 50.9143 30.324 51.2196C28.6906 51.5248 27.6125 48.7954 26.8166 48.14C25.8811 47.3738 23.7399 48.3495 22.9469 47.3619C21.5867 45.671 23.4904 40.6431 23.431 40.3378C23.3716 40.0326 19.8019 46.1289 21.857 48.55C23.2677 50.214 24.913 48.9002 25.8782 49.4478C26.3414 49.7112 26.9324 51.7253 28.0342 52.5094C29.8785 53.8203 31.7644 52.261 32.6523 52.4646C33.8462 52.7369 33.3176 54.4757 35.5568 54.5984C37.7961 54.7211 38.0069 53.6228 38.9454 53.6228C39.5512 53.6228 41.4668 55.9182 44.8732 55.999C46.7353 56.0439 47.9588 54.5356 48.927 54.4757C49.8952 54.4158 52.3156 55.5112 54.733 55.0234C57.1505 54.5356 57.9048 52.7878 60.2034 52.6651C62.5021 52.5424 62.7783 51.5488 63.4435 51.0609C64.1088 50.5731 60.1173 51.0011 56.0635 50.8185C52.0097 50.636 41.0273 49.1725 38.7642 46.8561C36.5012 44.5397 50.014 48.3196 52.4344 48.3794C54.8548 48.4393 61.3736 48.2118 62.1576 47.8467C62.9446 47.4816 68.0468 43.3426 63.9336 43.8903C59.8203 44.4379 51.7662 45.2071 48.7429 44.5995C45.7196 43.989 46.2631 41.1848 49.1676 41.6726C52.0721 42.1604 60.7202 40.8795 62.3536 40.0864C63.987 39.2934 61.8695 37.2822 58.965 38.0154C56.0605 38.7487 50.014 39.2964 48.8646 39.1737C47.7153 39.051 46.8451 37.0129 50.6792 35.9445C54.338 34.9239 56.1971 34.6935 55.428 33.9632C54.7241 33.2958 53.4768 32.5925 51.7543 33.1851C49.9367 33.8136 47.7153 34.6037 47.7153 34.6037C46.8214 34.8611 44.6297 33.628 47.6826 31.4733C50.4773 29.501 56.8772 27.8819 65.0443 30.3988C67.6962 31.3715 74.8 34.8401 82 40.9334" stroke="#3B3B4A" stroke-miterlimit="10" stroke-linejoin="bevel"/>
</g>
<defs>
<clipPath id="clip0_122_6">
<rect width="83" height="89" fill="white"/>
</clipPath>
</defs>
</svg>
