<svg width="82" height="93" viewBox="0 0 82 93" fill="none" xmlns="http://www.w3.org/2000/svg">
<g clip-path="url(#clip0_120_20)">
<path d="M42.5 93C59.897 93 74 78.897 74 61.5C74 44.103 59.897 30 42.5 30C25.103 30 11 44.103 11 61.5C11 78.897 25.103 93 42.5 93Z" fill="#D7E1E1"/>
<path d="M36.1363 17.8749C28.939 17.9618 24.8138 28.1549 30.055 30.8463C35.2963 33.5377 39.1725 44.9057 44.6118 43.8057C48.0229 43.1164 48.3679 32.24 47.2069 27.5315C46.3278 23.974 43.0697 17.791 36.1363 17.8749Z" fill="#7F7F91"/>
<path d="M65.7899 43.7821C63.2308 52.9952 54.4344 51.6435 51.7793 48.7632C44.7769 41.1626 52.5833 36.658 50.5402 30.3371C48.7041 24.6606 43.5499 12.6752 55.1664 13.3136C63.4228 13.7662 71.2742 24.0372 65.7899 43.7821Z" fill="#F9F9F9"/>
<path d="M36.2919 46.5903C39.235 42.1246 43.0662 47.4624 46.8644 49.4195C51.7186 51.9191 54.2298 59.5887 50.0656 61.5608C45.9704 63.4969 31.7857 53.4237 36.2919 46.5903Z" fill="#66C1BD"/>
<path d="M48.0201 10.3728C48.9681 7.35769 45.845 3.84509 43.0068 4.91805C31.3693 9.32378 30.7332 14.248 41.3207 14.9523C44.5549 15.1681 47.258 12.7884 48.0201 10.3728Z" fill="#1499A2"/>
<path d="M0.642578 63.6592C4.26375 64.2017 10.5701 61.1536 10.4741 57.9468C10.3781 54.7399 5.55982 55.8788 6.72387 58.3334C7.88793 60.788 15.8953 62.5353 21.2446 55.2644C27.1639 47.2201 20.6956 40.7584 23.9297 22.6679C27.1639 4.57745 37.2504 -0.466664 46.8238 -0.0770412C56.3973 0.309584 62.8656 19.0474 58.3354 16.5928C53.8052 14.1382 47.9879 19.8237 45.1948 24.8648C42.4016 29.9059 39.8365 41.9243 35.6993 46.9624C31.5621 52.0005 25.0938 57.3054 26.6448 60.1436C28.1959 62.9879 34.6642 61.5642 36.2813 56.7179C37.6284 52.6779 36.8633 47.415 37.2504 47.6068C37.6374 47.7986 42.4886 57.2005 48.6029 57.5901C53.2411 57.8838 54.6512 55.4322 55.8483 53.4361C56.9793 51.548 55.2801 51.8117 53.6792 52.0635C52.8841 52.7318 52.7753 53.6008 50.1232 53.6337C47.471 53.6667 45.7992 51.9586 44.8041 51.9586C44.2881 51.473 44.4094 51.6559 45.7992 51.6559C46.9792 51.8087 46.4398 52.2583 49.833 52.0635C53.2261 51.8686 52.1951 52.0635 52.98 51.8603C53.7414 51.6631 54.0482 51.5776 55.052 51.3531C54.3571 51.155 52.6021 50.7777 51.33 51.1044C50.961 51.2003 50.7 51.3531 50.574 51.3531C50.43 51.3531 50.031 51.2363 49.722 51.2333C49.0229 51.2273 48.2099 51.3232 47.7929 51.2542C46.7218 51.0804 43.9461 51.7831 43.9437 49.5429C43.0346 48.5089 42.9596 45.0023 47.2108 44.8255C48.7619 44.7595 45.8518 45.0832 47.2108 46.8935C48.5699 48.7037 50.058 49.6718 51.156 49.1563C52.2571 48.6408 54.3332 47.4659 53.6792 45.6676C53.0851 44.0342 52.2571 43.276 52.1281 40.9502C51.9991 38.6245 52.6051 36.9191 54.0032 36.6853C55.9443 36.3617 56.7003 38.2348 56.4843 38.2109C56.2683 38.1899 56.4813 37.015 56.7843 37.03C57.1893 37.048 57.9004 38.1959 57.7054 38.1959C57.5104 38.1959 57.5494 37.1799 57.8464 37.1589C58.1434 37.1379 59.0044 38.052 58.7674 38.085C58.5094 38.121 58.2934 37.03 58.5964 37.03C58.8994 37.03 60.0635 37.9561 59.8025 37.9771C59.5415 37.9981 58.9834 36.9431 59.3494 36.8352C59.7155 36.7273 60.7145 37.4586 60.6005 37.4766C60.4865 37.4946 59.8565 36.7003 60.0515 36.3946C60.2465 36.0889 61.5876 36.7992 61.3295 36.7813C61.0715 36.7663 60.3425 35.9571 60.3905 35.7143C60.4385 35.4715 61.9686 35.7562 61.8606 35.8432C61.7406 35.9391 60.5825 35.4715 60.6635 35.0999C60.7445 34.7282 61.5215 33.8231 61.6176 33.5983C61.7136 33.3736 63.3156 31.4494 62.6676 30.835C62.0196 30.2206 59.3704 31.6412 58.6264 32.2556C57.8824 32.87 55.0682 34.0659 54.2942 34.1288C53.5172 34.1948 51.4171 18.0734 58.0144 19.4281C64.6117 20.7858 63.7387 29.7651 64.0297 32.6752C64.3207 35.5854 63.5436 41.5916 60.9245 45.6617C58.3054 49.7317 56.5563 55.8038 59.2414 59.2295C62.2806 63.1078 75.7992 62.2026 72.0071 48.6318C68.9439 37.6714 71.443 22.4761 64.8037 11.1561C61.0535 4.76027 56.8863 1.93401 54.5732 1.29563C53.0761 0.88203 62.1006 9.41477 61.8936 15.6158C61.7976 18.5229 67.3268 27.8679 68.3949 36.1639C69.6969 46.288 60.2765 54.3233 65.3227 60.2635C67.8609 63.2516 78.9704 60.5872 75.1542 58.0007C72.7991 56.4062 70.303 64.2676 82.4626 63.6472" stroke="#3B3B4A" stroke-miterlimit="10" stroke-linecap="round" stroke-linejoin="round"/>
</g>
<defs>
<clipPath id="clip0_120_20">
<rect width="82" height="93" fill="white"/>
</clipPath>
</defs>
</svg>
