<svg width="80" height="90" viewBox="0 0 80 90" fill="none" xmlns="http://www.w3.org/2000/svg">
<circle cx="45.355" cy="59.5161" r="30.4839" fill="#F9F9F9"/>
<circle cx="55.0325" cy="21.7742" r="21.7742" fill="#F9F9F9"/>
<circle cx="41.484" cy="26.6124" r="11.129" fill="#66C1BD"/>
<circle cx="24.0643" cy="31.4515" r="4.35484" fill="#66C1BD"/>
<path d="M-19 42.5596C-17.4012 43.2865 -12.092 44.3042 -3.64579 42.5596C6.912 40.3789 17.4414 38.772 18.2361 38.8581C19.0308 38.9442 20.9039 38.8294 20.2795 40.6945C19.6551 42.5596 19.6551 47.1793 19.7403 48.3845C19.8254 49.5896 19.7119 50.4504 20.6201 50.2209C21.5283 49.9913 21.727 49.4174 22.6068 49.6183C23.4866 49.8192 24.9057 49.5322 25.303 49.274C25.7003 49.0157 26.3531 48.8723 27.2329 49.0731C27.9368 49.2338 29.3237 49.5035 29.9291 49.6183C29.0966 49.6183 27.2499 49.6183 26.5234 49.6183C25.6152 49.6183 24.8773 50.5652 24.1961 50.6513C23.515 50.7374 22.7487 50.393 22.2094 50.6513C21.6702 50.9095 20.8755 51.3399 20.9607 52.0573C21.0458 52.7746 20.4214 53.4633 20.9607 53.9798C21.4999 54.4962 23.0041 54.9553 23.3447 54.8119C23.6853 54.6684 23.7988 54.7545 25.0192 54.4962C25.9955 54.2896 28.3587 52.5164 29.4183 51.6556L31.036 50.2209C31.1874 50.0774 31.3993 49.6872 31.036 49.274C30.6727 48.8608 28.9547 47.8201 28.1411 47.3515C26.968 46.8063 24.5367 45.6413 24.1961 45.3429C23.8556 45.0445 23.2785 45.4673 23.0325 45.7159C22.8528 45.8403 22.4365 46.0143 22.2094 45.7159C21.9824 45.4175 21.2823 46.395 20.9607 46.9211C20.9607 47.428 20.8926 48.482 20.6201 48.6427C20.2795 48.8436 19.939 50.2209 20.2795 50.9382C20.552 51.5121 20.8472 56.3805 20.9607 58.7429C20.9796 60.3402 21.3353 63.6783 22.6068 64.2521C24.1961 64.9695 31.1495 65.4286 39.3233 63.1618C47.4971 60.895 58.14 57.1361 59.9848 45.3429C61.4606 35.9084 59.8996 28.4231 58.9347 25.8598C58.3197 22.8756 56.0171 15.8686 51.7259 11.7138C47.4346 7.55888 42.8426 6.73059 41.0829 6.8358C38.5665 6.54886 32.7105 7.12273 29.4183 11.7138C26.126 16.3048 24.5651 20.2645 24.1961 21.6705C23.6096 22.933 22.4535 25.5442 22.5216 25.8885C22.6068 26.3189 23.3731 26.9502 23.9691 27.0363C24.5651 27.1223 25.9841 27.5528 26.126 28.2988C26.268 29.0448 27.2045 29.9343 26.126 30.0204C25.0476 30.1065 23.7988 29.217 23.3163 29.6761C22.9303 30.0434 22.4176 32.4881 22.2094 33.6645C22.0108 32.2107 21.6475 29.0047 21.7837 27.811C21.954 26.3189 22.1243 23.7652 23.742 24.5686C25.3598 25.372 26.6653 27.3232 26.7504 28.0405C26.8356 28.7579 27.4316 30.1639 25.8139 31.5125C24.1961 32.8611 21.2161 35.8453 21.0458 36.5052C20.8755 37.1652 20.4498 39.0877 22.2094 40.4076C23.9691 41.7275 24.4516 42.4735 23.742 42.4735C23.0325 42.4735 21.358 41.2684 21.7837 40.9815C22.2094 40.6945 24.4232 42.0718 24.707 42.1292C24.9908 42.1866 27.6019 42.0718 27.1761 40.9815C26.8356 40.1092 25.8233 39.8337 25.3598 39.805C24.7732 39.7381 23.7761 39.7648 24.4799 40.4076C25.1838 41.0503 27.6113 41.8231 28.7371 42.1292C29.4939 42.2536 30.9111 42.0833 30.5251 40.4076C30.0426 38.3129 29.0209 36.4191 27.687 36.2183C26.3531 36.0174 24.7921 36.3905 25.0759 35.3575C25.303 34.5311 27.8195 31.9716 29.0493 30.7952C29.7115 30.0491 31.1155 28.1898 31.4333 26.7206C31.8307 24.8842 32.1145 22.9904 32.597 22.8183C33.0794 22.6461 37.365 20.8671 37.9326 20.7523C38.5002 20.6375 41.3667 19.7767 42.0195 20.2645C42.6723 20.7523 46.7592 22.0435 47.6957 23.3061C48.445 24.3161 48.9161 25.0468 49.058 25.2859C48.1025 24.5303 45.9645 22.933 45.0563 22.5887C43.921 22.1583 42.3033 20.9819 37.9326 23.3061C33.5619 25.6303 32.0009 25.8311 33.0227 24.5686C33.84 23.5586 35.7094 23.6313 36.5419 23.7939C38.6232 24.1095 42.9788 24.9703 43.7507 25.8885C44.7157 27.0363 45.8793 27.811 45.709 28.2988C45.5728 28.689 43.4007 29.1692 42.3317 29.3605C41.3478 28.6814 39.0508 27.4896 37.7339 28.1553C36.4171 28.821 35.6527 30.0013 35.4351 30.5082C35.3405 30.9864 35.0604 31.9429 34.6972 31.9429C34.2431 31.9429 35.1229 33.4063 38.3583 33.0333C41.5938 32.6603 44.0913 31.5699 44.29 30.7952C44.4887 30.0204 42.133 30.7952 41.5086 30.7952C40.8843 30.7952 39.2665 31.1395 38.3583 31.1395C37.4501 31.1395 34.1012 31.0534 34.1579 29.6761C34.2147 28.2988 34.7255 26.9215 36.2297 26.405C37.7339 25.8885 43.0128 25.6303 47.6957 26.7206C52.3786 27.811 65.5759 31.3116 72.1603 29.6761C77.4278 28.3677 79.388 28.2127 79.7097 28.2988" stroke="#3B3B4A"/>
</svg>
