<svg width="57" height="83" viewBox="0 0 57 83" fill="none" xmlns="http://www.w3.org/2000/svg">
<path fill-rule="evenodd" clip-rule="evenodd" d="M42.1978 29.3907C46.9939 29.834 52.4555 29.8687 55.4257 33.6737C58.2542 37.2972 56.5334 42.3891 55.9035 46.9484C55.3958 50.6231 53.7896 53.6388 52.2042 56.9902C49.0308 63.6983 49.5004 74.7234 42.1978 75.9207C35.2118 77.0661 33.6908 65.4962 28.2833 60.9122C21.7763 55.3963 8.58913 55.4772 8.02001 46.9484C7.45914 38.5432 18.8137 34.8188 26.2859 30.9802C31.2183 28.4464 36.6801 28.8806 42.1978 29.3907Z" fill="#F9F9F9"/>
<path d="M27.8797 27.5214C24.1095 29.1571 20.4699 31.7229 17.8259 33.1822C13.5498 35.5396 9.32268 37.9932 5.38932 40.8798C-6.1986 49.3791 3.90411 64.1487 7.91908 74.0112C8.13125 74.5243 8.35974 75.0535 8.75144 75.4545C9.14315 75.8554 9.74703 76.112 10.2856 75.9516C10.71 75.8233 11.0037 75.4865 11.2649 75.1337C13.9579 71.4293 12.9786 68.1097 13.2887 63.8921C13.5661 59.9632 16.2102 56.5314 19.3438 54.0938C22.4774 51.6563 26.1496 49.9885 29.5607 47.9358C32.9718 45.8832 36.2523 43.2852 37.9171 39.7091C39.6145 36.0367 39.2228 31.9154 37.3948 28.3873C35.4526 24.6348 31.1928 26.0781 27.8797 27.5214Z" fill="#66C1BD"/>
<path d="M13.363 10.9662C12.5217 11.077 11.6087 10.9108 11 10.5339C11.8951 10.6004 12.7723 10.7334 13.6137 10.9108C13.2556 10.8332 12.8976 10.7556 12.5754 10.6226C12.2531 10.4896 11.9846 10.3122 11.8593 10.0795C12.45 10.2679 13.005 10.4674 13.5421 10.6891C13.0766 10.4453 12.5575 10.146 12.5396 9.75805C12.647 9.7248 12.7723 9.78022 12.8618 9.83564C13.2735 10.0795 13.6853 10.3233 14.0791 10.5561C13.8643 10.2347 13.7211 9.89106 13.6137 9.54746C13.9001 9.75805 14.1686 9.95756 14.4551 10.1682C14.276 9.82456 14.2044 9.46987 14.2223 9.1041C14.2223 9.05977 14.2402 9.01543 14.2939 9.00435C14.3476 8.99326 14.4014 9.00435 14.4372 9.02652C14.9921 9.24819 15.2785 9.66938 15.8335 9.89106C16.1557 10.0241 16.5317 10.0795 16.9076 10.1349C16.9434 10.1349 16.9792 10.146 16.9971 10.1238C17.015 10.1017 16.9434 10.0906 16.9434 10.1127" stroke="#3B3B4A" stroke-miterlimit="10"/>
<path d="M17.0847 7C17.2488 8.16405 17.0482 9.35756 16.6834 10.4921C16.3185 11.6267 15.7713 12.7171 15.1876 13.7927C15.0599 14.0137 14.9505 14.2642 15.0234 14.5C15.0781 14.6473 15.2058 14.78 15.3335 14.8831C16.2821 15.664 17.6502 16.0766 19 15.9882" stroke="#3B3B4A" stroke-miterlimit="10"/>
<path d="M17.8758 19.8233C17.9991 19.6273 18.1401 19.4313 18.3163 19.366C18.422 19.3224 18.5278 19.3442 18.6335 19.366C19.0035 19.4531 19.356 19.7144 19.726 19.6273C20.0608 19.562 20.3075 19.2135 20.6247 19.0828C21.2062 18.8215 21.8406 19.2353 22.4045 19.5402C22.6865 19.7144 24.8186 20.9123 23.6556 21.1301C21.7172 20.3678 21.5234 20.7163 20.0432 21.1301C19.6907 21.239 18.2282 21.1955 17.8758 21.3479C17.6819 21.435 17.1709 23.1992 17.0475 22.9814C16.8889 22.7418 17.1709 21.3697 17.259 21.1301C17.4176 20.6727 17.6291 20.2371 17.8758 19.8233Z" stroke="#3B3B4A" stroke-miterlimit="10"/>
<path d="M15 43.8966C18.868 44.3531 22.8991 43.2826 26 41" stroke="#3B3B4A" stroke-miterlimit="10"/>
<path d="M30 40C30.9527 40 32.0068 40 33 40" stroke="#3B3B4A" stroke-miterlimit="10"/>
<path d="M12.2566 1C11.5656 3.28374 11.3888 5.74565 11.7745 8.11038C12.0477 9.73005 12.5619 11.3011 12.6583 12.9208C12.7548 14.4919 12.4494 16.0468 12.4976 17.6179C12.5941 20.3389 13.6386 23.06 15.3903 25.1332C16.9331 26.9472 18.974 28.4049 21.3364 28.7612C22.606 28.9556 23.8755 28.9394 25.1451 29.0366C25.2737 29.0528 25.4022 29.0528 25.4986 29.15C25.579 29.231 25.6111 29.3443 25.6272 29.4577C25.8522 30.5105 25.9808 31.5795 25.9968 32.6647C26.0129 33.3287 25.9808 34.0252 25.5951 34.5597C24.2451 36.3899 20.6936 36.7786 18.7008 37.3617C15.6635 38.2525 12.6583 39.3377 9.73352 40.5687C7.49973 41.5243 5.16951 42.6905 3.96423 44.8122C3.22499 46.1242 3 47.6629 3 49.1692C3 53.5909 4.83203 57.7696 6.3748 61.8998C8.72108 68.2004 11.2763 75.2783 11.887 82" stroke="#3B3B4A" stroke-miterlimit="10"/>
<path d="M23 1C23.8894 6.508 30.0215 8.3062 34.016 11.4004C39.3991 15.5638 42.0205 21.8332 42.8318 28.7506C43.6744 36.073 41.1935 43.606 38.8842 50.5396C36.9962 56.1772 33.7819 61.2478 30.5052 66.124C27.2909 70.903 24.139 75.844 24.8256 82" stroke="#3B3B4A" stroke-miterlimit="10"/>
<path d="M34.8015 19.3381C35.2674 17.7555 34.9325 15.8404 33.593 14.7484C32.1225 13.5456 29.953 13.8146 28.8174 15.3973C27.9584 16.6001 27.74 18.341 28.3369 19.718C28.9339 21.1107 30.317 22.0603 31.7148 21.997C33.3018 21.9337 34.3792 20.7625 34.8015 19.3381Z" stroke="#3B3B4A" stroke-miterlimit="10"/>
</svg>
