<svg width="63" height="81" viewBox="0 0 63 81" fill="none" xmlns="http://www.w3.org/2000/svg">
<circle cx="31.5" cy="48.5" r="31.5" fill="#F9F9F9"/>
<path d="M44.9377 37.5479C45.5726 36.4919 46.6537 35.7 47.5289 34.8552C50.8408 31.6346 54.1356 26.3372 52.6255 21.5151C51.6473 18.4176 49.7425 15.2498 48.3354 12.3107C46.9969 9.56525 44.6116 7.10137 42.192 5.28865C38.6055 2.57839 33.835 4.76068 30.2142 6.22141C25.804 8.01652 21.5139 10.0228 18.3049 13.7538C16.5203 15.8305 15.4907 18.3648 14.3409 20.8463C10.3254 29.4171 8.23187 38.3223 5.45191 47.333C3.6844 53.0527 0.904447 56.6078 5.55488 61.7467C6.96202 63.313 8.40348 64.8794 10.1023 66.1113C22.5607 75.1045 37.0783 60.638 48.2667 56.115C52.0935 54.5663 54.8906 53.0175 57.7392 49.9905C60.1416 47.4386 61.4973 44.8163 57.2587 43.25C53.6894 41.9301 49.9141 40.9445 46.2075 40.0294C44.766 39.6774 43.908 39.607 44.7489 37.8823C44.8175 37.7591 44.869 37.6535 44.9377 37.5479Z" fill="#66C1BD"/>
<path d="M48 26C47.77 28.2474 46.538 30.8084 44.4682 31.7317C42.5627 32.5854 39.6716 32.2195 38.111 33.77C36.5833 35.3031 36.9282 38.6655 37.4046 41" stroke="#3B3B4A" stroke-miterlimit="10"/>
<path d="M33 36C34.7941 39.8653 38.6756 42.3854 42.6261 44.0882C46.5766 45.791 50.8031 46.8638 54.581 48.9071C56.1164 49.7415 57.5827 50.7461 58.6178 52.1254C61.4642 55.8715 61.2054 60.1455 60.6361 64.6579C59.9806 69.8344 58.98 74.9598 57.6345 80" stroke="#3B3B4A" stroke-miterlimit="10"/>
<path d="M37.6741 9.71296C36.9722 8.86895 35.3343 8.78932 34.3399 9.39446C33.3259 9.99961 32.9165 11.1143 33.014 12.1335C33.1115 13.1527 33.6574 14.1082 34.2229 15.0159C34.8078 15.9236 35.4513 16.8154 35.7828 17.8027C35.9582 18.3442 36.0752 18.9015 36.4262 19.3634C36.7967 19.8252 37.5376 20.1596 38.1616 19.9207C38.5905 19.7615 38.8245 19.3634 39 19.013" stroke="#3B3B4A" stroke-miterlimit="10"/>
<path d="M20 33C19.4883 33.8926 18.8708 34.7166 18.1475 35.4547C16.5419 37.0855 14.46 38.2012 12.7134 39.6775C8.53195 43.1793 7.42044 47.1618 7.19108 52.4489C6.85586 60.7743 6.96171 71.6917 7.50865 80" stroke="#3B3B4A" stroke-miterlimit="10"/>
<path d="M37 19C35.9933 21.1903 34.8453 23.4465 32.7965 24.8628C32.1606 25.3074 31.4365 25.6532 30.9243 26.2132C30.3944 26.7896 30.1295 27.5471 29.635 28.1564C28.7872 29.2269 27.5862 29.4739 26.3675 30.0009C25.2725 30.462 24.3188 31.0878 23.2061 31.5489C20.9453 32.5041 18.0664 33.4593 16.6005 35.452C16.2296 35.946 16.0353 36.473 16 37" stroke="#3B3B4A" stroke-miterlimit="10"/>
<path d="M21 1C15.4359 3.64 10.9703 8.24308 8.66543 13.6923C7.33294 16.84 6.72072 20.2077 6.36058 23.5754C5.8744 28.1277 5.8564 32.7138 6.45062 37.2492C6.77474 39.6185 7.27893 42.0215 8.50338 44.12C8.68345 44.4246 8.86351 44.7123 9.07959 45" stroke="#3B3B4A" stroke-miterlimit="10"/>
<path d="M46.6389 64C47.2779 69.3279 47.0712 74.7049 46 80" stroke="#3B3B4A" stroke-miterlimit="10"/>
</svg>
