<svg width="71" height="105" viewBox="0 0 71 105" fill="none" xmlns="http://www.w3.org/2000/svg">
<path d="M39.5 80C56.897 80 71 65.897 71 48.5C71 31.103 56.897 17 39.5 17C22.103 17 8 31.103 8 48.5C8 65.897 22.103 80 39.5 80Z" fill="#F9F9F9"/>
<path fill-rule="evenodd" clip-rule="evenodd" d="M30.83 26.3635C39.241 25.6475 48.242 25.4719 54.774 30.8922C61.816 36.7357 67.696 46.2071 65.552 55.175C63.522 63.666 52.679 65.262 45.429 69.981C40.618 73.112 36.433 76.621 30.83 77.772C23.353 79.308 14.997 82.037 8.81498 77.502C2.16098 72.62 -0.314015 63.498 0.030985 55.175C0.363985 47.1603 4.78095 40.0923 10.5949 34.6533C16.1539 29.4532 23.294 27.005 30.83 26.3635Z" fill="#66C1BD"/>
<path d="M42.371 62.292C42.109 59.561 42.77 57.329 43.613 54.1989C44.616 50.4773 44.672 48.1239 45.417 44.9166C46.167 41.6898 45.994 39.2006 42.639 38.2933C39.283 37.3859 36.233 44.2227 41.917 41.5977C47.601 38.9726 43.379 31.2041 41.256 28.7343C39.138 26.2646 28.787 34.5959 33.848 35.7458C38.908 36.9007 43.346 33.014 40.942 29.8843C40.103 28.7926 35.263 25.2262 36.692 21.3589C37.479 19.2288 41.603 19.452 42.788 21.1406C43.796 22.5768 43.402 24.4256 43.102 26.119C42.817 27.7348 42.653 29.3603 42.61 30.9858C42.587 31.8301 42.737 32.8636 43.646 33.1644C44.372 33.4022 45.197 33.0237 45.811 32.5822C47.353 31.4759 48.388 29.8601 48.637 28.1763C48.787 27.1865 48.651 26.1335 47.976 25.3426C47.428 24.6973 46.579 24.2945 45.717 23.984C40.389 22.0431 34.124 22.9359 28.487 21.7083C27.484 21.4899 26.28 20.8397 26.64 19.9906C26.753 19.7237 27.011 19.5151 27.268 19.3258C29.907 17.3898 33.402 16.3417 36.809 16.463C39.372 16.5552 42.137 17.4965 43.037 19.5296C43.66 20.9368 43.252 22.5574 42.582 23.9937C41.926 25.396 41.008 26.7401 39.682 27.7493C38.355 28.7586 36.584 29.3943 34.855 29.2535C36.617 31.7719 39.105 34.3435 42.573 34.5328C46.5 34.7463 49.982 31.5438 50.595 28.1958C50.656 27.8658 50.694 27.5164 50.553 27.2059C50.394 26.8517 50.019 26.6091 49.644 26.415C47.4 25.2456 44.574 25.2359 41.903 25.2844C38.857 25.3426 35.741 25.4397 32.868 26.3907C32.212 26.6091 31.519 26.9148 31.237 27.4679C30.778 28.3753 31.687 29.3069 32.601 29.8601C34.569 31.0537 36.954 31.7524 39.4 31.8592C40.066 31.8883 43.088 31.6311 43.524 29.5059C44.33 25.6095 42.648 23.9306 42.189 23.3095C41.725 22.6787 35.975 17.6664 32.535 18.7484C28.121 20.1313 29.035 23.7705 29.162 25.6871C29.26 27.2156 30.642 28.3947 31.987 29.3748C34.124 30.9227 36.458 32.3687 39.18 33.0043C41.903 33.6448 45.099 33.3537 47.301 31.7427C50.178 29.6369 50.595 26.0656 50.792 22.8825C50.839 22.1207 50.862 21.2813 50.3 20.699C49.897 20.2817 49.26 20.0828 48.641 19.9518C46.331 19.4666 43.88 19.6752 41.49 19.8984C39.236 20.1119 36.945 20.34 34.827 21.0775C32.709 21.815 30.741 23.13 29.864 24.9399C29.405 25.8861 29.269 26.9196 28.852 27.8804C28.435 28.8411 27.62 29.7921 26.453 30.0105C25.422 30.2046 24.368 29.7582 23.698 29.0934C23.028 28.4238 22.681 27.565 22.395 26.711C21.537 24.1344 21.158 21.3007 22.278 18.7387C23.393 16.1719 26.331 14.0029 29.485 14.1533C31.612 14.2552 33.468 15.347 34.939 16.628C38.145 19.4229 40.005 23.3144 40.042 27.2932C40.061 29.1177 39.822 31.2187 41.355 32.4415C42.868 33.6497 45.506 33.2761 47.118 32.0678C48.73 30.8548 49.522 29.0546 50.085 27.2981C50.642 25.5561 51.041 23.7802 51.265 21.9946C51.331 21.4657 51.378 20.9077 51.106 20.4419C50.736 19.8062 49.878 19.5151 49.077 19.321C44.996 18.3263 40.46 18.5932 36.476 20.0634C33.58 21.1357 31.022 22.7952 28.21 24.0277C27.793 24.2121 27.348 24.3867 26.889 24.3722C25.886 24.3431 25.263 23.4648 25.01 22.6399C24.358 20.5341 24.986 18.2001 26.326 16.2786C27.667 14.3571 29.658 12.8238 31.804 11.5428C33.388 10.5966 35.117 9.76209 37.001 9.49519C38.885 9.22829 40.956 9.62129 42.189 10.8199C43.927 12.5133 43.529 15.1189 43.032 17.3849C42.189 21.2231 41.148 25.3669 37.704 27.9968C36.804 28.6858 35.699 29.3263 35.399 30.321C35.146 31.175 35.6 32.0775 36.34 32.6598C37.081 33.2421 38.056 33.5575 39.03 33.7855C40.295 34.0815 41.687 34.2465 42.929 33.8147C44.405 33.3003 45.352 32.0484 46.055 30.8257C47.306 28.6422 48.112 26.284 48.416 23.8967C48.496 23.2659 48.538 22.5963 48.21 22.0382C47.896 21.5094 47.296 21.1503 46.683 20.8689C43.065 19.1997 38.248 18.7678 34.283 20.0052C30.319 21.2425 24.26 22.6254 23.632 26.1724C23.491 26.9584 24.775 27.3757 25.347 27.9774C26.654 29.3506 27.976 30.7383 29.649 31.7816C31.322 32.8248 33.407 33.509 35.502 33.2809C36.397 33.1839 37.292 32.917 38.004 32.4269C39.171 31.6263 39.719 30.3404 40.024 29.0983C40.942 25.362 40.169 21.5191 40.614 17.7343C40.759 16.5067 41.05 15.2451 41.898 14.2261C42.746 13.212 44.274 12.5133 45.647 12.8287C47.709 13.3042 48.721 17.6227 50.759 17.0793C54.236 16.1525 50.937 11.4167 48.89 9.94639C46.842 8.47619 44.007 8.03469 41.284 8.05409C37.643 8.07829 33.829 8.90809 31.087 11.0382C28.346 13.1683 26.898 20.9416 31.397 24.2169C34.733 26.6479 39.86 26.8177 44.26 26.7449C45.066 26.7304 45.919 26.6382 46.565 26.2112C47.357 25.6871 47.638 24.7895 47.863 23.9646C48.552 21.4172 49.016 18.4233 46.973 16.5698C46.191 15.8613 45.131 15.4246 44.058 15.0898C38.374 13.3188 31.889 14.1 26.069 15.8905C25.502 16.0651 24.911 16.2544 24.316 16.201C23.726 16.1476 23.135 15.774 23.135 15.2597C23.135 15.0073 23.276 14.7647 23.435 14.5415C24.461 13.1101 26.294 12.2319 28.131 11.6496C28.801 11.4361 29.508 11.2469 30.202 11.3245C31.575 11.4701 32.479 12.5618 33.074 13.6147C34.307 15.8128 34.883 18.2535 35.216 20.699C35.647 23.8724 35.647 27.2253 34.049 30.1755C32.657 32.7472 30.047 35.1393 30.399 37.9099C30.75 40.6709 33.899 42.3886 36.823 43.5337C38.585 44.2227 40.624 44.8535 42.46 44.2082C43.637 43.7957 44.522 42.9223 45.225 42.0101C48.515 37.7401 48.74 32.3687 48.482 27.3515C48.43 26.3228 48.337 25.2359 47.629 24.4207C46.795 23.46 45.314 23.1154 43.927 22.8922C40.436 22.3294 36.842 22.1596 33.266 22.3925C30.848 22.5526 28.037 22.7806 26.43 21.2764C25.839 20.7233 25.488 20.01 25.253 19.2822C23.407 13.5323 24.719 8.29179 28.749 5.23489C31.27 3.32309 35.825 4.11889 37.934 4.60409C40.366 5.16209 42.376 6.19079 44.204 7.60279C46.509 9.38839 48.548 11.538 49.438 14.1048C50.328 16.6765 49.897 19.7237 47.765 21.7908C46.242 23.2659 43.993 24.1102 41.734 24.2994C39.475 24.4886 37.217 24.0665 35.16 23.3192C33.805 22.8292 32.343 21.9169 32.517 20.6505C32.653 19.6218 33.81 18.9231 34.888 18.4233C38.693 16.6717 42.952 15.6818 47.212 15.5556C49.255 15.4974 51.401 15.6624 53.046 16.6474C54.855 17.7295 55.741 19.6073 56.406 21.4172C57.456 24.28 58.159 27.4679 56.776 30.3016C55.956 31.9805 54.471 33.3779 52.849 34.5716C51.72 35.4013 50.455 36.1728 49.007 36.4009C47.381 36.6581 45.722 36.1874 44.354 35.4499C42.985 34.7123 41.842 33.7128 40.638 32.7908C37.292 30.224 33.154 28.1133 28.58 28.0696C27.821 28.0599 27.025 28.1181 26.355 28.4432C25.244 28.9818 24.724 30.1124 24.466 31.175C23.407 35.4984 25.413 39.4384 29.616 41.8306C33.824 44.2179 40.033 44.7225 43.899 41.719C46.411 39.7684 47.779 36.988 48.782 34.2368C49.433 32.4463 49.972 30.5636 49.639 28.7343C49.194 26.2888 47.268 24.2897 45.333 22.4847C39.583 17.1278 33.107 12.3532 26.059 8.26759C25.375 7.86969 24.63 7.46689 23.791 7.46209C22.667 7.45719 21.678 8.16569 20.97 8.93719C18.862 11.2323 18.267 14.2601 18.182 17.1326C18.121 19.1026 18.276 21.1115 19.157 22.9019C20.577 25.7939 23.899 27.8464 27.554 28.2782C31.209 28.7149 35.094 27.5844 37.915 25.4445C38.66 24.8768 39.349 24.2315 39.775 23.4648C40.942 21.3686 39.911 18.8843 38.271 17.1229C36.584 15.313 34.265 13.9496 31.669 13.2363C29.663 12.688 27.353 12.5521 25.46 13.4401C23.669 14.2795 22.545 15.8856 21.744 17.4868C20.825 19.3307 20.211 21.388 20.764 23.295C21.659 26.3713 25.319 28.2152 28.923 28.9576C30.057 29.1905 31.326 29.3312 32.362 28.8314C32.999 28.5209 33.463 28.0065 33.88 27.4922C36.608 24.1199 38.116 20.1265 40.961 16.8269C41.5 16.2058 42.109 15.5896 42.929 15.2645C44.855 14.493 46.997 15.5896 48.543 16.759C50.675 18.3699 52.564 20.2138 54.152 22.2323C55.188 23.5473 56.106 24.9642 56.504 26.5266C56.879 27.9871 56.786 29.5301 56.486 31.0246C56.022 33.344 55.042 35.6488 53.285 37.4927C51.523 39.3365 48.918 40.6709 46.181 40.7631C42.592 40.8844 39.405 38.8998 37.245 36.5174C35.085 34.13 33.669 31.306 31.697 28.8023C30.891 27.7785 29.888 26.7498 28.477 26.4441C26.373 25.988 24.241 27.2932 22.737 28.6955C21.345 29.9959 20.099 31.6214 20.263 33.344C20.356 34.329 20.9 35.2267 21.561 36.0224C23.023 37.7935 25.492 39.2637 28.009 38.7154C30.788 38.1137 32.24 35.4499 34.654 34.0961C37.812 32.3299 42.048 33.8826 43.829 36.5707C45.9 39.6956 43.735 43.9122 40.155 44.8098C34.475 46.2364 33.126 40.1614 30.984 43.3881C29.986 44.8972 34.335 46.5567 35.558 47.0419C38.046 48.0269 41.191 48.8081 43.562 47.498C44.4 47.037 45.028 46.3383 45.572 45.6202C47.118 43.5774 48.102 41.2726 48.805 38.9338C49.841 35.4741 50.253 31.7476 48.777 28.482C47.306 25.2165 43.562 22.5768 39.419 22.8534C38.758 22.8971 38.126 23.13 37.545 23.3823C36.345 23.8918 35.581 26.4878 37.99 27.1622C41.781 28.22 46.406 24.804 49.171 22.2469C50.169 21.325 51.073 20.2429 51.284 19.0104C51.65 16.8609 49.813 14.9443 47.751 13.7555C44.902 12.1057 41.401 11.276 37.906 11.4118C36.608 11.4652 35.01 11.8728 34.743 12.9645C34.546 13.77 35.216 14.5124 35.947 15.017C39.433 17.4383 45.3 16.8366 48.238 13.7603C49.321 12.6249 50.028 11.1013 49.56 9.72809C49.241 8.79649 48.421 8.06379 47.507 7.50089C45.399 6.20539 42.746 5.68619 40.136 5.41439C37.489 5.13789 34.747 5.08929 32.151 5.72499C30.178 6.20539 28.117 7.30679 27.732 9.02449C27.582 9.69899 27.714 10.388 27.962 11.0285C28.754 13.081 30.713 14.6822 32.995 15.6042C35.277 16.5261 37.859 16.8318 40.413 16.856C43.28 16.8852 46.312 16.6037 48.852 17.6664C51.537 18.7872 53.098 21.1745 54.429 23.46C55.342 25.0321 56.242 26.8129 55.633 28.5354C55.295 29.4864 54.518 30.3016 53.637 30.9615C51.303 32.7083 48.074 33.5284 45.075 33.1402C48.032 32.9024 51.429 29.928 52.868 27.6717C55.033 24.2897 57.554 18.3069 56.326 14.0757C55.872 12.5084 54.26 11.2663 52.39 11.0139C50.52 10.7568 48.473 11.504 47.343 12.8529C45.947 14.5221 46.064 16.8221 47.039 18.632C48.013 20.4419 49.719 21.8636 51.411 23.227C53.102 24.5857 54.85 25.9589 55.947 27.7154C56.42 28.4723 56.767 29.3845 56.383 30.2046C56.12 30.7674 55.558 31.1896 55 31.5729C53.688 32.4754 52.301 33.2955 50.853 34.0233C50.319 34.2902 49.752 34.557 49.143 34.5765C48.051 34.6201 47.175 33.8971 46.495 33.1887C45.164 31.7913 41.851 29.7533 42.043 27.3126C42.151 25.9637 45.263 25.4203 46.8 25.6192C50.764 26.1238 54.307 28.3656 56.008 31.4371C57.039 33.3052 57.221 35.8914 55.286 37.2258C54.48 37.7789 53.449 38.0118 52.446 38.1768C49.546 38.6426 46.139 38.468 44.382 36.5125C44.129 36.2311 43.918 35.9108 43.871 35.5566C43.763 34.7172 44.691 33.9214 45.684 33.8244C46.678 33.7273 47.629 34.198 48.248 34.8433C49.41 36.0661 49.518 37.8905 48.758 39.3802C47.999 40.8698 46.476 42.0247 44.771 42.7331C42.99 43.4706 39.344 43.5191 37.756 42.573C31.214 38.6718 34.002 35.838 34.761 35.0714C35.249 34.5765 36.275 34.2368 37.02 34.2514C39.611 34.3047 41.467 35.7556 41.64 37.9633C41.814 40.1711 40.366 42.3643 38.337 43.8054C36.683 44.9797 34.536 45.7512 32.451 45.5231C29.129 45.1592 23.759 44.5284 21.622 42.3692C15.057 35.6876 20.933 30.6219 22.062 30.2725C22.531 30.1269 23.098 30.1561 23.44 30.4472C23.88 30.8208 23.763 31.5195 23.309 31.9077C22.854 32.3008 22.17 32.4269 21.542 32.3929C19.466 32.2862 17.981 30.7432 16.908 29.2438C15.3 27.007 13.998 24.411 14.476 21.7617C14.822 19.8499 16.078 18.0982 17.662 16.6814C19.133 15.3713 20.9 14.3038 22.831 13.5662C23.773 13.2072 24.804 12.9209 25.806 13.0422C26.809 13.1683 27.765 13.8088 27.84 14.6774C27.934 15.7594 26.589 16.6765 25.319 16.6717C24.049 16.6668 22.938 15.9778 22.123 15.1723C19.794 12.8578 19.326 9.31079 20.853 6.44309C22.381 3.58029 25.778 1.49869 29.396 1.08139C33.013 0.664092 36.739 1.87719 39.152 4.12859C40.553 5.43869 41.523 7.05939 42.25 8.73339C43.196 10.9217 43.758 13.2896 43.346 15.6333C43.177 16.594 42.817 17.5839 42.001 18.2778C41.186 18.9716 39.822 19.2676 38.904 18.729C38.018 18.2098 37.831 17.0987 38.215 16.2107C38.594 15.3227 39.419 14.624 40.263 14.0078C41.575 13.047 43.037 12.1833 44.691 11.8097C46.345 11.4409 48.224 11.635 49.461 12.5909C50.83 13.6536 51.148 15.4052 51.003 17.0113C50.666 20.7233 47.934 24.4498 43.819 25.7793C39.705 27.1088 32.47 25.3669 33.374 22.6593C33.637 21.8781 34.771 21.5579 35.591 21.6404C38.843 21.9703 41.945 23.3338 43.894 25.5416C45.844 27.7493 46.542 30.8014 45.464 33.4896C44.386 36.1874 41.472 38.3758 38.196 38.7154C35.741 38.9726 33.266 38.2205 31.359 36.9444C29.452 35.6634 28.065 33.8923 27.048 32.0048C26.692 31.34 26.373 30.5588 26.748 29.8795C27.207 29.04 28.445 28.7926 29.508 28.6519C30.089 28.5742 30.722 28.5063 31.214 28.7635C31.865 29.1031 31.997 29.9086 31.711 30.5345C31.425 31.1605 30.82 31.6408 30.235 32.0873C28.744 33.2178 27.02 34.3533 25.066 34.363C22.217 34.3775 20.235 32.0145 19.386 29.7097C18.534 27.3854 18.388 24.7021 19.874 22.5477C21.706 19.8936 25.9 18.6999 29.208 19.7043C32.517 20.7087 34.724 23.6686 34.71 26.7013C34.705 28.8023 32.742 30.389 31.673 32.3105C30.319 34.7511 27.273 35.8623 26.087 38.7494C23.815 44.2955 36.884 44.9797 33.131 40.1468C31.43 37.9585 27.507 43.9947 31.537 46.8478C36.42 50.3074 41.912 49.7494 43.37 46.12C45.525 40.7437 42.029 33.9796 37.451 29.6514C35.891 28.1763 33.684 26.7983 31.369 27.3078C30.628 27.4728 29.907 27.8658 29.602 28.4675C29.147 29.3603 29.738 30.3501 30.408 31.0974C33.037 34.033 37.503 35.8623 41.856 35.183C46.209 34.5037 50.024 30.9906 49.836 27.2399C49.803 26.6188 49.668 25.9928 49.349 25.4397C48.191 23.4551 45.127 22.999 42.498 23.096C36.191 23.3289 29.597 25.3523 23.749 23.5036C22.878 23.227 21.987 22.8195 21.617 22.0916C21.228 21.3347 21.509 20.437 21.917 19.6655C23.801 16.1185 28.388 13.8671 32.887 13.7458C37.385 13.6293 41.692 15.4246 44.822 18.0934C46.594 19.6024 48.079 21.4899 48.304 23.6443C48.594 26.4344 46.767 29.108 44.78 31.4031C43.341 33.0674 41.781 34.6589 40.117 36.1631C39.077 37.0996 37.967 38.0458 37.418 39.2395C36.678 40.8553 35.328 46.0569 41.373 48.7644C42.938 49.4632 47.02 49.007 49.077 45.3096C51.687 40.6078 47.845 35.8138 45.131 34.4891C42.423 33.1645 39.377 32.4124 36.359 31.67C33.412 30.9421 30.46 30.2191 27.512 29.4913C25.774 29.0789 20.689 27.8949 18.393 23.8675C17.24 21.849 18.06 18.7581 18.908 16.5407C19.743 14.362 21.72 12.0281 23.501 10.8635C26.083 9.17489 29.199 8.17049 32.357 8.09769C34.091 8.05889 36.28 8.43249 37.793 9.40779C39.19 10.3104 40.361 11.6399 40.647 13.0907C41.055 15.1675 39.508 17.2491 37.587 18.6417C33.59 21.5336 28.154 22.2663 23.398 24.0956C23.088 24.2121 22.77 24.3479 22.559 24.576C22.231 24.9399 22.268 25.4445 22.348 25.8909C23.407 31.6797 29.302 36.43 36.134 37.0074C37.531 37.1239 39.152 37.0074 40.061 36.0612C40.867 35.2267 40.83 34.0233 40.483 33.014C39.513 30.1852 36.49 28.1666 33.173 27.3418C29.86 26.5169 26.275 26.7304 22.817 27.201C19.358 27.6717 12.151 29.467 13.374 24.7215C13.946 22.5089 16.65 21.6549 19.218 22.0819C22.011 22.5477 23.815 24.804 24.921 27.0312C27.137 31.5001 27.709 36.4688 29.354 41.1318C29.771 42.3206 30.296 43.5337 31.336 44.3828C32.376 45.232 34.082 45.6105 35.347 44.9457C36.158 44.5187 36.65 43.7569 36.968 42.9951C37.995 40.5059 37.475 37.7256 36.106 35.4305C34.738 33.1353 32.587 31.2624 30.305 29.5932C29.546 29.0352 28.707 28.4772 27.699 28.3801C26.692 28.2831 25.502 28.8557 25.422 29.7291C25.385 30.1706 25.624 30.5831 25.867 30.9615C26.828 32.4754 28.121 34.0476 30.113 34.3824C32.723 34.8191 35.15 32.9315 36.725 31.0343C40.221 26.8129 42.118 21.7326 42.554 16.6474C42.695 15.0122 42.681 13.3382 42.076 11.8049C41.472 10.2715 40.197 8.88379 38.412 8.34039C37.999 8.36949 37.967 8.88379 38.084 9.21379C39.41 12.9257 43.524 15.7109 48.088 15.9826C49.457 16.0651 50.952 15.9002 52.011 15.1189C53.908 13.7215 53.51 11.1158 52.32 9.31079C50.211 6.10829 46.153 3.99759 41.833 3.61429C39.682 3.42499 37.432 3.46869 35.497 4.36149C33.459 5.29799 31.912 7.08359 30.727 8.78189C29.822 10.0823 29.072 11.4992 28.932 12.9888C28.688 15.5411 30.328 17.9963 32.685 19.5005C33.997 20.34 35.53 20.9271 37.146 21.2182C38.257 21.4172 39.447 21.4705 40.539 21.1406C41.631 20.8106 42.601 20.0391 42.826 19.0687C42.437 16.5455 40.67 14.2649 38.196 12.9015C35.722 11.538 32.587 11.0819 29.625 11.5428C28.669 11.6884 27.704 11.9359 26.898 12.4162C24.846 13.6293 24.251 16.0166 24.447 18.0982C24.696 20.699 25.928 23.1931 27.91 25.1291C29.204 26.3907 30.895 27.4388 32.863 27.662C34.832 27.8852 37.076 27.0943 37.938 25.5319M27.015 21.2619C25.872 22.4701 25.506 24.1247 25.825 25.6192C26.144 27.1137 27.09 28.4529 28.304 29.5447C30.122 31.1799 32.648 32.3105 35.333 32.3153C38.009 32.3202 40.624 31.2041 42.601 29.6029C44.489 28.0696 45.909 25.92 45.638 23.7559C45.389 21.7665 43.796 20.1459 42.123 18.7872C40.713 17.6421 39.166 16.5795 37.357 15.9438C35.549 15.3082 33.435 15.1432 31.579 15.7837C29.733 16.4193 28.309 17.7925 27.4 19.3113C26.486 20.83 26.027 22.5041 25.6 24.1587C24.996 26.512 24.588 29.3312 26.617 30.9227C27.306 31.4662 28.196 31.7816 29.077 32.0581C30.961 32.6598 32.901 33.145 34.874 33.509C38.182 34.1252 41.945 34.3338 44.785 32.6356C46.668 31.5098 47.849 29.7096 48.707 27.8998C50.478 24.1587 51.073 19.7092 48.632 16.3854C46.758 13.8331 43.402 12.3629 40 11.5089C37.287 10.8296 34.372 10.4753 31.57 11.0334C28.257 11.6884 25.347 13.6147 23.393 16.0312C21.439 18.4476 20.389 21.3153 19.972 24.1975C19.799 25.4009 19.729 26.6285 19.953 27.8124C20.684 31.6506 24.335 34.5376 28.257 36.4349C30.783 37.6576 33.501 38.5941 36.326 39.2152C37.489 39.4724 38.824 39.6519 39.841 39.0551C41.237 38.2351 41.148 36.3427 40.099 35.2703C39.049 34.198 37.39 33.7322 35.816 33.3197C33.927 32.8199 32.039 32.3202 30.146 31.8204C28.088 31.2769 25.914 30.6704 24.565 29.2487C22.718 27.3029 23.023 24.2557 24.696 22.0965C26.687 19.5199 30.356 18.0351 33.908 18.0691M46.148 27.9774C45.778 31.471 42.142 34.0815 38.655 36.0176C37.423 36.7017 35.975 37.8323 36.565 38.9435C36.884 39.5452 37.69 39.812 38.43 40.0013C41.697 40.831 45.394 41.1221 48.501 39.7635C52.489 38.0215 54.466 33.9893 54.846 30.2191C55.417 24.5275 52.995 18.7533 48.374 14.789C43.754 10.8247 38.21 9.69409 34.56 9.35449C31.936 9.11189 28.749 9.45149 26.312 10.5675C24.504 11.3973 22.892 13.0422 21.533 14.9831C19.939 17.2588 16.612 24.6585 20.127 29.7824C21.326 31.5341 24.166 33.9893 25.506 36.0176C26.837 38.0264 29.096 41.7335 29.639 47.4349C30.23 53.6409 24.757 57.353 21.542 57.673C17.222 58.1 12.681 57.887 11.331 63.171C9.982 68.455 13.042 70.556 15.38 76.781C17.493 82.4 20.98 87.626 25.413 92.517C28.993 96.467 36.687 102.003 38.187 103.464C39.682 104.919 44.789 104.468 45.413 101.639C46.036 98.815 47.076 92.619 44.888 81.017C42.985 70.92 40.975 66.524 40.666 64.02C40.361 61.531 39.728 57.989 38.51 55.582C37.189 52.9616 36.266 50.9382 34.56 49.6427C32.859 48.3471 31.687 48.3374 31.069 48.4684C30.305 48.6286 30.614 49.5942 31.608 49.9872C33.534 50.749 34.232 52.6705 35.188 53.2673C36.027 53.7962 32.882 50.8169 31.434 50.4142C29.986 50.0115 28.983 50.4093 28.651 51.0984C28.318 51.7874 29.147 51.6903 30.31 51.9766C31.387 52.2435 34.016 53.9757 33.43 53.9757C32.845 53.9757 29.574 51.404 28.098 52.3405C26.692 53.2333 29.93 54.1601 29.541 54.5823C29.166 54.9899 28.702 53.0004 27.47 53.5876C26.237 54.1747 28.013 57.455 27.835 58.226C27.657 58.998 27.175 57.275 26.767 57.135C26.355 56.994 27.699 55.926 26.631 54.0582C25.867 52.7239 26.027 53.408 25.399 55.111C24.771 56.814 24.068 56.761 24.068 57.552C24.068 58.343 25.759 60.104 26.148 61.351C27.001 64.054 32.118 64.326 33.07 65.907C35.356 69.707 34.269 79.397 34.269 84.011C34.269 88.63 35.211 90.693 35.97 90.392C36.729 90.091 33.416 81.362 30.952 77.359C28.693 73.686 26.758 72.652 24.841 70.158" stroke="#3B3B4A" stroke-miterlimit="10" stroke-linecap="round" stroke-linejoin="round"/>
<path d="M67 88.399C65.965 85.897 65.07 83.007 64.891 79.073C64.713 75.138 64.538 66.287 62.534 63.257C60.529 60.228 56.5 62.265 55.558 60.629C54.617 58.994 54.452 54.6768 52.744 54.6478C51.365 54.6236 51.502 55.079 51.101 55.262C50.725 55.437 50.739 54.8462 49.511 54.7785C47.892 54.6865 48.278 55.529 47.981 55.596C47.685 55.664 47.9999 54.5316 46.4279 54.5316C44.9219 54.5316 46.291 56.695 46.051 56.937C45.816 57.179 45.562 55.045 45.487 54.6768C45.251 53.5637 44.847 53.283 44.357 53.0314C43.792 52.741 43.411 54.5316 43.59 55.669C43.769 56.806 43.886 57.324 44.004 58.723C44.098 59.87 44.15 62.439 46.95 65.498C49.751 68.557 49.233 67.535 49.986 70.468C52.047 78.521 50.777 80.157 51.93 88.224" stroke="#3B3B4A" stroke-miterlimit="10" stroke-linecap="round" stroke-linejoin="round"/>
<path d="M66.198 86.989C59.801 77.426 58.129 72.511 55.545 60.272" stroke="#3B3B4A" stroke-miterlimit="10" stroke-linecap="round" stroke-linejoin="round"/>
</svg>
