<svg width="66" height="102" viewBox="0 0 66 102" fill="none" xmlns="http://www.w3.org/2000/svg">
<path fill-rule="evenodd" clip-rule="evenodd" d="M25.692 0.00371323C35.5909 0.249261 38.0598 14.0646 45.0552 21.0999C52.0375 28.1221 66.2411 30.6197 65.9969 40.5385C65.752 50.486 51.7599 52.6986 44.121 59.0393C37.7927 64.2922 33.8984 74.2823 25.692 73.9939C17.5274 73.7069 13.4845 64.2933 8.50991 57.7876C4.47445 52.51 0.66686 47.1682 0.110373 40.5385C-0.500885 33.2564 1.45174 26.2882 5.34771 20.115C10.6428 11.7247 15.8011 -0.241637 25.692 0.00371323Z" fill="#F9F9F9"/>
<path d="M21.4483 79.7765C18.4424 80.5764 10.9819 83.4866 11 87.1457C11.0362 97.0676 29.8866 91.6046 35.4819 90.5665C38.524 90.0048 43.1415 88.9156 42.9967 85.2226C42.8699 82.0911 38.0532 81.5805 35.6811 80.6275C31.136 78.8065 26.2288 78.5001 21.4483 79.7765Z" fill="#1499A2"/>
<path d="M47.0423 38.4094C46.8567 38.5004 46.6895 38.5731 46.5967 38.6094C43.8299 39.7731 38.9833 40.8095 37.7577 43.7733C36.4208 47.028 37.0707 50.9554 38.0363 54.2282C38.7791 56.792 40.2646 61.9922 43.2171 62.8831C46.1696 63.774 48.6022 59.3375 50.0877 57.5193C51.7961 55.4465 53.523 53.2464 54.86 50.919C57.1811 46.9007 60.7836 38.7004 54.4329 36.2821C51.7589 35.2457 49.3078 37.3185 47.0423 38.4094Z" fill="#66C1BD"/>
<path d="M36.015 51.1535C34.3112 51.0456 32.643 50.326 31.4894 49.0306C29.3242 46.5839 28.9693 42.554 26.1474 40.9168C23.1836 39.1897 18.587 39.9453 16.6703 42.8239C14.5406 45.9902 13.8484 49.8582 12.7658 53.4923C11.5058 57.7201 10.2634 61.966 9.00336 66.1938C6.50097 74.6674 6.12827 75.1891 3.62588 83.6627C2.98697 85.8576 2.33032 88.0525 2.0641 90.3193C1.62042 93.9534 3.50165 97.1917 7.03339 98.2532C9.51804 98.9908 12.1447 99.0268 14.7358 98.9908C26.5734 98.7569 38.1979 96.5261 50 97.4076" stroke="#272726" stroke-miterlimit="10"/>
<path d="M35.8971 12C31.7172 14.7373 30.1698 20.0177 29.2271 24.9095C29.1026 25.5453 28.9425 26.234 28.4267 26.6225C27.8931 26.9934 26.9326 26.6755 27.0037 26.0221C27.9464 25.9514 28.818 26.9227 28.6579 27.8587C28.0709 27.3819 28.4445 26.2163 29.2093 26.181C29.9741 26.1457 30.4722 27.2583 29.9208 27.7881C29.5117 27.2759 29.6006 26.4459 30.0986 26.0221C30.739 26.4106 31.0413 27.2936 30.7567 28C30.7212 27.3289 31.2548 26.6755 31.9307 26.5519C32.6066 26.7285 32.5176 27.7881 32.0018 28.2472C31.4682 28.7064 30.739 28.8477 30.1698 29.2715C29.2093 29.9956 29.0314 31.3554 28.9781 32.5563C28.8002 37.5718 29.7073 42.6049 31.6105 47.2495C32.7844 50.128 35.8971 51.7704 38.9564 50.6402C40.9486 49.8985 42.496 48.3091 43.83 46.6667C44.5593 45.766 45.253 44.83 46 43.947" stroke="#272726" stroke-miterlimit="10"/>
<path d="M39.868 77C40.1421 71.3882 40.3135 65.7946 39.6967 60.2376C39.5425 58.8301 39.3198 57.4409 39.1999 56.0333C39.0971 54.9548 38.7887 53.4376 39.2341 52.414C39.6453 51.5 40.4505 50.8785 41.2557 50.3484C42.3351 49.6538 43.4829 49.0688 44.665 48.6118C45.0591 48.4656 45.4874 48.3194 45.7786 47.9903C45.9842 47.771 46.1213 47.5151 46.2412 47.2409C46.8237 45.9247 47.0807 44.4441 46.9779 43" stroke="#272726" stroke-miterlimit="10"/>
<path d="M46.5204 47C46.155 46.4715 45.9541 44.0273 46.0089 43.4327C46.0455 42.9538 46.1916 42.4748 46.5204 42.0785C47.0501 41.4344 47.9633 41.1536 48.8401 41.0215C49.7899 40.8729 50.5388 41.517 50.8858 42.2767C51.3972 43.4327 51.7991 44.6218 52 45.8439" stroke="#272726" stroke-miterlimit="10"/>
<path d="M50 41.7301C50.4543 40.9506 50.5868 39.962 51.3628 39.3917C51.9495 38.9734 52.6877 38.8784 53.3502 39.1635C54.164 39.5058 54.5426 40.7225 54.8644 41.4829C55.3375 42.6236 55.7161 43.7833 56 45" stroke="#272726" stroke-miterlimit="10"/>
<path d="M57.9865 45C58.0217 44.1944 57.9865 43.3724 57.8987 42.5833C57.7758 41.4489 57.5124 40.3309 57.1436 39.2459C56.8099 38.2923 56.2655 37.7333 55.0888 38.1279C54.3161 38.391 54.1756 39.0486 54.0351 39.7226C53.9649 40.035 54.0351 40.183 54 40.5118" stroke="#272726" stroke-miterlimit="10"/>
<path d="M57.8573 42.8112C57.925 42.178 58.1111 40.5421 59.1434 41.1225C59.5834 41.3688 59.7696 41.8965 59.9219 42.389C60.2434 43.4796 60.5142 44.5878 60.7342 45.7136C60.988 47.0857 61.1911 49.6714 60.7004 50.9731C60.4465 51.6591 60.0065 52.2572 59.5327 52.8201C57.6712 55.0013 54.7096 56.0567 52.442 57.675C52.0697 57.9389 51.6804 58.2379 51.4604 58.6601C51.2574 59.0471 51.2066 59.5044 51.1728 59.9618C50.5805 67.1034 51.5789 74.2099 53.1358 81.1581C54.625 87.7897 56.1142 94.5268 58.0942 101" stroke="#272726" stroke-miterlimit="10"/>
<path d="M24 59C21.7581 61.4024 19.9301 64.3964 19.2402 67.7131C18.6711 70.51 19.154 73.4143 20.2577 75.996C21.0855 77.9323 22.2927 79.7072 22.8101 81.7869C23.1377 83.1315 23.3274 84.5478 23.4137 86" stroke="#272726" stroke-miterlimit="10"/>
<path d="M16 86C20.685 86.0676 25.3699 86.4054 30 87" stroke="#272726" stroke-miterlimit="10"/>
</svg>
