<svg width="21" height="23" viewBox="0 0 21 23" fill="none" xmlns="http://www.w3.org/2000/svg">
<path d="M20.44 11.05L11.25 20.24C10.1242 21.3659 8.59718 21.9984 7.005 21.9984C5.41282 21.9984 3.88584 21.3659 2.76 20.24C1.63416 19.1142 1.00166 17.5872 1.00166 15.995C1.00166 14.4029 1.63416 12.8759 2.76 11.75L11.95 2.56004C12.7006 1.80948 13.7185 1.38782 14.78 1.38782C15.8415 1.38782 16.8594 1.80948 17.61 2.56004C18.3606 3.3106 18.7822 4.32859 18.7822 5.39004C18.7822 6.4515 18.3606 7.46948 17.61 8.22004L8.41 17.41C8.03472 17.7853 7.52573 17.9962 6.995 17.9962C6.46427 17.9962 5.95528 17.7853 5.58 17.41C5.20472 17.0348 4.99389 16.5258 4.99389 15.995C4.99389 15.4643 5.20472 14.9553 5.58 14.58L14.07 6.10004" stroke="#3B3B4A" stroke-linecap="round" stroke-linejoin="round"/>
</svg>
