<svg width="328" height="121" viewBox="0 0 328 121" fill="none" xmlns="http://www.w3.org/2000/svg">
<g clip-path="url(#clip0_113_2)">
<path d="M0 120.5H328" stroke="#F9F9F9"/>
<path d="M1 114.5H328" stroke="#F9F9F9"/>
<path d="M1 78.5H328" stroke="#F9F9F9"/>
<path d="M1 42.5H328" stroke="#F9F9F9"/>
<path d="M1 12.5H328" stroke="#F9F9F9"/>
<path d="M1 96.5H328" stroke="#F9F9F9"/>
<path d="M1 24.5H328" stroke="#F9F9F9"/>
<path d="M1 108.5H328" stroke="#F9F9F9"/>
<path d="M1 72.5H328" stroke="#F9F9F9"/>
<path d="M1 36.5H328" stroke="#F9F9F9"/>
<path d="M0 6.5H328" stroke="#F9F9F9"/>
<path d="M0 0.5H328" stroke="#F9F9F9"/>
<path d="M1 90.5H328" stroke="#F9F9F9"/>
<path d="M1 54.5H328" stroke="#F9F9F9"/>
<path d="M1 102.5H328" stroke="#F9F9F9"/>
<path d="M1 66.5H328" stroke="#F9F9F9"/>
<path d="M1 30.5H328" stroke="#F9F9F9"/>
<path d="M1 84.5H328" stroke="#F9F9F9"/>
<path d="M1 48.5H328" stroke="#F9F9F9"/>
<path d="M1 18.5H328" stroke="#F9F9F9"/>
<path d="M6.5 121V1" stroke="#F9F9F9"/>
<path d="M114.5 121V1" stroke="#F9F9F9"/>
<path d="M18.5 121V1" stroke="#F9F9F9"/>
<path d="M126.5 121V1" stroke="#F9F9F9"/>
<path d="M30.5 121V1" stroke="#F9F9F9"/>
<path d="M138.5 121V1" stroke="#F9F9F9"/>
<path d="M222.5 121V1" stroke="#F9F9F9"/>
<path d="M42.5 121V1" stroke="#F9F9F9"/>
<path d="M150.5 121V1" stroke="#F9F9F9"/>
<path d="M234.5 121V1" stroke="#F9F9F9"/>
<path d="M54.5 121V1" stroke="#F9F9F9"/>
<path d="M162.5 121V1" stroke="#F9F9F9"/>
<path d="M246.5 121V1" stroke="#F9F9F9"/>
<path d="M66.5 121V1" stroke="#F9F9F9"/>
<path d="M174.5 121V1" stroke="#F9F9F9"/>
<path d="M258.5 121V1" stroke="#F9F9F9"/>
<path d="M78.5 121V1" stroke="#F9F9F9"/>
<path d="M186.5 121V1" stroke="#F9F9F9"/>
<path d="M270.5 121V1" stroke="#F9F9F9"/>
<path d="M90.5 121V1" stroke="#F9F9F9"/>
<path d="M198.5 121V1" stroke="#F9F9F9"/>
<path d="M282.5 121V1" stroke="#F9F9F9"/>
<path d="M312.5 121V1" stroke="#F9F9F9"/>
<path d="M102.5 121V1" stroke="#F9F9F9"/>
<path d="M210.5 121V1" stroke="#F9F9F9"/>
<path d="M294.5 121V1" stroke="#F9F9F9"/>
<path d="M324.5 121V1" stroke="#F9F9F9"/>
<path d="M12.5 121V1" stroke="#F9F9F9"/>
<path d="M120.5 121V1" stroke="#F9F9F9"/>
<path d="M24.5 121V1" stroke="#F9F9F9"/>
<path d="M132.5 121V1" stroke="#F9F9F9"/>
<path d="M36.5 121V1" stroke="#F9F9F9"/>
<path d="M144.5 121V1" stroke="#F9F9F9"/>
<path d="M228.5 121V1" stroke="#F9F9F9"/>
<path d="M48.5 121V1" stroke="#F9F9F9"/>
<path d="M156.5 121V1" stroke="#F9F9F9"/>
<path d="M240.5 121V1" stroke="#F9F9F9"/>
<path d="M60.5 121V1" stroke="#F9F9F9"/>
<path d="M168.5 121V1" stroke="#F9F9F9"/>
<path d="M252.5 121V1" stroke="#F9F9F9"/>
<path d="M72.5 121V1" stroke="#F9F9F9"/>
<path d="M180.5 121V1" stroke="#F9F9F9"/>
<path d="M264.5 121V1" stroke="#F9F9F9"/>
<path d="M84.5 121V1" stroke="#F9F9F9"/>
<path d="M192.5 121V1" stroke="#F9F9F9"/>
<path d="M276.5 121V1" stroke="#F9F9F9"/>
<path d="M306.5 121V1" stroke="#F9F9F9"/>
<path d="M96.5 121V1" stroke="#F9F9F9"/>
<path d="M204.5 121V1" stroke="#F9F9F9"/>
<path d="M288.5 121V1" stroke="#F9F9F9"/>
<path d="M318.5 121V1" stroke="#F9F9F9"/>
<path d="M108.5 121V1" stroke="#F9F9F9"/>
<path d="M216.5 121V1" stroke="#F9F9F9"/>
<path d="M300.5 121V1" stroke="#F9F9F9"/>
</g>
<defs>
<clipPath id="clip0_113_2">
<rect width="328" height="121" fill="white"/>
</clipPath>
</defs>
</svg>
