<svg width="21" height="21" viewBox="0 0 21 21" fill="none" xmlns="http://www.w3.org/2000/svg">
<path d="M10.7143 8.59094V12.6573H16.4805C16.2273 13.9651 15.4675 15.0724 14.3279 15.8169L17.8052 18.4611C19.8312 16.6284 21 13.9365 21 10.7388C21 9.99425 20.9318 9.27827 20.8052 8.59106L10.7143 8.59094Z" fill="#4285F4"/>
<path d="M4.70968 12.4986L3.92542 13.0869L1.14938 15.206C2.91238 18.6328 6.52577 21.0001 10.7141 21.0001C13.6069 21.0001 16.0322 20.0647 17.805 18.4611L14.3277 15.8169C13.3731 16.4469 12.1556 16.8288 10.7141 16.8288C7.92835 16.8288 5.56153 14.9865 4.71406 12.5047L4.70968 12.4986Z" fill="#34A853"/>
<path d="M1.1494 5.79413C0.418912 7.20681 0.00012207 8.80093 0.00012207 10.5C0.00012207 12.1991 0.418912 13.7932 1.1494 15.2059C1.1494 15.2154 4.71441 12.4949 4.71441 12.4949C4.50013 11.8649 4.37347 11.1968 4.37347 10.4999C4.37347 9.80298 4.50013 9.13483 4.71441 8.50483L1.1494 5.79413Z" fill="#FBBC05"/>
<path d="M10.7143 4.18093C12.2922 4.18093 13.6948 4.71546 14.815 5.74639L17.8831 2.7396C16.0227 1.04053 13.6072 0 10.7143 0C6.52599 0 2.91238 2.35774 1.14938 5.79413L4.71429 8.50506C5.56165 6.0232 7.92857 4.18093 10.7143 4.18093Z" fill="#EA4335"/>
</svg>
