<svg width="66" height="100" viewBox="0 0 66 100" fill="none" xmlns="http://www.w3.org/2000/svg">
<path d="M36.0823 20.6677C35.1715 16.1389 35.9207 11.2265 38.4032 7.33204C40.8858 3.43755 45.0723 0.61995 49.6555 0.0888831C54.2239 -0.442183 59.0568 1.4313 61.9213 5.0455C65.5643 9.64808 65.6525 16.0504 65.579 21.9216C65.5349 25.8456 65.3293 30.1531 62.6852 33.015C58.7483 37.2783 51.5211 36.939 46.8057 34.4459C41.4293 31.6283 37.3015 26.716 36.0823 20.6677Z" fill="#1499A2"/>
<path d="M7.31996 20.0338C10.0963 18.7061 13.4015 18.3668 16.2806 19.4437C19.1598 20.5206 21.5101 23.1169 22.0096 26.1558C22.3768 28.4423 21.7305 30.8174 20.5994 32.8384C18.866 35.951 15.9428 38.4441 12.4907 39.3144C9.05333 40.1848 5.1312 39.2849 2.63397 36.7476C-2.96278 31.0976 1.19439 22.9841 7.31996 20.0338Z" fill="white"/>
<path d="M25.8583 67.2095C23.6842 65.1 21.4661 62.9462 18.7044 61.707C15.9575 60.4531 12.5348 60.2614 10.0522 61.9873C8.1132 63.3445 7.02617 65.6605 6.62955 68.0061C5.58659 74.0396 8.67141 80.2501 13.3133 84.2184C17.9552 88.1866 23.9633 90.1929 29.942 91.3878C32.0573 91.8156 34.2313 92.1401 36.3613 91.7861C38.4913 91.432 40.5773 90.2666 41.5908 88.3636C42.8542 85.9738 42.1491 82.9202 40.5626 80.7369C38.7558 78.2439 36.0235 76.9752 33.82 74.969C31.0878 72.4611 28.5024 69.7763 25.8583 67.2095Z" fill="#7FBDBA"/>
<path d="M34.9952 99.0003C34.6426 97.112 34.2901 95.1943 34.3782 93.2766C34.4664 91.3588 35.0393 89.3968 36.332 87.9659C38.6823 85.3548 42.7072 85.1631 45.6011 83.1863C47.5695 81.8439 48.9356 79.6754 49.3176 77.3151C49.4939 76.1792 49.4204 74.9253 48.7006 74.0402C48.1718 73.3911 47.3785 73.037 46.6 72.7715C44.5435 72.0634 42.3106 71.8126 40.1513 72.0487C39.8281 72.0782 39.6959 72.4765 39.9309 72.6977C41.1355 73.8041 42.6044 74.6155 44.1762 75.0728C45.4983 75.4563 46.9525 75.5744 48.2159 75.058C49.4939 74.5417 50.5074 73.2583 50.434 71.8864C50.4046 71.2668 50.1549 70.6767 49.7436 70.2047C48.73 69.0688 46.9819 68.9655 45.4836 69.2311C43.4711 69.5999 41.5908 70.485 39.7546 71.4291C39.4755 71.5766 39.5049 71.9897 39.7987 72.0929C42.4135 72.9485 45.7333 71.4586 48.069 73.0223C48.7741 73.4943 49.4498 74.2762 50.4046 73.7599C50.6543 73.6271 50.86 73.4353 51.0363 73.1993C52.8284 70.78 53.8273 67.7854 53.8714 64.776C53.9007 62.696 53.5041 60.5865 53.9301 58.5655C54.1652 57.4738 54.6205 56.4412 54.9731 55.3791C55.3256 54.3169 55.59 53.1811 55.3844 52.0894C55.1787 50.983 54.4149 49.9356 53.3425 49.6701C52.2555 49.4046 50.9628 50.1864 50.9187 51.3076C51.7707 51.3223 52.6374 51.3666 53.416 51.6616C54.3708 52.0304 55.2081 52.8713 55.1494 53.9629C55.12 54.494 54.8262 54.9955 54.3561 55.2316C53.6069 55.6151 52.8872 55.2021 52.2702 54.789C51.6532 54.376 50.9775 53.9039 50.1843 54.1694C49.6995 54.3317 49.4351 54.8185 49.6407 55.2906C49.9492 56.0282 51.0656 55.7184 51.8589 55.8511C52.7549 55.9987 53.4013 57.0165 53.1809 57.9016C52.9459 58.7868 51.9029 59.3473 51.0363 59.0523C50.4781 58.8605 50.0961 58.3294 49.9786 57.7541C49.9052 57.3706 50.4046 57.1641 50.6396 57.4738C50.86 57.7541 51.051 58.0344 51.2419 58.3294C52.2702 59.9079 53.0487 61.7814 52.7549 63.6549C52.4612 65.5136 50.8159 67.2543 48.9356 67.0773C48.3187 67.0183 47.6723 66.7232 47.4961 66.1037C47.3785 65.6759 47.5548 65.2038 47.9661 65.0563C48.3481 64.9088 48.6712 65.1596 49.0091 65.2776C49.2735 65.3661 49.6408 65.3366 49.7583 65.071C49.8758 64.8055 49.6407 64.5252 49.4057 64.363C48.4215 63.6549 47.0407 63.5811 45.9683 64.1122C45.7039 64.2449 45.6305 64.599 45.8214 64.835L46.1446 65.2481C46.3943 65.5579 46.2474 66.0152 45.8802 66.1332C44.4112 66.561 42.6044 65.7644 42.0756 64.2892C41.8993 63.7729 41.8699 63.1385 42.3106 62.755C42.6485 62.46 43.1332 62.4895 43.3683 62.873C43.6327 63.3156 43.2361 63.8614 42.8688 64.2302C41.5908 65.4693 40.1806 66.5905 39.0495 67.9772C37.7422 69.5704 36.7726 71.5766 37.1252 73.6714C37.2574 74.4827 37.6246 75.2351 38.1535 75.8399C39.7693 77.6544 41.6496 77.0348 43.4711 76.8725C44.8813 76.7545 46.5559 77.0495 47.0407 78.569C47.1729 78.9673 47.1729 79.3951 47.0848 79.8081C46.835 80.9735 45.983 81.8291 45.0429 82.4782C42.7954 84.0272 39.9162 84.5877 37.1252 83.8206C33.3059 82.847 29.4572 81.8586 25.9317 80.1179C22.3915 78.3772 19.1451 75.8104 17.2648 72.3437C14.8998 67.9919 14.9292 62.7845 14.8704 57.8279C14.841 55.9544 14.7823 54.0072 14.0331 52.2959C13.2839 50.57 11.6534 49.1095 9.78781 49.1095C7.84878 49.1095 6.17416 50.747 5.63065 52.6057C5.08713 54.4792 5.48375 56.5002 6.20354 58.3147C7.09961 60.5717 8.48044 62.6075 10.0522 64.4662C10.5957 65.1153 11.198 65.7644 12.0794 65.8824C12.4173 65.9267 12.7698 65.8529 13.0636 65.6611C13.9744 65.0268 13.5484 63.7729 12.7992 63.1828C12.1528 62.6665 11.3155 62.46 10.5811 62.0764C8.50981 60.9995 7.40809 58.654 6.79113 56.397C6.52672 55.4528 6.33575 54.4497 6.49734 53.4761C6.67361 52.5025 7.27589 51.5583 8.20133 51.2486C8.58326 51.1158 9.00926 51.1305 9.39119 51.2633C10.0522 51.4846 10.1257 52.414 9.49402 52.6942C8.78892 53.0188 8.20133 53.6089 7.90754 54.3169C7.65782 54.9218 7.62844 55.6004 7.77533 56.2347C7.93692 56.8985 8.89174 56.8395 9.00926 56.1609C9.02395 56.1167 9.02395 56.0724 9.03864 56.0282C9.14147 55.3643 9.2443 54.6415 9.89064 54.2579C10.2432 54.0514 10.7133 54.1104 10.9483 54.4497C11.3302 54.9808 10.8014 55.6299 10.4488 56.1314C9.39119 57.6214 9.56747 59.8784 10.9336 61.1175C11.2421 61.3978 11.6681 61.5158 12.05 61.3536C12.5495 61.147 12.5788 60.675 12.5935 60.2472L12.667 57.8574C12.6817 57.3558 13.3721 57.2673 13.5337 57.7394C13.6218 58.0049 13.6512 58.2852 13.6512 58.5507C13.6365 59.2736 13.519 60.0997 14.0625 60.5865C14.5766 61.0438 15.3699 60.9405 15.8399 60.439C16.6772 59.5391 16.4863 58.3442 16.3247 57.2526C16.1484 56.0577 16.0309 54.73 17.2354 53.9186C17.6174 53.6679 18.0874 53.5203 18.5428 53.5056C19.8649 53.4466 20.996 54.1252 22.0536 54.848C24.4481 56.5002 26.6956 58.4622 29.4278 59.4358C32.1601 60.4095 35.6415 60.0849 37.419 57.8131C40.871 54.4645 43.1626 50.1422 45.7039 46.0707C48.2452 41.9844 51.2272 37.9424 55.4578 35.7001C56.1923 35.3166 56.9562 34.9773 57.7788 34.8888C58.6014 34.8003 59.4681 34.9773 60.0998 35.5083C60.7755 36.0837 61.084 37.013 61.0693 37.9129C61.0546 38.798 60.7461 39.6684 60.3789 40.4797C58.5867 44.3594 55.1494 47.3393 51.2419 49.0505C50.243 49.4931 49.1119 49.8619 48.0836 49.5078C46.8203 49.0948 46.1152 47.7524 45.7333 46.469C45.4542 45.4953 45.3073 44.3447 46.3356 43.6809C46.6588 43.4596 47.0554 43.3563 47.4373 43.3563C48.7153 43.3121 49.7583 44.0349 50.9041 44.4185C52.6227 44.9938 54.5765 44.7873 56.1483 43.8726C57.7054 42.958 58.8511 41.3353 59.2037 39.5503C59.3065 39.034 59.3359 38.4735 59.0274 38.0309C58.8805 37.8096 58.6455 37.6474 58.3958 37.6179C57.8376 37.5293 57.4997 38.0162 57.4262 38.4882C57.3822 38.8423 57.4556 39.1963 57.5144 39.5503C57.6907 40.583 57.7053 41.7631 56.9121 42.5155C56.4127 43.0023 55.6341 43.1203 55.0759 42.6925C54.5765 42.2942 54.5912 41.6746 54.5177 41.114C54.4443 40.5977 54.2092 40.0077 53.6363 39.9486C53.3719 39.9339 53.1222 40.0372 52.9312 40.2142C52.1086 40.9665 52.4318 42.368 51.2419 42.8843C50.9187 43.017 50.5515 43.0613 50.2136 42.9728C49.2735 42.7662 48.6712 41.8959 48.5096 40.9813C48.3774 40.2437 48.495 39.4766 48.6859 38.7537C49.2441 36.7475 50.4927 34.9478 52.1821 33.7824C53.842 32.5432 54.6058 30.2272 54.0183 28.2504C53.842 27.6604 53.5482 27.0703 53.7245 26.436C53.7979 26.1704 53.9742 25.9491 54.2092 25.8311C54.929 25.4918 55.3844 26.4065 56.0307 26.3474C56.3245 26.3179 56.5742 26.0672 56.6771 25.7721C56.7799 25.4918 56.7652 25.1673 56.7358 24.8723C56.5449 22.8955 55.7223 20.9925 54.5765 19.3698C53.4307 17.7471 51.9617 16.3604 50.3752 15.1213C48.5096 13.9854 46.4972 13.1003 44.3672 12.6725C42.2372 12.2447 39.9897 12.2889 37.9184 12.9823C37.419 13.1445 36.9195 13.3658 36.6404 13.8379C36.5082 14.0592 36.4495 14.3394 36.5229 14.5902C36.6992 15.1508 37.3162 15.2836 37.845 15.3426C39.8575 15.5638 41.8993 15.5786 43.9118 15.8736C45.9243 16.1687 47.9368 16.744 49.5526 17.9979C49.8317 18.2192 50.1108 18.4552 50.4487 18.5437C50.7865 18.6322 51.2125 18.5437 51.3594 18.2192C51.477 17.9536 51.3888 17.6291 51.2713 17.3783C50.9775 16.685 50.4927 16.0949 49.8758 15.6819C47.4226 14.0739 44.2644 13.6461 41.4586 14.487C39.0348 15.2245 36.9049 16.8915 35.6269 19.0895C35.3624 19.5321 35.1421 20.0927 35.4065 20.5205C35.5975 20.845 36.0088 20.9778 36.376 20.9483C36.7433 20.9335 37.0958 20.786 37.4484 20.6532C39.3874 19.9746 41.5908 19.9599 43.4858 20.7565C45.4836 21.5973 47.1141 23.3823 47.5989 25.5066C47.6723 25.8016 47.6576 26.1262 47.5254 26.4065C47.1876 27.0998 46.4237 26.9523 45.9977 26.554C45.6746 26.2589 45.4983 25.8459 45.2926 25.4623C44.3819 23.8101 42.8835 22.512 41.1355 21.8334C39.5637 21.2286 37.7862 21.14 36.1557 21.5973C35.8766 21.6711 35.7591 21.9956 35.906 22.2317C36.8608 23.7216 38.2269 24.9313 39.8281 25.6836C41.5908 26.5097 43.6033 26.7752 45.513 26.4212C45.8949 26.3474 46.365 26.3032 46.5559 26.6572C46.6588 26.849 46.6147 27.085 46.4678 27.2621C46.2034 27.5866 45.7921 27.6309 45.4101 27.6456C42.0756 27.7784 38.7117 26.4802 36.3173 24.1494C35.7737 23.6184 35.2596 23.043 34.5692 22.748C33.8788 22.453 32.9387 22.571 32.5861 23.3381C31.3522 24.7985 30.7499 26.7752 30.9702 28.693C31.0584 29.4896 31.2787 30.2714 31.22 31.068C31.1612 31.8646 30.7205 32.7055 29.9567 32.912C29.7363 32.971 29.5013 32.971 29.2956 32.8678C28.9284 32.7055 28.7521 32.2777 28.708 31.8794C28.664 31.4811 28.7374 31.0828 28.7227 30.6845C28.708 30.2714 28.6052 29.8584 28.3261 29.5486C28.047 29.2536 27.5916 29.106 27.2244 29.2831C26.7837 29.5043 26.6368 30.0649 26.2549 30.3894C25.9758 30.6255 25.5645 30.6992 25.2266 30.5665C24.8887 30.4337 24.6243 30.1239 24.5509 29.7551C24.4774 29.3421 24.6537 28.8995 24.5509 28.5012C24.4627 28.1472 24.1543 27.8816 23.8017 27.8226C23.4492 27.7636 23.0672 27.9406 22.8763 28.2357C22.7294 28.457 22.6853 28.7372 22.5972 28.988C22.509 29.2388 22.3181 29.4896 22.0536 29.5338C21.848 29.5633 21.6423 29.4453 21.5248 29.2831C21.3926 29.1208 21.3339 28.9143 21.2898 28.7077C21.2016 28.2799 21.187 27.8226 21.3339 27.4096C21.4807 26.9965 21.8039 26.6277 22.2887 26.4507C21.6276 26.7015 21.0107 27.1293 20.6434 27.7341C20.2615 28.3389 20.1587 29.1208 20.4231 29.7699C20.6875 30.419 21.3926 30.9058 22.0977 30.832C22.3915 30.8025 22.6706 30.6845 22.9644 30.596C23.2435 30.5075 23.552 30.4337 23.8458 30.5222C24.1396 30.596 24.3893 30.8468 24.3893 31.1565C24.3746 31.6286 23.7723 31.9236 23.7576 32.3957C23.7576 32.7645 24.1249 33.03 24.4921 33.1038C24.8447 33.1775 25.2266 33.148 25.5792 33.2808C25.9905 33.4283 26.2696 33.7824 26.534 34.1364C27.3713 35.2281 28.1351 36.3787 28.8843 37.5736C29.2222 38.857 29.56 40.1552 30.2358 41.2763C30.4267 41.5861 30.6471 41.9549 30.5442 42.3089C30.4855 42.486 30.368 42.6335 30.2064 42.7367C29.751 43.076 29.1487 43.1055 28.5758 43.076C28.0176 43.0465 27.43 42.9728 26.9306 43.1793C25.0797 43.2826 23.2582 42.781 21.5101 42.1467C19.6592 41.4828 17.8377 40.6567 16.5744 39.0045C16.1631 38.4735 15.884 37.8539 15.7224 37.2048C15.649 36.9098 15.6049 36.6 15.7371 36.3197C15.8693 36.0394 16.1484 35.8624 16.4128 35.7001C17.8818 34.815 19.3508 33.9299 20.8197 33.0448C21.4367 32.676 22.2005 32.2924 22.8322 32.6317C23.2729 32.8678 23.5079 33.3693 23.9045 33.6791C24.2277 33.9299 24.639 34.0184 25.0356 34.1217C25.4323 34.2249 25.8436 34.3282 26.152 34.6085C26.4605 34.8888 26.6074 35.3756 26.3871 35.7149C26.1961 36.0099 25.7995 36.0984 25.4469 36.0394C25.1091 35.9804 24.8006 35.7886 24.4921 35.6116C23.3316 34.9625 21.9655 34.5347 20.7022 34.8888C19.8943 35.11 19.2185 35.6264 18.4988 36.0689C17.9993 36.3787 17.4411 36.6442 16.8682 36.7475C16.6332 36.7918 16.5891 37.1015 16.8095 37.2048C17.3089 37.4113 17.8965 37.4556 18.4547 37.3966C19.2773 37.3081 20.0559 37.013 20.8638 36.8803C23.4051 36.4672 26.1227 37.7506 27.4447 39.9486C27.8707 40.6715 28.1792 41.4828 28.7962 42.0582C28.9871 42.2352 29.2809 42.3975 29.516 42.2647C29.7363 42.1467 29.7657 41.8221 29.6482 41.6009C29.5307 41.3796 29.3103 41.2468 29.1047 41.114C26.0639 39.2553 22.6412 37.7949 19.0863 37.7654C18.7338 37.7654 18.3666 37.7801 18.0581 37.9424C17.7496 38.1047 17.4999 38.444 17.5586 38.798C17.6321 39.152 17.9846 39.3881 18.2931 39.5503C20.9519 40.996 23.8458 42.0582 26.8425 42.486C27.5329 42.5892 28.238 42.6482 28.8843 42.8695C29.7069 43.1498 30.4855 43.6956 30.7205 44.5807C30.8087 44.92 30.794 45.2888 30.6471 45.6134C30.2798 46.4542 29.3838 46.587 28.5905 46.528C27.6063 46.4542 26.6515 46.1444 25.7554 45.7461C24.8153 45.3183 23.9192 44.7873 22.9791 44.3447C22.039 43.9021 21.0401 43.5333 20.0118 43.4743C18.9835 43.4153 17.8965 43.6809 17.1179 44.3742C16.2072 45.1856 15.8252 46.6312 16.5597 47.6934C16.8094 48.0622 17.2354 48.2982 17.6761 48.2539C18.3959 48.1802 18.6163 47.4868 19.0423 47C19.6152 46.3509 20.5553 46.1149 21.4073 46.2034C22.2593 46.2919 23.0672 46.646 23.7723 46.8083C26.7103 48.8293 29.6776 50.865 32.968 52.2222C34.2901 52.768 35.7003 53.2106 37.1399 53.2253C38.6088 53.2401 40.1366 52.7385 41.1355 51.6321C41.297 51.4551 41.4146 51.2633 41.4586 51.0273C41.5615 50.4077 40.9739 50.1422 40.5038 50.2454C40.1513 50.3192 39.8575 50.5405 39.5637 50.7618C36.8167 52.7385 33.4969 53.8891 30.1329 54.2137C26.769 54.5382 23.3463 54.0662 20.1146 53.0335C17.9846 52.3402 15.9134 51.3961 14.1212 50.0537C12.285 48.5342 10.7867 46.764 9.99347 44.6102C8.71547 42.2794 8.28947 39.5799 8.33354 36.9245C8.37761 34.2692 8.87706 31.6581 9.3765 29.047C10.4048 23.6921 11.4624 18.2339 14.0331 13.4248C15.1201 11.3891 16.545 9.42707 18.5428 8.26168C21.3632 6.62422 25.1825 6.94876 27.7091 9.02877C28.2233 9.45658 28.708 9.97289 28.7668 10.681C28.7962 10.9908 28.708 11.3006 28.5024 11.5366C27.9883 12.1414 27.1363 11.9054 26.4605 11.6546C24.5068 10.9318 22.5531 10.2237 20.6141 9.50083C19.9677 9.2648 19.2773 8.99927 18.9835 8.30593C18.8219 7.92239 18.9101 7.47983 19.2185 7.2143C19.7474 6.78649 20.4672 7.19954 20.9813 7.59784C22.5678 8.837 24.1836 10.0762 25.491 11.6103C26.8718 13.2183 27.9295 15.195 28.0617 17.3193C28.0764 17.5701 27.9295 17.8061 27.6945 17.8946C27.2538 18.0422 26.9747 17.4668 26.8278 17.0243C26.2402 15.0918 24.639 13.4838 22.7147 12.9085C20.9519 12.3774 18.9394 12.7167 17.4264 13.7641C17.1767 13.9411 17.1767 14.2952 17.4264 14.4722C17.8818 14.7967 18.5134 14.9148 19.0863 14.9C19.8502 14.8705 20.5994 14.6345 21.3779 14.5755C23.5814 14.3837 25.8289 15.7261 26.7837 17.7324C26.9306 18.0274 26.7249 18.3814 26.4018 18.4109C24.4334 18.529 22.4356 17.9094 20.8932 16.6997C20.0999 16.0802 19.3214 15.2688 18.3959 15.0328C18.0874 14.959 17.823 15.2688 17.9552 15.5491C18.6603 17.0685 19.9236 18.3224 21.4514 18.9863C22.935 19.6354 24.639 19.7239 26.1667 19.2518C26.3577 19.1928 26.5046 19.4436 26.3577 19.5763C25.1532 20.727 23.5226 21.4351 21.8627 21.5236C19.9237 21.6269 17.9552 20.8745 16.5597 19.5173" stroke="#3B3B4A" stroke-miterlimit="10"/>
</svg>
