<svg width="129" height="83" viewBox="0 0 129 83" fill="none" xmlns="http://www.w3.org/2000/svg">
<path d="M75.1443 24.6668C76.1352 26.4108 76.9365 28.2786 77.6742 29.8822C78.7235 32.2074 79.8506 34.5053 81.5035 36.4753C84.4049 39.927 88.5037 42.5571 93.0302 43.0027C95.7148 43.2639 99.0191 43.0496 100.329 45.3694C101.311 47.0878 100.527 49.2541 99.4953 50.963C97.7735 53.8597 95.4138 56.35 92.6845 58.3683C85.2369 63.8766 75.4818 65.467 66.25 64.8965C57.0183 64.326 48.0774 61.7622 39.0642 59.7395C33.3396 58.4537 27.5651 57.3574 21.7753 56.4669C19.5845 56.1184 16.8505 55.3015 16.6618 53.1041C16.5414 51.599 17.7601 50.3402 18.9209 49.331C30.5852 38.904 43.1085 29.2642 56.9235 21.8933C60.0904 20.2085 63.5095 18.5785 67.1128 18.7178C70.9235 18.7842 73.3398 21.5179 75.1443 24.6668Z" fill="#66C1BD"/>
<path d="M69.1478 29.4224C71.7516 30.216 74.2933 31.3295 76.7404 32.422C78.4061 33.1926 80.106 33.9782 81.9636 34.3019C85.0938 34.8565 88.3783 34.0288 91.3979 32.8605C94.4175 31.6921 97.3016 30.1377 100.389 29.1624C101.881 28.6929 103.536 28.356 104.901 29.0152C105.355 29.235 105.775 29.6026 105.798 30.0824C105.805 30.351 105.692 30.6076 105.57 30.8401C104.736 32.2714 103.138 33.1032 101.738 34.0825C100.105 35.2251 98.7191 36.6601 97.1882 37.9293C93.5298 40.9211 89.0418 42.9572 84.3802 43.7533C75.5222 45.2635 66.6122 42.3197 57.6553 43.0515C47.2259 43.8936 37.8125 50.6943 29.0541 55.8829C28.0435 56.4815 27.0155 57.1134 25.9357 57.7635" stroke="#3B3B4A" stroke-miterlimit="10"/>
<path d="M97.3085 38.0789C99.4244 38.4981 101.566 38.8167 103.715 39.0714C108.711 39.672 113.653 39.7719 118.643 39.5795C120.433 39.5016 127.11 39.0229 126.916 42.1794C126.707 45.5548 121.975 46.4822 119.359 46.8808C107.74 48.7271 96.038 46.1079 84.5592 44.2971" stroke="#3B3B4A" stroke-miterlimit="10"/>
<path d="M3.60328 46.9655C7.3402 45.0015 15.5856 41.1288 19.1897 39.0336C29.9761 32.7569 40.7533 26.4538 51.5397 20.1772C55.5538 17.849 59.6102 15.4764 64.0835 14.2916C73.7091 11.7133 79.997 17.5111 88.7921 19.8197C95.323 21.5297 102.249 21.2331 108.869 20.8068C109.716 20.7468 110.623 20.695 111.385 21.0504C112.435 21.571 112.609 22.7256 112.11 23.6122" stroke="#3B3B4A" stroke-miterlimit="10"/>
<path d="M104.451 29.3913C106.426 29.2095 108.368 28.9318 110.302 28.5491C115.033 27.5883 119.734 26.0457 124.569 26.0445C126.491 26.0429 129.071 26.7527 127.938 29.1693C127.525 30.0679 126.641 30.7015 125.715 31.1342C124.694 31.6272 123.597 31.9046 122.534 32.1968C116.721 33.7259 107.587 35.5862 100.256 36.1942" stroke="#3B3B4A" stroke-miterlimit="10"/>
<path d="M91.0831 23.2679C95.7856 24.0498 98.8748 23.9554 103.626 23.4192C108.207 22.8859 112.78 21.7616 117.402 22.2325C119.106 22.3979 121.328 23.2302 120.672 25.2425" stroke="#3B3B4A" stroke-miterlimit="10"/>
<path d="M81.8034 20.3868C80.1116 18.6528 78.999 16.2719 79.0267 13.848C79.0544 11.4241 80.3243 9.0076 82.4006 7.85998C83.9651 7.00287 85.8596 6.87985 87.6239 7.20897C90.3388 7.70938 92.9156 9.25601 94.4524 11.6111C95.9853 13.9553 96.3594 17.1126 95.1709 19.6238C92.5338 25.2423 85.5515 24.2075 81.8034 20.3868Z" fill="white"/>
</svg>
