<svg width="66" height="155" viewBox="0 0 66 155" fill="none" xmlns="http://www.w3.org/2000/svg">
<path d="M48.5737 60.9818C46.1122 60.5397 43.5833 60.3697 41.3917 60.1656C38.2221 59.8936 35.0526 59.5195 32.0517 58.3973C26.7916 56.4249 22.0036 52.7181 19.6096 47.6171C18.1934 44.5904 17.0807 40.6456 13.8101 40.0675C11.3823 39.6254 9.15693 41.4278 7.57217 43.3322C4.8747 46.5288 2.91904 50.3036 1.67146 54.3164C-1.73409 65.2667 0.423881 77.3051 4.90842 87.8472C9.39296 98.3894 16.1029 107.775 22.2059 117.467C26.0835 123.623 29.7588 129.914 33.1981 136.307C34.5131 138.722 36.6036 141.578 39.2674 140.898C41.0882 140.422 42.066 138.484 42.7741 136.715C50.2259 118.828 56.3963 100.26 59.3635 81.1139C60.0379 76.727 60.5437 72.068 58.8915 67.9192C57.2393 63.4983 53.0245 61.7979 48.5737 60.9818Z" fill="#66C1BD"/>
<path d="M46 70.3079C43.8747 67.6095 41.3784 65.1135 38.9495 62.7187C37.2628 61.0996 35.5423 59.4468 34.3279 57.423C32.2701 54.0163 31.8653 49.8675 32.0002 45.8874C32.1352 41.9073 32.8099 37.9271 32.6749 33.947C32.6074 32.0244 32.3038 29.9669 30.887 28.6514C30.4147 28.2129 29.7738 27.8756 29.1665 28.0443C28.8292 28.1454 28.5593 28.3816 28.3232 28.6177C26.9063 30.1692 26.569 32.3617 25.9618 34.3855C25.2534 36.7466 24.0726 38.939 23.1618 41.2327C21.0366 46.6969 20.4631 52.7346 21.5088 58.4687C23.4992 69.3635 31.0557 78.5043 34.058 89.1967C37.5664 101.643 33.2147 115.337 30.5834 127.615C30.2798 129.032 29.9424 130.482 29.6051 132" stroke="#3B3B4A" stroke-miterlimit="10"/>
<path d="M23 41.0881C21.7011 38.8583 20.5048 36.56 19.3768 34.2273C16.7449 28.8072 14.694 23.25 12.9508 17.5212C12.3356 15.463 10.2505 7.71024 6.79825 9.18531C3.10672 10.7633 3.92706 16.4921 4.50813 19.6138C7.00334 33.5069 14.5231 45.7191 21.0517 58" stroke="#3B3B4A" stroke-miterlimit="10"/>
<path d="M51.8289 154C52.5739 148.836 53.6913 137.63 54.6394 132.568C57.4837 117.413 60.3619 102.259 63.2063 87.1043C64.256 81.4677 65.3395 75.7637 64.8993 70.0597C63.9851 57.7741 54.8426 52.8126 48.6799 43.4971C44.1086 36.5781 41.6706 28.3764 39.5035 20.4785C39.2326 19.466 38.9279 18.3859 38.2168 17.6434C37.201 16.6309 35.8127 16.9009 35 17.8459" stroke="#3B3B4A" stroke-miterlimit="10"/>
<path d="M31 29.3311C30.3931 26.9557 29.914 24.5804 29.5626 22.1711C28.7321 16.2667 28.6043 10.1587 26.592 4.52572C25.7934 2.28611 23.8769 -0.428558 21.4812 1.87891C20.5868 2.72725 20.2035 4.01672 20.0758 5.27226C19.9161 6.66353 20.0438 8.0548 20.1397 9.41214C20.7466 16.8096 22.3437 28.2112 24.6754 37" stroke="#3B3B4A" stroke-miterlimit="10"/>
<path d="M37 44C34.7737 40.5793 33.3504 36.7561 32 33" stroke="#3B3B4A" stroke-miterlimit="10"/>
<path d="M43 43C40.0481 37.7209 38.8467 33.9984 37.4737 28.1101C36.1693 22.4249 35.5858 16.5028 33.0458 11.1898C32.119 9.22701 30.1625 6.92585 28 8.5502" stroke="#3B3B4A" stroke-miterlimit="10"/>
<path d="M50.9516 52.8192C53.5882 54.0937 56.7271 54.4194 59.4613 53.3856C62.1956 52.3518 64.4277 49.8594 64.902 46.9421C65.2508 44.7471 64.6369 42.4671 63.5628 40.5269C61.9166 37.5389 59.1405 35.1456 55.8621 34.31C52.5977 33.4745 48.873 34.3383 46.5014 36.7741C41.1863 42.198 45.1343 49.9869 50.9516 52.8192Z" fill="white"/>
</svg>
