<svg width="11" height="20" viewBox="0 0 11 20" fill="none" xmlns="http://www.w3.org/2000/svg">
<path d="M10.6185 1.61551V1.59935C10.5054 0.500802 7.85596 0 5.36808 0C2.89635 0 0.230757 0.500802 0.117672 1.59935V1.61551C0.101517 1.7609 -0.399299 5.10501 0.796178 8.36833L0.99007 8.8853C1.60396 10.5654 2.05628 11.7609 2.05628 13.4895V17.6737V18.8045C2.05628 18.8207 2.05628 18.8368 2.05628 18.853C2.05628 19.9677 5.04499 20 5.38425 20C5.7235 20 8.71217 19.9677 8.71217 18.853C8.71217 18.8368 8.71217 18.8207 8.71217 18.8045V17.6737V13.4895C8.71217 11.7609 9.14837 10.5654 9.77842 8.8853L9.97228 8.36833C11.1354 5.10501 10.6508 1.7609 10.6185 1.61551ZM0.715402 2.50404C0.715402 2.50404 0.731589 2.52019 0.747744 2.52019C0.796209 2.5525 0.844643 2.56866 0.876953 2.60097C0.893108 2.61712 0.909271 2.61712 0.925426 2.63328C0.990047 2.66559 1.03853 2.6979 1.10315 2.71405C1.16777 2.74636 1.23238 2.76252 1.297 2.79483C1.31316 2.79483 1.3293 2.81098 1.36161 2.81098C1.42623 2.82714 1.47471 2.85945 1.53933 2.8756C1.55548 2.8756 1.57163 2.89176 1.57163 2.89176C1.65241 2.90791 1.71705 2.94022 1.79782 2.95638C1.81398 2.95638 1.84627 2.97253 1.86243 2.97253C1.92705 2.98869 1.99166 3.00484 2.05628 3.02099C2.07244 3.02099 2.10477 3.03716 2.12093 3.03716C2.2017 3.05331 2.28245 3.06946 2.37938 3.08562C2.39554 3.08562 2.4117 3.08561 2.42786 3.10177C2.50863 3.11792 2.57324 3.13409 2.65401 3.15024C2.68632 3.15024 2.70248 3.16639 2.73479 3.16639C2.83172 3.18255 2.91253 3.1987 3.00946 3.21486C3.10639 3.23101 3.20331 3.24717 3.28409 3.24717C3.3164 3.24717 3.33255 3.24717 3.36486 3.26332C3.44564 3.27948 3.52641 3.27948 3.60719 3.29563C3.62334 3.29563 3.6395 3.29563 3.65566 3.29563C3.75259 3.31179 3.84949 3.31179 3.94642 3.32794C3.97873 3.32794 3.99489 3.32794 4.0272 3.32794C4.10797 3.32794 4.18875 3.3441 4.26952 3.3441C4.30183 3.3441 4.31799 3.3441 4.3503 3.3441C4.44723 3.3441 4.54418 3.36026 4.65727 3.36026C4.67342 3.36026 4.68959 3.36026 4.70574 3.36026C4.78652 3.36026 4.86727 3.36026 4.9642 3.36026C4.99651 3.36026 5.01266 3.36026 5.04497 3.36026C5.1419 3.36026 5.23886 3.36026 5.35194 3.36026C5.46503 3.36026 5.54579 3.36026 5.65888 3.36026C5.69119 3.36026 5.70734 3.36026 5.73965 3.36026C5.82043 3.36026 5.90122 3.36026 5.99815 3.36026C6.0143 3.36026 6.03043 3.36026 6.04658 3.36026C6.14351 3.36026 6.24047 3.3441 6.35355 3.3441C6.38586 3.3441 6.40202 3.3441 6.43433 3.3441C6.5151 3.3441 6.59588 3.32794 6.67665 3.32794C6.70896 3.32794 6.72512 3.32794 6.75743 3.32794C6.85436 3.32794 6.9513 3.31179 7.04823 3.29563C7.06438 3.29563 7.08051 3.29563 7.09666 3.29563C7.17744 3.27948 7.25821 3.27948 7.33899 3.26332C7.3713 3.26332 7.38745 3.26332 7.41976 3.24717C7.5167 3.23101 7.61366 3.23101 7.69443 3.21486C7.79136 3.1987 7.88829 3.18255 7.96906 3.16639C8.00137 3.16639 8.01753 3.15024 8.04984 3.15024C8.13061 3.13409 8.19522 3.11792 8.27599 3.10177C8.29215 3.10177 8.30831 3.10177 8.32447 3.08562C8.40524 3.06946 8.50219 3.05331 8.58296 3.03716C8.59912 3.03716 8.63141 3.02099 8.64757 3.02099C8.71219 3.00484 8.7768 2.98869 8.84142 2.97253C8.85758 2.97253 8.88991 2.95638 8.90606 2.95638C8.98684 2.94022 9.0676 2.90791 9.13222 2.89176C9.14837 2.89176 9.16452 2.8756 9.16452 2.8756C9.22914 2.85945 9.29378 2.82714 9.34224 2.81098C9.3584 2.81098 9.37454 2.79483 9.40685 2.79483C9.47147 2.76252 9.53608 2.74636 9.6007 2.71405C9.66532 2.68174 9.72996 2.66559 9.77842 2.63328C9.79458 2.61712 9.81074 2.61712 9.8269 2.60097C9.87536 2.56866 9.92381 2.5525 9.97228 2.52019C9.97228 2.52019 9.98842 2.50404 10.0046 2.50404C10.053 3.1664 10.0692 4.18417 9.9238 5.33118C8.88988 4.97577 6.75741 4.65267 4.91573 5.33118C2.84787 6.10662 1.20007 5.28271 0.731573 5.02423C0.666953 3.9903 0.683092 3.10178 0.715402 2.50404ZM5.36808 0.678506C8.38908 0.678506 9.93997 1.37318 9.93997 1.66397C9.93997 1.95476 8.38908 2.64943 5.36808 2.64943C2.34707 2.64943 0.796178 1.95476 0.796178 1.66397C0.812333 1.37318 2.36323 0.678506 5.36808 0.678506ZM5.36808 19.3215C3.8495 19.3215 2.88021 19.0145 2.71866 18.8207V18.1583C3.26793 18.336 4.22106 18.5784 5.36808 18.5784C6.49893 18.5784 7.46826 18.336 8.01753 18.1583V18.8207C7.85598 18.9984 6.88665 19.3215 5.36808 19.3215ZM9.30994 8.12601L9.11605 8.64297C8.46985 10.3877 8.01753 11.6478 8.01753 13.4895V17.4313C7.5975 17.5767 6.59586 17.8837 5.36808 17.8837C4.15644 17.8837 3.13869 17.5767 2.71866 17.4313V13.4895C2.71866 11.6478 2.25015 10.3877 1.6201 8.64297L1.42625 8.12601C1.15161 7.35056 0.957736 6.57512 0.844651 5.83198C1.36161 6.05816 2.16939 6.33279 3.17101 6.33279C3.76875 6.33279 4.44723 6.23586 5.15805 5.96122C6.99973 5.28271 9.06761 5.73505 9.8269 6.00969C9.72997 6.70435 9.56842 7.43134 9.30994 8.12601Z" fill="#1499A2"/>
<path d="M4.52677 15.7674H4.62372C4.81758 15.7674 4.96295 15.622 4.96295 15.4281C4.96295 15.2343 4.81758 15.0889 4.62372 15.0889H4.52677C4.33291 15.0889 4.1875 15.2343 4.1875 15.4281C4.1875 15.6058 4.33291 15.7674 4.52677 15.7674Z" fill="#1499A2"/>
<path d="M4.35095 11.2273H4.4479C4.64176 11.2273 4.78717 11.0819 4.78717 10.8881C4.78717 10.6942 4.64176 10.5488 4.4479 10.5488H4.35095C4.15709 10.5488 4.01172 10.6942 4.01172 10.8881C4.01172 11.0658 4.17325 11.2273 4.35095 11.2273Z" fill="#1499A2"/>
<path d="M6.52869 8.78887H6.62563C6.81949 8.78887 6.96491 8.64348 6.96491 8.44961C6.96491 8.25575 6.81949 8.11035 6.62563 8.11035H6.52869C6.33483 8.11035 6.18945 8.25575 6.18945 8.44961C6.18945 8.64348 6.33483 8.78887 6.52869 8.78887Z" fill="#1499A2"/>
<path d="M3.86462 8.22246H3.96157C4.15543 8.22246 4.30084 8.07707 4.30084 7.88321C4.30084 7.68935 4.15543 7.54395 3.96157 7.54395H3.86462C3.67076 7.54395 3.52539 7.68935 3.52539 7.88321C3.52539 8.06091 3.67076 8.22246 3.86462 8.22246Z" fill="#1499A2"/>
<path d="M6.27267 13.1824H6.36957C6.56344 13.1824 6.70885 13.037 6.70885 12.8432C6.70885 12.6493 6.56344 12.5039 6.36957 12.5039H6.27267C6.07881 12.5039 5.9334 12.6493 5.9334 12.8432C5.9334 13.037 6.07881 13.1824 6.27267 13.1824Z" fill="#1499A2"/>
</svg>
