<svg width="21" height="21" viewBox="0 0 21 21" fill="none" xmlns="http://www.w3.org/2000/svg">
<g clip-path="url(#clip0_923_8152)">
<path d="M8.61523 15.7832H12.3279V17.0208H8.61523V15.7832Z" fill="#1499A2"/>
<path d="M9.22052 9.91699H7.98295C7.95688 10.735 6.7712 10.7344 6.74538 9.91699H5.50781C5.58611 12.371 9.143 12.3692 9.22052 9.91699Z" fill="#1499A2"/>
<path d="M13.5536 10.5358C13.2124 10.5358 12.9348 10.2582 12.9348 9.91699H11.6973C11.7756 12.371 15.3325 12.3692 15.41 9.91699H14.1724C14.1724 10.2582 13.8948 10.5358 13.5536 10.5358Z" fill="#1499A2"/>
<path d="M9.88086 11.7734H11.1184V13.6298H9.88086V11.7734Z" fill="#1499A2"/>
<path d="M18.8536 8.06079H18.5442V5.80058C19.3135 4.93651 19.7818 3.79881 19.7818 2.55362V0.0166016H15.8977L13.5939 1.39884V0.0166016H7.3442C4.64874 0.0166016 2.45581 2.20953 2.45581 4.90499V8.06079H2.14642C-0.716485 8.15217 -0.714463 12.3019 2.14642 12.3923H2.45581V13.0111C2.79524 23.6449 18.2083 23.637 18.5442 13.0111V12.3923H18.8536C21.7165 12.3009 21.7144 8.15126 18.8536 8.06079ZM3.69338 4.90499C3.69338 2.89193 5.33114 1.25417 7.3442 1.25417H12.3564V3.58463L16.2404 1.25417H18.5442V2.55362C18.5442 4.56668 16.9064 6.20444 14.8934 6.20444H3.69338V4.90499ZM2.14642 11.1547C0.919456 11.1155 0.920364 9.33714 2.14642 9.29836H2.45581V11.1547H2.14642ZM17.3066 13.0111C17.0194 22.0089 3.97761 22.0022 3.69338 13.0111C3.69338 12.5198 3.69338 8.82709 3.69338 7.44201H14.8934C15.7704 7.44201 16.5942 7.20963 17.3066 6.80351V13.0111ZM18.8536 11.1547H18.5442V9.29836H18.8536C20.0805 9.33755 20.0797 11.116 18.8536 11.1547Z" fill="#1499A2"/>
</g>
<defs>
<clipPath id="clip0_923_8152">
<rect width="21" height="21" fill="white"/>
</clipPath>
</defs>
</svg>
