<svg width="23" height="21" viewBox="0 0 23 21" fill="none" xmlns="http://www.w3.org/2000/svg">
<g clip-path="url(#clip0_945_3845)">
<g clip-path="url(#clip1_945_3845)">
<path d="M20.7019 9.64917C20.4844 9.64917 20.2756 9.68719 20.0815 9.75647V3.78394C20.0815 2.24888 18.8327 1 17.2976 1H6.80786C5.27281 1 4.02393 2.24888 4.02393 3.78394V9.75647C3.82988 9.68719 3.62111 9.64917 3.40356 9.64917C2.38301 9.64917 1.55273 10.4794 1.55273 11.5V12.7356C1.55273 13.7561 2.38301 14.5864 3.40356 14.5864C3.62714 14.5864 3.84153 14.5466 4.04013 14.4736C4.30037 18.6675 7.79441 22 12.0527 22C16.3111 22 19.8051 18.6675 20.0653 14.4736C20.2639 14.5466 20.4783 14.5864 20.7019 14.5864C21.7225 14.5864 22.5527 13.7561 22.5527 12.7356V11.5C22.5527 10.4794 21.7225 9.64917 20.7019 9.64917ZM4.02393 12.7356C4.02393 13.0777 3.74563 13.356 3.40356 13.356C3.06149 13.356 2.7832 13.0777 2.7832 12.7356V11.5C2.7832 11.1579 3.06149 10.8796 3.40356 10.8796C3.74563 10.8796 4.02393 11.1579 4.02393 11.5V12.7356ZM18.8511 13.9712C18.8511 17.7198 15.8014 20.7695 12.0527 20.7695C8.30411 20.7695 5.25439 17.7198 5.25439 13.9712V9.27055C5.63198 8.84846 6.54434 7.74026 7.48675 5.93726H16.6187C17.5611 7.74026 18.4735 8.84846 18.8511 9.27055V13.9712ZM18.8511 7.26501C18.4615 6.70187 18.003 5.96211 17.5454 5.04689C17.4412 4.83845 17.2282 4.70679 16.9951 4.70679H7.11035C6.8773 4.70679 6.66431 4.83845 6.56004 5.04689C6.10239 5.96215 5.64392 6.70195 5.25439 7.26505V3.78394C5.25439 2.92737 5.95129 2.23047 6.80786 2.23047H17.2976C18.1542 2.23047 18.8511 2.92737 18.8511 3.78394V7.26501ZM21.3223 12.7356C21.3223 13.0777 21.044 13.356 20.7019 13.356C20.3598 13.356 20.0815 13.0777 20.0815 12.7356V11.5C20.0815 11.1579 20.3598 10.8796 20.7019 10.8796C21.044 10.8796 21.3223 11.1579 21.3223 11.5V12.7356Z" fill="#1499A2"/>
<path d="M10.7447 14.2251C11.0942 14.5746 11.559 14.7672 12.0534 14.7672C12.5477 14.7672 13.0125 14.5746 13.3621 14.2251C13.6023 13.9848 13.6023 13.5953 13.3621 13.355C13.1218 13.1148 12.7323 13.1148 12.492 13.355C12.3749 13.4722 12.2191 13.5367 12.0534 13.5367C11.8877 13.5367 11.7319 13.4721 11.6148 13.355C11.3745 13.1147 10.985 13.1147 10.7447 13.355C10.5044 13.5953 10.5044 13.9848 10.7447 14.2251Z" fill="#1499A2"/>
<path d="M7.81707 12.5016C7.93212 12.695 8.13658 12.8024 8.34642 12.8024C8.45334 12.8024 8.56175 12.7745 8.66031 12.7159L10.5137 11.6136C10.7002 11.5027 10.8145 11.3017 10.8145 11.0848C10.8145 10.8679 10.7002 10.6669 10.5137 10.556L8.66031 9.45375C8.36832 9.28004 7.99069 9.37598 7.81703 9.66805C7.64333 9.96008 7.73926 10.3376 8.03133 10.5113L8.99565 11.0849L8.03133 11.6584C7.7393 11.832 7.64337 12.2095 7.81707 12.5016Z" fill="#1499A2"/>
<path d="M13.5916 11.6137L15.445 12.7159C15.5436 12.7746 15.6519 12.8025 15.7589 12.8025C15.9687 12.8025 16.1732 12.6951 16.2882 12.5016C16.4619 12.2096 16.366 11.8321 16.0739 11.6584L15.1096 11.0848L16.0739 10.5113C16.366 10.3377 16.4619 9.96011 16.2882 9.66803C16.1145 9.37596 15.7371 9.28007 15.445 9.45373L13.5915 10.556C13.4051 10.6669 13.2908 10.8679 13.2908 11.0848C13.2908 11.3017 13.4051 11.5027 13.5916 11.6137Z" fill="#1499A2"/>
<path d="M15.3246 16.0074L14.524 16.8079L13.7234 16.0074C13.4832 15.7671 13.0936 15.7671 12.8533 16.0074L12.0528 16.8079L11.2522 16.0074C11.012 15.7671 10.6224 15.7671 10.3821 16.0074L9.58156 16.8079L8.78098 16.0074C8.54075 15.7671 8.15118 15.7671 7.91092 16.0074C7.67065 16.2477 7.67065 16.6372 7.91092 16.8774L9.14651 18.113C9.38674 18.3533 9.77631 18.3533 10.0166 18.113L10.8172 17.3125L11.6177 18.113C11.858 18.3533 12.2475 18.3533 12.4878 18.113L13.2884 17.3125L14.089 18.113C14.2091 18.2332 14.3666 18.2933 14.524 18.2933C14.6814 18.2933 14.8389 18.2332 14.959 18.113L16.1946 16.8774C16.4349 16.6372 16.4349 16.2477 16.1946 16.0074C15.9544 15.7671 15.5648 15.7671 15.3246 16.0074Z" fill="#1499A2"/>
</g>
</g>
<defs>
<clipPath id="clip0_945_3845">
<rect width="22.1053" height="21" fill="white"/>
</clipPath>
<clipPath id="clip1_945_3845">
<rect width="21" height="21" fill="white" transform="translate(1.55273 1)"/>
</clipPath>
</defs>
</svg>
