<svg width="57" height="105" viewBox="0 0 57 105" fill="none" xmlns="http://www.w3.org/2000/svg">
<path d="M31.8713 61.7924C31.6089 59.0606 32.2696 56.8285 33.1131 53.6988C34.1159 49.9772 34.1722 47.6238 34.9172 44.4165C35.667 41.1898 35.4936 38.7006 32.1384 37.7932C28.7833 36.8858 25.7327 43.7226 31.4168 41.0976C37.1009 38.4725 32.8788 30.7041 30.7561 28.2343C28.638 25.7645 18.2866 34.0958 23.3475 35.2458C28.4084 36.4006 32.846 32.514 30.4421 29.3843C29.6033 28.2925 24.7627 24.7261 26.1919 20.8589C26.9791 18.7288 31.1028 18.952 32.2884 20.6405C33.2959 22.0768 32.9023 23.9255 32.6024 25.6189C32.3165 27.2347 32.1525 28.8602 32.1103 30.4857C32.0869 31.33 32.2368 32.3635 33.1459 32.6644C33.8723 32.9021 34.697 32.5237 35.3109 32.0821C36.8526 30.9758 37.8882 29.36 38.1365 27.6763C38.2865 26.6864 38.1506 25.6335 37.4758 24.8426C36.9275 24.1972 36.0794 23.7945 35.2171 23.4839C29.8892 21.5431 23.624 22.4359 17.9867 21.2083C16.9839 20.9899 15.7796 20.3397 16.1404 19.4906C16.2529 19.2237 16.5106 19.015 16.7683 18.8258C19.4065 16.8898 22.9023 15.8417 26.309 15.963C28.8723 16.0552 31.637 16.9965 32.5368 19.0296C33.16 20.4367 32.7523 22.0574 32.0822 23.4937C31.4262 24.896 30.5077 26.24 29.1816 27.2493C27.8554 28.2586 26.0841 28.8942 24.355 28.7535C26.1169 31.2718 28.6052 33.8435 32.0728 34.0327C35.9997 34.2462 39.4814 31.0437 40.0953 27.6957C40.1562 27.3657 40.1937 27.0164 40.0531 26.7058C39.8938 26.3516 39.5189 26.109 39.144 25.9149C36.8994 24.7455 34.0738 24.7358 31.4027 24.7843C28.3568 24.8426 25.2406 24.9396 22.3681 25.8907C21.7121 26.109 21.0185 26.4147 20.7374 26.9679C20.2781 27.8752 21.1872 28.8069 22.101 29.36C24.0691 30.5537 26.4543 31.2524 28.9004 31.3591C29.5658 31.3882 32.5883 31.1311 33.0241 29.0058C33.8301 25.1094 32.1478 23.4306 31.6886 22.8095C31.2247 22.1787 25.4749 17.1663 22.0354 18.2484C17.6212 19.6313 18.5349 23.2704 18.6615 25.1871C18.7599 26.7155 20.1422 27.8946 21.4871 28.8748C23.624 30.4226 25.9576 31.8686 28.6802 32.5043C31.4027 33.1448 34.5986 32.8536 36.801 31.2427C39.6782 29.1368 40.0953 25.5656 40.2921 22.3825C40.339 21.6207 40.3624 20.7813 39.8001 20.199C39.3971 19.7817 38.7598 19.5828 38.1412 19.4517C35.831 18.9665 33.3802 19.1752 30.9904 19.3984C28.7364 19.6119 26.4449 19.8399 24.3269 20.5775C22.2088 21.315 20.2407 22.63 19.3644 24.4398C18.9051 25.386 18.7692 26.4196 18.3522 27.3803C17.9351 28.341 17.1198 29.2921 15.9529 29.5104C14.922 29.7045 13.8677 29.2581 13.1976 28.5934C12.5275 27.9237 12.1807 27.0649 11.8949 26.2109C11.0373 23.6344 10.6578 20.8007 11.7777 18.2387C12.893 15.6718 15.8311 13.5029 18.9848 13.6533C21.1123 13.7552 22.9679 14.847 24.4393 16.128C27.6446 18.9228 29.5049 22.8143 29.5424 26.7932C29.5611 28.6176 29.3221 30.7186 30.8545 31.9414C32.3681 33.1496 35.0063 32.776 36.6183 31.5678C38.2303 30.3547 39.0222 28.5545 39.5845 26.798C40.1421 25.0561 40.5405 23.2802 40.7654 21.4945C40.831 20.9656 40.8779 20.4076 40.6061 19.9418C40.2359 19.3062 39.3783 19.015 38.577 18.8209C34.4955 17.8262 29.9594 18.0931 25.9763 19.5633C23.0804 20.6357 20.5218 22.2952 17.7102 23.5276C17.2931 23.712 16.848 23.8867 16.3887 23.8721C15.3859 23.843 14.7627 22.9648 14.5097 22.1399C13.8583 20.034 14.4862 17.7001 15.8264 15.7786C17.1666 13.8571 19.1582 12.3238 21.3044 11.0428C22.8883 10.0966 24.6174 9.26204 26.5012 8.99517C28.3849 8.7283 30.4562 9.12133 31.6886 10.3198C33.4271 12.0133 33.0288 14.6189 32.5321 16.8849C31.6886 20.723 30.6483 24.8668 27.2041 27.4967C26.3044 28.1858 25.1985 28.8263 24.8986 29.821C24.6455 30.675 25.1 31.5775 25.8404 32.1597C26.5808 32.742 27.5555 33.0574 28.5302 33.2855C29.7954 33.5815 31.1872 33.7464 32.429 33.3146C33.9051 32.8002 34.8516 31.5484 35.5545 30.3256C36.8057 28.1421 37.6117 25.7839 37.9163 23.3966C37.996 22.7658 38.0381 22.0962 37.7101 21.5382C37.3961 21.0093 36.7963 20.6502 36.1825 20.3688C32.5649 18.6996 27.7476 18.2678 23.7833 19.5051C19.8189 20.7424 13.7599 22.1253 13.132 25.6723C12.9914 26.4584 14.2754 26.8757 14.8471 27.4773C16.1544 28.8505 17.4759 30.2383 19.1488 31.2815C20.8217 32.3247 22.907 33.0089 25.0016 32.7808C25.8967 32.6838 26.7917 32.4169 27.504 31.9268C28.6708 31.1262 29.2191 29.8404 29.5236 28.5982C30.4421 24.862 29.6689 21.019 30.1141 17.2343C30.2593 16.0067 30.5499 14.7451 31.398 13.7261C32.2462 12.712 33.7739 12.0133 35.1469 12.3287C37.2087 12.8042 38.2209 17.1227 40.2593 16.5792C43.7363 15.6524 40.4374 10.9167 38.3896 9.44643C36.3418 7.9762 33.5068 7.53465 30.7842 7.55406C27.1431 7.57832 23.3287 8.40805 20.5874 10.5382C17.8461 12.6683 16.3981 20.4416 20.8967 23.7169C24.2331 26.1478 29.3596 26.3177 33.7598 26.2449C34.5658 26.2303 35.4187 26.1381 36.0653 25.7111C36.8573 25.1871 37.1384 24.2894 37.3633 23.4645C38.0522 20.9171 38.5161 17.9233 36.473 16.0697C35.6904 15.3613 34.6314 14.9246 33.5583 14.5898C27.8742 12.8187 21.3887 13.5999 15.5687 15.3904C15.0017 15.5651 14.4113 15.7543 13.8161 15.701C13.2257 15.6476 12.6353 15.274 12.6353 14.7596C12.6353 14.5073 12.7758 14.2647 12.9352 14.0415C13.9614 12.6101 15.7936 11.7318 17.6305 11.1496C18.3006 10.9361 19.0082 10.7468 19.7018 10.8245C21.0748 10.97 21.9792 12.0618 22.5743 13.1147C23.8067 15.3128 24.3831 17.7535 24.7158 20.199C25.1469 23.3723 25.1469 26.7252 23.549 29.6754C22.1572 32.2471 19.5471 34.6392 19.8986 37.4099C20.25 40.1708 23.399 41.8885 26.3231 43.0336C28.085 43.7226 30.1235 44.3534 31.9604 43.7081C33.1366 43.2956 34.0222 42.4222 34.7251 41.51C38.0147 37.24 38.2396 31.8686 37.9819 26.8514C37.9304 25.8227 37.8366 24.7358 37.129 23.9207C36.2949 22.9599 34.8142 22.6154 33.4271 22.3922C29.936 21.8293 26.3418 21.6595 22.7664 21.8924C20.3484 22.0525 17.5368 22.2806 15.9295 20.7764C15.3391 20.2232 14.9876 19.51 14.7533 18.7821C12.907 13.0322 14.2191 7.79181 18.2491 4.7349C20.7702 2.82312 25.325 3.61889 27.4337 4.10411C29.8657 4.66212 31.876 5.6908 33.7036 7.1028C36.0091 8.88842 38.0475 11.038 38.9378 13.6048C39.8282 16.1765 39.3971 19.2237 37.2649 21.2907C35.742 22.7658 33.4927 23.6101 31.234 23.7993C28.9754 23.9886 26.7167 23.5664 24.6596 22.8192C23.3053 22.3291 21.8433 21.4169 22.0167 20.1505C22.1525 19.1218 23.31 18.4231 24.3878 17.9233C28.1928 16.1716 32.4524 15.1818 36.712 15.0556C38.7551 14.9974 40.9013 15.1624 42.5461 16.1474C44.3549 17.2294 45.2405 19.1072 45.9059 20.9171C46.9556 23.7799 47.6585 26.9679 46.2761 29.8016C45.4561 31.4804 43.9706 32.8779 42.3493 34.0715C41.2199 34.9013 39.9547 35.6728 38.5067 35.9008C36.8807 36.158 35.2218 35.6873 33.8535 34.9498C32.4852 34.2122 31.3418 33.2127 30.1375 32.2908C26.7917 29.7239 22.6539 27.6132 18.0804 27.5695C17.3213 27.5598 16.5246 27.6181 15.8545 27.9432C14.744 28.4818 14.2238 29.6123 13.9661 30.675C12.907 34.9983 14.9127 38.9383 19.116 41.3305C23.324 43.7178 29.533 44.2224 33.399 41.2189C35.9107 39.2683 37.279 36.4879 38.2818 33.7367C38.9332 31.9463 39.4721 30.0636 39.1393 28.2343C38.6942 25.7888 36.7682 23.7896 34.8329 21.9846C29.0832 16.6277 22.6071 11.8531 15.5593 7.76755C14.8752 7.36967 14.1301 6.96693 13.2913 6.96208C12.1667 6.95723 11.1779 7.66566 10.4703 8.43716C8.36161 10.7323 7.76648 13.7601 7.68214 16.6326C7.62122 18.6026 7.77586 20.6114 8.65683 22.4019C10.0767 25.2938 13.3991 27.3463 17.0542 27.7782C20.7093 28.2149 24.594 27.0843 27.4149 24.9445C28.16 24.3768 28.8489 23.7314 29.2753 22.9648C30.4421 20.8686 29.4112 18.3842 27.7711 16.6229C26.0841 14.813 23.7645 13.4495 21.1685 12.7362C19.1629 12.1879 16.8527 12.0521 14.9595 12.94C13.1695 13.7795 12.0448 15.3856 11.2435 16.9868C10.325 18.8307 9.71118 20.888 10.2641 22.7949C11.1592 25.8713 14.8189 27.7151 18.4225 28.4575C19.5565 28.6904 20.8264 28.8311 21.862 28.3313C22.4993 28.0208 22.9632 27.5065 23.3803 26.9921C26.1075 23.6198 27.6164 19.6264 30.4608 16.3269C30.9997 15.7058 31.6089 15.0896 32.429 14.7645C34.3549 13.993 36.4964 15.0896 38.0428 16.259C40.175 17.8699 42.0634 19.7138 43.652 21.7323C44.6876 23.0472 45.606 24.4641 46.0044 26.0265C46.3792 27.487 46.2855 29.0301 45.9856 30.5245C45.5217 32.8439 44.5423 35.1487 42.7851 36.9926C41.0231 38.8364 38.4177 40.1708 35.6811 40.263C32.0916 40.3843 28.9051 38.3997 26.7448 36.0173C24.5846 33.63 23.1694 30.806 21.1966 28.3022C20.3906 27.2784 19.3878 26.2497 17.9773 25.944C15.8733 25.4879 13.7412 26.7932 12.2369 28.1955C10.8452 29.4959 9.59871 31.1214 9.76273 32.8439C9.85645 33.8289 10.4 34.7266 11.0608 35.5223C12.5228 37.2934 14.9923 38.7636 17.5087 38.2153C20.2875 37.6137 21.7402 34.9498 24.1535 33.596C27.3118 31.8298 31.548 33.3825 33.3287 36.0707C35.3999 39.1955 33.235 43.4121 29.6549 44.3097C23.9754 45.7363 22.6258 39.6613 20.4843 42.888C19.4862 44.3971 23.8348 46.0566 25.0579 46.5418C27.5461 47.5268 30.6905 48.308 33.0616 46.9979C33.9004 46.5369 34.5283 45.8382 35.0719 45.1201C36.6183 43.0773 37.6023 40.7725 38.3052 38.4337C39.3408 34.974 39.7532 31.2475 38.2771 27.982C36.8057 24.7164 33.0616 22.0768 28.9192 22.3534C28.2584 22.397 27.6258 22.63 27.0447 22.8823C25.8451 23.3918 25.0813 25.9877 27.4899 26.6622C31.2809 27.72 35.906 24.304 38.6707 21.7468C39.6689 20.8249 40.5733 19.7429 40.7841 18.5104C41.1496 16.3609 39.3127 14.4442 37.2509 13.2554C34.4018 11.6057 30.9013 10.7759 27.4056 10.9118C26.1075 10.9652 24.5096 11.3728 24.2425 12.4645C24.0457 13.27 24.7158 14.0124 25.4468 14.517C28.9332 16.9383 34.8001 16.3366 37.7382 13.2603C38.8207 12.1249 39.5283 10.6013 39.0597 9.22808C38.741 8.29645 37.921 7.56376 37.0072 7.0009C34.8985 5.70535 32.2462 5.18616 29.6361 4.91444C26.9885 4.63786 24.2472 4.58934 21.6511 5.22498C19.6783 5.70535 17.6165 6.80681 17.2322 8.5245C17.0823 9.19896 17.2135 9.88798 17.4618 10.5285C18.2538 12.581 20.2125 14.1822 22.4946 15.1041C24.7767 16.0261 27.3587 16.3318 29.9126 16.356C32.7804 16.3851 35.8123 16.1037 38.3521 17.1663C41.0372 18.2872 42.5976 20.6745 43.9284 22.9599C44.8422 24.532 45.7419 26.3128 45.1328 28.0353C44.7954 28.9864 44.0175 29.8016 43.1365 30.4615C40.8029 32.2083 37.5742 33.0283 34.5752 32.6401C37.532 32.4024 40.9294 29.4279 42.368 27.1717C44.5329 23.7896 47.054 17.8068 45.8263 13.5757C45.3717 12.0084 43.7598 10.7662 41.89 10.5139C40.0203 10.2568 37.9725 11.004 36.8432 12.3529C35.4468 14.0221 35.5639 16.322 36.5386 18.1319C37.5133 19.9418 39.219 21.3635 40.9107 22.727C42.6023 24.0856 44.3502 25.4588 45.4467 27.2153C45.92 27.9723 46.2668 28.8845 45.8825 29.7045C45.6201 30.2674 45.0578 30.6895 44.5001 31.0728C43.1881 31.9754 41.801 32.7954 40.353 33.5232C39.8188 33.7901 39.2518 34.057 38.6426 34.0764C37.5508 34.1201 36.6745 33.3971 35.995 32.6886C34.6642 31.2912 31.3512 29.2533 31.5433 26.8126C31.6511 25.4637 34.7626 24.9202 36.2996 25.1192C40.264 25.6238 43.8066 27.8655 45.5076 30.937C46.5386 32.8051 46.7213 35.3913 44.786 36.7257C43.98 37.2789 42.9491 37.5118 41.9463 37.6767C39.0456 38.1426 35.6389 37.9679 33.8816 36.0124C33.6286 35.731 33.4177 35.4107 33.3709 35.0565C33.2631 34.2171 34.1909 33.4213 35.1843 33.3243C36.1778 33.2272 37.129 33.6979 37.7476 34.3433C38.9097 35.566 39.0175 37.3905 38.2584 38.8801C37.4992 40.3697 35.9763 41.5246 34.2706 42.233C32.4899 42.9705 28.8442 43.0191 27.2556 42.0729C20.7139 38.1717 23.5021 35.338 24.2613 34.5713C24.7486 34.0764 25.7748 33.7367 26.5199 33.7513C29.1113 33.8047 30.9669 35.2555 31.1403 37.4632C31.3137 39.671 29.8657 41.8642 27.8367 43.3053C26.1825 44.4796 24.0363 45.2511 21.951 45.023C18.6287 44.6591 13.2585 44.0283 11.1217 41.8691C4.55656 35.1875 10.4328 30.1218 11.5622 29.7724C12.0308 29.6269 12.5978 29.656 12.9398 29.9471C13.3803 30.3207 13.2632 31.0195 12.8086 31.4077C12.3541 31.8007 11.6699 31.9268 11.042 31.8929C8.9661 31.7861 7.48064 30.2431 6.40754 28.7438C4.80024 26.5069 3.49753 23.9109 3.9755 21.2616C4.32226 19.3498 5.57811 17.5982 7.16199 16.1813C8.6334 14.8712 10.4 13.8037 12.3307 13.0662C13.2725 12.7071 14.3035 12.4208 15.3063 12.5422C16.3091 12.6683 17.265 13.3088 17.34 14.1774C17.4337 15.2594 16.0888 16.1765 14.8189 16.1716C13.549 16.1668 12.4384 15.4778 11.6231 14.6723C9.29412 12.3578 8.82552 8.81078 10.3532 5.94311C11.8808 3.08029 15.2782 0.998683 18.8958 0.58139C22.5134 0.164098 26.2388 1.37716 28.652 3.62859C30.0532 4.9387 31.0232 6.55935 31.7495 8.23337C32.6961 10.4217 33.2584 12.7896 32.846 15.1332C32.6773 16.094 32.3165 17.0838 31.5011 17.7777C30.6858 18.4716 29.3221 18.7676 28.4037 18.229C27.518 17.7098 27.3306 16.5986 27.7148 15.7107C28.0944 14.8227 28.9192 14.124 29.7626 13.5077C31.0747 12.547 32.5368 11.6833 34.1909 11.3097C35.8451 10.9409 37.7242 11.135 38.9613 12.0909C40.3296 13.1535 40.6482 14.9052 40.503 16.5113C40.1656 20.2232 37.4336 23.9498 33.3193 25.2793C29.205 26.6088 21.9698 24.8668 22.8742 22.1593C23.1366 21.3781 24.2706 21.0578 25.0907 21.1403C28.3428 21.4703 31.4449 22.8337 33.3943 25.0415C35.3437 27.2493 36.0419 30.3013 34.9641 32.9895C33.8863 35.6873 30.9716 37.8757 27.6961 38.2153C25.2406 38.4725 22.7664 37.7204 20.8592 36.4443C18.952 35.1633 17.5649 33.3922 16.5481 31.5047C16.1919 30.8399 15.8733 30.0587 16.2482 29.3794C16.7074 28.54 17.9445 28.2925 19.0082 28.1518C19.5893 28.0742 20.2219 28.0062 20.7139 28.2634C21.3653 28.6031 21.4965 29.4085 21.2107 30.0345C20.9248 30.6604 20.3203 31.1408 19.7346 31.5872C18.2444 32.7178 16.52 33.8532 14.5659 33.8629C11.7168 33.8774 9.73461 31.5144 8.88644 29.2096C8.03359 26.8854 7.88832 24.2021 9.37379 22.0477C11.206 19.3935 15.4 18.1999 18.7083 19.2043C22.0167 20.2087 24.2238 23.1686 24.2097 26.2012C24.205 28.3022 22.2416 29.8889 21.1732 31.8104C19.8189 34.2511 16.773 35.3622 15.5874 38.2493C13.3147 43.7954 26.384 44.4796 22.6305 39.6468C20.9295 37.4584 17.0073 43.4946 21.0373 46.3477C25.9201 49.8073 31.4121 49.2493 32.8695 45.6199C35.025 40.2436 31.5293 33.4796 26.951 29.1514C25.3906 27.6763 23.1835 26.2982 20.8686 26.8077C20.1282 26.9727 19.4065 27.3657 19.102 27.9674C18.6474 28.8602 19.2378 29.8501 19.9079 30.5973C22.5368 33.5329 27.0026 35.3622 31.3559 34.6829C35.7092 34.0036 39.5236 30.4906 39.3362 26.7398C39.3034 26.1187 39.1675 25.4928 38.8488 24.9396C37.6914 22.9551 34.6267 22.4989 31.9979 22.596C25.6905 22.8289 19.0973 24.8523 13.2491 23.0036C12.3775 22.727 11.4872 22.3194 11.117 21.5916C10.728 20.8346 11.0092 19.937 11.4169 19.1655C13.3007 15.6185 17.8883 13.367 22.3868 13.2457C26.8854 13.1293 31.1919 14.9246 34.3221 17.5933C36.0934 19.1024 37.5789 20.9899 37.8038 23.1443C38.0944 25.9343 36.2668 28.6079 34.2799 30.903C32.8413 32.5673 31.2809 34.1589 29.6174 35.6631C28.5771 36.5995 27.4665 37.5457 26.9182 38.7394C26.1778 40.3552 24.8283 45.5568 30.8732 48.2643C32.4383 48.963 36.5199 48.5069 38.577 44.8095C41.1871 40.1077 37.3446 35.3137 34.6314 33.989C31.9229 32.6644 28.877 31.9123 25.8592 31.1699C22.9117 30.4421 19.9595 29.7191 17.012 28.9912C15.2735 28.5788 10.1892 27.3949 7.89301 23.3675C6.74025 21.349 7.5603 18.2581 8.40847 16.0406C9.24258 13.862 11.2201 11.528 13.0008 10.3635C15.5828 8.67492 18.699 7.67051 21.8573 7.59773C23.5912 7.55891 25.7795 7.93253 27.2931 8.90783C28.6895 9.81035 29.861 11.1399 30.1469 12.5907C30.5546 14.6674 29.0082 16.749 27.0869 18.1416C23.0897 21.0336 17.654 21.7663 12.8977 23.5956C12.5884 23.712 12.2697 23.8479 12.0589 24.0759C11.7309 24.4398 11.7683 24.9445 11.848 25.3909C12.907 31.1796 18.802 35.9299 25.6343 36.5074C27.0307 36.6238 28.652 36.5074 29.5611 35.5612C30.3671 34.7266 30.3296 33.5232 29.9829 32.514C29.0129 29.6851 25.9904 27.6666 22.6727 26.8417C19.3597 26.0168 15.7749 26.2303 12.3166 26.701C8.85832 27.1716 1.65124 28.967 2.87429 24.2215C3.44598 22.0089 6.14981 21.1549 8.71774 21.5819C11.5106 22.0477 13.3147 24.304 14.4206 26.5312C16.6371 31.0001 17.2088 35.9688 18.8536 40.6318C19.2706 41.8206 19.7955 43.0336 20.8358 43.8828C21.8761 44.7319 23.5818 45.1104 24.847 44.4456C25.6577 44.0186 26.1497 43.2568 26.4684 42.495C27.4946 40.0058 26.9745 37.2255 25.6061 34.9304C24.2378 32.6353 22.0869 30.7623 19.8049 29.0931C19.0457 28.5351 18.2069 27.9771 17.1994 27.8801C16.1919 27.783 15.0017 28.3556 14.922 29.229C14.8845 29.6706 15.1235 30.083 15.3672 30.4615C16.3278 31.9754 17.6212 33.5475 19.6127 33.8823C22.2228 34.319 24.6502 32.4315 26.2247 30.5343C29.7205 26.3128 31.6183 21.2325 32.0541 16.1474C32.1947 14.5122 32.1806 12.8381 31.5761 11.3048C30.9716 9.77153 29.697 8.38379 27.9117 7.84034C27.4993 7.86945 27.4665 8.38379 27.5836 8.71374C28.9098 12.4257 33.0241 15.2109 37.5883 15.4826C38.9566 15.5651 40.4514 15.4001 41.5105 14.6189C43.4083 13.2215 43.01 10.6158 41.8197 8.81078C39.711 5.60831 35.653 3.49758 31.3324 3.11426C29.1816 2.92502 26.9323 2.96869 24.997 3.8615C22.9585 4.79798 21.4122 6.58361 20.2266 8.28189C19.3222 9.58229 18.5724 10.9991 18.4318 12.4888C18.1882 15.0411 19.8283 17.4963 22.1853 19.0005C23.4974 19.8399 25.0298 20.427 26.6464 20.7182C27.757 20.9171 28.9473 20.9705 30.0391 20.6405C31.1309 20.3106 32.101 19.5391 32.3259 18.5686C31.9369 16.0455 30.1703 13.7649 27.6961 12.4014C25.2219 11.038 22.0869 10.5819 19.1254 11.0428C18.1694 11.1884 17.2041 11.4358 16.3981 11.9162C14.3456 13.1293 13.7505 15.5166 13.9473 17.5982C14.1957 20.199 15.4281 22.693 17.4103 24.6291C18.7036 25.8907 20.3953 26.9387 22.3634 27.1619C24.3315 27.3851 26.5761 26.5942 27.4384 25.0318M16.5153 20.7618C15.3719 21.9701 15.0064 23.6247 15.325 25.1192C15.6437 26.6136 16.5902 27.9529 17.8039 29.0446C19.6221 30.6798 22.1479 31.8104 24.8329 31.8152C27.5087 31.8201 30.1235 30.7041 32.101 29.1028C33.9894 27.5695 35.4093 25.42 35.1375 23.2559C34.8891 21.2665 33.2959 19.6458 31.623 18.2872C30.2125 17.1421 28.6661 16.0794 26.8573 15.4438C25.0485 14.8081 22.9351 14.6432 21.0794 15.2837C19.2332 15.9193 17.8086 17.2925 16.8995 18.8112C15.9858 20.33 15.5265 22.004 15.1001 23.6586C14.4956 26.012 14.0879 28.8311 16.117 30.4226C16.8058 30.9661 17.6961 31.2815 18.5771 31.5581C20.4609 32.1597 22.4009 32.645 24.3737 33.0089C27.682 33.6251 31.4449 33.8338 34.2846 32.1355C36.1684 31.0098 37.3493 29.2096 38.2068 27.3997C39.9781 23.6586 40.5733 19.2091 38.1318 15.8853C36.2574 13.3331 32.9023 11.8628 29.5002 11.0088C26.787 10.3295 23.8723 9.97532 21.0701 10.5333C17.7571 11.1884 14.8471 13.1147 12.893 15.5311C10.9389 17.9475 9.88925 20.8152 9.47219 23.6974C9.29881 24.9008 9.22852 26.1284 9.45345 27.3124C10.1845 31.1505 13.8349 34.0376 17.7571 35.9348C20.2828 37.1576 23.0007 38.094 25.8264 38.7151C26.9885 38.9723 28.324 39.1518 29.3409 38.555C30.7373 37.735 30.6483 35.8426 29.5986 34.7703C28.549 33.6979 26.8901 33.2321 25.3156 32.8197C23.4271 32.3199 21.5387 31.8201 19.6455 31.3203C17.5884 30.7769 15.4141 30.1703 14.0645 28.7486C12.2182 26.8029 12.5228 23.7557 14.1957 21.5964C16.1873 19.0199 19.8564 17.5351 23.4084 17.5691M35.6483 27.4773C35.2781 30.971 31.6417 33.5815 28.1553 35.5175C26.9229 36.2017 25.4749 37.3322 26.0654 38.4434C26.384 39.0451 27.19 39.3119 27.9304 39.5012C31.1966 40.3309 34.8938 40.622 38.0006 39.2634C41.9884 37.5215 43.9659 33.4893 44.3455 29.7191C44.9172 24.0274 42.4945 18.2532 37.8741 14.289C33.2537 10.3247 27.7102 9.19411 24.0598 8.85445C21.4356 8.61184 18.2491 8.9515 15.8124 10.0675C14.0036 10.8972 12.3916 12.5422 11.0326 14.483C9.43939 16.7587 6.11232 24.1584 9.62683 29.2824C10.8265 31.034 13.6662 33.4893 15.0064 35.5175C16.3372 37.5263 18.5959 41.2334 19.1394 46.9348C19.7299 53.1408 14.2566 56.8528 11.042 57.173C6.7215 57.6 2.18076 57.3865 0.831184 62.6706C-0.518388 67.9547 2.54158 70.0557 4.8799 76.2811C6.99329 81.9 10.4797 87.1259 14.9127 92.0169C18.4928 95.9667 26.1872 101.503 27.6867 102.964C29.1816 104.419 34.2893 103.968 34.9126 101.139C35.5358 98.3151 36.5761 92.1188 34.3877 80.5171C32.4852 70.4196 30.4749 66.0235 30.1656 63.5198C29.861 61.0306 29.2284 57.4884 28.0101 55.0817C26.6886 52.4615 25.7655 50.4381 24.0598 49.1426C22.3587 47.847 21.1872 47.8373 20.5687 47.9683C19.8049 48.1285 20.1141 49.0941 21.1076 49.4871C23.0335 50.2489 23.7317 52.1704 24.6877 52.7672C25.5265 53.2961 22.3822 50.3168 20.9342 49.9141C19.4862 49.5113 18.4834 49.9092 18.1507 50.5982C17.818 51.2873 18.6474 51.1902 19.8095 51.4765C20.8873 51.7434 23.5162 53.4756 22.9304 53.4756C22.3447 53.4756 19.0738 50.9039 17.5977 51.8404C16.1919 52.7332 19.43 53.66 19.041 54.0822C18.6662 54.4897 18.2022 52.5003 16.9698 53.0874C15.7374 53.6746 17.5134 56.9547 17.3353 57.7262C17.1573 58.4977 16.6746 56.7751 16.2669 56.6344C15.8545 56.4937 17.1994 55.4262 16.131 53.5581C15.3672 52.2237 15.5265 52.9079 14.8986 54.611C14.2707 56.3142 13.5678 56.2608 13.5678 57.0517C13.5678 57.8426 15.2594 59.604 15.6484 60.851C16.5012 63.5537 21.6183 63.8254 22.5696 65.4073C24.8564 69.2066 23.7692 78.8965 23.7692 83.511C23.7692 88.1303 24.7111 90.1925 25.4702 89.8917C26.2294 89.5908 22.9164 80.8616 20.4515 76.8586C18.1929 73.1854 16.2575 72.1519 14.341 69.6578" stroke="#3B3B4A" stroke-miterlimit="10" stroke-linecap="round" stroke-linejoin="round"/>
<path d="M56.4998 87.8984C55.4644 85.3964 54.5702 82.5072 54.3913 78.5727C54.2125 74.6382 54.0384 65.7867 52.0334 62.7572C50.0284 59.7276 45.9997 61.7651 45.0584 60.1293C44.1171 58.4936 43.9524 54.1767 42.2439 54.1477C40.8649 54.1235 41.0014 54.5784 40.6014 54.7623C40.2249 54.9365 40.239 54.3461 39.0106 54.2783C37.3916 54.1864 37.7775 55.0285 37.481 55.0962C37.1845 55.164 37.4998 54.0315 35.9278 54.0315C34.4218 54.0315 35.7914 56.1948 35.5513 56.4368C35.316 56.6787 35.0619 54.5445 34.9866 54.1767C34.7512 53.0636 34.3465 52.7829 33.857 52.5313C33.2922 52.2409 32.911 54.0315 33.0898 55.1688C33.2687 56.3061 33.3864 56.8239 33.504 58.2225C33.5981 59.3695 33.6499 61.9393 36.4503 64.9979C39.2506 68.0564 38.7329 67.0353 39.4859 69.968C41.5474 78.021 40.2766 79.6567 41.4297 87.7242" stroke="#3B3B4A" stroke-miterlimit="10" stroke-linecap="round" stroke-linejoin="round"/>
<path d="M55.6982 86.4888C49.3009 76.926 47.6294 72.0111 45.0453 59.7723" stroke="#3B3B4A" stroke-miterlimit="10" stroke-linecap="round" stroke-linejoin="round"/>
</svg>
