<svg width="21" height="22" viewBox="0 0 21 22" fill="none" xmlns="http://www.w3.org/2000/svg">
<g clip-path="url(#clip0_923_8261)">
<path d="M19.058 9.06104C18.8415 9.06104 18.6337 9.10087 18.4406 9.17344V8.41113C18.4406 3.77322 14.856 0 10.45 0C6.04398 0 2.45942 3.77322 2.45942 8.41113V9.17344C2.2663 9.10087 2.05853 9.06104 1.84202 9.06104C0.826326 9.06104 0 9.93085 0 11V12.2944C0 13.3636 0.826326 14.2334 1.84202 14.2334C2.06453 14.2334 2.2779 14.1916 2.47555 14.1152C2.73455 18.5088 6.21195 22 10.45 22C14.688 22 18.1654 18.5088 18.4245 14.1152C18.6221 14.1916 18.8355 14.2334 19.058 14.2334C20.0737 14.2334 20.9 13.3636 20.9 12.2944V11C20.9 9.93085 20.0737 9.06104 19.058 9.06104ZM2.45942 12.2944C2.45942 12.6528 2.18246 12.9443 1.84202 12.9443C1.50158 12.9443 1.22461 12.6528 1.22461 12.2944V11C1.22461 10.6416 1.50158 10.3501 1.84202 10.3501C2.18246 10.3501 2.45942 10.6416 2.45942 11V12.2944ZM10.45 1.28906C13.6256 1.28906 16.2968 3.60413 17.0216 6.71498C16.4356 6.64898 15.6047 6.53 14.7355 6.32289C12.7371 5.8468 11.4096 5.10692 10.9977 4.2396C10.894 4.02123 10.6819 3.8833 10.45 3.8833C10.2181 3.8833 10.0061 4.02123 9.90231 4.2396C9.49154 5.10443 8.16974 5.84298 6.18048 6.31911C5.30742 6.52807 4.46901 6.64817 3.8785 6.71473C4.60335 3.604 7.27447 1.28906 10.45 1.28906ZM17.216 13.5889C17.216 17.516 14.1808 20.7109 10.45 20.7109C6.71923 20.7109 3.68403 17.516 3.68403 13.5889V8.41113C3.68403 8.28339 3.68742 8.15646 3.69375 8.03034C4.31014 7.97057 5.33599 7.84193 6.43487 7.58016C8.31677 7.13182 9.66176 6.47337 10.45 5.61692C11.2382 6.47337 12.5832 7.13182 14.4651 7.58016C15.564 7.84197 16.5899 7.97057 17.2063 8.03034C17.2126 8.15646 17.216 8.28339 17.216 8.41113V13.5889ZM19.6754 12.2944C19.6754 12.6528 19.3984 12.9443 19.058 12.9443C18.7175 12.9443 18.4406 12.6528 18.4406 12.2944V11C18.4406 10.6416 18.7175 10.3501 19.058 10.3501C19.3984 10.3501 19.6754 10.6416 19.6754 11V12.2944Z" fill="#1499A2"/>
<path d="M10.4506 14.334C8.75688 14.334 7.37891 15.7845 7.37891 17.5674C7.37891 17.9233 7.65306 18.2119 7.99121 18.2119H12.9101C13.2482 18.2119 13.5224 17.9233 13.5224 17.5674C13.5224 15.7844 12.1444 14.334 10.4506 14.334ZM8.70781 16.9229C8.96098 16.1666 9.64668 15.623 10.4506 15.623C11.2546 15.623 11.9403 16.1666 12.1935 16.9229H8.70781Z" fill="#1499A2"/>
<path d="M9.1481 12.655C9.5072 13.0329 9.97891 13.2219 10.4506 13.2219C10.9223 13.2219 11.394 13.0329 11.7531 12.655C11.9922 12.4032 11.9922 11.9952 11.7531 11.7435C11.514 11.4918 11.1263 11.4917 10.8872 11.7435C10.6465 11.9969 10.2547 11.9968 10.014 11.7435C9.77485 11.4918 9.38718 11.4918 9.14806 11.7435C8.90897 11.9952 8.90897 12.4032 9.1481 12.655Z" fill="#1499A2"/>
<path d="M9.21773 10.1353C9.21773 9.90803 9.10401 9.69757 8.91844 9.58138L7.07385 8.4266C6.78321 8.24467 6.40742 8.34513 6.23458 8.65111C6.06171 8.95705 6.15719 9.35258 6.44787 9.53455L7.4076 10.1354L6.44787 10.7362C6.15723 10.9181 6.06175 11.3137 6.23458 11.6196C6.34908 11.8223 6.55257 11.9348 6.76141 11.9348C6.86783 11.9348 6.97572 11.9056 7.07381 11.8442L8.9184 10.6894C9.10401 10.5731 9.21773 10.3626 9.21773 10.1353Z" fill="#1499A2"/>
<path d="M14.6648 8.65112C14.492 8.34518 14.1163 8.24464 13.8255 8.42661L11.9809 9.58139C11.7954 9.69758 11.6816 9.90808 11.6816 10.1353C11.6816 10.3626 11.7954 10.5731 11.9809 10.6893L13.8255 11.8441C13.9237 11.9055 14.0315 11.9347 14.1379 11.9347C14.3468 11.9347 14.5503 11.8222 14.6648 11.6196C14.8376 11.3136 14.7422 10.9181 14.4515 10.7361L13.4918 10.1353L14.4515 9.53447C14.7422 9.35258 14.8377 8.95706 14.6648 8.65112Z" fill="#1499A2"/>
</g>
<defs>
<clipPath id="clip0_923_8261">
<rect width="20.9" height="22" fill="white"/>
</clipPath>
</defs>
</svg>
