<svg width="21" height="21" viewBox="0 0 21 21" fill="none" xmlns="http://www.w3.org/2000/svg">
<g clip-path="url(#clip0_923_11224)">
<path d="M19.1492 8.64917C18.9316 8.64917 18.7229 8.68719 18.5288 8.75647V8.02881C18.5288 7.91278 18.5254 7.79629 18.5203 7.67972C18.6598 7.68715 18.8007 7.69437 18.944 7.70122C18.9938 7.7036 19.0322 7.70544 19.0585 7.7068C19.2431 7.71643 19.4214 7.64289 19.5455 7.50652C19.6697 7.37014 19.7261 7.18524 19.6992 7.0028C19.4394 5.23761 18.489 3.57431 17.023 2.31923C15.2761 0.823676 12.9596 0 10.5 0C8.24422 0 6.07052 0.70834 4.37932 1.99443C2.67914 3.28744 1.58583 5.06613 1.30081 7.00284C1.27399 7.18528 1.33038 7.37018 1.4545 7.50656C1.57143 7.63498 1.73677 7.70766 1.90944 7.70766C1.92011 7.70766 1.93081 7.70737 1.94156 7.7068C2.01649 7.7029 2.20865 7.68973 2.48112 7.64954C2.47517 7.77615 2.47119 7.90273 2.47119 8.02877V8.75643C2.27715 8.68715 2.06838 8.64913 1.85083 8.64913C0.830279 8.64917 0 9.47945 0 10.5V11.7356C0 12.7561 0.830279 13.5864 1.85083 13.5864C2.07441 13.5864 2.28879 13.5466 2.48739 13.4736C2.74764 17.6675 6.24168 21 10.5 21C14.7583 21 18.2524 17.6675 18.5126 13.4736C18.7112 13.5466 18.9256 13.5864 19.1492 13.5864C20.1697 13.5864 21 12.7561 21 11.7356V10.5C21 9.47945 20.1697 8.64917 19.1492 8.64917ZM2.47119 11.7356C2.47119 12.0777 2.1929 12.356 1.85083 12.356C1.50876 12.356 1.23047 12.0777 1.23047 11.7356V10.5C1.23047 10.1579 1.50876 9.87964 1.85083 9.87964C2.1929 9.87964 2.47119 10.1579 2.47119 10.5V11.7356ZM17.2983 10.5V11.7356V12.9712C17.2983 16.7198 14.2486 19.7695 10.5 19.7695C6.75138 19.7695 3.70166 16.7198 3.70166 12.9712V8.02881C3.70166 7.80671 3.7129 7.58272 3.73451 7.3605C4.73525 7.04472 5.95342 6.4438 6.86581 5.30119C7.33138 5.66815 7.99452 5.99058 8.86807 6.27654C9.88267 6.60872 11.1982 6.89604 12.778 7.13044C13.7703 7.27773 15.288 7.46525 17.2851 7.60405C17.2939 7.74576 17.2983 7.88763 17.2983 8.02877V10.5ZM12.9586 5.91335C8.48847 5.24996 7.52936 4.36238 7.32449 4.01157C7.2142 3.82274 7.01191 3.70658 6.79321 3.70658C6.57452 3.70658 6.37223 3.8227 6.26194 4.01157C5.35192 5.56984 3.6978 6.14705 2.70084 6.35849C3.58924 3.38358 6.78394 1.23047 10.5 1.23047C12.6663 1.23047 14.6987 1.9491 16.2227 3.25393C17.2512 4.1345 17.9786 5.24426 18.3204 6.43654C15.8876 6.29877 14.0797 6.07971 12.9586 5.91335ZM19.7695 11.7356C19.7695 12.0777 19.4912 12.356 19.1492 12.356C18.8071 12.356 18.5288 12.0777 18.5288 11.7356V10.5C18.5288 10.1579 18.8071 9.87964 19.1492 9.87964C19.4912 9.87964 19.7695 10.1579 19.7695 10.5V11.7356Z" fill="#1499A2"/>
<path d="M12.9718 14.827H10.5006C10.5005 14.827 10.5004 14.827 10.5003 14.827C10.5001 14.827 10.5 14.827 10.4999 14.827C9.74796 14.827 9.04098 14.5342 8.50925 14.0025C8.26902 13.7622 7.87946 13.7622 7.63919 14.0025C7.39892 14.2427 7.39892 14.6323 7.63919 14.8725C8.25643 15.4898 9.03811 15.8829 9.88541 16.0112V16.6778C9.88541 17.6984 10.7157 18.5287 11.7362 18.5287C12.7568 18.5287 13.5871 17.6984 13.5871 16.6778V15.4422C13.5871 15.1025 13.3116 14.827 12.9718 14.827ZM12.3566 16.6778C12.3566 17.0199 12.0783 17.2982 11.7362 17.2982C11.3942 17.2982 11.1159 17.0199 11.1159 16.6778V16.0575H12.3566V16.6778Z" fill="#1499A2"/>
<path d="M8.05428 11.7329C9.06064 11.7329 9.87939 10.9141 9.87939 9.90774V9.88202C9.87939 9.37802 9.68043 8.90692 9.31916 8.55541C8.95798 8.20403 8.48199 8.01852 7.97697 8.03193C6.98488 8.05912 6.17773 8.9006 6.17773 9.90774C6.17773 10.9141 6.99649 11.7329 8.00285 11.7329H8.05428ZM7.4082 9.9077C7.4082 9.5607 7.67845 9.27101 8.01068 9.26186C8.01659 9.2617 8.02245 9.26162 8.02836 9.26162C8.19119 9.26162 8.3443 9.32363 8.46107 9.43729C8.58219 9.55513 8.64893 9.71308 8.64893 9.88198V9.9077C8.64893 10.2356 8.38216 10.5023 8.05428 10.5023H8.00285C7.67497 10.5024 7.4082 10.2356 7.4082 9.9077Z" fill="#1499A2"/>
<path d="M9.19192 12.355C8.95165 12.5953 8.95165 12.9848 9.19192 13.2251C9.5415 13.5746 10.0063 13.7672 10.5006 13.7672C10.995 13.7672 11.4598 13.5746 11.8094 13.2251C12.0496 12.9848 12.0496 12.5953 11.8094 12.355C11.5691 12.1148 11.1796 12.1148 10.9393 12.355C10.8222 12.4722 10.6664 12.5367 10.5007 12.5367C10.335 12.5367 10.1792 12.4721 10.062 12.355C9.82172 12.1147 9.43215 12.1147 9.19192 12.355Z" fill="#1499A2"/>
<path d="M13.5891 8.64941C12.5686 8.64941 11.7383 9.47969 11.7383 10.5002C11.7383 10.84 12.0137 11.1155 12.3535 11.1155C12.6933 11.1155 12.9688 10.84 12.9688 10.5002C12.9688 10.1582 13.247 9.87988 13.5891 9.87988C13.9289 9.87988 14.2043 9.60442 14.2043 9.26465C14.2043 8.92487 13.9289 8.64941 13.5891 8.64941Z" fill="#1499A2"/>
</g>
<defs>
<clipPath id="clip0_923_11224">
<rect width="21" height="21" fill="white"/>
</clipPath>
</defs>
</svg>
