<svg width="21" height="22" viewBox="0 0 21 22" fill="none" xmlns="http://www.w3.org/2000/svg">
<path d="M15.9944 8.22537H9.27689C8.05553 8.22537 7.05624 7.22608 7.05624 6.00473" stroke="#1499A2" stroke-width="0.9" stroke-miterlimit="10" stroke-linecap="round" stroke-linejoin="round"/>
<path d="M6.66972 17.8853C7.66902 18.7736 8.94588 19.3288 10.3893 19.3288C11.8882 19.3288 13.2206 18.7181 14.2199 17.7743" stroke="#1499A2" stroke-width="0.9" stroke-miterlimit="10" stroke-linecap="round" stroke-linejoin="round"/>
<path d="M12.9987 12.7218C12.3325 13.388 11.4443 13.8322 10.445 13.8322C9.39018 13.8322 8.3909 13.3325 7.78022 12.6108" stroke="#1499A2" stroke-width="0.9" stroke-miterlimit="10" stroke-linecap="round" stroke-linejoin="round"/>
<path d="M7.11394 15.441V16.6068C7.11394 17.4951 6.39223 18.2168 5.50398 18.2168H3.78297C1.95094 18.2168 0.451998 19.7158 0.451998 21.5478" stroke="#1499A2" stroke-width="0.9" stroke-miterlimit="10" stroke-linecap="round" stroke-linejoin="round"/>
<path d="M20.4382 21.5478C20.4382 19.7158 18.9392 18.2168 17.1072 18.2168H15.3862C14.4979 18.2168 13.7762 17.4951 13.7762 16.6068V15.441" stroke="#1499A2" stroke-width="0.9" stroke-miterlimit="10" stroke-linecap="round" stroke-linejoin="round"/>
<path d="M3.22628 12.1106V7.66935C3.22628 3.67218 6.44622 0.452243 10.4434 0.452243C14.4406 0.452243 17.6605 3.67218 17.6605 7.66935V12.1106" stroke="#1499A2" stroke-width="0.9" stroke-miterlimit="10" stroke-linecap="round" stroke-linejoin="round"/>
<path d="M15.9993 11.0016C15.9993 14.055 13.5011 16.5533 10.4477 16.5533C7.3943 16.5533 4.89607 14.055 4.89607 11.0016V8.22584C4.89607 5.17245 7.3943 2.67422 10.4477 2.67422C13.5011 2.67422 15.9993 5.17245 15.9993 8.22584V11.0016Z" stroke="#1499A2" stroke-width="0.9" stroke-miterlimit="10" stroke-linecap="round" stroke-linejoin="round"/>
<path d="M17.663 12.1099H17.9406C18.9954 12.1099 19.8836 11.2216 19.8836 10.1668C19.8836 9.11202 18.9954 8.22376 17.9406 8.22376H17.663" stroke="#1499A2" stroke-width="0.9" stroke-miterlimit="10" stroke-linecap="round" stroke-linejoin="round"/>
</svg>
