<svg width="32" height="30" viewBox="0 0 32 30" fill="none" xmlns="http://www.w3.org/2000/svg">
<g clip-path="url(#clip0_923_8508)">
<path d="M7.83503 22.0645H5.6667L6.72434 4.72178C6.79011 3.6426 7.73062 2.79727 8.86554 2.79727C8.98822 2.79727 9.10585 2.75074 9.19242 2.66795L10.2979 1.61104C10.792 1.13895 11.4497 0.878906 12.1497 0.878906H20.0837C22.6488 0.878906 24.7652 2.78959 24.9017 5.22885C24.9152 5.47119 25.1334 5.65799 25.387 5.64428C25.6415 5.63133 25.8368 5.42443 25.8232 5.18203C25.6606 2.27625 23.1395 0 20.0837 0H12.1497C11.2026 0 10.3129 0.351797 9.64419 0.990645L8.66756 1.92439C7.13421 2.01797 5.89322 3.19061 5.80303 4.67086L4.73732 22.146C3.29977 22.4447 2.15512 23.5401 1.88676 24.9683L1.03853 29.483C0.993683 29.722 1.1606 29.9503 1.41149 29.993C1.43899 29.9977 1.46631 29.9999 1.49331 29.9999C1.71252 29.9999 1.90706 29.8505 1.94699 29.6378L2.79521 25.1231C3.03251 23.8601 4.1825 22.9434 5.52974 22.9434H7.3736V29.5604C7.3736 29.8032 7.5802 29.9999 7.83503 29.9999C8.08986 29.9999 8.29645 29.8032 8.29645 29.5604V22.5039C8.29645 22.2612 8.08986 22.0645 7.83503 22.0645Z" fill="#1499A2"/>
<path d="M30.4629 29.4832L29.6148 24.9684C29.3471 23.544 28.208 22.4506 26.7758 22.1484L25.9388 7.23686C25.9251 6.99452 25.7068 6.80871 25.4534 6.82149C25.1989 6.83444 25.0036 7.04139 25.0172 7.28379L25.8469 22.0646H20.1683C20.1738 22.0232 20.1776 21.9813 20.1776 21.9384V20.0381C20.1776 19.7491 20.0481 19.4889 19.8423 19.3054C21.7779 18.4044 23.1309 16.356 23.0974 14.2665V10.4235C23.2727 10.4337 23.4549 10.4394 23.6454 10.4394C23.9003 10.4394 24.1068 10.2427 24.1068 9.99997C24.1068 9.75721 23.9003 9.56051 23.6454 9.56051C21.2124 9.56051 20.3434 8.62371 19.4235 7.6319C18.5844 6.72739 17.7169 5.79211 15.7646 5.73692C13.182 5.66409 11.9468 6.49506 11.5277 6.86496H10.2772C9.24448 6.86496 8.40438 7.66506 8.40438 8.64856V14.2665C8.39257 16.354 9.65214 18.3473 11.6595 19.3054C11.4537 19.4889 11.3242 19.749 11.3242 20.0381V21.9384C11.3242 21.9813 11.328 22.0232 11.3334 22.0646H9.99568C9.74085 22.0646 9.53426 22.2613 9.53426 22.504C9.53426 22.7468 9.74085 22.9435 9.99568 22.9435H23.205V29.5606C23.205 29.8033 23.4115 30 23.6664 30C23.9213 30 24.1279 29.8033 24.1279 29.5606V22.9435H25.9717C27.3189 22.9435 28.469 23.8603 28.7063 25.1233L29.5545 29.638C29.5944 29.8507 29.7889 30.0001 30.0081 30.0001C30.0351 30.0001 30.0625 29.9978 30.09 29.9932C30.3409 29.9504 30.5078 29.7221 30.4629 29.4832ZM20.4481 17.868C20.3969 17.8971 20.3295 17.9991 19.7887 18.3282V12.2926H20.458V17.8594C20.4547 17.8623 20.4515 17.8652 20.4481 17.868ZM9.32723 8.64862C9.32723 8.14975 9.75334 7.74393 10.2772 7.74393H11.7217C11.8472 7.74194 11.9906 7.69336 12.0869 7.57325C12.0953 7.56287 13.0041 6.53819 15.7372 6.61553C17.29 6.65936 17.9582 7.37971 18.7318 8.21379C18.9094 8.40528 19.0916 8.60145 19.2879 8.79416C19.0456 8.79129 18.8816 8.8278 18.8629 8.83219C18.6155 8.89026 18.4643 9.12838 18.5254 9.36405C18.5863 9.59965 18.8364 9.74362 19.0838 9.68555C19.0908 9.68385 19.8029 9.52641 20.3174 10.247C20.4066 10.3721 20.5518 10.4395 20.6994 10.4395C20.7887 10.4395 20.879 10.4148 20.9584 10.3634C21.0788 10.2855 21.1479 10.1629 21.1587 10.0348C21.4616 10.1504 21.7975 10.2461 22.1746 10.3153V14.2666C22.1746 15.1995 21.8974 16.085 21.381 16.8454V11.8576C21.381 11.856 21.3812 11.8546 21.3812 11.8531C21.3812 11.6103 21.1747 11.4136 20.9198 11.4136H18.3288C18.0739 11.4136 17.8674 11.6103 17.8674 11.8531C17.8674 12.0958 18.0739 12.2925 18.3288 12.2925H18.8659V18.7518C18.3255 18.9375 17.7581 19.0325 17.1745 19.0331H14.3274C13.7438 19.0325 13.1764 18.9375 12.636 18.7517V12.2924H13.1731C13.428 12.2924 13.6345 12.0957 13.6345 11.853C13.6345 11.6102 13.428 11.4135 13.1731 11.4135H10.5821C10.3272 11.4135 10.1206 11.6102 10.1206 11.853C10.1206 11.8545 10.1209 11.856 10.1209 11.8575V16.8453C9.60445 16.085 9.32723 15.1995 9.32723 14.2665V8.64862ZM11.5641 18.238C11.5244 18.204 11.4758 18.2047 11.0438 17.8594V12.2926H11.7132V18.3282C11.6849 18.3112 11.6897 18.3152 11.5641 18.238ZM12.3796 22.0646C12.3065 22.0646 12.2471 22.008 12.2471 21.9384V20.0381C12.2471 19.9685 12.3066 19.9119 12.3796 19.9119C12.3796 19.9119 19.0994 19.912 19.1223 19.9119C19.1954 19.9119 19.2548 19.9685 19.2548 20.0381V21.9384C19.2548 22.0081 19.1953 22.0646 19.1223 22.0646H12.3796Z" fill="#1499A2"/>
<path d="M13.6191 15.8393C13.6191 16.082 13.8257 16.2787 14.0806 16.2787H17.4204C17.6753 16.2787 17.8818 16.082 17.8818 15.8393V15.7457C17.8818 14.6264 16.9257 13.7158 15.7504 13.7158C14.5752 13.7158 13.6191 14.6264 13.6191 15.7457V15.8393ZM15.7505 14.5948C16.2904 14.5948 16.7487 14.9336 16.9032 15.3998H14.5978C14.7523 14.9336 15.2106 14.5948 15.7505 14.5948Z" fill="#1499A2"/>
<path d="M10.5136 10.3428C10.5996 10.408 10.7012 10.4392 10.8016 10.4392C10.9492 10.4392 11.0944 10.3718 11.1836 10.2467C11.678 9.55404 12.3479 9.67076 12.4226 9.68646L12.6084 9.72414C12.8498 9.77307 13.0884 9.63074 13.1475 9.40252C13.2119 9.15356 13.0376 8.90652 12.7715 8.86768C12.0694 8.76514 11.1179 8.78441 10.4276 9.7426C10.2902 9.93326 10.3236 10.1988 10.5136 10.3428Z" fill="#1499A2"/>
</g>
<defs>
<clipPath id="clip0_923_8508">
<rect width="31.5" height="30" fill="white"/>
</clipPath>
</defs>
</svg>
