<svg width="55" height="70" viewBox="0 0 55 70" fill="none" xmlns="http://www.w3.org/2000/svg">
<path d="M54.4255 67.8971C47.4069 57.999 42.5578 45.7971 47.5619 34.4803C48.7887 31.7015 51.4747 27.6147 51.1325 21.5951C50.8936 17.3976 48.666 12.4388 45.967 9.17196C36.8306 -1.86504 24.201 -1.24681 14.9225 4.80532C12.6238 6.30208 8.70453 10.3303 6.987 14.4757C4.94664 19.389 4.43009 24.6407 5.24365 28.2459C6.3284 33.0681 -0.354443 39.6083 0.594715 41.8144C1.34371 43.565 4.96601 43.4673 5.55358 42.6604C6.14115 41.8534 2.3187 41.1636 2.69965 41.9055C3.0806 42.6409 5.25011 42.8231 5.3857 44.2092C5.51484 45.5954 4.45591 46.5975 4.52048 47.3134C4.56568 47.8405 5.00475 47.8665 5.46964 47.9707C5.93453 48.0748 8.61413 48.1138 8.50436 47.385C8.40105 46.7017 6.50919 48.0357 5.50838 49.2657C4.99183 49.8969 5.02412 51.6345 7.12905 52.051C9.22753 52.4609 5.84414 56.1638 9.44706 58.2983C13.05 60.4263 20.2171 58.5326 23.7425 56.0662C24.4851 55.5456 24.2139 54.8818 24.0266 54.8102C23.4262 54.5759 20.6691 57.5955 23.1098 60.6801C24.6336 62.5999 25.2728 65.5674 25.318 68.3331C25.3309 68.9839 25.8668 69.511 26.5125 69.498C32.1365 69.4069 54.8646 66.6281 52.6176 69.1661C50.39 71.6781 36.6304 50.5672 44.3528 34.1028C45.5151 31.6234 48.1365 27.8555 47.9041 22.4216C47.9041 22.4151 47.9041 22.4151 47.9041 22.4085C47.8718 21.6667 47.2649 21.081 46.5288 21.081H32.8403C32.8403 21.081 36.6627 24.517 36.3851 24.8619C36.1074 25.2068 32.3237 24.3739 32.2527 24.8619C32.1817 25.35 35.4876 28.747 35.352 28.9553C35.2164 29.1635 29.5666 24.9986 29.5666 24.094C29.5666 23.1895 32.4076 23.606 33.0856 23.606C33.7636 23.606 30.6256 20.5474 30.6256 20.5474C27.3003 20.5474 25.4859 20.5474 16.0395 20.5474C10.9967 20.5474 11.8167 12.8163 15.9297 13.7794C17.8281 14.2219 16.9951 15.5104 15.6586 14.7035C11.8942 12.4193 16.3236 5.70338 20.23 7.66218C23.6069 9.35418 20.6755 10.9616 20.301 9.11339C20.0557 7.91598 21.7022 4.51898 25.3438 4.51898C28.5723 4.51898 31.452 6.83571 31.155 9.24355C30.9871 10.6036 29.6506 10.2522 30.0057 9.21752C30.9548 6.43874 33.7507 5.76845 36.5013 7.18712C40.0332 9.00927 39.4779 14.6059 37.4182 14.1894C35.3584 13.7729 40.2011 10.6882 42.2737 12.6405C44.0881 14.3456 44.8435 19.1547 40.285 19.4085C37.5279 19.5582 23.1098 19.5061 23.1098 19.5061C23.1098 19.5061 26.9322 22.9422 26.6546 23.2871C26.3769 23.632 22.5932 22.799 22.5222 23.2871C22.4512 23.7752 25.7571 27.1722 25.6215 27.3804C25.4859 27.5886 19.8361 23.4237 19.8361 22.5192C19.8361 21.6146 22.6772 22.0311 23.3551 22.0311C24.0331 22.0311 20.8822 19.0441 20.8822 19.0441" stroke="#3B3B4A" stroke-miterlimit="10" stroke-linecap="round" stroke-linejoin="round"/>
</svg>
