<svg width="29" height="12" viewBox="0 0 29 12" fill="none" xmlns="http://www.w3.org/2000/svg">
<path d="M3.94531 11.3129C6.68759 11.3129 8.31653 9.16836 8.31653 5.53688C8.31653 4.16947 8.055 3.01876 7.55437 2.12957C6.82957 0.747217 5.58171 0 4.00508 0C1.65882 0 0 1.57663 0 3.78839C0 5.86566 1.49443 7.37503 3.54928 7.37503C4.81208 7.37503 5.83577 6.78473 6.34387 5.76105H6.36629C6.36629 5.76105 6.39618 5.76105 6.40365 5.76105C6.4186 5.76105 6.4709 5.76105 6.4709 5.76105C6.4709 8.22686 5.53688 9.69888 3.96025 9.69888C3.0337 9.69888 2.31637 9.19077 2.06979 8.37631H0.149443C0.470747 10.1472 1.97265 11.3129 3.94531 11.3129ZM4.01256 5.84324C2.77218 5.84324 1.89046 4.96152 1.89046 3.72861C1.89046 2.52559 2.81701 1.60652 4.02003 1.60652C5.22305 1.60652 6.1496 2.54054 6.1496 3.7585C6.1496 4.96152 5.24547 5.84324 4.01256 5.84324Z" fill="black"/>
<path d="M11.4701 11.2083C12.1799 11.2083 12.6656 10.7002 12.6656 10.0277C12.6656 9.34769 12.1799 8.84705 11.4701 8.84705C10.7677 8.84705 10.2745 9.34769 10.2745 10.0277C10.2745 10.7002 10.7677 11.2083 11.4701 11.2083ZM11.4701 5.60413C12.1799 5.60413 12.6656 5.10349 12.6656 4.431C12.6656 3.75103 12.1799 3.2504 11.4701 3.2504C10.7677 3.2504 10.2745 3.75103 10.2745 4.431C10.2745 5.10349 10.7677 5.60413 11.4701 5.60413Z" fill="black"/>
<path d="M19.6599 11.0513H21.5055V9.04133H22.9626V7.4124H21.5055V0.268998H18.7856C16.8802 3.13831 15.3634 5.53688 14.392 7.32273V9.04133H19.6599V11.0513ZM16.1779 7.34515C17.4332 5.13338 18.554 3.36248 19.5852 1.83815H19.6898V7.45723H16.1779V7.34515Z" fill="black"/>
<path d="M27.0726 11.0513H29.0004V0.268998H27.08L24.263 2.24165V4.09475L26.9455 2.21176H27.0726V11.0513Z" fill="black"/>
</svg>
