<svg width="35" height="22" viewBox="0 0 35 22" fill="none" xmlns="http://www.w3.org/2000/svg">
<path d="M34.53 20.9798C34.53 20.9798 23.3332 10.1075 20.0066 0.452243L17.5725 1.75043L14.9761 0.452243C13.6779 4.26566 11.4873 7.91682 9.21543 11.1623" stroke="#1499A2" stroke-width="0.9" stroke-miterlimit="10" stroke-linecap="round" stroke-linejoin="round"/>
<path d="M22.603 5.8882C21.467 6.13161 21.3859 8.40341 20.1689 8.40341C18.8707 8.40341 18.8707 5.80705 17.5725 5.80705C16.2743 5.80705 16.2743 8.40341 14.9761 8.40341C13.7591 8.40341 13.6779 5.96933 12.4609 5.80705" stroke="#1499A2" stroke-width="0.9" stroke-miterlimit="10" stroke-linecap="round" stroke-linejoin="round"/>
<path d="M3.2107 18.2217C1.58797 19.9255 0.452059 20.9803 0.452059 20.9803" stroke="#1499A2" stroke-width="0.9" stroke-miterlimit="10" stroke-linecap="round" stroke-linejoin="round"/>
<path d="M9.53902 15.3001C9.53902 17.2474 7.99742 18.8701 6.05014 18.8701C4.10286 18.8701 2.56128 17.2474 2.56128 15.3001C2.56128 13.3528 4.10286 6.37506 6.05014 6.37506C7.99742 6.37506 9.53902 13.3528 9.53902 15.3001Z" stroke="#1499A2" stroke-width="0.9" stroke-miterlimit="10" stroke-linecap="round" stroke-linejoin="round"/>
<path d="M6.13164 15.0569V21.5479" stroke="#1499A2" stroke-width="0.9" stroke-miterlimit="10" stroke-linecap="round" stroke-linejoin="round"/>
<path d="M18.3836 15.4624C18.3836 17.3285 16.9231 18.8701 15.057 18.8701C13.1908 18.8701 11.7304 17.3285 11.7304 15.4624C11.7304 13.5962 13.1908 11.6489 15.057 11.6489C16.9231 11.6489 18.3836 13.5962 18.3836 15.4624Z" stroke="#1499A2" stroke-width="0.9" stroke-miterlimit="10" stroke-linecap="round" stroke-linejoin="round"/>
<path d="M15.0566 16.6795V21.5477" stroke="#1499A2" stroke-width="0.9" stroke-miterlimit="10" stroke-linecap="round" stroke-linejoin="round"/>
</svg>
