<svg width="20" height="20" viewBox="0 0 20 20" fill="none" xmlns="http://www.w3.org/2000/svg">
<path d="M10 14.1211C8.65383 14.1211 7.55859 15.2163 7.55859 16.5625C7.55859 16.8861 7.82094 17.1484 8.14453 17.1484C8.46812 17.1484 8.73047 16.8861 8.73047 16.5625C8.73047 15.8625 9.3 15.293 10 15.293C10.7 15.293 11.2695 15.8625 11.2695 16.5625C11.2695 16.8861 11.5319 17.1484 11.8555 17.1484C12.1791 17.1484 12.4414 16.8861 12.4414 16.5625C12.4414 15.2163 11.3462 14.1211 10 14.1211Z" fill="#1499A2"/>
<path d="M8.75365 11.7673C8.52482 11.9962 8.52482 12.3671 8.75365 12.596C9.08658 12.9289 9.52924 13.1122 10.0001 13.1122C10.4709 13.1122 10.9135 12.9289 11.2465 12.596C11.4753 12.3671 11.4753 11.9962 11.2465 11.7673C11.0176 11.5385 10.6467 11.5385 10.4178 11.7673C10.3063 11.8789 10.1579 11.9404 10.0001 11.9404C9.84229 11.9404 9.69393 11.8789 9.58232 11.7673C9.3535 11.5385 8.98248 11.5385 8.75365 11.7673Z" fill="#1499A2"/>
<path d="M16.781 2.04148C15.4645 0.72496 13.714 -3.90608e-05 11.8522 1.57841e-09L8.14592 7.81264e-05C4.30257 0.000156251 1.17578 3.12703 1.17578 6.97038V19.4141C1.17578 19.7377 1.43812 20 1.76172 20H18.2367C18.5603 20 18.8226 19.7377 18.8226 19.4141V6.9703C18.8226 5.10843 18.0976 3.358 16.781 2.04148ZM2.34769 18.8281V12.8372C2.53254 12.9033 2.73144 12.9395 2.93867 12.9395C3.14593 12.9395 3.34484 12.9032 3.52968 12.8372V13.5011C3.52968 15.2067 4.18328 16.8202 5.37011 18.0441C5.65335 18.3363 5.95925 18.5982 6.2839 18.8281H2.34769V18.8281ZM2.34785 11.1768V10C2.34785 9.67424 2.61289 9.4092 2.93867 9.4092C3.26445 9.4092 3.52949 9.67424 3.52949 10V11.1768C3.52949 11.5026 3.26445 11.7676 2.93867 11.7676C2.61289 11.7676 2.34785 11.5026 2.34785 11.1768ZM10.1197 18.827C10.0396 18.8285 9.95889 18.8285 9.87862 18.827C7.02397 18.775 4.70156 16.3858 4.70156 13.5011V7.30706C4.70156 6.5196 5.34222 5.87893 6.12968 5.87893H13.8687C14.6562 5.87893 15.2968 6.5196 15.2968 7.30706V13.5011C15.2969 16.3858 12.9745 18.775 10.1197 18.827ZM17.6508 18.8281H13.7145C14.0392 18.5982 14.3451 18.3363 14.6283 18.0442C15.8151 16.8202 16.4688 15.2068 16.4688 13.5011V12.8372C16.6536 12.9033 16.8525 12.9395 17.0598 12.9395C17.267 12.9395 17.4659 12.9032 17.6508 12.8372V18.8281H17.6508ZM16.4689 11.1768V10C16.4689 9.67424 16.734 9.4092 17.0597 9.4092C17.3855 9.4092 17.6506 9.67424 17.6506 10V11.1768C17.6506 11.5026 17.3855 11.7676 17.0597 11.7676C16.734 11.7676 16.4689 11.5026 16.4689 11.1768ZM17.6508 8.33955C17.4659 8.27354 17.267 8.23733 17.0597 8.23733C16.8525 8.23733 16.6536 8.27358 16.4687 8.33955V7.30706C16.4687 5.87343 15.3024 4.70706 13.8687 4.70706H6.12968C4.69605 4.70706 3.52968 5.87343 3.52968 7.30706V8.33955C3.3448 8.27354 3.14593 8.23729 2.93867 8.23729C2.7314 8.23729 2.53254 8.27354 2.34769 8.33951V6.97034C2.34769 3.77316 4.94878 1.17199 8.146 1.17191L11.8522 1.17187C13.401 1.17183 14.8572 1.77496 15.9524 2.87015C17.0476 3.96534 17.6508 5.42147 17.6508 6.9703V8.33955H17.6508Z" fill="#1499A2"/>
<path d="M13.5115 7.51511L11.158 8.69187C10.8686 8.8366 10.7513 9.18855 10.896 9.478C10.9986 9.68335 11.2055 9.80203 11.4205 9.80203C11.5086 9.80203 11.598 9.7821 11.6821 9.74003L12.1525 9.50484V9.60656C12.1525 9.93015 12.4148 10.1925 12.7384 10.1925C13.062 10.1925 13.3243 9.93015 13.3243 9.60656V8.9189L14.0356 8.56328C14.325 8.41855 14.4423 8.0666 14.2976 7.77714C14.1529 7.48773 13.8009 7.37039 13.5115 7.51511Z" fill="#1499A2"/>
<path d="M8.08999 9.60656V9.50485L8.56039 9.74004C8.64449 9.78211 8.7339 9.80203 8.82195 9.80203C9.03687 9.80203 9.24382 9.68332 9.34648 9.47801C9.49121 9.18856 9.37386 8.83664 9.08445 8.69188L6.73093 7.51512C6.44152 7.37039 6.08953 7.4877 5.9448 7.77715C5.80007 8.0666 5.91742 8.41852 6.20683 8.56328L6.91808 8.91891V9.60656C6.91808 9.93016 7.18042 10.1925 7.50402 10.1925C7.82761 10.1925 8.08999 9.9302 8.08999 9.60656Z" fill="#1499A2"/>
</svg>
