<svg width="19" height="24" viewBox="0 0 19 24" fill="none" xmlns="http://www.w3.org/2000/svg">
<path d="M11.4525 9.24833H9.58287C9.03299 9.35831 8.59307 8.9184 8.59307 8.36851C8.59307 8.03858 8.75804 7.70866 9.03299 7.43371C9.30793 7.15877 9.69285 7.04879 10.0778 7.04879H12.2223C12.6072 7.04879 12.9922 7.15877 13.2671 7.43371C13.542 7.70866 13.707 7.98359 13.707 8.36851C13.707 8.64345 13.597 8.86342 13.4321 9.02838" stroke="#1499A2" stroke-width="0.9" stroke-miterlimit="10" stroke-linecap="round" stroke-linejoin="round"/>
<path d="M3.03878 15.0782C3.4237 14.5284 3.64364 14.0885 3.91859 13.4836C4.13854 12.9337 5.18333 11.7789 5.62324 11.339L8.53765 8.42461C9.30749 9.19446 9.30749 10.4042 8.53765 11.174L7.32789 12.3838L8.86757 14.0884C9.74739 15.0782 9.69241 16.5629 8.7576 17.4428" stroke="#1499A2" stroke-width="0.9" stroke-miterlimit="10" stroke-linecap="round" stroke-linejoin="round"/>
<path d="M10.5151 11.9459L15.959 6.50198C16.3439 6.11706 16.9488 6.11706 17.3337 6.50198C17.7186 6.8869 17.7186 7.49177 17.3337 7.8767L11.8898 13.3206" stroke="#1499A2" stroke-width="0.9" stroke-miterlimit="10" stroke-linecap="round" stroke-linejoin="round"/>
<path d="M11.9429 13.3201L16.177 9.08594C16.5619 8.70102 17.1668 8.70102 17.5517 9.08594C17.9367 9.47087 17.9367 10.0757 17.5517 10.4607L13.3176 14.6948" stroke="#1499A2" stroke-width="0.9" stroke-miterlimit="10" stroke-linecap="round" stroke-linejoin="round"/>
<path d="M8.91863 20.9081C9.41353 20.5232 9.90842 20.1932 10.5133 19.9183C11.0082 19.6983 11.4481 19.3684 11.833 18.9835L14.9124 15.9041L17.8268 12.9897C18.2117 12.6048 18.2117 11.9999 17.8268 11.615C17.4419 11.2301 16.837 11.2301 16.4521 11.615L13.3727 14.6944" stroke="#1499A2" stroke-width="0.9" stroke-miterlimit="10" stroke-linecap="round" stroke-linejoin="round"/>
<path d="M10.4061 6.55582C11.066 5.95094 11.7808 5.29108 12.1657 4.90616C12.8256 4.24629 13.5404 3.47645 13.3205 2.43167C13.1005 1.27691 12.1107 0.452072 10.956 0.452072C9.63625 0.452072 8.59145 1.55184 8.59145 2.87157C8.59145 1.55184 7.54667 0.50706 6.22694 0.452072C5.07218 0.452072 4.0274 1.27691 3.80745 2.43167C3.58749 3.47645 4.24736 4.19131 4.96221 4.96115C5.62208 5.62101 7.93159 7.71058 8.42649 8.20548" stroke="#1499A2" stroke-width="0.9" stroke-miterlimit="10" stroke-linecap="round" stroke-linejoin="round"/>
<path d="M0.451872 16.7844L2.59643 14.6399L9.36004 21.4035L7.21547 23.548L0.451872 16.7844Z" stroke="#1499A2" stroke-width="0.9" stroke-miterlimit="10" stroke-linecap="round" stroke-linejoin="round"/>
</svg>
