<svg width="22" height="18" viewBox="0 0 22 18" fill="none" xmlns="http://www.w3.org/2000/svg">
<path d="M14.1592 3.33337V1.86001C14.1592 1.12333 13.5359 0.499986 12.7992 0.499986H8.71913C7.98246 0.499986 7.35911 1.12333 7.35911 1.86001V3.33337" stroke="#1499A2" stroke-miterlimit="10" stroke-linecap="round" stroke-linejoin="round"/>
<path d="M19.2003 17.4999H2.25669C1.29334 17.4999 0.499986 16.7065 0.499986 15.7432V5.03298C0.499986 4.06963 1.29334 3.27628 2.25669 3.27628H19.2003C20.1637 3.27628 20.957 4.06963 20.957 5.03298V15.7432C20.957 16.7065 20.1637 17.4999 19.2003 17.4999Z" stroke="#1499A2" stroke-miterlimit="10" stroke-linecap="round" stroke-linejoin="round"/>
<path d="M13.0253 10.1325H8.49188" stroke="#1499A2" stroke-miterlimit="10" stroke-linecap="round" stroke-linejoin="round"/>
<path d="M20.9583 6.73419V7.4142C20.9583 8.88756 19.7683 10.1343 18.2383 10.1343H16.9916" stroke="#1499A2" stroke-miterlimit="10" stroke-linecap="round" stroke-linejoin="round"/>
<path d="M4.52336 10.1343H3.27667C1.80331 10.1343 0.556626 8.94423 0.556626 7.4142V6.73419" stroke="#1499A2" stroke-miterlimit="10" stroke-linecap="round" stroke-linejoin="round"/>
<path d="M7.35413 8.43336H5.6541V11.8334H7.35413V8.43336Z" stroke="#1499A2" stroke-miterlimit="10" stroke-linecap="round" stroke-linejoin="round"/>
<path d="M15.8538 8.43336H14.1538V11.8334H15.8538V8.43336Z" stroke="#1499A2" stroke-miterlimit="10" stroke-linecap="round" stroke-linejoin="round"/>
</svg>
