<svg width="38" height="22" viewBox="0 0 38 22" fill="none" xmlns="http://www.w3.org/2000/svg">
<path d="M28.6436 8.88982C30.9736 8.88982 32.8624 7.00101 32.8624 4.67103C32.8624 2.34106 30.9736 0.452243 28.6436 0.452243C26.3136 0.452243 24.4248 2.34106 24.4248 4.67103C24.4248 7.00101 26.3136 8.88982 28.6436 8.88982Z" stroke="#1499A2" stroke-width="0.9" stroke-miterlimit="10" stroke-linecap="round" stroke-linejoin="round"/>
<path d="M18.7665 17.9046C19.9171 15.5075 21.4512 12.6311 22.6977 11.3846C23.273 10.8093 23.8483 10.3299 24.6153 9.9464C25.7659 10.8093 27.2041 11.3846 28.6424 11.3846C30.1765 11.3846 31.6147 10.9052 32.7653 9.9464C35.3541 11.3846 37.1758 14.1652 37.1758 17.3293V21.5481H33.4364H23.9441" stroke="#1499A2" stroke-width="0.9" stroke-miterlimit="10" stroke-linecap="round" stroke-linejoin="round"/>
<path d="M33.3409 16.2739V21.5474H23.9446V16.2739L20.5887 21.5474H20.3969" stroke="#1499A2" stroke-width="0.9" stroke-miterlimit="10" stroke-linecap="round" stroke-linejoin="round"/>
<path d="M26.4377 10.9946L27.3965 14.4464H29.9853L30.8483 10.9946" stroke="#1499A2" stroke-width="0.9" stroke-miterlimit="10" stroke-linecap="round" stroke-linejoin="round"/>
<path d="M8.88895 8.88982C11.2189 8.88982 13.1078 7.00101 13.1078 4.67103C13.1078 2.34106 11.2189 0.452243 8.88895 0.452243C6.55898 0.452243 4.67019 2.34106 4.67019 4.67103C4.67019 7.00101 6.55898 8.88982 8.88895 8.88982Z" stroke="#1499A2" stroke-width="0.9" stroke-miterlimit="10" stroke-linecap="round" stroke-linejoin="round"/>
<path d="M0.451998 17.3293V21.5481H13.5878V16.2746L16.9437 21.5481H20.3954C20.3954 21.5481 19.7242 19.9181 18.7654 17.9046C17.6148 15.5075 16.0807 12.6311 14.8343 11.3846C14.259 10.8093 13.6837 10.3299 12.9166 9.9464C11.766 10.8093 10.4237 11.3846 8.88958 11.3846C7.35547 11.3846 5.91725 10.9052 4.76667 9.9464C2.17787 11.3846 0.451998 14.1652 0.451998 17.3293Z" stroke="#1499A2" stroke-width="0.9" stroke-miterlimit="10" stroke-linecap="round" stroke-linejoin="round"/>
<path d="M4.19551 21.5474V16.2739" stroke="#1499A2" stroke-width="0.9" stroke-miterlimit="10" stroke-linecap="round" stroke-linejoin="round"/>
</svg>
