<svg width="24" height="19" viewBox="0 0 24 19" fill="none" xmlns="http://www.w3.org/2000/svg">
<path d="M22.8446 8.18764C21.8691 4.52963 20.345 3.24934 18.7598 3.43224H5.2252C3.64006 3.3103 2.11589 4.52963 1.14042 8.18764C-0.0789163 12.5772 0.530751 16.784 2.35975 17.5765C4.06682 18.3081 6.26163 15.9914 7.54193 12.2724H16.4431C17.7234 15.9914 19.9182 18.3081 21.6252 17.5765C23.5152 16.784 24.0639 12.5772 22.8446 8.18764Z" stroke="#1499A2" stroke-miterlimit="10" stroke-linecap="round" stroke-linejoin="round"/>
<path d="M8.94385 7.0904H7.17584V5.32236H5.34683V7.0904H3.57878V8.9194H5.34683V10.6874H7.17584V8.9194H8.94385V7.0904Z" stroke="#1499A2" stroke-miterlimit="10" stroke-linecap="round" stroke-linejoin="round"/>
<path d="M16.3839 8.0044C17.1246 8.0044 17.7251 7.40389 17.7251 6.66313C17.7251 5.92236 17.1246 5.32187 16.3839 5.32187C15.6431 5.32187 15.0426 5.92236 15.0426 6.66313C15.0426 7.40389 15.6431 8.0044 16.3839 8.0044Z" stroke="#1499A2" stroke-miterlimit="10" stroke-linecap="round" stroke-linejoin="round"/>
<path d="M19.0661 10.6868C19.8069 10.6868 20.4073 10.0863 20.4073 9.34558C20.4073 8.60482 19.8069 8.0043 19.0661 8.0043C18.3253 8.0043 17.7248 8.60482 17.7248 9.34558C17.7248 10.0863 18.3253 10.6868 19.0661 10.6868Z" stroke="#1499A2" stroke-miterlimit="10" stroke-linecap="round" stroke-linejoin="round"/>
<path d="M11.9925 3.43244V0.506045" stroke="#1499A2" stroke-miterlimit="10" stroke-linecap="round" stroke-linejoin="round"/>
</svg>
