<svg width="23" height="21" viewBox="0 0 23 21" fill="none" xmlns="http://www.w3.org/2000/svg">
<g clip-path="url(#clip0_945_3836)">
<path d="M20.157 8.64917C19.928 8.64917 19.7083 8.68719 19.504 8.75647V8.02881C19.504 3.60171 15.7127 0 11.0526 0C6.39252 0 2.60125 3.60171 2.60125 8.02881V8.75647C2.397 8.68723 2.17724 8.64917 1.94824 8.64917C0.873978 8.64917 0 9.47945 0 10.5V11.7356C0 12.7561 0.873978 13.5864 1.94824 13.5864C2.18354 13.5864 2.40926 13.5466 2.61831 13.4736C2.89225 17.6675 6.57019 21 11.0526 21C15.5351 21 19.213 17.6675 19.487 13.4736C19.696 13.5466 19.9217 13.5864 20.157 13.5864C21.2313 13.5864 22.1053 12.7561 22.1053 11.7356V10.5C22.1053 9.47945 21.2313 8.64917 20.157 8.64917ZM16.0934 3.20812C16.0891 3.20763 16.0849 3.20693 16.0807 3.20644C15.2201 3.10796 14.5535 3.53801 13.9088 3.95354C13.1544 4.43965 12.3744 4.94238 11.0526 4.94238C9.73258 4.94238 8.95298 4.43473 8.19902 3.94378C7.55637 3.52529 6.89218 3.09307 6.03422 3.18737C7.32682 1.97802 9.09942 1.23047 11.0526 1.23047C13.017 1.23047 14.799 1.98647 16.0934 3.20812ZM1.94824 12.356C1.58817 12.356 1.29523 12.0777 1.29523 11.7356V10.5C1.29523 10.1579 1.58817 9.87964 1.94824 9.87964C2.30832 9.87964 2.60125 10.1579 2.60125 10.5V11.7356C2.60125 12.0777 2.30832 12.356 1.94824 12.356ZM18.2088 12.9712C18.2088 16.7198 14.9986 19.7695 11.0526 19.7695C7.10671 19.7695 3.89648 16.7198 3.89648 12.9712V8.02881C3.89648 7.2717 4.02756 6.54314 4.26908 5.8624C5.0732 4.95182 5.71564 4.46328 6.1795 4.40988C6.54018 4.36874 6.88588 4.5805 7.4667 4.95871C8.25364 5.47112 9.33127 6.17285 11.0526 6.17285C12.7723 6.17285 13.8494 5.47866 14.6359 4.97179C15.2176 4.59699 15.5643 4.38711 15.9265 4.42813C16.391 4.48104 17.0334 4.96396 17.8367 5.86392C18.0779 6.54421 18.2088 7.27223 18.2088 8.02881V12.9712H18.2088ZM20.81 11.7356C20.81 12.0777 20.5171 12.356 20.157 12.356C19.7969 12.356 19.504 12.0777 19.504 11.7356V10.5C19.504 10.1579 19.7969 9.87964 20.157 9.87964C20.5171 9.87964 20.81 10.1579 20.81 10.5V11.7356Z" fill="#1499A2"/>
<path d="M9.67401 12.355C9.42114 12.5953 9.42118 12.9848 9.67405 13.2251C10.0539 13.5859 10.5528 13.7663 11.0517 13.7663C11.5505 13.7663 12.0495 13.5859 12.4293 13.2251C12.6821 12.9848 12.6822 12.5953 12.4293 12.355C12.1763 12.1148 11.7663 12.1148 11.5134 12.355C11.2589 12.5969 10.8445 12.5969 10.5899 12.355C10.3369 12.1147 9.92697 12.1148 9.67401 12.355Z" fill="#1499A2"/>
<path d="M15.5132 9.12685L12.912 7.89126C12.5922 7.7393 12.2031 7.86251 12.0431 8.16639C11.8832 8.47028 12.0128 8.83987 12.3327 8.99179L13.1189 9.3652V10.0873C13.1189 10.427 13.4088 10.7025 13.7665 10.7025C14.1241 10.7025 14.4141 10.427 14.4141 10.0873V9.98043L14.934 10.2274C15.027 10.2716 15.1257 10.2925 15.2231 10.2925C15.4606 10.2925 15.6894 10.1678 15.8028 9.95225C15.9628 9.64837 15.8331 9.27882 15.5132 9.12685Z" fill="#1499A2"/>
<path d="M7.15217 10.2925C7.24949 10.2925 7.34831 10.2716 7.44127 10.2274L7.96117 9.98047V10.0873C7.96117 10.4271 8.25113 10.7026 8.60879 10.7026C8.96644 10.7026 9.2564 10.4271 9.2564 10.0873V9.36524L10.0425 8.99183C10.3624 8.83991 10.4921 8.47032 10.3321 8.16643C10.1722 7.86251 9.78326 7.73926 9.46329 7.8913L6.86204 9.1269C6.54212 9.27882 6.41247 9.64841 6.57243 9.9523C6.68589 10.1679 6.91458 10.2925 7.15217 10.2925Z" fill="#1499A2"/>
<path d="M11.8961 15.2631C11.4314 15.7046 10.6754 15.7046 10.2107 15.2631C9.24105 14.342 7.66325 14.342 6.69359 15.2631C6.44068 15.5034 6.44068 15.8929 6.69359 16.1332C6.94646 16.3734 7.35653 16.3734 7.60945 16.1332C8.07418 15.6918 8.83012 15.6918 9.29485 16.1332C9.77965 16.5938 10.4165 16.8241 11.0534 16.8241C11.6902 16.8241 12.3271 16.5938 12.8119 16.1332C13.2766 15.6918 14.0326 15.6918 14.4973 16.1332C14.7502 16.3734 15.1603 16.3734 15.4132 16.1332C15.6661 15.893 15.6661 15.5034 15.4132 15.2631C14.4435 14.342 12.8658 14.342 11.8961 15.2631Z" fill="#1499A2"/>
</g>
<defs>
<clipPath id="clip0_945_3836">
<rect width="22.1053" height="21" fill="white"/>
</clipPath>
</defs>
</svg>
