<svg width="22" height="20" viewBox="0 0 22 20" fill="none" xmlns="http://www.w3.org/2000/svg">
<path d="M1.57498 12.2451V19.546H19.5466V12.2451" stroke="#1499A2" stroke-width="0.9" stroke-miterlimit="10" stroke-linecap="round" stroke-linejoin="round"/>
<path d="M8.87673 19.5475H12.2464V15.0546C12.2464 14.0999 11.5163 13.3698 10.5616 13.3698C9.60683 13.3698 8.87673 14.0999 8.87673 15.0546V19.5475Z" stroke="#1499A2" stroke-width="0.9" stroke-miterlimit="10" stroke-linecap="round" stroke-linejoin="round"/>
<path d="M3.25903 16.7388H6.6287V14.2116C6.6287 13.2568 5.8986 12.5267 4.94386 12.5267C3.98912 12.5267 3.25903 13.2568 3.25903 14.2116V16.7388Z" stroke="#1499A2" stroke-width="0.9" stroke-miterlimit="10" stroke-linecap="round" stroke-linejoin="round"/>
<path d="M14.4905 16.7388H17.8602V14.2116C17.8602 13.2568 17.1301 12.5267 16.1753 12.5267C15.2206 12.5267 14.4905 13.2568 14.4905 14.2116V16.7388Z" stroke="#1499A2" stroke-width="0.9" stroke-miterlimit="10" stroke-linecap="round" stroke-linejoin="round"/>
<path d="M19.5468 7.19109H1.01359" stroke="#1499A2" stroke-width="0.9" stroke-miterlimit="10" stroke-linecap="round" stroke-linejoin="round"/>
<path d="M0.452203 7.19109V8.87592C0.452203 9.83066 1.1823 10.5608 2.13704 10.5608C3.09178 10.5608 3.82187 9.83066 3.82187 8.87592C3.82187 9.83066 4.55197 10.5608 5.50671 10.5608C6.46145 10.5608 7.19154 9.83066 7.19154 8.87592C7.19154 9.83066 7.92164 10.5608 8.87638 10.5608C9.83112 10.5608 10.5612 9.83066 10.5612 8.87592C10.5612 9.83066 11.2913 10.5608 12.246 10.5608C13.2008 10.5608 13.9309 9.83066 13.9309 8.87592C13.9309 9.83066 14.661 10.5608 15.6157 10.5608C16.5705 10.5608 17.3006 9.83066 17.3006 8.87592C17.3006 9.83066 18.0307 10.5608 18.9854 10.5608C19.9401 10.5608 20.6702 9.83066 20.6702 8.87592V7.19109H0.452203Z" stroke="#1499A2" stroke-width="0.9" stroke-miterlimit="10" stroke-linecap="round" stroke-linejoin="round"/>
<path d="M4.38349 3.82275H0.452203V7.19242H20.6702V3.82275H16.7389" stroke="#1499A2" stroke-width="0.9" stroke-miterlimit="10" stroke-linecap="round" stroke-linejoin="round"/>
<path d="M16.7374 0.452449H4.38193V4.94534H16.7374V0.452449Z" stroke="#1499A2" stroke-width="0.9" stroke-miterlimit="10" stroke-linecap="round" stroke-linejoin="round"/>
</svg>
