<svg width="23" height="21" viewBox="0 0 23 21" fill="none" xmlns="http://www.w3.org/2000/svg">
<path d="M18.5487 2.1436C17.0935 0.761249 15.1589 -4.10139e-05 13.101 1.65724e-09L9.00462 8.20328e-05C4.75671 0.000164064 1.30078 3.28338 1.30078 7.3189V20.3848C1.30078 20.7245 1.59074 21 1.9484 21H20.1576C20.5152 21 20.8052 20.7245 20.8052 20.3848V7.31877C20.8052 5.36381 20.0038 3.5259 18.5487 2.1436ZM9.00467 1.23055L13.101 1.23047C14.8129 1.23043 16.4223 1.86371 17.6328 3.01366C18.8433 4.16361 19.51 5.69251 19.51 7.31881V8.75657C19.3056 8.68726 19.0858 8.64923 18.8567 8.64923C18.6276 8.64923 18.4078 8.6873 18.2035 8.75657V6.56257C18.2035 6.2228 17.9135 5.94734 17.5559 5.94734H4.55008C4.19242 5.94734 3.90246 6.2228 3.90246 6.56257V8.75661C3.69812 8.6873 3.47832 8.64923 3.24924 8.64923C3.02015 8.64923 2.80035 8.6873 2.59605 8.75657V7.31894C2.59605 3.96186 5.47094 1.23063 9.00467 1.23055ZM19.5097 10.5V11.7356C19.5097 12.0777 19.2168 12.356 18.8567 12.356C18.4967 12.356 18.2037 12.0777 18.2037 11.7356V10.5C18.2037 10.158 18.4967 9.87966 18.8567 9.87966C19.2168 9.87966 19.5097 10.158 19.5097 10.5ZM3.90225 10.5V11.7356C3.90225 12.0777 3.60931 12.356 3.24924 12.356C2.88916 12.356 2.59622 12.0777 2.59622 11.7356V10.5C2.59622 10.158 2.88916 9.87966 3.24924 9.87966C3.60931 9.87966 3.90225 10.158 3.90225 10.5ZM2.59605 19.7695V13.4791C2.80035 13.5484 3.0202 13.5864 3.24924 13.5864C3.47832 13.5864 3.69816 13.5484 3.90246 13.4791V14.1762C3.90246 15.9671 4.62485 17.6612 5.93662 18.9464C6.24967 19.2531 6.58777 19.5281 6.94659 19.7695H2.59605ZM11.1862 19.7684C11.0976 19.7699 11.0084 19.7699 10.9197 19.7684C7.76457 19.7138 5.19769 17.2051 5.19769 14.1762V7.17776H16.9083V14.1762C16.9083 17.2051 14.3414 19.7138 11.1862 19.7684ZM15.1594 19.7695C15.5182 19.5281 15.8563 19.2531 16.1694 18.9464C17.4811 17.6612 18.2035 15.9671 18.2035 14.1762V13.4791C18.4079 13.5484 18.6277 13.5864 18.8568 13.5864C19.0859 13.5864 19.3057 13.5484 19.51 13.4791V19.7695H15.1594Z" fill="#1499A2"/>
<path d="M11.0536 13.8018C9.26212 13.8018 7.80469 15.1863 7.80469 16.8882C7.80469 17.228 8.09465 17.5034 8.4523 17.5034H13.6548C14.0125 17.5034 14.3024 17.228 14.3024 16.8882C14.3024 15.1863 12.845 13.8018 11.0536 13.8018ZM9.21027 16.2729C9.47804 15.551 10.2033 15.0322 11.0536 15.0322C11.9039 15.0322 12.6292 15.551 12.8969 16.2729H9.21027Z" fill="#1499A2"/>
<path d="M9.75015 8.85156C9.75015 8.51179 9.4602 8.23633 9.10254 8.23633C8.74488 8.23633 8.45492 8.51179 8.45492 8.85156C8.45492 9.19363 8.16199 9.47192 7.80191 9.47192C7.44426 9.47192 7.1543 9.74738 7.1543 10.0872C7.1543 10.4269 7.44426 10.7024 7.80191 10.7024C8.87618 10.7024 9.75015 9.87211 9.75015 8.85156Z" fill="#1499A2"/>
<path d="M9.67605 12.1978C10.0559 12.5585 10.5547 12.7389 11.0537 12.7389C11.5525 12.7389 12.0515 12.5585 12.4313 12.1977C12.6842 11.9575 12.6842 11.568 12.4313 11.3277C12.1784 11.0874 11.7683 11.0874 11.5154 11.3277C11.2608 11.5695 10.8466 11.5695 10.5919 11.3276C10.339 11.0874 9.92892 11.0874 9.67601 11.3277C9.42309 11.5679 9.42309 11.9575 9.67605 12.1978Z" fill="#1499A2"/>
<path d="M14.3036 9.47192C13.9435 9.47192 13.6506 9.19363 13.6506 8.85156C13.6506 8.51179 13.3606 8.23633 13.003 8.23633C12.6453 8.23633 12.3553 8.51179 12.3553 8.85156C12.3553 9.87211 13.2293 10.7024 14.3036 10.7024C14.6612 10.7024 14.9512 10.4269 14.9512 10.0872C14.9512 9.74738 14.6612 9.47192 14.3036 9.47192Z" fill="#1499A2"/>
</svg>
