<svg width="30" height="30" viewBox="0 0 30 30" fill="none" xmlns="http://www.w3.org/2000/svg">
<g clip-path="url(#clip0_923_11387)">
<path d="M17.0466 15.1901V14.7059C17.0466 13.5773 16.1284 12.6592 14.9999 12.6592C13.8713 12.6592 12.9531 13.5773 12.9531 14.7059V15.1901C12.9531 16.3187 13.8713 17.2368 14.9999 17.2368C16.1284 17.2368 17.0466 16.3187 17.0466 15.1901ZM13.832 15.1901V14.7059C13.832 14.062 14.3559 13.5381 14.9999 13.5381C15.6438 13.5381 16.1677 14.062 16.1677 14.7059V15.1901C16.1677 15.834 15.6438 16.3579 14.9999 16.3579C14.3559 16.3579 13.832 15.834 13.832 15.1901Z" fill="#1499A2"/>
<path d="M28.9155 0.170898H26.783C26.1853 0.170898 25.699 0.657168 25.699 1.25488V2.05275H25.4604C24.9196 2.05275 24.4795 2.4925 24.4795 3.03303V5.09353C24.4795 5.41228 24.5899 5.72371 24.7897 5.96974L25.4325 6.7648C25.6958 7.15551 26.4964 6.73978 26.116 6.21221L25.4726 5.41633C25.399 5.32574 25.3584 5.21107 25.3584 5.09353V3.03303C25.3584 2.97713 25.4042 2.93166 25.4604 2.93166L27.1563 2.93148C27.2125 2.93148 27.2582 2.97719 27.2582 3.03332V3.61621C27.2582 3.85891 27.4549 4.05566 27.6976 4.05566C27.9403 4.05566 28.1371 3.85891 28.1371 3.61621V3.03332C28.1371 2.49256 27.6971 2.05258 27.1563 2.05258H26.5779V1.25488C26.5779 1.1418 26.6699 1.0498 26.783 1.0498H28.9155C29.0289 1.0498 29.1211 1.1418 29.1211 1.25488V21.6819C29.095 21.928 29.1667 21.7449 29.015 22.3456L25.1735 19.2096L26.0442 8.57623C26.064 8.33435 25.884 8.12219 25.6421 8.10238C25.4 8.08252 25.188 8.26258 25.1682 8.50451L24.2906 19.2219L21.8222 22.0047L18.0703 22.5371V19.8389C19.0499 19.7399 19.9578 19.3105 20.6626 18.6051C21.4726 17.7957 21.9187 16.7189 21.9187 15.5731V15.0595C23.0467 14.8521 23.9043 13.8622 23.9043 12.6752C23.9043 11.7408 23.3727 10.9287 22.5964 10.5239C22.8506 10.2133 23.1001 9.75572 23.3198 9.08887C23.6786 8.00002 23.8652 6.61006 23.8191 5.37062C23.7808 4.34418 23.5684 3.0008 22.7737 2.43027C21.2248 1.31822 19.4685 1.52752 18.9726 1.61641C17.2144 1.00516 14.6618 0.215547 12.3513 0.178926C9.78779 0.138027 7.9282 1.02783 6.82664 2.82297C5.79223 4.50871 5.7658 7.9948 6.7732 9.86101C6.93855 10.1673 7.11691 10.4021 7.29879 10.5818C6.57984 11.0031 6.09568 11.7834 6.09568 12.6752C6.09568 13.8622 6.95326 14.852 8.08119 15.0595V15.5731C8.08119 17.9375 10.0048 19.861 12.3691 19.861C12.6118 19.861 12.8085 19.6643 12.8085 19.4216C12.8085 19.1789 12.6118 18.9821 12.3691 18.9821C10.4893 18.9821 8.9601 17.4528 8.9601 15.5731V11.1079C10.3119 10.9441 11.2207 9.88246 11.71 9.11318C12.1008 9.69865 12.7642 10.2635 13.7584 10.2635C15.8933 10.2635 17.7887 8.06781 18.7181 6.77775C18.8192 7.22019 18.9577 7.75592 19.1362 8.29609C19.1374 8.2999 19.1388 8.30353 19.14 8.30734C18.412 8.3708 17.8818 8.89369 17.6642 9.24554C17.5365 9.45197 17.5996 9.72408 17.806 9.8517C17.8784 9.89646 17.9585 9.91779 18.0376 9.91779C18.1842 9.91779 18.3272 9.84443 18.4101 9.71031C18.4552 9.63959 18.844 9.06613 19.4805 9.20283C19.9294 10.2262 20.4512 10.8453 21.0398 11.0516V15.573C21.0398 16.4839 20.6852 17.3399 20.041 17.9835C19.3976 18.6274 18.5417 18.982 17.6308 18.982C17.3881 18.982 17.1913 19.1788 17.1913 19.4215V22.7429C15.8681 23.2223 14.4286 23.2156 12.8085 22.7226V21.4759C12.8085 21.2332 12.6118 21.0365 12.3691 21.0365C12.1264 21.0365 11.9296 21.2332 11.9296 21.4759V22.5369L8.1777 22.0046L5.70938 19.2219L4.67807 6.62799L5.20957 5.97056C5.35992 5.78547 5.45959 5.56398 5.50008 5.33037C5.51355 5.2525 5.52047 5.17328 5.52047 5.09359V3.03303C5.52047 2.4925 5.08043 2.05275 4.53961 2.05275H4.30096V1.25488C4.30096 0.657168 3.81469 0.170898 3.21697 0.170898H1.08451C0.486504 0.170898 0 0.657168 0 1.25488V21.6819C0.00486328 22.1634 0.123809 22.7528 0.450996 23.2739L4.35246 29.62C4.47955 29.8268 4.75025 29.8913 4.95697 29.7642C5.16375 29.6371 5.22832 29.3664 5.10117 29.1597L1.4008 23.1406L5.23447 20.0111L7.48172 22.5447L6.10178 29.302C6.0532 29.5398 6.2066 29.7719 6.44443 29.8205C6.47408 29.8266 6.50367 29.8295 6.53279 29.8295C6.73729 29.8295 6.92039 29.686 6.96287 29.4778L7.33611 27.6503H22.6638L23.0371 29.4778C23.0795 29.686 23.2627 29.8295 23.4671 29.8295H23.4673C23.4964 29.8295 23.526 29.8265 23.5557 29.8205C23.7935 29.7719 23.9469 29.5398 23.8983 29.302L22.5182 22.5447L24.7655 20.0111L28.5991 23.1408L24.8988 29.1599C24.7717 29.3666 24.8363 29.6372 25.043 29.7644C25.1147 29.8085 25.1942 29.8295 25.2727 29.8295C25.4203 29.8295 25.5645 29.7551 25.6474 29.6202L29.5492 23.2736C29.8441 22.7942 30 22.2439 30 21.6819V1.25488C30 0.657168 29.5135 0.170898 28.9155 0.170898ZM21.9187 14.1576V11.1927C22.5578 11.3825 23.0254 11.9753 23.0254 12.6752C23.0254 13.3751 22.5578 13.9678 21.9187 14.1576ZM6.97465 12.6752C6.97465 11.9753 7.44217 11.3825 8.08125 11.1927V14.1576C7.44217 13.9678 6.97465 13.3751 6.97465 12.6752ZM19.3754 5.57723C19.3465 5.39371 19.2054 5.24822 19.0229 5.21365C18.8404 5.1792 18.6558 5.26316 18.5619 5.42342C18.5387 5.46303 16.2135 9.38465 13.7585 9.38465C12.5439 9.38465 12.1755 8.08076 12.161 8.02703C12.1131 7.84469 11.9541 7.71349 11.766 7.70055C11.5784 7.68789 11.4024 7.79635 11.3299 7.97037C11.3202 7.99369 10.3368 10.3049 8.53406 10.2504C8.16176 10.2391 7.82959 9.9676 7.54664 9.44347C6.6934 7.86291 6.70834 4.69615 7.57576 3.28258C8.49445 1.78545 10.001 1.05637 12.1791 1.05637C12.2313 1.05637 12.2844 1.05678 12.3374 1.05766C14.5707 1.09305 17.093 1.88957 18.7961 2.48564C18.8757 2.51348 18.9617 2.51781 19.0437 2.49818C19.0611 2.49396 20.798 2.09371 22.2611 3.14412C23.0675 3.72309 23.1847 6.69033 22.485 8.81371C22.1354 9.87461 21.7307 10.2502 21.4886 10.2501C21.4876 10.2501 21.4865 10.2501 21.4855 10.2501C21.4853 10.2501 21.485 10.2501 21.4847 10.2501C20.5444 10.2358 19.6702 7.45357 19.3754 5.57723ZM15.1416 23.9711C16.0572 23.9711 16.9272 23.804 17.7453 23.4709L21.6959 22.9104L22.0858 24.82H7.91414L8.30408 22.9105L12.2694 23.473C13.2683 23.8049 14.2276 23.9711 15.1416 23.9711ZM0.984961 22.3455C0.97957 22.2585 0.912656 22.3134 0.878906 21.6819V1.25488C0.878906 1.1418 0.971133 1.0498 1.08451 1.0498H3.21697C3.33006 1.0498 3.42205 1.1418 3.42205 1.25488V2.05252H2.84367C2.30291 2.05252 1.86293 2.4925 1.86293 3.03326V3.61615C1.86293 3.85885 2.05969 4.0556 2.30238 4.0556C2.54508 4.0556 2.74184 3.85885 2.74184 3.61615V3.03326C2.74184 2.97713 2.78754 2.93143 2.84367 2.93143L4.53961 2.9316C4.5958 2.9316 4.64156 2.97707 4.64156 3.03297V5.09348C4.64156 5.21101 4.60102 5.32568 4.52678 5.41709L3.884 6.21215C3.81305 6.29998 3.77853 6.41178 3.78773 6.52433L4.82648 19.2095L0.984961 22.3455ZM7.51564 26.7713L7.73467 25.6988H22.2654L22.4844 26.7713H7.51564Z" fill="#1499A2"/>
<path d="M18.7923 10.8477C18.5496 10.8477 18.3529 11.0444 18.3529 11.2871V11.7843L17.88 11.6306C17.6492 11.5555 17.4013 11.682 17.3263 11.9128C17.2513 12.1436 17.3776 12.3915 17.6084 12.4665L18.0812 12.6201L17.789 13.0224C17.6464 13.2187 17.6899 13.4935 17.8862 13.6362C17.9642 13.6929 18.0546 13.7202 18.1442 13.7202C18.28 13.7202 18.414 13.6573 18.5001 13.539L18.7923 13.1368L19.0845 13.539C19.1705 13.6574 19.3045 13.7202 19.4404 13.7202C19.5299 13.7202 19.6203 13.6929 19.6983 13.6363C19.8947 13.4936 19.9382 13.2188 19.7956 13.0224L19.5034 12.6202L19.9762 12.4666C20.207 12.3916 20.3334 12.1437 20.2583 11.9129C20.1833 11.682 19.9353 11.5556 19.7046 11.6308L19.2318 11.7844V11.2872C19.2318 11.0444 19.0351 10.8477 18.7923 10.8477Z" fill="#1499A2"/>
<path d="M12.6744 11.9128C12.5994 11.6819 12.3513 11.5555 12.1207 11.6306L11.6478 11.7843V11.2871C11.6478 11.0444 11.451 10.8477 11.2083 10.8477C10.9656 10.8477 10.7689 11.0444 10.7689 11.2871V11.7843L10.296 11.6306C10.0651 11.5555 9.81733 11.682 9.74233 11.9128C9.66733 12.1436 9.79366 12.3915 10.0245 12.4665L10.4973 12.6201L10.205 13.0224C10.0624 13.2187 10.106 13.4936 10.3023 13.6362C10.3803 13.6929 10.4707 13.7202 10.5602 13.7202C10.6961 13.7202 10.8301 13.6573 10.9161 13.539L11.2083 13.1368L11.5006 13.539C11.5866 13.6574 11.7206 13.7202 11.8565 13.7202C11.946 13.7202 12.0365 13.6929 12.1144 13.6363C12.3108 13.4936 12.3543 13.2188 12.2116 13.0224L11.9194 12.6202L12.3923 12.4666C12.623 12.3915 12.7494 12.1436 12.6744 11.9128Z" fill="#1499A2"/>
</g>
<defs>
<clipPath id="clip0_923_11387">
<rect width="30" height="30" fill="white"/>
</clipPath>
</defs>
</svg>
