<svg width="30" height="30" viewBox="0 0 30 30" fill="none" xmlns="http://www.w3.org/2000/svg">
<g clip-path="url(#clip0_923_8353)">
<path d="M29.0134 29.4979L28.1977 23.8325C28.0585 22.8658 27.5754 21.9812 26.8373 21.3418C26.0991 20.7024 25.1547 20.3502 24.178 20.3502L18.0969 20.3503L18.0991 19.8902C19.0916 19.7913 20.0117 19.3569 20.7264 18.6423C21.5451 17.8235 21.9959 16.735 21.9959 15.5771V15.0906C23.0527 15.0423 23.9365 14.321 24.2286 13.3463C24.9893 13.2271 25.8091 12.5965 25.9778 11.7457C26.1591 10.9611 25.9223 10.0772 25.6003 9.41381C26.1436 9.10959 26.9505 8.46552 26.8764 7.34813C26.7882 6.02549 25.8559 4.64466 24.4655 3.73944C24.6606 3.25956 24.8576 2.41926 24.3853 1.54416C24.0794 0.977375 22.9769 0.290711 20.7999 0.0634248C19.6454 -0.057279 17.3799 -0.106264 14.9992 0.88005C12.6186 -0.106205 10.3531 -0.0571032 9.19855 0.0634248C7.02155 0.29077 5.91898 0.977434 5.61312 1.54416C5.14079 2.41926 5.33785 3.2595 5.53291 3.73944C4.14253 4.64472 3.21018 6.02549 3.12199 7.34831C3.04793 8.46558 3.85477 9.10959 4.39805 9.41381C4.07608 10.0772 3.8393 10.9611 4.02059 11.7457C4.20493 12.5611 4.8821 13.1787 5.76974 13.3463C6.06183 14.321 6.94567 15.0423 8.00247 15.0906V15.5771C8.00247 17.8196 9.71418 19.6699 11.8994 19.89L11.9019 20.3503L5.82043 20.3501C4.84366 20.3501 3.89924 20.7023 3.16107 21.3417C2.42296 21.9812 1.93986 22.8657 1.80064 23.8325L0.985007 29.4979C0.950436 29.7381 1.11714 29.9608 1.35737 29.9954C1.37858 29.9985 1.39968 30 1.42054 30C1.63546 30 1.82343 29.842 1.85495 29.623L2.67058 23.9576C2.89453 22.4021 4.2487 21.229 5.82037 21.229L22.0985 21.2292V24.6597C21.9123 24.5307 21.7015 24.4339 21.4726 24.3804L19.7491 22.4834C19.3614 22.0566 18.7322 21.9421 18.2192 22.2047L16.4108 23.1295C15.8463 23.3538 15.5415 23.9777 15.7155 24.5638L16.8107 28.2457C16.9817 28.8214 17.2566 29.3547 17.6279 29.8306C17.7773 30.022 18.0533 30.056 18.2447 29.9069C18.4361 29.7576 18.4702 29.4815 18.3209 29.2902C18.0175 28.9011 17.7928 28.4655 17.6532 27.9952L16.558 24.3134C16.5127 24.1609 16.5937 23.9985 16.7424 23.9436C16.7588 23.9375 16.7748 23.9305 16.7904 23.9226L18.6196 22.9871C18.78 22.9049 18.9771 22.9407 19.0985 23.0743L20.921 25.0803C20.9901 25.1564 21.0837 25.2059 21.1856 25.22C21.6439 25.284 21.9916 25.6661 22.0121 26.1286L22.1252 28.6879C22.1264 28.7146 22.13 28.7411 22.136 28.7672L22.3417 29.6591C22.3887 29.8624 22.5695 29.9999 22.7696 29.9999C22.8023 29.9999 22.8355 29.9962 22.8687 29.9886C23.1052 29.934 23.2528 29.6981 23.1982 29.4616L23.0016 28.6089L22.9774 28.0626V21.2291H24.178C25.7497 21.2291 27.1039 22.4022 27.3278 23.9577L28.1434 29.6231C28.175 29.8421 28.3629 30 28.5778 30C28.5987 30 28.6198 29.9986 28.641 29.9955C28.8813 29.9609 29.0479 29.7381 29.0134 29.4979ZM21.996 14.2106V11.0787C22.8662 11.1409 23.5837 11.9693 23.4331 12.8911C23.3201 13.6036 22.7266 14.1582 21.996 14.2106ZM6.56539 12.8911C6.40853 12.0445 7.10633 11.1226 8.00253 11.0787V14.2106C7.27186 14.1582 6.6783 13.6036 6.56539 12.8911ZM8.88138 15.5771L8.88144 11.0238C9.98395 10.79 10.4306 9.80528 10.5545 9.03722C12.3247 9.07496 13.6355 8.20033 14.2978 7.4669C15.0987 6.60704 15.4037 5.70703 15.4163 5.66912C15.4927 5.43926 15.3685 5.19158 15.1388 5.11447C14.9091 5.03742 14.6603 5.1614 14.5826 5.3908C14.5409 5.51408 13.5211 8.40816 10.1887 8.14109C10.0669 8.13077 9.94627 8.17349 9.85615 8.25622C9.76609 8.33896 9.71459 8.45626 9.71406 8.57861C9.71406 8.58294 9.71014 9.0176 9.52797 9.43719C9.31386 9.93032 8.95539 10.1784 8.43226 10.1957H8.11573C6.84313 10.1957 5.79453 11.1716 5.67798 12.4143C5.36714 12.3235 4.94942 11.9585 4.877 11.5477C4.72478 10.8891 5.03169 9.99916 5.3812 9.45119C5.45351 9.33775 5.46915 9.19725 5.42497 9.07021C5.38074 8.94318 5.28001 8.8431 5.15292 8.79904C5.14958 8.79787 4.81724 8.68115 4.5078 8.4316C4.13942 8.13441 3.97295 7.79901 3.99891 7.40661C4.07403 6.27938 5.00743 5.02646 6.32146 4.28888C6.42729 4.22946 6.50311 4.12792 6.53223 4.01015C6.56141 3.89231 6.53984 3.76669 6.47393 3.66473C6.45154 3.6301 5.93047 2.80651 6.38645 1.96164C6.55772 1.64441 7.57169 1.11695 9.28984 0.937473C10.3868 0.823097 12.5644 0.777511 14.8239 1.76037C14.9357 1.809 15.0626 1.809 15.1744 1.76037C17.4342 0.777569 19.6117 0.823038 20.7086 0.937531C22.4268 1.11695 23.4407 1.64441 23.612 1.9617C24.068 2.80657 23.5469 3.63022 23.5259 3.66268C23.4583 3.76452 23.4362 3.88991 23.4648 4.00874C23.4935 4.12751 23.5703 4.22905 23.6769 4.28888C24.9909 5.02646 25.9243 6.27938 25.9995 7.40643C26.063 8.36609 24.8952 8.78187 24.847 8.79857C24.719 8.84181 24.6181 8.94154 24.5732 9.06892C24.5283 9.19637 24.5446 9.33734 24.6172 9.45119C24.9668 9.99922 25.2737 10.8891 25.1214 11.5477C25.0183 11.9281 24.7797 12.2492 24.3205 12.4142C24.2074 11.2087 23.217 10.2545 21.9959 10.1986V8.65642C21.9959 6.69041 20.3964 5.09097 18.4304 5.09097H17.053C16.8103 5.09097 16.6136 5.28767 16.6136 5.53043C16.6136 5.77318 16.8103 5.96988 17.053 5.96988H18.4305C19.9118 5.96988 21.1171 7.17505 21.1171 8.65642V15.577C21.1171 16.5001 20.7576 17.368 20.105 18.0207C19.4523 18.6734 18.5847 19.0328 17.6618 19.0328C17.4199 19.0328 17.2236 19.2283 17.2224 19.4701L17.2181 20.35H12.7809L12.7762 19.4699C12.7749 19.2281 12.5786 19.0328 12.3367 19.0328C10.4315 19.0329 8.88138 17.4826 8.88138 15.5771Z" fill="#1499A2"/>
<path d="M13.5215 15.7734H16.4777C16.7205 15.7734 16.9172 15.5767 16.9172 15.334C16.9172 15.0912 16.7205 14.8945 16.4777 14.8945H13.5215C13.2787 14.8945 13.082 15.0912 13.082 15.334C13.082 15.5767 13.2787 15.7734 13.5215 15.7734Z" fill="#1499A2"/>
<path d="M18.8359 12.3994C18.5932 12.3994 18.3965 12.5961 18.3965 12.8389V13.7186C18.3965 13.9613 18.5932 14.158 18.8359 14.158C19.0787 14.158 19.2754 13.9613 19.2754 13.7186V12.8389C19.2754 12.5962 19.0786 12.3994 18.8359 12.3994Z" fill="#1499A2"/>
<path d="M11.1621 12.4395C10.9194 12.4395 10.7227 12.6362 10.7227 12.8789V13.7187C10.7227 13.9614 10.9194 14.1581 11.1621 14.1581C11.4049 14.1581 11.6016 13.9614 11.6016 13.7187V12.8789C11.6016 12.6362 11.4049 12.4395 11.1621 12.4395Z" fill="#1499A2"/>
<path d="M13.5877 23.1292L11.7796 22.2046C11.2664 21.9418 10.6371 22.0564 10.2496 22.4831L8.52599 24.3801C8.297 24.4336 8.08624 24.5305 7.90009 24.6595V22.85C7.90009 22.6072 7.70339 22.4105 7.46064 22.4105C7.21788 22.4105 7.02118 22.6072 7.02118 22.85V28.0621L6.99704 28.6087L6.8004 29.4614C6.74585 29.6979 6.89339 29.9338 7.12987 29.9884C7.1631 29.9961 7.19632 29.9997 7.22901 29.9997C7.42905 29.9997 7.60993 29.8621 7.65687 29.6589L7.86259 28.767C7.86862 28.7409 7.8722 28.7144 7.87343 28.6877L7.98646 26.1286C8.00702 25.6659 8.35466 25.2838 8.81304 25.2198C8.91482 25.2057 9.00845 25.1562 9.07759 25.0801L10.9002 23.0741C11.0214 22.9405 11.2185 22.9046 11.3792 22.9871L13.2082 23.9224C13.2238 23.9304 13.2398 23.9373 13.2561 23.9434C13.4049 23.9983 13.4859 24.1607 13.4407 24.313L12.3454 27.9952C12.2057 28.4652 11.981 28.9009 11.6776 29.2899C11.5284 29.4813 11.5625 29.7575 11.7539 29.9067C11.9453 30.0559 12.2214 30.0218 12.3707 29.8304C12.7419 29.3545 13.0168 28.8212 13.1878 28.2456L14.2831 24.5634C14.4571 23.9774 14.1523 23.3535 13.5877 23.1292Z" fill="#1499A2"/>
<path d="M17.6374 10.9244C18.0124 11.2481 18.5741 11.6039 19.5167 11.6039C19.662 11.6039 19.8165 11.5954 19.9802 11.5768C20.2054 11.5511 20.3879 11.3663 20.3876 11.1397C20.3873 10.8712 20.1546 10.6711 19.8963 10.7017C18.7283 10.8398 18.2865 10.3256 18.2683 10.3036L18.2121 10.2555C18.0545 10.1205 17.8241 10.1136 17.6589 10.2391C17.4352 10.4088 17.4249 10.7409 17.6374 10.9244Z" fill="#1499A2"/>
</g>
<defs>
<clipPath id="clip0_923_8353">
<rect width="30" height="30" fill="white"/>
</clipPath>
</defs>
</svg>
