<svg width="20" height="21" viewBox="0 0 20 21" fill="none" xmlns="http://www.w3.org/2000/svg">
<path d="M1.00802 13.959C1.00802 13.3073 1.53356 12.7818 2.18523 12.7818C2.83691 12.7818 3.36245 13.3073 3.36245 13.959C3.36245 14.0431 3.38347 14.1061 3.42551 14.1902C3.59369 15.2413 4.49762 16.0401 5.59075 16.0401C6.72592 16.0401 7.65088 15.1782 7.75598 14.0641C7.75598 14.0221 7.77701 14.001 7.77701 13.959C7.77701 13.3073 8.30254 12.7818 8.95422 12.7818C9.60589 12.7818 10.1314 13.3073 10.1314 13.959C10.1314 14.0431 10.1525 14.1061 10.1945 14.1902C10.3627 15.2413 11.2666 16.0401 12.3597 16.0401C13.4949 16.0401 14.4199 15.1782 14.525 14.0641C14.525 14.0221 14.546 14.001 14.546 13.959C14.546 13.3073 15.0715 12.7818 15.7232 12.7818C16.3749 12.7818 16.9004 13.3073 16.9004 13.959C16.9004 14.2323 17.1317 14.4635 17.4049 14.4635C17.6782 14.4635 17.9095 14.2323 17.9095 13.959C17.9095 12.7608 16.9214 11.7727 15.7232 11.7727C14.588 11.7727 13.6631 12.6346 13.558 13.7488C13.558 13.7908 13.558 13.8118 13.558 13.8539C13.558 14.5056 13.0324 15.0311 12.3808 15.0311C11.7291 15.0311 11.2035 14.5056 11.2035 13.8539C11.2035 13.7698 11.1825 13.7067 11.1405 13.6226C10.9723 12.5716 10.0684 11.7727 8.97524 11.7727C7.84007 11.7727 6.91512 12.6346 6.81001 13.7488C6.81001 13.7908 6.81001 13.8118 6.81001 13.8539C6.81001 14.5056 6.28446 15.0311 5.63279 15.0311C4.98112 15.0311 4.45557 14.5056 4.45557 13.8539C4.45557 13.7698 4.43456 13.7067 4.39251 13.6226C4.22434 12.5716 3.3204 11.7727 2.22728 11.7727C1.02904 11.7727 0.0410166 12.7608 0.0410166 13.959C0.0410166 14.2323 0.272257 14.4635 0.545539 14.4635C0.566561 14.4635 0.587583 14.4635 0.608605 14.4635C0.818822 14.4215 1.00802 14.2113 1.00802 13.959Z" fill="#1499A2"/>
<path d="M15.3033 2.18626V4.14128H10.0268V2.18626C10.0268 1.53458 10.5944 1.00905 11.3092 1.00905C12.0239 1.00905 12.5915 1.53458 12.5915 2.18626C12.5915 2.45954 12.8227 2.69078 13.096 2.69078C13.3693 2.69078 13.6005 2.45954 13.6005 2.18626C13.6005 0.988019 12.5705 0 11.3092 0C10.0478 0 9.01779 0.988019 9.01779 2.18626V10.3217C9.01779 10.5949 9.24903 10.8262 9.52231 10.8262C9.79559 10.8262 10.0268 10.5949 10.0268 10.3217V8.57686H15.3033V10.3217C15.3033 10.5949 15.5345 10.8262 15.8078 10.8262C16.0811 10.8262 16.3123 10.5949 16.3123 10.3217V2.18626C16.3123 1.53458 16.8799 1.00905 17.5946 1.00905C18.3094 1.00905 18.877 1.53458 18.877 2.18626C18.877 2.45954 19.1082 2.69078 19.3815 2.69078C19.6548 2.69078 19.886 2.45954 19.886 2.18626C19.886 0.988019 18.8559 0 17.5946 0C16.3333 0 15.3033 0.988019 15.3033 2.18626ZM10.0268 7.56781V5.15032H15.3033V7.56781H10.0268Z" fill="#1499A2"/>
<path d="M15.6822 16.7328C14.547 16.7328 13.6221 17.5947 13.517 18.7088C13.517 18.7509 13.517 18.7719 13.517 18.814C13.517 19.4656 12.9914 19.9912 12.3397 19.9912C11.6881 19.9912 11.1625 19.4656 11.1625 18.814C11.1625 18.7299 11.1415 18.6668 11.0995 18.5827C10.9313 17.5316 10.0274 16.7328 8.93422 16.7328C7.79905 16.7328 6.87409 17.5947 6.76899 18.7088C6.76899 18.7509 6.76899 18.7719 6.76899 18.814C6.76899 19.4656 6.24345 19.9912 5.59177 19.9912C4.9401 19.9912 4.41456 19.4656 4.41456 18.814C4.41456 18.7299 4.39353 18.6668 4.35149 18.5827C4.18332 17.5316 3.27939 16.7328 2.18626 16.7328C1.53459 16.7328 0.966997 17.0061 0.567585 17.4475C0.210216 17.8259 0 18.3515 0 18.9191C0 19.1923 0.231241 19.4236 0.504523 19.4236C0.525544 19.4236 0.546564 19.4236 0.567585 19.4236C0.819846 19.4026 1.00904 19.1923 1.00904 18.9191C1.00904 18.2674 1.53459 17.7419 2.18626 17.7419C2.83793 17.7419 3.36347 18.2674 3.36347 18.9191C3.36347 19.0032 3.38449 19.0662 3.42654 19.1503C3.59471 20.2014 4.49865 21.0002 5.59177 21.0002C6.72694 21.0002 7.6519 20.1383 7.75701 19.0242C7.75701 18.9821 7.77803 18.9611 7.77803 18.9191C7.77803 18.2674 8.30357 17.7419 8.95524 17.7419C9.60691 17.7419 10.1325 18.2674 10.1325 18.9191C10.1325 19.0032 10.1535 19.0662 10.1955 19.1503C10.3637 20.2014 11.2676 21.0002 12.3608 21.0002C13.4959 21.0002 14.4209 20.1383 14.526 19.0242C14.526 18.9821 14.547 18.9611 14.547 18.9191C14.547 18.2674 15.0726 17.7419 15.7242 17.7419C16.3759 17.7419 16.9014 18.2674 16.9014 18.9191C16.9014 19.1923 17.1327 19.4236 17.406 19.4236C17.6792 19.4236 17.9105 19.1923 17.9105 18.9191C17.9105 18.3935 17.7213 17.91 17.406 17.5316C16.9645 17.0481 16.3549 16.7328 15.6822 16.7328Z" fill="#1499A2"/>
</svg>
