<svg width="20" height="18" viewBox="0 0 20 18" fill="none" xmlns="http://www.w3.org/2000/svg">
<path d="M1.30491 17.5476V16.6928C1.30491 16.123 2.58705 15.8381 3.86919 15.8381C5.15133 15.8381 6.43347 16.123 6.43347 16.6928V17.5476" stroke="#1499A2" stroke-width="0.9" stroke-linecap="round" stroke-linejoin="round"/>
<path d="M5.32925 11.2269C5.32925 10.2987 4.65047 9.50304 3.82086 9.50304C2.99124 9.50304 2.31247 10.2545 2.31247 11.2269V11.8015C2.31247 12.7298 2.99124 13.5254 3.82086 13.5254C4.65047 13.5254 5.32925 12.774 5.32925 11.8015V11.2269Z" stroke="#1499A2" stroke-width="0.9" stroke-linecap="round" stroke-linejoin="round"/>
<path d="M0.452517 5.71623V1.26249C0.452517 0.81711 0.837159 0.452713 1.30728 0.452713L7.2906 0.857599C7.76071 0.857599 8.14536 1.222 8.14536 1.66737V5.71623C8.14536 6.16161 7.76071 6.52601 7.2906 6.52601H5.1537L3.0168 8.14555V6.52601H1.30728C0.837159 6.52601 0.452517 6.16161 0.452517 5.71623Z" stroke="#1499A2" stroke-width="0.9" stroke-linecap="round" stroke-linejoin="round"/>
<path d="M19.256 5.58127V1.30747C19.256 0.837355 18.8713 0.452713 18.4012 0.452713L12.4179 1.30747C11.9478 1.30747 11.5631 1.69211 11.5631 2.16223V5.58127C11.5631 6.05139 11.9478 6.43603 12.4179 6.43603H14.5548L16.6917 8.14555V6.43603H18.4012C18.8713 6.43603 19.256 6.05139 19.256 5.58127Z" stroke="#1499A2" stroke-width="0.9" stroke-linecap="round" stroke-linejoin="round"/>
<path d="M13.2737 17.5476V16.6928C13.2737 16.123 14.5558 15.8381 15.8379 15.8381C17.1201 15.8381 18.4022 16.123 18.4022 16.6928V17.5476" stroke="#1499A2" stroke-width="0.9" stroke-linecap="round" stroke-linejoin="round"/>
<path d="M17.3964 11.2269C17.3964 10.2987 16.7176 9.50304 15.888 9.50304C15.0583 9.50304 14.3796 10.2545 14.3796 11.2269V11.8015C14.3796 12.7298 15.0583 13.5254 15.888 13.5254C16.7176 13.5254 17.3964 12.774 17.3964 11.8015V11.2269Z" stroke="#1499A2" stroke-width="0.9" stroke-linecap="round" stroke-linejoin="round"/>
<path d="M6.43697 14.1288C6.43697 13.5589 8.14649 13.274 9.85601 13.274C11.5655 13.274 13.275 13.5589 13.275 14.1288" stroke="#1499A2" stroke-width="0.9" stroke-linecap="round" stroke-linejoin="round"/>
<path d="M11.5667 9.6102C11.5667 8.82119 10.7974 8.1449 9.85717 8.1449C8.91694 8.1449 8.14765 8.78362 8.14765 9.6102V10.0986C8.14765 10.8876 8.91694 11.5639 9.85717 11.5639C10.7974 11.5639 11.5667 10.9252 11.5667 10.0986V9.6102Z" stroke="#1499A2" stroke-width="0.9" stroke-linecap="round" stroke-linejoin="round"/>
</svg>
