<svg width="63" height="78" viewBox="0 0 63 78" fill="none" xmlns="http://www.w3.org/2000/svg">
<circle cx="31.5" cy="31.5" r="31.5" fill="#F9F9F9"/>
<path d="M43.1053 19.5639C42.2392 19.1048 41.2604 18.8883 40.299 18.6891C38.9825 18.4119 37.666 18.1608 36.3235 18.0915C33.5866 17.9616 30.8669 18.6458 28.3205 19.6592C25.7741 20.6725 23.3836 22.0237 20.9498 23.2796C20.8198 23.3489 20.6813 23.4182 20.5427 23.3922C20.2482 23.3402 20.1616 22.9678 20.1356 22.6733C20.075 21.8851 20.0143 21.1056 19.9537 20.3174C19.9277 19.9883 19.9018 19.6418 20.049 19.3474C20.1876 19.0615 20.4647 18.871 20.7332 18.6891C24.3536 16.2986 28.6496 14.7829 32.9803 15.0254C36.2889 15.2073 39.4589 16.3939 42.4644 17.7883C43.0706 18.0742 43.6856 18.36 44.2313 18.7584C44.6643 19.0702 46.6218 20.8284 45.9895 21.3394C45.4092 21.8072 43.573 19.8151 43.1053 19.5639Z" stroke="#3B3B4A" stroke-miterlimit="10" stroke-linecap="round" stroke-linejoin="round"/>
<path d="M24.4727 28.9441C27.0797 30.5984 30.2237 31.4039 33.3071 31.2134C36.3906 31.0228 39.4047 29.8362 41.7865 27.8701" stroke="#3B3B4A" stroke-miterlimit="10" stroke-linecap="round" stroke-linejoin="round"/>
<path d="M7.08984 19.4863C7.76542 19.9281 8.25045 20.6036 8.69218 21.2792C9.95672 23.176 11.0307 25.1941 11.9055 27.2988C12.3819 28.4421 12.8063 29.6287 12.8669 30.8672C12.9102 31.7247 12.789 32.5822 12.6157 33.4223C11.8709 37.06 10.2685 40.4466 8.78745 43.8505C8.16384 45.2882 7.54889 46.9079 8.07723 48.3803C8.56226 49.7228 9.87011 50.5716 11.0913 51.3165C11.2559 51.4118 11.4291 51.5157 11.6197 51.4984C11.7583 51.481 11.8882 51.4031 12.0094 51.3251C12.8323 50.7881 13.6378 50.2078 14.5732 49.896C14.6165 49.862 15.5693 49.4722 16.522 49.7754L18.2109 50.1992C19.0078 50.4504 18.9211 50.5889 19.7353 50.7622C20.5495 50.9354 21.4675 50.8834 22.1258 50.3724C22.7841 49.8614 23.0352 48.7961 22.4809 48.1724" stroke="#3B3B4A" stroke-miterlimit="10" stroke-linecap="round" stroke-linejoin="round"/>
<path d="M8.40625 63.1038C10.1039 61.7873 11.559 60.1503 12.6676 58.3055C12.9707 57.8031 13.2825 57.2575 13.8195 57.0409C14.8502 56.6252 15.5431 57.6732 16.4959 57.6645C17.5785 57.6472 18.2628 56.9976 19.4407 57.3701C20.4194 57.6732 21.2682 58.2968 22.117 58.8771C24.9579 60.7913 28.128 62.2117 31.4452 63.0778C29.4531 63.5282 27.4351 63.7274 25.417 63.3983C22.732 62.9566 20.1336 61.8306 17.414 61.8652C14.3392 61.8912 11.481 63.329 8.40625 63.1038Z" stroke="#3B3B4A" stroke-miterlimit="10" stroke-linecap="round" stroke-linejoin="round"/>
<path d="M29.2632 63.5889C25.5215 66.6116 20.1862 67.5297 15.6477 65.9274C13.9328 65.3211 12.3564 64.3944 10.6328 63.8141" stroke="#3B3B4A" stroke-miterlimit="10" stroke-linecap="round" stroke-linejoin="round"/>
<path d="M41.1289 28.3115C41.9864 29.091 42.8005 29.9225 43.5627 30.7973" stroke="#3B3B4A" stroke-miterlimit="10" stroke-linecap="round" stroke-linejoin="round"/>
<path d="M39.4141 29.4893C40.0723 30.6932 40.8172 31.8538 41.64 32.9538" stroke="#3B3B4A" stroke-miterlimit="10" stroke-linecap="round" stroke-linejoin="round"/>
<path d="M37.4297 30.3301C37.8454 31.4907 38.3305 32.6253 38.8761 33.7253" stroke="#3B3B4A" stroke-miterlimit="10" stroke-linecap="round" stroke-linejoin="round"/>
<path d="M34.9453 31.006C34.928 30.98 34.9713 30.9453 35.006 30.9627C35.032 30.98 35.0493 31.0146 35.0493 31.0493C35.2918 32.1839 35.5083 33.3272 35.6989 34.4705" stroke="#3B3B4A" stroke-miterlimit="10" stroke-linecap="round" stroke-linejoin="round"/>
<path d="M32.1844 31.1875C32.1844 32.5646 32.1758 33.9331 32.1758 35.3103" stroke="#3B3B4A" stroke-miterlimit="10" stroke-linecap="round" stroke-linejoin="round"/>
<path d="M29.9044 31.0664C29.8524 32.227 29.7052 33.379 29.4453 34.5136" stroke="#3B3B4A" stroke-miterlimit="10" stroke-linecap="round" stroke-linejoin="round"/>
<path d="M27.9396 30.4424C27.9916 30.6589 27.8357 30.8581 27.6971 31.0313C27.0302 31.8628 26.4499 32.7636 25.9648 33.7077" stroke="#3B3B4A" stroke-miterlimit="10" stroke-linecap="round" stroke-linejoin="round"/>
<path d="M25.7289 29.6807C25.2005 30.3562 24.6289 31.0058 24.0312 31.6208" stroke="#3B3B4A" stroke-miterlimit="10" stroke-linecap="round" stroke-linejoin="round"/>
<path d="M6 65.7803C8.09603 67.9716 10.2873 70.0676 12.5566 72.077C14.1416 73.4801 15.7959 74.8573 17.71 75.7667C20.2564 76.9793 23.2186 77.3171 25.9729 76.6935" stroke="#3B3B4A" stroke-miterlimit="10" stroke-linecap="round" stroke-linejoin="round"/>
<path d="M39.4159 60.4881C45.4144 60.4881 50.2771 55.6253 50.2771 49.6269C50.2771 43.6284 45.4144 38.7656 39.4159 38.7656C33.4174 38.7656 28.5547 43.6284 28.5547 49.6269C28.5547 55.6253 33.4174 60.4881 39.4159 60.4881Z" fill="#66C1BD"/>
</svg>
