<svg width="24" height="22" viewBox="0 0 24 22" fill="none" xmlns="http://www.w3.org/2000/svg">
<g clip-path="url(#clip0_943_3800)">
<path d="M21.1169 9.06104C20.877 9.06104 20.6468 9.10087 20.4328 9.17344V8.41113C20.4328 3.77322 16.461 0 11.5789 0C6.69693 0 2.72512 3.77322 2.72512 8.41113V9.17344C2.51114 9.10087 2.28092 9.06104 2.04102 9.06104C0.915596 9.06104 0 9.93085 0 11V12.2944C0 13.3636 0.915596 14.2334 2.04102 14.2334C2.28752 14.2334 2.52398 14.1916 2.74299 14.1152C3.02998 18.5088 6.88305 22 11.5789 22C16.2748 22 20.1279 18.5088 20.4149 14.1152C20.6339 14.1916 20.8703 14.2334 21.1169 14.2334C22.2423 14.2334 23.1579 13.3636 23.1579 12.2944V11C23.1579 9.93085 22.2423 9.06104 21.1169 9.06104ZM11.5789 1.28906C15.0975 1.28906 18.0572 3.604 18.8604 6.71473C18.206 6.64817 17.2771 6.52807 16.3097 6.31907C14.1056 5.84298 12.641 5.10443 12.1858 4.23955C12.0709 4.02119 11.8359 3.88326 11.5789 3.88326C11.3219 3.88326 11.087 4.02119 10.9721 4.23955C10.5169 5.10443 9.05238 5.84293 6.84818 6.31907C5.88075 6.52803 4.95181 6.64817 4.29751 6.71468C5.10071 3.604 8.06035 1.28906 11.5789 1.28906ZM2.04102 12.9443C1.6638 12.9443 1.35691 12.6528 1.35691 12.2944V11C1.35691 10.6416 1.6638 10.3501 2.04102 10.3501C2.41824 10.3501 2.72512 10.6416 2.72512 11V12.2944C2.72512 12.6528 2.41824 12.9443 2.04102 12.9443ZM19.0759 13.5889C19.0759 17.516 15.7128 20.7109 11.5789 20.7109C7.44513 20.7109 4.08203 17.516 4.08203 13.5889V8.41113C4.08203 8.28339 4.08579 8.15646 4.0928 8.03039C4.77577 7.97062 5.91245 7.84201 7.1301 7.5802C9.2153 7.13187 10.7056 6.47337 11.5789 5.61696C12.4523 6.47341 13.9426 7.13191 16.0278 7.5802C17.2454 7.84201 18.3821 7.97062 19.0651 8.03039C19.0722 8.1565 19.0759 8.28343 19.0759 8.41113V13.5889ZM21.801 12.2944C21.801 12.6528 21.4941 12.9443 21.1169 12.9443C20.7397 12.9443 20.4328 12.6528 20.4328 12.2944V11C20.4328 10.6416 20.7397 10.3501 21.1169 10.3501C21.4941 10.3501 21.801 10.6416 21.801 11V12.2944Z" fill="#1499A2"/>
<path d="M8.74976 8.47852C8.3938 8.47852 8.10522 8.76709 8.10522 9.12305V10.1494C8.10522 10.5054 8.3938 10.7939 8.74976 10.7939C9.10571 10.7939 9.39429 10.5054 9.39429 10.1494V9.12305C9.39429 8.76709 9.10571 8.47852 8.74976 8.47852Z" fill="#1499A2"/>
<path d="M13.9277 8.47852C13.5718 8.47852 13.2832 8.76709 13.2832 9.12305V10.1494C13.2832 10.5054 13.5718 10.7939 13.9277 10.7939C14.2837 10.7939 14.5723 10.5054 14.5723 10.1494V9.12305C14.5723 8.76709 14.2837 8.47852 13.9277 8.47852Z" fill="#1499A2"/>
<path d="M11.5794 13.1364C11.3967 13.1364 11.2249 13.0652 11.0957 12.936C10.8308 12.6711 10.4012 12.6711 10.1362 12.936C9.87126 13.201 9.87126 13.6305 10.1362 13.8955C10.5217 14.281 11.0342 14.4933 11.5794 14.4933C12.1246 14.4933 12.6372 14.281 13.0226 13.8955C13.2876 13.6305 13.2876 13.201 13.0226 12.936C12.7577 12.6711 12.3281 12.6711 12.0632 12.936C11.9339 13.0652 11.7622 13.1364 11.5794 13.1364Z" fill="#1499A2"/>
<path d="M11.3401 17.5033C11.4983 17.5947 11.6115 17.7422 11.6588 17.9187C11.7558 18.2806 12.1278 18.4954 12.4898 18.3985C12.8517 18.3015 13.0665 17.9295 12.9695 17.5675C12.8284 17.041 12.4907 16.6008 12.0185 16.3282C11.5464 16.0556 10.9964 15.9832 10.4698 16.1243C10.1079 16.2213 9.89307 16.5933 9.99006 16.9553C10.087 17.3172 10.459 17.532 10.821 17.435C10.9975 17.3877 11.1818 17.412 11.3401 17.5033Z" fill="#1499A2"/>
</g>
<defs>
<clipPath id="clip0_943_3800">
<rect width="23.1579" height="22" fill="white"/>
</clipPath>
</defs>
</svg>
