<svg width="20" height="21" viewBox="0 0 20 21" fill="none" xmlns="http://www.w3.org/2000/svg">
<g clip-path="url(#clip0_923_11334)">
<path d="M1.75751 13.5864C1.96987 13.5864 2.17357 13.5466 2.36224 13.4736C2.60947 17.6675 5.92881 21 9.97422 21C14.0196 21 17.339 17.6675 17.5862 13.4736C17.7748 13.5466 17.9785 13.5864 18.1909 13.5864C19.1605 13.5864 19.9492 12.7561 19.9492 11.7356L19.9492 10.5C19.9492 9.47945 19.1605 8.64917 18.1909 8.64917C17.9843 8.64917 17.7859 8.68719 17.6016 8.75647L17.6016 5.69604C17.6016 2.55523 15.1741 -4.17453e-07 12.1903 -6.78302e-07L7.75809 -1.06578e-06C4.77432 -1.32663e-06 2.34685 2.55523 2.34685 5.69604L2.34685 8.75647C2.16251 8.68723 1.96418 8.64917 1.75751 8.64917C0.787984 8.64917 -0.000781006 9.47945 -0.000781095 10.5L-0.000781203 11.7356C-0.000781292 12.7561 0.787984 13.5864 1.75751 13.5864ZM17.6016 10.5C17.6016 10.1579 17.866 9.87964 18.1909 9.87964C18.5159 9.87964 18.7803 10.1579 18.7803 10.5L18.7803 11.7356C18.7803 12.0777 18.5159 12.356 18.1909 12.356C17.866 12.356 17.6016 12.0777 17.6016 11.7356L17.6016 10.5ZM7.75809 1.23047L12.1903 1.23047C14.3313 1.23047 16.1065 2.90862 16.3922 5.08081L3.55624 5.08081C3.84189 2.90862 5.61717 1.23047 7.75809 1.23047ZM3.5158 6.31128L16.4326 6.31128L16.4326 12.9712C16.4326 16.7198 13.5354 19.7695 9.97422 19.7695C6.41303 19.7695 3.5158 16.7198 3.5158 12.9712L3.5158 6.31128ZM1.16816 10.5C1.16816 10.1579 1.43254 9.87964 1.75751 9.87964C2.08247 9.87964 2.34685 10.1579 2.34685 10.5L2.34685 11.7356C2.34685 12.0777 2.08247 12.356 1.75751 12.356C1.43254 12.356 1.16816 12.0777 1.16816 11.7356L1.16816 10.5Z" fill="#1499A2"/>
<path d="M6.45266 11.1152C6.77545 11.1152 7.03713 10.8398 7.03713 10.5C7.03713 10.1579 7.30151 9.87964 7.62648 9.87964C7.95144 9.87964 8.21582 10.1579 8.21582 10.5C8.21582 10.8398 8.47751 11.1152 8.80029 11.1152C9.12308 11.1152 9.38477 10.8398 9.38477 10.5C9.38477 9.47945 8.596 8.64917 7.62648 8.64917C6.65695 8.64917 5.86819 9.47945 5.86819 10.5C5.86819 10.8398 6.12988 11.1152 6.45266 11.1152Z" fill="#1499A2"/>
<path d="M8.73093 12.3554C8.50267 12.5957 8.50267 12.9852 8.73093 13.2255C9.06299 13.5751 9.50454 13.7676 9.97422 13.7676C10.4439 13.7676 10.8854 13.5751 11.2175 13.2255C11.4457 12.9852 11.4457 12.5957 11.2175 12.3554C11.1034 12.2353 10.9538 12.1752 10.8042 12.1752C10.6547 12.1752 10.5051 12.2353 10.3909 12.3555C10.2797 12.4726 10.1317 12.5371 9.97426 12.5371C9.81684 12.5371 9.66885 12.4726 9.55753 12.3555C9.32923 12.1151 8.95915 12.1151 8.73093 12.3554Z" fill="#1499A2"/>
<path d="M11.148 11.1152C11.4708 11.1152 11.7324 10.8398 11.7324 10.5C11.7324 10.1579 11.9968 9.87964 12.3218 9.87964C12.6468 9.87964 12.9111 10.1579 12.9111 10.5C12.9111 10.8398 13.1728 11.1152 13.4956 11.1152C13.8184 11.1152 14.0801 10.8398 14.0801 10.5C14.0801 9.47945 13.2913 8.64917 12.3218 8.64917C11.3523 8.64917 10.5635 9.47945 10.5635 10.5C10.5635 10.8398 10.8252 11.1152 11.148 11.1152Z" fill="#1499A2"/>
<path d="M11.221 15.8807C10.5335 16.6043 9.4149 16.6043 8.72748 15.8807C8.61335 15.7606 8.46377 15.7005 8.31422 15.7005C8.16467 15.7005 8.01505 15.7606 7.90096 15.8807C7.6727 16.121 7.6727 16.5105 7.90096 16.7508C9.04419 17.9542 10.9044 17.9542 12.0476 16.7508C12.2758 16.5105 12.2758 16.121 12.0476 15.8807C11.8193 15.6404 11.4492 15.6404 11.221 15.8807Z" fill="#1499A2"/>
</g>
<defs>
<clipPath id="clip0_923_11334">
<rect width="19.95" height="21" fill="white"/>
</clipPath>
</defs>
</svg>
