<svg width="16" height="21" viewBox="0 0 16 21" fill="none" xmlns="http://www.w3.org/2000/svg">
<path d="M13.1132 19.7976C12.9414 19.7976 12.8268 19.683 12.7696 19.5685L11.9106 16.9346C11.5671 15.8467 10.5364 15.1023 9.39113 15.1023H7.84504C5.66907 15.1023 3.89392 13.3273 3.89392 11.1514V4.50942C3.89392 2.21906 5.49729 0.329507 7.67326 0.0432125C8.87576 -0.128564 10.0783 0.214996 10.9945 1.01662C11.9107 1.76099 12.4833 2.90616 12.5406 4.1086L13.4567 19.454C13.4567 19.6258 13.3422 19.7976 13.1704 19.7976C13.1704 19.7403 13.1704 19.7976 13.1132 19.7976ZM8.24588 0.673065C8.07409 0.673065 7.95954 0.673068 7.78775 0.730327C6.01262 0.959363 4.63832 2.56262 4.63832 4.50942V11.1514C4.63832 12.9265 6.0699 14.358 7.84504 14.358H9.39113C10.8799 14.358 12.1397 15.2741 12.5978 16.7056V16.7628L11.8534 4.16587C11.7961 3.19246 11.338 2.21906 10.5364 1.58921C9.90649 0.959363 9.10481 0.673065 8.24588 0.673065Z" fill="#1499A2"/>
<path d="M4.23752 6.97151H2.11881C2.00429 6.97151 1.83248 6.91425 1.77522 6.74248C1.71795 6.62796 1.71797 6.45618 1.8325 6.34166L3.95121 3.93679C4.06574 3.82227 4.18023 3.76501 4.35202 3.82227C4.46654 3.87953 4.58108 3.99405 4.58108 4.16582V6.57069C4.63835 6.79973 4.46657 6.97151 4.23752 6.97151ZM2.92046 6.22715H3.89393V5.13922L2.92046 6.22715Z" fill="#1499A2"/>
<path d="M7.3293 4.28013C6.64215 4.28013 6.06952 3.70755 6.06952 3.02045C6.06952 2.33334 6.64215 1.76074 7.3293 1.76074C8.01645 1.76074 8.58908 2.33334 8.58908 3.02045C8.58908 3.70755 8.01645 4.28013 7.3293 4.28013ZM7.3293 2.56236C7.04299 2.56236 6.81396 2.79141 6.81396 3.07771C6.81396 3.364 7.04299 3.59304 7.3293 3.59304C7.61561 3.59304 7.84467 3.364 7.84467 3.07771C7.84467 2.79141 7.61561 2.56236 7.3293 2.56236Z" fill="#1499A2"/>
<path d="M12.7123 13.041C10.021 13.041 7.84503 10.8651 7.84503 8.17396V6.74248C7.84503 6.57071 8.0168 6.39893 8.18859 6.39893C8.36038 6.39893 8.53219 6.57071 8.53219 6.74248V8.17396C8.53219 10.4643 10.4218 12.3539 12.7123 12.3539C12.8841 12.3539 13.0559 12.5256 13.0559 12.6974C13.1132 12.9264 12.9414 13.041 12.7123 13.041Z" fill="#1499A2"/>
<path d="M9.44859 20.9998H6.75726C6.58547 20.9998 6.4137 20.8281 6.4137 20.6563V14.5296C6.4137 14.4151 6.47095 14.3006 6.58548 14.2433C6.7 14.186 6.81451 14.186 6.92904 14.186C7.27261 14.3006 7.61621 14.3578 7.95979 14.3578H8.64691C8.81869 14.3578 8.9905 14.4723 8.9905 14.6441L9.90668 20.599C9.90668 20.7135 9.9067 20.8281 9.84944 20.8853C9.79217 20.9426 9.56312 20.9998 9.44859 20.9998ZM7.10085 20.2555H9.04775L8.2461 15.0449H7.84525C7.61621 15.0449 7.3299 15.0449 7.10085 14.9877V20.2555Z" fill="#1499A2"/>
<path d="M14.8882 21.0001H0.34356C0.171773 21.0001 0 20.8283 0 20.6565C0 20.4848 0.171773 20.313 0.34356 20.313H14.8882C15.06 20.313 15.2318 20.4848 15.2318 20.6565C15.2318 20.8283 15.06 21.0001 14.8882 21.0001Z" fill="#1499A2"/>
</svg>
