<svg width="30" height="16" viewBox="0 0 30 16" fill="none" xmlns="http://www.w3.org/2000/svg">
<path d="M8.6363 12.8121H18.5443H20.9359" stroke="#1499A2" stroke-width="0.9" stroke-miterlimit="10" stroke-linecap="round" stroke-linejoin="round"/>
<path d="M5.90778 15.5471C7.41715 15.5471 8.64072 14.3235 8.64072 12.8142C8.64072 11.3048 7.41715 10.0812 5.90778 10.0812C4.39842 10.0812 3.17484 11.3048 3.17484 12.8142C3.17484 14.3235 4.39842 15.5471 5.90778 15.5471Z" stroke="#1499A2" stroke-width="0.9" stroke-miterlimit="10" stroke-linecap="round" stroke-linejoin="round"/>
<path d="M24.3564 15.5471C25.8658 15.5471 27.0894 14.3235 27.0894 12.8142C27.0894 11.3048 25.8658 10.0812 24.3564 10.0812C22.8471 10.0812 21.6235 11.3048 21.6235 12.8142C21.6235 14.3235 22.8471 15.5471 24.3564 15.5471Z" stroke="#1499A2" stroke-width="0.9" stroke-miterlimit="10" stroke-linecap="round" stroke-linejoin="round"/>
<path d="M2.50268 5.98732H20.2707" stroke="#1499A2" stroke-width="0.9" stroke-miterlimit="10" stroke-linecap="round" stroke-linejoin="round"/>
<path d="M27.1026 12.8211L29.1526 12.1377V8.44775C29.1526 7.83275 28.6743 7.28609 28.0593 7.08109L23.7543 6.12443C23.276 5.98776 22.7977 5.78276 22.3877 5.37276L18.0827 1.06777C17.6727 0.657772 17.1944 0.452777 16.6477 0.452777H4.00609C3.45943 0.452777 2.98109 0.726113 2.77609 1.20444L0.589441 5.64609C0.521108 5.85109 0.452777 6.05608 0.452777 6.26108V11.0444C0.452777 11.6594 0.862775 12.2061 1.47777 12.3427L3.1861 12.7527" stroke="#1499A2" stroke-width="0.9" stroke-miterlimit="10" stroke-linecap="round" stroke-linejoin="round"/>
<path d="M10.0181 10.7691H20.2678" stroke="#1499A2" stroke-width="0.9" stroke-miterlimit="10" stroke-linecap="round" stroke-linejoin="round"/>
<path d="M13.4379 1.88555V5.30172" stroke="#1499A2" stroke-width="0.9" stroke-miterlimit="10" stroke-linecap="round" stroke-linejoin="round"/>
<path d="M6.6004 1.88555V5.30172" stroke="#1499A2" stroke-width="0.9" stroke-miterlimit="10" stroke-linecap="round" stroke-linejoin="round"/>
</svg>
