<svg width="18" height="17" viewBox="0 0 18 17" fill="none" xmlns="http://www.w3.org/2000/svg">
<path d="M16.5167 11.6836H11.7046V16.4957C11.7046 16.7689 11.4734 17 11.2002 17H5.82075C5.54757 17 5.31642 16.7689 5.31642 16.4957V11.6836H0.504309C0.231133 11.6836 -1.71661e-05 11.4524 -1.71661e-05 11.1792V5.79975C-1.71661e-05 5.52658 0.231133 5.29543 0.504309 5.29543H5.31642V0.504326C5.31642 0.231149 5.54757 0 5.82075 0H11.2002C11.4734 0 11.7046 0.231149 11.7046 0.504326V5.31644H16.5167C16.7898 5.31644 17.021 5.54759 17.021 5.82077V11.2002C17 11.4734 16.7898 11.6836 16.5167 11.6836ZM16.0123 6.30408H11.2002C10.9271 6.30408 10.6959 6.07293 10.6959 5.79975V0.987639H6.32508V5.79975C6.32508 6.07293 6.09393 6.30408 5.82075 6.30408H1.00863V10.6959H5.82075C6.09393 10.6959 6.32508 10.9271 6.32508 11.2002V16.0124H10.6959V11.1792C10.6959 10.9061 10.9271 10.6749 11.2002 10.6749H16.0123V6.30408Z" fill="#1499A2"/>
</svg>
