<svg width="166" height="38" viewBox="0 0 166 38" fill="none" xmlns="http://www.w3.org/2000/svg">
<path d="M14.9935 0.404869C16.2721 0.404869 17.5893 0.616945 18.9453 1.0411C20.3013 1.46525 21.5411 2.08219 22.6647 2.89193C23.8269 3.70167 24.7568 4.72349 25.4542 5.95738C26.1515 7.15271 26.5002 8.56012 26.5002 10.1796C26.5002 11.5292 26.1128 12.8402 25.3379 14.1126C24.6018 15.3851 23.6332 16.5033 22.4322 17.4673C21.2699 18.4313 20.0495 19.1253 18.771 19.5495C19.7783 21.2075 20.7469 22.7306 21.6767 24.1187C22.6065 25.5068 23.5751 26.895 24.5824 28.2831C25.5898 29.6327 26.7133 31.1365 27.9531 32.7945C28.7667 33.8742 29.6384 34.6839 30.5682 35.2237C31.5368 35.7636 32.796 36.0913 34.3457 36.207C34.5006 36.3612 34.5394 36.6504 34.4619 37.0746C34.3844 37.4987 34.3263 37.7494 34.2876 37.8265C32.3891 37.8265 30.8007 37.7686 29.5222 37.653C28.2824 37.4987 27.3719 37.3252 26.7908 37.1324C26.4034 36.9782 25.861 36.7468 25.1636 36.4384C24.4662 36.0913 23.7882 35.4937 23.1296 34.6454C22.8971 34.3369 22.4709 33.7392 21.8511 32.8524C21.2312 31.9655 20.495 30.8858 19.6427 29.6134C18.7904 28.3409 17.8799 26.9914 16.9113 25.5647C15.9427 24.0994 15.0129 22.6728 14.1218 21.2846C13.8119 20.8219 13.2307 20.5906 12.3784 20.5906H9.41455V31.1172C9.41455 31.2329 9.41455 31.3486 9.41455 31.4642C9.41455 31.5799 9.41455 31.6956 9.41455 31.8113C9.41455 32.5439 9.41455 33.2187 9.41455 33.8356C9.45329 34.414 9.53078 34.896 9.64701 35.2816C9.72449 35.4744 10.0344 35.6479 10.5768 35.8021C11.1192 35.9564 11.7004 36.072 12.3203 36.1492C12.9402 36.1877 13.3663 36.207 13.5988 36.207C13.715 36.3612 13.7731 36.6311 13.7731 37.0167C13.8119 37.4023 13.7538 37.6722 13.5988 37.8265C12.4365 37.7494 11.313 37.6915 10.2282 37.653C9.18209 37.5758 8.09729 37.5373 6.97374 37.5373C5.88894 37.5373 4.78476 37.5758 3.66121 37.653C2.53767 37.6915 1.39475 37.7494 0.232458 37.8265C0.077486 37.6722 0 37.4023 0 37.0167C0.0387429 36.6311 0.116229 36.3612 0.232458 36.207C0.464916 36.207 0.891089 36.1877 1.51098 36.1492C2.13087 36.072 2.71201 35.9564 3.25441 35.8021C3.83556 35.6479 4.1455 35.4744 4.18424 35.2816C4.33922 34.8189 4.4167 34.2212 4.4167 33.4886C4.45545 32.756 4.47482 31.9655 4.47482 31.1172L4.4167 6.99848C4.4167 6.15018 4.39733 5.35971 4.35859 4.62709C4.35859 3.85591 4.2811 3.23896 4.12613 2.77625C4.08739 2.5449 3.77744 2.37138 3.1963 2.25571C2.6539 2.14003 2.07275 2.06291 1.45286 2.02435C0.871718 1.94723 0.464916 1.90868 0.232458 1.90868C0.116229 1.75444 0.0387429 1.48452 0 1.09893C0 0.713343 0.077486 0.44343 0.232458 0.289193C1.39475 0.327752 2.5183 0.385591 3.6031 0.46271C4.72665 0.501269 5.83082 0.520548 6.91563 0.520548C8.03917 0.520548 9.24021 0.501269 10.5187 0.46271C11.836 0.424149 13.3276 0.404869 14.9935 0.404869ZM21.2118 10.7002C21.2118 8.23237 20.5338 6.20801 19.1778 4.62709C17.8605 3.04617 15.6328 2.25571 12.4946 2.25571C12.1459 2.25571 11.6035 2.27499 10.8674 2.31355C10.17 2.35211 9.76324 2.50634 9.64701 2.77625C9.49204 3.12329 9.39518 3.72095 9.35643 4.56925C9.35643 5.379 9.35643 6.20802 9.35643 7.05631L9.41455 18.8554H12.4365C13.9087 18.8554 15.3035 18.5276 16.6207 17.8721C17.9768 17.1781 19.0809 16.2334 19.9333 15.038C20.7856 13.8042 21.2118 12.3582 21.2118 10.7002Z" fill="white"/>
<path d="M44.5416 0.520548C45.6651 0.520548 46.7499 0.501269 47.796 0.46271C48.8808 0.385591 50.0043 0.327752 51.1666 0.289193C51.3216 0.44343 51.3797 0.713343 51.341 1.09893C51.341 1.48452 51.2829 1.75444 51.1666 1.90868C50.9342 1.90868 50.508 1.94723 49.8881 2.02435C49.2682 2.06291 48.6871 2.14003 48.1447 2.25571C47.6023 2.37138 47.2923 2.5449 47.2149 2.77625C47.0986 3.16184 47.0211 3.66311 46.9824 4.28006C46.9824 4.89701 46.9824 5.57179 46.9824 6.30441C46.9824 6.42009 46.9824 6.53577 46.9824 6.65145C46.9824 6.76712 46.9824 6.8828 46.9824 6.99848V31.1172C46.9824 31.2329 46.9824 31.3486 46.9824 31.4642C46.9824 31.5799 46.9824 31.6956 46.9824 31.8113C46.9824 32.5439 46.9824 33.2187 46.9824 33.8356C47.0211 34.414 47.0986 34.896 47.2149 35.2816C47.2923 35.4744 47.6023 35.6479 48.1447 35.8021C48.6871 35.9564 49.2682 36.072 49.8881 36.1492C50.508 36.1877 50.9342 36.207 51.1666 36.207C51.2829 36.3612 51.341 36.6311 51.341 37.0167C51.3797 37.4023 51.3216 37.6722 51.1666 37.8265C50.0043 37.7494 48.8808 37.6915 47.796 37.653C46.7499 37.5758 45.6651 37.5373 44.5416 37.5373C43.4568 37.5373 42.3526 37.5758 41.2291 37.653C40.1055 37.6915 38.9626 37.7494 37.8003 37.8265C37.6453 37.6722 37.5678 37.4023 37.5678 37.0167C37.6066 36.6311 37.6841 36.3612 37.8003 36.207C38.0328 36.207 38.4589 36.1877 39.0788 36.1492C39.6987 36.072 40.2799 35.9564 40.8223 35.8021C41.4034 35.6479 41.7133 35.4744 41.7521 35.2816C41.9071 34.8189 41.9846 34.2212 41.9846 33.4886C42.0233 32.756 42.0427 31.9655 42.0427 31.1172V6.99848C42.0427 6.15018 42.0233 5.35971 41.9846 4.62709C41.9846 3.85591 41.9071 3.23896 41.7521 2.77625C41.7133 2.5449 41.4034 2.37138 40.8223 2.25571C40.2799 2.14003 39.6987 2.06291 39.0788 2.02435C38.4589 1.94723 38.0328 1.90868 37.8003 1.90868C37.6841 1.75444 37.6066 1.48452 37.5678 1.09893C37.5678 0.713343 37.6453 0.44343 37.8003 0.289193C38.9626 0.327752 40.1055 0.385591 41.2291 0.46271C42.3526 0.501269 43.4568 0.520548 44.5416 0.520548Z" fill="white"/>
<path d="M85.7806 27.7626C85.7806 27.6469 85.7806 27.5312 85.7806 27.4155C85.7806 27.2998 85.7806 27.1842 85.7806 27.0685C85.7806 26.3359 85.7613 25.6804 85.7225 25.102C85.7225 24.485 85.6644 23.9838 85.5482 23.5982C85.5094 23.3668 85.1995 23.1933 84.6183 23.0776C84.076 22.9234 83.4948 22.827 82.8749 22.7884C82.2938 22.7113 81.887 22.6728 81.6545 22.6728C81.5383 22.5185 81.4608 22.2486 81.4221 21.863C81.4221 21.4774 81.4995 21.2075 81.6545 21.0533C82.8168 21.0918 83.9403 21.1497 85.0251 21.2268C86.11 21.3039 87.1948 21.3425 88.2796 21.3425C89.4031 21.3425 90.4492 21.3039 91.4177 21.2268C92.4251 21.1497 93.5099 21.0918 94.6722 21.0533C94.8271 21.2075 94.8852 21.4774 94.8465 21.863C94.8465 22.2486 94.7884 22.5185 94.6722 22.6728C94.4397 22.6728 94.0329 22.7113 93.4518 22.7884C92.8706 22.827 92.3282 22.9234 91.8246 23.0776C91.3209 23.1933 91.0303 23.3668 90.9528 23.5982C90.7979 24.0609 90.701 24.6585 90.6623 25.3912C90.6623 26.1238 90.6623 26.9143 90.6623 27.7626V31.7534C90.6623 32.3704 90.7591 32.8331 90.9528 33.1416C91.1465 33.45 91.2434 33.7585 91.2434 34.067C91.2434 34.2212 91.1853 34.3562 91.0691 34.4718C90.9528 34.5875 90.6429 34.7803 90.1392 35.0502C89.3256 35.4744 88.3764 35.9178 87.2916 36.3805C86.2456 36.8432 84.9089 37.2288 83.2817 37.5373C81.6933 37.8458 79.6399 38 77.1216 38C74.3321 38 71.775 37.518 69.4505 36.554C67.1259 35.5515 65.1113 34.2019 63.4066 32.5053C61.7406 30.7702 60.4427 28.8037 59.5129 26.6058C58.6218 24.3694 58.1763 21.998 58.1763 19.4916C58.1763 16.831 58.6412 14.344 59.571 12.0304C60.5396 9.67834 61.8762 7.59614 63.5809 5.78387C65.2856 3.97159 67.3002 2.56418 69.6248 1.56164C71.9881 0.520548 74.5645 0 77.354 0C79.2137 0 81.1509 0.0771184 83.1655 0.231355C85.2189 0.385592 87.2916 0.694064 89.3837 1.15677C89.3837 1.15677 89.4419 1.56164 89.5581 2.37139C89.7131 3.14257 89.868 4.06798 90.023 5.14764C90.178 6.18874 90.3136 7.15271 90.4298 8.03957C90.5848 8.88787 90.6623 9.38914 90.6623 9.54338C90.701 9.69761 90.5848 9.85185 90.3136 10.0061C90.0424 10.1603 89.7518 10.2374 89.4418 10.2374C89.1706 10.2374 88.9382 10.1796 88.7445 10.0639C88.667 9.63978 88.4733 8.98427 88.1633 8.09741C87.8921 7.21055 87.3691 6.28513 86.5942 5.32116C85.8581 4.35718 84.7733 3.54744 83.3398 2.89193C81.9063 2.19787 80.0079 1.85084 77.6446 1.85084C75.5525 1.85084 73.6541 2.33283 71.9494 3.2968C70.2447 4.22222 68.7725 5.49467 67.5327 7.11416C66.3316 8.69508 65.4018 10.4688 64.7432 12.4353C64.1233 14.3633 63.8134 16.3105 63.8134 18.277C63.8134 20.4749 64.1039 22.6342 64.6851 24.7549C65.305 26.8757 66.2154 28.8036 67.4165 30.5388C68.6562 32.2354 70.1866 33.6043 72.0075 34.6454C73.8672 35.6479 76.0368 36.1492 78.5163 36.1492C79.9886 36.1492 81.2865 35.9564 82.41 35.5708C83.5723 35.1466 84.5796 34.7225 85.432 34.2983C85.6257 34.2212 85.7225 34.1248 85.7225 34.0091C85.7613 33.8549 85.7806 33.6814 85.7806 33.4886V27.7626Z" fill="white"/>
<path d="M107.93 0.520548C110.603 0.520548 113.547 0.462709 116.763 0.347031C119.979 0.231355 123.117 0.173517 126.177 0.173517C126.371 1.6002 126.623 2.91121 126.933 4.10654C127.243 5.30188 127.533 6.53577 127.805 7.80822C127.611 8.00101 127.282 8.09741 126.817 8.09741C126.313 8.09741 126.042 7.96245 126.003 7.69254C125.383 5.41755 124.512 3.97159 123.388 3.35464C122.264 2.7377 120.947 2.42922 119.436 2.42922H114.555C114.322 2.42922 113.896 2.4485 113.276 2.48706C112.656 2.48706 112.075 2.52562 111.533 2.60274C110.99 2.67986 110.68 2.81481 110.603 3.00761C110.487 3.3932 110.409 3.89447 110.37 4.51142C110.37 5.12836 110.37 5.76459 110.37 6.42009C110.37 6.69 110.37 6.90208 110.37 7.05631V17.583C110.37 17.7372 110.622 17.8336 111.126 17.8721C111.629 17.9107 112.191 17.93 112.811 17.93H115.775C117.131 17.93 118.177 17.8914 118.913 17.8143C119.688 17.7372 120.25 17.5637 120.598 17.2938C120.947 17.0238 121.218 16.619 121.412 16.0791C121.606 15.5393 121.819 14.8067 122.051 13.8813C122.09 13.6114 122.361 13.4764 122.865 13.4764C123.33 13.4764 123.659 13.5728 123.853 13.7656V24.4079C123.698 24.5621 123.388 24.6393 122.923 24.6393C122.458 24.6393 122.168 24.5043 122.051 24.2344C121.78 23.1547 121.548 22.3836 121.354 21.9209C121.199 21.4196 121.044 21.0918 120.889 20.9376C120.773 20.7448 120.618 20.5906 120.424 20.4749C120.23 20.3206 119.785 20.2242 119.088 20.1857C118.39 20.1086 117.615 20.07 116.763 20.07C115.949 20.0315 115.174 20.0122 114.438 20.0122C113.935 20.0122 113.354 20.0315 112.695 20.07C112.075 20.07 111.533 20.1086 111.068 20.1857C110.603 20.2242 110.37 20.3399 110.37 20.5327V31.2907C110.37 31.3678 110.37 31.4835 110.37 31.6377C110.37 32.1776 110.37 32.8716 110.37 33.7199C110.409 34.5682 110.506 35.0502 110.661 35.1659C111.048 35.4358 111.513 35.6093 112.056 35.6864C112.637 35.725 113.528 35.7443 114.729 35.7443H117.46C118.816 35.7443 120.153 35.6093 121.47 35.3394C122.787 35.0695 123.834 34.6839 124.608 34.1826C125.499 33.6428 126.197 32.8716 126.701 31.8691C127.204 30.828 127.688 29.7098 128.153 28.5145C128.231 28.2831 128.502 28.1674 128.967 28.1674C129.664 28.1674 130.129 28.2831 130.362 28.5145C129.819 30.0568 129.219 31.6956 128.56 33.4307C127.94 35.1659 127.533 36.6504 127.34 37.8843C124.279 37.8843 121.238 37.8458 118.216 37.7686C115.194 37.6915 111.784 37.653 107.988 37.653C106.67 37.653 105.489 37.6722 104.443 37.7108C103.397 37.7879 102.312 37.8265 101.188 37.8265C101.033 37.6722 100.956 37.4023 100.956 37.0167C100.995 36.6311 101.072 36.3612 101.188 36.207C101.421 36.207 101.847 36.1877 102.467 36.1492C103.087 36.072 103.668 35.9564 104.21 35.8021C104.791 35.6479 105.101 35.4744 105.14 35.2816C105.295 34.8189 105.372 34.2212 105.372 33.4886C105.411 32.756 105.431 31.9655 105.431 31.1172V6.99848C105.431 6.15018 105.411 5.35971 105.372 4.62709C105.372 3.85591 105.295 3.23896 105.14 2.77625C105.101 2.5449 104.791 2.37138 104.21 2.25571C103.668 2.14003 103.087 2.06291 102.467 2.02435C101.847 1.94723 101.421 1.90868 101.188 1.90868C101.072 1.75444 100.995 1.48452 100.956 1.09893C100.956 0.713343 101.033 0.44343 101.188 0.289193C102.351 0.327752 103.493 0.385591 104.617 0.46271C105.741 0.501269 106.845 0.520548 107.93 0.520548Z" fill="white"/>
<path d="M146.009 31.1172C146.009 31.1943 146.009 31.31 146.009 31.4642C146.009 31.8113 146.009 32.274 146.009 32.8524C146.009 33.3922 146.028 33.8935 146.067 34.3562C146.105 34.8189 146.183 35.0888 146.299 35.1659C146.687 35.4358 147.152 35.6093 147.694 35.6864C148.275 35.725 149.166 35.7443 150.367 35.7443H153.563C154.648 35.7443 155.83 35.6286 157.108 35.3973C158.426 35.1273 159.472 34.7225 160.247 34.1826C160.944 33.6814 161.583 32.9873 162.164 32.1005C162.784 31.2136 163.327 30.0183 163.792 28.5145C163.869 28.2831 164.14 28.1674 164.605 28.1674C165.303 28.1674 165.768 28.2831 166 28.5145C165.458 30.0568 164.857 31.6956 164.198 33.4307C163.579 35.1659 163.172 36.6504 162.978 37.8843C159.917 37.8843 156.876 37.8458 153.854 37.7686C150.832 37.6915 147.423 37.653 143.626 37.653C142.309 37.653 141.127 37.6722 140.081 37.7108C139.035 37.7879 137.95 37.8265 136.827 37.8265C136.672 37.6722 136.594 37.4023 136.594 37.0167C136.633 36.6311 136.71 36.3612 136.827 36.207C137.059 36.207 137.485 36.1877 138.105 36.1492C138.725 36.072 139.306 35.9564 139.848 35.8021C140.43 35.6479 140.74 35.4744 140.778 35.2816C140.933 34.8189 141.011 34.2212 141.011 33.4886C141.049 32.756 141.069 31.9655 141.069 31.1172V6.99848C141.069 6.15018 141.049 5.35971 141.011 4.62709C141.011 3.85591 140.933 3.23896 140.778 2.77625C140.74 2.5449 140.43 2.37138 139.848 2.25571C139.306 2.14003 138.725 2.06291 138.105 2.02435C137.485 1.94723 137.059 1.90868 136.827 1.90868C136.71 1.75444 136.633 1.48452 136.594 1.09893C136.594 0.713343 136.672 0.44343 136.827 0.289193C137.989 0.327752 139.132 0.385591 140.255 0.46271C141.379 0.501269 142.483 0.520548 143.568 0.520548C144.691 0.520548 145.776 0.501269 146.822 0.46271C147.907 0.385591 149.031 0.327752 150.193 0.289193C150.348 0.44343 150.406 0.713343 150.367 1.09893C150.367 1.48452 150.309 1.75444 150.193 1.90868C149.96 1.90868 149.534 1.94723 148.914 2.02435C148.294 2.06291 147.713 2.14003 147.171 2.25571C146.628 2.37138 146.319 2.5449 146.241 2.77625C146.125 3.16184 146.047 3.66311 146.009 4.28006C146.009 4.89701 146.009 5.57179 146.009 6.30441C146.009 6.42009 146.009 6.53577 146.009 6.65145C146.009 6.76712 146.009 6.8828 146.009 6.99848V31.1172Z" fill="white"/>
</svg>
