<svg width="19" height="21" viewBox="0 0 19 21" fill="none" xmlns="http://www.w3.org/2000/svg">
<path d="M16.5 9.5H2.5C1.39543 9.5 0.5 10.3954 0.5 11.5V18.5C0.5 19.6046 1.39543 20.5 2.5 20.5H16.5C17.6046 20.5 18.5 19.6046 18.5 18.5V11.5C18.5 10.3954 17.6046 9.5 16.5 9.5Z" stroke="#3B3B4A" stroke-linecap="round" stroke-linejoin="round"/>
<path d="M4.5 9.5V5.5C4.5 4.17392 5.02678 2.90215 5.96447 1.96447C6.90215 1.02678 8.17392 0.5 9.5 0.5C10.8261 0.5 12.0979 1.02678 13.0355 1.96447C13.9732 2.90215 14.5 4.17392 14.5 5.5V9.5" stroke="#3B3B4A" stroke-linecap="round" stroke-linejoin="round"/>
</svg>
