<svg width="23" height="21" viewBox="0 0 23 21" fill="none" xmlns="http://www.w3.org/2000/svg">
<g clip-path="url(#clip0_923_8123)">
<path d="M13.6533 11.1155C14.011 11.1155 14.3009 10.84 14.3009 10.5002C14.3009 10.1605 14.011 9.88501 13.6533 9.88501C13.2932 9.88501 13.0003 9.60672 13.0003 9.26465C13.0003 8.92487 12.7103 8.64941 12.3527 8.64941C11.995 8.64941 11.7051 8.92487 11.7051 9.26465C11.7051 10.2852 12.5791 11.1155 13.6533 11.1155Z" fill="#1499A2"/>
<path d="M9.67406 12.355C9.42115 12.5953 9.42115 12.9848 9.67406 13.2251C10.042 13.5746 10.5312 13.7672 11.0517 13.7672C11.5721 13.7672 12.0613 13.5746 12.4293 13.2251C12.6822 12.9848 12.6822 12.5953 12.4293 12.355C12.1764 12.1147 11.7663 12.1147 11.5134 12.355C11.3901 12.4721 11.2261 12.5367 11.0517 12.5367C10.8772 12.5367 10.7133 12.4721 10.5899 12.355C10.337 12.1147 9.92693 12.1147 9.67406 12.355Z" fill="#1499A2"/>
<path d="M11.0535 14.8301C9.87061 14.8301 8.75852 15.2677 7.92211 16.0623C7.66919 16.3025 7.66919 16.6921 7.92211 16.9323C8.17498 17.1726 8.58505 17.1726 8.83797 16.9323C9.42976 16.3701 10.2166 16.0605 11.0535 16.0605C11.8903 16.0605 12.6772 16.3702 13.2689 16.9323C13.3954 17.0525 13.5612 17.1126 13.7269 17.1126C13.8926 17.1126 14.0583 17.0525 14.1848 16.9323C14.4377 16.6921 14.4377 16.3025 14.1848 16.0623C13.3484 15.2677 12.2363 14.8301 11.0535 14.8301Z" fill="#1499A2"/>
<path d="M8.4523 11.1155C9.52657 11.1155 10.4005 10.2852 10.4005 9.26465C10.4005 8.92487 10.1106 8.64941 9.75293 8.64941C9.39527 8.64941 9.10531 8.92487 9.10531 9.26465C9.10531 9.60672 8.81238 9.88501 8.4523 9.88501C8.09465 9.88501 7.80469 10.1605 7.80469 10.5002C7.80469 10.84 8.09465 11.1155 8.4523 11.1155Z" fill="#1499A2"/>
<path d="M20.157 8.64917C19.928 8.64917 19.7082 8.68703 19.504 8.75634V5.69604C19.504 5.64494 19.5032 5.59404 19.5018 5.54322C19.6179 5.46796 19.7262 5.38092 19.8235 5.28232C20.1957 4.90551 20.3815 4.41316 20.3468 3.89591C20.2916 3.07289 19.6456 2.38371 18.8182 2.20845C18.6263 0.960914 17.4925 0 16.1269 0C15.7638 0 15.4103 0.0707109 15.0844 0.200156C14.582 0.0699316 14.0536 0 13.5082 0H8.59709C5.29097 0 2.60125 2.55523 2.60125 5.69604V8.75684C2.39695 8.68752 2.17733 8.64917 1.94824 8.64917C0.873978 8.64917 0 9.47945 0 10.5V11.7356C0 12.7561 0.873978 13.5864 1.94824 13.5864C2.18367 13.5864 2.40917 13.546 2.61826 13.473C2.89186 17.6672 6.56997 21 11.0526 21C15.5352 21 19.2133 17.6673 19.487 13.4731C19.696 13.5462 19.9216 13.5864 20.157 13.5864C21.2313 13.5864 22.1053 12.7561 22.1053 11.7356V10.5C22.1053 9.47945 21.2313 8.64917 20.157 8.64917ZM2.60125 11.7356C2.60125 12.0777 2.30832 12.356 1.94824 12.356C1.58817 12.356 1.29523 12.0777 1.29523 11.7356V10.5C1.29523 10.1579 1.58817 9.87964 1.94824 9.87964C2.30832 9.87964 2.60125 10.1579 2.60125 10.5V11.7356ZM8.59709 1.23047H12.2837C11.4539 1.63968 10.8853 2.46328 10.8853 3.41115C10.8853 3.72102 10.9466 4.01736 11.0574 4.2906C9.59187 3.99513 9.15818 3.53575 9.03056 3.29327C8.9209 3.08479 8.69665 2.95312 8.45133 2.95312C8.20602 2.95312 7.98177 3.08479 7.87211 3.29323C7.07839 4.80121 5.00559 4.98693 3.9574 4.97885C4.31968 2.85629 6.26214 1.23047 8.59709 1.23047ZM18.2088 12.9712C18.2088 16.7198 14.9986 19.7695 11.0526 19.7695C7.10671 19.7695 3.89648 16.7198 3.89648 12.9712V6.21108C3.94177 6.21178 3.98823 6.21223 4.03671 6.21223C5.20592 6.21223 7.27185 5.99279 8.51519 4.5901C9.32099 5.21419 10.6832 5.59215 12.6307 5.73325C12.8941 5.81946 13.1765 5.86696 13.4704 5.86696H14.5223C14.3034 6.12002 14.3312 6.49224 14.5873 6.71295L15.296 7.32375L14.8283 7.80749C14.5864 8.05772 14.6038 8.44692 14.8672 8.67677C14.9916 8.7853 15.1486 8.83891 15.3051 8.83891C15.4801 8.83891 15.6546 8.77193 15.7823 8.63982L16.6908 7.70015C16.8074 7.57952 16.8686 7.41964 16.8607 7.25595C16.8529 7.09226 16.7767 6.93837 16.6489 6.82828L15.9202 6.20025L16.216 5.86696H18.2088V12.9712H18.2088ZM18.879 4.44039C18.7541 4.56684 18.5849 4.63645 18.4026 4.63645H13.4704C12.7592 4.63645 12.1806 4.08676 12.1806 3.41111C12.1806 2.73546 12.7592 2.1858 13.4704 2.1858C13.6528 2.1858 13.8294 2.22157 13.9955 2.29204C14.3154 2.42788 14.6909 2.29724 14.8431 1.99742C15.0831 1.52435 15.575 1.23047 16.1269 1.23047C16.9125 1.23047 17.5516 1.83766 17.5516 2.58398C17.5516 2.63173 17.5487 2.6814 17.543 2.73164C17.5212 2.92306 17.5949 3.11313 17.7423 3.24528C17.8897 3.37739 18.0935 3.43637 18.2936 3.40467C18.3399 3.39728 18.3862 3.39454 18.4313 3.3963C18.7597 3.40934 19.0333 3.66319 19.0542 3.97421C19.066 4.14861 19.0037 4.31415 18.879 4.44039ZM20.81 11.7356C20.81 12.0777 20.5171 12.356 20.157 12.356C19.7969 12.356 19.504 12.0777 19.504 11.7356V10.5C19.504 10.1579 19.7969 9.87964 20.157 9.87964C20.5171 9.87964 20.81 10.1579 20.81 10.5V11.7356Z" fill="#1499A2"/>
</g>
<defs>
<clipPath id="clip0_923_8123">
<rect width="22.1053" height="21" fill="white"/>
</clipPath>
</defs>
</svg>
