<svg width="20" height="18" viewBox="0 0 20 18" fill="none" xmlns="http://www.w3.org/2000/svg">
<path d="M14.5754 5.62944L18.4957 6.48386C18.8978 6.58438 19.3501 6.38334 19.5009 6.03152C19.6517 5.62944 19.4004 5.22736 18.9983 4.97606L12.1127 2.11125C11.007 1.70917 9.64996 1.50813 8.49398 1.50813C7.68982 1.50813 7.03644 1.60865 6.23228 1.75943L5.47839 1.96047" stroke="#1499A2" stroke-width="0.9" stroke-miterlimit="10" stroke-linecap="round" stroke-linejoin="round"/>
<path d="M5.47839 1.45773L3.97059 0.452535L0.452397 6.98632L1.96019 7.99152L5.47839 1.45773Z" stroke="#1499A2" stroke-width="0.9" stroke-miterlimit="10" stroke-linecap="round" stroke-linejoin="round"/>
<path d="M8.49417 4.47333H13.2689C13.9725 4.47333 14.5254 5.02618 14.5254 5.72982C14.5254 6.43346 13.9725 6.98632 13.2689 6.98632H10.002L9.54963 7.28788C8.54443 8.04178 7.28794 8.49412 5.98118 8.49412C5.17702 8.49412 4.37287 8.34334 3.61897 7.99152L2.41273 7.48892" stroke="#1499A2" stroke-width="0.9" stroke-miterlimit="10" stroke-linecap="round" stroke-linejoin="round"/>
<path d="M17.0382 14.5253L11.5096 11.5097L5.98098 14.5253L11.5096 17.5409L17.0382 14.5253Z" stroke="#1499A2" stroke-width="0.9" stroke-miterlimit="10" stroke-linecap="round" stroke-linejoin="round"/>
</svg>
