<svg width="29" height="30" viewBox="0 0 29 30" fill="none" xmlns="http://www.w3.org/2000/svg">
<g clip-path="url(#clip0_923_8667)">
<path d="M27.6286 29.4831L26.8594 24.969C26.5727 23.2867 25.1832 22.0656 23.5556 22.0656H17.24V19.9136H18.7372C20.3181 19.9136 21.7834 19.2459 22.8631 18.0334C23.9429 16.8208 24.4791 15.2407 24.373 13.5841L24.1812 10.5945C24.1657 10.3523 23.9646 10.1691 23.7355 10.1856C23.5048 10.2019 23.3305 10.4114 23.346 10.6536L23.5379 13.6432C23.6283 15.0543 23.1715 16.4002 22.2517 17.4332C21.4757 18.3046 20.4658 18.8458 19.3602 18.9935C20.3264 18.1996 20.9489 16.9648 20.9489 15.5796V9.01023H25.4617C26.0736 9.01023 26.5714 8.48758 26.5714 7.8451V1.16513C26.5713 0.522655 26.0735 0 25.4616 0H19.0998C18.9253 0 18.7608 0.0436522 18.6138 0.119355C18.2151 0.0401952 17.8068 0 17.3974 0H11.1753C9.51374 0 7.9302 0.656307 6.71648 1.84793C5.50275 3.03954 4.77284 4.65444 4.66123 6.3952L4.19974 13.5841C4.09366 15.2406 4.62987 16.8208 5.70967 18.0334C6.78935 19.2458 8.25459 19.9136 9.83556 19.9136H11.3328V20.4488C11.3328 20.6915 11.5202 20.8882 11.7513 20.8882C11.9825 20.8882 12.1699 20.6915 12.1699 20.4488V19.4739C12.1699 19.2312 11.9825 19.0344 11.7513 19.0344C9.93701 19.0344 8.46095 17.4846 8.46095 15.5795V11.0648C9.35966 11.0057 10.2092 10.7552 10.9915 10.323L11.879 10.7266C11.9332 10.7512 11.9896 10.7629 12.0451 10.7629C12.2069 10.7629 12.361 10.6638 12.4294 10.498C12.5213 10.2753 12.4238 10.0165 12.2117 9.92008L11.8493 9.75525C12.3414 9.37146 12.8 8.90688 13.2191 8.36354C13.701 7.73893 14.0501 7.11702 14.2865 6.62852C14.5229 7.11702 14.872 7.73893 15.3538 8.36354C15.773 8.90693 16.2316 9.37152 16.7237 9.75531L16.3613 9.92014C16.1492 10.0166 16.0517 10.2753 16.1436 10.498C16.212 10.6639 16.366 10.7629 16.5278 10.7629C16.5833 10.7629 16.6398 10.7513 16.694 10.7266L17.5815 10.323C18.3638 10.7553 19.2133 11.0058 20.112 11.0649V15.5797C20.112 17.4847 18.636 19.0346 16.8216 19.0346C16.5905 19.0346 16.4031 19.2314 16.4031 19.4741V22.2916L14.2866 24.0379L12.01 22.1596C11.9417 22.108 11.8649 22.0667 11.7515 22.0657H5.01715C3.38947 22.0657 2.00002 23.2868 1.7133 24.9691L0.944107 29.4832C0.903426 29.7221 1.05482 29.9504 1.28239 29.9932C1.30733 29.9979 1.33216 30.0002 1.35661 30.0002C1.55543 30.0002 1.73188 29.8508 1.7681 29.638L2.5373 25.124C2.75247 23.8612 3.79544 22.9446 5.01715 22.9446H6.6893V29.5605C6.6893 29.8032 6.87663 29.9999 7.10782 29.9999C7.33902 29.9999 7.52635 29.8032 7.52635 29.5605V22.9447H9.93366C10.0298 23.3135 10.2104 23.9286 10.4829 24.5503C11.0988 25.9552 11.8583 26.6678 12.7403 26.6682C13.3465 26.6789 13.9529 26.3924 14.2864 25.9171C14.5985 26.3699 15.185 26.6717 15.8325 26.6682C16.7145 26.6677 17.474 25.9552 18.0898 24.5503C18.3624 23.9286 18.543 23.3135 18.6391 22.9447H21.0464V29.5605C21.0464 29.8032 21.2337 29.9999 21.4649 29.9999C21.6961 29.9999 21.8835 29.8032 21.8835 29.5605V22.9445H23.5556C24.7774 22.9445 25.8203 23.8611 26.0355 25.1238L26.8047 29.6379C26.8409 29.8506 27.0173 30.0001 27.2162 30.0001C27.2406 30.0001 27.2654 29.9978 27.2904 29.9931C27.5179 29.9503 27.6693 29.722 27.6286 29.4831ZM25.7342 1.16513V7.8451C25.7342 8.00289 25.612 8.13133 25.4616 8.13133H19.0998C18.9495 8.13133 18.8272 8.00295 18.8272 7.8451V1.16513C18.8272 1.00734 18.9495 0.878904 19.0998 0.878904H25.4617C25.612 0.878904 25.7342 1.00728 25.7342 1.16513ZM16.0208 7.83162C15.0903 6.63374 14.6888 5.41182 14.683 5.3939C14.5861 5.0496 14.042 4.95169 13.8897 5.39384C13.8858 5.40602 13.4846 6.63092 12.552 7.83162C12.0634 8.46069 11.5272 8.96523 10.9463 9.34463L9.83829 8.84078C9.62629 8.74434 9.37981 8.84664 9.28796 9.06942C9.1961 9.29213 9.29359 9.55088 9.50564 9.64732L9.95732 9.85269C9.48282 10.0354 8.9836 10.146 8.46089 10.1843V7.49061C8.46089 7.24791 8.27356 7.05116 8.04237 7.05116C7.81117 7.05116 7.62384 7.24791 7.62384 7.49061V15.5796C7.62384 16.9647 8.24638 18.1996 9.21256 18.9935C8.10699 18.8458 7.09705 18.3046 6.32105 17.4332C5.4013 16.4002 4.94449 15.0542 5.03489 13.6432L5.49639 6.45438C5.59365 4.93675 6.22998 3.5288 7.28807 2.48999C8.34622 1.45101 9.72679 0.878904 11.1753 0.878904H17.3974C17.6047 0.878904 17.8117 0.890858 18.0168 0.914178C17.9998 0.995096 17.9902 1.07888 17.9902 1.16508V7.8451C17.9902 8.30641 18.2475 8.70473 18.6187 8.8934L17.6264 9.34463C17.0455 8.96523 16.5093 8.46069 16.0208 7.83162ZM18.6154 9.85269L19.0671 9.64732C19.2792 9.55088 19.3767 9.29213 19.2848 9.06942C19.2761 9.0485 19.2657 9.02899 19.2545 9.01023H20.1118V10.1843C19.5892 10.146 19.0899 10.0354 18.6154 9.85269ZM13.7078 25.2392C13.552 25.5698 13.1991 25.793 12.7407 25.7893C11.8108 25.7888 11.1132 24.0295 10.803 22.9446H11.6067L13.8471 24.7931C13.8268 24.9161 13.7868 25.0803 13.7078 25.2392ZM15.832 25.7894C15.2258 25.796 14.8217 25.4218 14.7257 24.7931L16.9661 22.9447H17.7697C17.4594 24.0297 16.7619 25.7888 15.832 25.7894Z" fill="#1499A2"/>
<path d="M18.3585 12.931V12.0166C18.3585 11.7739 18.1712 11.5771 17.94 11.5771C17.7088 11.5771 17.5215 11.7739 17.5215 12.0166V12.931C17.5215 13.1737 17.7088 13.3704 17.94 13.3704C18.1712 13.3704 18.3585 13.1737 18.3585 12.931Z" fill="#1499A2"/>
<path d="M10.2129 12.0166V12.931C10.2129 13.1737 10.4002 13.3704 10.6314 13.3704C10.8626 13.3704 11.0499 13.1737 11.0499 12.931V12.0166C11.0499 11.7739 10.8626 11.5771 10.6314 11.5771C10.4002 11.5771 10.2129 11.7739 10.2129 12.0166Z" fill="#1499A2"/>
<path d="M13.3012 15.3553C13.3442 15.3553 13.388 15.3483 13.4311 15.3335L15.4014 14.6581C15.6211 14.5828 15.7411 14.3346 15.6694 14.104C15.5976 13.8733 15.3615 13.7473 15.1416 13.8226L13.1713 14.498C12.9516 14.5733 12.8316 14.8214 12.9033 15.0521C12.961 15.2376 13.1249 15.3553 13.3012 15.3553Z" fill="#1499A2"/>
<path d="M20.2935 4.17346H21.5012C21.7324 4.17346 21.9197 3.9767 21.9197 3.734V2.29102C21.9197 2.04832 21.7324 1.85156 21.5012 1.85156C21.27 1.85156 21.0826 2.04832 21.0826 2.29102V3.29449H20.2935C20.0623 3.29449 19.875 3.49125 19.875 3.73395C19.875 3.97664 20.0624 4.17346 20.2935 4.17346Z" fill="#1499A2"/>
<path d="M23.0611 4.17346H24.2687C24.4999 4.17346 24.6873 3.9767 24.6873 3.734C24.6873 3.49131 24.4999 3.29455 24.2687 3.29455H23.4796V2.29102C23.4796 2.04832 23.2923 1.85156 23.0611 1.85156C22.8299 1.85156 22.6426 2.04832 22.6426 2.29102V3.73395C22.6426 3.9767 22.83 4.17346 23.0611 4.17346Z" fill="#1499A2"/>
<path d="M20.2935 5.71484H21.0826V6.71832C21.0826 6.96102 21.27 7.15777 21.5012 7.15777C21.7324 7.15777 21.9197 6.96102 21.9197 6.71832V5.27539C21.9197 5.0327 21.7324 4.83594 21.5012 4.83594H20.2935C20.0623 4.83594 19.875 5.0327 19.875 5.27539C19.875 5.51809 20.0624 5.71484 20.2935 5.71484Z" fill="#1499A2"/>
<path d="M23.0611 7.15777C23.2923 7.15777 23.4796 6.96102 23.4796 6.71832V5.71484H24.2687C24.4999 5.71484 24.6873 5.51809 24.6873 5.27539C24.6873 5.0327 24.4999 4.83594 24.2687 4.83594H23.0611C22.8299 4.83594 22.6426 5.0327 22.6426 5.27539V6.71832C22.6426 6.96107 22.83 7.15777 23.0611 7.15777Z" fill="#1499A2"/>
</g>
<defs>
<clipPath id="clip0_923_8667">
<rect width="28.5714" height="30" fill="white"/>
</clipPath>
</defs>
</svg>
