<svg width="20" height="21" viewBox="0 0 20 21" fill="none" xmlns="http://www.w3.org/2000/svg">
<g clip-path="url(#clip0_923_11132)">
<path d="M18.1917 8.64917C17.985 8.64917 17.7867 8.68719 17.6024 8.75647V8.02881C17.6024 7.68961 17.582 7.34787 17.5417 7.01306C17.5417 7.01285 17.5417 7.01265 17.5417 7.0124C17.3314 5.26075 16.5596 3.60548 15.3684 2.35151C13.9277 0.835119 12.0123 0 9.975 0C8.27948 0 6.47183 0.570281 4.88498 1.60576C3.23011 2.68566 2.0176 4.15656 1.47081 5.74748C1.13742 6.71754 1.14596 7.74884 1.4915 8.67042C0.648141 8.80618 0 9.57489 0 10.5V11.7356C0 12.7561 0.788765 13.5864 1.75829 13.5864C1.97069 13.5864 2.17436 13.5466 2.36302 13.4736C2.61026 17.6675 5.92959 21 9.975 21C14.0204 21 17.3397 17.6675 17.587 13.4736C17.7756 13.5466 17.9793 13.5864 18.1917 13.5864C19.1612 13.5864 19.95 12.7561 19.95 11.7356V10.5C19.95 9.47945 19.1612 8.64917 18.1917 8.64917ZM2.34763 11.7356C2.34763 12.0777 2.08326 12.356 1.75829 12.356C1.43332 12.356 1.16895 12.0777 1.16895 11.7356V10.5C1.16895 10.1579 1.43332 9.87964 1.75829 9.87964C2.08326 9.87964 2.34763 10.1579 2.34763 10.5V11.7356ZM2.6205 8.3242C2.33914 7.65647 2.32117 6.89005 2.57 6.16608C3.50536 3.44457 6.82723 1.23047 9.975 1.23047C11.7001 1.23047 13.322 1.93762 14.5418 3.22161C15.3595 4.08237 15.9438 5.16588 16.2305 6.3349C15.2129 6.09529 13.5318 5.4915 12.8454 4.0466C12.7613 3.86974 12.6017 3.74616 12.4162 3.7145C12.2307 3.68288 12.0422 3.74694 11.9093 3.88676C9.82421 6.08159 8.01168 7.64621 6.52205 8.5372C5.39289 9.21256 4.43802 9.49946 3.7603 9.3667C3.24655 9.26613 2.87374 8.92508 2.6205 8.3242ZM16.4334 12.9712C16.4334 16.7198 13.5362 19.7695 9.975 19.7695C6.41381 19.7695 3.51658 16.7198 3.51658 12.9712V10.5701C3.52659 10.5721 3.53645 10.5744 3.54654 10.5764C3.72418 10.6112 3.90938 10.6285 4.10234 10.6285C4.64044 10.6285 5.2375 10.4931 5.88872 10.2241C5.8759 10.3141 5.86912 10.4062 5.86912 10.5C5.86912 10.8397 6.13081 11.1152 6.45359 11.1152C6.77638 11.1152 7.03806 10.8397 7.03806 10.5C7.03806 10.1579 7.30244 9.8796 7.62741 9.8796C7.95237 9.8796 8.21675 10.1579 8.21675 10.5C8.21675 10.8397 8.47844 11.1152 8.80122 11.1152C9.12401 11.1152 9.3857 10.8397 9.3857 10.5C9.3857 9.73411 8.9415 9.07545 8.31011 8.79436C9.47956 7.93177 10.7869 6.76151 12.2164 5.29659C13.383 6.89756 15.4215 7.44987 16.4221 7.63026C16.4294 7.76303 16.4335 7.89608 16.4335 8.02877V12.9712H16.4334ZM18.7811 11.7356C18.7811 12.0777 18.5167 12.356 18.1917 12.356C17.8667 12.356 17.6024 12.0777 17.6024 11.7356V10.5C17.6024 10.1579 17.8667 9.87964 18.1917 9.87964C18.5167 9.87964 18.7811 10.1579 18.7811 10.5V11.7356Z" fill="#1499A2"/>
<path d="M12.7172 13.5918C12.3944 13.5918 12.1327 13.8673 12.1327 14.207C12.1327 15.4594 11.1648 16.4783 9.97506 16.4783C8.78531 16.4783 7.81738 15.4594 7.81738 14.207C7.81738 13.8673 7.55569 13.5918 7.23291 13.5918C6.91013 13.5918 6.64844 13.8673 6.64844 14.207C6.64844 16.1379 8.14075 17.7087 9.97506 17.7087C11.8094 17.7087 13.3017 16.1379 13.3017 14.207C13.3017 13.8673 13.04 13.5918 12.7172 13.5918Z" fill="#1499A2"/>
<path d="M9.97503 13.7672C10.4447 13.7672 10.8863 13.5746 11.2183 13.2251C11.4466 12.9848 11.4466 12.5953 11.2183 12.355C10.9901 12.1147 10.62 12.1147 10.3918 12.355C10.2804 12.4721 10.1324 12.5367 9.97503 12.5367C9.81761 12.5367 9.66962 12.4721 9.5583 12.355C9.33008 12.1147 8.96 12.1147 8.73174 12.355C8.50348 12.5953 8.50348 12.9848 8.73174 13.2251C9.06384 13.5746 9.50539 13.7672 9.97503 13.7672Z" fill="#1499A2"/>
<path d="M12.3227 8.64941C11.3532 8.64941 10.5645 9.47969 10.5645 10.5002C10.5645 10.84 10.8261 11.1155 11.1489 11.1155C11.4717 11.1155 11.7334 10.84 11.7334 10.5002C11.7334 10.1582 11.9978 9.87988 12.3227 9.87988C12.6477 9.87988 12.9121 10.1582 12.9121 10.5002C12.9121 10.84 13.1738 11.1155 13.4966 11.1155C13.8193 11.1155 14.081 10.84 14.081 10.5002C14.081 9.47969 13.2923 8.64941 12.3227 8.64941Z" fill="#1499A2"/>
</g>
<defs>
<clipPath id="clip0_923_11132">
<rect width="19.95" height="21" fill="white"/>
</clipPath>
</defs>
</svg>
