<svg width="21" height="21" viewBox="0 0 21 21" fill="none" xmlns="http://www.w3.org/2000/svg">
<g clip-path="url(#clip0_943_3519)">
<path d="M20.4373 9.85155C20.0359 -3.2882 0.959997 -3.2795 0.5625 9.85155V17.9257H4.45002C7.25324 22.0255 13.7478 22.024 16.5498 17.9257H20.4373V9.85155H20.4373ZM1.80468 16.6836V9.85155C1.80468 5.26585 5.37308 1.49833 9.87883 1.17875V3.03411C9.87883 4.17331 9.06537 5.14801 7.94451 5.35181L5.98684 5.70777C4.28328 6.01745 3.04685 7.49904 3.04685 9.23051V13.5781C3.04685 14.6858 3.29011 15.7377 3.72546 16.6836H1.80468ZM10.4999 19.789C7.07524 19.789 4.28903 17.0028 4.28903 13.5781V9.23051C4.28903 8.09971 5.09653 7.13218 6.20906 6.92991L8.1667 6.57395C9.14652 6.39582 9.97257 5.83187 10.4999 5.05588C11.0272 5.83187 11.8533 6.39582 12.8331 6.57395L14.7908 6.92991C15.9033 7.13222 16.7108 8.09975 16.7108 9.23051V13.5781C16.7108 17.0028 13.9246 19.789 10.4999 19.789ZM19.1952 16.6836H17.2744C17.7097 15.7377 17.953 14.6858 17.953 13.5781V9.23051C17.953 7.49904 16.7166 6.01745 15.013 5.70777L13.0553 5.35181C11.9345 5.14801 11.121 4.17327 11.121 3.03411V1.1788C15.6268 1.49837 19.1952 5.26585 19.1952 9.85159V16.6836Z" fill="#1499A2"/>
<path d="M9.87891 11.7148H11.1211V13.5781H9.87891V11.7148Z" fill="#1499A2"/>
<path d="M7.84869 10.7934C7.84869 11.1731 8.17276 11.481 8.5725 11.481C8.97223 11.481 9.2963 11.1731 9.2963 10.7934V9.33508C9.2963 8.95533 8.97223 8.64746 8.5725 8.64746H5.66521C5.26548 8.64746 4.94141 8.95533 4.94141 9.33508C4.94141 9.71482 5.26548 10.0227 5.66521 10.0227H7.84869V10.7934Z" fill="#1499A2"/>
<path d="M14.3869 8.64746H11.4797C11.0799 8.64746 10.7559 8.95533 10.7559 9.33508C10.7559 9.71482 11.0799 10.0227 11.4797 10.0227H13.6631V10.7934C13.6631 11.1731 13.9872 11.481 14.3869 11.481C14.7867 11.481 15.1108 11.1731 15.1108 10.7934V9.33508C15.1108 8.95528 14.7867 8.64746 14.3869 8.64746Z" fill="#1499A2"/>
</g>
<defs>
<clipPath id="clip0_943_3519">
<rect width="21" height="21" fill="white"/>
</clipPath>
</defs>
</svg>
