<svg width="285" height="352" viewBox="0 0 285 352" fill="none" xmlns="http://www.w3.org/2000/svg">
<path d="M87.1376 56.4537L87.1147 56.4529C81.8433 56.2683 74.7782 57.2849 67.3045 59.0098L67.2385 59.0251L67.1708 59.0222C65.9591 58.9707 65.0311 58.5536 64.3499 57.8873C63.678 57.2302 63.2808 56.3649 63.056 55.4673L62.8812 54.7696L63.5961 54.8489C63.9808 54.8916 64.3183 54.8916 64.7029 54.8489L64.718 54.8472L64.7333 54.8465C68.304 54.6694 71.4987 52.5435 73.853 49.0958C76.2072 45.648 77.6942 40.9096 77.8325 35.6181L78.5196 35.5156L78.567 35.5085L78.8039 35.4731C78.7987 35.4673 78.7844 35.4522 78.7584 35.4346C78.7437 35.4245 78.7189 35.4093 78.6844 35.3957C78.662 35.3868 78.6283 35.3756 78.5855 35.3694C78.5654 35.3665 78.5434 35.3647 78.5196 35.3647H78.5527L78.5855 35.3691C78.6069 35.3719 78.6078 35.3708 78.607 35.3699C78.6067 35.3695 78.6061 35.3691 78.6062 35.369C78.6273 35.35 78.6725 35.291 78.7215 35.1537C78.8102 34.905 78.8522 34.5836 78.8958 34.2495C78.9015 34.2061 78.9072 34.1625 78.913 34.1188C79.1405 32.2995 79.0968 28.5112 78.9101 25.7156M87.1376 56.4537L79.4089 25.6803M87.1376 56.4537L87.1604 56.4524M87.1376 56.4537L87.1604 56.4524M78.9101 25.7156C78.9101 25.7149 78.9101 25.7143 78.91 25.7137L79.4089 25.6803M78.9101 25.7156C78.9101 25.7157 78.9102 25.7159 78.9102 25.716L79.4089 25.6803M78.9101 25.7156C78.4122 18.7607 72.2293 12.1284 65.0637 11.1326L63.4313 10.9057L64.9145 10.1873C66.4703 9.43379 67.7262 8.4764 68.3252 7.35868C68.6195 6.8097 68.7569 6.22003 68.696 5.58002C68.6349 4.93617 68.37 4.21038 67.8104 3.39995L67.806 3.39359C67.2253 2.52413 66.2473 1.82924 64.9968 1.3389L64.9918 1.33696C62.3928 0.285927 58.8675 0.216426 56.1355 1.17581C54.7744 1.65381 53.648 2.37384 52.9241 3.31365C52.2102 4.24042 51.8627 5.41137 52.0986 6.86667L52.0993 6.87129C52.3957 8.81507 53.8927 10.4676 55.7426 11.3028L56.8146 11.7868L55.7223 12.2229C55.2792 12.3998 54.8307 12.6232 54.4219 12.8499L54.4185 12.8517C53.9346 13.1152 53.4895 13.4254 53.0818 13.7419L53.0578 13.7605L53.0317 13.7761C49.4068 15.9423 46.5442 18.5604 44.7797 21.6975C43.0203 24.8256 42.3336 28.5025 43.11 32.8333L43.1102 32.834C43.6148 35.6731 44.6725 38.4325 45.7958 41.1887L45.7969 41.1914C46.2743 42.3826 46.9905 43.2129 47.8074 44.0167C47.9971 44.2035 48.1954 44.3913 48.398 44.5833C49.046 45.1972 49.7393 45.8541 50.3473 46.6577M79.4089 25.6803C78.9132 18.7544 72.9953 12.1749 65.9562 10.7764C65.7573 10.8846 65.555 10.9882 65.3504 11.0873L65.1325 10.6373L65.2013 10.1421C65.4261 10.1733 65.6499 10.2097 65.8727 10.2512C68.6504 8.68874 70.4193 6.29815 68.2218 3.11584C67.5665 2.13477 66.4899 1.38729 65.1793 0.873403C59.7496 -1.32231 50.5752 0.593099 51.605 6.94666C51.8996 8.87893 53.2538 10.509 54.9531 11.4634C55.0848 11.4042 55.218 11.3475 55.3515 11.2942L55.5369 11.7586L55.3311 12.2143C55.198 12.1541 55.0661 12.0901 54.9357 12.0223C54.6742 12.1467 54.4192 12.2796 54.1794 12.4126C53.6646 12.6929 53.1965 13.0199 52.7752 13.3469C45.4264 17.7384 41.0264 24.0452 42.6179 32.9215C43.1328 35.818 44.2094 38.621 45.3327 41.3774C45.9726 42.974 47.0101 43.9573 48.0746 44.9662C48.7233 45.5809 49.3819 46.2052 49.9667 46.9834M50.3473 46.6577C50.3383 46.6482 50.3292 46.6388 50.3199 46.6296L49.9667 46.9834M50.3473 46.6577C50.4035 46.7172 50.4546 46.7809 50.491 46.8264L50.4973 46.8342C50.5486 46.8982 50.5774 46.9332 50.6008 46.9566L50.7448 47.1003L50.7475 47.3036C50.7944 50.7456 50.6786 54.6481 49.9281 58.0012C49.1822 61.3332 47.7778 64.2635 45.1313 65.5589L45.1133 65.5677L45.0946 65.575C40.0013 67.5804 35.489 69.6249 32.3392 71.4741L32.3159 71.4878L32.2912 71.4989C27.4376 73.6815 24.0809 79.895 22.1441 88.9288C20.2161 97.9217 19.732 109.541 20.4737 122.269C21.9571 147.723 28.336 177.493 37.741 199.318L37.7643 199.372L37.7744 199.43C39.6432 210.155 42.2604 220.849 44.4114 228.865C45.4868 232.872 46.4452 236.208 47.1346 238.542C47.4793 239.709 47.7567 240.625 47.9479 241.25C48.0435 241.562 48.1175 241.801 48.1676 241.962L48.2244 242.144L48.2388 242.19L48.2424 242.201L48.2433 242.204L48.2435 242.205C48.2435 242.205 48.2436 242.205 47.7668 242.355M50.3473 46.6577C50.3537 46.6662 50.3601 46.6746 50.3664 46.6831L49.9667 46.9834M49.9667 46.9834C50.0135 47.0302 50.0603 47.0886 50.1071 47.147C50.154 47.2054 50.2008 47.2637 50.2476 47.3105C50.3412 54.1779 49.7795 62.7272 44.9115 65.1098C39.8094 67.1186 35.269 69.1742 32.0861 71.0429C11.7247 80.1995 18.4182 155.741 37.2818 199.516C41.0264 221.006 47.7668 242.355 47.7668 242.355M78.3323 35.6311C78.3791 35.7713 78.4727 35.8647 78.5196 35.8647C78.6386 35.8806 78.7401 35.8628 78.8271 35.8191C78.8289 35.7608 78.8306 35.7025 78.8322 35.6442L78.5499 35.6368L78.5196 35.636L78.3323 35.6311ZM78.3323 35.6311L77.8581 35.7895C77.9017 35.92 77.9687 36.0355 78.0466 36.1262C78.0852 36.1712 78.1348 36.2198 78.1958 36.2613C78.2184 36.2766 78.2562 36.3006 78.3066 36.3215C78.3177 36.0924 78.3263 35.8623 78.3323 35.6311ZM63.541 55.3459C63.7226 55.366 63.8955 55.3774 64.0672 55.3802C64.0529 55.3288 64.0392 55.2768 64.026 55.2244L63.541 55.3459ZM63.541 55.3459L63.4859 55.8428C63.5561 55.8506 63.6252 55.8572 63.6936 55.8626C63.6357 55.6942 63.585 55.5215 63.541 55.3459ZM47.7668 242.355L48.2436 242.205L48.3649 242.589L48.0151 242.789L48.0148 242.79L48.0133 242.79L48.0067 242.794L47.9792 242.81C47.9655 242.818 47.948 242.828 47.9268 242.841C47.9099 242.851 47.8906 242.862 47.869 242.875C47.7717 242.932 47.6275 243.018 47.4419 243.131C47.0707 243.356 46.5338 243.69 45.8742 244.12C44.5547 244.98 42.7462 246.225 40.7916 247.765C36.8693 250.853 32.4129 255.084 30.0998 259.723C30.0999 259.723 30.0999 259.723 30.1 259.723L29.6521 259.501C34.3797 250.017 47.7668 242.355 47.7668 242.355ZM87.1604 56.4524C89.5181 56.3192 96.6284 56.6538 104.847 64.8564C110.011 70.0103 117.721 78.2068 124.124 86.2057C127.326 90.2059 130.193 94.1461 132.251 97.6249C133.28 99.3642 134.101 100.979 134.661 102.422C135.223 103.87 135.51 105.115 135.5 106.122V106.128C135.5 108.088 134.535 110.086 133.547 111.917L133.545 111.921C132.16 114.548 130.4 117.045 128.579 119.468L87.1604 56.4524ZM41.029 149.37L40.0588 149.223C39.6839 140.804 39.5435 131.126 39.4966 120.285L40.4468 120.065C42.0577 123.397 43.6079 126.34 44.9511 128.638C46.3047 130.954 47.4211 132.568 48.1614 133.285L48.4706 133.585L41.029 149.37ZM41.029 149.37C42.9638 143.972 44.7683 140.104 46.0857 137.59C46.7444 136.333 47.2814 135.415 47.652 134.813C47.8373 134.512 47.9811 134.29 48.0777 134.145C48.126 134.072 48.1625 134.018 48.1865 133.983L48.2131 133.945L48.2192 133.937L48.2204 133.935L48.2205 133.935L41.029 149.37ZM119.5 109.794L119.516 109.772L119.531 109.749C119.649 109.552 119.812 109.346 120.048 109.064L120.529 108.488L119.811 108.266C117.955 107.693 115.332 105.923 112.318 103.259C109.322 100.611 105.993 97.1269 102.73 93.1946L102.177 92.5289L101.876 93.34C101.858 93.3895 101.839 93.439 101.821 93.4884C101.366 94.7154 100.927 95.8997 100.25 96.872L100.249 96.8719L100.244 96.8802C99.9732 97.2854 99.7055 97.6413 99.3944 97.9962L99.3857 98.0062L99.3775 98.0165C98.8871 98.6395 98.3483 99.1787 97.7501 99.73C97.3785 100.059 96.8647 100.362 96.3173 100.635L96.1197 100.733L96.0595 100.946C94.4955 106.467 92.8145 111.408 91.5243 114.968C90.8793 116.748 90.3322 118.182 89.9466 119.171C89.7538 119.665 89.6014 120.048 89.4973 120.307C89.4453 120.436 89.4053 120.535 89.3784 120.601L89.3481 120.675L89.3405 120.694L89.3386 120.698L89.3382 120.699L89.3381 120.7L89.8003 120.89L89.3381 120.7L89.0531 121.39H89.8003C94.3582 121.39 98.9878 123.075 103.135 125.972L103.223 126.034L103.329 126.054C103.479 126.082 103.667 126.139 103.896 126.215C103.958 126.236 104.023 126.258 104.089 126.28C104.259 126.338 104.443 126.401 104.622 126.455C104.872 126.531 105.143 126.601 105.407 126.631C105.666 126.659 105.963 126.654 106.239 126.536L106.247 126.533L106.254 126.529C106.706 126.319 107.103 125.922 107.42 125.557C107.584 125.369 107.738 125.176 107.877 124.999C107.905 124.964 107.931 124.93 107.957 124.897C108.066 124.758 108.162 124.635 108.252 124.528L108.253 124.526C108.957 123.678 109.618 122.776 110.271 121.886C110.664 121.351 111.054 120.82 111.448 120.307L111.449 120.306C112.782 118.555 114.127 116.804 115.473 115.052L115.477 115.047C116.821 113.297 118.166 111.545 119.5 109.794Z" stroke="#1499A2"/>
<path d="M197.862 56.4537L197.885 56.4529C203.157 56.2683 210.222 57.2849 217.696 59.0098L217.762 59.0251L217.829 59.0222C219.041 58.9707 219.969 58.5536 220.65 57.8873C221.322 57.2302 221.719 56.3649 221.944 55.4673L222.119 54.7696L221.404 54.8489C221.019 54.8916 220.682 54.8916 220.297 54.8489L220.282 54.8472L220.267 54.8465C216.696 54.6694 213.501 52.5435 211.147 49.0958C208.793 45.648 207.306 40.9096 207.168 35.6181L206.48 35.5156L206.433 35.5085L206.196 35.4731C206.201 35.4673 206.216 35.4522 206.242 35.4346C206.256 35.4245 206.281 35.4093 206.316 35.3957C206.338 35.3868 206.372 35.3756 206.415 35.3694C206.435 35.3665 206.457 35.3647 206.48 35.3647H206.447L206.414 35.3691C206.393 35.3719 206.392 35.3708 206.393 35.3699C206.393 35.3695 206.394 35.3691 206.394 35.369C206.373 35.35 206.328 35.291 206.279 35.1537C206.19 34.905 206.148 34.5836 206.104 34.2495C206.099 34.2061 206.093 34.1625 206.087 34.1188C205.859 32.2995 205.903 28.5112 206.09 25.7156M197.862 56.4537L205.591 25.6803M197.862 56.4537L197.84 56.4524M197.862 56.4537L197.84 56.4524M206.09 25.7156C206.09 25.7149 206.09 25.7143 206.09 25.7137L205.591 25.6803M206.09 25.7156C206.09 25.7157 206.09 25.7159 206.09 25.716L205.591 25.6803M206.09 25.7156C206.588 18.7607 212.771 12.1284 219.936 11.1326L221.569 10.9057L220.085 10.1873C218.53 9.43379 217.274 8.4764 216.675 7.35868C216.381 6.8097 216.243 6.22003 216.304 5.58002C216.365 4.93617 216.63 4.21038 217.19 3.39995L217.194 3.39359C217.775 2.52413 218.753 1.82924 220.003 1.3389L220.008 1.33696C222.607 0.285927 226.133 0.216426 228.864 1.17581C230.226 1.65381 231.352 2.37384 232.076 3.31365C232.79 4.24042 233.137 5.41137 232.901 6.86667L232.901 6.87129C232.604 8.81507 231.107 10.4676 229.257 11.3028L228.185 11.7868L229.278 12.2229C229.721 12.3998 230.169 12.6232 230.578 12.8499L230.581 12.8517C231.065 13.1152 231.51 13.4254 231.918 13.7419L231.942 13.7605L231.968 13.7761C235.593 15.9423 238.456 18.5604 240.22 21.6975C241.98 24.8256 242.666 28.5025 241.89 32.8333L241.89 32.834C241.385 35.6731 240.328 38.4325 239.204 41.1887L239.203 41.1914C238.726 42.3826 238.009 43.2129 237.193 44.0167C237.003 44.2035 236.805 44.3913 236.602 44.5833C235.954 45.1972 235.261 45.8541 234.653 46.6577M205.591 25.6803C206.087 18.7544 212.005 12.1749 219.044 10.7764C219.243 10.8846 219.445 10.9882 219.65 11.0873L219.868 10.6373L219.799 10.1421C219.574 10.1733 219.35 10.2097 219.127 10.2512C216.35 8.68874 214.581 6.29815 216.778 3.11584C217.434 2.13477 218.51 1.38729 219.821 0.873403C225.25 -1.32231 234.425 0.593099 233.395 6.94666C233.1 8.87893 231.746 10.509 230.047 11.4634C229.915 11.4042 229.782 11.3475 229.649 11.2942L229.463 11.7586L229.669 12.2143C229.802 12.1541 229.934 12.0901 230.064 12.0223C230.326 12.1467 230.581 12.2796 230.821 12.4126C231.335 12.6929 231.804 13.0199 232.225 13.3469C239.574 17.7384 243.974 24.0452 242.382 32.9215C241.867 35.818 240.791 38.621 239.667 41.3774C239.027 42.974 237.99 43.9573 236.925 44.9662C236.277 45.5809 235.618 46.2052 235.033 46.9834M234.653 46.6577C234.662 46.6482 234.671 46.6388 234.68 46.6296L235.033 46.9834M234.653 46.6577C234.596 46.7172 234.545 46.7809 234.509 46.8264L234.503 46.8342C234.451 46.8982 234.423 46.9332 234.399 46.9566L234.255 47.1003L234.252 47.3036C234.206 50.7456 234.321 54.6481 235.072 58.0012C235.818 61.3332 237.222 64.2635 239.869 65.5589L239.887 65.5677L239.905 65.575C244.999 67.5804 249.511 69.6249 252.661 71.4741L252.684 71.4878L252.709 71.4989C257.562 73.6815 260.919 79.895 262.856 88.9288C264.784 97.9217 265.268 109.541 264.526 122.269C263.043 147.723 256.664 177.493 247.259 199.318L247.236 199.372L247.226 199.43C245.357 210.155 242.74 220.849 240.589 228.865C239.513 232.872 238.555 236.208 237.865 238.542C237.521 239.709 237.243 240.625 237.052 241.25C236.957 241.562 236.882 241.801 236.832 241.962L236.776 242.144L236.761 242.19L236.758 242.201L236.757 242.204L236.757 242.205C236.756 242.205 236.756 242.205 237.233 242.355M234.653 46.6577C234.646 46.6662 234.64 46.6746 234.634 46.6831L235.033 46.9834M235.033 46.9834C234.986 47.0302 234.94 47.0886 234.893 47.147C234.846 47.2054 234.799 47.2637 234.752 47.3105C234.659 54.1779 235.221 62.7272 240.089 65.1098C245.191 67.1186 249.731 69.1742 252.914 71.0429C273.275 80.1995 266.582 155.741 247.718 199.516C243.974 221.006 237.233 242.355 237.233 242.355M206.668 35.6311C206.621 35.7713 206.527 35.8647 206.48 35.8647C206.361 35.8806 206.26 35.8628 206.173 35.8191C206.171 35.7608 206.169 35.7025 206.168 35.6442L206.45 35.6368L206.48 35.636L206.668 35.6311ZM206.668 35.6311L207.142 35.7895C207.098 35.92 207.031 36.0355 206.953 36.1262C206.915 36.1712 206.865 36.2198 206.804 36.2613C206.782 36.2766 206.744 36.3006 206.693 36.3215C206.682 36.0924 206.674 35.8623 206.668 35.6311ZM221.459 55.3459C221.277 55.366 221.104 55.3774 220.933 55.3802C220.947 55.3288 220.961 55.2768 220.974 55.2244L221.459 55.3459ZM221.459 55.3459L221.514 55.8428C221.444 55.8506 221.375 55.8572 221.306 55.8626C221.364 55.6942 221.415 55.5215 221.459 55.3459ZM237.233 242.355L236.756 242.205L236.635 242.589L236.985 242.789L236.985 242.79L236.987 242.79L236.993 242.794L237.021 242.81C237.034 242.818 237.052 242.828 237.073 242.841C237.09 242.851 237.109 242.862 237.131 242.875C237.228 242.932 237.372 243.018 237.558 243.131C237.929 243.356 238.466 243.69 239.126 244.12C240.445 244.98 242.254 246.225 244.208 247.765C248.131 250.853 252.587 255.084 254.9 259.723C254.9 259.723 254.9 259.723 254.9 259.723L255.348 259.501C250.62 250.017 237.233 242.355 237.233 242.355ZM197.84 56.4524C195.482 56.3192 188.372 56.6538 180.153 64.8564C174.989 70.0103 167.279 78.2068 160.876 86.2057C157.674 90.2059 154.807 94.1461 152.749 97.6249C151.72 99.3642 150.899 100.979 150.339 102.422C149.777 103.87 149.49 105.115 149.5 106.122V106.128C149.5 108.088 150.465 110.086 151.453 111.917L151.455 111.921C152.84 114.548 154.6 117.045 156.421 119.468L197.84 56.4524ZM243.971 149.37L244.941 149.223C245.316 140.804 245.457 131.126 245.503 120.285L244.553 120.065C242.942 123.397 241.392 126.34 240.049 128.638C238.695 130.954 237.579 132.568 236.839 133.285L236.529 133.585L243.971 149.37ZM243.971 149.37C242.036 143.972 240.232 140.104 238.914 137.59C238.256 136.333 237.719 135.415 237.348 134.813C237.163 134.512 237.019 134.29 236.922 134.145C236.874 134.072 236.838 134.018 236.813 133.983L236.787 133.945L236.781 133.937L236.78 133.935L236.779 133.935L243.971 149.37ZM165.5 109.794L165.484 109.772L165.469 109.749C165.351 109.552 165.188 109.346 164.952 109.064L164.471 108.488L165.189 108.266C167.045 107.693 169.668 105.923 172.682 103.259C175.678 100.611 179.007 97.1269 182.27 93.1946L182.823 92.5289L183.124 93.34C183.142 93.3895 183.161 93.439 183.179 93.4884C183.634 94.7154 184.073 95.8997 184.75 96.872L184.751 96.8719L184.756 96.8802C185.027 97.2854 185.295 97.6413 185.606 97.9962L185.614 98.0062L185.623 98.0165C186.113 98.6395 186.652 99.1787 187.25 99.73C187.621 100.059 188.135 100.362 188.683 100.635L188.88 100.733L188.94 100.946C190.504 106.467 192.186 111.408 193.476 114.968C194.121 116.748 194.668 118.182 195.053 119.171C195.246 119.665 195.399 120.048 195.503 120.307C195.555 120.436 195.595 120.535 195.622 120.601L195.652 120.675L195.66 120.694L195.661 120.698L195.662 120.699L195.662 120.7L195.2 120.89L195.662 120.7L195.947 121.39H195.2C190.642 121.39 186.012 123.075 181.865 125.972L181.777 126.034L181.671 126.054C181.521 126.082 181.333 126.139 181.104 126.215C181.042 126.236 180.977 126.258 180.911 126.28C180.741 126.338 180.557 126.401 180.378 126.455C180.128 126.531 179.857 126.601 179.593 126.631C179.334 126.659 179.037 126.654 178.761 126.536L178.753 126.533L178.746 126.529C178.294 126.319 177.897 125.922 177.58 125.557C177.416 125.369 177.262 125.176 177.123 124.999C177.095 124.964 177.069 124.93 177.043 124.897C176.934 124.758 176.838 124.635 176.748 124.528L176.747 124.526C176.043 123.678 175.382 122.776 174.729 121.886C174.336 121.351 173.946 120.82 173.552 120.307L173.551 120.306C172.218 118.555 170.873 116.804 169.527 115.052L169.523 115.047C168.179 113.297 166.834 111.545 165.5 109.794Z" stroke="#1499A2"/>
<path d="M42 32.7864C43.8533 33.0486 45.7 28.194 51.25 37C54.2547 36.9299 52.7063 32.5077 55.4125 31.2761C58.0704 30.0666 57.2331 30.3293 59.1125 27.7537C59.727 26.9116 66.5125 28.6344 71.6 23.3508C72.0625 19.3881 73.8928 25.3422 74.8375 25.9925C77.4412 27.7849 75.941 29.2939 79 29.773" stroke="#1499A2" stroke-linecap="round"/>
<path d="M204 32C205.882 33.9601 207.766 35.8932 209.8 37.7014C210.259 38.1092 211.635 39.6472 212.452 39.7713C213.293 39.8988 214.733 39.6737 215.295 38.981C215.764 38.4027 215.397 40.4926 215.715 41.1637C216.303 42.4064 216.933 43.5519 218.157 44.2308C219.895 45.1947 221.99 46.6742 224.11 45.6985C226.308 44.6867 225.717 45.3425 227.201 47.0721C228.783 48.9165 234.566 52.3458 234.566 47.5802C234.566 45.484 238 44.7536 238 42.8384" stroke="#1499A2" stroke-linecap="round"/>
</svg>
