<svg width="58" height="46" viewBox="0 0 58 46" fill="none" xmlns="http://www.w3.org/2000/svg">
<path d="M11.967 1.68446C11.967 1.61453 11.9669 1.54459 11.8971 1.47465C9.45356 0.565481 6.24202 -0.133887 3.86827 1.40471C1.91341 2.7335 0.656727 5.11134 0.517095 7.41924C0.307646 10.986 2.05306 14.3429 3.72865 17.4901C6.59111 22.8752 9.66303 28.4701 14.9691 31.4773C17.2032 32.7362 19.7166 33.4356 22.2299 34.2049C23.0677 34.4147 23.8357 34.6944 24.6037 34.9042C29.5606 36.4428 37.8688 40.7089 42.5465 42.7371C46.4562 44.4855 50.4357 46.7235 54.6945 44.6953C59.2326 42.5273 57.4871 36.0931 54.9039 32.8061C50.715 27.491 40.0331 23.5745 34.0987 21.0568C30.957 19.728 27.6058 18.1894 25.7208 15.322" stroke="white" stroke-miterlimit="10"/>
</svg>
