<svg width="18" height="18" viewBox="0 0 18 18" fill="none" xmlns="http://www.w3.org/2000/svg">
<path d="M14.7985 1.5L13.2934 3.07687M13.2934 3.07687L15.5511 5.44217L12.9171 8.20169L10.6594 5.83639M13.2934 3.07687L10.6594 5.83639M7.56637 9.07685C7.95495 9.47853 8.26385 9.95677 8.47528 10.484C8.68672 11.0113 8.79651 11.5772 8.79834 12.1491C8.80017 12.721 8.694 13.2876 8.48594 13.8164C8.27788 14.3451 7.97205 14.8255 7.58605 15.2299C7.20005 15.6343 6.74151 15.9547 6.23683 16.1727C5.73214 16.3907 5.19129 16.5019 4.6454 16.5C4.09952 16.4981 3.55939 16.383 3.05611 16.1615C2.55284 15.94 2.09635 15.6164 1.71295 15.2093C0.958979 14.3914 0.541782 13.2961 0.551212 12.1591C0.560643 11.0221 0.995947 9.93446 1.76337 9.13046C2.53079 8.32646 3.56892 7.87041 4.65418 7.86053C5.73944 7.85065 6.78498 8.28773 7.56562 9.07764L7.56637 9.07685ZM7.56637 9.07685L10.6594 5.83639" stroke="#3B3B4A" stroke-linecap="round" stroke-linejoin="round"/>
</svg>
