<svg width="148" height="383" viewBox="0 0 148 383" fill="none" xmlns="http://www.w3.org/2000/svg">
<path d="M94.8257 61.3814L94.8029 61.3806C89.0606 61.1795 81.3677 62.2866 73.2332 64.1638L73.1672 64.179L73.0995 64.1762C71.7908 64.1206 70.7915 63.6706 70.0587 62.9539C69.3352 62.2463 68.906 61.3132 68.6626 60.3416L68.4878 59.6438L69.2027 59.7231C69.6245 59.7699 69.995 59.7699 70.4169 59.7231L70.432 59.7214L70.4472 59.7207C74.3505 59.5271 77.8384 57.2038 80.4059 53.4443C82.9733 49.6849 84.5935 44.5207 84.7442 38.756L85.4477 38.6511L85.4983 38.6435L85.7094 38.612C85.7028 38.6062 85.694 38.5992 85.6828 38.5916C85.6688 38.582 85.6447 38.5672 85.6108 38.5538C85.5889 38.5451 85.5558 38.5342 85.5136 38.528C85.4936 38.5251 85.4716 38.5233 85.4477 38.5233H85.4809L85.5137 38.5276C85.5544 38.533 85.5606 38.527 85.569 38.5191C85.5698 38.5182 85.5707 38.5174 85.5717 38.5166C85.6023 38.4888 85.6546 38.4169 85.709 38.2644C85.8073 37.9889 85.8536 37.6341 85.901 37.2714C85.9072 37.2241 85.9134 37.1766 85.9197 37.1292C86.1678 35.1453 86.12 31.0197 85.9168 27.9772M94.8257 61.3814L86.4156 27.9419M94.8257 61.3814L94.8485 61.3801M94.8257 61.3814L94.8485 61.3801M85.9168 27.9772C85.9168 27.9766 85.9167 27.9759 85.9167 27.9753L86.4156 27.9419M85.9168 27.9772C85.9168 27.9774 85.9168 27.9775 85.9168 27.9776L86.4156 27.9419M85.9168 27.9772C85.3734 20.3887 78.6289 13.1557 70.8107 12.0694L69.1781 11.8425L70.6615 11.1241C72.3578 10.3027 73.7345 9.25581 74.3928 8.02752C74.7167 7.42325 74.8684 6.77304 74.8014 6.06729C74.734 5.35769 74.4422 4.56093 73.83 3.67438L73.8256 3.66803L73.8256 3.668C73.1871 2.71216 72.1141 1.95143 70.7479 1.41583L70.743 1.41389C67.9044 0.266157 64.0569 0.190484 61.074 1.23782C59.5874 1.7598 58.3534 2.54734 57.5589 3.57864C56.7744 4.59688 56.3934 5.88328 56.6519 7.47843L56.6527 7.48306C56.9779 9.61607 58.6195 11.425 60.6429 12.3384L61.715 12.8224L60.6225 13.2585C60.1382 13.4518 59.6484 13.6958 59.2024 13.943L59.199 13.9449C58.6696 14.2331 58.1833 14.5721 57.7384 14.9174L57.7144 14.936L57.6883 14.9516C53.7392 17.3111 50.6175 20.1648 48.6924 23.5868C46.7725 26.9998 46.0238 31.011 46.8704 35.7326L46.8706 35.7333C47.4207 38.8275 48.5733 41.8338 49.7957 44.8327L49.7968 44.8354C50.3196 46.1397 51.104 47.0482 51.9947 47.9246C52.2024 48.1289 52.4188 48.334 52.6398 48.5433C53.345 49.2114 54.0964 49.9232 54.756 50.7953M86.4156 27.9419C85.8746 20.3839 79.398 13.2048 71.708 11.7121C71.5074 11.8203 71.3035 11.9243 71.0974 12.0242L70.8795 11.5741L70.9483 11.0789C71.1747 11.1104 71.4002 11.1466 71.6247 11.1876C74.6821 9.48838 76.6486 6.87576 74.2414 3.39024C73.5282 2.32278 72.3567 1.50947 70.9304 0.950323C65.0216 -1.43877 55.0377 0.645332 56.1584 7.55844C56.4818 9.67905 57.9782 11.4652 59.8499 12.4998C59.983 12.4404 60.1172 12.3835 60.2518 12.3297L60.4372 12.7941L60.2314 13.2498C60.0974 13.1893 59.9645 13.1251 59.8331 13.0574C59.531 13.1994 59.2362 13.3526 58.96 13.5057C58.3997 13.8107 57.8903 14.1666 57.4318 14.5224C49.4346 19.3006 44.6464 26.1628 46.3783 35.8209C46.9386 38.9724 48.1102 42.0223 49.3327 45.0214C50.029 46.7586 51.1581 47.8285 52.3165 48.9263C53.0224 49.5952 53.7391 50.2744 54.3755 51.1212M54.756 50.7953C54.747 50.7858 54.7379 50.7764 54.7287 50.7673L54.3755 51.1212M54.756 50.7953C54.8164 50.859 54.8717 50.9279 54.9119 50.9782L54.9185 50.9864C54.9739 51.0555 55.0069 51.0956 55.0344 51.1231L55.1784 51.2668L55.1811 51.4702C55.2322 55.2145 55.106 59.4565 54.2904 63.0996C53.4795 66.7217 51.9554 69.8928 49.094 71.293L49.076 71.3018L49.0574 71.3091C43.5138 73.4915 38.6009 75.7169 35.1703 77.7307L35.147 77.7444L35.1223 77.7555C29.8196 80.1398 26.1629 86.9203 24.0549 96.7514C21.9556 106.542 21.4289 119.189 22.2362 133.039C23.8507 160.739 30.7933 193.136 41.0305 216.889L41.0538 216.943L41.0639 217.001C43.0979 228.672 45.9464 240.309 48.2875 249.032C49.4578 253.392 50.5008 257.023 51.2512 259.563C51.6264 260.832 51.9283 261.83 52.1364 262.509C52.2404 262.849 52.321 263.109 52.3755 263.284L52.4374 263.482L52.4531 263.532L52.457 263.545L52.458 263.548L52.4582 263.549C52.4582 263.549 52.4583 263.549 51.9815 263.699M54.756 50.7953C54.7624 50.8038 54.7688 50.8123 54.7752 50.8208L54.3755 51.1212M54.3755 51.1212C54.4265 51.172 54.4774 51.2356 54.5284 51.2991C54.5793 51.3626 54.6302 51.4262 54.6812 51.477C54.7831 58.9493 54.1718 68.2515 48.8742 70.8439C43.322 73.0296 38.381 75.2662 34.9172 77.2995C12.7592 87.2625 20.0433 169.457 40.5713 217.087C44.6464 240.469 51.9815 263.699 51.9815 263.699M85.244 38.7691C85.2949 38.9216 85.3968 39.0233 85.4477 39.0233C85.5574 39.0378 85.6533 39.0263 85.7377 38.9935C85.7399 38.9231 85.742 38.8527 85.7438 38.7822L85.4807 38.7753L85.4477 38.7744L85.244 38.7691ZM85.244 38.7691L84.7698 38.9275C84.8154 39.0642 84.8855 39.1848 84.9666 39.2791C85.0067 39.3259 85.0579 39.3759 85.1203 39.4184C85.1413 39.4326 85.1745 39.4537 85.2183 39.4733C85.2292 39.2396 85.2378 39.0048 85.244 38.7691ZM69.1476 60.2201C69.329 60.2402 69.5024 60.2523 69.6742 60.2565C69.6597 60.2043 69.6459 60.1517 69.6326 60.0986L69.1476 60.2201ZM69.1476 60.2201L69.0925 60.717C69.1619 60.7247 69.2304 60.7313 69.2982 60.7369C69.2415 60.5681 69.1915 60.3955 69.1476 60.2201ZM51.9815 263.699L52.4583 263.549L52.5796 263.933L52.2298 264.133L52.2295 264.133L52.2278 264.134L52.2205 264.139L52.1905 264.156C52.1637 264.172 52.1234 264.195 52.0703 264.226C51.9642 264.289 51.8072 264.382 51.605 264.505C51.2007 264.751 50.616 265.114 49.8978 265.582C48.461 266.519 46.4918 267.874 44.3635 269.55C40.0939 272.912 35.238 277.52 32.7163 282.577L32.2684 282.355C37.4132 272.036 51.9815 263.699 51.9815 263.699ZM94.8485 61.3801C97.4252 61.2345 105.176 61.6021 114.129 70.537C119.75 76.1456 128.141 85.0651 135.11 93.7701C138.596 98.1235 141.717 102.412 143.958 106.2C145.079 108.094 145.974 109.853 146.584 111.426C147.197 113.004 147.511 114.364 147.5 115.469V115.474C147.5 117.619 146.444 119.803 145.369 121.794L145.367 121.798C143.858 124.659 141.942 127.378 139.96 130.016L94.8485 61.3801ZM44.6077 162.51L43.6375 162.363C43.2295 153.203 43.0767 142.673 43.0258 130.878L43.9759 130.658C45.7293 134.285 47.4168 137.488 48.8793 139.99C50.3521 142.509 51.5697 144.27 52.3803 145.055L52.6895 145.354L44.6077 162.51ZM44.6077 162.51C46.7139 156.635 48.6784 152.424 50.113 149.687C50.8303 148.319 51.4152 147.318 51.819 146.663C52.021 146.335 52.1777 146.093 52.2831 145.934C52.3357 145.855 52.3756 145.796 52.4019 145.758L52.431 145.716L52.4378 145.707L52.4393 145.705L52.4394 145.704L44.6077 162.51ZM130.009 119.437L130.025 119.415L130.04 119.392C130.17 119.175 130.35 118.947 130.606 118.641L131.087 118.065L130.37 117.843C128.34 117.216 125.479 115.285 122.2 112.386C118.937 109.503 115.313 105.71 111.76 101.43L111.207 100.765L110.906 101.576C110.886 101.63 110.866 101.685 110.846 101.739C110.352 103.072 109.872 104.366 109.131 105.428L109.131 105.428L109.126 105.437C108.83 105.879 108.538 106.268 108.198 106.656L108.189 106.666L108.181 106.676C107.645 107.357 107.056 107.945 106.405 108.546C105.996 108.908 105.433 109.239 104.836 109.537L104.638 109.635L104.578 109.848C102.875 115.857 101.046 121.234 99.6415 125.108C98.9394 127.045 98.3439 128.606 97.9242 129.682C97.7143 130.22 97.5484 130.637 97.4351 130.919C97.3784 131.059 97.3349 131.167 97.3056 131.239L97.2726 131.32L97.2643 131.34L97.2622 131.345L97.2617 131.346L97.2616 131.346L97.7238 131.537L97.2616 131.346L96.9766 132.037H97.7238C102.695 132.037 107.742 133.873 112.26 137.03L112.349 137.092L112.455 137.112C112.621 137.143 112.828 137.206 113.078 137.289C113.145 137.311 113.216 137.336 113.289 137.36C113.474 137.423 113.673 137.491 113.866 137.55C114.137 137.632 114.43 137.708 114.712 137.739C114.991 137.77 115.306 137.763 115.596 137.639L115.603 137.636L115.61 137.632C116.094 137.407 116.521 136.982 116.865 136.586C117.043 136.382 117.21 136.172 117.361 135.98C117.391 135.942 117.42 135.905 117.448 135.869C117.566 135.718 117.672 135.584 117.77 135.466L117.771 135.465C118.536 134.543 119.254 133.564 119.964 132.596C120.392 132.014 120.816 131.435 121.246 130.876L121.247 130.874C122.697 128.97 124.16 127.067 125.623 125.162L125.627 125.157C127.091 123.251 128.556 121.344 130.009 119.437Z" stroke="#1499A2"/>
</svg>
