<svg width="22" height="22" viewBox="0 0 22 22" fill="none" xmlns="http://www.w3.org/2000/svg">
<g clip-path="url(#clip0_923_8459)">
<path d="M15.3998 0.0371094H6.60022C2.96086 0.0371094 1.37363e-09 2.99797 1.37363e-09 6.63737V10.7136C-4.31359e-05 11.9624 1.01593 12.9783 2.26471 12.9783H2.58824V13.6254C2.94317 24.7451 19.0605 24.7369 19.4118 13.6254V12.9783H19.7353C20.984 12.9783 22 11.9624 22 10.7136V6.63737C22 2.99797 19.0391 0.0371094 15.3998 0.0371094ZM6.60022 1.33123H15.3998C18.3256 1.33123 20.7059 3.71159 20.7059 6.63737V8.66784C20.0987 8.37856 19.6064 8.46419 19.4118 8.44888V5.21358H18.1176C18.1176 6.57275 17.0283 6.99135 16.1765 7.11072V5.21358H14.8824C14.8824 6.57275 13.793 6.99135 12.9412 7.11072V5.21358H11.6471C11.6471 6.57275 10.5577 6.99135 9.70588 7.11072V5.21358H8.41177C8.41177 6.9656 6.60173 7.15476 5.82353 7.15476H2.58824V8.44888C2.38963 8.46454 1.90033 8.37904 1.29412 8.66784V6.63737C1.29412 3.71159 3.67443 1.33123 6.60022 1.33123ZM2.26471 11.6842C0.981675 11.6432 0.982624 9.78354 2.26471 9.74299H2.58824V11.6842H2.26471ZM18.1176 13.6254C17.8173 23.0343 4.17957 23.0274 3.88235 13.6254C3.88235 13.022 3.88235 9.23596 3.88235 8.44888H5.82353C6.85244 8.44888 7.7443 8.20925 8.41177 7.75605V8.44888C8.74051 8.41821 10.3614 8.62893 11.6471 7.75605V8.44888C11.9758 8.41821 13.5967 8.62893 14.8824 7.75605V8.44888C15.2111 8.41821 16.832 8.62893 18.1176 7.75605V13.6254ZM19.7353 11.6842H19.4118V9.74299H19.7353C21.0183 9.78393 21.0174 11.6436 19.7353 11.6842Z" fill="#1499A2"/>
<path d="M9.72 9.74316H8.42588C8.42588 10.1 8.13561 10.3902 7.77882 10.3902H5.83765V14.9196H7.13176V11.6843H7.77882C8.84923 11.6843 9.72 10.8135 9.72 9.74316Z" fill="#1499A2"/>
<path d="M13.5734 9.74316H12.2793C12.2793 10.8135 13.1501 11.6843 14.2205 11.6843H14.8675V14.9196H16.1616V10.3902H14.2205C13.8636 10.3902 13.5734 10.1 13.5734 9.74316Z" fill="#1499A2"/>
<path d="M11.0003 15.8682C9.57319 15.8682 8.41211 17.0292 8.41211 18.4564H9.70623C9.76084 16.7457 12.2404 16.7469 12.2945 18.4564H13.5886C13.5886 17.0292 12.4275 15.8682 11.0003 15.8682Z" fill="#1499A2"/>
<path d="M10.3535 12.3311H11.6476V14.2722H10.3535V12.3311Z" fill="#1499A2"/>
</g>
<defs>
<clipPath id="clip0_923_8459">
<rect width="22" height="22" fill="white"/>
</clipPath>
</defs>
</svg>
