<svg width="15" height="21" viewBox="0 0 15 21" fill="none" xmlns="http://www.w3.org/2000/svg">
<path d="M8.36978 21C7.51775 21 6.8662 20.3484 6.8662 19.4964V13.1313L5.51298 14.1337L6.41512 14.685C6.56548 14.7852 6.66572 14.9857 6.56548 15.1862C6.46524 15.3365 6.26477 15.4368 6.06429 15.3365L4.96166 14.685C4.81131 14.5847 4.71107 14.4344 4.71107 14.2339C4.71107 14.0334 4.76118 13.8831 4.91154 13.7828L7.01656 12.2291C7.1168 12.1289 7.26716 12.1289 7.36739 12.179C7.46763 12.2291 7.56787 12.3795 7.56787 12.4797V19.5465C7.56787 19.9976 7.91871 20.3484 8.36978 20.3484C8.82086 20.3484 9.17169 19.9976 9.17169 19.5465V14.4845C9.17169 14.4344 9.17169 14.4344 9.17169 14.3842V7.01671C9.17169 6.91647 9.22181 6.76611 9.32205 6.71599L11.9282 4.96181C12.0786 4.86158 12.229 4.6611 12.2791 4.46062L13.2815 1.35322C13.3316 1.20287 13.2815 1.00239 13.2314 0.902149C13.1311 0.751791 12.9808 0.701671 12.8304 0.701671C12.5798 0.701671 12.3793 0.852028 12.3292 1.05251L11.5273 3.65871C11.4271 3.95943 11.2266 4.21003 10.976 4.4105L8.97121 5.66349C8.82085 5.76372 8.57026 5.7136 8.47002 5.56324C8.36978 5.41289 8.4199 5.16229 8.57026 5.06205L10.575 3.80907C10.7254 3.70883 10.7755 3.60859 10.8256 3.45823L11.6275 0.852031C11.7779 0.350838 12.2791 0 12.7803 0C13.1812 0 13.5321 0.200477 13.7827 0.501193C14.0333 0.801909 14.0834 1.20287 13.9831 1.60382L12.9808 4.71122C12.8805 5.06205 12.6299 5.36277 12.3292 5.56324L9.87336 7.21718V14.4845C9.87336 14.5346 9.87336 14.5346 9.87336 14.5847V19.5465C9.87336 20.2983 9.22181 21 8.36978 21ZM5.66333 17.2912C5.61321 17.2912 5.51298 17.2912 5.46286 17.2411L2.65617 15.1862C2.35546 14.9857 2.15498 14.6348 2.10486 14.284C2.05475 13.9332 2.15498 13.5322 2.40558 13.2816L4.05952 11.327C4.36023 10.9761 4.51059 10.5251 4.51059 10.1241V7.21718L2.05474 5.56324C1.75403 5.36277 1.50343 5.06205 1.40319 4.71122L0.400803 1.60382C0.300564 1.20287 0.350688 0.801909 0.601285 0.501193C0.851882 0.200477 1.20272 0 1.60367 0C2.15498 0 2.60606 0.350838 2.75642 0.852031L3.55832 3.45823C3.60844 3.60859 3.70868 3.70883 3.80892 3.80907L5.81369 5.06205C5.96405 5.16229 6.01417 5.36277 5.91393 5.56324C5.81369 5.7136 5.61321 5.76372 5.41274 5.66349L3.40796 4.4105C3.15737 4.26014 2.90677 3.95943 2.85665 3.65871L2.05474 1.05251C2.00462 0.852028 1.80415 0.701671 1.55355 0.701671C1.40319 0.701671 1.25283 0.801911 1.15259 0.902149C1.05235 1.05251 1.00224 1.20287 1.10248 1.35322L2.10486 4.46062C2.15498 4.6611 2.30534 4.81146 2.4557 4.96181L5.0619 6.71599C5.16214 6.76611 5.21226 6.91647 5.21226 7.01671V10.1241C5.21226 10.7255 5.01179 11.327 4.61083 11.8282L2.95689 13.7828C2.85665 13.9332 2.80653 14.0835 2.80653 14.284C2.80653 14.4845 2.90677 14.6348 3.05713 14.7351L5.86381 16.79C6.01417 16.8902 6.06429 17.1408 5.96405 17.2912C5.86381 17.241 5.76357 17.2912 5.66333 17.2912Z" fill="#1499A2"/>
<path d="M6.21448 17.4914C5.96388 17.4914 5.71329 17.4413 5.46269 17.291L5.26221 17.1406C5.11186 17.0404 5.06173 16.8399 5.16197 16.6394C5.26221 16.4891 5.51281 16.4389 5.66316 16.5392L5.86364 16.6895C6.06412 16.8399 6.31472 16.8399 6.5152 16.7396C6.71568 16.6394 6.86603 16.3888 6.86603 16.1382C6.86603 15.8876 6.76579 15.6871 6.56531 15.5869L5.71329 15.0857C5.56293 14.9855 5.51281 14.785 5.61305 14.5845C5.71329 14.4342 5.91376 14.384 6.11424 14.4843L6.96627 14.9855C7.36722 15.2361 7.61782 15.6871 7.61782 16.1382C7.61782 16.6394 7.36722 17.0905 6.91615 17.3411C6.66555 17.3912 6.41496 17.4914 6.21448 17.4914Z" fill="#1499A2"/>
<path d="M7.21758 4.31025C6.21519 4.31025 5.41328 3.50834 5.41328 2.50596C5.41328 1.50357 6.21519 0.70166 7.21758 0.70166C8.21997 0.70166 9.02188 1.50357 9.02188 2.50596C9.072 3.50834 8.21997 4.31025 7.21758 4.31025ZM7.21758 1.40333C6.61615 1.40333 6.11496 1.90452 6.11496 2.50596C6.11496 3.10739 6.61615 3.60858 7.21758 3.60858C7.81901 3.60858 8.3202 3.10739 8.3202 2.50596C8.37032 1.90452 7.81901 1.40333 7.21758 1.40333Z" fill="#1499A2"/>
<path d="M14.1336 21H0.350834C0.150356 21 0 20.8497 0 20.6492C0 20.4487 0.150356 20.2983 0.350834 20.2983H14.1336C14.3341 20.2983 14.4845 20.4487 14.4845 20.6492C14.4845 20.8497 14.284 21 14.1336 21Z" fill="#1499A2"/>
</svg>
