<svg width="20" height="21" viewBox="0 0 20 21" fill="none" xmlns="http://www.w3.org/2000/svg">
<g clip-path="url(#clip0_943_3758)">
<path d="M11.1932 16.1144L9.88277 15.0537L8.5726 16.1144L7.61487 15.3389L6.91016 16.3215L8.5726 17.6674L9.88285 16.6067L11.1932 17.6674L12.8558 16.3215L12.1513 15.3389L11.1932 16.1144Z" fill="#1499A2"/>
<path d="M9.30078 11.7412H10.4634V13.5942H9.30078V11.7412Z" fill="#1499A2"/>
<path d="M7.24522 8.73034L6.2251 9.36129L6.73312 10.3063L5.82069 10.8706L6.38866 11.9271L8.32129 10.7318L7.24522 8.73034Z" fill="#1499A2"/>
<path d="M12.52 8.72972L11.4439 10.7312L13.3765 11.9264L13.9445 10.87L13.0321 10.3056L13.5401 9.36067L12.52 8.72972Z" fill="#1499A2"/>
<path d="M9.88235 0.00585938C4.41346 0.00585938 0 4.71698 0 10.5059V12.3588C0 16.0475 2.54329 19.1312 5.90209 19.6829C8.17193 21.4439 11.6141 21.419 13.853 19.6844C17.2313 19.1346 19.7647 16.0352 19.7647 12.3588V10.5059C19.7647 4.70241 15.3452 0.00585938 9.88235 0.00585938ZM1.16263 12.3588V10.5059C1.16263 7.45073 2.59495 4.58942 4.94288 2.86981C5.29299 3.74094 5.8357 4.50414 6.53169 5.10281C6.29277 5.2384 6.04087 5.34892 5.77781 5.43345C4.08862 5.9762 2.90657 7.63084 2.90657 9.54315V13.5941C2.90657 15.0837 3.31741 16.506 4.0818 17.7151C2.32762 16.6395 1.16263 14.6211 1.16263 12.3588ZM4.0692 13.5941V9.54315C4.0692 8.18532 4.89107 7.00895 6.11431 6.61584C6.65691 6.44154 7.16238 6.18068 7.6217 5.83847C8.14411 6.10792 8.69988 6.2884 9.27891 6.37627L13.2245 6.97498C14.6332 7.18872 15.6955 8.49023 15.6955 10.0023V13.5941C15.4527 21.7559 4.30406 21.7583 4.0692 13.5941ZM18.6021 12.3588C18.6021 14.6248 17.4333 16.6463 15.6743 17.7205C16.4215 16.5402 16.8581 15.1203 16.8581 13.5941V10.0023C16.8581 7.86451 15.3771 6.05382 13.3889 5.75208L9.44323 5.15337C8.88137 5.06814 8.3471 4.87292 7.85523 4.57315C7.82241 4.54429 6.55433 3.88752 5.95329 2.23277C11.5489 -0.919458 18.7524 3.7444 18.6021 10.5059V12.3588Z" fill="#1499A2"/>
</g>
<defs>
<clipPath id="clip0_943_3758">
<rect width="19.7647" height="21" fill="white"/>
</clipPath>
</defs>
</svg>
