<svg width="15" height="16" viewBox="0 0 15 16" fill="none" xmlns="http://www.w3.org/2000/svg">
<path d="M3.33403 10.5157V14.8761" stroke="#1499A2" stroke-width="0.9" stroke-linecap="round" stroke-linejoin="round"/>
<path d="M1.73348 10.1803H1.09315C0.772983 10.1803 0.452816 9.87843 0.452816 9.50947V7.16157C0.452816 5.48449 1.09315 4.81366 2.69398 4.81366H3.97465C5.57548 4.81366 8.77715 4.81366 8.77715 4.81366C9.41748 4.81366 8.77715 6.15532 8.13682 6.15532H4.93515V14.8761C4.93515 15.2451 4.647 15.5469 4.29482 15.5469H3.97465C3.62247 15.5469 3.33432 15.2451 3.33432 14.8761C3.33432 15.2451 3.04617 15.5469 2.69398 15.5469H2.37382C2.02163 15.5469 1.73348 15.2451 1.73348 14.8761V7.8324" stroke="#1499A2" stroke-width="0.9" stroke-linecap="round" stroke-linejoin="round"/>
<path d="M10.3779 4.81366C10.6981 4.81366 10.634 4.81366 11.0182 4.81366H12.2989C13.8997 4.81366 14.5401 5.48449 14.5401 7.16157V9.50947C14.5401 9.87843 14.2199 10.1803 13.8997 10.1803H13.2594" stroke="#1499A2" stroke-width="0.9" stroke-linecap="round" stroke-linejoin="round"/>
<path d="M10.0587 10.1795H9.41842C9.09825 10.1795 8.77808 9.87765 8.77808 9.5087V7.16079" stroke="#1499A2" stroke-width="0.9" stroke-linecap="round" stroke-linejoin="round"/>
<path d="M11.6593 10.5157V14.8761" stroke="#1499A2" stroke-width="0.9" stroke-linecap="round" stroke-linejoin="round"/>
<path d="M13.2592 7.83196V14.8757C13.2592 15.2446 12.971 15.5465 12.6189 15.5465H12.2987C11.9465 15.5465 11.6584 15.2446 11.6584 14.8757C11.6584 15.2446 11.3702 15.5465 11.018 15.5465H10.6979C10.3457 15.5465 10.0575 15.2446 10.0575 14.8757V7.83196" stroke="#1499A2" stroke-width="0.9" stroke-linecap="round" stroke-linejoin="round"/>
<path d="M4.61395 1.76113C4.61395 1.05676 4.03765 0.453016 3.33329 0.453016C2.62892 0.453016 2.05262 1.02322 2.05262 1.76113V2.19718C2.05262 2.90155 2.62892 3.5053 3.33329 3.5053C4.03765 3.5053 4.61395 2.93509 4.61395 2.19718V1.76113Z" stroke="#1499A2" stroke-width="0.9" stroke-linecap="round" stroke-linejoin="round"/>
<path d="M12.9392 1.76113C12.9392 1.05676 12.3629 0.453016 11.6586 0.453016C10.9542 0.453016 10.3779 1.02322 10.3779 1.76113V2.19718C10.3779 2.90155 10.9542 3.5053 11.6586 3.5053C12.3629 3.5053 12.9392 2.93509 12.9392 2.19718V1.76113Z" stroke="#1499A2" stroke-width="0.9" stroke-linecap="round" stroke-linejoin="round"/>
</svg>
