<svg width="21" height="22" viewBox="0 0 21 22" fill="none" xmlns="http://www.w3.org/2000/svg">
<path d="M6.66938 17.9395C7.66867 18.8278 8.94553 19.3274 10.3334 19.3274C11.7213 19.3274 12.9982 18.8278 13.9975 17.9395" stroke="#1499A2" stroke-width="0.9" stroke-miterlimit="10" stroke-linecap="round" stroke-linejoin="round"/>
<path d="M12.9981 12.7216C12.332 13.3878 11.4437 13.832 10.4444 13.832C9.38962 13.832 8.39033 13.3323 7.77966 12.6106" stroke="#1499A2" stroke-width="0.9" stroke-miterlimit="10" stroke-linecap="round" stroke-linejoin="round"/>
<path d="M4.89324 11.5555C5.17081 14.3868 7.55799 16.5519 10.4448 16.5519C13.3316 16.5519 15.7188 14.3868 15.9964 11.5555" stroke="#1499A2" stroke-width="0.9" stroke-miterlimit="10" stroke-linecap="round" stroke-linejoin="round"/>
<path d="M7.1139 15.4414V16.6072C7.1139 17.4954 6.39219 18.2171 5.50394 18.2171H3.78295C1.95093 18.2171 0.452008 19.7161 0.452008 21.5481" stroke="#1499A2" stroke-width="0.9" stroke-miterlimit="10" stroke-linecap="round" stroke-linejoin="round"/>
<path d="M20.4377 21.5481C20.4377 19.7161 18.9388 18.2171 17.1068 18.2171H15.3858C14.4975 18.2171 13.7758 17.4954 13.7758 16.6072V15.4414" stroke="#1499A2" stroke-width="0.9" stroke-miterlimit="10" stroke-linecap="round" stroke-linejoin="round"/>
<path d="M4.89329 7.66917H3.67195C3.39437 7.66917 3.22782 7.89123 3.22782 8.11329V11.0556C3.22782 11.6108 3.67195 12.1104 4.28262 12.1104H4.89329" stroke="#1499A2" stroke-width="0.9" stroke-miterlimit="10" stroke-linecap="round" stroke-linejoin="round"/>
<path d="M15.9964 7.66917H17.2177C17.4953 7.66917 17.6618 7.89123 17.6618 8.11329V11.0556C17.6618 11.6108 17.2177 12.1104 16.607 12.1104H15.9964" stroke="#1499A2" stroke-width="0.9" stroke-miterlimit="10" stroke-linecap="round" stroke-linejoin="round"/>
<path d="M4.89324 8.77961V3.7832C4.89324 1.95118 6.39216 0.452253 8.22418 0.452253H12.6654C14.4975 0.452253 15.9964 1.95118 15.9964 3.7832V8.77961" stroke="#1499A2" stroke-width="0.9" stroke-miterlimit="10" stroke-linecap="round" stroke-linejoin="round"/>
<path d="M15.9964 4.89336H9.33454C8.11319 4.89336 7.11391 5.89264 7.11391 7.11399" stroke="#1499A2" stroke-width="0.9" stroke-miterlimit="10" stroke-linecap="round" stroke-linejoin="round"/>
</svg>
