<svg width="31" height="21" viewBox="0 0 31 21" fill="none" xmlns="http://www.w3.org/2000/svg">
<path d="M26.65 16.252H21.274C21.0021 16.252 20.772 16.0219 20.772 15.75C20.772 15.4781 21.0021 15.248 21.274 15.248H26.65C28.2608 15.248 29.5786 13.9303 29.5786 12.3197C29.5786 10.7092 28.2608 9.39144 26.65 9.39144C26.3781 9.39144 26.1271 9.43327 25.8551 9.49602C25.7087 9.53785 25.5413 9.51693 25.4158 9.41235C25.2903 9.30777 25.2276 9.16135 25.2276 8.99402V8.91035C25.2276 6.56772 23.3449 4.68526 21.0439 4.68526C20.0189 4.68526 19.0357 5.06176 18.2827 5.73108C18.1572 5.83566 17.9898 5.87749 17.8434 5.83566C17.676 5.79383 17.5505 5.68924 17.4878 5.54283C17.0276 4.41335 15.9398 3.68127 14.7265 3.68127C14.4128 3.68127 14.099 3.72309 13.7852 3.82767C13.5551 3.91134 13.2832 3.78585 13.1786 3.57669C12.4255 1.98705 10.7939 0.983057 9.05767 0.983057C6.52654 0.983057 4.47654 3.03286 4.47654 5.56374C4.47654 6.06573 4.56023 6.54681 4.72757 7.02788C4.76941 7.1743 4.74848 7.3207 4.68572 7.46712C4.60205 7.59262 4.47655 7.67628 4.33012 7.69719C2.42655 7.92727 1.00409 9.53783 1.00409 11.4621C1.00409 13.5538 2.69848 15.248 4.79031 15.248H7.46788C7.73982 15.248 7.96992 15.4781 7.96992 15.75C7.96992 16.0219 7.73982 16.252 7.46788 16.252H4.79031C2.1546 16.252 0 14.0976 0 11.4621C0 9.245 1.52705 7.34163 3.6398 6.81872C3.55613 6.42131 3.49338 6.00298 3.49338 5.58465C3.49338 2.50995 6.00358 0 9.07858 0C11.0658 0 12.9276 1.08765 13.9107 2.80279C14.1827 2.74004 14.4755 2.71912 14.7475 2.71912C16.149 2.71912 17.425 3.45119 18.1572 4.6225C19.0148 4.03685 20.0398 3.70218 21.0857 3.70218C23.7842 3.70218 26.0015 5.7729 26.2526 8.40835C26.399 8.38744 26.5454 8.38744 26.6919 8.38744C28.8674 8.38744 30.6245 10.1444 30.6245 12.3197C30.5827 14.495 28.8256 16.252 26.65 16.252Z" fill="#1499A2"/>
<path d="M6.21254 7.92713C6.14979 7.92713 6.08702 7.92711 6.04519 7.90619C5.29212 7.63428 4.43447 7.61338 3.66049 7.82254C3.38855 7.90621 3.11661 7.73886 3.03293 7.48786C2.94926 7.21595 3.11663 6.94404 3.36765 6.86037C4.35081 6.56754 5.41763 6.60938 6.37987 6.94404C6.6309 7.04862 6.77733 7.32053 6.67274 7.59244C6.60998 7.80161 6.42173 7.92713 6.21254 7.92713Z" fill="#1499A2"/>
<path d="M14.0364 5.24985C13.7854 5.24985 13.5762 5.08251 13.5344 4.83152C13.4088 4.07853 13.0951 3.34646 12.6139 2.73989C12.4466 2.53072 12.4884 2.21697 12.6976 2.02873C12.9068 1.86139 13.2415 1.88232 13.4088 2.1124C13.9946 2.84447 14.392 3.74386 14.5384 4.66418C14.5803 4.93609 14.392 5.1871 14.1201 5.24985C14.0991 5.24985 14.0573 5.24985 14.0364 5.24985Z" fill="#1499A2"/>
<path d="M16.9229 7.13226C16.8392 7.13226 16.7556 7.11133 16.6719 7.0695C16.4209 6.944 16.3372 6.63027 16.4836 6.37928C17.0066 5.43804 17.8224 4.66414 18.8055 4.18306C19.0566 4.05756 19.3494 4.16214 19.4749 4.41314C19.6005 4.66413 19.4958 4.95695 19.2448 5.08245C18.4499 5.45894 17.8015 6.08644 17.3831 6.83942C17.2785 7.04859 17.1112 7.13226 16.9229 7.13226Z" fill="#1499A2"/>
<path d="M24.4955 10.1441C24.3491 10.1441 24.2026 10.0814 24.098 9.95588C23.9307 9.74671 23.9516 9.43296 24.1817 9.24472C24.9975 8.59631 26.0643 8.28257 27.0893 8.40806C27.3613 8.42898 27.5705 8.67999 27.5286 8.97282C27.5077 9.24473 27.2358 9.45389 26.9639 9.41206C26.1899 9.32839 25.4159 9.55847 24.8093 10.0395C24.7256 10.1023 24.621 10.1441 24.4955 10.1441Z" fill="#1499A2"/>
<path d="M12.802 15.0601C11.8398 15.0601 11.0449 14.3281 11.0449 13.4077C11.0449 13.3241 11.0449 13.2613 11.0658 13.1776C11.1913 11.7553 12.4045 10.5004 12.4464 10.4376C12.6346 10.2285 12.9903 10.2285 13.1785 10.4376C13.2204 10.5004 14.4127 11.7554 14.5592 13.1986C14.5592 13.2613 14.5801 13.345 14.5801 13.4077C14.5801 14.3281 13.7852 15.0601 12.802 15.0601ZM12.802 11.6089C12.5092 12.0272 12.1117 12.6757 12.049 13.3241C12.049 13.3659 12.028 13.4078 12.028 13.4287C12.028 13.7843 12.3627 14.0771 12.7811 14.0771C13.1995 14.0771 13.5342 13.7843 13.5342 13.4287C13.5342 13.4078 13.5342 13.3659 13.5342 13.345V13.3241C13.4923 12.6548 13.1158 12.0063 12.802 11.6089Z" fill="#1499A2"/>
<path d="M11.7355 21.0001C10.7732 21.0001 9.97833 20.268 9.97833 19.3477C9.97833 19.264 9.97833 19.2013 9.99925 19.1176C10.1248 17.6953 11.338 16.4403 11.3799 16.3776C11.5681 16.1684 11.9237 16.1684 12.112 16.3776C12.1538 16.4403 13.3462 17.6953 13.4926 19.1385C13.4926 19.2013 13.5135 19.2849 13.5135 19.3477C13.4926 20.2471 12.7186 21.0001 11.7355 21.0001ZM11.7355 17.528C11.4426 17.9463 11.0452 18.5947 10.9824 19.2431C10.9824 19.2849 10.9615 19.3268 10.9615 19.3477C10.9615 19.7033 11.2962 19.9961 11.7145 19.9961C12.1329 19.9961 12.4676 19.7033 12.4676 19.3477C12.4676 19.3268 12.4676 19.285 12.4676 19.264V19.2431C12.4258 18.6156 12.0493 17.9672 11.7355 17.528Z" fill="#1499A2"/>
<path d="M16.7974 19.7656C15.5214 19.7656 14.4964 18.8035 14.4964 17.6113C14.4964 17.5067 14.4964 17.423 14.5173 17.3184C14.7056 15.3523 16.3581 13.5744 16.4418 13.5116C16.5464 13.4071 16.6719 13.3652 16.7974 13.3652C16.9438 13.3652 17.0693 13.428 17.153 13.5116C17.2158 13.5953 18.8893 15.3523 19.0775 17.3393C19.0984 17.423 19.0984 17.5276 19.0984 17.6113C19.0984 18.8035 18.0734 19.7656 16.7974 19.7656ZM16.7974 14.662C16.3372 15.2477 15.6051 16.3353 15.5005 17.4648C15.5005 17.5485 15.4796 17.5903 15.4796 17.6321C15.4796 18.2596 16.0653 18.7825 16.7765 18.7825C17.4877 18.7825 18.0734 18.2596 18.0734 17.6321C18.0734 17.5903 18.0734 17.5276 18.0525 17.4857V17.4648C17.9898 16.3353 17.2576 15.2268 16.7974 14.662Z" fill="#1499A2"/>
</svg>
