<svg width="28" height="17" viewBox="0 0 28 17" fill="none" xmlns="http://www.w3.org/2000/svg">
<path d="M14.6292 16.7978C19.2506 16.7978 23.0281 13.0203 23.0281 8.39887C23.0281 3.77747 19.2506 0 14.6292 0C10.0078 0 6.23029 3.77747 6.23029 8.39887C6.23029 13.0605 10.0078 16.7978 14.6292 16.7978ZM14.6292 0.602791C18.9291 0.602791 22.4253 4.09896 22.4253 8.39887C22.4253 12.6988 18.9291 16.195 14.6292 16.195C10.3293 16.195 6.83308 12.6988 6.83308 8.39887C6.83308 4.09896 10.3293 0.602791 14.6292 0.602791Z" fill="#1499A2"/>
<path d="M14.6301 14.6669C18.0861 14.6669 20.8991 11.8539 20.8991 8.39786C20.8991 4.94186 18.0861 2.12885 14.6301 2.12885C11.1741 2.12885 8.36109 4.94186 8.36109 8.39786C8.36109 11.8539 11.1741 14.6669 14.6301 14.6669ZM14.6301 2.73164C17.7646 2.73164 20.2963 5.26335 20.2963 8.39786C20.2963 11.5324 17.7646 14.0641 14.6301 14.0641C11.4956 14.0641 8.96388 11.5324 8.96388 8.39786C8.96388 5.30353 11.4956 2.73164 14.6301 2.73164Z" fill="#1499A2"/>
<path d="M2.211 4.62227V0.844768C2.211 0.684023 2.09047 0.56346 1.92972 0.56346C1.76898 0.56346 1.64839 0.684023 1.64839 0.844768V4.62227C1.64839 4.78301 1.76898 4.90355 1.92972 4.90355C2.09047 4.90355 2.211 4.78301 2.211 4.62227Z" fill="#1499A2"/>
<path d="M3.77932 4.62227V0.844768C3.77932 0.684023 3.65873 0.56346 3.49799 0.56346C3.33724 0.56346 3.2167 0.684023 3.2167 0.844768V4.62227C3.2167 4.78301 3.33724 4.90355 3.49799 4.90355C3.65873 4.90355 3.77932 4.78301 3.77932 4.62227Z" fill="#1499A2"/>
<path d="M3.53639 7.19235C3.53639 7.11197 3.49617 7.03161 3.49617 6.95124C4.62138 6.66994 5.46529 5.78584 5.46529 4.74101V0.92333V0.802777C5.46529 0.642032 5.34476 0.521469 5.18401 0.521469C5.02327 0.521469 4.90268 0.642032 4.90268 0.802777V0.92333V4.74101C4.90268 5.66529 3.93825 6.42883 2.73267 6.42883C1.52709 6.42883 0.562615 5.66529 0.562615 4.74101V0.92333C0.562615 0.762586 0.442027 0.642023 0.281283 0.642023C0.120539 0.642023 0 0.762586 0 0.92333V4.74101C0 5.78584 0.843917 6.66994 1.96913 6.95124C1.92894 7.03161 1.92895 7.11197 1.92895 7.19235V15.752C1.92895 16.194 2.29062 16.5959 2.77285 16.5959C3.21489 16.5959 3.61675 16.2342 3.61675 15.752V7.19235H3.53639ZM2.9336 15.752C2.9336 15.8725 2.813 15.9931 2.69245 15.9931C2.57189 15.9931 2.45134 15.8725 2.45134 15.752V7.19235H2.9336V15.752Z" fill="#1499A2"/>
<path d="M27.1241 0.202176C27.0437 0.16199 26.9231 0.16198 26.8026 0.242352C26.682 0.322725 23.9895 2.33202 23.9895 5.90858C23.9895 7.55621 24.954 8.72162 25.5568 9.24404C25.5568 9.28423 25.5568 9.32441 25.5568 9.36459L25.5166 16.156C25.5166 16.6383 25.8783 16.9999 26.3605 16.9999C26.8026 16.9999 27.2044 16.6383 27.2044 16.156L27.2447 9.40477V9.36459C27.2447 9.28422 27.2446 9.20385 27.2044 9.16366C27.2848 9.12348 27.325 9.04309 27.325 8.92253V0.443283C27.2848 0.362911 27.2446 0.242362 27.1241 0.202176ZM26.3605 16.357C26.24 16.357 26.1194 16.2364 26.1194 16.1158L26.1596 9.6459C26.24 9.6459 26.3605 9.6057 26.4007 9.52532C26.4409 9.48514 26.4409 9.40478 26.4409 9.36459H26.6419L26.6016 16.156C26.6016 16.2766 26.4811 16.357 26.3605 16.357ZM26.6419 8.7618H26.1596C26.0792 8.7618 26.039 8.76179 25.9587 8.80198C25.4363 8.31975 24.5923 7.31509 24.5923 5.90858C24.5923 3.49741 25.9587 1.8498 26.7222 1.12645V8.80198C26.682 8.76179 26.6419 8.7618 26.6419 8.7618Z" fill="#1499A2"/>
</svg>
