<svg width="20" height="21" viewBox="0 0 20 21" fill="none" xmlns="http://www.w3.org/2000/svg">
<g clip-path="url(#clip0_923_11444)">
<path d="M17.7446 8.06079H17.4534V6.10713C18.1625 5.50571 18.6181 4.58042 18.6181 3.54367V0.0166016H6.54335C4.21082 0.0166016 2.31299 2.03198 2.31135 4.50992V8.06079H2.02016C-0.674339 8.15217 -0.672436 12.3019 2.02016 12.3923H2.31135V13.0111C2.63081 23.6449 17.1372 23.637 17.4534 13.0111V12.3923H17.7446C20.4391 12.3009 20.4371 8.15126 17.7446 8.06079ZM3.47612 4.5131C3.47612 2.71611 4.85207 1.25417 6.54335 1.25417H17.4534V3.54367C17.4534 4.66961 16.5912 5.58566 15.5315 5.58566H15.2234C15.5381 5.03077 15.7062 4.39375 15.7062 3.7293L14.5414 3.72935C14.5414 4.91151 13.7824 5.48974 13.7178 5.58566H12.3116C12.6262 5.03077 12.7943 4.39375 12.7943 3.7293L11.6296 3.72935C11.6296 4.91151 10.8705 5.48974 10.8059 5.58566H3.47612V4.5131ZM2.02016 11.1547C0.865371 11.1155 0.866225 9.33714 2.02016 9.29836H2.31135V11.1547H2.02016ZM16.2886 13.0111C16.0183 22.0089 3.74363 22.0022 3.47612 13.0111C3.47612 12.0199 3.47612 7.60599 3.47612 6.82322H15.5315C15.7927 6.82322 16.0462 6.78828 16.2886 6.72306V13.0111ZM17.7446 11.1547H17.4534V9.29836H17.7446C18.8993 9.33755 18.8985 11.116 17.7446 11.1547Z" fill="#1499A2"/>
<path d="M8.73064 9.91699H7.56587C7.54133 10.735 6.4254 10.7344 6.4011 9.91699H5.23633C5.31002 12.371 8.65768 12.3692 8.73064 9.91699Z" fill="#1499A2"/>
<path d="M12.794 10.5358C12.4729 10.5358 12.2116 10.2582 12.2116 9.91699H11.0469C11.1206 12.371 14.4682 12.3692 14.5412 9.91699H13.3764C13.3764 10.2582 13.1152 10.5358 12.794 10.5358Z" fill="#1499A2"/>
<path d="M9.88227 16.3938C9.24002 16.3938 8.7175 15.8386 8.7175 15.1562H7.55273C7.65104 18.4282 12.1145 18.4258 12.2118 15.1562H11.047C11.047 15.8386 10.5245 16.3938 9.88227 16.3938Z" fill="#1499A2"/>
<path d="M9.30078 11.7734H10.4656V13.6298H9.30078V11.7734Z" fill="#1499A2"/>
</g>
<defs>
<clipPath id="clip0_923_11444">
<rect width="19.7647" height="21" fill="white"/>
</clipPath>
</defs>
</svg>
