<svg width="60" height="81" viewBox="0 0 60 81" fill="none" xmlns="http://www.w3.org/2000/svg">
<path fill-rule="evenodd" clip-rule="evenodd" d="M36.2129 28.0606C42.3347 26.994 48.191 31.0163 52.5918 35.4938C57.0028 39.9818 59.6822 45.8766 59.9684 52.2306C60.2691 58.9058 58.4518 65.5297 54.1723 70.5825C49.5662 76.0209 43.2506 80.1685 36.2129 80.2787C29.0896 80.3902 21.5468 77.2773 17.6946 71.1535C14.2209 65.6314 17.1327 58.6289 18.5692 52.2306C19.5829 47.7153 21.8952 44.0833 24.6058 40.37C28.0717 35.622 30.4987 29.0563 36.2129 28.0606Z" fill="#F9F9F9"/>
<g clip-path="url(#clip0_840_4731)">
<path d="M32.9751 5.16361C31.4004 4.5899 29.7945 4.23326 28.1887 4.12472C23.1372 3.78359 17.6336 4.04719 13.237 6.80724C11.0855 8.15625 9.29253 10.203 7.62431 12.0637C5.67545 14.219 3.72659 16.7775 3.11855 19.6616C2.18309 24.2048 2.46373 29.2442 3.91368 33.6324C5.55072 38.6098 9.29253 42.9669 14.0945 45.1843C19.5201 47.6962 26.6608 47.4171 32.4294 46.4713C37.4185 45.6495 41.628 42.2692 43.686 37.6484C45.1983 34.2526 45.9467 30.2056 45.9467 26.5152C45.9311 22.4682 45.8531 18.5607 44.0602 14.8703C41.9554 10.5131 37.6991 6.88477 32.9751 5.16361Z" fill="#F9F9F9"/>
<path d="M44.6216 24.7009C44.7463 25.7398 44.7307 24.0651 44.7307 24.7009C44.7775 25.0885 44.8087 25.4762 44.8554 25.8638L44.9178 26.453L44.9646 27.0267C44.9334 26.7942 44.9178 26.6391 44.8866 26.5306C44.8554 26.422 44.8242 26.36 44.7931 26.329C44.7307 26.267 44.6839 26.329 44.6372 26.36C44.5592 26.391 44.5436 26.2825 44.6216 24.7009Z" fill="white"/>
<path d="M45.6352 28.2827C45.682 28.4223 45.7132 28.5773 45.76 28.7169C45.682 29.3526 45.417 30.5931 45.4014 29.7403C45.5105 29.3371 45.5885 28.9185 45.6352 28.2827Z" fill="white"/>
<path d="M48.628 25.7398L48.55 26.6082C48.55 26.1585 48.3629 25.9569 48.3941 25.3057L48.628 25.7398Z" fill="#F4F0ED"/>
<path d="M37.6523 4.76025C38.0733 5.02385 38.5098 5.28745 38.9152 5.58207L38.8061 5.38049C38.619 5.1479 38.4787 5.10138 38.3228 5.05487C38.1513 5.00835 37.9642 4.96183 37.6523 4.76025Z" fill="#F4F0ED"/>
<path d="M44.3248 28.8564C44.278 29.4767 44.2156 30.0969 44.1377 30.7016C44.2468 30.5776 44.3404 30.4536 44.4495 30.3295C44.5431 29.9574 44.5586 29.7403 44.5586 29.6162C44.5586 29.4922 44.5275 29.4457 44.4807 29.4147C44.4027 29.3681 44.2936 29.3681 44.3248 28.8564Z" fill="#F4F0ED"/>
<path d="M10.539 20.4525C10.5078 19.6772 9.97769 18.0181 9.12019 17.7079C8.21592 17.3978 8.21592 18.5763 8.26269 19.1035C7.65465 19.0725 7.03101 18.8864 6.73479 19.5221C6.46974 20.0958 6.93747 20.7316 7.45197 21.0107C7.91969 21.2743 10.4922 21.6154 10.539 20.4525Z" fill="#3B3B4A"/>
<path d="M47.5991 6.88446C44.247 2.66686 38.8994 -0.589378 33.3958 1.13177C30.4335 2.04662 28.547 4.6361 28.3911 7.70627C28.2196 11.2881 30.4647 13.552 31.9458 16.5601C33.0528 18.8085 33.2399 21.9407 32.2421 24.2821C31.5716 25.8482 30.3088 26.9491 29.3577 28.3136C30.8857 27.4298 35.2823 25.6311 36.7478 27.3522C38.229 29.0889 36.0306 31.7869 34.456 32.4537C33.2243 32.9809 32.1797 32.4071 31.0104 32.2366C29.5448 32.035 29.1862 33.5081 29.3266 34.9191C29.4513 36.2371 30.3867 37.4776 31.291 38.4079C34.7054 41.9277 40.3649 42.6565 44.9486 41.354C53.087 39.0592 56.1117 28.0035 54.5994 20.6692C54.0537 18.0332 52.5102 16.0794 51.185 13.8311C50.078 11.9704 49.6571 9.79956 48.3786 7.95436C48.1447 7.59773 47.8797 7.24109 47.5991 6.88446Z" fill="#66C1BD"/>
<path d="M54.3501 2.66711C50.5615 -1.28689 43.5144 2.74464 42.9531 7.48944C42.6101 10.4356 44.294 14.0794 47.3186 14.9943C51.9179 16.3743 57.8424 12.87 58.0919 7.92361C58.1698 6.27998 57.2344 2.79116 54.3501 2.66711Z" fill="#1499A2"/>
<path d="M42.0328 19.5686C41.7989 19.491 41.3624 19.1964 41.0973 18.9328C39.928 17.7699 39.0237 16.2193 38.4469 14.6997C38.1506 13.9244 37.7297 12.1257 39.1485 12.4669C40.0371 12.6839 40.9726 13.9244 41.4559 14.6377C42.2043 15.7541 42.6564 17.0256 43.1241 18.2971C44.5273 22.1425 44.5429 26.112 42.4693 29.7714C41.986 30.6398 40.7075 31.5081 40.8167 32.5935C40.957 33.989 42.9838 32.6245 43.623 32.1748C46.1643 30.4227 47.053 26.5152 46.445 23.6621C45.5095 19.2429 43.5451 14.2345 40.3801 10.8853C39.242 9.69131 38.4469 8.94703 36.7319 9.6448C35.3755 10.203 34.8142 11.8001 35.0481 13.2422C35.3131 14.8858 36.8254 16.4209 37.8076 17.7079C38.9146 19.1499 39.8656 20.5764 40.7231 22.1735C42.672 25.8174 41.4715 29.7714 38.1195 32.2058C37.3087 32.7951 32.2417 34.7953 34.2062 36.2529C35.0636 36.8886 37.3243 36.5165 38.1818 36.47C38.9614 36.4234 39.7097 36.3149 40.4425 36.0513C42.1263 35.4466 43.9193 34.7488 45.1977 33.4463C47.6299 30.9654 48.2068 27.0889 48.0664 23.7396C47.8949 19.9097 46.6633 15.6611 44.5585 12.4514C42.5629 9.41221 39.1173 6.54362 35.469 5.64428C34.0191 5.28764 32.0702 5.21011 30.9944 6.43508C29.4665 8.18724 30.3552 10.3426 31.4777 11.9707C32.8342 13.9554 34.1282 15.7076 34.44 18.173C34.6427 19.9097 34.8142 21.7084 34.4556 23.445C34.0502 25.4608 32.6159 26.7633 31.1971 28.1743C32.1793 27.5696 32.9745 26.9649 34.0502 26.5152C34.7051 26.2361 35.547 25.8329 36.2486 26.0965C37.4491 26.5307 37.5114 28.1123 37.1372 29.1357C35.9835 32.2834 31.4933 33.958 29.2327 31.0739C29.1703 31.4771 29.1547 31.8802 29.1391 32.2834C29.0923 33.2292 29.1235 33.7874 29.7004 34.5782C30.3084 35.3846 31.088 36.0668 31.8831 36.687C34.44 38.6408 37.7453 38.2066 40.6296 37.2763C42.9526 36.532 44.3558 35.5706 45.7902 33.5859C47.4272 31.3375 48.9083 28.624 49.0175 25.8174C49.1734 21.9255 47.9417 18.173 46.6633 14.5602C45.9928 12.5909 44.4805 11.1644 43.9504 9.19513C43.5139 7.5515 43.5607 6.40407 44.6209 4.96202C46.2735 2.68266 49.4228 3.42694 51.4341 5.02404C54.1313 7.16386 53.991 10.9318 51.0443 12.777C48.9551 14.0795 46.1488 12.5599 44.7144 10.8543C43.4827 9.3967 42.2822 7.50498 40.6608 6.41957C37.6673 4.41931 33.8787 4.3728 30.3864 4.6364C27.237 4.86899 23.6823 6.15597 21.3125 8.21825C19.8314 9.48974 18.4906 10.9473 16.8223 12.0017C15.0138 13.1491 13.1273 13.2887 11.0849 13.7073C9.85321 13.9554 9.49462 14.5136 10.1338 15.6456C10.4457 16.2038 10.9913 16.6224 10.3989 17.1031C9.91557 17.4908 9.10485 17.3047 8.65271 17.8164C8.30971 18.2195 8.5124 18.9948 8.63712 19.429C8.27853 19.3825 7.37426 19.5065 7.1404 19.8011C6.84417 20.1888 7.17158 20.8866 7.18717 21.3362C7.28072 23.3055 5.56572 24.6235 4.94209 26.3446C2.8685 32.0508 13.252 33.1827 15.5127 36.6095C16.417 37.974 16.8535 39.7572 17.2121 41.3543C17.8201 44.0989 18.2255 46.9519 17.9605 49.774C17.8669 50.7819 17.3836 53.9141 15.9336 53.9141C14.8891 48.9212 16.682 43.9593 18.2567 39.292C19.7534 34.8574 21.8582 30.7948 24.0565 26.6392C25.257 24.3599 26.5666 20.9641 25.2726 18.4211C24.5398 16.9636 23.2458 16.886 21.8738 16.2968C20.3615 15.6301 19.5819 14.3741 19.1921 12.9786C19.5663 13.1801 20.7668 12.777 21.1098 12.4514C21.5775 12.0172 21.3593 10.7147 21.141 10.141C19.5819 11.0093 21.7802 12.5289 22.591 12.87C23.8226 13.3972 26.3328 14.4206 26.208 16.1573" stroke="#3B3B4A" stroke-miterlimit="10" stroke-linecap="round"/>
<path d="M8.45013 18.2814C8.43454 18.7311 8.62163 19.1342 8.76195 19.4444C8.91786 19.8165 9.19849 20.0801 9.57268 20.2817C9.71299 20.3592 10.1339 20.6228 10.2899 20.5453C10.4614 20.4677 10.3522 20.1111 10.321 19.9716C10.1651 19.2738 9.94686 18.2814 9.36999 17.8007C9.05818 17.5526 8.48131 17.7542 8.45013 18.2814Z" fill="#3B3B4A" stroke="#3B3B4A" stroke-miterlimit="10"/>
<path d="M8.59071 19.46C8.16976 19.491 6.86012 19.5375 7.20312 20.2663C7.46817 20.84 8.6063 21.1346 9.18316 21.0726C9.52616 21.0416 9.93152 20.933 10.1654 20.6694C9.49498 20.4058 8.93371 19.9872 8.59071 19.46Z" stroke="#3B3B4A" stroke-miterlimit="10"/>
<path d="M44.7923 10.4045C45.5251 11.7535 47.1154 12.5598 49.1266 12.1722C52.2292 11.5829 52.619 7.72197 50.3583 5.9543C48.6433 4.62079 45.9461 4.43472 44.8859 6.60554C44.1999 8.00107 44.2311 9.36559 44.7923 10.4045Z" stroke="#3B3B4A" stroke-miterlimit="10"/>
<path d="M10.0088 14.2812C10.5077 15.4907 11.4587 15.8628 12.4721 16.5296C12.1603 17.0568 11.1469 16.7157 10.648 16.6847" stroke="#3B3B4A" stroke-miterlimit="10"/>
</g>
<defs>
<clipPath id="clip0_840_4731">
<rect width="58.3099" height="54.0845" fill="white"/>
</clipPath>
</defs>
</svg>
