<svg width="30" height="30" viewBox="0 0 30 30" fill="none" xmlns="http://www.w3.org/2000/svg">
<g clip-path="url(#clip0_923_8380)">
<path d="M20.7284 18.6421C21.5468 17.8231 21.9974 16.7346 21.9974 15.5772V15.0906C23.0542 15.0423 23.938 14.3213 24.2302 13.3466C24.991 13.2272 25.8103 12.5967 25.9793 11.7462C26.1607 10.9617 25.9238 10.0775 25.6017 9.41364C26.1451 9.10953 26.9521 8.4657 26.8781 7.34813C26.79 6.02583 25.8576 4.64499 24.4675 3.73954C24.6626 3.25965 24.8597 2.41917 24.3872 1.54383C24.0813 0.977164 22.9786 0.290672 20.8016 0.0633849C19.647 -0.0572608 17.3813 -0.106246 15.0008 0.88019C12.6204 -0.106246 10.3546 -0.0572022 9.20006 0.0633849C7.02311 0.290672 5.92042 0.977164 5.61438 1.54389C5.142 2.41917 5.33911 3.25959 5.53423 3.73954C4.14402 4.64499 3.21172 6.02583 3.1236 7.3483C3.04953 8.46575 3.8565 9.10959 4.39996 9.41364C4.07781 10.0774 3.84103 10.9617 4.02243 11.7462C4.20718 12.5617 4.88383 13.1787 5.77148 13.3466C6.06369 14.3212 6.94752 15.0423 8.00427 15.0906V15.5772C8.00427 16.632 8.38127 17.6337 9.06993 18.4236C9.022 18.7716 8.95186 18.8021 8.95625 19.1563L9.39044 21.6035L9.1754 22.0646H5.26692C3.55725 22.0646 2.0979 23.2858 1.7969 24.9683L0.989357 29.4831C0.946642 29.722 1.10567 29.9504 1.34456 29.9931C1.37069 29.9978 1.39676 30 1.42243 30C1.6312 30 1.81647 29.8506 1.8545 29.6378L2.66205 25.123C2.88793 23.8601 3.98347 22.9435 5.26686 22.9435H7.0227V26.6812L5.76667 29.3747C5.66413 29.5948 5.75929 29.8562 5.97925 29.9587C6.03931 29.9868 6.10248 30.0001 6.1647 30.0001C6.33023 30.0001 6.48873 29.9061 6.56326 29.7462L10.2457 21.8492C10.2838 21.7673 10.2958 21.6756 10.2801 21.5867L9.83599 19.0837L10.1572 17.4486C10.1872 17.296 10.3218 17.1852 10.4773 17.1852C10.6305 17.1852 10.7647 17.2939 10.7965 17.4438L11.2512 19.5875C11.2762 19.7055 11.3487 19.808 11.4514 19.871C11.5542 19.934 11.6784 19.9521 11.7949 19.9208L15.8375 18.8372C15.8761 18.8269 15.9131 18.8113 15.9475 18.791L17.4048 17.9285C17.5063 17.8685 17.6246 17.8536 17.7378 17.8868C17.851 17.9201 17.9425 17.9964 17.9954 18.1018C18.0865 18.2832 18.0352 18.5038 17.8734 18.6264L15.7095 20.2649C15.5782 20.3643 15.5135 20.5289 15.542 20.6912L15.7566 21.914C15.8101 22.2187 15.6287 22.5216 15.3349 22.6185L12.5439 23.5382C12.3874 23.5898 12.2728 23.7247 12.2473 23.8875L11.3693 29.4925C11.3318 29.7323 11.4957 29.9571 11.7355 29.9946C11.975 30.0327 12.2001 29.8682 12.2377 29.6285L13.074 24.2888L15.61 23.4531C15.9023 23.3568 16.1471 23.1747 16.3257 22.9435H19.1654C19.4081 22.9435 19.6048 22.7468 19.6048 22.5041C19.6048 22.2613 19.4081 22.0646 19.1654 22.0646H18.1028V19.8901C19.0944 19.7909 20.014 19.3565 20.7284 18.6421ZM21.9976 14.2105V11.0788C22.8107 11.1369 23.4544 11.8171 23.4544 12.6447C23.4544 13.4722 22.8107 14.1524 21.9976 14.2105ZM8.00421 14.2105C7.19116 14.1524 6.54744 13.4722 6.54744 12.6446C6.54744 11.817 7.19116 11.1369 8.00421 11.0787V14.2105ZM7.90167 22.9435H8.76559L7.90167 24.7963V22.9435ZM17.9852 17.0434C17.6407 16.9423 17.266 16.9892 16.9571 17.1721L15.5516 18.0038L12.0148 18.9518L11.6562 17.2612C11.5388 16.7079 11.043 16.3061 10.4772 16.3061C9.91849 16.3061 9.4338 16.6937 9.30571 17.2336C9.03043 16.7307 8.88313 16.1644 8.88313 15.5772V11.024C9.98945 10.7908 10.435 9.80575 10.5571 9.03711C11.9272 9.05685 13.2597 8.54286 14.2021 7.56826C14.3722 7.39518 14.3697 7.11691 14.1966 6.94687C14.0234 6.77683 13.7452 6.77917 13.5751 6.95238C12.6926 7.85069 11.5536 8.25054 10.19 8.14138C10.068 8.13106 9.94755 8.17395 9.85744 8.25669C9.76738 8.33948 9.71587 8.45697 9.7154 8.57931C9.7154 8.58365 9.71159 9.01824 9.52954 9.43766C9.3155 9.93091 8.95678 10.1789 8.43301 10.1958H8.11718C6.84446 10.1958 5.79585 11.1719 5.67948 12.4147C5.36882 12.3237 4.9511 11.9587 4.87862 11.5482C4.72633 10.8898 5.03336 9.9994 5.383 9.45084C5.4553 9.3374 5.47089 9.19684 5.42665 9.0698C5.38241 8.94283 5.28163 8.84275 5.15454 8.7988C5.1512 8.79763 4.81885 8.68097 4.50941 8.43148C4.14097 8.1344 3.9745 7.79913 4.00052 7.40666C4.07564 6.27978 5.00893 5.02685 6.32291 4.28892C6.42867 4.2295 6.50443 4.12796 6.53361 4.01018C6.56273 3.89241 6.54117 3.76672 6.47531 3.66483C6.45287 3.6302 5.93173 2.80648 6.38777 1.96149C6.55904 1.64438 7.57308 1.11703 9.2913 0.937612C10.3882 0.822885 12.5659 0.777709 14.8255 1.76063C14.9373 1.80926 15.0642 1.80926 15.176 1.76063C17.4359 0.777709 19.6136 0.823178 20.7104 0.937612C22.4286 1.11703 23.4426 1.64438 23.6139 1.96143C24.07 2.80648 23.5488 3.6302 23.5278 3.66272C23.4602 3.76455 23.4381 3.88995 23.4667 4.00872C23.4954 4.12749 23.5722 4.22909 23.6788 4.28886C24.9928 5.02679 25.9261 6.27972 26.0012 7.40643C26.0647 8.36614 24.8969 8.78152 24.8487 8.79822C24.7207 8.8414 24.6197 8.94107 24.5748 9.06846C24.5299 9.1959 24.5461 9.33682 24.6187 9.45073C24.9683 9.99929 25.2754 10.8897 25.1231 11.5481C25.0201 11.928 24.7811 12.2494 24.3222 12.4145C24.2093 11.2087 23.2188 10.2543 21.9975 10.1986V8.65607C21.9975 6.69011 20.3981 5.09072 18.4321 5.09072H15.0009C14.7582 5.09072 14.5614 5.28742 14.5614 5.53018C14.5614 5.77293 14.7582 5.96964 15.0009 5.96964H18.4321C19.9135 5.96964 21.1186 7.17475 21.1186 8.65607V15.5771C21.1186 16.4999 20.7592 17.3678 20.1069 18.0207C19.7306 18.3969 19.2827 18.675 18.7943 18.8438C18.9596 18.4921 18.965 18.0738 18.7808 17.7071C18.6196 17.3864 18.3296 17.1445 17.9852 17.0434ZM16.6428 22.0646C16.6459 21.9647 16.64 21.8635 16.6222 21.762L16.454 20.8036L17.2238 20.2206V22.0646H16.6428Z" fill="#1499A2"/>
<path d="M17.0773 13.997C15.9537 13.8646 15.16 14.5251 15.1267 14.5532C14.9416 14.7101 14.9175 14.9884 15.0744 15.1736C15.1615 15.2764 15.2855 15.3295 15.4102 15.3295C15.5099 15.3295 15.6103 15.2954 15.6926 15.2257C15.698 15.2213 16.2397 14.7837 16.9746 14.8699C17.2156 14.8979 17.434 14.7258 17.4623 14.4849C17.4908 14.2437 17.3183 14.0254 17.0773 13.997Z" fill="#1499A2"/>
<path d="M29.0117 29.4831L28.2039 24.9683C27.9028 23.2857 26.4436 22.0645 24.7344 22.0645L21.2188 22.0646C20.9761 22.0646 20.7793 22.2613 20.7793 22.5041C20.7793 22.7468 20.9761 22.9435 21.2188 22.9435H22.0994V29.5605C22.0994 29.8032 22.2961 29.9999 22.5388 29.9999C22.7815 29.9999 22.9783 29.8032 22.9783 29.5605V22.9434H24.7344C26.0174 22.9434 27.1127 23.8602 27.3388 25.1232L28.1465 29.6379C28.1846 29.8507 28.3698 30.0001 28.5786 30.0001C28.6043 30.0001 28.6303 29.9978 28.6565 29.9931C28.8954 29.9504 29.0545 29.722 29.0117 29.4831Z" fill="#1499A2"/>
<path d="M20.3192 8.71905C20.2201 8.49757 19.9603 8.39825 19.7386 8.49745L17.9222 9.31026C17.7006 9.40934 17.6014 9.66932 17.7006 9.89087C17.7736 10.0541 17.9339 10.1509 18.1019 10.1509C18.1619 10.1509 18.2229 10.1385 18.2812 10.1125L20.0976 9.29966C20.3192 9.20057 20.4184 8.94065 20.3192 8.71905Z" fill="#1499A2"/>
<path d="M19.2773 12.7938V11.9141C19.2773 11.6713 19.0806 11.4746 18.8379 11.4746C18.5952 11.4746 18.3984 11.6713 18.3984 11.9141V12.7938C18.3984 13.0365 18.5952 13.2332 18.8379 13.2332C19.0806 13.2332 19.2773 13.0365 19.2773 12.7938Z" fill="#1499A2"/>
<path d="M11.1641 11.5146C10.9214 11.5146 10.7246 11.7113 10.7246 11.9541V12.7939C10.7246 13.0366 10.9214 13.2333 11.1641 13.2333C11.4068 13.2333 11.6035 13.0366 11.6035 12.7939V11.9541C11.6035 11.7113 11.4068 11.5146 11.1641 11.5146Z" fill="#1499A2"/>
<path d="M4.44297 17.332C4.20027 17.332 4.00352 17.5287 4.00352 17.7715V18.3023H3.47266C3.22996 18.3023 3.0332 18.499 3.0332 18.7418C3.0332 18.9846 3.22996 19.1812 3.47266 19.1812H4.00352V19.7121C4.00352 19.9549 4.20027 20.1516 4.44297 20.1516C4.68566 20.1516 4.88242 19.9549 4.88242 19.7121V19.1812H5.41328C5.65598 19.1812 5.85273 18.9846 5.85273 18.7418C5.85273 18.499 5.65598 18.3023 5.41328 18.3023H4.88242V17.7715C4.88242 17.5288 4.68566 17.332 4.44297 17.332Z" fill="#1499A2"/>
<path d="M2.13086 16.2725C2.37356 16.2725 2.57031 16.0757 2.57031 15.833C2.57031 15.5903 2.37356 15.3936 2.13086 15.3936C1.88816 15.3936 1.69141 15.5903 1.69141 15.833C1.69141 16.0757 1.88816 16.2725 2.13086 16.2725Z" fill="#1499A2"/>
</g>
<defs>
<clipPath id="clip0_923_8380">
<rect width="30" height="30" fill="white"/>
</clipPath>
</defs>
</svg>
