<svg width="44" height="40" viewBox="0 0 44 40" fill="none" xmlns="http://www.w3.org/2000/svg">
<path d="M20.6602 19.797C21.8985 20.8876 23.6184 21.501 25.2695 22.1144C27.6085 23.0005 29.9475 24.0911 32.2865 24.8408C34.0064 25.3861 35.6574 26.0677 37.2397 26.8856C39.9915 28.317 43.5 30.5663 43.5 34.0424C43.5 36.428 41.3674 38.3365 39.1659 39.0181C36.6893 39.7678 33.9376 39.2225 31.5298 38.3365C29.122 37.4504 26.7829 36.0872 24.3751 35.2693C18.8716 33.429 12.1985 33.7016 8.20845 29.4757C6.28221 27.4309 5.38789 24.6363 4.56236 21.9781C3.53044 18.7746 2.56732 15.5711 1.53541 12.3676C0.847465 10.2546 0.297114 8.00536 0.572291 5.82425C0.847469 3.30233 2.77371 1.73466 4.28719 0.371461" stroke="white" stroke-miterlimit="10"/>
</svg>
