<svg width="20" height="20" viewBox="0 0 20 20" fill="none" xmlns="http://www.w3.org/2000/svg">
<g clip-path="url(#clip0_923_8557)">
<path d="M13.9998 0.0341797H6.0002C2.69169 0.0341797 1.24876e-09 2.72587 1.24876e-09 6.03442V9.74006C-3.92144e-05 10.8753 0.923569 11.7989 2.05882 11.7989H2.35294V12.3872C2.67561 22.4959 17.3277 22.4885 17.6471 12.3872V11.7989H17.9412C19.0764 11.7989 20 10.8753 20 9.7401V6.03442C20 2.72587 17.3083 0.0341797 13.9998 0.0341797ZM6.0002 1.21065H13.9998C16.6596 1.21065 18.8235 3.37461 18.8235 6.03442V7.8803C18.2715 7.61732 17.824 7.69516 17.6471 7.68124V4.74006H16.4706C16.4706 5.97567 15.4803 6.35622 14.7059 6.46473V4.74006H13.5294C13.5294 5.97567 12.5391 6.35622 11.7647 6.46473V4.74006H10.5882C10.5882 5.97567 9.59792 6.35622 8.82353 6.46473V4.74006H7.64706C7.64706 6.33281 6.00157 6.50477 5.29412 6.50477H2.35294V7.68124C2.17239 7.69548 1.72757 7.61775 1.17647 7.8803V6.03442C1.17647 3.37461 3.34039 1.21065 6.0002 1.21065ZM2.05882 10.6224C0.892431 10.5852 0.893294 8.89457 2.05882 8.85771H2.35294V10.6224H2.05882ZM16.4706 12.3872C16.1976 20.9407 3.79961 20.9344 3.52941 12.3872C3.52941 11.8386 3.52941 8.39677 3.52941 7.68124H5.29412C6.22949 7.68124 7.04027 7.4634 7.64706 7.0514V7.68124C7.94592 7.65336 9.41949 7.84493 10.5882 7.0514V7.68124C10.8871 7.65336 12.3607 7.84493 13.5294 7.0514V7.68124C13.8283 7.65336 15.3018 7.84493 16.4706 7.0514V7.68124V11.7989V12.3872ZM17.9412 10.6224H17.6471V8.85771H17.9412C19.1075 8.89493 19.1067 10.5856 17.9412 10.6224Z" fill="#1499A2"/>
<path d="M7.42578 16.4514L8.40464 17.104C9.03198 16.163 10.0817 15.6013 11.2126 15.6013H12.0329V14.4248H11.2126C9.68743 14.4248 8.27178 15.1824 7.42578 16.4514Z" fill="#1499A2"/>
<path d="M9.41211 11.2109H10.5886V12.9756H9.41211V11.2109Z" fill="#1499A2"/>
<path d="M7.64752 11.1322V9.95577H8.54274V8.7793H5.60156V9.95577H6.47105V11.1322H7.64752Z" fill="#1499A2"/>
<path d="M11.457 9.95577H12.3533V11.1182H13.5298V9.95577H14.3982V8.7793H11.457V9.95577Z" fill="#1499A2"/>
</g>
<defs>
<clipPath id="clip0_923_8557">
<rect width="20" height="20" fill="white"/>
</clipPath>
</defs>
</svg>
