<svg width="30" height="30" viewBox="0 0 30 30" fill="none" xmlns="http://www.w3.org/2000/svg">
<g clip-path="url(#clip0_923_11460)">
<path d="M26.6325 16.5518C26.6325 16.309 26.4358 16.1123 26.1931 16.1123C25.9503 16.1123 25.7536 16.309 25.7536 16.5518V17.0827H25.2227C24.9799 17.0827 24.7832 17.2794 24.7832 17.5222C24.7832 17.7649 24.9799 17.9616 25.2227 17.9616H25.7536V18.4926C25.7536 18.7354 25.9503 18.9321 26.1931 18.9321C26.4358 18.9321 26.6325 18.7354 26.6325 18.4926V17.9616H27.1635C27.4063 17.9616 27.603 17.7649 27.603 17.5222C27.603 17.2794 27.4063 17.0827 27.1635 17.0827H26.6325V16.5518Z" fill="#1499A2"/>
<path d="M11.5484 26.8594H9.53125C9.2885 26.8594 9.0918 27.0561 9.0918 27.2988C9.0918 27.5416 9.2885 27.7383 9.53125 27.7383H11.5484C11.7912 27.7383 11.9879 27.5416 11.9879 27.2988C11.9879 27.0561 11.7912 26.8594 11.5484 26.8594Z" fill="#1499A2"/>
<path d="M29.0136 29.5009L28.097 22.8072C27.9914 22.0357 27.5657 21.336 26.929 20.8876C26.2924 20.4391 25.49 20.2738 24.7283 20.4341L18.1009 21.9476V19.8901C19.0926 19.7909 20.0122 19.3566 20.7266 18.6423C21.068 18.3008 21.3447 17.9113 21.5543 17.4822L21.9925 17.7126C22.5423 18.0468 23.4541 17.5252 23.3078 16.7569L23.202 16.14L23.6501 15.7032C23.8991 15.4605 23.987 15.1044 23.8796 14.7739C23.8281 14.6152 23.7364 14.4786 23.6172 14.3736C23.9076 14.0818 24.1155 13.73 24.2297 13.3464C24.9902 13.2267 25.8085 12.5962 25.9775 11.7461C26.1589 10.9617 25.9221 10.0774 25.6 9.41361C26.1434 9.1095 26.9504 8.46566 26.8763 7.34809C26.7881 6.02572 25.8558 4.64494 24.4656 3.73948C24.6607 3.25959 24.8578 2.41911 24.3854 1.54376C24.0794 0.977092 22.9768 0.290597 20.7998 0.0633083C19.6455 -0.0571623 17.3796 -0.106323 14.999 0.880118C12.6185 -0.106206 10.3528 -0.0571037 9.19833 0.0634255C7.0213 0.290714 5.91867 0.977209 5.61268 1.54394C5.14024 2.41916 5.33741 3.25965 5.53247 3.7396C4.14231 4.64506 3.20995 6.02584 3.12177 7.34838C3.0477 8.46584 3.85473 9.10968 4.39813 9.41372C4.07604 10.0775 3.8392 10.9618 4.02061 11.7463C4.20542 12.5618 4.88195 13.1788 5.76966 13.3467C6.06187 14.3213 6.94571 15.0424 8.00247 15.0907V15.5773C8.00247 17.8192 9.71296 19.669 11.8973 19.89V20.4326C11.8973 20.6754 12.094 20.8721 12.3368 20.8721C12.5795 20.8721 12.7762 20.6754 12.7762 20.4326V19.4727C12.7762 19.2299 12.5795 19.0332 12.3368 19.0332C10.4315 19.0332 8.88139 17.4829 8.88139 15.5774V11.0223C9.54755 10.878 10.06 10.4407 10.3469 9.75779C10.4551 9.50021 10.5157 9.24456 10.5496 9.03743C12.4043 9.05946 13.6043 8.21119 14.2976 7.46674C15.0985 6.60687 15.4036 5.70685 15.4162 5.66894C15.4926 5.43907 15.3684 5.19139 15.1387 5.11428C14.9091 5.03735 14.6602 5.16122 14.5825 5.39056C14.5408 5.5139 13.5217 8.40806 10.1884 8.1414C10.0662 8.13132 9.94488 8.17351 9.8547 8.25701C9.76453 8.34051 9.71343 8.45799 9.71384 8.58086C9.71408 8.64514 9.70417 10.1547 8.43103 10.1958C7.04644 10.0679 5.80798 11.0508 5.67784 12.4147C5.36711 12.3237 4.94945 11.9588 4.87697 11.5483C4.72468 10.8898 5.03172 9.99944 5.38129 9.45087C5.4536 9.33743 5.46919 9.19687 5.42495 9.06983C5.38071 8.94286 5.27993 8.84278 5.15278 8.79883C5.14944 8.79766 4.81709 8.681 4.50765 8.4315C4.1392 8.13443 3.97274 7.79915 3.99869 7.40668C4.07387 6.27973 5.00717 5.0268 6.32115 4.28892C6.42697 4.2295 6.50274 4.12796 6.53186 4.01019C6.56098 3.89241 6.53942 3.76672 6.47356 3.66483C6.45117 3.63014 5.92998 2.80648 6.38608 1.96148C6.55735 1.64437 7.57139 1.11702 9.28956 0.937599C10.3866 0.822871 12.5642 0.777694 14.8238 1.76062C14.9356 1.80925 15.0626 1.80925 15.1744 1.76062C17.4339 0.777694 19.6115 0.823105 20.7086 0.937599C22.4268 1.11702 23.4408 1.64437 23.6121 1.96142C24.0682 2.80648 23.547 3.63014 23.526 3.66272C23.4584 3.7645 23.4362 3.88995 23.4649 4.00872C23.4935 4.12749 23.5704 4.22909 23.677 4.28886C24.9909 5.02674 25.9242 6.27967 25.9994 7.40645C26.063 8.36617 24.8951 8.78155 24.8469 8.79825C24.7189 8.84143 24.6179 8.9411 24.573 9.06849C24.528 9.19587 24.5443 9.33685 24.6169 9.45076C24.9665 9.99932 25.2735 10.8897 25.1212 11.5482C25.0183 11.928 24.7792 12.2494 24.3204 12.4145C24.2075 11.2087 23.2169 10.2543 21.9956 10.1985V8.65604C21.9956 6.69007 20.3962 5.09067 18.4302 5.09067H17.056C16.8132 5.09067 16.6165 5.28737 16.6165 5.53013C16.6165 5.77289 16.8132 5.96959 17.056 5.96959H18.4303C19.9116 5.96959 21.1168 7.17471 21.1168 8.65604V13.0587C20.906 13.1381 20.7296 13.2947 20.6256 13.5055L20.3485 14.0668L19.7292 14.1568C19.3852 14.2068 19.1048 14.4432 18.9974 14.7738C18.8899 15.1044 18.9778 15.4605 19.2267 15.703L19.6749 16.1399L19.5691 16.7568C19.5044 17.1892 19.7703 17.7046 20.3038 17.803C20.2407 17.8777 20.175 17.9507 20.1051 18.0206C19.4522 18.6734 18.5844 19.0329 17.6614 19.0329C17.4186 19.0329 17.2219 19.2296 17.2219 19.4723V22.2008C15.7396 22.7274 14.1868 22.6905 12.4853 22.0903C12.4701 22.0848 12.4546 22.08 12.4384 22.0761L5.26985 20.4341C4.50788 20.2738 3.70566 20.4391 3.06909 20.8876C2.43246 21.336 2.00671 22.0357 1.90106 22.8072L0.984584 29.5009C0.951654 29.7414 1.11994 29.963 1.36035 29.9959C1.38063 29.9987 1.40067 30 1.42053 30C1.63674 30 1.82518 29.8403 1.85536 29.6201L2.7719 22.9264C2.84567 22.388 3.13097 21.9191 3.57523 21.6061C4.0195 21.2931 4.55716 21.1823 5.08891 21.2943L7.02089 21.7007V29.5606C7.02089 29.8034 7.21759 30.0001 7.46035 30.0001C7.70311 30.0001 7.89981 29.8034 7.89981 29.5606V21.9002L12.213 22.9262C13.1972 23.2712 14.1583 23.4439 15.0897 23.4439C16.0229 23.4439 16.9263 23.2705 17.7937 22.9242L22.0984 21.9002V29.5605C22.0984 29.8033 22.2951 30 22.5378 30C22.7806 30 22.9773 29.8033 22.9773 29.5605V21.7006L24.9093 21.2942C25.4411 21.182 25.9786 21.2931 26.4229 21.606C26.8672 21.919 27.1525 22.3879 27.2263 22.9263L28.1428 29.62C28.173 29.8403 28.3614 29.9999 28.5776 29.9999C28.5975 29.9999 28.6177 29.9986 28.6378 29.9958C28.8782 29.963 29.0465 29.7414 29.0136 29.5009ZM8.00235 11.0787V14.2106C7.18929 14.1524 6.54557 13.4722 6.54557 12.6446C6.54551 11.817 7.18929 11.1369 8.00235 11.0787ZM23.4527 12.6446C23.4565 13.1836 23.1245 13.8093 22.543 14.069L22.5284 14.0669L22.2514 13.5056C22.1893 13.3798 22.1012 13.2736 21.9957 13.1913V11.0786C22.8089 11.1368 23.4527 11.8169 23.4527 12.6446ZM19.8402 15.0737C19.8345 15.0681 19.828 15.0618 19.8333 15.0455C19.8386 15.0291 19.8476 15.0278 19.8556 15.0267L20.7037 14.9034C20.8468 14.8827 20.9705 14.7927 21.0345 14.663L21.4138 13.8946C21.4174 13.8874 21.4214 13.8792 21.4385 13.8792C21.4419 13.8792 21.4443 13.8797 21.4468 13.8803C21.448 13.8806 21.4491 13.8809 21.4503 13.8812C21.4578 13.884 21.4608 13.8895 21.4634 13.8946L21.8426 14.663C21.9067 14.7927 22.0304 14.8826 22.1735 14.9034L22.5319 14.9555C22.5347 14.9559 22.5374 14.9563 22.5402 14.9567L23.0216 15.0266C23.0296 15.0278 23.0386 15.0291 23.0439 15.0454C23.0492 15.0617 23.0427 15.0681 23.0369 15.0737L22.4232 15.6718C22.3196 15.7728 22.2724 15.9183 22.2969 16.0608L22.4418 16.9055C22.4431 16.9134 22.4447 16.9224 22.4308 16.9325C22.4167 16.9426 22.4087 16.9383 22.4016 16.9346L21.6432 16.5358C21.5791 16.5022 21.509 16.4853 21.4387 16.4853C21.3685 16.4853 21.2982 16.5022 21.2342 16.5358L20.4758 16.9346C20.4687 16.9383 20.4606 16.9427 20.4466 16.9325C20.4327 16.9224 20.4343 16.9134 20.4356 16.9055L20.5805 16.0608C20.605 15.9183 20.5577 15.7728 20.4542 15.6718L19.8402 15.0737Z" fill="#1499A2"/>
<path d="M17.8343 10.0604C17.9135 10.1206 18.0066 10.1496 18.0992 10.1496C18.2316 10.1496 18.3627 10.09 18.4494 9.97706C18.4553 9.96933 19.0483 9.20849 19.8487 9.33282C20.0888 9.36915 20.3131 9.20544 20.3502 8.96568C20.3873 8.72579 20.223 8.50132 19.9831 8.46417C18.6578 8.25886 17.7847 9.39862 17.7481 9.4472C17.6028 9.64062 17.6417 9.91413 17.8343 10.0604Z" fill="#1499A2"/>
<path d="M17.6481 12.9715C17.721 13.1246 17.8754 13.2221 18.0449 13.2221H19.3925C19.6352 13.2221 19.8319 13.0254 19.8319 12.7826C19.8319 12.5399 19.6352 12.3432 19.3925 12.3432H18.9682L19.1877 12.073C19.3407 11.8847 19.3121 11.6079 19.1237 11.4548C18.9353 11.3018 18.6586 11.3304 18.5055 11.5188L17.7038 12.5055C17.597 12.637 17.5753 12.8183 17.6481 12.9715Z" fill="#1499A2"/>
<path d="M10.5605 12.0869V12.9677C10.5605 13.2104 10.7572 13.4071 11 13.4071C11.2428 13.4071 11.4395 13.2104 11.4395 12.9677V12.0869C11.4395 11.8442 11.2428 11.6475 11 11.6475C10.7572 11.6475 10.5605 11.8442 10.5605 12.0869Z" fill="#1499A2"/>
<path d="M14.9984 16.2722C16.1427 16.2722 16.639 15.6256 16.9288 15.0639C17.0511 14.8267 16.9366 14.5363 16.6847 14.4484C16.4731 14.3745 16.24 14.4723 16.1445 14.675L16.0644 14.8448C16.0639 14.8462 16.0073 14.9865 15.8523 15.1211C15.6446 15.3017 15.3573 15.3933 14.9984 15.3933C14.4306 15.3933 14.1234 15.0972 13.9262 14.794C13.8069 14.6104 13.5714 14.5419 13.3728 14.6339C13.1311 14.7459 13.0422 15.0463 13.1873 15.2696C13.4816 15.7222 14.0149 16.2722 14.9984 16.2722Z" fill="#1499A2"/>
<path d="M28.3105 15.252C28.5533 15.252 28.75 15.0552 28.75 14.8125C28.75 14.5698 28.5533 14.373 28.3105 14.373C28.0678 14.373 27.8711 14.5698 27.8711 14.8125C27.8711 15.0552 28.0678 15.252 28.3105 15.252Z" fill="#1499A2"/>
</g>
<defs>
<clipPath id="clip0_923_11460">
<rect width="30" height="30" fill="white"/>
</clipPath>
</defs>
</svg>
