<svg width="21" height="21" viewBox="0 0 21 21" fill="none" xmlns="http://www.w3.org/2000/svg">
<g clip-path="url(#clip0_923_8608)">
<path d="M9.2778 9.26465H8.04254C8.04254 9.60521 7.76547 9.88232 7.42491 9.88232H5.57202V14.2057H6.80728V11.1176H7.42491C8.44663 11.1175 9.2778 10.2863 9.2778 9.26465Z" fill="#1499A2"/>
<path d="M15.4265 14.2057V9.88232H13.5736C13.233 9.88232 12.956 9.60525 12.956 9.26465H11.7207C11.7207 10.2863 12.5519 11.1175 13.5736 11.1175H14.1912V14.2057H15.4265V14.2057Z" fill="#1499A2"/>
<path d="M10.4998 15.1152C9.13757 15.1152 8.0293 16.2235 8.0293 17.5858H9.26455C9.31668 15.9528 11.6835 15.954 11.7351 17.5858H12.9703C12.9703 16.2235 11.8621 15.1152 10.4998 15.1152Z" fill="#1499A2"/>
<path d="M9.88281 11.7354H11.1181V13.5882H9.88281V11.7354Z" fill="#1499A2"/>
<path d="M10.4997 0C4.68896 0 0 4.71119 0 10.4997V12.3525C0 16.0411 2.70217 19.1247 6.27079 19.6764C8.77486 21.4238 12.1567 21.4579 14.7184 19.6779C18.3076 19.1281 20.9994 16.0291 20.9994 12.3526V10.4997C20.9994 4.69645 16.3039 0 10.4997 0ZM1.23526 12.3526V10.4997C1.23526 7.44465 2.75705 4.58342 5.25166 2.86386C5.62364 3.73497 6.20025 4.49815 6.93972 5.09684C6.68583 5.23239 6.41824 5.34294 6.1387 5.42743C4.34395 5.97029 3.08814 7.62484 3.08814 9.53706V13.5878C3.08814 15.0774 3.52464 16.4997 4.33678 17.7087C2.47303 16.6332 1.23526 14.6148 1.23526 12.3526ZM4.3234 13.5878V9.53701C4.3234 8.17922 5.19661 7.00284 6.49626 6.60978C7.07272 6.43553 7.60977 6.17468 8.09782 5.83243C8.65286 6.10189 9.24335 6.2824 9.85855 6.37022L14.0506 6.96891C15.5474 7.18269 16.676 8.48412 16.676 9.99616V13.5878C16.418 21.7494 4.57297 21.7518 4.3234 13.5878ZM19.7641 12.3526C19.7641 14.6185 18.5224 16.6399 16.6535 17.7141C17.4474 16.5339 17.9112 15.114 17.9112 13.5878V9.99612C17.9112 7.85859 16.3379 6.04778 14.2253 5.74605L10.0332 5.14732C8.41585 4.91641 6.95005 3.84585 6.32522 2.22676C12.2705 -0.925208 19.9238 3.73843 19.7641 10.4997V12.3526Z" fill="#1499A2"/>
</g>
<defs>
<clipPath id="clip0_923_8608">
<rect width="21" height="21" fill="white"/>
</clipPath>
</defs>
</svg>
