<svg width="34" height="34" viewBox="0 0 34 34" fill="none" xmlns="http://www.w3.org/2000/svg">
<g clip-path="url(#clip0_943_3535)">
<path d="M21.5235 7.52385C21.1303 6.7532 20.3486 6.27441 19.4834 6.27441H12.8976C11.7481 6.27441 10.8003 7.13736 10.6922 8.28785L10.4506 11.2567C10.3309 12.6606 11.4739 13.9428 12.931 13.9241L12.0185 15.8947C11.88 16.1938 11.7977 16.5121 11.7737 16.8407L10.9944 27.5558C10.993 27.9671 11.1269 28.4125 11.5911 28.6911L11.2745 30.4316L9.95112 31.4302C9.59531 31.6988 9.38281 32.1253 9.38281 32.5712C9.38281 33.3593 10.024 34.0005 10.8121 34.0005H13.1418C14.0554 34.0005 14.7985 33.2573 14.7985 32.3437V30.757L16.1904 21.7846L16.823 26.1222C16.8627 26.3945 17.1163 26.5829 17.3877 26.5433C17.6599 26.5035 17.8484 26.2507 17.8087 25.9785L16.6886 18.2966V14.1021H18.4347L19.4586 16.3133C19.5464 16.5029 19.5986 16.7048 19.6138 16.913L20.3931 27.6281C20.3801 27.7307 20.3822 27.8165 20.1735 27.8642H17.653C17.372 27.8568 17.0957 28.1444 17.163 28.4514L17.5823 30.7569V32.3437C17.5823 33.2573 18.3255 34.0005 19.2391 34.0005H21.5688C22.3569 34.0005 22.998 33.3593 22.998 32.5712C22.998 32.1253 22.7856 31.6988 22.4296 31.4302L21.1064 30.4316L20.7897 28.6911C21.093 28.5436 21.4346 28.0135 21.3865 27.5558L20.6071 16.8408C20.5832 16.5122 20.5009 16.1939 20.3624 15.8948L19.2719 13.5399L19.6839 11.372L20.8202 13.8142C20.9361 14.0635 21.2324 14.1718 21.4818 14.0556C21.7312 13.9396 21.8393 13.6434 21.7233 13.394L19.9813 9.64991V7.36925C20.2597 7.4848 20.4932 7.69664 20.636 7.97654L24.7139 15.9707C24.8453 16.2284 24.8341 16.5176 24.683 16.7643C24.5319 17.011 24.2794 17.1525 23.9901 17.1525C23.6753 17.1525 23.3861 16.9681 23.2533 16.6827L22.7063 15.5071C22.5904 15.2578 22.2942 15.1494 22.0446 15.2656C21.7953 15.3816 21.6872 15.6779 21.8032 15.9273L22.3502 17.1029C22.6457 17.7381 23.2894 18.1486 23.99 18.1486C24.6244 18.1486 25.201 17.8256 25.5324 17.2846C25.8637 16.7436 25.8894 16.0831 25.6011 15.518L21.5235 7.52385ZM19.8083 28.8603L20.0545 30.214H18.4961L18.2498 28.8603H19.8083ZM22.0021 32.5712C22.0021 32.8101 21.8077 33.0044 21.5689 33.0044H19.2392C18.8749 33.0044 18.5786 32.708 18.5786 32.3437V31.2101H20.4845L21.8298 32.2253C21.9376 32.3067 22.0021 32.4359 22.0021 32.5712ZM13.3956 7.27051H15.1322C14.9376 7.40186 14.7681 7.5708 14.6354 7.77134L13.3956 9.47081V7.27051ZM12.6295 12.9022C11.8924 12.7586 11.3826 12.0859 11.4435 11.3375L11.6845 8.37491C11.7272 7.92182 12.0091 7.54895 12.3996 7.37543V10.9986C12.3996 11.2141 12.5383 11.4052 12.7433 11.4721C12.948 11.5388 13.1729 11.4663 13.3 11.2921L15.4474 8.34848C15.4527 8.34137 15.4577 8.334 15.4626 8.32657C15.5923 8.12728 15.8017 7.99507 16.0374 7.96379C16.2735 7.93291 16.5097 8.00569 16.6868 8.1642C17.0173 8.46024 17.0482 8.97257 16.7556 9.30612L14.0024 12.4454C13.6582 12.8251 13.1325 12.9998 12.6295 12.9022ZM13.8849 30.2139H12.3265L12.5728 28.8602H14.1313L13.8849 30.2139ZM13.8025 32.3437C13.8025 32.708 13.5061 33.0044 13.1419 33.0044H10.8122C10.5733 33.0044 10.379 32.81 10.379 32.5712C10.379 32.436 10.4434 32.3068 10.5512 32.2253L11.8966 31.2101H13.8025V32.3437H13.8025ZM15.6925 18.2966L14.2973 27.8642H12.2074C12.106 27.8437 12.0201 27.8396 11.9878 27.6281L12.7671 16.913C12.7823 16.7047 12.8345 16.5029 12.9223 16.3133L13.9462 14.1021H15.6924V18.2966H15.6925ZM14.7478 13.106C14.7482 13.1057 14.7484 13.1054 14.7488 13.105L17.5044 9.96288C18.1901 9.18321 18.0663 7.87779 17.1557 7.27051H18.9854V9.71319L18.3406 13.106H14.7478Z" fill="#1499A2"/>
<path d="M32.6598 14.8643H28.9375C28.6624 14.8643 28.4395 14.6413 28.4395 14.3662C28.4395 14.0911 28.6624 13.8682 28.9375 13.8682H32.6598C32.935 13.8682 33.1579 14.0911 33.1579 14.3662C33.1579 14.6413 32.9349 14.8643 32.6598 14.8643Z" fill="#1499A2"/>
<path d="M27.9758 12.1122C27.4581 12.1309 27.2844 11.3558 27.7745 11.1584L31.7094 9.4223C31.9611 9.31147 32.255 9.42529 32.3661 9.67697C32.4772 9.92865 32.3632 10.2226 32.1115 10.3337L28.1766 12.0698C28.1112 12.0985 28.0429 12.1122 27.9758 12.1122Z" fill="#1499A2"/>
<path d="M30.7993 18.8335C30.7321 18.8335 30.6639 18.8198 30.5985 18.791L29.0374 18.1023C28.7857 17.9912 28.6717 17.6972 28.7827 17.4455C28.8938 17.1939 29.1879 17.08 29.4395 17.1908L31.0006 17.8795C31.4908 18.0772 31.3169 18.8522 30.7993 18.8335Z" fill="#1499A2"/>
<path d="M26.8674 9.8014C26.4256 9.8178 26.19 9.21171 26.5398 8.92802L27.4399 8.14317C27.6472 7.96248 27.9618 7.98386 28.1426 8.19118C28.3234 8.3985 28.3019 8.71313 28.0946 8.89389L27.1945 9.67875C27.1002 9.76096 26.9836 9.8014 26.8674 9.8014Z" fill="#1499A2"/>
<path d="M5.06023 14.8643H1.33789C1.06277 14.8643 0.839844 14.6413 0.839844 14.3662C0.839844 14.0911 1.06277 13.8682 1.33789 13.8682H5.06023C5.33535 13.8682 5.55827 14.0911 5.55827 14.3662C5.55827 14.6413 5.33535 14.8643 5.06023 14.8643Z" fill="#1499A2"/>
<path d="M6.02266 12.1122C5.95546 12.1122 5.88726 12.0985 5.82191 12.0697L1.88701 10.3337C1.63533 10.2226 1.52131 9.92865 1.63234 9.67697C1.74344 9.42529 2.03762 9.31147 2.2891 9.4223L6.224 11.1584C6.71421 11.356 6.54016 12.1309 6.02266 12.1122Z" fill="#1499A2"/>
<path d="M3.19842 18.8334C2.68072 18.8521 2.50706 18.077 2.99714 17.8796L4.55829 17.1909C4.8099 17.08 5.10395 17.194 5.21504 17.4455C5.32607 17.6972 5.21206 17.9913 4.96038 18.1023L3.39923 18.791C3.33382 18.8197 3.26549 18.8334 3.19842 18.8334Z" fill="#1499A2"/>
<path d="M7.13035 9.80152C7.01421 9.80152 6.8976 9.76121 6.80317 9.6788L5.9031 8.89394C5.69584 8.71319 5.67433 8.39855 5.85509 8.19123C6.03584 7.98391 6.35041 7.9624 6.5578 8.14322L7.45787 8.92808C7.80783 9.2119 7.57202 9.81792 7.13035 9.80152Z" fill="#1499A2"/>
<path d="M16.1888 5.58536C17.6584 5.58536 18.8541 4.38972 18.8541 2.92002V1.88766C18.8541 0.846812 18.0073 0 16.9664 0H15.4111C14.3702 0 13.5234 0.846812 13.5234 1.88766V2.92008C13.5234 4.38972 14.7191 5.58536 16.1888 5.58536ZM14.5195 1.88766C14.5195 1.39606 14.9194 0.996094 15.4111 0.996094H16.9664C17.458 0.996094 17.858 1.39599 17.858 1.88766V2.92008C17.858 3.84047 17.1092 4.58933 16.1888 4.58933C15.2684 4.58933 14.5195 3.84054 14.5195 2.92008V1.88766Z" fill="#1499A2"/>
</g>
<defs>
<clipPath id="clip0_943_3535">
<rect width="34" height="34" fill="white"/>
</clipPath>
</defs>
</svg>
