<svg width="81" height="76" viewBox="0 0 81 76" fill="none" xmlns="http://www.w3.org/2000/svg">
<path d="M39.0265 65.0112C29.3919 63.832 33.3343 54.4469 37.0832 53.1316C40.8321 51.8162 46.1912 53.0704 50.9562 49.3574C55.7216 45.6407 69.55 27.4321 69.1517 41.1554C68.7537 54.875 59.6745 67.5353 39.0265 65.0112Z" fill="#66C1BD"/>
<path d="M51.3968 4.47261C59.4446 3.80469 72.1916 22.5397 62.9638 29.8829C53.736 37.2261 47.1273 47.3841 35.7145 43.4651C24.3018 39.5462 21.1646 27.5379 23.0338 21.4854C25.463 13.6091 35.4189 5.80126 51.3968 4.47261Z" fill="#7F7F91"/>
<path d="M23.823 40.7738C17.8235 38.133 9.85034 43.7207 11.4112 49.7841C17.8194 74.6649 27.8384 77.112 31.7276 55.568C32.9213 48.9841 28.6371 42.8931 23.823 40.7738Z" fill="#F9F9F9"/>
<path d="M2.06619 47.7297C21.0597 55.8099 27.1192 40.1904 18.9651 35.9541C11.5714 32.1151 5.3329 44.837 16.3821 46.5077C30.6337 48.6657 26.6826 30.705 19.0939 29.8093C14.5055 29.2684 12.4411 38.1518 21.0561 37.6971C29.6711 37.2424 31.5296 21.6301 23.7715 24.914C17.8112 27.437 25.4875 36.535 32.3899 32.5971C39.8076 28.3648 43.8851 16.1468 34.179 18.0355C24.4729 19.9242 29.0816 36.6032 38.9872 37.2504C52.6691 38.1448 55.1854 24.0109 54.8911 25.2795C53.6553 30.603 44.3776 32.3538 39.8025 27.1118C33.9907 20.4507 39.1088 11.4174 50.4652 12.5334C60.0739 13.4776 64.1635 19.3244 65.8237 24.2238C67.4838 29.1232 62.3084 28.4946 56.4823 30.8808C50.6524 33.2667 50.71 42.3886 48.5245 45.2525C46.3389 48.1165 40.2411 50.8885 35.3639 48.3768C29.9558 45.5878 29.7711 51.0747 23.2543 50.168C17.1838 49.324 16.8874 38.9487 24.6081 39.1149C32.3288 39.2811 31.6054 50.4412 28.5694 55.1303C24.6758 61.1414 17.5916 63.284 14.8878 64.4396C12.1839 65.5951 24.1051 71.4765 30.6797 70.8739C37.2543 70.2712 41.4612 53.8209 40.2038 53.8773C38.9465 53.9338 34.8901 72.5363 37.3892 71.6232C39.8883 70.71 44.1097 61.3636 42.9367 62.4034C41.7637 63.4431 38.3261 71.1827 39.1038 72.3242C39.8814 73.4656 44.6171 71.6247 43.5193 70.0956C42.4215 68.5665 43.4003 62.2127 46.4286 59.8665C49.4568 57.5203 45.9633 53.7046 46.7647 56.4458C47.5662 59.187 54.3538 61.6353 57.3457 60.733C60.3343 59.8267 57.9471 56.3784 59.5467 56.4456C61.1463 56.5128 61.6374 55.9273 61.5109 54.7599C61.388 53.5928 59.03 53.3386 58.8403 53.8112C58.6361 54.3161 61.0999 53.8007 61.4575 53.8059C61.8152 53.811 62.1372 53.8727 62.2607 53.4986C62.4306 52.9977 61.833 52.0953 62.1661 51.123C62.4992 50.1508 64.1115 50.3954 64.5152 49.9326C64.9189 49.4698 62.0171 49.3009 62.3084 49.982C62.5997 50.6631 65.5676 51.041 66.062 50.2309C66.5563 49.4207 64.6227 43.3132 65.0174 39.6808C65.679 33.562 71.9389 26.186 78.3948 28.5941" stroke="#1D1D1B" stroke-miterlimit="10" stroke-linecap="round" stroke-linejoin="round"/>
</svg>
