<svg width="23" height="20" viewBox="0 0 23 20" fill="none" xmlns="http://www.w3.org/2000/svg">
<path d="M20.5588 15.3824H6.32353L3.73529 0.5H0.5" stroke="#3B3B4A" stroke-miterlimit="10" stroke-linecap="round" stroke-linejoin="round"/>
<path d="M4.38232 2.44116H22.5L20.5588 12.147H6.3235" stroke="#3B3B4A" stroke-miterlimit="10" stroke-linecap="round" stroke-linejoin="round"/>
<path d="M8.91162 2.44116V12.147" stroke="#3B3B4A" stroke-miterlimit="10" stroke-linecap="round" stroke-linejoin="round"/>
<path d="M13.4414 2.44116V12.147" stroke="#3B3B4A" stroke-miterlimit="10" stroke-linecap="round" stroke-linejoin="round"/>
<path d="M21.2058 6.97058H5.0293" stroke="#3B3B4A" stroke-miterlimit="10" stroke-linecap="round" stroke-linejoin="round"/>
<path d="M17.9707 2.44116V12.147" stroke="#3B3B4A" stroke-miterlimit="10" stroke-linecap="round" stroke-linejoin="round"/>
<path d="M9.23532 18.6176C10.1287 18.6176 10.853 17.8934 10.853 17C10.853 16.1066 10.1287 15.3823 9.23532 15.3823C8.34192 15.3823 7.61768 16.1066 7.61768 17C7.61768 17.8934 8.34192 18.6176 9.23532 18.6176Z" stroke="#3B3B4A" stroke-miterlimit="10" stroke-linecap="round" stroke-linejoin="round"/>
<path d="M17.6469 18.6176C18.5403 18.6176 19.2646 17.8934 19.2646 17C19.2646 16.1066 18.5403 15.3823 17.6469 15.3823C16.7535 15.3823 16.0293 16.1066 16.0293 17C16.0293 17.8934 16.7535 18.6176 17.6469 18.6176Z" stroke="#3B3B4A" stroke-miterlimit="10" stroke-linecap="round" stroke-linejoin="round"/>
</svg>
