<svg width="20" height="21" viewBox="0 0 20 21" fill="none" xmlns="http://www.w3.org/2000/svg">
<g clip-path="url(#clip0_923_11178)">
<path d="M13.8351 0.0361328H5.92961C2.66002 0.0361328 1.23406e-09 2.8624 1.23406e-09 6.33638V10.2273C-3.87531e-05 11.4193 0.912703 12.3891 2.0346 12.3891H2.32526V13.0068C2.64413 23.621 17.1239 23.6132 17.4394 13.0068V12.3891H17.7301C18.852 12.3891 19.7647 11.4193 19.7647 10.2274V6.33638C19.7647 2.8624 17.1047 0.0361328 13.8351 0.0361328ZM5.92961 1.27143H13.8351C16.4636 1.27143 18.6021 3.54359 18.6021 6.33638V8.27456C18.0566 7.99843 17.6143 8.08016 17.4394 8.06555V4.97731H16.2768C16.2768 6.2747 15.2982 6.67428 14.5329 6.78821V4.97731H13.3702C13.3702 6.2747 12.3916 6.67428 11.6263 6.78821V4.97731H10.4637C10.4637 6.2747 9.48501 6.67428 8.71972 6.78821V4.97731H7.5571C7.5571 6.64969 5.93096 6.83025 5.23183 6.83025H2.32526V8.06555C2.14684 8.08049 1.70724 7.99888 1.16263 8.27456V6.33638C1.16263 3.54359 3.30109 1.27143 5.92961 1.27143ZM2.0346 11.1538C0.881932 11.1147 0.882785 9.33955 2.0346 9.30084H2.32526V11.1538H2.0346ZM16.2768 13.0068C16.007 21.988 3.75491 21.9814 3.48789 13.0068C3.48789 12.4308 3.48789 8.81685 3.48789 8.06555H5.23183C6.1562 8.06555 6.95745 7.83681 7.5571 7.40421V8.06555C7.85244 8.03627 9.30867 8.23742 10.4637 7.40421V8.06555C10.759 8.03627 12.2152 8.23742 13.3702 7.40421V8.06555C13.6656 8.03627 15.1218 8.23742 16.2768 7.40421V13.0068ZM17.7301 11.1538H17.4394V9.30084H17.7301C18.8827 9.33992 18.882 11.1151 17.7301 11.1538Z" fill="#1499A2"/>
<path d="M8.72031 9.91895H7.55768C7.53319 10.7354 6.41931 10.7348 6.39505 9.91895H5.23242C5.30598 12.3684 8.64749 12.3666 8.72031 9.91895Z" fill="#1499A2"/>
<path d="M12.7889 10.5366C12.4683 10.5366 12.2076 10.2595 12.2076 9.91895H11.0449C11.1185 12.3684 14.46 12.3666 14.5328 9.91895H13.3702C13.3702 10.2595 13.1094 10.5366 12.7889 10.5366Z" fill="#1499A2"/>
<path d="M9.8819 16.3808C9.24083 16.3808 8.71927 15.8266 8.71927 15.1455H7.55664C7.65477 18.4114 12.11 18.409 12.2072 15.1455H11.0445C11.0445 15.8266 10.523 16.3808 9.8819 16.3808Z" fill="#1499A2"/>
<path d="M9.30078 11.7715H10.4634V13.6244H9.30078V11.7715Z" fill="#1499A2"/>
</g>
<defs>
<clipPath id="clip0_923_11178">
<rect width="19.7647" height="21" fill="white"/>
</clipPath>
</defs>
</svg>
