<svg width="21" height="21" viewBox="0 0 21 21" fill="none" xmlns="http://www.w3.org/2000/svg">
<g clip-path="url(#clip0_923_8139)">
<path d="M19.1492 8.64917C18.9316 8.64917 18.7229 8.68719 18.5288 8.75647V8.02881C18.5288 7.68936 18.5073 7.34742 18.4649 7.01248C18.4649 7.01244 18.4649 7.0124 18.4649 7.0124C18.4649 7.01236 18.4649 7.01232 18.4649 7.01232C18.2435 5.26066 17.4311 3.60544 16.1773 2.35159C14.6608 0.835119 12.6446 0 10.5 0C8.50352 0 6.34364 0.7229 4.57414 1.98335C2.66138 3.34589 1.47746 5.13347 1.24044 7.01683C1.21779 7.19652 1.27665 7.37699 1.39929 7.51025C1.51602 7.63711 1.68131 7.70881 1.853 7.70876C1.8617 7.70876 1.87039 7.7086 1.87913 7.70823C2.03622 7.70159 2.23945 7.69199 2.47964 7.67878C2.47464 7.79539 2.47119 7.91212 2.47119 8.02877V8.75643C2.27715 8.68715 2.06838 8.64913 1.85083 8.64913C0.830279 8.64917 0 9.47945 0 10.5V11.7356C0 12.7561 0.830279 13.5864 1.85083 13.5864C2.07441 13.5864 2.28879 13.5466 2.48739 13.4736C2.74764 17.6675 6.24168 21 10.5 21C14.7583 21 18.2524 17.6675 18.5126 13.4736C18.7112 13.5466 18.9256 13.5864 19.1492 13.5864C20.1697 13.5864 21 12.7561 21 11.7356V10.5C21 9.47945 20.1697 8.64917 19.1492 8.64917ZM2.47119 11.7356C2.47119 12.0777 2.1929 12.356 1.85083 12.356C1.50876 12.356 1.23047 12.0777 1.23047 11.7356V10.5C1.23047 10.1579 1.50876 9.87964 1.85083 9.87964C2.1929 9.87964 2.47119 10.1579 2.47119 10.5V11.7356ZM5.28806 2.98557C6.83082 1.8866 8.77923 1.23047 10.5 1.23047C12.3159 1.23047 14.0232 1.93762 15.3072 3.22161C16.1679 4.08233 16.7829 5.16584 17.0847 6.3349C16.0136 6.09529 14.244 5.4915 13.5215 4.0466C13.4172 3.83816 13.2042 3.7065 12.9712 3.70654C12.7381 3.70654 12.5251 3.83824 12.4209 4.04668C12.241 4.40655 11.369 5.31419 7.166 5.96884C5.42645 6.23979 3.70519 6.37444 2.61528 6.43859C2.99147 5.16608 3.91896 3.9608 5.28806 2.98557ZM17.2983 12.9712C17.2983 16.7198 14.2486 19.7695 10.5 19.7695C6.75138 19.7695 3.70166 16.7198 3.70166 12.9712V8.02881C3.70166 7.8848 3.70617 7.74051 3.71511 7.59704C4.75318 7.51693 6.04829 7.38831 7.35537 7.18475C10.1083 6.75597 11.9389 6.15169 12.9006 5.34959C14.1349 6.90966 16.2449 7.45188 17.2863 7.6303C17.294 7.76307 17.2983 7.89612 17.2983 8.02881V12.9712ZM19.7695 11.7356C19.7695 12.0777 19.4912 12.356 19.1492 12.356C18.8071 12.356 18.5288 12.0777 18.5288 11.7356V10.5C18.5288 10.1579 18.8071 9.87964 19.1492 9.87964C19.4912 9.87964 19.7695 10.1579 19.7695 10.5V11.7356Z" fill="#1499A2"/>
<path d="M12.9717 14.8271H8.0293C7.68952 14.8271 7.41406 15.1026 7.41406 15.4424C7.41406 15.7822 7.68952 16.0576 8.0293 16.0576H12.9717C13.3115 16.0576 13.5869 15.7822 13.5869 15.4424C13.5869 15.1026 13.3115 14.8271 12.9717 14.8271Z" fill="#1499A2"/>
<path d="M9.19192 13.2251C9.54149 13.5746 10.0063 13.7672 10.5006 13.7672C10.995 13.7672 11.4598 13.5746 11.8094 13.2251C12.0496 12.9848 12.0496 12.5953 11.8094 12.355C11.5691 12.1148 11.1796 12.1148 10.9393 12.355C10.8222 12.4722 10.6664 12.5367 10.5007 12.5367C10.335 12.5367 10.1792 12.4721 10.062 12.355C9.82179 12.1147 9.43223 12.1147 9.19196 12.355C8.95165 12.5953 8.95165 12.9848 9.19192 13.2251Z" fill="#1499A2"/>
<path d="M9.33673 9.95552C9.577 9.71526 9.577 9.32573 9.33673 9.08546C9.0965 8.84523 8.70693 8.84519 8.46666 9.08546C8.22479 9.32733 7.83121 9.32733 7.5893 9.08546C7.34903 8.84523 6.9595 8.84523 6.71923 9.08546C6.47901 9.32573 6.47901 9.71526 6.71923 9.95552C7.08005 10.3163 7.55402 10.4967 8.02796 10.4967C8.5019 10.4967 8.97591 10.3163 9.33673 9.95552Z" fill="#1499A2"/>
<path d="M13.4099 9.08544C13.168 9.32731 12.7744 9.32731 12.5325 9.08544C12.2923 8.84522 11.9027 8.84522 11.6625 9.08544C11.4222 9.32571 11.4222 9.71524 11.6625 9.95551C12.0233 10.3163 12.4973 10.4967 12.9712 10.4967C13.4451 10.4967 13.9191 10.3163 14.2799 9.95551C14.5202 9.71524 14.5202 9.32571 14.2799 9.08544C14.0397 8.84522 13.6502 8.84522 13.4099 9.08544Z" fill="#1499A2"/>
</g>
<defs>
<clipPath id="clip0_923_8139">
<rect width="21" height="21" fill="white"/>
</clipPath>
</defs>
</svg>
