<svg width="52" height="72" viewBox="0 0 52 72" fill="none" xmlns="http://www.w3.org/2000/svg">
<circle cx="26.3786" cy="46.8001" r="25.2001" fill="#F9F9F9"/>
<path fill-rule="evenodd" clip-rule="evenodd" d="M27.2183 0.0143607C30.8126 -0.225611 33.6769 2.58769 36.3432 5.02465C39.202 7.63766 42.0022 10.3917 42.7444 14.2052C43.6573 18.8957 44.661 25.0907 40.7869 27.8567C36.8853 30.6423 31.852 26.4883 27.2183 25.2905C24.3445 24.5476 21.6973 23.8832 19.1971 22.2755C15.6293 19.9813 9.97068 18.4654 9.97917 14.2052C9.98766 9.94401 15.9512 8.86563 19.2292 6.16726C21.9275 3.94605 23.7396 0.246619 27.2183 0.0143607Z" fill="#66C1BD"/>
<path d="M43.4609 59.4108C37.8693 51.5251 34.0061 41.804 37.9927 32.788C38.9701 30.5742 41.1101 27.3183 40.8374 22.5225C40.6471 19.1785 38.8724 15.2278 36.7221 12.6252C29.4432 3.83214 19.3814 4.32468 11.9893 9.14633C10.158 10.3388 7.03556 13.548 5.66723 16.8506C4.04169 20.765 3.63016 24.9489 4.27832 27.8212C5.14253 31.6629 -0.181614 36.8734 0.574568 38.631C1.17128 40.0257 4.05712 39.9479 4.52524 39.305C4.99335 38.6621 1.94804 38.1126 2.25154 38.7036C2.55505 39.2895 4.28346 39.4346 4.39149 40.5389C4.49437 41.6433 3.65074 42.4417 3.70218 43.012C3.73819 43.4319 4.08799 43.4527 4.45836 43.5356C4.82874 43.6186 6.96354 43.6497 6.87609 43.069C6.79378 42.5246 5.28656 43.5875 4.48923 44.5674C4.0777 45.0703 4.10342 46.4545 5.7804 46.7864C7.45223 47.113 4.75672 50.063 7.62713 51.7635C10.4975 53.4589 16.2075 51.9502 19.0162 49.9852C19.6077 49.5705 19.3917 49.0416 19.2425 48.9846C18.7641 48.798 16.5676 51.2036 18.512 53.6611C19.726 55.1905 20.2353 57.5547 20.2713 59.7582C20.2816 60.2766 20.7086 60.6966 21.223 60.6862C25.7035 60.6136 43.8107 58.3998 42.0206 60.4218C40.2459 62.423 29.2838 45.6043 35.4361 32.4873C36.3621 30.512 38.4506 27.5101 38.2654 23.181C38.2654 23.1758 38.2654 23.1758 38.2654 23.1706C38.2397 22.5796 37.7561 22.113 37.1697 22.113H26.2642C26.2642 22.113 29.3095 24.8504 29.0883 25.1252C28.8671 25.4 25.8527 24.7364 25.7961 25.1252C25.7395 25.514 28.3733 28.2204 28.2652 28.3863C28.1572 28.5522 23.6561 25.2341 23.6561 24.5134C23.6561 23.7928 25.9195 24.1246 26.4597 24.1246C26.9998 24.1246 24.4998 21.6878 24.4998 21.6878C21.8506 21.6878 20.4051 21.6878 12.8793 21.6878C8.86171 21.6878 9.51501 15.5285 12.7918 16.2959C14.3042 16.6484 13.6406 17.675 12.5757 17.0321C9.57674 15.2123 13.1056 9.8618 16.2178 11.4224C18.9081 12.7703 16.5727 14.0509 16.2744 12.5785C16.0789 11.6246 17.3906 8.91821 20.2919 8.91821C22.8639 8.91821 25.1582 10.7639 24.9216 12.6822C24.7878 13.7658 23.723 13.4858 24.0059 12.6615C24.7621 10.4477 26.9895 9.91365 29.1809 11.0439C31.9947 12.4956 31.5523 16.9543 29.9114 16.6225C28.2704 16.2907 32.1285 13.8332 33.7797 15.3886C35.2252 16.7469 35.8271 20.5783 32.1953 20.7805C29.9988 20.8998 18.512 20.8583 18.512 20.8583C18.512 20.8583 21.5573 23.5957 21.3361 23.8705C21.115 24.1453 18.1005 23.4817 18.0439 23.8705C17.9873 24.2594 20.6211 26.9657 20.5131 27.1316C20.4051 27.2975 15.904 23.9794 15.904 23.2587C15.904 22.5381 18.1674 22.8699 18.7075 22.8699C19.2476 22.8699 16.7373 20.4902 16.7373 20.4902" stroke="#3B3B4A" stroke-miterlimit="10" stroke-linecap="round" stroke-linejoin="round"/>
</svg>
