<svg width="23" height="21" viewBox="0 0 23 21" fill="none" xmlns="http://www.w3.org/2000/svg">
<g clip-path="url(#clip0_923_8565)">
<path d="M20.157 8.64917C19.928 8.64917 19.7083 8.68719 19.504 8.75647V2.78394C19.504 1.24884 18.1894 0 16.5736 0H5.53171C3.91587 0 2.60125 1.24884 2.60125 2.78394V8.75647C2.397 8.68723 2.17724 8.64917 1.94824 8.64917C0.873978 8.64917 0 9.47945 0 10.5V11.7356C0 12.7561 0.873978 13.5864 1.94824 13.5864C2.18359 13.5864 2.40926 13.5466 2.61831 13.4736C2.89225 17.6675 6.57019 21 11.0526 21C15.5351 21 19.213 17.6675 19.487 13.4736C19.696 13.5466 19.9217 13.5864 20.157 13.5864C21.2313 13.5864 22.1053 12.7561 22.1053 11.7356V10.5C22.1053 9.47945 21.2313 8.64917 20.157 8.64917ZM5.53171 1.23047H16.5736C17.4752 1.23047 18.2088 1.92732 18.2088 2.78394V6.26501C17.7987 5.70187 17.3161 4.96211 16.8344 4.04689C16.7247 3.83845 16.5005 3.70679 16.2551 3.70679H5.85012C5.60481 3.70679 5.3806 3.83845 5.27085 4.04689C4.78911 4.96215 4.30651 5.70195 3.89648 6.26505V2.78394C3.89648 1.92732 4.63006 1.23047 5.53171 1.23047ZM1.94824 12.356C1.58817 12.356 1.29523 12.0777 1.29523 11.7356V10.5C1.29523 10.1579 1.58817 9.87964 1.94824 9.87964C2.30832 9.87964 2.60125 10.1579 2.60125 10.5V11.7356C2.60125 12.0777 2.30832 12.356 1.94824 12.356ZM18.2088 12.9712C18.2088 16.7198 14.9986 19.7695 11.0526 19.7695C7.10671 19.7695 3.89648 16.7198 3.89648 12.9712V8.27055C4.29395 7.84846 5.25432 6.74022 6.24633 4.93726H15.8589C16.8509 6.74022 17.8114 7.84846 18.2088 8.27055V12.9712ZM20.81 11.7356C20.81 12.0777 20.5171 12.356 20.157 12.356C19.7969 12.356 19.504 12.0777 19.504 11.7356V10.5C19.504 10.1579 19.7969 9.87964 20.157 9.87964C20.5171 9.87964 20.81 10.1579 20.81 10.5V11.7356Z" fill="#1499A2"/>
<path d="M9.67404 12.355C9.42112 12.5953 9.42117 12.9848 9.67408 13.2251C10.0539 13.5859 10.5528 13.7663 11.0517 13.7663C11.5506 13.7663 12.0495 13.5859 12.4293 13.2251C12.6822 12.9849 12.6822 12.5953 12.4293 12.355C12.1764 12.1147 11.7664 12.1148 11.5134 12.355C11.2588 12.5969 10.8446 12.5969 10.5899 12.355C10.337 12.1148 9.92696 12.1148 9.67404 12.355Z" fill="#1499A2"/>
<path d="M9.10531 9.33314C9.10531 9.67291 9.39527 9.94837 9.75293 9.94837C10.1106 9.94837 10.4005 9.67291 10.4005 9.33314V8.02835C10.4005 7.81757 10.287 7.62151 10.0996 7.50868C9.91224 7.39585 9.67711 7.38198 9.47653 7.47197L6.87527 8.63837C6.55181 8.78336 6.41335 9.15008 6.56601 9.45733C6.71868 9.76462 7.10466 9.8962 7.42808 9.75109L9.10531 8.99906V9.33314Z" fill="#1499A2"/>
<path d="M15.3008 7.50868C15.1134 7.39585 14.8783 7.38198 14.6777 7.47197L12.0764 8.63837C11.753 8.78336 11.6145 9.15008 11.7672 9.45733C11.9198 9.76462 12.3058 9.8962 12.6292 9.75109L14.3065 8.99907V9.33318C14.3065 9.67295 14.5964 9.94841 14.9541 9.94841C15.3118 9.94841 15.6017 9.67295 15.6017 9.33318V8.02835C15.6017 7.81757 15.4882 7.62151 15.3008 7.50868Z" fill="#1499A2"/>
<path d="M12.3524 16.0625H9.75113C9.39347 16.0625 9.10352 16.338 9.10352 16.6777C9.10352 17.0175 9.39347 17.293 9.75113 17.293H12.3524C12.71 17.293 13 17.0175 13 16.6777C13 16.338 12.71 16.0625 12.3524 16.0625Z" fill="#1499A2"/>
</g>
<defs>
<clipPath id="clip0_923_8565">
<rect width="22.1053" height="21" fill="white"/>
</clipPath>
</defs>
</svg>
