<svg width="16" height="21" viewBox="0 0 16 21" fill="none" xmlns="http://www.w3.org/2000/svg">
<path d="M12.8246 8.16978C11.6596 7.00477 9.85239 6.79567 8.46334 7.64702C8.37373 7.64702 8.2841 7.6769 8.22435 7.73664L7.37301 8.588C7.31326 8.64774 7.28339 8.73735 7.28339 8.82697C6.92493 9.3796 6.71582 9.99198 6.65607 10.5745C6.61126 10.6044 6.5814 10.6492 6.55153 10.694L6.01384 11.7843C5.96903 11.8739 5.96903 11.9785 6.01384 12.0531L0.293343 18.5055C-0.109929 18.9386 -0.0949822 19.6257 0.323226 20.0439L0.95053 20.6712C1.15963 20.8803 1.44343 20.9998 1.74215 20.9998C2.02593 20.9998 2.27984 20.8952 2.48894 20.716L8.94129 14.9955C8.98609 15.0105 9.01597 15.0254 9.06078 15.0254C9.10559 15.0254 9.16533 15.0105 9.21014 14.9955L10.3005 14.4578C10.3453 14.428 10.3901 14.3981 10.42 14.3533C11.0025 14.2935 11.6298 14.0695 12.1675 13.726C12.2571 13.726 12.3318 13.6961 12.3915 13.6364L13.2429 12.785C13.3026 12.7253 13.3325 12.6357 13.3325 12.546V12.5311C14.1988 11.1271 13.9897 9.31985 12.8246 8.16978ZM12.3616 8.6328C13.2429 9.51403 13.452 10.8583 12.9143 11.9635L9.04583 8.0951C10.1362 7.54247 11.4804 7.73664 12.3616 8.6328ZM10.166 13.6961L8.73218 12.2622L7.29833 10.8284C7.29833 10.3654 7.44769 9.85755 7.71654 9.39454L11.6148 13.2928C11.1369 13.5467 10.629 13.6961 10.166 13.6961ZM1.39861 20.2082L0.771306 19.5809C0.592074 19.4017 0.592059 19.1328 0.756355 18.9386L0.860918 18.8341L2.14541 20.1186L2.02591 20.2231C1.86162 20.3874 1.57784 20.3725 1.39861 20.2082ZM2.6383 19.6854L1.29407 18.3412L6.43203 12.5311L8.43346 14.5325L2.6383 19.6854ZM9.12051 14.2935L6.68596 11.859L6.92493 11.381L8.25423 12.7103L9.58354 14.0396L9.12051 14.2935ZM12.1675 12.9194L8.07499 8.82697L8.46334 8.43864L12.5558 12.5311L12.1675 12.9194Z" fill="#1499A2"/>
<path d="M5.17729 15.3545C5.04287 15.4889 5.04287 15.6831 5.17729 15.8175C5.23704 15.8773 5.32665 15.9072 5.41627 15.9072C5.50588 15.9072 5.58056 15.8773 5.65524 15.8175L6.76051 14.7123C6.89493 14.5779 6.89493 14.3837 6.76051 14.2493C6.62608 14.1148 6.43192 14.1148 6.29749 14.2493L5.17729 15.3545Z" fill="#1499A2"/>
<path d="M10.1513 8.60301C10.6293 8.58807 11.1969 8.64782 11.7644 9.23032C11.8242 9.29007 11.9138 9.31994 12.0034 9.31994C12.093 9.31994 12.1677 9.29007 12.2424 9.23032C12.3768 9.0959 12.3768 8.90173 12.2424 8.7673C11.391 7.91595 10.4799 7.94583 10.1364 7.96076C9.95717 7.96076 9.80781 8.11012 9.82275 8.30429C9.82275 8.46859 9.9721 8.61795 10.1513 8.60301Z" fill="#1499A2"/>
<path d="M4.81897 7.69235C4.81897 8.20017 5.22224 8.60344 5.73006 8.60344C6.23789 8.60344 6.64115 8.20017 6.64115 7.69235C6.64115 7.18453 6.23789 6.78125 5.73006 6.78125C5.22224 6.78125 4.81897 7.18453 4.81897 7.69235ZM5.73006 7.43844C5.86449 7.43844 5.98397 7.55793 5.98397 7.69235C5.98397 7.82678 5.86449 7.94626 5.73006 7.94626C5.59564 7.94626 5.47616 7.82678 5.47616 7.69235C5.47616 7.54299 5.5807 7.43844 5.73006 7.43844Z" fill="#1499A2"/>
<path d="M8.19405 1.82218C8.70187 1.82218 9.10514 1.41892 9.10514 0.911092C9.10514 0.403268 8.70187 0 8.19405 0C7.68623 0 7.28296 0.403268 7.28296 0.911092C7.28296 1.41892 7.68623 1.82218 8.19405 1.82218ZM8.19405 0.657178C8.32847 0.657178 8.44796 0.776668 8.44796 0.911092C8.44796 1.04552 8.32847 1.16501 8.19405 1.16501C8.05963 1.16501 7.94015 1.04552 7.94015 0.911092C7.94015 0.776668 8.04469 0.657178 8.19405 0.657178Z" fill="#1499A2"/>
<path d="M7.98553 5.01851C7.98553 5.52634 8.3888 5.92961 8.89663 5.92961C9.40445 5.92961 9.80774 5.52634 9.80774 5.01851C9.80774 4.51069 9.40445 4.10742 8.89663 4.10742C8.3888 4.10742 7.98553 4.51069 7.98553 5.01851ZM9.15055 5.01851C9.15055 5.15294 9.03105 5.27243 8.89663 5.27243C8.7622 5.27243 8.64272 5.15294 8.64272 5.01851C8.64272 4.88409 8.7622 4.7646 8.89663 4.7646C9.03105 4.7646 9.15055 4.86915 9.15055 5.01851Z" fill="#1499A2"/>
<path d="M14.5571 4.95898C14.0493 4.95898 13.6461 5.36226 13.6461 5.87009C13.6461 6.37791 14.0493 6.78118 14.5571 6.78118C15.065 6.78118 15.4682 6.37791 15.4682 5.87009C15.4682 5.36226 15.065 4.95898 14.5571 4.95898ZM14.5571 6.124C14.4227 6.124 14.3032 6.00451 14.3032 5.87009C14.3032 5.73566 14.4227 5.61617 14.5571 5.61617C14.6916 5.61617 14.8111 5.73566 14.8111 5.87009C14.8111 6.00451 14.6916 6.124 14.5571 6.124Z" fill="#1499A2"/>
<path d="M11.8392 3.70403C12.347 3.70403 12.7503 3.30075 12.7503 2.79293C12.7503 2.2851 12.347 1.88184 11.8392 1.88184C11.3314 1.88184 10.9281 2.2851 10.9281 2.79293C10.9281 3.30075 11.3314 3.70403 11.8392 3.70403ZM11.8392 2.53902C11.9736 2.53902 12.0931 2.6585 12.0931 2.79293C12.0931 2.92735 11.9736 3.04684 11.8392 3.04684C11.7048 3.04684 11.5853 2.92735 11.5853 2.79293C11.5853 2.6585 11.7048 2.53902 11.8392 2.53902Z" fill="#1499A2"/>
<path d="M4.23641 5.92961C4.74423 5.92961 5.1475 5.52634 5.1475 5.01851C5.1475 4.51069 4.74423 4.10742 4.23641 4.10742C3.72859 4.10742 3.32532 4.51069 3.32532 5.01851C3.32532 5.5114 3.72859 5.92961 4.23641 5.92961ZM4.23641 4.7646C4.37083 4.7646 4.49031 4.88409 4.49031 5.01851C4.49031 5.15294 4.37083 5.27243 4.23641 5.27243C4.10199 5.27243 3.9825 5.15294 3.9825 5.01851C3.9825 4.86915 4.08705 4.7646 4.23641 4.7646Z" fill="#1499A2"/>
</svg>
