<svg width="21" height="21" viewBox="0 0 21 21" fill="none" xmlns="http://www.w3.org/2000/svg">
<g clip-path="url(#clip0_923_8587)">
<path d="M19.1492 8.64917C18.9316 8.64917 18.7229 8.68719 18.5288 8.75647V2.78394C18.5288 1.24888 17.2799 0 15.7449 0H5.25513C3.72008 0 2.47119 1.24888 2.47119 2.78394V8.75647C2.27715 8.68719 2.06838 8.64917 1.85083 8.64917C0.830279 8.64917 0 9.47945 0 10.5V11.7356C0 12.7561 0.830279 13.5864 1.85083 13.5864C2.07441 13.5864 2.28879 13.5466 2.48739 13.4736C2.74764 17.6675 6.24168 21 10.5 21C14.7583 21 18.2524 17.6675 18.5126 13.4736C18.7112 13.5466 18.9256 13.5864 19.1492 13.5864C20.1697 13.5864 21 12.7561 21 11.7356V10.5C21 9.47945 20.1697 8.64917 19.1492 8.64917ZM2.47119 11.7356C2.47119 12.0777 2.1929 12.356 1.85083 12.356C1.50876 12.356 1.23047 12.0777 1.23047 11.7356V10.5C1.23047 10.1579 1.50876 9.87964 1.85083 9.87964C2.1929 9.87964 2.47119 10.1579 2.47119 10.5V11.7356ZM17.2983 12.9712C17.2983 16.7198 14.2486 19.7695 10.5 19.7695C6.75138 19.7695 3.70166 16.7198 3.70166 12.9712V8.27055C4.07925 7.84846 4.9916 6.74026 5.93402 4.93726H15.066C16.0084 6.74026 16.9208 7.84846 17.2983 8.27055V12.9712ZM17.2983 6.26501C16.9087 5.70187 16.4503 4.96211 15.9927 4.04689C15.8885 3.83845 15.6754 3.70679 15.4424 3.70679H5.55762C5.32457 3.70679 5.11157 3.83845 5.00731 4.04689C4.54966 4.96215 4.09119 5.70195 3.70166 6.26505V2.78394C3.70166 1.92737 4.39856 1.23047 5.25513 1.23047H15.7449C16.6014 1.23047 17.2983 1.92737 17.2983 2.78394V6.26501ZM19.7695 11.7356C19.7695 12.0777 19.4912 12.356 19.1492 12.356C18.8071 12.356 18.5288 12.0777 18.5288 11.7356V10.5C18.5288 10.1579 18.8071 9.87964 19.1492 9.87964C19.4912 9.87964 19.7695 10.1579 19.7695 10.5V11.7356Z" fill="#1499A2"/>
<path d="M9.87939 8.89572V7.87033C9.87939 7.36633 9.68043 6.89523 9.31916 6.54372C8.95798 6.19234 8.48199 6.0065 7.97697 6.02024C6.98488 6.04744 6.17773 6.88891 6.17773 7.89605V8.89577C6.17773 9.91632 7.00801 10.7466 8.02856 10.7466C9.04912 10.7466 9.87939 9.91628 9.87939 8.89572ZM7.4082 8.89572V7.89601C7.4082 7.54902 7.6785 7.25932 8.01068 7.25018C8.01659 7.25001 8.02245 7.24993 8.02832 7.24993C8.19115 7.24993 8.34426 7.31195 8.46107 7.4256C8.58219 7.54344 8.64893 7.70139 8.64893 7.87029V8.89568C8.64893 9.23775 8.37063 9.51604 8.02856 9.51604C7.68649 9.51604 7.4082 9.23779 7.4082 8.89572Z" fill="#1499A2"/>
<path d="M12.9203 6.02024C11.9282 6.04744 11.1211 6.88891 11.1211 7.89605V8.89577C11.1211 9.91632 11.9514 10.7466 12.9719 10.7466C13.9925 10.7466 14.8228 9.91632 14.8228 8.89577V7.87037C14.8228 7.36637 14.6238 6.89527 14.2625 6.54377C13.9013 6.19234 13.4251 6.0065 12.9203 6.02024ZM13.5923 8.89572C13.5923 9.23779 13.314 9.51609 12.9719 9.51609C12.6299 9.51609 12.3516 9.23779 12.3516 8.89572V7.89601C12.3516 7.54902 12.6219 7.25932 12.954 7.25018C12.9599 7.25001 12.9658 7.24993 12.9717 7.24993C13.1345 7.24993 13.2876 7.31195 13.4044 7.4256C13.5256 7.54344 13.5923 7.70139 13.5923 7.87029V8.89572Z" fill="#1499A2"/>
<path d="M9.19192 11.5347C8.95165 11.775 8.95165 12.1645 9.19192 12.4048C9.5415 12.7543 10.0063 12.9469 10.5006 12.9469C10.995 12.9469 11.4598 12.7543 11.8094 12.4048C12.0496 12.1645 12.0496 11.775 11.8094 11.5347C11.5691 11.2945 11.1796 11.2945 10.9393 11.5347C10.8222 11.6519 10.6664 11.7164 10.5007 11.7164C10.335 11.7164 10.1792 11.6518 10.062 11.5347C9.82172 11.2944 9.43215 11.2944 9.19192 11.5347Z" fill="#1499A2"/>
<path d="M10.5005 14.0068C8.79863 14.0068 7.41406 15.3914 7.41406 17.0933C7.41406 17.433 7.68952 17.7085 8.0293 17.7085H12.9717C13.3115 17.7085 13.5869 17.433 13.5869 17.0933C13.5869 15.3914 12.2023 14.0068 10.5005 14.0068ZM8.74933 16.478C9.0037 15.7561 9.69269 15.2373 10.5005 15.2373C11.3083 15.2373 11.9973 15.7561 12.2517 16.478H8.74933Z" fill="#1499A2"/>
</g>
<defs>
<clipPath id="clip0_923_8587">
<rect width="21" height="21" fill="white"/>
</clipPath>
</defs>
</svg>
