<svg width="30" height="30" viewBox="0 0 30 30" fill="none" xmlns="http://www.w3.org/2000/svg">
<path d="M29.0122 29.483L28.2045 24.9683C27.9496 23.5439 26.8647 22.4504 25.5007 22.1483L24.5937 5.18203C24.4389 2.27625 22.0378 0 19.1275 0H11.5713C10.6693 0 9.82202 0.351797 9.18516 0.990645L8.25498 1.92439C6.79465 2.01803 5.61276 3.19061 5.52686 4.67086L4.7942 17.2867C4.78014 17.529 4.96512 17.7369 5.20741 17.7509C5.45039 17.765 5.65758 17.58 5.67159 17.3377L6.4043 4.72172C6.46694 3.64254 7.36266 2.79721 8.44354 2.79721C8.56038 2.79721 8.67241 2.75068 8.75485 2.66789L9.80772 1.61098C10.2783 1.13895 10.9047 0.878906 11.5713 0.878906H19.1275C21.5705 0.878906 23.5861 2.78959 23.7161 5.22891L24.6161 22.0645H19.2079C19.2131 22.023 19.2167 21.9812 19.2167 21.9383V20.0379C19.2167 19.7487 19.0931 19.4883 18.8969 19.3048C20.7348 18.3727 21.9975 16.4644 21.9975 14.2665V12.0136C21.9975 11.7708 21.8008 11.5741 21.5581 11.5741C21.3153 11.5741 21.1186 11.7708 21.1186 12.0136V14.2665C21.1186 16.8946 18.9804 19.0329 16.3522 19.0329H13.6495C11.0213 19.0329 8.88311 16.8947 8.88311 14.2665V8.64867C8.88311 8.14969 9.28905 7.74381 9.78803 7.74381H11.1636C11.2832 7.7417 11.4196 7.69324 11.5113 7.57307C11.5193 7.56275 12.3848 6.53871 14.9878 6.61535C16.4666 6.65918 17.103 7.37953 17.8398 8.21361C18.138 8.55111 18.4494 8.90303 18.8257 9.22494L17.9271 9.4684C17.6928 9.53186 17.5543 9.7732 17.6178 10.0075C17.6708 10.2033 17.8482 10.3321 18.0417 10.3321C18.0797 10.3321 18.1184 10.3271 18.1569 10.3167L19.7924 9.87363C20.4693 10.2141 21.3355 10.4392 22.5194 10.4392C22.7622 10.4392 22.9589 10.2425 22.9589 9.99978C22.9589 9.75703 22.7622 9.56033 22.5194 9.56033C20.2023 9.56033 19.3747 8.62354 18.4985 7.63172C17.6994 6.72721 16.8732 5.79193 15.0138 5.73674C12.5544 5.66437 11.378 6.49512 10.9787 6.86484H9.78797C8.80436 6.86484 8.00414 7.66506 8.00414 8.64861V14.2664C8.00414 16.4643 9.26684 18.3727 11.1048 19.3047C10.9085 19.4883 10.7849 19.7486 10.7849 20.0379V21.9383C10.7849 21.9811 10.7885 22.023 10.7937 22.0644H5.39707L5.55205 19.3962C5.56612 19.1539 5.38114 18.9461 5.13885 18.9321C4.8961 18.9183 4.68873 19.103 4.67467 19.3453L4.51202 22.146C3.14291 22.4446 2.05278 23.54 1.79719 24.9683L0.989359 29.483C0.946644 29.7219 1.10561 29.9503 1.34455 29.993C1.37075 29.9977 1.39676 29.9999 1.42248 29.9999C1.63125 29.9999 1.81653 29.8505 1.85455 29.6378L2.66239 25.1231C2.88838 23.86 3.98362 22.9433 5.2667 22.9433H7.02276V29.5604C7.02276 29.8031 7.21952 29.9998 7.46221 29.9998C7.70491 29.9998 7.90166 29.8031 7.90166 29.5604V22.9434H22.1V29.5604C22.1 29.8032 22.2967 29.9999 22.5394 29.9999C22.7822 29.9999 22.9789 29.8032 22.9789 29.5604V22.9434H24.7349C26.018 22.9434 27.1133 23.8601 27.3393 25.1231L28.1471 29.6378C28.1851 29.8506 28.3704 29.9999 28.5792 29.9999C28.6048 29.9999 28.6309 29.9977 28.6571 29.993C28.896 29.9503 29.055 29.722 29.0122 29.483ZM11.79 22.0645C11.7204 22.0645 11.6639 22.0079 11.6639 21.9383V20.0379C11.6639 19.9683 11.7205 19.9118 11.79 19.9118H18.2116C18.2813 19.9118 18.3378 19.9684 18.3378 20.0379V21.9383C18.3378 22.0079 18.2812 22.0645 18.2116 22.0645H11.79Z" fill="#1499A2"/>
<path d="M9.96233 13.0401C10.1806 13.1461 10.4436 13.0551 10.5496 12.8369C10.6646 12.6001 10.8997 12.4531 11.1629 12.4531C11.4262 12.4531 11.6612 12.6001 11.7762 12.8368C11.8522 12.9932 12.0088 13.0844 12.1717 13.0844C12.2362 13.0844 12.3016 13.0701 12.3634 13.0401C12.5818 12.9339 12.6728 12.671 12.5667 12.4528C12.3034 11.9108 11.7655 11.5742 11.1629 11.5742C10.5603 11.5742 10.0224 11.9108 9.75913 12.4527C9.65308 12.671 9.74401 12.9339 9.96233 13.0401Z" fill="#1499A2"/>
<path d="M18.8388 11.5742C18.2362 11.5742 17.6982 11.9108 17.4349 12.4527C17.3289 12.671 17.4198 12.934 17.6381 13.0401C17.8566 13.1461 18.1194 13.0551 18.2255 12.8369C18.3405 12.6001 18.5755 12.4531 18.8388 12.4531C19.102 12.4531 19.337 12.6001 19.452 12.8369C19.5281 12.9933 19.6846 13.0844 19.8476 13.0844C19.9121 13.0844 19.9775 13.0701 20.0393 13.0401C20.2577 12.9339 20.3485 12.671 20.2425 12.4527C19.9792 11.9108 19.4413 11.5742 18.8388 11.5742Z" fill="#1499A2"/>
<path d="M11.844 10.3166C11.8825 10.327 11.9211 10.332 11.9592 10.332C12.1527 10.332 12.3301 10.2031 12.3831 10.0073C12.4466 9.77304 12.3081 9.53169 12.0739 9.46823L10.3338 8.99679C10.0996 8.9335 9.85815 9.07173 9.79469 9.30604C9.73124 9.5403 9.86969 9.78165 10.104 9.84511L11.844 10.3166Z" fill="#1499A2"/>
<path d="M16.8893 14.2148H13.1113C12.8686 14.2148 12.6719 14.4115 12.6719 14.6543V14.7654C12.6719 16.0493 13.7164 17.0938 15.0003 17.0938C16.2842 17.0938 17.3287 16.0493 17.3287 14.7654V14.6543C17.3287 14.4115 17.132 14.2148 16.8893 14.2148ZM15.0003 16.2149C14.314 16.2149 13.7375 15.7354 13.5883 15.0937H16.4123C16.2631 15.7354 15.6866 16.2149 15.0003 16.2149Z" fill="#1499A2"/>
</svg>
