<svg width="23" height="21" viewBox="0 0 23 21" fill="none" xmlns="http://www.w3.org/2000/svg">
<g clip-path="url(#clip0_923_11471)">
<path d="M20.157 8.64917C19.928 8.64917 19.7083 8.68719 19.504 8.75647V5.69604C19.504 2.55523 16.8143 0 13.5082 0H8.59709C5.29097 0 2.60125 2.55523 2.60125 5.69604V8.75647C2.397 8.68719 2.17724 8.64917 1.94824 8.64917C0.873978 8.64917 0 9.47945 0 10.5V11.7356C0 12.7561 0.873978 13.5864 1.94824 13.5864C2.18359 13.5864 2.40926 13.5466 2.61831 13.4736C2.89225 17.6675 6.57019 21 11.0526 21C15.5351 21 19.213 17.6675 19.487 13.4736C19.696 13.5466 19.9217 13.5864 20.157 13.5864C21.2313 13.5864 22.1053 12.7561 22.1053 11.7356V10.5C22.1053 9.47945 21.2313 8.64917 20.157 8.64917ZM8.59709 1.23047H13.5082C16.1001 1.23047 18.2088 3.23371 18.2088 5.69604V6.44704C17.3632 6.3963 15.8264 6.27818 14.2357 6.02671C10.1373 5.37891 9.23029 4.42632 9.03056 4.04685C8.92085 3.83841 8.69661 3.70675 8.45129 3.70675C8.20597 3.70675 7.98177 3.83841 7.87202 4.04685C7.06134 5.58715 4.99035 6.17236 3.8964 6.37908V5.696C3.89648 3.23371 6.00516 1.23047 8.59709 1.23047ZM1.94824 12.356C1.58817 12.356 1.29523 12.0777 1.29523 11.7356V10.5C1.29523 10.1579 1.58817 9.87964 1.94824 9.87964C2.30832 9.87964 2.60125 10.1579 2.60125 10.5V11.7356C2.60125 12.0777 2.30832 12.356 1.94824 12.356ZM18.2088 12.9712C18.2088 16.7198 14.9986 19.7695 11.0526 19.7695C7.10671 19.7695 3.89648 16.7198 3.89648 12.9712V7.63268C4.96332 7.45943 7.20006 6.92282 8.51135 5.3662C9.49296 6.19602 11.3163 6.81372 14.0355 7.2425C15.7452 7.51209 17.3572 7.63174 18.2088 7.68054V12.9712ZM20.81 11.7356C20.81 12.0777 20.5171 12.356 20.157 12.356C19.7969 12.356 19.504 12.0777 19.504 11.7356V10.5C19.504 10.1579 19.7969 9.87964 20.157 9.87964C20.5171 9.87964 20.81 10.1579 20.81 10.5V11.7356Z" fill="#1499A2"/>
<path d="M7.80191 10.4954C8.87618 10.4954 9.75015 9.66508 9.75015 8.64453C9.75015 8.30476 9.4602 8.0293 9.10254 8.0293C8.74488 8.0293 8.45492 8.30476 8.45492 8.64453C8.45492 8.9866 8.16199 9.26489 7.80191 9.26489C7.44426 9.26489 7.1543 9.54035 7.1543 9.88013C7.1543 10.2199 7.44426 10.4954 7.80191 10.4954Z" fill="#1499A2"/>
<path d="M9.67406 11.9897C10.042 12.3393 10.5313 12.5318 11.0517 12.5318C11.572 12.5318 12.0613 12.3393 12.4293 11.9897C12.6821 11.7495 12.6821 11.3599 12.4293 11.1197C12.1764 10.8794 11.7663 10.8794 11.5134 11.1197C11.3901 11.2368 11.2261 11.3014 11.0517 11.3014C10.8773 11.3014 10.7133 11.2368 10.59 11.1197C10.3371 10.8794 9.92701 10.8794 9.6741 11.1197C9.42114 11.3599 9.42114 11.7495 9.67406 11.9897Z" fill="#1499A2"/>
<path d="M14.3037 10.4954C14.6614 10.4954 14.9513 10.2199 14.9513 9.88013C14.9513 9.54035 14.6614 9.26489 14.3037 9.26489C13.9436 9.26489 13.6507 8.9866 13.6507 8.64453C13.6507 8.30476 13.3607 8.0293 13.0031 8.0293C12.6454 8.0293 12.3555 8.30476 12.3555 8.64453C12.3555 9.66508 13.2295 10.4954 14.3037 10.4954Z" fill="#1499A2"/>
<path d="M13.5865 14.3682H8.38394C8.02629 14.3682 7.73633 14.6581 7.73633 15.0158C7.73633 16.8072 9.19376 18.2646 10.9852 18.2646C12.7766 18.2646 14.2341 16.8072 14.2341 15.0158C14.2341 14.6581 13.9441 14.3682 13.5865 14.3682ZM10.9852 16.9694C10.1349 16.9694 9.40964 16.4233 9.14187 15.6634H12.8285C12.5608 16.4233 11.8355 16.9694 10.9852 16.9694Z" fill="#1499A2"/>
</g>
<defs>
<clipPath id="clip0_923_11471">
<rect width="22.1053" height="21" fill="white"/>
</clipPath>
</defs>
</svg>
