<svg width="29" height="30" viewBox="0 0 29 30" fill="none" xmlns="http://www.w3.org/2000/svg">
<g clip-path="url(#clip0_923_11296)">
<path d="M10.9997 26.8594H9.07868C8.84754 26.8594 8.66016 27.0561 8.66016 27.2988C8.66016 27.5416 8.84754 27.7383 9.07868 27.7383H10.9997C11.2309 27.7383 11.4182 27.5416 11.4182 27.2988C11.4182 27.0561 11.2309 26.8594 10.9997 26.8594Z" fill="#1499A2"/>
<path d="M10.2137 22.5041C10.2137 22.2613 10.0263 22.0646 9.79518 22.0646L5.01587 22.0645C3.38795 22.0645 1.99825 23.2857 1.71153 24.9683L0.942154 29.4831C0.901472 29.722 1.05287 29.9503 1.28044 29.9931C1.30538 29.9977 1.33016 30 1.35466 30C1.55349 30 1.72989 29.8506 1.76616 29.6379L2.53548 25.1231C2.75072 23.86 3.79387 22.9433 5.01587 22.9433H6.68833V29.5605C6.68833 29.8032 6.87572 29.9999 7.10686 29.9999C7.338 29.9999 7.52539 29.8032 7.52539 29.5605V22.9435H9.79518C10.0263 22.9435 10.2137 22.7468 10.2137 22.5041Z" fill="#1499A2"/>
<path d="M27.6314 29.4832L26.8623 24.9684C26.7522 24.3225 26.4791 23.7334 26.0674 23.2484C26.2341 22.6143 26.1194 21.9131 25.7168 21.3675C25.0934 20.5224 23.9603 20.2919 23.0814 20.831L22.037 21.4716L20.9927 20.8311C20.1136 20.2919 18.9806 20.5224 18.3571 21.3675C18.1999 21.5806 18.0871 21.8175 18.0172 22.0647H17.2411V19.8902C18.1856 19.791 19.0614 19.3566 19.7418 18.6422C20.5212 17.8232 20.9504 16.7347 20.9504 15.5772V15.0907C21.9568 15.0424 22.7986 14.3213 23.0768 13.3467C23.8014 13.2272 24.5817 12.5968 24.7426 11.7462C24.9154 10.9617 24.6898 10.0775 24.3831 9.41367C24.9006 9.10956 25.6691 8.46573 25.5986 7.34815C25.5147 6.02585 24.6268 4.64501 23.3028 3.73955C23.4886 3.25966 23.6764 2.41918 23.2264 1.54384C22.935 0.977167 21.8848 0.290673 19.8115 0.0633852C18.7119 -0.057261 16.554 -0.106246 14.2869 0.880193C12.0198 -0.106246 9.86194 -0.057261 8.76237 0.0633852C6.68907 0.290673 5.63889 0.977167 5.34742 1.54389C4.89753 2.41918 5.08525 3.2596 5.27108 3.73955C3.94707 4.64501 3.05916 6.02585 2.97523 7.34833C2.9047 8.46579 3.67324 9.10962 4.19082 9.41367C3.88401 10.0774 3.6585 10.9617 3.83127 11.7462C4.00722 12.5617 4.65165 13.1788 5.49703 13.3467C5.77533 14.3213 6.61708 15.0424 7.62351 15.0907V15.5772C7.62351 17.8191 9.25255 19.6689 11.3328 19.89V22.5042C11.3328 22.7469 11.5202 22.9436 11.7514 22.9436H17.9487C17.9974 23.3521 18.1574 23.7479 18.428 24.0758L21.0481 27.2502V29.5606C21.0481 29.8033 21.2355 30 21.4667 30C21.6978 30 21.8852 29.8033 21.8852 29.5606V27.7285C22.2326 27.7764 22.7164 27.6303 23.0065 27.2733L25.6342 24.0899C25.8365 24.3978 25.9742 24.7476 26.0382 25.1231L26.8073 29.6379C26.8435 29.8507 27.02 30.0001 27.2188 30.0001C27.2433 30.0001 27.2681 29.9979 27.293 29.9932C27.5207 29.9505 27.6722 29.7221 27.6314 29.4832ZM20.9506 14.2106V11.0789C21.725 11.137 22.3381 11.8172 22.3381 12.6448C22.3381 13.4723 21.725 14.1525 20.9506 14.2106ZM7.62357 14.2106C6.84923 14.1525 6.23616 13.4723 6.23616 12.6448C6.23616 11.8171 6.84923 11.137 7.62357 11.0788V14.2106ZM16.4042 19.4727V22.0648H12.1701V19.4727C12.1701 19.2299 11.9827 19.0332 11.7515 19.0332C9.93699 19.0332 8.46074 17.4829 8.46074 15.5773V11.0223C9.291 10.8712 9.94034 9.97096 10.0494 9.03743C11.8178 9.05742 12.9587 8.21119 13.619 7.46675C14.3818 6.60687 14.6723 5.70686 14.6843 5.66895C14.7571 5.43862 14.6385 5.18988 14.4191 5.11336C14.1997 5.03677 13.9628 5.16146 13.8899 5.3918C13.8876 5.39924 13.6463 6.14644 13.0065 6.86768C12.1567 7.82588 11.0458 8.25426 9.7054 8.14141C9.58916 8.13104 9.47449 8.17393 9.38866 8.25672C9.30289 8.33952 9.25384 8.457 9.25339 8.57934C9.23665 9.56713 8.68167 10.3196 7.73133 10.1959C6.5192 10.1959 5.52053 11.172 5.4097 12.4148C5.11382 12.3238 4.716 11.9588 4.64697 11.5483C4.50193 10.8899 4.79434 9.9995 5.12733 9.45094C5.19619 9.3375 5.21104 9.19693 5.1689 9.0699C5.12677 8.94292 5.03079 8.84284 4.90975 8.7989C4.90657 8.79772 4.59004 8.68106 4.29534 8.43157C3.94444 8.13449 3.7859 7.79921 3.81068 7.40675C3.88222 6.27986 4.77107 5.02693 6.02249 4.28899C6.12321 4.22958 6.19537 4.12803 6.22316 4.01026C6.25089 3.89248 6.23036 3.7668 6.16763 3.6649C6.14626 3.63027 5.64994 2.80655 6.08426 1.96156C6.24738 1.64444 7.21313 1.11709 8.84953 0.937675C9.89425 0.823005 11.9682 0.77777 14.1202 1.76069C14.2267 1.80933 14.3476 1.80933 14.4541 1.76069C16.6061 0.77777 18.6802 0.823239 19.7247 0.937675C21.3611 1.11709 22.3269 1.64444 22.49 1.9615C22.9243 2.80655 22.428 3.63027 22.408 3.66279C22.3436 3.76463 22.3225 3.89002 22.3498 4.00879C22.3771 4.12756 22.4503 4.22917 22.5518 4.28893C23.8032 5.02687 24.6921 6.2798 24.7636 7.40651C24.8241 8.36623 23.7119 8.78161 23.666 8.79831C23.5441 8.84149 23.4479 8.94116 23.4051 9.06855C23.3624 9.19599 23.3778 9.33691 23.4469 9.45082C23.7799 9.99938 24.0723 10.8898 23.9273 11.5482C23.8293 11.9281 23.6016 12.2495 23.1646 12.4146C23.057 11.2089 22.1137 10.2544 20.9505 10.1987V8.65616C20.9505 6.6902 19.4273 5.0908 17.555 5.0908H16.2449C16.0137 5.0908 15.8264 5.2875 15.8264 5.53026C15.8264 5.77302 16.0137 5.96972 16.2449 5.96972H17.5549C18.9657 5.96972 20.1134 7.17483 20.1134 8.65616V15.5772C20.1134 16.5 19.7712 17.3679 19.1499 18.0208C18.5282 18.6736 17.7017 19.0331 16.8226 19.0331C16.5915 19.0332 16.4042 19.2299 16.4042 19.4727ZM25.0134 23.5002L22.3742 26.6977C22.2401 26.8535 21.9384 26.9498 21.6999 26.6977L19.0607 23.5002C18.688 23.0487 18.6705 22.3782 19.0189 21.9058C19.2525 21.5892 19.6077 21.4191 19.9684 21.4191C20.1744 21.4191 20.3823 21.4745 20.5705 21.59L21.8259 22.36C21.9564 22.44 22.1177 22.4399 22.2481 22.36L23.5036 21.59V21.5899C24.0211 21.2726 24.688 21.4082 25.0551 21.9058C25.4037 22.3782 25.3861 23.0487 25.0134 23.5002Z" fill="#1499A2"/>
<path d="M10.6311 11.5742C10.0571 11.5742 9.54485 11.9108 9.29412 12.4528C9.19312 12.6711 9.27978 12.934 9.4877 13.0401C9.54663 13.0701 9.60891 13.0844 9.67029 13.0844C9.82548 13.0844 9.97465 12.9932 10.047 12.8368C10.1565 12.6001 10.3803 12.4531 10.6311 12.4531C10.8818 12.4531 11.1056 12.6001 11.2152 12.8369C11.3162 13.0552 11.5666 13.146 11.7745 13.0401C11.9824 12.9339 12.069 12.671 11.968 12.4527C11.7173 11.9108 11.2049 11.5742 10.6311 11.5742Z" fill="#1499A2"/>
<path d="M19.2786 12.4527C19.0278 11.9108 18.5155 11.5742 17.9416 11.5742C17.3678 11.5742 16.8554 11.9108 16.6047 12.4527C16.5036 12.671 16.5903 12.934 16.7982 13.0401C17.0061 13.1461 17.2565 13.0551 17.3575 12.8369C17.4671 12.6001 17.6909 12.4531 17.9416 12.4531C18.1924 12.4531 18.4161 12.6001 18.5257 12.8369C18.5981 12.9933 18.7472 13.0844 18.9025 13.0844C18.9639 13.0844 19.0262 13.0701 19.0851 13.0401C19.2929 12.934 19.3796 12.671 19.2786 12.4527Z" fill="#1499A2"/>
<path d="M16.9881 10.0603C17.0635 10.1204 17.1522 10.1495 17.2404 10.1495C17.3665 10.1495 17.4913 10.0899 17.5739 9.97701C17.5795 9.96928 18.1452 9.20885 18.9065 9.33271C19.1352 9.36963 19.3488 9.20545 19.3841 8.96556C19.4194 8.72568 19.2629 8.50121 19.0345 8.46406C17.7723 8.25928 16.9408 9.39851 16.906 9.44709C16.7676 9.64051 16.8047 9.91396 16.9881 10.0603Z" fill="#1499A2"/>
<path d="M15.826 14.6007C15.6319 14.5296 15.4173 14.6174 15.3203 14.8078L15.3015 14.8448C15.301 14.8462 15.2471 14.9866 15.0995 15.1212C14.9016 15.3018 14.628 15.3934 14.2862 15.3934C13.7585 15.3934 13.4672 15.1115 13.2885 14.8272C13.1741 14.645 12.9528 14.574 12.7641 14.6658L12.7576 14.669C12.5264 14.7814 12.4469 15.0829 12.587 15.3063C12.8605 15.7425 13.3668 16.2723 14.2862 16.2723C15.3055 16.2723 15.785 15.7066 16.05 15.2336C16.1828 14.9967 16.0731 14.6913 15.826 14.6007Z" fill="#1499A2"/>
</g>
<defs>
<clipPath id="clip0_923_11296">
<rect width="28.5714" height="30" fill="white"/>
</clipPath>
</defs>
</svg>
