<svg width="73" height="93" viewBox="0 0 73 93" fill="none" xmlns="http://www.w3.org/2000/svg">
<path fill-rule="evenodd" clip-rule="evenodd" d="M48.4996 0.970617C48.4837 0.429383 48.0398 -0.000869137 47.4984 1.31844e-06C46.9569 0.000874418 46.5145 0.432554 46.5003 0.973836C46.3854 5.36514 46.1727 8.68056 45.8303 11.1865C45.6381 12.5937 45.408 13.7201 45.1427 14.6237C44.7547 14.4014 44.336 14.1246 43.8776 13.7866C42.3264 12.6428 40.4627 10.9093 37.9367 8.52307C37.5431 8.15119 36.9249 8.16024 36.5423 8.54348C36.1597 8.92673 36.1517 9.5449 36.5242 9.93793L36.5977 10.0155L36.5979 10.0156C38.5486 12.0737 40.0821 13.6915 41.2659 15.0022C40.8775 14.8611 40.4843 14.7278 40.0865 14.6025C37.2173 13.6985 34.4301 13.2465 31.7249 13.2465C28.1999 13.2465 25.0438 13.2876 22.2566 13.3698C19.5514 13.452 17.0101 13.4931 14.6328 13.4931C12.3375 13.4931 10.0011 13.452 7.62381 13.3698C5.32847 13.2054 2.95115 13.0822 0.491859 13C0.163953 13.3287 0 13.904 0 14.7257C0.0819763 15.5475 0.245929 16.1228 0.491859 16.4515C0.983717 16.4515 1.84447 16.5336 3.07412 16.698C4.38574 16.7802 5.61538 16.9445 6.76305 17.1911C7.9927 17.4376 8.64851 17.8074 8.73049 18.3005C9.05839 19.2866 9.22235 20.6014 9.22235 22.245C9.30432 23.8064 9.34531 25.491 9.34531 27.2989L9.46828 78.7011C9.46828 80.509 9.42729 82.1936 9.34531 83.755C9.34531 85.3164 9.18136 86.5901 8.85345 87.5763C8.77148 87.9872 8.11566 88.357 6.88602 88.6857C5.73835 89.0144 4.5087 89.2609 3.19708 89.4253C1.88546 89.5074 0.983717 89.5485 0.491859 89.5485C0.245929 89.8773 0.0819763 90.4525 0 91.2743C0 92.096 0.163953 92.6713 0.491859 93C2.95115 92.8356 5.36946 92.7124 7.74677 92.6302C10.1241 92.4658 12.4604 92.3837 14.7558 92.3837C17.1331 92.3837 19.4284 92.4658 21.6418 92.6302C23.9371 92.7124 26.3144 92.8356 28.7737 93C29.1016 92.6713 29.2246 92.096 29.1426 91.2743C29.1426 90.4525 29.0196 89.8773 28.7737 89.5485C28.2819 89.5485 27.3801 89.5074 26.0685 89.4253C24.7569 89.2609 23.5272 89.0144 22.3796 88.6857C21.2319 88.357 20.5761 87.9872 20.4121 87.5763C20.1662 86.7545 20.0022 85.7273 19.9203 84.4946V80.1803V79.4407V78.7011V56.2666H26.1915C27.9949 56.2666 29.2246 56.7596 29.8804 57.7458C31.7659 60.7042 33.7333 63.7447 35.7827 66.8675C37.8321 69.9081 39.7586 72.7843 41.562 75.4961C43.3655 78.208 44.9231 80.509 46.2347 82.3991C47.5463 84.2892 48.4481 85.5629 48.9399 86.2203C50.3335 88.0282 51.7681 89.302 53.2437 90.0416C54.7193 90.699 55.8669 91.1921 56.6867 91.5208C57.9163 91.9317 59.8428 92.3015 62.466 92.6302C65.1712 92.8767 68.5323 93 72.5491 93C72.6311 92.8356 72.7541 92.3015 72.918 91.3975C73.082 90.4936 73 89.8773 72.6721 89.5485C69.393 89.302 66.7288 88.6035 64.6794 87.453C62.712 86.3025 60.8675 84.5768 59.146 82.2758C56.5227 78.7422 54.1454 75.5372 52.014 72.661C49.8826 69.7026 47.8332 66.7442 45.8658 63.7858C43.8984 60.8274 41.849 57.5814 39.7176 54.0478C42.4228 53.1438 45.0051 51.6646 47.4643 49.6102C50.0056 47.5557 52.055 45.1726 53.6126 42.4607C55.2521 39.7488 56.0719 36.9548 56.0719 34.0786C56.0719 32.2376 55.862 30.5252 55.4422 28.9414C55.9521 29.4253 56.4916 29.9368 57.0633 30.4769C57.4569 30.8488 58.0751 30.8398 58.4577 30.4565C58.8403 30.0733 58.8483 29.4551 58.4758 29.0621C56.0853 26.5401 54.3511 24.6816 53.208 23.1351C52.9181 22.7429 52.6734 22.38 52.4696 22.0406C53.3273 21.6338 54.4317 21.3334 55.8837 21.1139C58.3359 20.7432 61.6007 20.6255 66.0284 20.4996C66.5697 20.4842 67.0005 20.0407 67 19.4992C66.9995 18.9576 66.5681 18.5148 66.0268 18.5004C61.5989 18.3818 58.338 18.2696 55.8907 17.9025C54.4362 17.6844 53.3324 17.3841 52.4766 16.9761C52.6805 16.6366 52.9251 16.2736 53.2144 15.8814C54.3588 14.3304 56.0922 12.4659 58.4776 9.93602C58.849 9.54206 58.8395 8.92401 58.456 8.54175C58.0725 8.15949 57.4544 8.1519 57.0616 8.52463C54.5443 10.9135 52.6871 12.6473 51.1405 13.7903C50.747 14.0812 50.3827 14.3267 50.042 14.531C49.6367 13.6742 49.3373 12.5705 49.1183 11.1188C48.7482 8.66644 48.6298 5.40104 48.4996 0.970617ZM26.4374 17.1911C31.447 17.1911 35.3601 18.15 38.1767 20.0677C38.3059 20.2547 38.4971 20.3955 38.7206 20.4605C39.4137 20.9908 40.0329 21.5856 40.5783 22.245C43.4475 25.6143 44.8821 29.9286 44.8821 35.188C44.8821 38.7216 43.9803 41.8033 42.1769 44.433C40.3734 46.9805 38.0371 48.9938 35.1679 50.473C32.3807 51.8701 29.4295 52.5686 26.3144 52.5686H19.9203L19.7973 27.4222V22.1217C19.8793 20.3138 20.0842 19.0401 20.4121 18.3005C20.6581 17.7252 21.5188 17.3965 22.9944 17.3143C24.5519 17.2322 25.6996 17.1911 26.4374 17.1911Z" fill="#66C1BD"/>
</svg>
