<svg width="21" height="21" viewBox="0 0 21 21" fill="none" xmlns="http://www.w3.org/2000/svg">
<g clip-path="url(#clip0_923_11068)">
<path d="M11.8117 15.8814C11.4611 16.2319 10.9951 16.425 10.4993 16.425C10.0036 16.425 9.53751 16.2319 9.18699 15.8814C8.94668 15.6411 8.55719 15.6411 8.31692 15.8814C8.07665 16.1216 8.07665 16.5112 8.31692 16.7514C8.89988 17.3344 9.67495 17.6554 10.4994 17.6554C11.3238 17.6554 12.0989 17.3344 12.6818 16.7514C12.922 16.5112 12.922 16.1216 12.6818 15.8814C12.4415 15.6411 12.052 15.6411 11.8117 15.8814Z" fill="#1499A2"/>
<path d="M19.1492 8.64917C18.9316 8.64917 18.7229 8.68719 18.5288 8.75647V8.02881C18.5288 7.91216 18.5254 7.79543 18.5204 7.67878C18.7614 7.69203 18.9654 7.70163 19.1231 7.70835C19.1318 7.70872 19.1405 7.70893 19.1492 7.70893C19.3208 7.70893 19.4851 7.63719 19.6019 7.51033C19.7245 7.37707 19.7822 7.19656 19.7596 7.01687C19.5226 5.13352 18.3386 3.34593 16.4259 1.98339C14.6564 0.7229 12.4965 0 10.5 0C8.35538 0 6.33917 0.835119 4.82274 2.35155C3.56885 3.60548 2.75641 5.26075 2.53509 7.01244C2.53509 7.01256 2.53509 7.01265 2.53505 7.01277C2.49264 7.3475 2.47115 7.68932 2.47115 8.02881V8.75647C2.27711 8.68719 2.06834 8.64917 1.85079 8.64917C0.830279 8.64917 0 9.47945 0 10.5V11.7356C0 12.7561 0.830279 13.5864 1.85083 13.5864C2.07441 13.5864 2.28879 13.5466 2.48739 13.4736C2.74764 17.6675 6.24168 21 10.5 21C14.7583 21 18.2524 17.6675 18.5126 13.4736C18.7112 13.5466 18.9256 13.5864 19.1492 13.5864C20.1697 13.5864 21 12.7561 21 11.7356V10.5C21 9.47945 20.1697 8.64917 19.1492 8.64917ZM9.2644 8.64917H3.70166V8.02881C3.70166 7.89608 3.70597 7.76299 3.71368 7.6303C4.75519 7.45192 6.86507 6.90978 8.09948 5.34959C9.06121 6.15169 10.8918 6.75593 13.6447 7.18475C14.9516 7.38831 16.2465 7.51685 17.2849 7.597C17.2938 7.74055 17.2983 7.8848 17.2983 8.02881V8.64917H11.6774H9.2644ZM8.26891 9.87964L7.64855 11.1204H5.81245L4.57172 9.87964H8.26891ZM16.37 9.87964L15.1293 11.1204H13.2932L12.6728 9.87964H16.37ZM5.6928 3.22161C6.97684 1.93758 8.68407 1.23047 10.5 1.23047C12.2208 1.23047 14.1692 1.8866 15.7119 2.98557C17.081 3.9608 18.0085 5.16608 18.3848 6.43867C17.296 6.37461 15.5742 6.23991 13.8341 5.96892C9.63108 5.31423 8.75901 4.4066 8.57912 4.04677C8.47489 3.83828 8.2619 3.70662 8.02885 3.70658H8.02881C7.7958 3.70658 7.58276 3.83824 7.47854 4.04664C6.75589 5.4917 4.98635 6.09545 3.91531 6.33495C4.2171 5.16592 4.83213 4.08233 5.6928 3.22161ZM1.85083 12.356C1.50876 12.356 1.23047 12.0777 1.23047 11.7356V10.5C1.23047 10.1579 1.50876 9.87964 1.85083 9.87964C2.1929 9.87964 2.47119 10.1579 2.47119 10.5V11.7356C2.47119 12.0777 2.1929 12.356 1.85083 12.356ZM17.2983 12.9712C17.2983 16.7198 14.2486 19.7695 10.5 19.7695C6.75138 19.7695 3.70166 16.7198 3.70166 12.9712V10.7497L5.12261 12.1706C5.23798 12.286 5.39446 12.3509 5.55762 12.3509H8.02881C8.26186 12.3509 8.47485 12.2192 8.57912 12.0108L9.64466 9.87968H11.2972L12.3627 12.0108C12.4669 12.2192 12.6799 12.3509 12.913 12.3509H15.3842C15.5474 12.3509 15.7039 12.2861 15.8192 12.1706L17.2983 10.6915V12.9712ZM19.7695 11.7356C19.7695 12.0777 19.4912 12.356 19.1492 12.356C18.8071 12.356 18.5288 12.0777 18.5288 11.7356V10.5C18.5288 10.1579 18.8071 9.87964 19.1492 9.87964C19.4912 9.87964 19.7695 10.1579 19.7695 10.5V11.7356Z" fill="#1499A2"/>
<path d="M10.5006 14.1764C10.9745 14.1764 11.4486 13.996 11.8093 13.6353C12.0496 13.395 12.0496 13.0055 11.8094 12.7652C11.5691 12.525 11.1796 12.5249 10.9393 12.7651C10.6974 13.007 10.3039 13.007 10.062 12.7652C9.82169 12.5249 9.43216 12.5249 9.19189 12.7652C8.95166 13.0054 8.95166 13.395 9.19189 13.6352C9.55275 13.996 10.0266 14.1764 10.5006 14.1764Z" fill="#1499A2"/>
</g>
<defs>
<clipPath id="clip0_923_11068">
<rect width="21" height="21" fill="white"/>
</clipPath>
</defs>
</svg>
