<svg width="20" height="21" viewBox="0 0 20 21" fill="none" xmlns="http://www.w3.org/2000/svg">
<g clip-path="url(#clip0_923_11151)">
<path d="M18.1917 8.64917C17.985 8.64917 17.7867 8.68719 17.6024 8.75647V8.02881C17.6024 7.91216 17.5991 7.79543 17.5943 7.67878C17.8233 7.69203 18.0171 7.70163 18.167 7.70831C18.1752 7.70868 18.1835 7.70889 18.1918 7.70889C18.3548 7.70889 18.5108 7.63715 18.6218 7.51029C18.7383 7.37703 18.7931 7.19652 18.7716 7.01683C18.5464 5.13347 17.4217 3.34589 15.6046 1.98335C13.9236 0.7229 11.8717 0 9.975 0C7.93765 0 6.02225 0.835119 4.58164 2.35155C3.39045 3.60548 2.61859 5.26075 2.40834 7.0124C2.4083 7.01261 2.40834 7.01281 2.4083 7.01306C2.36805 7.34791 2.34763 7.68965 2.34763 8.02885V8.75651C2.16329 8.68727 1.96496 8.64921 1.75829 8.64921C0.788765 8.64917 0 9.47945 0 10.5V11.7356C0 12.7561 0.788765 13.5864 1.75829 13.5864C1.97065 13.5864 2.17436 13.5466 2.36302 13.4736C2.61026 17.6675 5.92959 21 9.975 21C14.0204 21 17.3397 17.6675 17.587 13.4736C17.7756 13.5466 17.9793 13.5864 18.1917 13.5864C19.1612 13.5864 19.95 12.7561 19.95 11.7356V10.5C19.95 9.47945 19.1612 8.64917 18.1917 8.64917ZM5.4082 3.22161C6.62804 1.93758 8.24987 1.23047 9.975 1.23047C11.6097 1.23047 13.4607 1.8866 14.9263 2.98557C16.2269 3.9608 17.1081 5.16608 17.4655 6.43867C16.4312 6.37461 14.7955 6.23991 13.1424 5.96892C9.14953 5.31423 8.32106 4.4066 8.15016 4.04677C8.05119 3.83828 7.84884 3.70662 7.62745 3.70658C7.62741 3.70658 7.62741 3.70658 7.62737 3.70658C7.40601 3.70658 7.20363 3.83824 7.10462 4.04664C6.41806 5.4917 4.737 6.09541 3.71951 6.33495C4.00625 5.16592 4.59053 4.08233 5.4082 3.22161ZM1.75829 12.356C1.43332 12.356 1.16895 12.0777 1.16895 11.7356V10.5C1.16895 10.1579 1.43332 9.87964 1.75829 9.87964C2.08326 9.87964 2.34763 10.1579 2.34763 10.5V11.7356C2.34763 12.0777 2.08326 12.356 1.75829 12.356ZM16.4334 12.9712C16.4334 16.7198 13.5362 19.7695 9.975 19.7695C6.41381 19.7695 3.51658 16.7198 3.51658 12.9712V8.02881C3.51658 7.89612 3.52067 7.76303 3.52799 7.6303C4.51743 7.45192 6.52182 6.90978 7.69451 5.34959C8.60811 6.15169 10.3472 6.75593 12.9625 7.18475C14.204 7.38831 15.4342 7.51685 16.4206 7.597C16.4291 7.74055 16.4334 7.8848 16.4334 8.02881V12.9712ZM18.7811 11.7356C18.7811 12.0777 18.5167 12.356 18.1917 12.356C17.8667 12.356 17.6024 12.0777 17.6024 11.7356V10.5C17.6024 10.1579 17.8667 9.87964 18.1917 9.87964C18.5167 9.87964 18.7811 10.1579 18.7811 10.5V11.7356Z" fill="#1499A2"/>
<path d="M8.73177 13.0444C9.06383 13.394 9.50538 13.5865 9.97506 13.5865C10.4447 13.5865 10.8863 13.394 11.2183 13.0444C11.4466 12.8041 11.4466 12.4146 11.2183 12.1743C10.9901 11.9341 10.62 11.9341 10.3918 12.1743C10.2805 12.2915 10.1325 12.356 9.97506 12.356C9.81764 12.356 9.66965 12.2915 9.55833 12.1743C9.33011 11.9341 8.96002 11.9341 8.73177 12.1743C8.50347 12.4146 8.50347 12.8041 8.73177 13.0444Z" fill="#1499A2"/>
<path d="M8.87066 9.95551C9.09892 9.71528 9.09892 9.32571 8.87066 9.08544C8.64245 8.84522 8.27236 8.84522 8.0441 9.08544C7.93278 9.20259 7.78479 9.26714 7.62737 9.26714C7.46996 9.26714 7.32197 9.20263 7.21064 9.08544C6.98243 8.84522 6.61234 8.84522 6.38408 9.08544C6.15583 9.32567 6.15583 9.71524 6.38408 9.95551C6.71614 10.3051 7.15769 10.4976 7.62737 10.4976C8.09706 10.4976 8.53861 10.3051 8.87066 9.95551Z" fill="#1499A2"/>
<path d="M12.7394 9.08548C12.6281 9.20262 12.4801 9.26718 12.3227 9.26718C12.1653 9.26718 12.0173 9.20266 11.906 9.08548C11.6777 8.84525 11.3077 8.84525 11.0794 9.08548C10.8511 9.3257 10.8511 9.71527 11.0794 9.95554C11.4115 10.3051 11.853 10.4976 12.3227 10.4976C12.7924 10.4976 13.2339 10.3052 13.566 9.95554C13.7942 9.71531 13.7942 9.32575 13.566 9.08548C13.3378 8.84521 12.9677 8.84521 12.7394 9.08548Z" fill="#1499A2"/>
<path d="M11.5805 14.7002C11.2577 14.7002 10.996 14.9757 10.996 15.3154C10.996 16.3388 10.2051 17.1714 9.23289 17.1714C8.26067 17.1714 7.46973 16.3388 7.46973 15.3154C7.46973 14.9757 7.20804 14.7002 6.88525 14.7002C6.56247 14.7002 6.30078 14.9757 6.30078 15.3154C6.30078 17.0173 7.61612 18.4019 9.23289 18.4019C10.8497 18.4019 12.165 17.0173 12.165 15.3154C12.165 14.9757 11.9033 14.7002 11.5805 14.7002Z" fill="#1499A2"/>
</g>
<defs>
<clipPath id="clip0_923_11151">
<rect width="19.95" height="21" fill="white"/>
</clipPath>
</defs>
</svg>
