<svg width="23" height="19" viewBox="0 0 23 19" fill="none" xmlns="http://www.w3.org/2000/svg">
<path d="M19.6933 17.5423H2.61825C2.41002 17.5423 2.25385 17.3688 2.25385 17.1779V13.621C2.25385 13.4128 2.42737 13.2566 2.61825 13.2566C2.82648 13.2566 2.98266 13.4301 2.98266 13.621V16.7962H19.3115V10.3417C19.3115 10.1334 19.4851 9.97728 19.6759 9.97728C19.8842 9.97728 20.0403 10.1508 20.0403 10.3417V17.1779C20.0577 17.3688 19.8842 17.5423 19.6933 17.5423Z" fill="#1499A2"/>
<path d="M2.61825 6.81893C2.41002 6.81893 2.25385 6.64543 2.25385 6.45457V1.78715C2.25385 0.798143 3.05207 0 4.04117 0H18.2877C19.2768 0 20.0751 0.798143 20.0751 1.78715V3.05378C20.0751 3.26199 19.9015 3.41814 19.7106 3.41814C19.5024 3.41814 19.3462 3.24464 19.3462 3.05378V1.78715C19.3462 1.21457 18.8777 0.74609 18.3051 0.74609H4.05852C3.48588 0.74609 3.01736 1.21457 3.01736 1.78715V6.45457C2.98265 6.66278 2.80913 6.81893 2.61825 6.81893Z" fill="#1499A2"/>
<path d="M4.39164 9.37093C4.18341 9.37093 4.02724 9.19743 4.02724 9.00657V2.11823C4.02724 1.91002 4.20076 1.75386 4.39164 1.75386H17.9094C18.1176 1.75386 18.2738 1.92737 18.2738 2.11823V5.65783C18.2738 5.86604 18.1003 6.0222 17.9094 6.0222C17.7012 6.0222 17.545 5.84869 17.545 5.65783V2.49995H4.75604V9.02392C4.75604 9.19743 4.59987 9.37093 4.39164 9.37093Z" fill="#1499A2"/>
<path d="M17.9094 17.5427H4.39164C4.18341 17.5427 4.02724 17.3692 4.02724 17.1783V10.8799C4.02724 10.6717 4.20076 10.5156 4.39164 10.5156C4.59987 10.5156 4.75604 10.6891 4.75604 10.8799V16.814H17.545V7.53118C17.545 7.32297 17.7185 7.16681 17.9094 7.16681C18.1176 7.16681 18.2738 7.34032 18.2738 7.53118V17.1783C18.2738 17.3692 18.1176 17.5427 17.9094 17.5427Z" fill="#1499A2"/>
<path d="M11.1571 17.5415C10.9489 17.5415 10.7927 17.368 10.7927 17.1771V7.73821C10.7927 7.53 10.9662 7.37383 11.1571 7.37383C11.3653 7.37383 11.5215 7.54735 11.5215 7.73821V17.1771C11.5215 17.368 11.348 17.5415 11.1571 17.5415Z" fill="#1499A2"/>
<path d="M11.1571 6.29981C10.9489 6.29981 10.7927 6.1263 10.7927 5.93544V2.11823C10.7927 1.91002 10.9662 1.75386 11.1571 1.75386C11.3653 1.75386 11.5215 1.92737 11.5215 2.11823V5.93544C11.5215 6.1263 11.348 6.29981 11.1571 6.29981Z" fill="#1499A2"/>
<path d="M20.5974 18.9998H1.70031C1.49207 18.9998 1.3359 18.8263 1.3359 18.6354C1.3359 18.4445 1.50943 18.271 1.70031 18.271H20.5974C20.8056 18.271 20.9618 18.4445 20.9618 18.6354C20.9618 18.8263 20.8056 18.9998 20.5974 18.9998Z" fill="#1499A2"/>
<path d="M20.5974 17.5408H1.70031C1.49207 17.5408 1.3359 17.3673 1.3359 17.1764C1.3359 16.9682 1.50943 16.8121 1.70031 16.8121H20.5974C20.8056 16.8121 20.9618 16.9856 20.9618 17.1764C20.9791 17.3673 20.8056 17.5408 20.5974 17.5408Z" fill="#1499A2"/>
<path d="M19.6978 9.1431C19.6458 9.1431 19.5937 9.12574 19.559 9.10839C19.4202 9.05634 19.3334 8.91753 19.3334 8.76137V7.99794L16.3835 7.73767C16.1752 7.72032 16.0364 7.5468 16.0538 7.33859C16.0711 7.13038 16.2447 6.99158 16.4529 7.00893L19.7499 7.28654C19.9408 7.30389 20.0796 7.46006 20.0796 7.65092V7.85912L21.3811 6.5578L20.0796 5.25647V5.46469C20.0796 5.65555 19.9408 5.81171 19.7499 5.82906L16.4529 6.10668C16.2447 6.12403 16.0711 5.96786 16.0538 5.777C16.0364 5.56879 16.1926 5.39528 16.3835 5.37793L19.3334 5.11767V4.35423C19.3334 4.19807 19.4202 4.07661 19.559 4.00721C19.6978 3.95516 19.854 3.98986 19.9581 4.09397L22.1619 6.28019C22.2313 6.34959 22.266 6.43634 22.266 6.54045C22.266 6.64456 22.2313 6.73131 22.1619 6.80071L19.9581 8.98693C19.8887 9.10839 19.802 9.1431 19.6978 9.1431Z" fill="#1499A2"/>
<path d="M2.5682 12.4923C2.46408 12.4923 2.37732 12.4576 2.3079 12.3882L0.104112 10.202C0.0347011 10.1326 0 10.0458 0 9.94173C0 9.83762 0.0347011 9.75087 0.104112 9.68146L2.3079 7.49525C2.41202 7.39114 2.56819 7.35644 2.70701 7.40849C2.84584 7.46054 2.9326 7.59935 2.9326 7.75551V8.51896L5.88255 8.77922C6.09079 8.79657 6.22961 8.97008 6.21226 9.17829C6.19491 9.3865 6.02138 9.52531 5.81315 9.50796L2.51614 9.23034C2.32526 9.21299 2.18643 9.05684 2.18643 8.86598V8.65776L0.884983 9.95909L2.18643 11.2604V11.0522C2.18643 10.8613 2.32526 10.7052 2.51614 10.6878L5.81315 10.4102C6.02138 10.3929 6.19491 10.549 6.21226 10.7399C6.22961 10.9307 6.07343 11.1216 5.88255 11.139L2.9326 11.3992V12.1627C2.9326 12.3188 2.84584 12.4403 2.70701 12.5097C2.67231 12.475 2.62025 12.4923 2.5682 12.4923Z" fill="#1499A2"/>
</svg>
