<svg width="21" height="21" viewBox="0 0 21 21" fill="none" xmlns="http://www.w3.org/2000/svg">
<g clip-path="url(#clip0_923_11306)">
<path d="M19.1492 8.64917C18.9316 8.64917 18.7229 8.68719 18.5288 8.75647V8.02881C18.5288 3.60171 14.9271 0 10.5 0C6.0729 0 2.47119 3.60171 2.47119 8.02881V8.75647C2.27715 8.68723 2.06838 8.64917 1.85083 8.64917C0.830279 8.64917 0 9.47945 0 10.5V11.7356C0 12.7561 0.830279 13.5864 1.85083 13.5864C2.07441 13.5864 2.28879 13.5466 2.48739 13.4736C2.74764 17.6675 6.24168 21 10.5 21C14.7583 21 18.2524 17.6675 18.5126 13.4736C18.7112 13.5466 18.9256 13.5864 19.1492 13.5864C20.1697 13.5864 21 12.7561 21 11.7356V10.5C21 9.47945 20.1697 8.64917 19.1492 8.64917ZM10.5 1.23047C13.6636 1.23047 16.3294 3.40262 17.0844 6.33384C16.0083 6.09222 14.2416 5.48703 13.5215 4.04689C13.4173 3.83845 13.2042 3.70679 12.9712 3.70679C12.7381 3.70679 12.5251 3.83845 12.4209 4.04689C12.2311 4.42637 11.3695 5.37895 7.47604 6.02675C6.07683 6.25956 4.72172 6.37805 3.89087 6.43461C4.61024 3.45261 7.30029 1.23047 10.5 1.23047ZM1.85083 12.356C1.50876 12.356 1.23047 12.0777 1.23047 11.7356V10.5C1.23047 10.1579 1.50876 9.87964 1.85083 9.87964C2.1929 9.87964 2.47119 10.1579 2.47119 10.5V11.7356C2.47119 12.0777 2.1929 12.356 1.85083 12.356ZM17.2983 12.9712C17.2983 16.7198 14.2486 19.7695 10.5 19.7695C6.75138 19.7695 3.70166 16.7198 3.70166 12.9712V8.02881C3.70166 7.91183 3.70465 7.79555 3.71052 7.68001C4.52181 7.63088 6.04796 7.51111 7.66623 7.2425C10.2494 6.81376 11.9817 6.19607 12.9142 5.3662C14.1551 6.91679 16.2682 7.45521 17.2864 7.63063C17.2941 7.76245 17.2984 7.8951 17.2984 8.02881V12.9712H17.2983ZM19.7695 11.7356C19.7695 12.0777 19.4912 12.356 19.1492 12.356C18.8071 12.356 18.5288 12.0777 18.5288 11.7356V10.5C18.5288 10.1579 18.8071 9.87964 19.1492 9.87964C19.4912 9.87964 19.7695 10.1579 19.7695 10.5V11.7356Z" fill="#1499A2"/>
<path d="M11.8117 15.8814C11.088 16.605 9.91062 16.605 9.18699 15.8814C8.94676 15.6411 8.55719 15.6411 8.31692 15.8814C8.07665 16.1216 8.07665 16.5112 8.31692 16.7514C8.91862 17.3531 9.70895 17.654 10.4993 17.654C11.2897 17.654 12.0801 17.3531 12.6817 16.7514C12.922 16.5112 12.922 16.1216 12.6817 15.8814C12.4415 15.6411 12.052 15.6411 11.8117 15.8814Z" fill="#1499A2"/>
<path d="M8.64893 10.5002C8.64893 10.84 8.92439 11.1155 9.26416 11.1155C9.60393 11.1155 9.87939 10.84 9.87939 10.5002C9.87939 9.47969 9.04912 8.64941 8.02856 8.64941C7.00801 8.64941 6.17773 9.47969 6.17773 10.5002C6.17773 10.84 6.4532 11.1155 6.79297 11.1155C7.13274 11.1155 7.4082 10.84 7.4082 10.5002C7.4082 10.1582 7.68649 9.87988 8.02856 9.87988C8.37063 9.87988 8.64893 10.1582 8.64893 10.5002Z" fill="#1499A2"/>
<path d="M9.19192 12.355C8.95165 12.5953 8.95165 12.9848 9.19192 13.2251C9.5415 13.5746 10.0063 13.7672 10.5006 13.7672C10.995 13.7672 11.4598 13.5746 11.8094 13.2251C12.0496 12.9848 12.0496 12.5953 11.8094 12.355C11.5691 12.1148 11.1796 12.1148 10.9393 12.355C10.8222 12.4722 10.6664 12.5367 10.5007 12.5367C10.335 12.5367 10.1792 12.4721 10.062 12.355C9.82172 12.1147 9.43215 12.1147 9.19192 12.355Z" fill="#1499A2"/>
<path d="M12.9719 8.64941C11.9514 8.64941 11.1211 9.47969 11.1211 10.5002C11.1211 10.84 11.3966 11.1155 11.7363 11.1155C12.0761 11.1155 12.3516 10.84 12.3516 10.5002C12.3516 10.1582 12.6299 9.87988 12.9719 9.87988C13.314 9.87988 13.5923 10.1582 13.5923 10.5002C13.5923 10.84 13.8677 11.1155 14.2075 11.1155C14.5473 11.1155 14.8228 10.84 14.8228 10.5002C14.8228 9.47969 13.9925 8.64941 12.9719 8.64941Z" fill="#1499A2"/>
</g>
<defs>
<clipPath id="clip0_923_11306">
<rect width="21" height="21" fill="white"/>
</clipPath>
</defs>
</svg>
