<svg width="19" height="23" viewBox="0 0 19 23" fill="none" xmlns="http://www.w3.org/2000/svg">
<path d="M10.4636 19.3474C10.4819 19.3474 10.5003 19.3474 10.537 19.3474L11.4182 19.274C11.6568 19.2557 11.8771 19.1272 12.024 18.9436C12.1708 18.76 12.2259 18.5031 12.1892 18.2644L11.3631 13.4185C11.2713 12.8311 10.8858 12.3538 10.335 12.1335L8.27898 11.3075L8.5727 10.5182L11.5283 10.0043C11.8587 9.94919 12.1157 9.63713 12.0974 9.30673L12.0423 8.42564C12.024 8.22373 11.9322 8.05852 11.7853 7.93003C11.6384 7.80154 11.4365 7.76483 11.2529 7.78318L9.54566 8.07689L9.50895 6.29635C9.49059 5.72732 9.23358 5.23171 8.79299 4.95637C8.70121 4.9013 8.59106 4.84623 8.48091 4.80952C7.9669 4.62596 7.43452 4.64432 6.93886 4.88294C6.46156 5.12157 6.0944 5.5254 5.91083 6.02102L4.22191 10.9955C3.87311 12.0234 4.38713 13.1248 5.39681 13.5286L8.37076 14.7034C8.66449 14.8135 8.86643 15.0705 8.93986 15.3826L9.60074 18.6866C9.71088 19.0537 10.0597 19.3474 10.4636 19.3474ZM7.80168 10.3714L7.41616 11.381C7.34273 11.5829 7.43452 11.8031 7.63645 11.8766L10.0413 12.8494C10.335 12.9779 10.537 13.2349 10.5921 13.547L11.4182 18.3929C11.4182 18.4296 11.4182 18.448 11.3998 18.4664C11.3814 18.4847 11.3631 18.5031 11.3447 18.5031L10.4636 18.5765C10.4268 18.5765 10.3901 18.5581 10.3718 18.5031L9.71088 15.199C9.60074 14.63 9.21522 14.1711 8.66449 13.9508L5.69053 12.776C5.08473 12.5374 4.75429 11.8582 4.97458 11.2341L6.6635 6.25964C6.77364 5.94759 6.99393 5.70896 7.28766 5.56212C7.58138 5.41527 7.91182 5.41527 8.22391 5.5254C8.27898 5.54376 8.33405 5.56212 8.37076 5.59883C8.59106 5.72732 8.71956 6.00266 8.73792 6.29635L8.77464 8.53578C8.77464 8.64592 8.82971 8.75605 8.9215 8.82947C9.01329 8.9029 9.12344 8.93961 9.23358 8.92126L11.2713 8.57249L11.308 9.25166L8.33405 9.76562L8.05868 7.43443C8.04033 7.21415 7.83839 7.0673 7.6181 7.08566C7.39781 7.10401 7.25094 7.30593 7.2693 7.52621L7.56302 9.91248C7.59974 10.0777 7.67317 10.2429 7.80168 10.3714Z" fill="#1499A2"/>
<path d="M8.51858 3.96488C9.60169 3.96488 10.5012 3.0838 10.5012 1.98244C10.5012 0.881084 9.62005 0 8.51858 0C7.43547 0 6.53594 0.881084 6.53594 1.98244C6.53594 3.0838 7.43547 3.96488 8.51858 3.96488ZM8.51858 0.807656C9.17946 0.807656 9.71184 1.33998 9.71184 2.00079C9.71184 2.66161 9.17946 3.19393 8.51858 3.19393C7.8577 3.19393 7.32533 2.66161 7.32533 2.00079C7.32533 1.33998 7.8577 0.807656 8.51858 0.807656Z" fill="#1499A2"/>
<path d="M0.36721 22.9999H4.5895C4.80979 22.9999 4.97501 22.8163 4.97501 22.6144V21.0908H8.79342C9.01372 21.0908 9.17894 20.9073 9.17894 20.7054V19.3654H13.3461C13.5664 19.3654 13.7317 19.1818 13.7317 18.9799V17.7133H17.7704C17.9907 17.7133 18.1559 17.5298 18.1559 17.3279C18.1559 17.1259 17.9723 16.9424 17.7704 16.9424H13.3461C13.1259 16.9424 12.9606 17.1259 12.9606 17.3279V18.5944H8.79342C8.57313 18.5944 8.40791 18.778 8.40791 18.9799V20.3199H4.5895C4.3692 20.3199 4.20398 20.5034 4.20398 20.7054V22.2289H0.385567C0.165274 22.2289 5.53131e-05 22.4125 5.53131e-05 22.6144C5.53131e-05 22.8163 0.146917 22.9999 0.36721 22.9999Z" fill="#1499A2"/>
<path d="M4.92046 21.0543H5.78327C6.16878 21.0543 6.49922 20.7973 6.60937 20.4302L7.43547 17.6768C7.54562 17.3097 7.58233 16.9059 7.56397 16.5204L7.32532 13.6568C7.30696 13.4366 7.12339 13.2897 6.90309 13.3081C6.6828 13.3264 6.53594 13.51 6.5543 13.7303L6.79295 16.5938C6.81131 16.8875 6.79295 17.1812 6.70116 17.4565L5.87506 20.2099C5.8567 20.2466 5.83834 20.265 5.80163 20.265H4.93881C4.9021 20.265 4.88374 20.2466 4.86538 20.2283C4.84702 20.2099 4.84702 20.1916 4.84702 20.1549L5.58133 17.4749C5.67312 17.1628 5.70984 16.8324 5.69148 16.502L5.5079 12.8675C5.48955 12.6473 5.30597 12.4821 5.10403 12.5004C4.88374 12.5188 4.71852 12.7023 4.73688 12.9043L4.92046 16.5387C4.93881 16.7957 4.9021 17.0343 4.84702 17.273L4.11271 19.9529C4.03928 20.2099 4.09436 20.4853 4.25958 20.7055C4.40644 20.9258 4.64509 21.0543 4.92046 21.0543Z" fill="#1499A2"/>
</svg>
