<svg width="25" height="21" viewBox="0 0 25 21" fill="none" xmlns="http://www.w3.org/2000/svg">
<path d="M24.1381 0.952264C23.6585 0.476131 23.0527 0.200474 22.4973 0.200474C22.1439 0.200474 21.8158 0.325785 21.5886 0.526262L13.8897 7.09188L8.51303 1.77925L7.09944 0.375895C6.59459 -0.125298 5.73635 -0.125298 5.2315 0.375895L2.90919 2.68139C2.65677 2.93198 2.53056 3.25776 2.53056 3.6086C2.53056 3.95943 2.65677 4.28521 2.90919 4.53581L4.29753 5.91409L8.86641 10.4749C8.96738 10.5752 9.11884 10.6253 9.2703 10.6253C9.42175 10.6253 9.54797 10.5752 9.64894 10.4749C9.87612 10.2494 9.87612 9.92363 9.64894 9.6981L5.45868 5.56325L8.0839 2.95704L13.0062 7.81862L11.4411 9.14678L11.4159 9.17185L9.34602 11.2267C9.11884 11.4523 9.11884 11.7781 9.34602 12.0036L11.0878 13.7327C11.0373 13.7076 10.9615 13.6826 10.8858 13.6575C10.4567 13.6074 10.0276 13.5823 9.59845 13.5823C8.18487 13.5823 6.31692 13.8329 5.50916 15.0358C5.50916 15.0358 5.50916 15.0358 5.50916 15.0609C5.02956 15.8127 4.09559 15.9129 3.59074 15.9129C2.68201 15.9129 1.67232 15.5871 0.864561 15.0107C0.637378 14.8353 0.30922 14.8854 0.132523 15.0859C-0.0441743 15.2864 -0.0441743 15.6122 0.132523 15.8127C0.283978 15.9881 4.0451 20.0477 7.45284 20.0477C7.70526 20.0477 7.93244 20.0227 8.15962 19.9726C8.94214 19.8222 9.54797 19.4964 10.0276 19.0203C10.0781 18.9702 10.1285 18.92 10.179 18.8699C11.3907 17.5418 11.5421 15.3616 11.3907 14.0835C11.3907 14.0084 11.3654 13.9582 11.3402 13.9081L13.0314 15.5871C13.1324 15.6874 13.2839 15.7375 13.4353 15.7375C13.5868 15.7375 13.713 15.6874 13.8392 15.5871L15.9091 13.5322L15.9343 13.5072L17.3479 11.8783L18.711 13.3568L18.509 13.3067C18.3323 13.2566 18.1304 13.3067 17.979 13.432C17.8275 13.5573 17.777 13.7327 17.8022 13.9332L17.979 14.9857L18.0547 15.4869L16.9693 15.3866C16.8178 15.3616 16.6663 15.4117 16.5654 15.5119C16.5654 15.5119 16.5401 15.5119 16.5401 15.537C16.4139 15.6372 16.3634 15.8127 16.3634 15.963L16.3887 16.389L16.0605 16.0633C15.8333 15.8377 15.5052 15.8377 15.278 16.0633C15.0508 16.2888 15.0508 16.6146 15.278 16.8401L16.6159 18.1683C16.6159 18.1683 16.6159 18.1683 16.6411 18.1933C16.6663 18.1933 16.6663 18.2184 16.6916 18.2184C16.7168 18.2434 16.7421 18.2434 16.7673 18.2685C16.7673 18.2685 16.7926 18.2685 16.7926 18.2936L22.8255 20.9499C22.9012 20.975 22.977 21 23.0527 21C23.2041 21 23.3303 20.9499 23.4313 20.8496C23.5828 20.6993 23.6333 20.4487 23.5575 20.2482L20.9323 14.2088L20.9071 14.1838C20.8818 14.1587 20.8566 14.1086 20.8313 14.0835C20.8313 14.0835 20.8314 14.0585 20.8061 14.0585L18.0547 11.0764L24.5672 3.53342C25.1478 2.88187 24.9711 1.77923 24.1381 0.952264ZM4.67617 4.78641L3.66647 3.78402C3.61598 3.7339 3.61598 3.65871 3.61598 3.63365C3.61598 3.60859 3.61598 3.53342 3.66647 3.4833L5.98878 1.17781C6.03926 1.12769 6.11498 1.12769 6.14023 1.12769C6.16547 1.12769 6.24121 1.12769 6.29169 1.17781L7.30139 2.18019L4.67617 4.78641ZM7.45284 18.9952C5.96353 18.9952 4.29753 17.9928 3.03541 17.0155C3.2121 17.0406 3.3888 17.0406 3.59074 17.0406C4.22181 17.0406 4.80239 16.9153 5.28199 16.6897C5.15578 16.8401 5.13053 17.0656 5.20625 17.2411C5.30722 17.4415 5.48392 17.5668 5.7111 17.5668H6.99848L6.79654 17.8926C6.69557 18.043 6.69556 18.2434 6.77129 18.3938C6.84702 18.5442 6.99848 18.6695 7.17518 18.7196L8.15962 18.9201C8.10914 18.9451 8.03341 18.9451 7.98292 18.9702C7.80623 18.9702 7.62954 18.9952 7.45284 18.9952ZM9.49747 18.043L8.15962 17.7673L8.4373 17.2661C8.53827 17.0907 8.53827 16.8902 8.4373 16.7148C8.33633 16.5394 8.15963 16.4392 7.95769 16.4392H6.44314C6.46838 16.1886 6.49362 15.8878 6.51886 15.5621C6.97323 15.0108 8.0839 14.685 9.59845 14.685C9.82563 14.685 10.0781 14.685 10.3052 14.71C10.3557 15.4869 10.28 17.0155 9.49747 18.043ZM17.5498 17.4415L17.4993 16.5645L18.6605 16.6647C18.8372 16.6897 18.9886 16.6146 19.1149 16.4893C19.2411 16.364 19.2916 16.1885 19.2663 16.0382L19.0896 15.0358L19.0139 14.6349L19.2916 14.71L19.9983 14.9105L20.9576 17.1158L19.6702 18.3938L17.5498 17.4415ZM20.7556 18.8449L21.4372 18.1683L21.9673 19.3962L20.7556 18.8449ZM13.4101 14.4845L10.5324 11.6277L11.8198 10.3496L14.6974 13.2064L13.4101 14.4845ZM23.7595 2.80669L15.4799 12.3795L12.6528 9.5728L22.3207 1.35323C22.3711 1.30311 22.4469 1.30311 22.4973 1.30311C22.7498 1.30311 23.1032 1.47852 23.3808 1.75418C23.7847 2.15513 23.8857 2.65633 23.7595 2.80669Z" fill="#1499A2"/>
</svg>
