<svg width="20" height="21" viewBox="0 0 20 21" fill="none" xmlns="http://www.w3.org/2000/svg">
<g clip-path="url(#clip0_923_11452)">
<path d="M19.2353 9.85155C18.8575 -3.2882 0.903656 -3.2795 0.529541 9.85155V17.9257H4.18838C6.82671 22.0255 12.9392 22.024 15.5764 17.9257H19.2352V9.85155H19.2353ZM1.69865 16.6836V9.85155C1.69865 5.26585 5.05715 1.49833 9.29785 1.17875V3.03411C9.29785 4.17331 8.53224 5.14801 7.47732 5.35181L5.6348 5.70777C4.03145 6.01745 2.86776 7.49904 2.86776 9.23051V13.5781C2.86776 14.6858 3.09671 15.7377 3.50644 16.6836H1.69865ZM9.88241 19.789C6.65917 19.789 4.03687 17.0028 4.03687 13.5781V9.23051C4.03687 8.09971 4.79686 7.13218 5.84396 6.92991L7.68643 6.57395C8.60862 6.39582 9.38608 5.83187 9.88241 5.05588C10.3787 5.83187 11.1562 6.39582 12.0783 6.57395L13.9209 6.92991C14.9679 7.13222 15.7279 8.09975 15.7279 9.23051V13.5781C15.7279 17.0028 13.1056 19.789 9.88241 19.789ZM18.0662 16.6836H16.2584C16.6681 15.7377 16.8971 14.6858 16.8971 13.5781V9.23051C16.8971 7.49904 15.7334 6.01745 14.13 5.70777L12.2875 5.35181C11.2326 5.14801 10.467 4.17327 10.467 3.03411V1.1788C14.7077 1.49837 18.0662 5.26585 18.0662 9.85159V16.6836Z" fill="#1499A2"/>
<path d="M8.72607 9.85156H7.55697C7.53234 10.6726 6.41225 10.672 6.38786 9.85156H5.21875C5.29272 12.3147 8.65285 12.3129 8.72607 9.85156Z" fill="#1499A2"/>
<path d="M12.793 10.4727C12.4706 10.4727 12.2084 10.194 12.2084 9.85156H11.0393C11.1133 12.3147 14.4734 12.3129 14.5466 9.85156H13.3775C13.3775 10.1941 13.1153 10.4727 12.793 10.4727Z" fill="#1499A2"/>
<path d="M9.88338 16.3555C9.23874 16.3555 8.71427 15.7982 8.71427 15.1133H7.54517C7.64384 18.3974 12.1239 18.395 12.2216 15.1133H11.0525C11.0525 15.7982 10.528 16.3555 9.88338 16.3555Z" fill="#1499A2"/>
<path d="M9.29712 11.7148H10.4662V13.5781H9.29712V11.7148Z" fill="#1499A2"/>
</g>
<defs>
<clipPath id="clip0_923_11452">
<rect width="19.7647" height="21" fill="white"/>
</clipPath>
</defs>
</svg>
