<svg width="148" height="383" viewBox="0 0 148 383" fill="none" xmlns="http://www.w3.org/2000/svg">
<path d="M53.1743 61.3814L53.1971 61.3806C58.9394 61.1795 66.6323 62.2866 74.7668 64.1638L74.8328 64.179L74.9005 64.1762C76.2092 64.1206 77.2085 63.6706 77.9413 62.9539C78.6648 62.2463 79.094 61.3132 79.3374 60.3416L79.5122 59.6438L78.7973 59.7231C78.3755 59.7699 78.005 59.7699 77.5831 59.7231L77.568 59.7214L77.5528 59.7207C73.6495 59.5271 70.1616 57.2038 67.5941 53.4443C65.0267 49.6849 63.4065 44.5207 63.2558 38.756L62.5523 38.6511L62.5017 38.6435L62.2906 38.612C62.2972 38.6062 62.306 38.5992 62.3172 38.5916C62.3312 38.582 62.3553 38.5672 62.3892 38.5538C62.4111 38.5451 62.4442 38.5342 62.4864 38.528C62.5064 38.5251 62.5284 38.5233 62.5523 38.5233H62.5191L62.4863 38.5276C62.4456 38.533 62.4394 38.527 62.431 38.5191C62.4302 38.5182 62.4293 38.5174 62.4283 38.5166C62.3977 38.4888 62.3454 38.4169 62.291 38.2644C62.1927 37.9889 62.1464 37.6341 62.099 37.2714C62.0928 37.2241 62.0866 37.1766 62.0803 37.1292C61.8322 35.1453 61.88 31.0197 62.0832 27.9772M53.1743 61.3814L61.5844 27.9419M53.1743 61.3814L53.1515 61.3801M53.1743 61.3814L53.1515 61.3801M62.0832 27.9772C62.0832 27.9766 62.0833 27.9759 62.0833 27.9753L61.5844 27.9419M62.0832 27.9772C62.0832 27.9774 62.0832 27.9775 62.0832 27.9776L61.5844 27.9419M62.0832 27.9772C62.6266 20.3887 69.3711 13.1557 77.1893 12.0694L78.8219 11.8425L77.3385 11.1241C75.6422 10.3027 74.2655 9.25581 73.6072 8.02752C73.2833 7.42325 73.1316 6.77304 73.1986 6.06729C73.266 5.35769 73.5578 4.56093 74.17 3.67438L74.1744 3.66803L74.1744 3.668C74.8129 2.71216 75.8859 1.95143 77.2521 1.41583L77.257 1.41389C80.0956 0.266157 83.9431 0.190484 86.926 1.23782C88.4126 1.7598 89.6466 2.54734 90.4411 3.57864C91.2256 4.59688 91.6066 5.88328 91.3481 7.47843L91.3473 7.48306C91.0221 9.61607 89.3805 11.425 87.3571 12.3384L86.285 12.8224L87.3775 13.2585C87.8618 13.4518 88.3516 13.6958 88.7976 13.943L88.801 13.9449C89.3304 14.2331 89.8167 14.5721 90.2616 14.9174L90.2856 14.936L90.3117 14.9516C94.2608 17.3111 97.3825 20.1648 99.3076 23.5868C101.228 26.9998 101.976 31.011 101.13 35.7326L101.129 35.7333C100.579 38.8275 99.4267 41.8338 98.2043 44.8327L98.2032 44.8354C97.6804 46.1397 96.896 47.0482 96.0053 47.9246C95.7976 48.1289 95.5812 48.334 95.3602 48.5433C94.655 49.2114 93.9036 49.9232 93.244 50.7953M61.5844 27.9419C62.1254 20.3839 68.602 13.2048 76.292 11.7121C76.4926 11.8203 76.6965 11.9243 76.9026 12.0242L77.1205 11.5741L77.0517 11.0789C76.8253 11.1104 76.5998 11.1466 76.3753 11.1876C73.3179 9.48838 71.3514 6.87576 73.7586 3.39024C74.4718 2.32278 75.6433 1.50947 77.0696 0.950323C82.9784 -1.43877 92.9623 0.645332 91.8416 7.55844C91.5182 9.67905 90.0218 11.4652 88.1501 12.4998C88.017 12.4404 87.8828 12.3835 87.7482 12.3297L87.5628 12.7941L87.7686 13.2498C87.9026 13.1893 88.0355 13.1251 88.1669 13.0574C88.469 13.1994 88.7638 13.3526 89.04 13.5057C89.6003 13.8107 90.1097 14.1666 90.5682 14.5224C98.5654 19.3006 103.354 26.1628 101.622 35.8209C101.061 38.9724 99.8898 42.0223 98.6673 45.0214C97.971 46.7586 96.8419 47.8285 95.6835 48.9263C94.9776 49.5952 94.2609 50.2744 93.6245 51.1212M93.244 50.7953C93.253 50.7858 93.2621 50.7764 93.2713 50.7673L93.6245 51.1212M93.244 50.7953C93.1836 50.859 93.1283 50.9279 93.0881 50.9782L93.0815 50.9864C93.0261 51.0555 92.9931 51.0956 92.9656 51.1231L92.8216 51.2668L92.8189 51.4702C92.7678 55.2145 92.894 59.4565 93.7096 63.0996C94.5205 66.7217 96.0446 69.8928 98.906 71.293L98.924 71.3018L98.9426 71.3091C104.486 73.4915 109.399 75.7169 112.83 77.7307L112.853 77.7444L112.878 77.7555C118.18 80.1398 121.837 86.9203 123.945 96.7514C126.044 106.542 126.571 119.189 125.764 133.039C124.149 160.739 117.207 193.136 106.969 216.889L106.946 216.943L106.936 217.001C104.902 228.672 102.054 240.309 99.7125 249.032C98.5422 253.392 97.4992 257.023 96.7488 259.563C96.3736 260.832 96.0717 261.83 95.8636 262.509C95.7596 262.849 95.679 263.109 95.6245 263.284L95.5626 263.482L95.5469 263.532L95.543 263.545L95.542 263.548L95.5418 263.549C95.5418 263.549 95.5417 263.549 96.0185 263.699M93.244 50.7953C93.2376 50.8038 93.2312 50.8123 93.2248 50.8208L93.6245 51.1212M93.6245 51.1212C93.5735 51.172 93.5226 51.2356 93.4716 51.2991C93.4207 51.3626 93.3698 51.4262 93.3188 51.477C93.2169 58.9493 93.8282 68.2515 99.1258 70.8439C104.678 73.0296 109.619 75.2662 113.083 77.2995C135.241 87.2625 127.957 169.457 107.429 217.087C103.354 240.469 96.0185 263.699 96.0185 263.699M62.756 38.7691C62.7051 38.9216 62.6032 39.0233 62.5523 39.0233C62.4426 39.0378 62.3467 39.0263 62.2623 38.9935C62.2601 38.9231 62.258 38.8527 62.2562 38.7822L62.5193 38.7753L62.5523 38.7744L62.756 38.7691ZM62.756 38.7691L63.2302 38.9275C63.1846 39.0642 63.1145 39.1848 63.0334 39.2791C62.9933 39.3259 62.9421 39.3759 62.8797 39.4184C62.8587 39.4326 62.8255 39.4537 62.7817 39.4733C62.7708 39.2396 62.7622 39.0048 62.756 38.7691ZM78.8524 60.2201C78.671 60.2402 78.4976 60.2523 78.3258 60.2565C78.3403 60.2043 78.3541 60.1517 78.3674 60.0986L78.8524 60.2201ZM78.8524 60.2201L78.9075 60.717C78.8381 60.7247 78.7696 60.7313 78.7018 60.7369C78.7585 60.5681 78.8085 60.3955 78.8524 60.2201ZM96.0185 263.699L95.5417 263.549L95.4204 263.933L95.7702 264.133L95.7705 264.133L95.7722 264.134L95.7795 264.139L95.8095 264.156C95.8363 264.172 95.8766 264.195 95.9297 264.226C96.0358 264.289 96.1928 264.382 96.395 264.505C96.7993 264.751 97.384 265.114 98.1022 265.582C99.539 266.519 101.508 267.874 103.636 269.55C107.906 272.912 112.762 277.52 115.284 282.577L115.732 282.355C110.587 272.036 96.0185 263.699 96.0185 263.699ZM53.1515 61.3801C50.5748 61.2345 42.8244 61.6021 33.8708 70.537C28.2504 76.1456 19.8593 85.0651 12.8896 93.7701C9.40407 98.1235 6.28273 102.412 4.0417 106.2C2.92122 108.094 2.02625 109.853 1.41566 111.426C0.803009 113.004 0.488541 114.364 0.500351 115.469V115.474C0.500351 117.619 1.55635 119.803 2.63072 121.794L2.63293 121.798C4.14194 124.659 6.05806 127.378 8.04015 130.016L53.1515 61.3801ZM103.392 162.51L104.362 162.363C104.77 153.203 104.923 142.673 104.974 130.878L104.024 130.658C102.271 134.285 100.583 137.488 99.1207 139.99C97.6479 142.509 96.4303 144.27 95.6197 145.055L95.3105 145.354L103.392 162.51ZM103.392 162.51C101.286 156.635 99.3216 152.424 97.887 149.687C97.1697 148.319 96.5848 147.318 96.181 146.663C95.979 146.335 95.8223 146.093 95.7169 145.934C95.6643 145.855 95.6244 145.796 95.5981 145.758L95.569 145.716L95.5622 145.707L95.5607 145.705L95.5606 145.704L103.392 162.51ZM17.9912 119.437L17.9746 119.415L17.9605 119.392C17.83 119.175 17.6496 118.947 17.3939 118.641L16.9125 118.065L17.6302 117.843C19.66 117.216 22.5209 115.285 25.8004 112.386C29.0628 109.503 32.6871 105.71 36.2401 101.43L36.7926 100.765L37.0936 101.576C37.1138 101.63 37.134 101.685 37.1542 101.739C37.6485 103.072 38.128 104.366 38.8687 105.428L38.8688 105.428L38.8743 105.437C39.1698 105.879 39.4623 106.268 39.8023 106.656L39.8111 106.666L39.8192 106.676C40.3551 107.357 40.9435 107.945 41.5954 108.546C42.0042 108.908 42.5675 109.239 43.1643 109.537L43.362 109.635L43.4222 109.848C45.1245 115.857 46.9543 121.234 48.3585 125.108C49.0606 127.045 49.6561 128.606 50.0758 129.682C50.2857 130.22 50.4516 130.637 50.5649 130.919C50.6216 131.059 50.6651 131.167 50.6944 131.239L50.7274 131.32L50.7357 131.34L50.7378 131.345L50.7383 131.346L50.7384 131.346L50.2762 131.537L50.7384 131.346L51.0234 132.037H50.2762C45.3052 132.037 40.2585 133.873 35.7396 137.03L35.6512 137.092L35.5452 137.112C35.3786 137.143 35.172 137.206 34.9222 137.289C34.8548 137.311 34.7838 137.336 34.7106 137.36C34.526 137.423 34.3272 137.491 34.1343 137.55C33.8625 137.632 33.5703 137.708 33.2876 137.739C33.0091 137.77 32.6945 137.763 32.4041 137.639L32.3968 137.636L32.3896 137.632C31.9063 137.407 31.4793 136.982 31.1348 136.586C30.9573 136.382 30.7901 136.172 30.6388 135.98C30.6091 135.942 30.5802 135.905 30.552 135.869C30.4337 135.718 30.3281 135.584 30.2303 135.466L30.2292 135.465C29.4642 134.543 28.7458 133.564 28.0358 132.596C27.6082 132.014 27.1837 131.435 26.7538 130.876L26.7525 130.874C25.3027 128.97 23.8401 127.067 22.3767 125.162L22.3732 125.157C20.9088 123.251 19.4437 121.344 17.9912 119.437Z" stroke="#1499A2"/>
</svg>
