<svg width="18" height="22" viewBox="0 0 18 22" fill="none" xmlns="http://www.w3.org/2000/svg">
<path d="M17.3531 17.3535V21.5479H0.452008V17.3535C0.452008 14.146 2.17912 11.4319 4.7698 9.95153C5.88009 10.8151 7.36046 11.3086 8.84084 11.3086C10.3212 11.3086 11.8017 10.8151 12.912 9.95153C13.6522 10.3216 14.269 10.8151 14.7624 11.3086C16.3662 12.9123 17.3531 15.0096 17.3531 17.3535Z" stroke="#1499A2" stroke-width="0.9" stroke-miterlimit="10" stroke-linecap="round" stroke-linejoin="round"/>
<path d="M8.96506 8.84109C11.2816 8.84109 13.1594 6.96319 13.1594 4.64667C13.1594 2.33015 11.2816 0.452253 8.96506 0.452253C6.64855 0.452253 4.77061 2.33015 4.77061 4.64667C4.77061 6.96319 6.64855 8.84109 8.96506 8.84109Z" stroke="#1499A2" stroke-width="0.9" stroke-miterlimit="10" stroke-linecap="round" stroke-linejoin="round"/>
<path d="M4.77061 17.3534V21.5478H13.1594V17.3534" stroke="#1499A2" stroke-width="0.9" stroke-miterlimit="10" stroke-linecap="round" stroke-linejoin="round"/>
</svg>
