<svg width="23" height="22" viewBox="0 0 23 22" fill="none" xmlns="http://www.w3.org/2000/svg">
<path d="M18.6594 9.30288C18.6594 9.28492 18.6594 9.28492 18.6594 9.26696C18.6594 9.249 18.6594 9.23104 18.6594 9.23104V9.21308V9.19512C18.6594 9.17716 18.6414 9.17717 18.6414 9.15921C18.6414 9.14125 18.6235 9.14124 18.6235 9.12329C18.6235 9.10533 18.6055 9.10532 18.6055 9.08736C18.6055 9.06941 18.5876 9.0694 18.5876 9.05144L18.5696 9.03349C18.5517 9.01553 18.5517 9.01552 18.5337 9.01552C18.5158 9.01552 18.5158 8.99757 18.4978 8.99757C18.4798 8.99757 18.4798 8.97961 18.4619 8.97961C18.4439 8.97961 18.4439 8.96165 18.4259 8.96165C18.408 8.96165 18.408 8.96165 18.39 8.94369C18.3721 8.94369 18.3721 8.94369 18.3541 8.94369C18.3362 8.94369 18.3182 8.94369 18.3182 8.94369H18.3002H18.2823C18.2643 8.94369 18.2464 8.94369 18.2464 8.94369C18.2284 8.94369 18.2104 8.94369 18.2104 8.94369H18.1925C18.1745 8.94369 16.4504 9.48247 14.5288 9.48247C12.3917 9.48247 10.8112 10.8653 10.7394 10.9192C10.6496 10.991 10.6137 11.0988 10.6137 11.2065V17.7437C10.1647 17.3306 9.59002 17.0792 8.94349 17.0792C7.57859 17.0792 6.48309 18.1927 6.48309 19.5396C6.48309 20.9045 7.59655 22 8.94349 22C10.3084 22 11.4039 20.9045 11.4039 19.5396V13.9004C11.799 13.5951 13.0202 12.769 14.5288 12.769C15.9476 12.769 17.2406 12.4996 17.9231 12.338V17.7257C17.4741 17.3127 16.8994 17.0612 16.2529 17.0612C14.888 17.0612 13.7925 18.1747 13.7925 19.5216C13.7925 20.8865 14.906 21.9821 16.2529 21.9821C17.6178 21.9821 18.7133 20.8686 18.7133 19.5216V9.28491C18.6774 9.30287 18.6594 9.30288 18.6594 9.30288ZM8.88964 21.2278C7.95577 21.2278 7.21943 20.4735 7.21943 19.5576C7.21943 18.6237 7.97373 17.8874 8.88964 17.8874C9.82352 17.8874 10.5598 18.6416 10.5598 19.5576C10.5778 20.4735 9.82352 21.2278 8.88964 21.2278ZM14.4929 11.9968C13.146 11.9968 12.0325 12.5355 11.368 12.9486V11.3861C11.7631 11.0808 12.9843 10.2547 14.4929 10.2547C15.9117 10.2547 17.2047 9.98532 17.8872 9.82369V11.5298C17.3125 11.6914 15.9656 11.9968 14.4929 11.9968ZM16.199 21.2278C15.2651 21.2278 14.5288 20.4735 14.5288 19.5576C14.5288 18.6237 15.2831 17.8874 16.199 17.8874C17.1149 17.8874 17.8692 18.6416 17.8692 19.5576C17.8872 20.4735 17.1329 21.2278 16.199 21.2278Z" fill="#1499A2"/>
<path d="M12.8947 7.12962C12.8229 6.98595 12.6613 6.89616 12.4817 6.93207C12.2123 6.96799 11.9967 7.00391 11.8351 7.00391C11.5298 7.00391 11.5298 6.98595 11.3143 6.53697C11.1527 6.17779 10.9371 5.69289 10.4343 5.06431C9.87755 4.36391 9.39265 4.0586 8.85387 4.0586C8.6204 4.0586 8.36901 4.13044 8.08166 4.25615C8.08166 4.25615 8.06368 4.25616 8.06368 4.27412C7.75838 4.45371 7.38124 4.66922 7.25552 4.77697C7.23756 4.77697 7.23757 4.79493 7.21961 4.81289C7.14778 4.88473 7.11184 4.99248 7.11184 5.10023V7.16554V10.7394C6.71674 10.3982 6.19591 10.1827 5.62122 10.1827C4.36407 10.1827 3.34041 11.2064 3.34041 12.4635C3.34041 13.7206 4.36407 14.7443 5.62122 14.7443C6.87836 14.7443 7.90207 13.7206 7.90207 12.4635V7.41697C8.22534 7.23738 8.47676 7.14759 8.62044 7.14759C8.72819 7.14759 8.76409 7.1835 8.96164 7.38105C9.05144 7.47085 9.14125 7.56064 9.24901 7.6684C9.75187 8.24309 10.3266 8.53045 10.9551 8.53045C11.8711 8.53045 12.5715 7.88391 12.8408 7.61452C12.9486 7.45289 12.9845 7.27329 12.8947 7.12962ZM5.62122 13.9182C4.7951 13.9182 4.13064 13.2537 4.13064 12.4276C4.13064 11.6015 4.7951 10.937 5.62122 10.937C6.44734 10.937 7.11184 11.6015 7.11184 12.4276C7.11184 13.2537 6.44734 13.9182 5.62122 13.9182ZM10.9551 7.72228C10.56 7.72228 10.1829 7.52473 9.82369 7.11167C9.80573 7.09371 9.80574 7.07574 9.78778 7.07574C9.69799 7.00391 9.62614 6.91411 9.55431 6.84228C9.35675 6.62677 9.10531 6.33942 8.63837 6.33942C8.42286 6.33942 8.20735 6.3933 7.92 6.51901V5.29779C8.02776 5.22596 8.20735 5.11819 8.45878 4.97452C8.63837 4.88472 8.76411 4.84881 8.88983 4.84881C9.05146 4.84881 9.33877 4.92065 9.84163 5.56718C10.2906 6.12391 10.4702 6.53697 10.6139 6.8782C10.7755 7.21942 10.9192 7.54268 11.2784 7.70432C11.1706 7.70432 11.0629 7.72228 10.9551 7.72228Z" fill="#1499A2"/>
<path d="M19.0727 5.62137H18.3723V4.92096C18.3723 4.70545 18.1927 4.52586 17.9772 4.52586C17.7617 4.52586 17.5821 4.70545 17.5821 4.92096V5.62137H16.8817C16.6662 5.62137 16.4866 5.80097 16.4866 6.01648C16.4866 6.23199 16.6662 6.41157 16.8817 6.41157H17.5821V7.11198C17.5821 7.32749 17.7617 7.50709 17.9772 7.50709C18.1927 7.50709 18.3723 7.32749 18.3723 7.11198V6.41157H19.0727C19.2882 6.41157 19.4678 6.23199 19.4678 6.01648C19.4499 5.80097 19.2882 5.62137 19.0727 5.62137Z" fill="#1499A2"/>
<path d="M13.9001 1.09551H13.1998V0.395093C13.1998 0.179583 13.0201 0 12.8046 0C12.5891 0 12.4095 0.179583 12.4095 0.395093V1.09551H11.7091C11.4936 1.09551 11.314 1.2751 11.314 1.49061C11.314 1.70612 11.4936 1.88571 11.7091 1.88571H12.4095V2.58612C12.4095 2.80163 12.5891 2.98122 12.8046 2.98122C13.0201 2.98122 13.1998 2.80163 13.1998 2.58612V1.88571H13.9001C14.1157 1.88571 14.2952 1.70612 14.2952 1.49061C14.2952 1.2751 14.1157 1.09551 13.9001 1.09551Z" fill="#1499A2"/>
<path d="M2.5861 7.23768H1.88571V6.53727C1.88571 6.32176 1.70609 6.14216 1.49058 6.14216C1.27507 6.14216 1.09548 6.32176 1.09548 6.53727V7.23768H0.395093C0.179583 7.23768 0 7.41727 0 7.63278C0 7.84829 0.179583 8.02788 0.395093 8.02788H1.09548V8.72829C1.09548 8.9438 1.27507 9.12339 1.49058 9.12339C1.70609 9.12339 1.88571 8.9438 1.88571 8.72829V8.02788H2.5861C2.80162 8.02788 2.9812 7.84829 2.9812 7.63278C2.9812 7.41727 2.80162 7.23768 2.5861 7.23768Z" fill="#1499A2"/>
<path d="M4.43534 17.0792H3.73491V16.3788C3.73491 16.1633 3.55532 15.9837 3.33981 15.9837C3.1243 15.9837 2.94472 16.1633 2.94472 16.3788V17.0792H2.24433C2.02882 17.0792 1.84919 17.2588 1.84919 17.4743C1.84919 17.6898 2.02882 17.8694 2.24433 17.8694H2.94472V18.5698C2.94472 18.7853 3.1243 18.9649 3.33981 18.9649C3.55532 18.9649 3.73491 18.7853 3.73491 18.5698V17.8694H4.43534C4.65085 17.8694 4.83044 17.6898 4.83044 17.4743C4.83044 17.2588 4.65085 17.0792 4.43534 17.0792Z" fill="#1499A2"/>
<path d="M22.4308 15.7324H21.7304V15.032C21.7304 14.8165 21.5508 14.6369 21.3353 14.6369C21.1198 14.6369 20.9402 14.8165 20.9402 15.032V15.7324H20.2398C20.0243 15.7324 19.8447 15.912 19.8447 16.1275C19.8447 16.3431 20.0243 16.5227 20.2398 16.5227H20.9402V17.2231C20.9402 17.4386 21.1198 17.6182 21.3353 17.6182C21.5508 17.6182 21.7304 17.4386 21.7304 17.2231V16.5227H22.4308C22.6463 16.5227 22.8259 16.3431 22.8259 16.1275C22.8259 15.8941 22.6463 15.7324 22.4308 15.7324Z" fill="#1499A2"/>
</svg>
