<svg width="21" height="21" viewBox="0 0 21 21" fill="none" xmlns="http://www.w3.org/2000/svg">
<g clip-path="url(#clip0_923_11086)">
<path d="M19.1492 8.64917C18.9316 8.64917 18.7229 8.68719 18.5288 8.75647V8.02881C18.5288 7.91278 18.5254 7.79629 18.5203 7.67977C18.6599 7.68719 18.8009 7.69441 18.9443 7.70126C18.9939 7.70364 19.0323 7.70548 19.0585 7.70684C19.2429 7.71647 19.4214 7.64293 19.5455 7.50656C19.6697 7.37014 19.7261 7.18528 19.6992 7.00284C19.4393 5.23761 18.4889 3.57431 17.023 2.31931C15.2761 0.823676 12.9595 0 10.5 0C8.24422 0 6.07052 0.70834 4.37932 1.99447C2.6791 3.28744 1.58583 5.06617 1.30077 7.00284C1.2739 7.18524 1.33034 7.37014 1.45446 7.50652C1.57135 7.63498 1.73668 7.70762 1.9094 7.70762C1.92006 7.70762 1.93077 7.70733 1.94147 7.70675C2.01641 7.70286 2.20857 7.68969 2.48108 7.64954C2.47513 7.77615 2.47115 7.90273 2.47115 8.02873V8.75638C2.27711 8.68715 2.06834 8.64909 1.85079 8.64909C0.830279 8.64917 0 9.47945 0 10.5V11.7356C0 12.7561 0.830279 13.5864 1.85083 13.5864C2.07437 13.5864 2.28879 13.5466 2.48739 13.4736C2.74764 17.6675 6.24168 21 10.5 21C14.7583 21 18.2524 17.6675 18.5126 13.4736C18.7112 13.5466 18.9256 13.5864 19.1492 13.5864C20.1697 13.5864 21 12.7561 21 11.7356V10.5C21 9.47945 20.1697 8.64917 19.1492 8.64917ZM16.8609 14.5706C16.5939 14.8376 16.1595 14.8377 15.8927 14.5707C15.729 14.4045 15.4373 13.6854 15.1663 12.8761C15.9756 13.1471 16.6948 13.4388 16.861 13.6024C17.1278 13.8694 17.1278 14.3037 16.8609 14.5706ZM10.5 1.23047C12.6663 1.23047 14.6986 1.9491 16.2227 3.25397C17.2512 4.1345 17.9786 5.24426 18.3205 6.43658C15.8882 6.29885 14.0802 6.07983 12.9591 5.91343C8.48855 5.25004 7.52936 4.36242 7.32449 4.01157C7.2142 3.82274 7.01191 3.70658 6.79321 3.70658C6.57452 3.70658 6.37223 3.8227 6.26194 4.01157C5.35188 5.56988 3.69776 6.14705 2.70084 6.35853C3.58924 3.38358 6.78394 1.23047 10.5 1.23047ZM4.16903 13.6024C4.33531 13.4388 5.0544 13.1471 5.86368 12.8761C5.59269 13.6854 5.30106 14.4045 5.13749 14.5706C4.87052 14.8376 4.43609 14.8376 4.16916 14.5707C3.90223 14.3037 3.90219 13.8694 4.16903 13.6024ZM1.85083 12.356C1.50876 12.356 1.23047 12.0777 1.23047 11.7356V10.5C1.23047 10.1579 1.50876 9.87964 1.85083 9.87964C2.1929 9.87964 2.47119 10.1579 2.47119 10.5V11.7356C2.47119 12.0777 2.1929 12.356 1.85083 12.356ZM10.5 19.7695C7.83292 19.7695 5.52009 18.2255 4.40725 15.9846C4.48891 15.9951 4.57107 16.0008 4.65331 16.0008C5.14377 16.0008 5.63423 15.8141 6.00764 15.4407C6.20205 15.2463 6.48543 14.8484 6.95494 13.4862C7.19984 12.7758 7.3783 12.1389 7.38581 12.1122C7.44561 11.8982 7.3854 11.6687 7.22831 11.5115C7.07122 11.3544 6.84153 11.2942 6.62767 11.354C6.60093 11.3615 5.964 11.54 5.25361 11.7849C4.45737 12.0593 3.99094 12.2701 3.7017 12.4367V8.02881C3.7017 7.80679 3.71294 7.58289 3.73451 7.36066C4.73525 7.04497 5.95346 6.44405 6.86585 5.30119C7.33142 5.66815 7.99464 5.99066 8.86828 6.27662C9.883 6.60881 11.1986 6.89612 12.7785 7.13053C13.7709 7.27781 15.2885 7.4653 17.2851 7.60409C17.2938 7.7458 17.2983 7.88771 17.2983 8.02877V12.4195C17.0071 12.2556 16.5455 12.0499 15.7765 11.7849C15.0661 11.54 14.4291 11.3615 14.4024 11.354C14.1884 11.2941 13.9589 11.3544 13.8018 11.5115C13.6447 11.6686 13.5845 11.8981 13.6443 12.1121C13.6518 12.1389 13.8302 12.7758 14.0751 13.4862C14.5446 14.8484 14.828 15.2462 15.0225 15.4407C15.3959 15.8141 15.8863 16.0007 16.3767 16.0007C16.4482 16.0007 16.5197 15.9963 16.5909 15.9883C15.4773 18.2272 13.1656 19.7695 10.5 19.7695ZM19.7695 11.7356C19.7695 12.0777 19.4912 12.356 19.1492 12.356C18.8071 12.356 18.5288 12.0777 18.5288 11.7356V10.5C18.5288 10.1579 18.8071 9.87964 19.1492 9.87964C19.4912 9.87964 19.7695 10.1579 19.7695 10.5V11.7356Z" fill="#1499A2"/>
<path d="M9.19195 13.2251C9.55276 13.5859 10.0267 13.7663 10.5007 13.7663C10.9746 13.7663 11.4486 13.5859 11.8094 13.2251C12.0496 12.9848 12.0497 12.5953 11.8094 12.355C11.5692 12.1148 11.1796 12.1148 10.9393 12.355C10.6975 12.5969 10.3038 12.5969 10.062 12.355C9.82166 12.1147 9.43222 12.1148 9.19186 12.355C8.95164 12.5953 8.95168 12.9848 9.19195 13.2251Z" fill="#1499A2"/>
<path d="M12.5327 9.88006C12.7745 9.63815 13.1682 9.63815 13.41 9.88006C13.5302 10.0002 13.6876 10.0602 13.8451 10.0602C14.0025 10.0602 14.16 10.0002 14.2801 9.88002C14.5203 9.63975 14.5203 9.25022 14.2801 9.00991C13.5584 8.28836 12.3842 8.28836 11.6626 9.00991C11.4224 9.25018 11.4223 9.63971 11.6626 9.88002C11.9028 10.1202 12.2924 10.1202 12.5327 9.88006Z" fill="#1499A2"/>
<path d="M8.46668 9.88006C8.58686 10.0002 8.74428 10.0602 8.9017 10.0602C9.05911 10.0602 9.21661 10.0002 9.33675 9.88002C9.57698 9.63975 9.57694 9.25022 9.33671 9.00991C8.61508 8.28836 7.44084 8.28836 6.71925 9.00991C6.47903 9.25018 6.47898 9.63971 6.71921 9.88002C6.95948 10.1202 7.34901 10.1202 7.58932 9.88006C7.83119 9.63811 8.22486 9.63811 8.46668 9.88006Z" fill="#1499A2"/>
<path d="M12.9717 14.8271H8.0293C7.68952 14.8271 7.41406 15.1026 7.41406 15.4424C7.41406 17.1442 8.79863 18.5288 10.5005 18.5288C12.2023 18.5288 13.5869 17.1442 13.5869 15.4424C13.5869 15.1026 13.3115 14.8271 12.9717 14.8271ZM10.5005 17.2983C9.69269 17.2983 9.0037 16.7795 8.74933 16.0576H12.2517C11.9973 16.7795 11.3083 17.2983 10.5005 17.2983Z" fill="#1499A2"/>
</g>
<defs>
<clipPath id="clip0_923_11086">
<rect width="21" height="21" fill="white"/>
</clipPath>
</defs>
</svg>
