<svg width="22" height="22" viewBox="0 0 22 22" fill="none" xmlns="http://www.w3.org/2000/svg">
<path d="M10.7634 13.4406C8.73212 13.4406 7.04662 11.3229 7.04662 8.72987C7.04662 8.25447 7.08984 7.77906 7.21949 7.34688C7.26271 7.17401 7.43558 7.04437 7.65167 7.08759C7.82454 7.1308 7.95419 7.30368 7.91098 7.51977C7.82454 7.90873 7.78132 8.3409 7.78132 8.72987C7.78132 10.934 9.12108 12.7491 10.8066 12.7491C12.4921 12.7491 13.8318 10.934 13.8318 8.72987C13.8318 8.29769 13.7886 7.86549 13.7022 7.47653C13.659 7.30366 13.7886 7.08757 13.9615 7.04435C14.1344 7.00113 14.3505 7.1308 14.3937 7.30368C14.5233 7.77907 14.5666 8.25447 14.5666 8.72987C14.4801 11.3229 12.7946 13.4406 10.7634 13.4406Z" fill="#1499A2"/>
<path d="M15.6458 12.5771C15.4729 12.5771 15.3 12.4042 15.3 12.2313V8.73067C15.3 5.61897 13.2688 3.11232 10.8053 3.11232C8.2987 3.11232 6.26745 5.61897 6.26745 8.73067V12.2313C6.26745 12.4042 6.09459 12.5771 5.92171 12.5771C5.74884 12.5771 5.57597 12.4042 5.57597 12.2313V8.73067C5.57597 5.27322 7.90974 2.42084 10.7621 2.42084C13.6145 2.42084 15.9483 5.23001 15.9483 8.73067V12.2313C15.9483 12.4042 15.8186 12.5771 15.6458 12.5771Z" fill="#1499A2"/>
<path d="M17.0723 22.0001H4.45261C4.27974 22.0001 4.15008 21.8705 4.10686 21.6976L3.58825 17.8944C3.45859 17.03 3.76112 16.1657 4.32295 15.4742C4.88479 14.8259 5.74915 14.437 6.61351 14.437H7.17535C7.73718 14.437 8.2558 14.0912 8.51511 13.6158L8.9905 12.5786C9.07694 12.4057 9.29303 12.3193 9.4659 12.4057C9.63878 12.4921 9.72521 12.7082 9.63877 12.8811L9.16338 13.9183C8.81763 14.653 8.03971 15.1717 7.21857 15.1717H6.65673C5.96524 15.1717 5.31697 15.4742 4.88479 15.9928C4.45261 16.5114 4.23652 17.1597 4.32295 17.8512L4.79835 21.3518H16.813L17.2884 17.8512C17.3748 17.1597 17.1587 16.5114 16.7265 15.9928C16.2944 15.4742 15.6461 15.1717 14.9546 15.1717H14.3928C13.5716 15.1717 12.7937 14.6962 12.4479 13.9615L11.9293 12.8811C11.8429 12.7082 11.9293 12.4921 12.1022 12.4057C12.2751 12.3193 12.4912 12.4057 12.5776 12.5786L13.0962 13.659C13.3555 14.1777 13.8741 14.4802 14.436 14.4802H14.9978C15.8622 14.4802 16.7265 14.8691 17.2884 15.5174C17.8502 16.1657 18.1527 17.0732 18.0231 17.9376L17.5045 21.7408C17.3748 21.8704 17.2451 22.0001 17.0723 22.0001Z" fill="#1499A2"/>
<path d="M10.3734 7.73725H7.56425C7.39138 7.73725 7.21851 7.56438 7.21851 7.39151C7.21851 7.21864 7.39138 7.04574 7.56425 7.04574H10.3734C10.5463 7.04574 10.7192 7.21864 10.7192 7.39151C10.7192 7.6076 10.5463 7.73725 10.3734 7.73725Z" fill="#1499A2"/>
<path d="M13.9624 7.73725H12.6226C12.4498 7.73725 12.2769 7.56438 12.2769 7.39151C12.2769 7.21864 12.4498 7.04574 12.6226 7.04574H13.9624C14.1353 7.04574 14.3081 7.21864 14.3081 7.39151C14.3081 7.6076 14.1785 7.73725 13.9624 7.73725Z" fill="#1499A2"/>
<path d="M7.99752 21.997C7.82464 21.997 7.695 21.8674 7.65178 21.6945L7.17638 18.4099C7.13316 18.1506 6.91707 17.9777 6.70098 17.9777C6.5281 17.9777 6.35524 17.8048 6.35524 17.632C6.35524 17.4591 6.5281 17.2862 6.70098 17.2862C7.26281 17.2862 7.78143 17.7184 7.86787 18.2802L8.34326 21.5648C8.38648 21.7377 8.25683 21.9106 8.04074 21.9538C8.04074 21.997 8.04073 21.997 7.99752 21.997Z" fill="#1499A2"/>
<path d="M13.5308 21.9967H13.4876C13.3147 21.9535 13.1851 21.7806 13.1851 21.6078L13.6605 18.3232C13.7469 17.7614 14.2655 17.3292 14.8273 17.3292C15.0002 17.3292 15.1731 17.5021 15.1731 17.6749C15.1731 17.8478 15.0002 18.0207 14.8273 18.0207C14.568 18.0207 14.3952 18.1936 14.352 18.4529L13.8766 21.7374C13.8333 21.8671 13.7037 21.9967 13.5308 21.9967Z" fill="#1499A2"/>
<path d="M5.31379 15.5153C5.22735 15.5153 5.14092 15.4721 5.0977 15.4288C3.15289 13.7433 2.02922 11.3231 2.02922 8.77325C2.02922 3.93284 5.96206 0 10.8025 0C15.6429 0 19.5757 3.93284 19.5757 8.77325C19.5757 11.3663 18.4521 13.7866 16.5073 15.4288C16.3776 15.5585 16.1615 15.5153 16.0319 15.3856C15.9022 15.256 15.9454 15.0399 16.0751 14.9102C17.8902 13.3544 18.9275 11.1502 18.9275 8.77325C18.9275 4.3218 15.2972 0.691504 10.8457 0.691504C6.39424 0.691504 2.76393 4.3218 2.76393 8.77325C2.76393 11.1502 3.80116 13.3976 5.61632 14.9102C5.74597 15.0399 5.78919 15.256 5.65954 15.3856C5.52988 15.4721 5.40023 15.5153 5.31379 15.5153Z" fill="#1499A2"/>
<path d="M20.1415 13.7427C20.0983 13.7427 20.0551 13.7427 19.9686 13.6995C19.7958 13.613 19.7093 13.397 19.7958 13.2241C20.4872 11.8411 20.833 10.3285 20.833 8.7294C20.833 6.65494 20.2279 4.66691 19.0178 2.98141C18.8882 2.80854 18.9314 2.59243 19.1043 2.50599C19.2771 2.37634 19.4932 2.41956 19.5797 2.59244C20.833 4.40759 21.5245 6.52527 21.5245 8.77261C21.5245 10.4581 21.1355 12.0572 20.4008 13.5698C20.3576 13.6563 20.2279 13.7427 20.1415 13.7427Z" fill="#1499A2"/>
<path d="M1.42619 13.7436C1.29654 13.7436 1.16689 13.6572 1.12367 13.5707C0.388962 12.0581 0 10.459 0 8.77353C0 6.56941 0.64827 4.40851 1.94481 2.59336C2.07447 2.42048 2.24734 2.42048 2.42021 2.50691C2.59308 2.63657 2.59308 2.80946 2.50664 2.98233C1.33976 4.66783 0.691488 6.65586 0.691488 8.73032C0.691488 10.2862 1.03723 11.7988 1.72872 13.225C1.81516 13.3979 1.72872 13.614 1.55585 13.7004C1.51263 13.7004 1.46941 13.7436 1.42619 13.7436Z" fill="#1499A2"/>
</svg>
