<svg width="20" height="21" viewBox="0 0 20 21" fill="none" xmlns="http://www.w3.org/2000/svg">
<g clip-path="url(#clip0_923_11233)">
<path d="M1.75751 13.5864C1.96987 13.5864 2.17357 13.5466 2.36224 13.4736C2.60947 17.6675 5.92881 21 9.97422 21C14.0196 21 17.339 17.6675 17.5862 13.4736C17.7748 13.5466 17.9785 13.5864 18.1909 13.5864C19.1605 13.5864 19.9492 12.7561 19.9492 11.7356L19.9492 10.5C19.9492 9.47945 19.1605 8.64917 18.1909 8.64917C17.9843 8.64917 17.7859 8.68719 17.6016 8.75647L17.6016 5.69604C17.6016 2.55523 15.1741 -4.17453e-07 12.1903 -6.78302e-07L7.75809 -1.06578e-06C4.77432 -1.32663e-06 2.34685 2.55523 2.34685 5.69604L2.34685 8.75647C2.16251 8.68723 1.96418 8.64917 1.75751 8.64917C0.787984 8.64917 -0.000781006 9.47945 -0.000781095 10.5L-0.000781203 11.7356C-0.000781292 12.7561 0.787984 13.5864 1.75751 13.5864ZM17.6016 10.5C17.6016 10.1579 17.866 9.87964 18.1909 9.87964C18.5159 9.87964 18.7803 10.1579 18.7803 10.5L18.7803 11.7356C18.7803 12.0777 18.5159 12.356 18.1909 12.356C17.866 12.356 17.6016 12.0777 17.6016 11.7356L17.6016 10.5ZM7.75809 1.23047L12.1903 1.23047C14.3313 1.23047 16.1065 2.90862 16.3922 5.08081L3.55624 5.08081C3.84189 2.90862 5.61717 1.23047 7.75809 1.23047ZM3.5158 6.31128L16.4326 6.31128L16.4326 12.9712C16.4326 16.7198 13.5354 19.7695 9.97422 19.7695C6.41303 19.7695 3.5158 16.7198 3.5158 12.9712L3.5158 6.31128ZM1.16816 10.5C1.16816 10.1579 1.43254 9.87964 1.75751 9.87964C2.08247 9.87964 2.34685 10.1579 2.34685 10.5L2.34685 11.7356C2.34685 12.0777 2.08247 12.356 1.75751 12.356C1.43254 12.356 1.16816 12.0777 1.16816 11.7356L1.16816 10.5Z" fill="#1499A2"/>
<path d="M8.73093 12.3554C8.50267 12.5957 8.50267 12.9852 8.73093 13.2255C9.06299 13.5751 9.50454 13.7676 9.97422 13.7676C10.4439 13.7676 10.8854 13.5751 11.2175 13.2255C11.4457 12.9852 11.4457 12.5957 11.2175 12.3554C11.1034 12.2353 10.9538 12.1752 10.8042 12.1752C10.6547 12.1752 10.5051 12.2353 10.3909 12.3555C10.2797 12.4726 10.1317 12.5371 9.97426 12.5371C9.81684 12.5371 9.66885 12.4726 9.55753 12.3555C9.32923 12.1151 8.95915 12.1151 8.73093 12.3554Z" fill="#1499A2"/>
<path d="M11.221 15.8807C10.5335 16.6043 9.4149 16.6043 8.72748 15.8807C8.61335 15.7606 8.46377 15.7005 8.31422 15.7005C8.16467 15.7005 8.01505 15.7606 7.90096 15.8807C7.6727 16.121 7.6727 16.5105 7.90096 16.7508C9.04419 17.9542 10.9044 17.9542 12.0476 16.7508C12.2758 16.5105 12.2758 16.121 12.0476 15.8807C11.8193 15.6404 11.4492 15.6404 11.221 15.8807Z" fill="#1499A2"/>
<path d="M14.339 9.03454L11.7171 8.25337C11.3946 8.15727 11.0682 8.33579 10.9879 8.65201C10.931 8.87637 11.0132 9.10971 11.181 9.26073C11.2497 9.32259 11.3327 9.37064 11.4264 9.39854L11.9505 9.55467L11.8825 9.63011C11.6666 9.86999 11.6962 10.2488 11.9487 10.4761C12.2012 10.7035 12.581 10.6933 12.797 10.4534L13.256 9.94364L14.0483 10.1797C14.3708 10.2758 14.6972 10.0973 14.7775 9.78107C14.8577 9.46482 14.6614 9.13056 14.339 9.03454Z" fill="#1499A2"/>
<path d="M7.46737 8.2676L4.87353 9.13744C4.55455 9.24439 4.36968 9.58516 4.46062 9.89847C4.55155 10.2118 4.88393 10.3791 5.20288 10.2721L5.98676 10.0092L6.46282 10.5031C6.68683 10.7355 7.06676 10.7328 7.3114 10.497C7.55603 10.2612 7.57275 9.88159 7.34874 9.64919L7.2783 9.57611L7.79672 9.40226C7.88943 9.37119 7.97081 9.32034 8.03738 9.25618C8.19985 9.09957 8.27413 8.86351 8.20961 8.64126C8.1187 8.32791 7.78638 8.16062 7.46737 8.2676Z" fill="#1499A2"/>
</g>
<defs>
<clipPath id="clip0_923_11233">
<rect width="19.95" height="21" fill="white"/>
</clipPath>
</defs>
</svg>
