<svg width="22" height="18" viewBox="0 0 22 18" fill="none" xmlns="http://www.w3.org/2000/svg">
<path d="M19.3797 14.4954H5.9475L3.50528 0.452713H0.452517" stroke="#1499A2" stroke-width="0.9" stroke-miterlimit="10" stroke-linecap="round" stroke-linejoin="round"/>
<path d="M4.11743 2.28517H21.2129L19.3813 11.4435H5.94909" stroke="#1499A2" stroke-width="0.9" stroke-miterlimit="10" stroke-linecap="round" stroke-linejoin="round"/>
<path d="M8.3912 2.28517V11.4435" stroke="#1499A2" stroke-width="0.9" stroke-miterlimit="10" stroke-linecap="round" stroke-linejoin="round"/>
<path d="M12.665 2.28517V11.4435" stroke="#1499A2" stroke-width="0.9" stroke-miterlimit="10" stroke-linecap="round" stroke-linejoin="round"/>
<path d="M19.9902 6.55894H4.72635" stroke="#1499A2" stroke-width="0.9" stroke-miterlimit="10" stroke-linecap="round" stroke-linejoin="round"/>
<path d="M16.9385 2.28517V11.4435" stroke="#1499A2" stroke-width="0.9" stroke-miterlimit="10" stroke-linecap="round" stroke-linejoin="round"/>
<path d="M8.69398 17.5474C9.53698 17.5474 10.2204 16.864 10.2204 16.0211C10.2204 15.1781 9.53698 14.4947 8.69398 14.4947C7.85098 14.4947 7.16759 15.1781 7.16759 16.0211C7.16759 16.864 7.85098 17.5474 8.69398 17.5474Z" stroke="#1499A2" stroke-width="0.9" stroke-miterlimit="10" stroke-linecap="round" stroke-linejoin="round"/>
<path d="M16.6327 17.5474C17.4757 17.5474 18.159 16.864 18.159 16.0211C18.159 15.1781 17.4757 14.4947 16.6327 14.4947C15.7897 14.4947 15.1063 15.1781 15.1063 16.0211C15.1063 16.864 15.7897 17.5474 16.6327 17.5474Z" stroke="#1499A2" stroke-width="0.9" stroke-miterlimit="10" stroke-linecap="round" stroke-linejoin="round"/>
</svg>
