<svg width="19" height="21" viewBox="0 0 19 21" fill="none" xmlns="http://www.w3.org/2000/svg">
<path d="M7.50011 7.31153C6.89073 7.31153 6.3751 6.7959 6.3751 6.18653C6.3751 5.57715 6.89073 5.06152 7.50011 5.06152C8.10949 5.06152 8.62511 5.57715 8.62511 6.18653C8.62511 6.7959 8.10949 7.31153 7.50011 7.31153ZM7.50011 5.81152C7.31261 5.81152 7.12511 5.99902 7.12511 6.18653C7.12511 6.37403 7.31261 6.56153 7.50011 6.56153C7.68761 6.56153 7.87511 6.37403 7.87511 6.18653C7.87511 5.99902 7.73448 5.81152 7.50011 5.81152Z" fill="#1499A2"/>
<path d="M10.7342 7.31153C10.1249 7.31153 9.60925 6.7959 9.60925 6.18653C9.60925 5.57715 10.1249 5.06152 10.7342 5.06152C11.3436 5.06152 11.8593 5.57715 11.8593 6.18653C11.8593 6.7959 11.3436 7.31153 10.7342 7.31153ZM10.7342 5.81152C10.5467 5.81152 10.3592 5.99902 10.3592 6.18653C10.3592 6.37403 10.5467 6.56153 10.7342 6.56153C10.9218 6.56153 11.1093 6.37403 11.1093 6.18653C11.1093 5.99902 10.9218 5.81152 10.7342 5.81152Z" fill="#1499A2"/>
<path d="M10.3107 9.60841C10.1232 9.60841 9.93568 9.4209 9.93568 9.2334C9.93568 8.99903 9.60755 8.71777 9.1388 8.71777C8.67005 8.71777 8.34192 8.99903 8.34192 9.2334C8.34192 9.4209 8.15442 9.60841 7.96692 9.60841C7.77942 9.60841 7.59192 9.4209 7.59192 9.2334C7.59192 8.53027 8.29505 7.96777 9.1388 7.96777C10.0294 7.96777 10.6857 8.53027 10.6857 9.2334C10.6857 9.4209 10.4982 9.60841 10.3107 9.60841Z" fill="#1499A2"/>
<path d="M9.89073 4.21876H6.04697C5.85947 4.21876 5.67197 4.03125 5.67197 3.84375C5.67197 3.65625 5.85947 3.46875 6.04697 3.46875H9.89073C10.0782 3.46875 10.2657 3.65625 10.2657 3.84375C10.2657 4.07813 10.0782 4.21876 9.89073 4.21876Z" fill="#1499A2"/>
<path d="M15.7989 17.0153H2.43943C2.25193 17.0153 2.06443 16.8278 2.06443 16.6403V14.7184C2.06443 13.5466 3.04881 12.5622 4.22069 12.5622C5.53319 12.5622 6.70507 11.8122 7.2207 10.6403C7.31445 10.4528 7.54882 10.359 7.73633 10.4528C7.92383 10.5465 8.01758 10.7809 7.92383 10.9684C7.26757 12.4215 5.81444 13.3591 4.22069 13.3591C3.42381 13.3591 2.81443 13.9684 2.81443 14.7653V16.3122H15.4239V14.7653C15.4239 13.9684 14.8145 13.3591 14.0176 13.3591C12.4238 13.3591 10.9707 12.4215 10.3145 10.9684C10.2207 10.7809 10.3145 10.5465 10.502 10.4528C10.6895 10.359 10.9238 10.4528 11.0176 10.6403C11.5332 11.8122 12.752 12.5622 14.0176 12.5622C15.1895 12.5622 16.1739 13.5466 16.1739 14.7184V16.6403C16.1739 16.8747 15.9864 17.0153 15.7989 17.0153Z" fill="#1499A2"/>
<path d="M9.09385 11.4834C6.93759 11.4834 5.15633 9.79593 5.06258 7.63967V5.48341C5.25008 3.37403 6.98447 1.78027 9.09385 1.78027C11.1564 1.78027 12.8907 3.32715 13.1251 5.43653C13.1251 5.43653 13.1251 5.43654 13.1251 5.48341V7.63967C13.0782 9.79593 11.297 11.4834 9.09385 11.4834ZM9.09385 2.53027C7.35947 2.53027 5.95321 3.79591 5.81259 5.53029V7.63967C5.90634 9.37406 7.35947 10.7803 9.09385 10.7803C10.8751 10.7803 12.3282 9.37406 12.3751 7.63967V5.53029C12.2345 3.79591 10.8282 2.53027 9.09385 2.53027Z" fill="#1499A2"/>
<path d="M12.9844 13.1719C12.9376 13.1719 12.9376 13.1719 12.8907 13.1719C11.7657 12.8438 10.8751 12.0469 10.3594 11.0157C10.3126 10.9688 10.3126 10.9219 10.3126 10.875C10.2657 10.6875 10.3594 10.5469 10.5001 10.4532C11.6251 9.93754 12.3751 8.85941 12.4219 7.59378V5.4844C12.2344 3.84376 10.8282 2.57814 9.14067 2.57814C7.40629 2.57814 6.00003 3.84376 5.85941 5.57815V7.68753C5.90628 8.90628 6.65629 9.98441 7.78129 10.5C7.92192 10.5938 8.01567 10.7344 7.96879 10.9219C7.96879 10.9688 7.92192 11.0157 7.92192 11.0625C7.40629 12.0938 6.51566 12.8907 5.39066 13.2188C5.29691 13.2657 5.20316 13.2188 5.1094 13.2188C2.39064 12 0.750011 9.60941 0.750011 7.03128C0.750011 3.14064 4.50003 0 9.14067 0C13.7813 0 17.5313 3.14064 17.5313 7.03128C17.5313 9.60941 15.8438 12 13.1719 13.2188C13.0782 13.1719 13.0313 13.1719 12.9844 13.1719ZM9.0938 0.65625C4.87503 0.65625 1.45314 3.46876 1.45314 6.9844C1.45314 9.23441 2.90627 11.2969 5.25003 12.4219C6.00003 12.1875 6.65629 11.6719 7.03129 10.9688C5.85941 10.2657 5.1094 9.04691 5.06253 7.68753V5.53127C5.25003 3.42189 6.98441 1.82813 9.0938 1.82813C11.1563 1.82813 12.8907 3.37501 13.1251 5.4844V7.64066C13.0782 9.04691 12.3282 10.2657 11.1563 10.9688C11.5782 11.6719 12.1876 12.1875 12.9376 12.4219C15.2813 11.2969 16.7345 9.23441 16.7345 6.9844C16.7813 3.46876 13.3126 0.65625 9.0938 0.65625Z" fill="#1499A2"/>
<path d="M17.8595 21H0.375002C0.187501 21 0 20.8125 0 20.625V18.0469C0 17.0625 0.796878 16.3125 1.73438 16.3125H16.4532C17.4376 16.3125 18.1876 17.1094 18.1876 18.0469V20.625C18.2345 20.8125 18.047 21 17.8595 21ZM0.750003 20.25H17.4844V18.0469C17.4844 17.4844 17.0157 17.0625 16.5001 17.0625H1.73438C1.17188 17.0625 0.750003 17.5312 0.750003 18.0469V20.25Z" fill="#1499A2"/>
</svg>
