<svg width="21" height="21" viewBox="0 0 21 21" fill="none" xmlns="http://www.w3.org/2000/svg">
<path d="M8.03052 9.87988C8.37259 9.87988 8.65088 10.1582 8.65088 10.5002C8.65088 10.84 8.92634 11.1155 9.26611 11.1155C9.60589 11.1155 9.88135 10.84 9.88135 10.5002C9.88135 9.47969 9.05107 8.64941 8.03052 8.64941C7.00997 8.64941 6.17969 9.47969 6.17969 10.5002C6.17969 10.84 6.45515 11.1155 6.79492 11.1155C7.1347 11.1155 7.41016 10.84 7.41016 10.5002C7.41016 10.1582 7.68849 9.87988 8.03052 9.87988Z" fill="#1499A2"/>
<path d="M9.19192 12.355C8.95165 12.5953 8.95165 12.9848 9.19192 13.2251C9.54146 13.5746 10.0062 13.7672 10.5006 13.7672C10.9951 13.7672 11.4598 13.5746 11.8094 13.2251C12.0496 12.9848 12.0496 12.5953 11.8094 12.355C11.5691 12.1147 11.1796 12.1147 10.9393 12.355C10.8221 12.4721 10.6664 12.5367 10.5006 12.5367C10.3349 12.5367 10.1792 12.4721 10.062 12.355C9.82176 12.1147 9.43219 12.1147 9.19192 12.355Z" fill="#1499A2"/>
<path d="M12.9722 8.64941C11.9516 8.64941 11.1213 9.47969 11.1213 10.5002C11.1213 10.84 11.3968 11.1155 11.7366 11.1155C12.0763 11.1155 12.3518 10.84 12.3518 10.5002C12.3518 10.1582 12.6301 9.87988 12.9722 9.87988C13.3142 9.87988 13.5925 10.1582 13.5925 10.5002C13.5925 10.84 13.868 11.1155 14.2078 11.1155C14.5475 11.1155 14.823 10.84 14.823 10.5002C14.823 9.47969 13.9927 8.64941 12.9722 8.64941Z" fill="#1499A2"/>
<path d="M17.6218 2.14355C16.2395 0.761208 14.4015 -4.10139e-05 12.4466 1.65733e-09L8.55498 8.20328e-05C4.51946 0.000164064 1.23633 3.28338 1.23633 7.3189V20.3848C1.23633 20.7245 1.51179 21 1.85156 21H19.1503C19.49 21 19.7655 20.7245 19.7655 20.3848V7.31881C19.7655 5.36385 19.0042 3.5259 17.6218 2.14355ZM2.46684 19.7695V13.4791C2.66096 13.5484 2.86977 13.5864 3.0874 13.5864C3.30503 13.5864 3.51384 13.5484 3.70797 13.4791V14.1762C3.70797 15.9671 4.39424 17.6612 5.64041 18.9464C5.93782 19.2531 6.25901 19.5281 6.59989 19.7695H2.46684ZM2.467 11.7356V10.5C2.467 10.158 2.74529 9.87966 3.08736 9.87966C3.42943 9.87966 3.70768 10.158 3.70768 10.5V11.7356C3.70768 12.0777 3.42943 12.356 3.08736 12.356C2.74529 12.356 2.467 12.0777 2.467 11.7356ZM10.6275 19.7684C10.5433 19.7699 10.4586 19.7699 10.3743 19.7684C7.37693 19.7137 4.93839 17.2051 4.93839 14.1762V7.58792H16.0634V14.1762C16.0635 17.2051 13.6249 19.7137 10.6275 19.7684ZM18.535 19.7695H14.402C14.7429 19.5281 15.0641 19.2531 15.3615 18.9464C16.6077 17.6613 17.294 15.9671 17.294 14.1762V13.4791C17.4881 13.5484 17.6969 13.5864 17.9145 13.5864C18.1321 13.5864 18.341 13.5484 18.5351 13.4791V19.7695H18.535ZM17.2941 11.7356V10.5C17.2941 10.158 17.5724 9.87966 17.9145 9.87966C18.2565 9.87966 18.5348 10.158 18.5348 10.5V11.7356C18.5348 12.0777 18.2565 12.356 17.9145 12.356C17.5724 12.356 17.2941 12.0777 17.2941 11.7356ZM18.535 8.75653C18.3409 8.68721 18.1321 8.64919 17.9145 8.64919C17.6968 8.64919 17.488 8.68726 17.2939 8.75653V6.97268C17.2939 6.63291 17.0185 6.35745 16.6787 6.35745H4.32316C3.98338 6.35745 3.70792 6.63291 3.70792 6.97268V8.75657C3.5138 8.68726 3.30495 8.64919 3.08732 8.64919C2.86973 8.64919 2.66088 8.68726 2.46679 8.75653V7.3189C2.46679 3.96186 5.19794 1.23063 8.55498 1.23055L12.4466 1.23047C14.0728 1.23043 15.6018 1.86371 16.7518 3.01366C17.9018 4.16361 18.5351 5.69255 18.5351 7.31881V8.75653H18.535Z" fill="#1499A2"/>
<path d="M12.9717 14.8271H8.0293C7.68952 14.8271 7.41406 15.1026 7.41406 15.4424C7.41406 15.7822 7.68952 16.0576 8.0293 16.0576H9.88525V16.678C9.88525 17.6985 10.7155 18.5288 11.7361 18.5288C12.7566 18.5288 13.5869 17.6985 13.5869 16.678V15.4424C13.5869 15.1026 13.3115 14.8271 12.9717 14.8271ZM12.3564 16.678C12.3564 17.02 12.0782 17.2983 11.7361 17.2983C11.394 17.2983 11.1157 17.02 11.1157 16.678V16.0576H12.3564V16.678Z" fill="#1499A2"/>
</svg>
