<svg width="20" height="21" viewBox="0 0 20 21" fill="none" xmlns="http://www.w3.org/2000/svg">
<g clip-path="url(#clip0_923_8131)">
<path d="M12.3217 14.8271C11.9439 14.8271 11.5887 14.982 11.3215 15.2633C11.2258 15.364 11.07 15.364 10.9743 15.2633C10.7072 14.9821 10.3519 14.8271 9.97408 14.8271C9.59623 14.8271 9.24103 14.982 8.97389 15.2633C8.87815 15.364 8.72233 15.364 8.62663 15.2633C8.35949 14.9821 8.00425 14.8271 7.62644 14.8271C7.24864 14.8271 6.8934 14.982 6.62626 15.2633C6.398 15.5035 6.39804 15.8931 6.62626 16.1333C6.85451 16.3736 7.2246 16.3736 7.45282 16.1333C7.51539 16.0675 7.58845 16.0576 7.62644 16.0576C7.66444 16.0576 7.73749 16.0674 7.80007 16.1333C8.35158 16.7139 9.24894 16.7139 9.80045 16.1333C9.86303 16.0675 9.93609 16.0576 9.97408 16.0576C10.0121 16.0576 10.0851 16.0674 10.1477 16.1333C10.4235 16.4236 10.7857 16.5687 11.1479 16.5687C11.5101 16.5687 11.8724 16.4236 12.1481 16.1333C12.2107 16.0675 12.2837 16.0576 12.3217 16.0576C12.3597 16.0576 12.4328 16.0674 12.4953 16.1333C12.7236 16.3736 13.0936 16.3735 13.3219 16.1334C13.5501 15.8931 13.5502 15.5036 13.3219 15.2633C13.0548 14.982 12.6996 14.8271 12.3217 14.8271Z" fill="#1499A2"/>
<path d="M18.1917 8.64917C17.985 8.64917 17.7867 8.68719 17.6024 8.75647V5.69604C17.6024 2.55523 15.1749 0 12.1911 0H7.75887C4.7751 0 2.34763 2.55523 2.34763 5.69604V8.75647C2.16329 8.68723 1.96496 8.64917 1.75829 8.64917C0.788765 8.64917 0 9.47945 0 10.5V11.7356C0 12.7561 0.788765 13.5864 1.75829 13.5864C1.97069 13.5864 2.17436 13.5466 2.36302 13.4736C2.61026 17.6675 5.92959 21 9.975 21C14.0204 21 17.3397 17.6675 17.587 13.4736C17.7756 13.5466 17.9793 13.5864 18.1917 13.5864C19.1612 13.5864 19.95 12.7561 19.95 11.7356V10.5C19.95 9.47945 19.1612 8.64917 18.1917 8.64917ZM7.75887 1.23047H12.1911C14.332 1.23047 16.1073 2.90858 16.393 5.08081H3.55702C3.84267 2.90858 5.61795 1.23047 7.75887 1.23047ZM1.75829 12.356C1.43332 12.356 1.16895 12.0777 1.16895 11.7356V10.5C1.16895 10.1579 1.43332 9.87964 1.75829 9.87964C2.08326 9.87964 2.34763 10.1579 2.34763 10.5V11.7356C2.34763 12.0777 2.08326 12.356 1.75829 12.356ZM16.4334 12.9712C16.4334 16.7198 13.5362 19.7695 9.975 19.7695C6.41381 19.7695 3.51658 16.7198 3.51658 12.9712V6.31128H16.4334V12.9712ZM18.7811 11.7356C18.7811 12.0777 18.5167 12.356 18.1917 12.356C17.8667 12.356 17.6024 12.0777 17.6024 11.7356V10.5C17.6024 10.1579 17.8667 9.87964 18.1917 9.87964C18.5167 9.87964 18.7811 10.1579 18.7811 10.5V11.7356Z" fill="#1499A2"/>
<path d="M8.73172 12.355C8.50346 12.5953 8.5035 12.9848 8.73176 13.2251C9.07453 13.5859 9.52477 13.7663 9.97505 13.7663C10.4253 13.7663 10.8756 13.5859 11.2183 13.2251C11.4466 12.9848 11.4466 12.5953 11.2184 12.355C10.9901 12.1148 10.6201 12.1148 10.3918 12.355C10.162 12.5969 9.7881 12.5969 9.55828 12.355C9.33006 12.1147 8.95998 12.1148 8.73172 12.355Z" fill="#1499A2"/>
<path d="M7.62749 10.1349L8.38804 10.9355C8.50217 11.0557 8.65176 11.1158 8.8013 11.1158C8.95085 11.1158 9.10048 11.0557 9.21456 10.9355C9.44282 10.6953 9.44282 10.3057 9.21456 10.0655L8.45401 9.26488L9.21456 8.4643C9.44282 8.22407 9.44282 7.8345 9.21456 7.59423C8.98635 7.35401 8.61626 7.35401 8.388 7.59423L7.62745 8.39482L6.86689 7.59423C6.63868 7.35401 6.26859 7.35401 6.04033 7.59423C5.81208 7.83446 5.81208 8.22403 6.04033 8.4643L6.80089 9.26488L6.04033 10.0655C5.81208 10.3057 5.81208 10.6953 6.04033 10.9355C6.15446 11.0557 6.30405 11.1158 6.45359 11.1158C6.60314 11.1158 6.75277 11.0557 6.86686 10.9355L7.62749 10.1349Z" fill="#1499A2"/>
<path d="M13.9099 7.59423C13.6817 7.35401 13.3116 7.35401 13.0833 7.59423L12.3228 8.39482L11.5622 7.59423C11.334 7.35401 10.9639 7.35401 10.7356 7.59423C10.5074 7.83446 10.5074 8.22403 10.7356 8.4643L11.4962 9.26488L10.7356 10.0655C10.5074 10.3057 10.5074 10.6953 10.7356 10.9355C10.8498 11.0557 10.9994 11.1158 11.1489 11.1158C11.2985 11.1158 11.4481 11.0557 11.5622 10.9355L12.3227 10.1349L13.0833 10.9355C13.1974 11.0557 13.347 11.1158 13.4965 11.1158C13.6461 11.1158 13.7957 11.0557 13.9098 10.9355C14.1381 10.6953 14.1381 10.3057 13.9098 10.0655L13.1492 9.26488L13.9098 8.4643C14.1382 8.22403 14.1382 7.83446 13.9099 7.59423Z" fill="#1499A2"/>
</g>
<defs>
<clipPath id="clip0_923_8131">
<rect width="19.95" height="21" fill="white"/>
</clipPath>
</defs>
</svg>
