<svg width="30" height="30" viewBox="0 0 30 30" fill="none" xmlns="http://www.w3.org/2000/svg">
<g clip-path="url(#clip0_923_11394)">
<path d="M29.0103 29.4724L28.1585 25.304C27.8884 23.982 26.8452 22.9677 25.5317 22.7241L24.594 5.18164C24.4385 2.27602 22.0374 0 19.1276 0H11.5708C10.6822 0 9.8126 0.361056 9.18488 0.990766L8.25517 1.92411C6.7946 2.01774 5.61252 3.1905 5.52674 4.67094L4.70689 18.7901C4.69283 19.0324 4.87781 19.2403 5.12016 19.2543C5.36344 19.269 5.57028 19.0834 5.58434 18.8411L6.40419 4.72185C6.46676 3.64249 7.36267 2.79698 8.44378 2.79698C8.56062 2.79698 8.67265 2.75046 8.75509 2.66767L9.8075 1.61116C10.2714 1.14581 10.914 0.87891 11.5708 0.87891H19.1276C21.5702 0.87891 23.5858 2.78948 23.7163 5.22852L24.6453 22.6075L19.2143 21.9853C19.215 21.9696 19.2167 21.9542 19.2167 21.9383V20.0379C19.2167 19.7487 19.0932 19.4884 18.8969 19.3048C20.7347 18.3727 21.9973 16.4643 21.9973 14.2662V10.4233C22.1644 10.4335 22.3379 10.4392 22.5194 10.4392C22.7622 10.4392 22.9589 10.2425 22.9589 9.99977C22.9589 9.75701 22.7622 9.56031 22.5194 9.56031C20.2022 9.56031 19.3747 8.62351 18.4985 7.63169C17.6994 6.72712 16.8732 5.7919 15.0138 5.7367C14.2362 5.71391 13.5207 5.77889 12.8867 5.93065C12.6507 5.98713 12.5051 6.22432 12.5616 6.46034C12.6181 6.6963 12.8548 6.84196 13.0913 6.78542C13.6497 6.65176 14.2882 6.59422 14.9877 6.61532C16.4665 6.65915 17.1029 7.3795 17.8397 8.21359C18.3799 8.82501 18.9627 9.48384 19.8985 9.92482C19.8897 9.92752 19.8808 9.9291 19.8721 9.93232C19.0934 10.2208 18.6426 9.76105 18.5935 9.70744L18.5678 9.68283C18.4043 9.52662 18.1488 9.52058 17.9782 9.66889C17.7771 9.84367 17.7786 10.1546 17.9788 10.3303C18.3076 10.6188 18.7519 10.9076 19.3771 10.9076C19.6215 10.9076 19.8937 10.8634 20.1908 10.7515C20.4347 10.6597 20.5489 10.3742 20.4246 10.1355C20.6385 10.2068 20.8693 10.2671 21.1184 10.3151V14.2663C21.1184 16.8917 18.9852 19.028 16.3612 19.0329H13.6404C11.0164 19.028 8.88312 16.8917 8.88312 14.2663V8.64859C8.88312 8.1496 9.28906 7.74372 9.78799 7.74372H11.1634C11.4062 7.74372 11.6029 7.54702 11.6029 7.30427C11.6029 7.06151 11.4062 6.86481 11.1634 6.86481H9.78799C8.80443 6.86481 8.00421 7.66503 8.00421 8.64859V14.2663C8.00421 16.4643 9.26679 18.3727 11.1045 19.3049C10.9083 19.4885 10.7848 19.7487 10.7848 20.038V21.0672L4.76719 20.4189C3.38935 20.2727 2.15671 21.2329 1.96241 22.6054L0.986821 29.4988C0.952778 29.7391 1.12001 29.9614 1.36036 29.9955C1.38122 29.9985 1.40196 29.9999 1.42253 29.9999C1.63792 29.9999 1.826 29.8414 1.85706 29.622L2.83265 22.7286C2.96027 21.8274 3.77004 21.1963 4.67437 21.2929L7.02276 21.5425V29.5604C7.02276 29.8032 7.21946 29.9999 7.46222 29.9999C7.70497 29.9999 7.90167 29.8032 7.90167 29.5604V21.6373L10.7856 21.9513C10.7927 22.4994 11.2402 22.9434 11.79 22.9434H18.2117C18.3904 22.9434 18.558 22.8959 18.7036 22.8138L22.1 23.1836V29.5604C22.1 29.8031 22.2967 29.9998 22.5395 29.9998C22.7823 29.9998 22.979 29.8031 22.979 29.5604V23.2866L25.2269 23.5654C26.2575 23.6932 27.0895 24.4626 27.2974 25.4801L28.1492 29.6485C28.1918 29.8566 28.3749 30.0001 28.5793 30.0001C28.6085 30.0001 28.6381 29.9971 28.6678 29.9911C28.9055 29.9424 29.0589 29.7103 29.0103 29.4724ZM11.6638 21.9383V20.0379C11.6638 19.9683 11.7204 19.9118 11.79 19.9118H18.2116C18.2812 19.9118 18.3378 19.9684 18.3378 20.0379V21.9383C18.3378 22.0079 18.2812 22.0644 18.2116 22.0644H11.79C11.7204 22.0644 11.6638 22.0079 11.6638 21.9383Z" fill="#1499A2"/>
<path d="M16.5725 15.2504C16.7518 15.0868 16.7644 14.8088 16.6008 14.6296C16.4372 14.4502 16.1592 14.4376 15.98 14.6013C15.7113 14.8466 15.3634 14.9816 15.0004 14.9816C14.6375 14.9816 14.2896 14.8465 14.0209 14.6013C13.8418 14.4376 13.5637 14.4503 13.4 14.6296C13.2364 14.8088 13.2491 15.0868 13.4284 15.2504C13.8593 15.6438 14.4176 15.8605 15.0004 15.8605C15.5832 15.8605 16.1415 15.6438 16.5725 15.2504Z" fill="#1499A2"/>
<path d="M19.2428 11.573C19.0543 11.42 18.7775 11.4486 18.6245 11.637L17.823 12.6235C17.7161 12.7551 17.6944 12.9365 17.7673 13.0895C17.8401 13.2425 17.9945 13.34 18.164 13.34H19.5114C19.7541 13.34 19.9508 13.1433 19.9508 12.9006C19.9508 12.6578 19.7541 12.4611 19.5114 12.4611H19.0873L19.3067 12.1912C19.4597 12.0028 19.4311 11.726 19.2428 11.573Z" fill="#1499A2"/>
<path d="M11.6035 13.2342V12.3545C11.6035 12.1117 11.4068 11.915 11.1641 11.915C10.9213 11.915 10.7246 12.1117 10.7246 12.3545V13.2342C10.7246 13.477 10.9213 13.6737 11.1641 13.6737C11.4068 13.6737 11.6035 13.477 11.6035 13.2342Z" fill="#1499A2"/>
<path d="M12.3605 9.78685C12.4202 9.54433 12.2625 9.30076 12.0164 9.25881C11.3715 9.14889 10.4659 9.17232 9.81069 10.1364C9.67422 10.3372 9.72637 10.6105 9.927 10.7469C10.0027 10.7984 10.0887 10.823 10.1737 10.823C10.3143 10.823 10.4525 10.7556 10.5375 10.6305C11.0084 9.93785 11.6465 10.0546 11.7176 10.0703L11.8313 10.1004C12.0643 10.1623 12.3027 10.021 12.3605 9.78685Z" fill="#1499A2"/>
<path d="M10.2363 15.0313C10.479 15.0313 10.6758 14.8345 10.6758 14.5918C10.6758 14.3491 10.479 14.1523 10.2363 14.1523C9.99362 14.1523 9.79688 14.3491 9.79688 14.5918C9.79688 14.8345 9.99362 15.0313 10.2363 15.0313Z" fill="#1499A2"/>
<path d="M11.7227 15.0313C11.9654 15.0313 12.1621 14.8345 12.1621 14.5918C12.1621 14.3491 11.9654 14.1523 11.7227 14.1523C11.48 14.1523 11.2832 14.3491 11.2832 14.5918C11.2832 14.8345 11.48 15.0313 11.7227 15.0313Z" fill="#1499A2"/>
<path d="M18.2793 15.0313C18.522 15.0313 18.7188 14.8345 18.7188 14.5918C18.7188 14.3491 18.522 14.1523 18.2793 14.1523C18.0366 14.1523 17.8398 14.3491 17.8398 14.5918C17.8398 14.8345 18.0366 15.0313 18.2793 15.0313Z" fill="#1499A2"/>
<path d="M19.7637 15.0313C20.0064 15.0313 20.2031 14.8345 20.2031 14.5918C20.2031 14.3491 20.0064 14.1523 19.7637 14.1523C19.521 14.1523 19.3242 14.3491 19.3242 14.5918C19.3242 14.8345 19.521 15.0313 19.7637 15.0313Z" fill="#1499A2"/>
</g>
<defs>
<clipPath id="clip0_923_11394">
<rect width="30" height="30" fill="white"/>
</clipPath>
</defs>
</svg>
