<svg width="21" height="21" viewBox="0 0 21 21" fill="none" xmlns="http://www.w3.org/2000/svg">
<g clip-path="url(#clip0_923_8624)">
<path d="M20.4373 9.85154C20.0359 -3.28821 0.959955 -3.27948 0.5625 9.85154V17.9257H4.45002C7.25324 22.0255 13.7478 22.024 16.5498 17.9257H20.4373V9.85154H20.4373ZM1.80468 16.6836V9.85154C1.80468 5.26583 5.37308 1.49831 9.87883 1.17874V3.0341C9.87883 4.1733 9.06537 5.14799 7.94451 5.35179L5.98684 5.70776C4.28328 6.01748 3.04685 7.49902 3.04685 9.23049V13.5781C3.04685 14.6858 3.29011 15.7376 3.72546 16.6836H1.80468ZM10.4999 19.789C7.07524 19.789 4.28903 17.0028 4.28903 13.5781V9.23049C4.28903 8.0997 5.09653 7.13216 6.20906 6.9299L8.1667 6.57393C9.14652 6.3958 9.97257 5.83185 10.4999 5.05586C11.0272 5.83185 11.8533 6.3958 12.8331 6.57393L14.7908 6.9299C15.9033 7.13221 16.7108 8.09974 16.7108 9.23049V13.5781C16.7108 17.0028 13.9246 19.789 10.4999 19.789ZM19.1952 16.6836H17.2744C17.7097 15.7376 17.953 14.6858 17.953 13.5781V9.23049C17.953 7.49902 16.7166 6.01743 15.013 5.70776L13.0553 5.35179C11.9345 5.14799 11.121 4.17326 11.121 3.03406V1.17878C15.6268 1.49835 19.1952 5.26583 19.1952 9.85158V16.6836Z" fill="#1499A2"/>
<path d="M8.60938 15.7393H12.3359V16.9814H8.60938V15.7393Z" fill="#1499A2"/>
<path d="M8.96067 10.3896V9.14746H5.85522V10.3896H6.77328V11.6318H8.01545V10.3896H8.96067Z" fill="#1499A2"/>
<path d="M12.0391 10.3896H12.9843V11.6318H14.2265V10.3896H15.1445V9.14746H12.0391V10.3896Z" fill="#1499A2"/>
<path d="M9.87891 11.7148H11.1211V13.5781H9.87891V11.7148Z" fill="#1499A2"/>
</g>
<defs>
<clipPath id="clip0_923_8624">
<rect width="21" height="21" fill="white"/>
</clipPath>
</defs>
</svg>
