<svg width="21" height="21" viewBox="0 0 21 21" fill="none" xmlns="http://www.w3.org/2000/svg">
<path d="M12.4492 14.8271C12.1094 14.8271 11.834 15.1026 11.834 15.4424C11.834 16.1774 11.236 16.7754 10.501 16.7754C9.76594 16.7754 9.16797 16.1774 9.16797 15.4424C9.16797 15.1026 8.89251 14.8271 8.55273 14.8271C8.21296 14.8271 7.9375 15.1026 7.9375 15.4424C7.9375 16.8559 9.08746 18.0059 10.501 18.0059C11.9145 18.0059 13.0645 16.8559 13.0645 15.4424C13.0645 15.1026 12.789 14.8271 12.4492 14.8271Z" fill="#1499A2"/>
<path d="M9.19187 12.355C8.95164 12.5953 8.95168 12.9848 9.19191 13.2251C9.55272 13.5859 10.0267 13.7663 10.5006 13.7663C10.9746 13.7663 11.4485 13.5859 11.8094 13.2251C12.0496 12.9848 12.0496 12.5953 11.8094 12.355C11.5691 12.1148 11.1796 12.1148 10.9393 12.355C10.6975 12.5969 10.3038 12.5969 10.0619 12.355C9.82166 12.1147 9.43222 12.1148 9.19187 12.355Z" fill="#1499A2"/>
<path d="M17.6218 2.1436C16.2395 0.761249 14.4015 -4.10139e-05 12.4466 1.65724e-09L8.55498 8.20328e-05C4.51946 0.000164064 1.23633 3.28338 1.23633 7.3189V20.3848C1.23633 20.7245 1.51179 21 1.85156 21H19.1503C19.49 21 19.7655 20.7245 19.7655 20.3848V7.31877C19.7655 5.36381 19.0042 3.5259 17.6218 2.1436ZM8.55498 1.23055L12.4466 1.23047C14.0728 1.23043 15.6018 1.86371 16.7518 3.01366C17.9018 4.16361 18.5351 5.69251 18.5351 7.31881V8.75657C18.341 8.68726 18.1321 8.64923 17.9145 8.64923C17.6969 8.64923 17.4881 8.6873 17.294 8.75657V7.67241C17.294 6.1671 16.0693 4.94241 14.5639 4.94241H6.43796C4.93265 4.94241 3.70792 6.16706 3.70792 7.67241V8.75657C3.5138 8.68726 3.30495 8.64919 3.08732 8.64919C2.86973 8.64919 2.66088 8.68726 2.46679 8.75653V7.3189C2.46684 3.96186 5.19794 1.23063 8.55498 1.23055ZM18.5348 10.5V11.7356C18.5348 12.0777 18.2565 12.356 17.9145 12.356C17.5724 12.356 17.2941 12.0777 17.2941 11.7356V10.5C17.2941 10.158 17.5724 9.87966 17.9145 9.87966C18.2565 9.87966 18.5348 10.158 18.5348 10.5ZM3.70772 10.5V11.7356C3.70772 12.0777 3.42947 12.356 3.0874 12.356C2.74533 12.356 2.46704 12.0777 2.46704 11.7356V10.5C2.46704 10.158 2.74533 9.87966 3.0874 9.87966C3.42947 9.87966 3.70772 10.158 3.70772 10.5ZM2.46684 19.7695V13.4791C2.66096 13.5484 2.86977 13.5864 3.0874 13.5864C3.30503 13.5864 3.51384 13.5484 3.70797 13.4791V14.1762C3.70797 15.9671 4.39424 17.6612 5.64041 18.9464C5.93782 19.2531 6.25897 19.5281 6.59989 19.7695H2.46684ZM10.6275 19.7684C10.5433 19.7699 10.4586 19.7699 10.3743 19.7684C7.37693 19.7138 4.93839 17.2051 4.93839 14.1762V7.67241C4.93839 6.84558 5.61109 6.17288 6.43796 6.17288H14.5639C15.3907 6.17288 16.0635 6.84554 16.0635 7.67241V14.1762C16.0635 17.2051 13.6249 19.7138 10.6275 19.7684ZM14.402 19.7695C14.743 19.5281 15.0641 19.2531 15.3615 18.9464C16.6077 17.6612 17.294 15.9671 17.294 14.1762V13.4791C17.4881 13.5484 17.6969 13.5864 17.9145 13.5864C18.1321 13.5864 18.341 13.5484 18.5351 13.4791V19.7695H14.402Z" fill="#1499A2"/>
<path d="M14.7386 8.71375L12.2674 7.47815C11.9637 7.32623 11.5941 7.4494 11.442 7.75329C11.2901 8.05717 11.4133 8.42676 11.7172 8.57869L12.464 8.95209V10.0869C12.464 10.4266 12.7395 10.7021 13.0792 10.7021C13.419 10.7021 13.6945 10.4266 13.6945 10.0869V9.56733L14.1884 9.81428C14.2767 9.85846 14.3705 9.87937 14.463 9.87937C14.6887 9.87937 14.906 9.75473 15.0138 9.53915C15.1657 9.23526 15.0426 8.86567 14.7386 8.71375Z" fill="#1499A2"/>
<path d="M8.79456 10.0873V9.36524L9.54137 8.99183C9.8453 8.83991 9.96847 8.47032 9.8165 8.16643C9.66458 7.86251 9.29507 7.73926 8.99111 7.8913L6.51991 9.1269C6.21599 9.27882 6.09282 9.64841 6.24478 9.9523C6.35257 10.1679 6.56983 10.2925 6.79554 10.2925C6.88799 10.2925 6.98187 10.2716 7.07018 10.2274L7.56409 9.98047V10.0873C7.56409 10.4271 7.83955 10.7026 8.17932 10.7026C8.5191 10.7026 8.79456 10.4271 8.79456 10.0873Z" fill="#1499A2"/>
</svg>
