<svg width="15" height="24" viewBox="0 0 15 24" fill="none" xmlns="http://www.w3.org/2000/svg">
<path d="M11.0228 5.52258C11.5355 3.85657 11.9199 2.44688 11.9199 2.44688C12.1762 1.61388 11.6636 0.780872 10.8947 0.524563C10.1258 0.268254 9.29276 0.716791 9.03645 1.42164" stroke="#1499A2" stroke-width="0.9" stroke-miterlimit="10" stroke-linecap="round"/>
<path d="M12.6264 11.3538C12.6264 11.3538 12.0497 9.81592 11.7934 8.91884C11.0886 6.41982 9.99926 2.51111 9.99926 2.51111C9.74295 1.67811 8.90995 1.22956 8.07694 1.42179C7.24394 1.6781 6.79539 2.5111 6.98763 3.34411C6.98763 3.34411 8.07694 7.18875 8.71771 9.49553" stroke="#1499A2" stroke-width="0.9" stroke-miterlimit="10" stroke-linecap="round"/>
<path d="M6.85935 10.7142V7.76659C6.85935 6.93359 6.1545 6.22874 5.3215 6.22874H5.19335C4.36034 6.22874 3.65549 6.93359 3.65549 7.76659V11.0986C3.65549 11.9316 4.36034 12.6365 5.19335 12.6365H5.25742C5.57781 12.6365 5.96227 12.5083 6.21858 12.3161" stroke="#1499A2" stroke-width="0.9" stroke-miterlimit="10" stroke-linecap="round"/>
<path d="M0.451504 8.40544V11.0967C0.451504 11.9297 1.15635 12.6345 1.98936 12.6345H2.11751C2.95052 12.6345 3.65537 11.9297 3.65537 11.0967V8.40544C3.65537 7.57243 2.95052 6.86759 2.11751 6.86759H1.98936C1.15635 6.86759 0.451504 7.57243 0.451504 8.40544Z" stroke="#1499A2" stroke-width="0.9" stroke-miterlimit="10" stroke-linecap="round"/>
<path d="M1.79911 20.7076C1.35057 19.8105 1.09426 18.7853 1.09426 17.76V12.6339" stroke="#1499A2" stroke-width="0.9" stroke-miterlimit="10" stroke-linecap="round"/>
<path d="M13.7137 20.8366C14.2264 19.8755 14.5467 18.7221 14.5467 17.5687V13.9163C14.5467 12.5066 13.3934 11.3532 11.9837 11.3532H6.2167V12.0581C6.2167 13.0833 7.04971 13.9163 8.07494 13.9163H10.7021V15.8386H8.13902C6.72932 15.8386 5.57593 16.992 5.57593 18.4017" stroke="#1499A2" stroke-width="0.9" stroke-miterlimit="10" stroke-linecap="round"/>
<path d="M14.5485 23.5284V20.9653H0.451504V23.5284" stroke="#1499A2" stroke-width="0.9" stroke-miterlimit="10" stroke-linecap="round"/>
</svg>
