<svg width="21" height="22" viewBox="0 0 21 22" fill="none" xmlns="http://www.w3.org/2000/svg">
<path d="M15.9958 7.66997H9.33377C8.1124 7.66997 7.1131 6.67067 7.1131 5.44929" stroke="#1499A2" stroke-width="0.9" stroke-miterlimit="10" stroke-linecap="round" stroke-linejoin="round"/>
<path d="M4.89404 7.66933V10.4452C4.89404 13.4986 7.3923 15.9969 10.4457 15.9969C13.4992 15.9969 15.9974 13.4986 15.9974 10.4452V7.66933" stroke="#1499A2" stroke-width="0.9" stroke-miterlimit="10" stroke-linecap="round" stroke-linejoin="round"/>
<path d="M6.61462 17.218C7.61392 18.1618 8.94632 18.7725 10.4453 18.7725C11.9442 18.7725 13.2766 18.1618 14.2759 17.218" stroke="#1499A2" stroke-width="0.9" stroke-miterlimit="10" stroke-linecap="round" stroke-linejoin="round"/>
<path d="M12.9968 12.1665C12.3306 12.8327 11.4423 13.2768 10.443 13.2768C9.38822 13.2768 8.38891 12.7772 7.77822 12.0554" stroke="#1499A2" stroke-width="0.9" stroke-miterlimit="10" stroke-linecap="round" stroke-linejoin="round"/>
<path d="M7.11403 14.8857V16.0515C7.11403 16.9398 6.39232 17.6615 5.50405 17.6615H3.78302C1.95096 17.6615 0.452003 19.1605 0.452003 20.9925" stroke="#1499A2" stroke-width="0.9" stroke-miterlimit="10" stroke-linecap="round" stroke-linejoin="round"/>
<path d="M20.44 20.9925C20.44 19.1605 18.9411 17.6615 17.109 17.6615H15.388C14.4997 17.6615 13.778 16.9398 13.778 16.0515V14.8857" stroke="#1499A2" stroke-width="0.9" stroke-miterlimit="10" stroke-linecap="round" stroke-linejoin="round"/>
<path d="M10.4463 18.772V21.5478" stroke="#1499A2" stroke-width="0.9" stroke-miterlimit="10" stroke-linecap="round" stroke-linejoin="round"/>
<path d="M7.1125 15.9967H5.7801C4.39217 15.9967 3.22631 14.8309 3.22631 13.443V7.6692C3.22631 3.67199 6.4463 0.452003 10.4435 0.452003C14.4407 0.452003 17.6607 3.67199 17.6607 7.6692V13.443C17.6607 14.8309 16.4949 15.9967 15.1069 15.9967H13.7745" stroke="#1499A2" stroke-width="0.9" stroke-miterlimit="10" stroke-linecap="round" stroke-linejoin="round"/>
</svg>
