<svg width="21" height="21" viewBox="0 0 21 21" fill="none" xmlns="http://www.w3.org/2000/svg">
<g clip-path="url(#clip0_923_11427)">
<path d="M19.1492 8.64917C18.9316 8.64917 18.7229 8.68719 18.5288 8.75647V8.02881C18.5288 3.60171 14.9271 0 10.5 0C6.0729 0 2.47119 3.60171 2.47119 8.02881V8.75647C2.27715 8.68723 2.06838 8.64917 1.85083 8.64917C0.830279 8.64917 0 9.47945 0 10.5V11.7356C0 12.7561 0.830279 13.5864 1.85083 13.5864C2.07441 13.5864 2.28879 13.5466 2.48739 13.4736C2.74764 17.6675 6.24168 21 10.5 21C14.7583 21 18.2524 17.6675 18.5126 13.4736C18.7112 13.5466 18.9256 13.5864 19.1492 13.5864C20.1697 13.5864 21 12.7561 21 11.7356V10.5C21 9.47945 20.1697 8.64917 19.1492 8.64917ZM10.5 1.23047C13.6636 1.23047 16.3295 3.40262 17.0844 6.33384C16.0083 6.09222 14.2416 5.48703 13.5215 4.04689C13.4173 3.83845 13.2042 3.70679 12.9712 3.70679C12.7381 3.70679 12.5251 3.83845 12.4209 4.04689C12.2311 4.42637 11.3695 5.37895 7.47604 6.02675C6.07683 6.25956 4.72172 6.37809 3.89087 6.43465C4.61024 3.45265 7.30029 1.23047 10.5 1.23047ZM1.85083 12.356C1.50876 12.356 1.23047 12.0777 1.23047 11.7356V10.5C1.23047 10.1579 1.50876 9.87964 1.85083 9.87964C2.1929 9.87964 2.47119 10.1579 2.47119 10.5V11.7356C2.47119 12.0777 2.1929 12.356 1.85083 12.356ZM17.2983 12.9712C17.2983 16.7198 14.2486 19.7695 10.5 19.7695C6.75138 19.7695 3.70166 16.7198 3.70166 12.9712V8.02881C3.70166 7.91183 3.70465 7.79555 3.71052 7.68001C4.52181 7.63083 6.04796 7.51107 7.66623 7.2425C10.2494 6.81376 11.9817 6.19602 12.9142 5.3662C14.1551 6.91679 16.2682 7.45521 17.2864 7.63063C17.2941 7.76245 17.2984 7.8951 17.2984 8.02881V12.9712H17.2983ZM19.7695 11.7356C19.7695 12.0777 19.4912 12.356 19.1492 12.356C18.8071 12.356 18.5288 12.0777 18.5288 11.7356V10.5C18.5288 10.1579 18.8071 9.87964 19.1492 9.87964C19.4912 9.87964 19.7695 10.1579 19.7695 10.5V11.7356Z" fill="#1499A2"/>
<path d="M14.2075 8.64941C13.8677 8.64941 13.5923 8.92487 13.5923 9.26465C13.5923 9.60672 13.314 9.88501 12.9719 9.88501C12.6299 9.88501 12.3516 9.60672 12.3516 9.26465C12.3516 8.92487 12.0761 8.64941 11.7363 8.64941C11.3966 8.64941 11.1211 8.92487 11.1211 9.26465C11.1211 10.2852 11.9514 11.1155 12.9719 11.1155C13.9925 11.1155 14.8228 10.2852 14.8228 9.26465C14.8228 8.92487 14.5473 8.64941 14.2075 8.64941Z" fill="#1499A2"/>
<path d="M9.1919 12.355C8.95163 12.5953 8.95167 12.9848 9.19194 13.2251C9.55276 13.5859 10.0267 13.7663 10.5007 13.7663C10.9746 13.7663 11.4486 13.5859 11.8094 13.2251C12.0497 12.9848 12.0497 12.5953 11.8094 12.355C11.5691 12.1147 11.1796 12.1147 10.9393 12.355C10.6975 12.5969 10.3039 12.5969 10.062 12.355C9.82174 12.1147 9.43217 12.1148 9.1919 12.355Z" fill="#1499A2"/>
<path d="M9.87939 9.26465C9.87939 8.92487 9.60393 8.64941 9.26416 8.64941C8.92439 8.64941 8.64893 8.92487 8.64893 9.26465C8.64893 9.60672 8.37063 9.88501 8.02856 9.88501C7.68649 9.88501 7.4082 9.60672 7.4082 9.26465C7.4082 8.92487 7.13274 8.64941 6.79297 8.64941C6.4532 8.64941 6.17773 8.92487 6.17773 9.26465C6.17773 10.2852 7.00801 11.1155 8.02856 11.1155C9.04912 11.1155 9.87939 10.2852 9.87939 9.26465Z" fill="#1499A2"/>
<path d="M12.0629 17.0568L12.3613 16.6949C12.5708 16.4408 12.5238 16.0734 12.2563 15.8744C11.9888 15.6753 11.6021 15.72 11.3926 15.9741L11.0942 16.3359C11.0762 16.3578 11.0523 16.3681 11.0231 16.3666C10.9939 16.3651 10.9713 16.3523 10.9559 16.3286L10.9057 16.2514C10.7931 16.0782 10.5938 15.9732 10.3795 15.9741C10.1653 15.975 9.96694 16.0817 9.85599 16.2558C9.85013 16.2649 9.83237 16.2928 9.78676 16.2944C9.74123 16.2959 9.72138 16.2693 9.71486 16.2606L9.51807 15.9967C9.32168 15.7332 8.9377 15.671 8.66043 15.8576C8.49112 15.9715 8.40076 16.1519 8.40076 16.335C8.40076 16.4518 8.43751 16.5698 8.514 16.6723L8.7108 16.9362C8.9678 17.281 9.38653 17.4777 9.83093 17.4626C10.0086 17.4565 10.1796 17.417 10.3357 17.3485C10.52 17.4569 10.7322 17.5219 10.9546 17.5337C11.3837 17.5564 11.798 17.3781 12.0629 17.0568Z" fill="#1499A2"/>
</g>
<defs>
<clipPath id="clip0_923_11427">
<rect width="21" height="21" fill="white"/>
</clipPath>
</defs>
</svg>
