<svg width="19" height="22" viewBox="0 0 19 22" fill="none" xmlns="http://www.w3.org/2000/svg">
<path d="M12.5246 1.09954C11.7044 0.74799 10.8841 0.572214 10.1224 0.455032C9.41932 0.396441 9.00919 1.27531 9.59509 1.74404C11.0599 2.97445 11.8801 4.90795 11.5286 7.01722C11.1185 9.30227 9.30213 11.1186 7.01709 11.5287C4.90782 11.8803 2.97432 11.06 1.74391 9.59522C1.27518 9.00931 0.396318 9.41944 0.454909 10.1225C0.5135 10.8842 0.747867 11.7045 1.09941 12.5248C2.38841 15.5129 5.20078 17.6808 8.42328 17.9737C13.9308 18.4424 18.5009 13.8724 17.9736 8.4234C17.7392 5.2009 15.5128 2.38854 12.5246 1.09954Z" stroke="#1499A2" stroke-width="0.9" stroke-miterlimit="10" stroke-linecap="round" stroke-linejoin="round"/>
<path d="M6.02056 6.90016C6.82953 6.90016 7.48533 6.24436 7.48533 5.43539C7.48533 4.62642 6.82953 3.97061 6.02056 3.97061C5.21158 3.97061 4.55578 4.62642 4.55578 5.43539C4.55578 6.24436 5.21158 6.90016 6.02056 6.90016Z" stroke="#1499A2" stroke-width="0.9" stroke-miterlimit="10" stroke-linecap="round" stroke-linejoin="round"/>
<path d="M5.7276 0.455186H4.55578" stroke="#1499A2" stroke-width="0.9" stroke-miterlimit="10" stroke-linecap="round" stroke-linejoin="round"/>
<path d="M1.6262 5.72808H1.04029" stroke="#1499A2" stroke-width="0.9" stroke-miterlimit="10" stroke-linecap="round" stroke-linejoin="round"/>
<path d="M16.8598 19.2041H16.2739" stroke="#1499A2" stroke-width="0.9" stroke-miterlimit="10" stroke-linecap="round" stroke-linejoin="round"/>
<path d="M10.4148 21.5478H9.24302" stroke="#1499A2" stroke-width="0.9" stroke-miterlimit="10" stroke-linecap="round" stroke-linejoin="round"/>
</svg>
