<svg width="26" height="18" viewBox="0 0 26 18" fill="none" xmlns="http://www.w3.org/2000/svg">
<path d="M7.29029 17.5474V16.9775C7.29029 15.667 5.58083 15.2681 3.87137 15.2681C2.16191 15.2681 0.452455 15.667 0.452455 16.9775V17.5474" stroke="#1499A2" stroke-width="0.9" stroke-linecap="round" stroke-linejoin="round"/>
<path d="M2.16187 11.2795C2.16187 10.3108 2.90263 9.57005 3.87133 9.57005C4.84002 9.57005 5.58079 10.3108 5.58079 11.2795V11.8493C5.58079 12.818 4.84002 13.5588 3.87133 13.5588C2.90263 13.5588 2.16187 12.818 2.16187 11.8493V11.2795Z" stroke="#1499A2" stroke-width="0.9" stroke-linecap="round" stroke-linejoin="round"/>
<path d="M16.4074 17.5474V16.9775C16.4074 15.667 14.6979 15.2681 12.9885 15.2681C11.279 15.2681 9.56956 15.667 9.56956 16.9775V17.5474" stroke="#1499A2" stroke-width="0.9" stroke-linecap="round" stroke-linejoin="round"/>
<path d="M11.2791 11.2795C11.2791 10.3108 12.0199 9.57005 12.9886 9.57005C13.9572 9.57005 14.698 10.3108 14.698 11.2795V11.8493C14.698 12.818 13.9572 13.5588 12.9886 13.5588C12.0199 13.5588 11.2791 12.818 11.2791 11.8493V11.2795Z" stroke="#1499A2" stroke-width="0.9" stroke-linecap="round" stroke-linejoin="round"/>
<path d="M11.279 7.8602C11.279 6.54961 9.56958 6.15074 7.86012 6.15074C6.15066 6.15074 4.4412 6.54961 4.4412 7.8602" stroke="#1499A2" stroke-width="0.9" stroke-linecap="round" stroke-linejoin="round"/>
<path d="M6.15061 2.16216C6.15061 1.19347 6.89138 0.4527 7.86007 0.4527C8.82877 0.4527 9.56953 1.19347 9.56953 2.16216V2.73198C9.56953 3.70067 8.82877 4.44144 7.86007 4.44144C6.89138 4.44144 6.15061 3.70067 6.15061 2.73198V2.16216Z" stroke="#1499A2" stroke-width="0.9" stroke-linecap="round" stroke-linejoin="round"/>
<path d="M25.5245 17.5474V16.9775C25.5245 15.667 23.815 15.2681 22.1056 15.2681C20.3961 15.2681 18.6867 15.667 18.6867 16.9775V17.5474" stroke="#1499A2" stroke-width="0.9" stroke-linecap="round" stroke-linejoin="round"/>
<path d="M20.3962 11.2795C20.3962 10.3108 21.137 9.57005 22.1057 9.57005C23.0743 9.57005 23.8151 10.3108 23.8151 11.2795V11.8493C23.8151 12.818 23.0743 13.5588 22.1057 13.5588C21.137 13.5588 20.3962 12.818 20.3962 11.8493V11.2795Z" stroke="#1499A2" stroke-width="0.9" stroke-linecap="round" stroke-linejoin="round"/>
<path d="M21.5358 7.8602C21.5358 6.54961 19.8263 6.15074 18.1168 6.15074C16.4074 6.15074 14.6979 6.54961 14.6979 7.8602" stroke="#1499A2" stroke-width="0.9" stroke-linecap="round" stroke-linejoin="round"/>
<path d="M16.4074 2.16216C16.4074 1.19347 17.1482 0.4527 18.1169 0.4527C19.0856 0.4527 19.8264 1.19347 19.8264 2.16216V2.73198C19.8264 3.70067 19.0856 4.44144 18.1169 4.44144C17.1482 4.44144 16.4074 3.70067 16.4074 2.73198V2.16216Z" stroke="#1499A2" stroke-width="0.9" stroke-linecap="round" stroke-linejoin="round"/>
</svg>
