<svg width="15" height="21" viewBox="0 0 15 21" fill="none" xmlns="http://www.w3.org/2000/svg">
<path d="M12.303 11.0857C12.2691 11.0857 12.2521 11.0857 12.2182 11.0688C12.0318 11.018 11.9131 10.8315 11.947 10.6451C12.6081 7.7471 11.0996 5.05246 10.2521 3.83224C9.91315 5.47614 8.67587 6.32351 8.60808 6.35741C8.50638 6.4252 8.37079 6.44215 8.2691 6.37436C8.15045 6.32351 8.08266 6.20488 8.06571 6.08625C7.86233 3.7475 6.76063 2.35781 5.79453 1.56128C6.3708 2.62897 6.74368 4.17119 5.64198 5.86593C5.50639 6.08625 5.35385 6.30657 5.20131 6.52688C4.26911 7.93352 3.38776 9.25542 3.25216 10.6282C3.23522 10.8146 3.06572 10.9671 2.86233 10.9502C2.67589 10.9332 2.52334 10.7637 2.54029 10.5604C2.69283 9.01815 3.6081 7.61152 4.59115 6.13709C4.74369 5.91678 4.87928 5.69646 5.03182 5.47614C6.72673 2.86623 4.28606 0.696964 4.18437 0.612226C4.06572 0.493594 4.03182 0.324119 4.11656 0.171592C4.20131 0.019065 4.3708 -0.0317763 4.54029 0.019066C4.57419 0.0360135 7.99791 1.25623 8.67588 5.35751C9.09961 4.89993 9.64197 4.08645 9.62502 2.90013C9.62502 2.7476 9.70978 2.61202 9.84537 2.56118C9.98096 2.51034 10.1335 2.54423 10.2352 2.64592C10.3708 2.79845 13.6081 6.50994 12.625 10.7807C12.6081 10.9671 12.4725 11.0857 12.303 11.0857Z" fill="#1499A2"/>
<path d="M6.33707 12.9502C6.13368 12.9502 5.98114 12.7807 5.98114 12.5943C6.03199 11.2724 6.55741 9.89964 7.57436 8.50995C7.64216 8.42522 7.74385 8.37437 7.84554 8.35742C7.96419 8.35742 8.06587 8.40827 8.13367 8.493C8.18452 8.56079 9.47266 10.2386 9.42182 12.2892C9.42182 12.4757 9.25231 12.6282 9.06587 12.6282C8.87943 12.6282 8.72689 12.4587 8.72689 12.2723C8.76078 11.0351 8.20147 9.91659 7.86249 9.34038C7.13367 10.4589 6.74384 11.5605 6.69299 12.6112C6.67605 12.8146 6.52351 12.9502 6.33707 12.9502Z" fill="#1499A2"/>
<path d="M12.8284 20.9998C12.659 20.9998 12.4725 20.9659 12.303 20.8981L0.811526 16.0173C0.489493 15.8817 0.235264 15.6275 0.0996715 15.2885C-0.0359213 14.9665 -0.0359255 14.5937 0.116616 14.2717L0.675925 12.9667C0.811517 12.6447 1.06576 12.3905 1.40474 12.2549C1.72678 12.1194 2.09966 12.1194 2.42169 12.2719L13.9132 17.1527C14.5912 17.4409 14.9132 18.2204 14.625 18.8983L14.0657 20.2033C13.8454 20.6948 13.3539 20.9998 12.8284 20.9998ZM1.89627 12.8311C1.81153 12.8311 1.74373 12.8481 1.65898 12.882C1.50644 12.9498 1.3878 13.0684 1.32 13.2209L0.76067 14.5259C0.692874 14.6784 0.692874 14.8479 0.76067 15.0004C0.828466 15.1529 0.94711 15.2716 1.09965 15.3394L12.5912 20.2202C12.7437 20.288 12.9132 20.288 13.0827 20.2202C13.2352 20.1524 13.3539 20.0338 13.4217 19.8813L13.981 18.5763C14.1166 18.2543 13.964 17.8815 13.642 17.7459L2.15051 12.865C2.06576 12.8481 1.98102 12.8311 1.89627 12.8311Z" fill="#1499A2"/>
<path d="M11.693 16.9155C11.6422 16.9155 11.5913 16.8986 11.5574 16.8816L7.23542 15.0344C7.09983 14.9835 7.01508 14.8479 7.01508 14.7124C7.01508 14.5768 7.09983 14.4412 7.23542 14.3904L12.3202 12.2211C12.6422 12.0855 13.0151 12.0855 13.3371 12.2041C13.6591 12.3397 13.9303 12.5939 14.0659 12.9159L14.6252 14.2209C14.7608 14.5429 14.7608 14.9157 14.6422 15.2377C14.5066 15.5597 14.2524 15.8309 13.9303 15.9665L11.8456 16.8478C11.7947 16.8986 11.7439 16.9155 11.693 16.9155ZM8.26931 14.7124L11.693 16.1699L13.6422 15.3394C13.7947 15.2716 13.9134 15.153 13.9812 15.0005C14.0489 14.8479 14.0489 14.6785 13.9812 14.526L13.4218 13.221C13.354 13.0685 13.2354 12.9498 13.0829 12.882C12.9303 12.8143 12.7608 12.8143 12.5913 12.882L8.26931 14.7124Z" fill="#1499A2"/>
<path d="M1.9132 21.0002C1.38777 21.0002 0.896242 20.6951 0.675903 20.1867L0.116595 18.8818C-0.17154 18.2039 0.150485 17.4243 0.828449 17.1362L2.9132 16.2549C2.99794 16.221 3.09963 16.221 3.18438 16.2549L7.5064 18.1022C7.64199 18.153 7.72675 18.2886 7.72675 18.4242C7.72675 18.5598 7.64199 18.6953 7.5064 18.7462L2.42167 20.9155C2.25218 20.9663 2.08269 21.0002 1.9132 21.0002ZM3.03183 16.9498L1.08269 17.7802C0.760653 17.9158 0.608111 18.2886 0.743704 18.6106L1.30303 19.9156C1.43863 20.2376 1.81151 20.3901 2.13354 20.2545L6.45556 18.4242L3.03183 16.9498Z" fill="#1499A2"/>
<path d="M4.40457 16.0515C4.35372 16.0515 4.31984 16.0346 4.26899 16.0176L1.87917 15.0177C1.69273 14.9499 1.60797 14.7296 1.69271 14.5601C1.77746 14.3907 1.98086 14.289 2.15035 14.3737L4.54017 15.3736C4.72661 15.4414 4.81135 15.6617 4.72661 15.8312C4.67576 15.9668 4.55711 16.0515 4.40457 16.0515Z" fill="#1499A2"/>
<path d="M10.9977 17.9662C10.9638 17.9662 10.913 17.9662 10.8791 17.9492L7.84516 16.7798C7.65872 16.7121 7.57399 16.5087 7.64178 16.3223C7.70958 16.1358 7.91296 16.0511 8.0994 16.1189L11.1333 17.2883C11.3197 17.3561 11.4045 17.5594 11.3367 17.7459C11.2689 17.8814 11.1333 17.9662 10.9977 17.9662Z" fill="#1499A2"/>
<path d="M0.726606 19.7627C0.591013 19.7627 0.455417 19.6779 0.404569 19.5423C0.336773 19.3559 0.421514 19.1525 0.591005 19.0848L2.86219 18.1357C3.04863 18.0679 3.25203 18.1527 3.31983 18.3221C3.38762 18.5085 3.30286 18.7119 3.13337 18.7797L0.862207 19.7288C0.81136 19.7457 0.777454 19.7627 0.726606 19.7627Z" fill="#1499A2"/>
</svg>
