<svg width="15" height="30" viewBox="0 0 15 30" fill="none" xmlns="http://www.w3.org/2000/svg">
<path d="M10.7683 15.0062C10.7432 15.0134 10.7183 15.0208 10.6935 15.0283C9.55703 15.3719 8.74062 15.9766 8.1919 17.0729C7.88026 17.6955 7.66014 18.4673 7.50048 19.4194C7.34077 18.4635 7.12042 17.6889 6.80824 17.0642C6.25966 15.9664 5.44322 15.3606 4.30603 15.018C4.28009 15.0102 4.25397 15.0025 4.22767 14.995C4.25414 14.9874 4.28041 14.9796 4.30651 14.9717C5.44297 14.6281 6.25938 14.0234 6.8081 12.9271C7.12256 12.2989 7.34384 11.5188 7.50383 10.5547C7.66389 11.5271 7.8852 12.3129 8.20039 12.9445C8.74759 14.0411 9.56218 14.6448 10.6978 14.9855C10.7212 14.9925 10.7446 14.9994 10.7683 15.0062Z" stroke="#3B3B4A" stroke-miterlimit="10"/>
</svg>
