<svg width="29" height="25" viewBox="0 0 29 25" fill="none" xmlns="http://www.w3.org/2000/svg">
<path d="M22.6115 13.6677V17.294C22.2892 17.4551 21.8863 17.6969 21.4833 17.858C20.9998 18.0998 20.5163 18.261 19.8717 18.4221C19.5493 18.5027 19.2269 18.5833 18.9046 18.5833V17.5357C18.9046 16.9716 18.4212 16.4076 17.7765 16.4076H13.5861L9.7987 13.1036H7.70355C7.9453 10.7667 9.87927 8.99384 12.2968 8.99384H18.0182C19.3075 8.99384 20.4357 9.47735 21.2415 10.3638C22.128 11.2502 22.6115 12.3784 22.6115 13.6677Z" stroke="#1499A2" stroke-width="0.9" stroke-miterlimit="10" stroke-linecap="round" stroke-linejoin="round"/>
<path d="M19.9514 18.4242V14.4756" stroke="#1499A2" stroke-width="0.9" stroke-miterlimit="10" stroke-linecap="round" stroke-linejoin="round"/>
<path d="M15.1967 7.70453C17.1994 7.70453 18.8229 6.08099 18.8229 4.07826C18.8229 2.07553 17.1994 0.451996 15.1967 0.451996C13.1939 0.451996 11.5704 2.07553 11.5704 4.07826C11.5704 6.08099 13.1939 7.70453 15.1967 7.70453Z" stroke="#1499A2" stroke-width="0.9" stroke-miterlimit="10" stroke-linecap="round" stroke-linejoin="round"/>
<path d="M13.9098 9.07228H16.4884L16.0855 11.1675H14.3127L13.9098 9.07228Z" stroke="#1499A2" stroke-width="0.9" stroke-miterlimit="10" stroke-linecap="round" stroke-linejoin="round"/>
<path d="M16.5673 16.4861H13.8274L14.3109 11.1675H16.0837L16.5673 16.4861Z" stroke="#1499A2" stroke-width="0.9" stroke-miterlimit="10" stroke-linecap="round" stroke-linejoin="round"/>
<path d="M4.15858 11.2519H0.451751V24.5482H4.15858V11.2519Z" stroke="#1499A2" stroke-width="0.9" stroke-miterlimit="10" stroke-linecap="round" stroke-linejoin="round"/>
<path d="M22.9435 21.1621C20.2037 22.7738 18.1891 23.4185 14.8851 23.4185C11.6618 23.4185 9.16369 21.4845 7.6326 21.0816C6.10151 20.7592 4.24813 20.7592 4.24813 20.7592V13.1844H9.08315C9.64723 13.1844 10.1308 13.3455 10.5337 13.7484L13.6764 16.4883H17.8668C18.4309 16.4883 18.995 16.9718 18.995 17.6165V18.664C19.3173 18.5835 19.7202 18.5835 19.9619 18.5029C20.526 18.3417 21.0901 18.1806 21.5736 17.9388C21.9765 17.697 22.2989 17.5359 22.7018 17.3747C25.1999 15.9242 26.7309 14.7155 27.7785 16.0854C28.8261 17.6165 25.6833 19.5505 22.9435 21.1621Z" stroke="#1499A2" stroke-width="0.9" stroke-miterlimit="10" stroke-linecap="round" stroke-linejoin="round"/>
<path d="M10.68 18.5034C10.68 18.5034 15.4345 19.1481 18.9802 18.6646" stroke="#1499A2" stroke-width="0.9" stroke-miterlimit="10" stroke-linecap="round" stroke-linejoin="round"/>
</svg>
