<svg width="30" height="30" viewBox="0 0 30 30" fill="none" xmlns="http://www.w3.org/2000/svg">
<g clip-path="url(#clip0_923_8641)">
<path d="M11.55 26.1768H9.5332C9.29045 26.1768 9.09375 26.3735 9.09375 26.6162C9.09375 26.859 9.29045 27.0557 9.5332 27.0557H11.55C11.7928 27.0557 11.9895 26.859 11.9895 26.6162C11.9895 26.3735 11.7928 26.1768 11.55 26.1768Z" fill="#1499A2"/>
<path d="M5.40684 21.1455H4.84199C3.37437 21.1455 2.14266 22.1976 1.91315 23.6471L0.98788 29.4918C0.94997 29.7315 1.11357 29.9566 1.35322 29.9946C1.37648 29.9982 1.39962 30 1.42248 30C1.63494 30 1.82174 29.8456 1.85602 29.6292L2.78128 23.7846C2.94271 22.7647 3.80938 22.0244 4.84199 22.0244H5.40684C5.6496 22.0244 5.8463 21.8277 5.8463 21.585C5.8463 21.3422 5.64954 21.1455 5.40684 21.1455Z" fill="#1499A2"/>
<path d="M29.014 29.4918L28.0888 23.6472C27.8592 22.1976 26.6275 21.1455 25.1599 21.1455H18.0978L18.1017 19.8901C19.0938 19.7912 20.0137 19.3568 20.7282 18.6423C21.5469 17.8236 21.9977 16.735 21.9977 15.5771V15.0907C23.0545 15.0423 23.9383 14.321 24.2304 13.3463C24.526 13.291 24.7983 13.1888 25.043 13.0399C25.5287 12.7428 25.8526 12.2953 25.9795 11.7457C26.1608 10.9611 25.924 10.0772 25.6021 9.41381C26.1454 9.10958 26.9522 8.46551 26.8781 7.34812C26.79 6.02547 25.8576 4.64463 24.4673 3.7394C24.6623 3.25952 24.8594 2.41927 24.3871 1.54416C24.0811 0.977381 22.9786 0.290713 20.8016 0.0634252C19.6472 -0.0572793 17.3816 -0.106264 15.0009 0.880056C12.6203 -0.106264 10.3547 -0.0571035 9.20019 0.0634252C7.02317 0.290772 5.9206 0.97744 5.61474 1.54416C5.14235 2.41927 5.33946 3.25946 5.53452 3.7394C4.1442 4.64463 3.21184 6.02547 3.12366 7.34829C3.04959 8.46563 3.85644 9.10958 4.39973 9.41381C4.07775 10.0772 3.84097 10.9611 4.02226 11.7457C4.2066 12.5611 4.88377 13.1787 5.77142 13.3463C6.06352 14.321 6.94735 15.0423 8.00416 15.0907V15.5771C8.00416 17.8194 9.71547 19.6695 11.9003 19.8899L11.9045 21.1455H7.46222C7.21947 21.1455 7.02276 21.3422 7.02276 21.585V29.5605C7.02276 29.8033 7.21947 30 7.46222 30C7.70498 30 7.90168 29.8033 7.90168 29.5605V22.0244H22.1002V29.5605C22.1002 29.8033 22.2969 30 22.5396 30C22.7824 30 22.9791 29.8033 22.9791 29.5605V22.0244H25.1599C26.1925 22.0244 27.0592 22.7647 27.2206 23.7846L28.1459 29.6292C28.1802 29.8457 28.367 30 28.5794 30C28.6023 30 28.6254 29.9983 28.6487 29.9946C28.8884 29.9566 29.052 29.7315 29.014 29.4918ZM21.9977 14.2106V11.0788C22.8678 11.1414 23.5848 11.9682 23.4349 12.8906C23.3223 13.6033 22.7285 14.1583 21.9977 14.2106ZM6.56702 12.8912C6.55917 12.8389 6.55366 12.803 6.54733 12.6446C6.54733 11.8171 7.19111 11.1369 8.0041 11.0787V14.2106C7.27355 14.1583 6.67993 13.6037 6.56702 12.8912ZM8.88308 15.5771L8.88314 11.0238C9.98565 10.79 10.4323 9.80527 10.5562 9.03722C13.1173 9.03634 14.5291 7.55367 15.2963 5.96998H17.485C17.7533 6.83612 18.5618 7.46701 19.515 7.46701C20.6866 7.46701 21.6397 6.51385 21.6397 5.34225C21.6397 4.7457 21.146 3.59895 20.1724 1.93388C20.0343 1.69762 19.7885 1.55659 19.515 1.55659C19.2415 1.55659 18.9957 1.69762 18.8576 1.93388C18.0064 3.38965 17.5221 4.4491 17.4138 5.09106H15.0098C14.8313 5.08819 14.643 5.2028 14.584 5.39194C14.5814 5.39944 14.3282 6.14658 13.6564 6.86782C12.7641 7.82584 11.5981 8.25405 10.1904 8.14113C10.0687 8.13106 9.94798 8.17354 9.85786 8.25627C9.7678 8.33901 9.71629 8.45631 9.71577 8.57866C9.69813 9.56603 9.11476 10.3197 8.11743 10.1958C6.84481 10.1958 5.79621 11.1717 5.67966 12.4144C5.36882 12.3235 4.9511 11.9586 4.87868 11.5478C4.72645 10.8892 5.03337 9.99928 5.38288 9.45125C5.45519 9.33781 5.47083 9.1973 5.42665 9.07027C5.38241 8.94323 5.28169 8.84315 5.1546 8.79909C5.15126 8.79792 4.81891 8.6812 4.50947 8.43165C4.14109 8.13445 3.97462 7.79906 4.00058 7.40665C4.0757 6.27941 5.00911 5.02649 6.32315 4.2889C6.42897 4.22949 6.50479 4.12794 6.53391 4.01011C6.56309 3.89234 6.54153 3.76665 6.47561 3.66476C6.45323 3.63013 5.93215 2.80658 6.38813 1.96171C6.5594 1.64448 7.57338 1.11701 9.29154 0.937537C10.3885 0.823102 12.566 0.777633 14.8257 1.76044C14.9375 1.80907 15.0644 1.80907 15.1762 1.76044C17.4359 0.777574 19.6135 0.822985 20.7104 0.937537C22.4285 1.11695 23.4425 1.64442 23.6138 1.96171C24.0698 2.80658 23.5487 3.63018 23.5277 3.66265C23.4601 3.76448 23.4379 3.88987 23.4666 4.0087C23.4952 4.12748 23.5721 4.22908 23.6787 4.28884C24.9927 5.02643 25.9261 6.27936 26.0013 7.40642C26.0648 8.36608 24.897 8.78186 24.8488 8.79856C24.7208 8.84181 24.6199 8.94153 24.575 9.06898C24.5301 9.19636 24.5464 9.33734 24.619 9.45119C24.9686 9.99928 25.2755 10.8891 25.1232 11.5478C25.0201 11.9281 24.7815 12.2492 24.3222 12.4142C24.2092 11.2087 23.2188 10.2545 21.9977 10.1986V8.65641C21.9977 8.57661 21.995 8.49592 21.9897 8.4167C21.9736 8.17447 21.7631 7.99102 21.5221 8.00742C21.2799 8.02354 21.0966 8.23295 21.1128 8.47506C21.1168 8.53495 21.1188 8.59594 21.1188 8.65641V15.577C21.1188 16.5002 20.7594 17.3681 20.1067 18.0207C19.4541 18.6734 18.5864 19.0328 17.6636 19.0328C17.4214 19.0328 17.2249 19.2288 17.2241 19.471L17.219 21.1452H12.7835L12.7779 19.4708C12.7771 19.2287 12.5806 19.0328 12.3385 19.0328C10.4331 19.033 8.88308 17.4827 8.88308 15.5771ZM18.2691 5.34225C18.2691 5.03393 18.5989 4.1413 19.5149 2.55205C20.4311 4.14119 20.7608 5.03387 20.7608 5.34225C20.7608 6.02922 20.2019 6.58809 19.5149 6.58809C18.828 6.58809 18.2691 6.02922 18.2691 5.34225Z" fill="#1499A2"/>
<path d="M12.5667 13.0369C12.6728 12.8186 12.5819 12.5557 12.3635 12.4496C12.145 12.3434 11.8822 12.4345 11.7762 12.6528C11.6612 12.8895 11.4262 13.0366 11.1629 13.0366C10.8996 13.0366 10.6647 12.8895 10.5497 12.6528C10.4435 12.4345 10.1806 12.3435 9.96231 12.4496C9.74399 12.5557 9.65311 12.8187 9.75911 13.0369C10.0224 13.5788 10.5604 13.9154 11.1629 13.9154C11.7655 13.9155 12.3034 13.5789 12.5667 13.0369Z" fill="#1499A2"/>
<path d="M18.8387 13.9154C19.4413 13.9154 19.9792 13.5788 20.2425 13.0369C20.3486 12.8186 20.2576 12.5557 20.0393 12.4496C19.8207 12.3434 19.558 12.4345 19.452 12.6528C19.337 12.8895 19.102 13.0366 18.8387 13.0366C18.5755 13.0366 18.3405 12.8895 18.2254 12.6528C18.1193 12.4345 17.8564 12.3435 17.6381 12.4496C17.4198 12.5557 17.3289 12.8187 17.4349 13.0369C17.6983 13.5788 18.2362 13.9154 18.8387 13.9154Z" fill="#1499A2"/>
<path d="M12.5601 15.9248C12.9363 15.6577 13.4395 15.6612 13.812 15.9336C14.1562 16.1852 14.5594 16.3109 14.9627 16.3109C15.366 16.3109 15.7693 16.1852 16.1134 15.9336C16.1163 15.9315 16.1191 15.9294 16.1219 15.9272C16.5089 15.63 17.0589 15.6417 17.4596 15.9559C17.6506 16.1056 17.9268 16.0722 18.0766 15.8813C18.2264 15.6903 18.1929 15.4141 18.002 15.2643C17.2867 14.7035 16.2963 14.6882 15.5911 15.2267C15.2135 15.5004 14.7075 15.4995 14.3308 15.2241C13.6525 14.7281 12.7365 14.7217 12.0512 15.2083L12.0169 15.2326C11.8191 15.3732 11.7727 15.6476 11.9133 15.8454C12.0539 16.0432 12.3281 16.0896 12.5261 15.949L12.5601 15.9248Z" fill="#1499A2"/>
<path d="M19.6956 11.6627C19.8408 11.6627 19.9952 11.6543 20.1588 11.6357C20.3841 11.61 20.5666 11.4253 20.5665 11.1987C20.5664 10.9302 20.3332 10.7298 20.0752 10.7606C18.9072 10.8987 18.4654 10.3845 18.4472 10.3625L18.3656 10.278C18.2116 10.1187 17.9629 10.0996 17.7864 10.2335C17.5719 10.3963 17.554 10.7118 17.7481 10.8984C18.1327 11.2682 18.703 11.6627 19.6956 11.6627Z" fill="#1499A2"/>
</g>
<defs>
<clipPath id="clip0_923_8641">
<rect width="30" height="30" fill="white"/>
</clipPath>
</defs>
</svg>
