<svg width="31" height="31" viewBox="0 0 31 31" fill="none" xmlns="http://www.w3.org/2000/svg">
<g clip-path="url(#clip0_923_8523)">
<path d="M29.978 30.4659L29.1432 25.8006C28.8321 24.062 27.3243 22.8 25.558 22.8L19.8467 22.8001C19.8521 22.7572 19.8558 22.7139 19.8558 22.6696V20.7059C19.8558 20.407 19.7282 20.138 19.5255 19.9484C20.7929 19.3055 21.7956 18.2133 22.3223 16.8827C23.427 16.4788 24.3933 15.7273 25.0605 14.7481C25.7952 13.6696 26.1272 12.4098 26.0207 11.1048L25.6386 6.42321C25.4954 4.66801 24.7034 3.04407 23.4084 1.85063C22.1135 0.65718 20.4305 0 18.6695 0H14.0769C13.8261 0 13.6228 0.203257 13.6228 0.454104C13.6228 0.704951 13.8261 0.908208 14.0769 0.908208H18.6695C20.2018 0.908208 21.6662 1.48008 22.7929 2.51846C23.9197 3.55691 24.6088 4.96984 24.7334 6.49708L25.1155 11.1787C25.205 12.2744 24.9263 13.3319 24.3099 14.2367C23.881 14.8662 23.3049 15.3828 22.6429 15.7429C22.6994 15.4175 22.7291 15.0831 22.7291 14.7418V10.7708C22.9017 10.7813 23.081 10.7872 23.2686 10.7872C23.5194 10.7872 23.7227 10.584 23.7227 10.3331C23.7227 10.0823 23.5194 9.87901 23.2686 9.87901C20.8742 9.87901 20.0191 8.91098 19.1136 7.88609C18.2879 6.95143 17.4342 5.98497 15.5128 5.92794C12.9715 5.85262 11.7557 6.71136 11.3432 7.09359H10.1129C9.09645 7.09359 8.26956 7.92049 8.26956 8.93683V10.5435C8.00575 10.5881 7.76471 10.7232 7.58713 10.93L6.40379 12.3081C6.35366 12.3665 6.31921 12.4366 6.30365 12.5119L6.18213 13.0993C5.96791 12.4732 5.88853 11.8064 5.95187 11.1256L6.53143 4.88804C6.64804 3.75877 7.56049 2.90233 8.72372 2.8901C8.84445 2.8901 8.96022 2.84203 9.04541 2.75647L10.1329 1.66481C10.6122 1.18406 11.2764 0.908208 11.955 0.908208C12.2058 0.908208 12.4091 0.704951 12.4091 0.454104C12.4091 0.203257 12.2058 0 11.955 0C11.0367 0 10.1382 0.373153 9.48958 1.02385L8.52924 1.98795C8.39241 1.99624 8.25799 2.01362 8.12648 2.03887C7.64525 0.818417 6.4684 0 5.12061 0C3.33726 0 1.88636 1.45089 1.88636 3.23425C1.88636 5.01761 3.33726 6.4685 5.12061 6.4685C5.23929 6.4685 5.35723 6.46166 5.47427 6.44895L5.04753 11.0416C4.93286 12.2742 5.22833 13.5155 5.87988 14.56L5.47766 16.5042C5.47748 16.505 5.47736 16.5058 5.47724 16.5066C5.47681 16.5087 5.47651 16.5107 5.47609 16.5129C5.30861 17.3332 5.45804 18.1771 5.89768 18.89L6.81454 20.3769L6.41978 22.8001H5.44097C3.67432 22.8001 2.16633 24.0621 1.8553 25.8007L1.02084 30.4659C0.976699 30.7128 1.14102 30.9487 1.38788 30.9929C1.41488 30.9977 1.44182 31 1.46834 31C1.68407 31 1.87552 30.8456 1.91482 30.6258L2.74928 25.9605C2.98269 24.6554 4.11474 23.7083 5.44091 23.7083H6.2718L5.16978 30.4728C5.12945 30.7203 5.29741 30.9537 5.54493 30.994C5.56969 30.998 5.59421 31 5.61849 31C5.83713 31 6.02979 30.8417 6.06612 30.6189L7.73813 20.3557C7.75569 20.2478 7.73383 20.1373 7.67643 20.0443L6.67068 18.4133C6.39235 17.9619 6.27489 17.438 6.3312 16.9165L8.86837 15.845C8.87018 15.8446 8.87188 15.844 8.87364 15.8436L9.8367 15.5959C9.95459 15.5654 10.0788 15.6183 10.1389 15.7239L11.0291 17.2886C11.0916 17.3984 11.0704 17.535 10.9775 17.6208L9.52119 18.8505C9.49346 18.8719 9.46482 18.8728 9.44569 18.8698C9.42655 18.8667 9.39961 18.8571 9.37975 18.8281L9.09251 18.409C9.06503 18.3688 9.07066 18.3154 9.10596 18.2818L9.72051 17.6981C9.90233 17.5254 9.90972 17.238 9.73704 17.0561C9.56436 16.8741 9.27688 16.8668 9.09506 17.0396L8.4805 17.6233C8.11994 17.9657 8.06224 18.5121 8.3433 18.9223L8.63054 19.3414C9.00187 19.9133 9.82907 19.8873 10.3428 19.3638C10.4823 19.7735 10.6279 20.1055 10.6401 20.6246L10.6427 23.2546C10.6456 23.4717 10.8109 23.7072 11.0972 23.7082H22.8351V30.5458C22.8351 30.7966 23.0384 30.9999 23.2892 30.9999C23.54 30.9999 23.7433 30.7966 23.7433 30.5458V23.7082H25.5579C26.8838 23.7082 28.0155 24.6555 28.2491 25.9606L29.0838 30.6258C29.1232 30.8456 29.3146 31 29.5303 31C29.5568 31 29.5838 30.9977 29.6108 30.9929C29.8579 30.9487 30.0221 30.7128 29.978 30.4659ZM5.12061 5.56029C3.83804 5.56029 2.79457 4.51688 2.79457 3.23425C2.79457 1.95162 3.83804 0.908208 5.12061 0.908208C6.07732 0.908208 6.91427 1.48117 7.26853 2.33948C6.36698 2.81363 5.72766 3.71857 5.62709 4.80418L5.56073 5.51864C5.41651 5.54619 5.26938 5.56029 5.12061 5.56029ZM18.8172 20.5755C18.8892 20.5755 18.9476 20.634 18.9476 20.7059V22.6696C18.9476 22.7415 18.8891 22.8 18.8172 22.8H12.1815C12.1096 22.8 12.0512 22.7415 12.0512 22.6696V20.7059C12.0512 20.634 12.1096 20.5755 12.1815 20.5755H18.8172ZM8.27616 11.5217C8.36474 11.402 8.76265 11.3502 8.68642 11.7945L8.31733 12.5327C8.29505 12.5824 8.26992 12.6465 8.26937 12.7357V15.1122L6.54208 15.8416L7.16911 12.8109L8.27616 11.5217ZM10.9283 15.2748C10.6661 14.814 10.1242 14.5843 9.61056 14.7162L9.1791 14.8272C9.17861 14.7988 9.17776 12.8426 9.17776 12.8426L9.49872 12.2006C9.70035 11.7974 9.64803 11.3099 9.36552 10.9586C9.30958 10.8891 9.24642 10.8271 9.17776 10.7732V8.93683C9.17776 8.42121 9.59723 8.0018 10.1129 8.0018H11.5341C11.6574 7.9998 11.7989 7.94949 11.8934 7.82543C11.9017 7.81477 12.7966 6.75628 15.4859 6.83578C17.014 6.88107 17.6716 7.62544 18.433 8.48733C18.7741 8.8735 19.132 9.27783 19.5792 9.63809C19.2157 9.68035 18.8989 9.81537 18.6449 9.95372C18.4038 10.085 18.3377 10.4013 18.5015 10.6215C18.6369 10.8035 18.885 10.856 19.0845 10.7479C19.478 10.5345 19.9377 10.3987 20.4979 10.7575C20.6767 10.8645 21.0596 10.8659 21.1802 10.4973C21.3797 10.5604 21.5925 10.6148 21.8209 10.6588V14.7417C21.8209 17.4547 19.6165 19.6622 16.905 19.6673H14.0921C13.033 19.665 12.0024 19.3192 11.159 18.6892L11.5935 18.288C11.9985 17.9142 12.0911 17.3184 11.8184 16.8394L10.9283 15.2748Z" fill="#1499A2"/>
<path d="M11.9883 13.6757V12.7666C11.9883 12.5158 11.785 12.3125 11.5342 12.3125C11.2834 12.3125 11.0801 12.5158 11.0801 12.7666V13.6757C11.0801 13.9265 11.2834 14.1298 11.5342 14.1298C11.785 14.1298 11.9883 13.9265 11.9883 13.6757Z" fill="#1499A2"/>
<path d="M19.7881 14.1298C20.0389 14.1298 20.2422 13.9265 20.2422 13.6757V12.7666C20.2422 12.5158 20.0389 12.3125 19.7881 12.3125C19.5373 12.3125 19.334 12.5158 19.334 12.7666V13.6757C19.334 13.9265 19.5373 14.1298 19.7881 14.1298Z" fill="#1499A2"/>
<path d="M13.8623 15.8389H15.3458C15.5965 15.8389 15.7999 15.6356 15.7999 15.3848C15.7999 15.1339 15.5965 14.9307 15.3458 14.9307H13.8623C13.6115 14.9307 13.4082 15.1339 13.4082 15.3848C13.4082 15.6356 13.6115 15.8389 13.8623 15.8389Z" fill="#1499A2"/>
<path d="M11.0986 24.9248C11.0985 24.9248 11.0983 24.9248 11.0982 24.9248C10.8474 24.925 10.6443 25.1285 10.6445 25.3793L10.6496 30.5466C10.6498 30.7973 10.8531 31.0003 11.1037 31.0003H11.1041C11.3549 31 11.558 30.7965 11.5578 30.5457L11.5527 25.3785C11.5525 25.1278 11.3492 24.9248 11.0986 24.9248Z" fill="#1499A2"/>
<path d="M12.2214 10.7574C12.2972 10.806 12.382 10.8292 12.4658 10.8292C12.6155 10.8292 12.762 10.7552 12.8487 10.6199C12.9839 10.4087 12.9223 10.1278 12.7112 9.99259C11.7317 9.36538 10.8871 9.666 10.3392 9.98677C10.1059 10.1234 10.0439 10.4328 10.2053 10.6496C10.344 10.836 10.6005 10.887 10.8008 10.7692C11.1989 10.5351 11.6595 10.3975 12.2214 10.7574Z" fill="#1499A2"/>
</g>
<defs>
<clipPath id="clip0_923_8523">
<rect width="31" height="31" fill="white"/>
</clipPath>
</defs>
</svg>
