<svg width="189" height="300" viewBox="0 0 189 300" fill="none" xmlns="http://www.w3.org/2000/svg">
<path d="M122.941 291.486C103.723 274.388 105.302 235.484 97.6592 227.99C93.9482 231.737 90.1267 234.256 86.2578 234.902C67.166 238.082 77.4936 226.793 92.3849 226.179C94.6904 226.085 96.3801 226.746 97.675 227.99C112.235 213.269 124.994 179.671 131.753 166.871C140.233 150.796 147.939 144.074 155.898 138.122C163.857 132.171 195.676 96.8728 186.928 89.3314C178.179 81.7899 129.242 144.467 123.336 139.429C117.446 134.391 129.226 109.563 136.001 99.2816C142.759 89.0007 173.789 25.0638 163.004 18.656C153.687 13.1141 136.759 52.4586 129.005 64.6603C125.578 70.0606 117.73 82.5929 111.303 94.952M111.303 94.952C107.56 112.822 106.029 127.7 103.17 125.763C98.5593 122.646 104.039 108.901 111.303 94.952ZM111.303 94.952C112.187 90.7168 113.198 86.3085 114.382 81.9159C117.383 70.7375 120.904 59.5592 124.126 49.2153C128.026 36.6673 131.484 25.3472 133.016 16.7982C134.737 7.22575 134.09 1.10129 129.021 0.518755C123.178 -0.158242 113.387 17.853 103.739 39.2336C94.5799 59.512 85.563 82.8448 80.1781 96.1486C73.751 103.359 72.9141 108.24 75.2986 106.981C75.7881 106.713 77.541 102.619 80.1623 96.1643" stroke="white" stroke-miterlimit="10" stroke-linecap="round" stroke-linejoin="round"/>
<path d="M36.1359 299.5C36.1359 299.5 29.3772 267.035 13.8543 236.098C-1.66865 205.161 -0.468503 208.325 1.916 180.962C4.3005 153.583 13.2226 117.482 18.3075 104.194C23.3923 90.9215 17.9916 60.4881 25.2715 61.417C32.5513 62.3459 45.3423 90.4964 39.9417 110.728C38.7889 115.041 37.1466 119.592 35.22 124.079M35.22 124.079C28.1455 140.626 17.3758 156.275 14.2491 155.96C12.7173 155.803 22.3343 141.775 35.22 124.079ZM35.22 124.079C55.9699 95.5817 85.2156 57.5282 90.2372 52.4429C94.643 47.9715 99.2067 43.4687 103.723 39.2335" stroke="white" stroke-miterlimit="10" stroke-linecap="round" stroke-linejoin="round"/>
<path d="M133.016 16.7982C136.617 15.2867 139.348 15.2237 140.77 17.1288C144.386 21.9622 135.811 35.0771 124.126 49.2153" stroke="white" stroke-miterlimit="10" stroke-linecap="round" stroke-linejoin="round"/>
</svg>
