<svg width="19" height="18" viewBox="0 0 19 18" fill="none" xmlns="http://www.w3.org/2000/svg">
<path d="M9.50044 17.0393C13.942 17.0393 17.5425 13.4388 17.5425 8.99728C17.5425 4.55576 13.942 0.955203 9.50044 0.955203C5.05892 0.955203 1.45836 4.55576 1.45836 8.99728C1.45836 13.4388 5.05892 17.0393 9.50044 17.0393Z" stroke="#1499A2" stroke-width="0.9" stroke-miterlimit="10" stroke-linecap="round" stroke-linejoin="round"/>
<path d="M2.71458 17.5421L4.77536 15.4813" stroke="#1499A2" stroke-width="0.9" stroke-miterlimit="10" stroke-linecap="round" stroke-linejoin="round"/>
<path d="M16.2861 17.5421L14.2253 15.4813" stroke="#1499A2" stroke-width="0.9" stroke-miterlimit="10" stroke-linecap="round" stroke-linejoin="round"/>
<path d="M9.50017 15.0286C12.8313 15.0286 15.5317 12.3282 15.5317 8.99705C15.5317 5.66592 12.8313 2.9655 9.50017 2.9655C6.16903 2.9655 3.46861 5.66592 3.46861 8.99705C3.46861 12.3282 6.16903 15.0286 9.50017 15.0286Z" stroke="#1499A2" stroke-width="0.9" stroke-miterlimit="10" stroke-linecap="round" stroke-linejoin="round"/>
<path d="M8.49482 10.0024L6.98693 11.5103" stroke="#1499A2" stroke-width="0.9" stroke-miterlimit="10" stroke-linecap="round" stroke-linejoin="round"/>
<path d="M9.49936 4.47365V7.48943" stroke="#1499A2" stroke-width="0.9" stroke-miterlimit="10" stroke-linecap="round" stroke-linejoin="round"/>
<path d="M9.24787 10.0021C9.94186 10.0021 10.5044 9.43953 10.5044 8.74554C10.5044 8.05156 9.94186 7.48897 9.24787 7.48897C8.55388 7.48897 7.9913 8.05156 7.9913 8.74554C7.9913 9.43953 8.55388 10.0021 9.24787 10.0021Z" stroke="#1499A2" stroke-width="0.9" stroke-miterlimit="10" stroke-linecap="round" stroke-linejoin="round"/>
<path d="M4.27246 0.452323C2.66405 1.55811 1.30695 3.066 0.45248 4.87546" stroke="#1499A2" stroke-width="0.9" stroke-miterlimit="10" stroke-linecap="round" stroke-linejoin="round"/>
<path d="M14.7275 0.452323C16.3359 1.55811 17.6931 3.066 18.5475 4.87546" stroke="#1499A2" stroke-width="0.9" stroke-miterlimit="10" stroke-linecap="round" stroke-linejoin="round"/>
</svg>
