<svg width="19" height="23" viewBox="0 0 19 23" fill="none" xmlns="http://www.w3.org/2000/svg">
<path d="M11.6214 11.8558C11.5153 11.8558 11.4622 11.8027 11.3561 11.7497C11.0907 11.4843 10.8785 11.1659 10.7192 10.6883C10.0294 10.9536 9.23332 10.9536 8.49035 10.6883C8.33115 11.1659 8.11887 11.4843 7.85353 11.7497C7.69432 11.9089 7.42898 11.8558 7.32284 11.6966C7.16364 11.5374 7.21671 11.272 7.37591 11.1659C7.58819 10.9536 7.80047 10.5821 7.9066 10.0514C7.95967 9.94531 8.01274 9.83917 8.11887 9.7861C8.22501 9.73303 8.33115 9.73303 8.43729 9.7861C9.18025 10.1576 10.0294 10.1576 10.7723 9.7861C10.8785 9.73303 10.9846 9.73303 11.0907 9.7861C11.1969 9.83917 11.2499 9.94531 11.303 10.0514C11.4622 10.5821 11.6214 10.9536 11.8337 11.1659C11.9929 11.3251 11.9929 11.5374 11.8868 11.6966C11.8337 11.8027 11.7276 11.8558 11.6214 11.8558Z" fill="#1499A2"/>
<path d="M9.60019 10.8993C9.38792 10.8993 9.22871 10.7401 9.22871 10.5278C9.22871 10.3156 9.38792 10.1564 9.60019 10.1564C11.033 10.1564 12.2536 8.98884 12.2536 7.50292V6.81303C12.2536 6.60076 12.4128 6.44154 12.6251 6.44154C12.8374 6.44154 12.9966 6.60076 12.9966 6.81303V7.50292C12.9966 9.36032 11.4576 10.8993 9.60019 10.8993Z" fill="#1499A2"/>
<path d="M3.76551 13.5008C3.6063 13.5008 3.4471 13.3946 3.39403 13.2354C3.28789 12.917 3.23482 12.5455 3.23482 12.174C3.23482 11.8556 3.28789 11.5372 3.34096 11.2719C3.50016 10.7412 3.4471 10.2105 3.23482 9.73289C3.02255 9.2022 2.86334 8.67151 2.86334 8.08775C2.86334 6.60183 3.65937 5.22203 4.98609 4.47907C5.56985 4.16066 5.94133 3.62998 6.04747 3.04622V2.99315C6.36588 1.40109 7.69259 0.180502 9.28466 0.0212954C10.8237 -0.137911 12.2565 0.605055 12.9995 1.93177C13.0525 2.03791 13.1587 2.14405 13.3179 2.14405C14.9099 2.51553 15.9713 3.89532 15.9713 5.48739C15.9713 6.07114 15.8121 6.70796 15.4937 7.23865C15.3876 7.45093 15.3345 7.76934 15.4937 8.03468C15.6529 8.40616 15.7591 8.83072 15.7591 9.2022C15.7591 9.94516 15.4937 10.635 15.0161 11.1657C14.8038 11.378 14.7507 11.6434 14.7507 11.9087V11.9618C14.7507 12.0148 14.7507 12.0679 14.7507 12.121C14.7507 12.3333 14.5385 12.4925 14.3262 12.4925C14.1139 12.4925 13.9547 12.2802 13.9547 12.0679C13.9547 12.0148 13.9547 11.9618 13.9547 11.9087V11.8556C13.9547 11.378 14.1139 10.9535 14.4323 10.582C14.8038 10.1574 15.0161 9.67982 15.0161 9.14913C15.0161 8.83072 14.963 8.56537 14.8569 8.24695C14.6446 7.76933 14.6446 7.18558 14.9099 6.76103C15.1753 6.33648 15.2814 5.91193 15.2814 5.43432C15.2814 4.16067 14.4323 3.09929 13.2118 2.83395C12.8403 2.72781 12.5749 2.51553 12.4157 2.19712C11.832 1.13574 10.6644 0.551989 9.44386 0.658127C8.17021 0.817333 7.10884 1.77257 6.89656 3.04622V3.09929C6.73736 3.94839 6.20667 4.63828 5.46371 5.06283C4.40233 5.64658 3.76551 6.8141 3.76551 8.03468C3.76551 8.5123 3.87165 8.93685 4.03085 9.41447C4.2962 9.99823 4.34926 10.7412 4.13699 11.4311C4.08392 11.6434 4.03085 11.9087 4.03085 12.174C4.03085 12.4394 4.08392 12.7578 4.13699 13.0231C4.19006 13.2354 4.08392 13.4477 3.87165 13.5008C3.81858 13.5008 3.76551 13.5008 3.76551 13.5008Z" fill="#1499A2"/>
<path d="M16.3572 17.1103C16.1449 17.1103 15.9857 16.9511 15.9857 16.7388V16.2081C15.9857 13.82 14.3936 11.8565 12.4301 11.8565H12.1648C12.1648 11.9626 12.2178 12.0157 12.2178 12.1218C12.2178 12.8117 11.6871 13.4486 10.838 13.7139C10.6258 13.767 10.3074 13.82 9.98894 13.82H9.19291C8.87449 13.82 8.60916 13.767 8.34381 13.7139C7.49471 13.4486 6.96402 12.8117 6.96402 12.1218C6.96402 12.0157 6.96402 11.9626 7.01709 11.8565H6.75175C4.78821 11.8565 3.19614 13.82 3.19614 16.2081V16.6327C3.19614 16.845 3.03693 17.0042 2.82466 17.0042C2.61238 17.0042 2.45318 16.845 2.45318 16.6327V16.2081C2.45318 13.3955 4.36366 11.1135 6.75175 11.1135H7.60084C7.76005 11.1135 7.86619 11.2197 7.91926 11.3258C7.97233 11.4319 7.97233 11.5911 7.86619 11.7503C7.76005 11.9096 7.70698 12.0157 7.70698 12.1749C7.70698 12.5464 8.0254 12.8648 8.55608 13.024C8.71529 13.0771 8.92757 13.0771 9.13984 13.0771H9.93587C10.2012 13.0771 10.3604 13.0771 10.5196 13.024C11.0503 12.8648 11.3687 12.4933 11.3687 12.1749C11.3687 12.0157 11.3157 11.9096 11.2095 11.7503C11.1034 11.6442 11.1034 11.485 11.1564 11.3258C11.2095 11.2197 11.3687 11.1135 11.4749 11.1135H12.324C14.7121 11.1135 16.6225 13.3955 16.6225 16.2081V16.7388C16.7287 16.9511 16.5695 17.1103 16.3572 17.1103Z" fill="#1499A2"/>
<path d="M9.60747 10.8993C7.75006 10.8993 6.21107 9.36032 6.21107 7.50292V6.81303C6.21107 6.60076 6.37027 6.44154 6.58255 6.44154C6.79482 6.44154 6.95403 6.60076 6.95403 6.81303V7.50292C6.95403 8.93577 8.12154 10.1564 9.60747 10.1564C9.81974 10.1564 9.97895 10.3156 9.97895 10.5278C9.97895 10.7401 9.81974 10.8993 9.60747 10.8993Z" fill="#1499A2"/>
<path d="M11.0379 8.24687C10.6664 8.24687 10.295 8.14073 9.92348 7.92845C9.87042 7.92845 9.87041 7.87539 9.87041 7.87539H9.33972C9.33972 7.87539 9.28665 7.87538 9.28665 7.92845C8.80903 8.19379 8.27835 8.29993 7.74766 8.19379C6.95163 8.03459 6.31481 7.39776 6.1556 6.60173C6.04946 5.96491 6.1556 5.32809 6.58015 4.85047C6.95163 4.37285 7.53539 4.10751 8.17221 4.10751C8.17221 4.10751 8.17221 4.10751 8.22528 4.10751C8.43755 4.10751 10.0827 4.10751 11.091 4.10751C11.7278 4.10751 12.3116 4.37285 12.6831 4.85047C13.0545 5.32809 13.2137 5.96491 13.1076 6.60173C12.9484 7.39776 12.3116 8.03459 11.5155 8.19379C11.3033 8.24686 11.1971 8.24687 11.0379 8.24687ZM9.33972 7.13242H9.87041C10.0296 7.13242 10.1888 7.1855 10.348 7.29163C10.5603 7.39777 10.8787 7.55697 11.3033 7.45083C11.7809 7.3447 12.2054 6.97322 12.3116 6.44253C12.4177 6.01798 12.3116 5.6465 12.0462 5.32808C11.7809 5.00967 11.4094 4.85047 11.0379 4.85047C10.7726 4.85047 8.49062 4.85047 8.11914 4.85047C7.74766 4.85047 7.37618 5.00967 7.11084 5.32808C6.84549 5.6465 6.73936 6.01798 6.84549 6.44253C6.95163 6.92015 7.32311 7.3447 7.8538 7.45083C8.27835 7.55697 8.59676 7.39777 8.80904 7.29163C9.02131 7.1855 9.18052 7.13242 9.33972 7.13242Z" fill="#1499A2"/>
<path d="M17.5658 19.3384C17.4596 19.3384 17.3004 19.3385 17.1943 19.2854C12.1527 17.8525 6.79281 17.8525 1.69821 19.2854C1.27366 19.3915 0.8491 19.3384 0.530688 19.0731C0.212275 18.8078 0 18.4363 0 18.0117C0 17.428 0.371483 16.8973 0.955239 16.7381C6.52746 15.093 12.365 15.093 17.9372 16.7381C18.4679 16.8973 18.8925 17.428 18.8925 18.0117C18.8925 18.4363 18.6802 18.8078 18.3618 19.0731C18.0964 19.2854 17.8311 19.3384 17.5658 19.3384ZM9.44624 17.481C12.0997 17.481 14.8062 17.8525 17.4066 18.5424C17.5658 18.5955 17.778 18.5424 17.8842 18.4363C18.0434 18.3302 18.0964 18.1709 18.0964 18.0117C18.0964 17.7464 17.9372 17.5341 17.725 17.481C12.312 15.889 6.58053 15.889 1.16752 17.481C0.955244 17.5341 0.796031 17.7464 0.796031 18.0117C0.796031 18.1709 0.902174 18.3302 1.00831 18.4363C1.16752 18.5424 1.32672 18.5955 1.48593 18.5424C4.0863 17.8525 6.7928 17.481 9.44624 17.481Z" fill="#1499A2"/>
<path d="M1.59221 23.0002C1.37993 23.0002 1.22073 22.841 1.22073 22.6287V18.9139C1.22073 18.7016 1.37993 18.5424 1.59221 18.5424C1.80448 18.5424 1.9637 18.7016 1.9637 18.9139V22.5756C1.9637 22.841 1.80448 23.0002 1.59221 23.0002Z" fill="#1499A2"/>
<path d="M17.2996 23.0002C17.0873 23.0002 16.9281 22.841 16.9281 22.6287V18.9139C16.9281 18.7016 17.0873 18.5424 17.2996 18.5424C17.5118 18.5424 17.6711 18.7016 17.6711 18.9139V22.5756C17.6711 22.841 17.5118 23.0002 17.2996 23.0002Z" fill="#1499A2"/>
</svg>
