<svg width="43" height="40" viewBox="0 0 43 40" fill="none" xmlns="http://www.w3.org/2000/svg">
<path d="M26.7593 0.584447C25.064 0.584447 23.6513 0.652494 21.6028 0.584447C14.6804 0.380306 4.1556 -0.0279844 1.25951 7.25305C-0.577044 11.7442 1.11824 17.0518 4.22625 20.8625C7.33425 24.6731 11.7137 27.3269 15.9519 29.8447C17.2233 30.5932 18.4242 31.3417 19.6956 32.0902C22.0266 33.5192 24.3576 34.8802 26.7593 36.3091C30.1498 38.3505 34.3174 40.46 38.0611 39.031C41.8049 37.602 43.2176 32.9068 42.158 29.1642C41.0985 25.4216 38.1318 22.4956 35.0944 19.9779C33.0459 18.2767 30.8562 16.6435 28.6665 15.2146C26.8299 13.9897 24.0045 12.969 22.8036 11.0637C22.6624 10.7915 22.4505 10.4513 22.5211 10.111C22.5917 9.70275 22.9449 9.43055 23.3687 9.29446C23.7925 9.15836 24.2164 9.22642 24.6402 9.22642" stroke="white" stroke-miterlimit="10"/>
</svg>
