<svg width="23" height="21" viewBox="0 0 23 21" fill="none" xmlns="http://www.w3.org/2000/svg">
<g clip-path="url(#clip0_923_8451)">
<path d="M20.157 8.64917C19.928 8.64917 19.7083 8.68719 19.504 8.75647V5.69604C19.504 2.55523 16.8143 0 13.5082 0H8.59709C5.29097 0 2.60125 2.55523 2.60125 5.69604V8.75647C2.397 8.68719 2.17724 8.64917 1.94824 8.64917C0.873978 8.64917 0 9.47945 0 10.5V11.7356C0 12.7561 0.873978 13.5864 1.94824 13.5864C2.18359 13.5864 2.40926 13.5466 2.61831 13.4736C2.89225 17.6675 6.57019 21 11.0526 21C15.5351 21 19.213 17.6675 19.487 13.4736C19.696 13.5466 19.9217 13.5864 20.157 13.5864C21.2313 13.5864 22.1053 12.7561 22.1053 11.7356V10.5C22.1053 9.47945 21.2313 8.64917 20.157 8.64917ZM8.59709 1.23047H13.5082C15.8804 1.23047 17.8475 2.90858 18.164 5.08081H3.9413C4.25781 2.90858 6.22488 1.23047 8.59709 1.23047ZM1.94824 12.356C1.58817 12.356 1.29523 12.0777 1.29523 11.7356V10.5C1.29523 10.1579 1.58817 9.87964 1.94824 9.87964C2.30832 9.87964 2.60125 10.1579 2.60125 10.5V11.7356C2.60125 12.0777 2.30832 12.356 1.94824 12.356ZM18.2088 12.9712C18.2088 16.7198 14.9986 19.7695 11.0526 19.7695C7.10671 19.7695 3.89648 16.7198 3.89648 12.9712V6.31128H18.2088V12.9712ZM20.81 11.7356C20.81 12.0777 20.5171 12.356 20.157 12.356C19.7969 12.356 19.504 12.0777 19.504 11.7356V10.5C19.504 10.1579 19.7969 9.87964 20.157 9.87964C20.5171 9.87964 20.81 10.1579 20.81 10.5V11.7356Z" fill="#1499A2"/>
<path d="M9.67404 12.355C9.42112 12.5953 9.42117 12.9848 9.67408 13.2251C10.0539 13.5859 10.5528 13.7663 11.0517 13.7663C11.5506 13.7663 12.0495 13.5859 12.4293 13.2251C12.6822 12.9848 12.6822 12.5953 12.4293 12.355C12.1764 12.1147 11.7664 12.1148 11.5134 12.355C11.2588 12.5969 10.8446 12.5969 10.5899 12.355C10.337 12.1147 9.92696 12.1148 9.67404 12.355Z" fill="#1499A2"/>
<path d="M9.67071 17.4741C10.0397 17.1235 10.5303 16.9305 11.0521 16.9305C11.574 16.9305 12.0646 17.1235 12.4335 17.4741C12.6864 17.7144 13.0965 17.7144 13.3494 17.4741C13.6023 17.2339 13.6023 16.8443 13.3494 16.604C12.7357 16.0211 11.9199 15.7 11.0521 15.7C10.1843 15.7 9.3684 16.0211 8.75476 16.604C8.50189 16.8443 8.50189 17.2338 8.75476 17.4741C9.00772 17.7143 9.41779 17.7143 9.67071 17.4741Z" fill="#1499A2"/>
<path d="M9.10516 10.5001C9.10516 10.8399 9.39512 11.1153 9.75278 11.1153C10.1104 11.1153 10.4004 10.8399 10.4004 10.5001V9.19531C10.4004 8.85554 10.1104 8.58008 9.75278 8.58008H7.15152C6.79387 8.58008 6.50391 8.85554 6.50391 9.19531C6.50391 9.53509 6.79387 9.81055 7.15152 9.81055H9.10516V10.5001Z" fill="#1499A2"/>
<path d="M14.9539 8.58008H12.3527C11.995 8.58008 11.7051 8.85554 11.7051 9.19531C11.7051 9.53509 11.995 9.81055 12.3527 9.81055H14.3063V10.5001C14.3063 10.8399 14.5963 11.1153 14.9539 11.1153C15.3116 11.1153 15.6016 10.8399 15.6016 10.5001V9.19531C15.6016 8.8555 15.3116 8.58008 14.9539 8.58008Z" fill="#1499A2"/>
</g>
<defs>
<clipPath id="clip0_923_8451">
<rect width="22.1053" height="21" fill="white"/>
</clipPath>
</defs>
</svg>
