<svg width="21" height="18" viewBox="0 0 21 18" fill="none" xmlns="http://www.w3.org/2000/svg">
<path d="M4.61145 13.5594C5.87022 13.5594 6.89065 12.539 6.89065 11.2802C6.89065 10.0214 5.87022 9.00098 4.61145 9.00098C3.35268 9.00098 2.33224 10.0214 2.33224 11.2802C2.33224 12.539 3.35268 13.5594 4.61145 13.5594Z" stroke="#1499A2" stroke-width="0.9" stroke-miterlimit="10" stroke-linecap="round" stroke-linejoin="round"/>
<path d="M10.3087 13.5594C11.5675 13.5594 12.588 12.539 12.588 11.2802C12.588 10.0214 11.5675 9.00098 10.3087 9.00098C9.04998 9.00098 8.02954 10.0214 8.02954 11.2802C8.02954 12.539 9.04998 13.5594 10.3087 13.5594Z" stroke="#1499A2" stroke-width="0.9" stroke-miterlimit="10" stroke-linecap="round" stroke-linejoin="round"/>
<path d="M16.0063 13.5594C17.2651 13.5594 18.2855 12.539 18.2855 11.2802C18.2855 10.0214 17.2651 9.00098 16.0063 9.00098C14.7475 9.00098 13.7271 10.0214 13.7271 11.2802C13.7271 12.539 14.7475 13.5594 16.0063 13.5594Z" stroke="#1499A2" stroke-width="0.9" stroke-miterlimit="10" stroke-linecap="round" stroke-linejoin="round"/>
<path d="M1.59182 17.5475C1.59182 15.9521 2.84538 14.6985 4.44082 14.6985C6.03627 14.6985 7.28983 15.9521 7.28983 17.5475" stroke="#1499A2" stroke-width="0.9" stroke-miterlimit="10" stroke-linecap="round" stroke-linejoin="round"/>
<path d="M7.28924 17.5475C7.28924 15.9521 8.5428 14.6985 10.1382 14.6985C11.7337 14.6985 12.9873 15.9521 12.9873 17.5475" stroke="#1499A2" stroke-width="0.9" stroke-miterlimit="10" stroke-linecap="round" stroke-linejoin="round"/>
<path d="M12.9867 17.5475C12.9867 15.9521 14.2402 14.6985 15.8357 14.6985C17.4311 14.6985 18.6847 15.9521 18.6847 17.5475" stroke="#1499A2" stroke-width="0.9" stroke-miterlimit="10" stroke-linecap="round" stroke-linejoin="round"/>
<path d="M0.452455 11.8487V0.4527H19.8257V11.8487" stroke="#1499A2" stroke-width="0.9" stroke-miterlimit="10" stroke-linecap="round" stroke-linejoin="round"/>
</svg>
