<svg width="32" height="30" viewBox="0 0 32 30" fill="none" xmlns="http://www.w3.org/2000/svg">
<g clip-path="url(#clip0_923_8328)">
<path d="M12.1867 25.8633H10.0556C9.79945 25.8633 9.5918 26.0599 9.5918 26.3027C9.5918 26.5454 9.79945 26.742 10.0556 26.742H12.1867C12.4429 26.742 12.6505 26.5454 12.6505 26.3027C12.6505 26.0599 12.4429 25.8633 12.1867 25.8633Z" fill="#1499A2"/>
<path d="M18.2928 18.6623V18.5511C18.2928 17.2661 17.1893 16.2207 15.8329 16.2207C14.4766 16.2207 13.373 17.2661 13.373 18.5511V18.6623C13.373 18.905 13.5807 19.1017 13.8368 19.1017H17.829C18.0852 19.1017 18.2928 18.905 18.2928 18.6623ZM14.3401 18.2229C14.4975 17.58 15.1071 17.0994 15.8329 17.0994C16.5587 17.0994 17.1683 17.58 17.3257 18.2229H14.3401Z" fill="#1499A2"/>
<path d="M30.521 29.8536C30.6003 29.769 30.66 29.6459 30.6404 29.5022L29.7481 22.6507C29.5628 21.2296 28.4016 20.1011 26.9344 19.8698L25.5772 16.3543L25.6361 15.4861C26.4238 15.3542 27.2547 14.7282 27.4318 13.8951C27.6236 13.1097 27.3735 12.2243 27.0333 11.5599C27.6072 11.2556 28.4601 10.611 28.3815 9.49215C28.2884 8.16868 27.3034 6.78691 25.8346 5.88103C26.0406 5.40076 26.249 4.55931 25.75 3.68325C25.3059 2.90379 23.6591 2.30893 21.5544 2.16786C21.2992 2.15046 21.0772 2.33306 21.059 2.57513C21.041 2.8172 21.2334 3.02728 21.4889 3.04445C23.5054 3.17966 24.7365 3.7546 24.9337 4.10066C25.4156 4.94661 24.865 5.77183 24.8428 5.8044C24.7715 5.90622 24.7482 6.03159 24.7784 6.15034C24.8087 6.26909 24.8898 6.37062 25.0023 6.43037C26.3906 7.16865 27.3766 8.42252 27.4559 9.55044C27.5235 10.5116 26.2894 10.9279 26.2385 10.9446C26.1035 10.9878 25.9969 11.0875 25.9495 11.2148C25.9022 11.3421 25.9192 11.483 25.9958 11.5968C26.365 12.1461 26.6891 13.0375 26.528 13.6969C26.449 14.0205 26.2628 14.2634 25.959 14.4395C25.8779 14.4864 25.7911 14.5259 25.699 14.5583L25.7813 13.3454C25.806 12.9816 25.7044 12.6129 25.4953 12.3069L23.6721 9.64078C23.412 9.26033 22.9418 9.08312 22.4949 9.16045C21.7905 8.25327 20.6602 7.70282 19.4585 7.70282H12.1344C10.9446 7.70282 9.8295 8.25122 9.14 9.15482C8.70293 9.09138 8.24897 9.26953 7.99512 9.64072L6.17187 12.307C5.96273 12.6129 5.86113 12.9816 5.88581 13.3455L5.96811 14.5583C5.64179 14.4625 5.2169 14.1027 5.1391 13.6969C4.97808 13.0375 5.30211 12.1461 5.67135 11.5968C5.7476 11.4834 5.76398 11.343 5.71736 11.216C5.67067 11.089 5.56437 10.989 5.4303 10.945C5.37774 10.9278 4.14363 10.5116 4.21121 9.55038C4.29055 8.42246 5.27657 7.16859 6.66485 6.43031C6.77647 6.37097 6.85649 6.26938 6.88728 6.15169C6.91808 6.03393 6.89532 5.90833 6.82588 5.80639C6.80219 5.77171 6.25152 4.9465 6.73349 4.10054C6.91437 3.78296 7.98579 3.255 9.80143 3.07556C10.2532 3.03086 10.8789 2.99705 11.6151 3.03027C11.6656 3.30937 11.5985 3.6027 11.4128 3.84348C10.8889 4.52235 10.8821 5.43907 11.3961 6.12486L11.4218 6.15913C11.5122 6.27975 11.6552 6.34408 11.8003 6.34408C11.8932 6.34408 11.987 6.31771 12.0685 6.26282C12.2773 6.12234 12.3264 5.84799 12.178 5.65015L12.1524 5.616C11.8699 5.23907 11.8736 4.73524 12.1615 4.36212C12.45 3.9883 12.5806 3.54482 12.556 3.10719C13.3595 3.20257 14.246 3.38558 15.1563 3.71061C15.1307 3.75624 15.1021 3.80077 15.0691 3.84348C14.5452 4.52235 14.5385 5.43913 15.0525 6.12486L15.0782 6.15913C15.1686 6.27975 15.3116 6.34408 15.4567 6.34408C15.5496 6.34408 15.6434 6.31771 15.7249 6.26282C15.9337 6.12234 15.9828 5.84799 15.8344 5.65015L15.8087 5.616C15.5263 5.23907 15.53 4.73524 15.8179 4.36212C15.9368 4.2081 16.0276 4.04184 16.0933 3.86943C16.9813 3.51119 17.9372 3.26285 18.9414 3.12945C18.9613 3.37779 18.8894 3.63105 18.7255 3.84342C18.2016 4.52229 18.1949 5.43907 18.709 6.12497L18.7347 6.15924C18.8252 6.27975 18.968 6.34402 19.113 6.34402C19.206 6.34402 19.2999 6.3176 19.3814 6.26265C19.5901 6.12199 19.639 5.84764 19.4906 5.64992L19.465 5.61594C19.1826 5.23901 19.1863 4.73518 19.4742 4.36206C20.0058 3.67329 20.0058 2.74766 19.4742 2.05883C19.472 2.05602 19.4698 2.05321 19.4676 2.0504C19.1532 1.66292 19.1657 1.11188 19.4979 0.710578C19.656 0.519594 19.6207 0.243371 19.4191 0.0936884C19.2175 -0.0560524 18.926 -0.022601 18.7679 0.168324C18.2511 0.79283 18.1732 1.62695 18.5394 2.29821C17.7222 2.42352 16.9351 2.62065 16.1872 2.88715C16.1351 2.59482 16.0124 2.31092 15.8179 2.05877C15.8157 2.05596 15.8135 2.05315 15.8113 2.05034C15.497 1.66286 15.5094 1.11182 15.8416 0.710461C15.9996 0.519477 15.9643 0.243312 15.7627 0.0936298C15.5611 -0.056111 15.2696 -0.0226595 15.1116 0.168324C14.5192 0.884163 14.5032 1.8754 15.0719 2.58105C15.1225 2.64713 15.1636 2.71737 15.1965 2.78996C14.1534 2.44683 13.1475 2.27114 12.2561 2.19252C12.2267 2.14706 12.1952 2.10242 12.1615 2.05877C12.1593 2.05596 12.1571 2.05315 12.1548 2.05034C11.8405 1.66286 11.853 1.11188 12.1851 0.710461C12.3432 0.519477 12.3079 0.243312 12.1063 0.0936298C11.9047 -0.056111 11.6132 -0.0226595 11.4551 0.168324C10.9785 0.744323 10.8758 1.49842 11.1498 2.13874C10.576 2.13347 10.0839 2.16399 9.70515 2.20142C8.19703 2.35052 6.40995 2.81802 5.91722 3.68301C5.41818 4.55908 5.62658 5.40046 5.83262 5.8808C4.36383 6.78668 3.3788 8.16844 3.28574 9.49191C3.23719 10.1823 3.55065 10.8009 4.19229 11.2805C4.34472 11.3945 4.49734 11.4868 4.63401 11.5596C4.29383 12.224 4.04369 13.1095 4.23552 13.8949C4.4253 14.6912 5.12 15.3083 6.03119 15.4859L6.09012 16.3541L4.73289 19.8695C3.26564 20.1008 2.10456 21.2293 1.91916 22.6505L1.02683 29.5019C0.969693 29.942 1.64905 30.2576 1.92263 29.7066L6.99476 16.5691C7.0169 16.5118 7.02617 16.4508 7.02203 16.39L6.81153 13.2889C6.7996 13.1122 6.84888 12.9331 6.95048 12.7846L8.77373 10.1184C8.83928 10.0225 8.97261 9.9917 9.07736 10.0485C9.16492 10.0959 9.20939 10.1938 9.18552 10.2865L8.4552 13.1249C8.43269 13.2124 8.43906 13.3043 8.47351 13.3882L9.8091 16.6431C9.96827 17.0309 9.89567 17.473 9.61962 17.7967L8.79791 18.7604C8.74275 18.8251 8.70812 18.9032 8.69804 18.9858L7.40809 29.5052C7.37853 29.7462 7.56083 29.9643 7.81523 29.9923C8.06976 30.0209 8.29986 29.8476 8.32942 29.6066L9.40208 20.859C10.2514 21.8974 11.5732 22.5364 13.0206 22.5364C13.2767 22.5364 13.4844 22.3397 13.4844 22.097C13.4844 21.8543 13.2767 21.6576 13.0206 21.6576C11.5265 21.6616 9.85245 20.6649 9.60386 19.2139L10.3412 18.3492C10.8255 17.7811 10.9529 17.0054 10.6736 16.3249L9.39088 13.1989L10.0866 10.4949C10.1645 10.192 10.0985 9.87869 9.92369 9.62935C10.4422 8.97655 11.2613 8.58169 12.1344 8.58169H19.4586C20.3525 8.58169 21.1935 8.98639 21.7258 9.65443C21.5641 9.89948 21.5053 10.2022 21.5806 10.495L22.2764 13.1989L20.9937 16.3249C20.7143 17.0055 20.8417 17.7811 21.3261 18.3492L22.0634 19.2139C21.8581 20.608 20.1329 21.676 18.6467 21.6577H15.1904C14.9343 21.6577 14.7266 21.8543 14.7266 22.097C14.7266 22.3397 14.9343 22.5364 15.1904 22.5364H18.6467C20.0467 22.5327 21.3752 21.9359 22.2648 20.8559L23.3378 29.6066C23.3674 29.8477 23.5976 30.0203 23.852 29.9924C24.1064 29.9643 24.2887 29.7463 24.2591 29.5053L22.9693 18.9861C22.9592 18.9035 22.9245 18.8253 22.8694 18.7607L22.0477 17.797C21.7717 17.4733 21.6991 17.0312 21.8582 16.6434L23.1938 13.3885C23.2283 13.3045 23.2346 13.2126 23.2121 13.1252L22.4818 10.2868C22.458 10.194 22.5024 10.0961 22.5899 10.0488C22.6946 9.99222 22.8281 10.0228 22.8936 10.1187L24.7168 12.7849C24.8183 12.9334 24.8677 13.1125 24.8557 13.2892L24.6452 16.3902C24.6411 16.4511 24.6504 16.5121 24.6725 16.5694L29.7446 29.7069C29.8255 29.9786 30.298 30.1102 30.521 29.8536ZM4.34046 20.8859L2.44362 25.799L2.83963 22.7584C2.95045 21.9087 3.54113 21.2033 4.34046 20.8859ZM28.8275 22.7583L29.2235 25.799L27.3266 20.8858C28.126 21.2033 28.7167 21.9087 28.8275 22.7583Z" fill="#1499A2"/>
<path d="M20.9173 12.153C20.7948 11.9409 20.5133 11.8628 20.2888 11.9781C20.2798 11.9826 19.3789 12.435 18.6608 11.9952C18.4456 11.8635 18.1585 11.9219 18.0195 12.1258C17.8805 12.3296 17.9421 12.6016 18.1573 12.7333C18.5673 12.9844 18.9945 13.0675 19.3806 13.0675C20.1142 13.0675 20.6995 12.7671 20.7363 12.7478C20.9596 12.6306 21.0399 12.3651 20.9173 12.153Z" fill="#1499A2"/>
<path d="M13.5095 12.7331C13.7247 12.6014 13.7863 12.3293 13.6473 12.1256C13.5083 11.9218 13.2212 11.8633 13.0061 11.995C12.2918 12.4324 11.3967 11.9873 11.3783 11.978C11.1545 11.8618 10.8734 11.9387 10.7496 12.1504C10.6255 12.3626 10.7065 12.63 10.9306 12.7476C10.9674 12.7669 11.5525 13.0672 12.2863 13.0672C12.6722 13.0673 13.0996 12.9841 13.5095 12.7331Z" fill="#1499A2"/>
<path d="M11.3164 14.3827V15.2633C11.3164 15.506 11.5241 15.7026 11.7802 15.7026C12.0363 15.7026 12.244 15.506 12.244 15.2633V14.3827C12.244 14.14 12.0363 13.9434 11.7802 13.9434C11.5241 13.9434 11.3164 14.14 11.3164 14.3827Z" fill="#1499A2"/>
<path d="M19.7538 14.3827V15.2633C19.7538 15.506 19.9614 15.7026 20.2176 15.7026C20.4737 15.7026 20.6814 15.506 20.6814 15.2633V14.3827C20.6814 14.14 20.4737 13.9434 20.2176 13.9434C19.9614 13.9434 19.7538 14.14 19.7538 14.3827Z" fill="#1499A2"/>
</g>
<defs>
<clipPath id="clip0_923_8328">
<rect width="31.6667" height="30" fill="white"/>
</clipPath>
</defs>
</svg>
