<svg width="30" height="30" viewBox="0 0 30 30" fill="none" xmlns="http://www.w3.org/2000/svg">
<g clip-path="url(#clip0_923_8678)">
<path d="M29.0141 29.4976L28.1985 23.8325C28.0594 22.8659 27.5763 21.9814 26.8382 21.342C26.1001 20.7026 25.1558 20.3504 24.1793 20.3504L19.8041 20.3503C19.5614 20.3503 19.3647 20.547 19.3647 20.7897C19.3647 21.0324 19.5614 21.2291 19.8041 21.2291H22.0996V28.2111L18.4714 23.2329L18.099 19.8905C19.0919 19.7919 20.0126 19.3575 20.7276 18.6425C21.5463 17.8238 21.9971 16.7353 21.9971 15.5774V15.091C23.0539 15.0427 23.9376 14.3214 24.2297 13.3467C24.5253 13.2914 24.7976 13.1892 25.0422 13.0403C25.528 12.7433 25.8518 12.2957 25.9788 11.7462C26.16 10.9616 25.9233 10.0776 25.6013 9.41431C25.7305 9.34172 25.8746 9.24955 26.0187 9.13589C26.6261 8.6566 26.9231 8.03869 26.8773 7.34877C26.7892 6.02618 25.8568 4.6454 24.4666 3.74021C24.6616 3.26034 24.8586 2.42008 24.3864 1.54501C23.9198 0.680601 22.2284 0.21333 20.8011 0.0643307C19.6182 -0.0592982 17.2694 -0.107754 14.8253 0.95528C14.6027 1.05207 14.5008 1.31099 14.5976 1.53352C14.6943 1.756 14.9532 1.85783 15.1758 1.76127C17.4353 0.778508 19.6129 0.823975 20.7097 0.938405C22.4278 1.11781 23.4417 1.64526 23.613 1.96253C24.069 2.80737 23.5479 3.631 23.5269 3.66346C23.4593 3.76529 23.4372 3.89068 23.4658 4.0095C23.4945 4.12827 23.5713 4.22981 23.6779 4.28963C24.9919 5.02718 25.9252 6.28006 26.0004 7.40707C26.064 8.36669 24.8962 8.78246 24.848 8.79916C24.72 8.8424 24.6191 8.94212 24.5742 9.06956C24.5293 9.19694 24.5456 9.33791 24.6182 9.45175C24.9678 9.99982 25.2746 10.8896 25.1224 11.5482C25.0477 11.8717 24.8714 12.1144 24.5843 12.2899C24.5025 12.3397 24.4147 12.3812 24.3214 12.4147C24.2084 11.2092 23.218 10.255 21.997 10.1992V8.65701C21.997 6.69108 20.3975 5.09169 18.4316 5.09169H15.0005C14.8907 5.08425 14.6308 5.20167 14.5839 5.39139C14.5421 5.51467 13.5218 8.40806 10.1901 8.14158C10.0684 8.13115 9.94766 8.17392 9.85754 8.25671C9.76749 8.33944 9.71599 8.45675 9.71546 8.57909C9.71546 8.58342 9.71153 9.01806 9.52937 9.43763C9.31528 9.93074 8.95681 10.1788 8.4337 10.1962H8.11719C6.84463 10.1962 5.79607 11.172 5.67953 12.4146C5.58643 12.3812 5.49877 12.3399 5.41733 12.2903C5.12953 12.1143 4.95328 11.8715 4.87858 11.5481C4.72636 10.8895 5.03326 9.99959 5.38276 9.45164C5.45536 9.33779 5.47165 9.19676 5.42676 9.06944C5.38188 8.942 5.28099 8.84228 5.15296 8.79904C5.14083 8.795 3.93636 8.37636 4.00058 7.40713C4.07569 6.27994 5.00906 5.02707 6.32304 4.28951C6.42886 4.2301 6.50468 4.12856 6.5338 4.01079C6.56298 3.89296 6.54142 3.76734 6.4755 3.66539C6.45312 3.63076 5.93206 2.80719 6.38802 1.96236C6.71309 1.36009 9.60232 0.40639 12.9441 1.15232C13.1812 1.20476 13.4158 1.05594 13.4687 0.819112C13.5215 0.582225 13.3724 0.34733 13.1355 0.29448C11.5694 -0.055021 9.87864 -0.0947464 8.37447 0.182393C7.69855 0.30696 6.07655 0.689038 5.61461 1.54489C5.1423 2.41996 5.33934 3.26017 5.5344 3.7401C4.14413 4.64528 3.21181 6.02606 3.12363 7.34883C3.04957 8.46606 3.85638 9.11005 4.39965 9.41426C4.07768 10.0776 3.84091 10.9615 4.0222 11.746C4.14917 12.2956 4.473 12.7432 4.95949 13.0406C5.20359 13.1892 5.47575 13.2913 5.77128 13.3466C6.06336 14.3213 6.94717 15.0425 8.00393 15.0909V15.5773C8.00393 17.8205 9.71651 19.6712 11.9028 19.8902C11.9028 19.8902 11.8841 20.2948 11.8759 20.3502L5.82173 20.3504C4.84518 20.3504 3.90091 20.7025 3.16283 21.3419C2.42475 21.9813 1.94166 22.8658 1.8025 23.8324L0.98696 29.4976C0.95239 29.7378 1.11908 29.9605 1.35931 29.9951C1.38052 29.9982 1.40161 29.9997 1.42247 29.9997C1.63739 29.9997 1.82535 29.8417 1.85687 29.6227L2.67242 23.9576C2.89629 22.4022 4.25024 21.2293 5.82167 21.2293H7.02246V29.5603C7.00968 29.9305 7.53584 30.1921 7.81708 29.819L12.3074 23.6578C12.3517 23.597 12.3797 23.5258 12.3887 23.4512L12.7397 20.5147C12.7599 20.3461 12.8149 20.187 12.9033 20.0418L14.3546 17.6584C14.3747 17.6255 14.4111 17.605 14.4496 17.605C14.511 17.605 14.5609 17.655 14.5609 17.7163V24.4907C14.5609 24.6988 14.4888 24.9026 14.3579 25.0648C14.2272 25.2267 14.0431 25.3398 13.8395 25.3834C13.6896 25.4155 13.5673 25.5235 13.5167 25.6681L12.2072 29.4152C12.1272 29.6443 12.2479 29.8949 12.477 29.975C12.525 29.9918 12.5739 29.9998 12.622 29.9998C12.8037 29.9998 12.9736 29.8863 13.0369 29.7052L14.2722 26.1703C14.5523 26.0659 14.8033 25.8915 15.0003 25.6648C15.1971 25.8915 15.4482 26.0659 15.7283 26.1703L16.9637 29.7052C17.027 29.8864 17.1969 29.9998 17.3785 29.9998C17.4266 29.9998 17.4755 29.9918 17.5235 29.975C17.7526 29.895 17.8734 29.6443 17.7934 29.4152L16.4838 25.6681C16.4333 25.5234 16.3109 25.4155 16.161 25.3834C15.9575 25.3398 15.7735 25.2267 15.6427 25.0649C15.5118 24.9026 15.4397 24.6988 15.4397 24.4907V17.7163C15.4397 17.655 15.4896 17.6051 15.5509 17.6051C15.5895 17.6051 15.6259 17.6256 15.6459 17.6584L17.0973 20.0418C17.1857 20.1871 17.2407 20.3462 17.2608 20.5148L17.6119 23.4512C17.6208 23.5259 17.6488 23.5971 17.6931 23.6578L22.1835 29.819C22.3922 30.1257 22.9693 30.0282 22.9781 29.5603V21.2294H24.1789C25.7503 21.2294 27.1043 22.4023 27.3281 23.9577L28.1437 29.6228C28.1752 29.8419 28.3632 29.9998 28.5781 29.9998C28.5989 29.9998 28.62 29.9983 28.6412 29.9953C28.8819 29.9606 29.0486 29.7378 29.0141 29.4976ZM23.4537 12.6451C23.4738 13.396 22.8062 14.1707 21.9971 14.2109V11.0792C22.8101 11.1374 23.4537 11.8175 23.4537 12.6451ZM6.56708 12.8916C6.55923 12.8393 6.55372 12.8034 6.54739 12.645C6.54739 11.8175 7.19114 11.1374 8.00411 11.0792V14.2109C7.27358 14.1586 6.67999 13.604 6.56708 12.8916ZM7.90169 28.2111V21.2292H11.7695L11.5299 23.2329L7.90169 28.2111ZM16.397 17.2013C16.2185 16.9082 15.8944 16.7262 15.5513 16.7262C15.3476 16.7262 15.1582 16.7881 15.0006 16.894C14.8431 16.7881 14.6536 16.7262 14.4499 16.7262C14.1069 16.7262 13.7828 16.9082 13.6042 17.2014L12.4753 19.0553C10.5219 19.0588 8.88521 17.5582 8.88304 15.5775L8.8831 11.0244C9.98557 10.7906 10.4322 9.80588 10.5561 9.03786C13.1169 9.03681 14.5288 7.55449 15.296 5.97075H18.4318C19.9131 5.97075 21.1183 7.17587 21.1183 8.65719V15.5775C21.1598 17.4709 19.4533 19.1013 17.526 19.0553L16.397 17.2013Z" fill="#1499A2"/>
<path d="M12.3634 12.4496C12.1449 12.3435 11.8822 12.4345 11.7761 12.6528C11.6611 12.8895 11.4261 13.0365 11.1628 13.0365C10.8996 13.0365 10.6646 12.8895 10.5496 12.6528C10.4434 12.4345 10.1805 12.3435 9.96229 12.4496C9.74404 12.5556 9.6531 12.8186 9.75909 13.0369C10.0224 13.5788 10.5603 13.9154 11.1628 13.9154C11.7654 13.9154 12.3033 13.5788 12.5666 13.0369C12.6726 12.8186 12.5817 12.5556 12.3634 12.4496Z" fill="#1499A2"/>
<path d="M18.8387 13.9154C19.4412 13.9154 19.9791 13.5788 20.2424 13.0369C20.3485 12.8186 20.2575 12.5556 20.0392 12.4496C19.8206 12.3435 19.558 12.4345 19.4519 12.6528C19.3369 12.8895 19.1019 13.0365 18.8387 13.0365C18.5754 13.0365 18.3404 12.8895 18.2254 12.6528C18.1193 12.4345 17.8563 12.3435 17.6381 12.4496C17.4198 12.5556 17.3289 12.8186 17.4349 13.0369C17.6982 13.5788 18.2361 13.9154 18.8387 13.9154Z" fill="#1499A2"/>
<path d="M17.6393 10.9253C18.0143 11.2491 18.576 11.6048 19.5186 11.6048C19.6639 11.6048 19.8184 11.5963 19.982 11.5777C20.2072 11.552 20.3897 11.3672 20.3895 11.1406C20.3892 10.8722 20.1564 10.6721 19.8981 10.7027C18.7302 10.8408 18.2884 10.3266 18.2702 10.3046L18.214 10.2565C18.0565 10.1215 17.8261 10.1146 17.6608 10.24C17.4371 10.4097 17.4269 10.7419 17.6393 10.9253Z" fill="#1499A2"/>
<path d="M15.001 14.2041C14.0252 14.2041 13.4927 14.7455 13.2059 15.1883C13.0623 15.41 13.1513 15.708 13.3903 15.8206C13.5909 15.9151 13.8277 15.8436 13.9489 15.6579C14.1388 15.367 14.4449 15.083 15.001 15.083C15.3598 15.083 15.647 15.1745 15.8548 15.3551C16.0097 15.4897 16.0662 15.6301 16.0668 15.6315C16.1449 15.8342 16.3698 15.9384 16.575 15.8668L16.6288 15.848C16.8617 15.7666 16.9661 15.4977 16.8517 15.2792C16.6012 14.8007 16.0998 14.2041 15.001 14.2041Z" fill="#1499A2"/>
</g>
<defs>
<clipPath id="clip0_923_8678">
<rect width="30" height="30" fill="white"/>
</clipPath>
</defs>
</svg>
