<svg width="21" height="22" viewBox="0 0 21 22" fill="none" xmlns="http://www.w3.org/2000/svg">
<path d="M4.89606 11.0002C4.89606 14.0536 7.39425 16.5518 10.4476 16.5518C13.5009 16.5518 15.9991 14.0536 15.9991 11.0002" stroke="#1499A2" stroke-width="0.9" stroke-miterlimit="10" stroke-linecap="round" stroke-linejoin="round"/>
<path d="M6.67171 17.941C7.67099 18.8293 8.94783 19.3289 10.3357 19.3289C11.7236 19.3289 13.0005 18.8293 13.9997 17.941" stroke="#1499A2" stroke-width="0.9" stroke-miterlimit="10" stroke-linecap="round" stroke-linejoin="round"/>
<path d="M13.0007 12.7202C12.3345 13.3864 11.4462 13.8305 10.447 13.8305C9.39217 13.8305 8.3929 13.3308 7.78223 12.6091" stroke="#1499A2" stroke-width="0.9" stroke-miterlimit="10" stroke-linecap="round" stroke-linejoin="round"/>
<path d="M7.11385 15.4414V16.6072C7.11385 17.4954 6.39216 18.2171 5.50391 18.2171H3.78293C1.95092 18.2171 0.452008 19.716 0.452008 21.548" stroke="#1499A2" stroke-width="0.9" stroke-miterlimit="10" stroke-linecap="round" stroke-linejoin="round"/>
<path d="M20.4342 21.548C20.4342 19.716 18.9353 18.2171 17.1033 18.2171H15.3823C14.4941 18.2171 13.7724 17.4954 13.7724 16.6072V15.4414" stroke="#1499A2" stroke-width="0.9" stroke-miterlimit="10" stroke-linecap="round" stroke-linejoin="round"/>
<path d="M10.4447 19.3262V21.5468" stroke="#1499A2" stroke-width="0.9" stroke-miterlimit="10" stroke-linecap="round" stroke-linejoin="round"/>
<path d="M4.88985 7.66868H3.6685C3.39093 7.66868 3.22439 7.89074 3.22439 8.11281V11.0551C3.22439 11.6103 3.66851 12.1099 4.27918 12.1099H4.88985" stroke="#1499A2" stroke-width="0.9" stroke-miterlimit="10" stroke-linecap="round" stroke-linejoin="round"/>
<path d="M15.9954 7.66868H17.2167C17.4943 7.66868 17.6608 7.89074 17.6608 8.11281V11.0551C17.6608 11.6103 17.2167 12.1099 16.6061 12.1099H15.9954" stroke="#1499A2" stroke-width="0.9" stroke-miterlimit="10" stroke-linecap="round" stroke-linejoin="round"/>
<path d="M4.89606 8.77956V4.89348C4.89606 2.45081 6.89461 0.452253 9.33729 0.452253H11.5579C14.0006 0.452253 15.9991 2.45081 15.9991 4.89348V8.77956" stroke="#1499A2" stroke-width="0.9" stroke-miterlimit="10" stroke-linecap="round" stroke-linejoin="round"/>
<path d="M15.9976 5.44917H9.33575C8.11441 5.44917 7.11514 4.4499 7.11514 3.22856" stroke="#1499A2" stroke-width="0.9" stroke-miterlimit="10" stroke-linecap="round" stroke-linejoin="round"/>
</svg>
