<svg width="26" height="64" viewBox="0 0 26 64" fill="none" xmlns="http://www.w3.org/2000/svg">
<path d="M19.8382 12.0445C18.3067 10.5562 16.973 10.4893 16.5169 10.5143C15.536 10.4809 14.2282 10.6649 12.8515 10.9742C12.4471 10.9575 12.2578 10.7067 12.1803 10.4057C12.2578 10.414 12.3266 10.414 12.404 10.4057C13.7893 10.3388 14.8477 8.80027 14.8993 6.87716C14.9079 6.90225 14.9251 6.91897 14.9337 6.91897C15.0628 6.93569 15.08 6.74338 15.0972 6.61796C15.1402 6.28351 15.1316 5.59788 15.0972 5.0962C15.0026 3.80855 13.8324 2.58779 12.4729 2.40384C13.058 2.12792 13.4796 1.6764 13.0408 1.05766C12.9203 0.882076 12.7224 0.748294 12.4815 0.656319C11.4834 0.263336 9.7969 0.606151 9.9862 1.74329C10.0464 2.12792 10.3476 2.44565 10.709 2.60451C10.6229 2.63796 10.5369 2.67977 10.4594 2.72157C10.3648 2.77174 10.2787 2.83027 10.2013 2.8888C8.85042 3.67477 8.0416 4.80355 8.33415 6.3922C8.4288 6.91061 8.6267 7.41229 8.83321 7.90561C9.02251 8.36548 9.4011 8.54107 9.68504 8.90897C9.70225 8.92569 9.71946 8.95078 9.73667 8.9675C9.75388 10.1966 9.65063 11.7267 8.75577 12.1532C7.81789 12.5127 6.98326 12.8806 6.39816 13.2151C2.65525 14.8539 3.88568 28.3742 7.35325 36.2088C8.0416 40.055 9.28064 43.8761 9.28064 43.8761C9.28064 43.8761 6.81978 45.2474 5.95074 46.9447C4.58264 49.6287 4.78914 53.985 3.80824 55.7994C2.552 58.1239 0.0997458 62.8815 0.555779 63.3246C0.686731 63.4519 1.22809 63.6818 1.73238 63.2458C1.89142 63.1082 2.49279 62.1615 2.67135 61.9868C3.89825 60.7866 4.89923 59.1478 5.47749 57.873C6.09701 56.5018 10.8725 48.8511 11.7415 48.0066C11.492 51.5602 12.1373 55.8412 12.1373 57.8897C12.1373 59.1192 13.4776 58.6225 14.3916 59.4092C14.5897 59.5795 14.7953 59.8552 14.9953 59.9796C15.4105 60.2376 15.8113 60.2607 16.1387 60.2607C17.281 59.4092 14.3916 57.572 14.3916 57.572C14.3916 57.572 16.0179 49.7709 16.0179 45.6822C20.0792 41.744 22.4798 31.0582 22.4798 28.2739C22.4798 27.0949 22.041 25.8825 21.344 24.8457C21.4645 24.8123 21.5591 24.7454 21.7226 24.5781C22.1184 24.1935 22.6261 23.7336 23.0047 23.3323C23.4263 22.8891 23.8307 22.4209 24.2093 21.9359C24.5448 21.5012 24.8718 21.0496 25.1299 20.573C25.3106 20.247 25.4999 19.8707 25.4999 19.4944C25.5171 17.9225 21.7398 13.8923 19.8382 12.0445ZM7.95556 27.2036C7.88673 25.6986 7.86091 23.9678 7.85231 22.0279C8.44601 23.2236 8.99669 24.1433 9.28924 24.4193C9.28924 24.4193 8.66973 25.2638 7.95556 27.2036ZM22.3937 20.0965C21.9033 20.7236 21.4042 21.3507 20.9138 21.9778C20.7159 22.2286 20.5352 22.4878 20.3287 22.7303C20.2426 22.8306 20.1222 23.0062 19.9931 23.0647C19.8726 23.1149 19.6489 22.9978 19.5113 22.9728C18.7369 22.446 17.8678 22.1366 17.0074 22.1366C17.0074 22.1366 17.6699 20.573 18.2464 18.5914C18.3497 18.5412 18.4529 18.4827 18.5304 18.4158C18.6422 18.3155 18.7455 18.2151 18.8401 18.0981C18.9004 18.0312 18.952 17.9643 19.0036 17.8891C19.1413 17.6967 19.2273 17.4626 19.3134 17.2369C20.518 18.6499 21.7742 19.7453 22.497 19.9627C22.454 20.0128 22.4196 20.0546 22.3937 20.0965Z" stroke="#1499A2"/>
</svg>
