<svg width="31" height="31" viewBox="0 0 31 31" fill="none" xmlns="http://www.w3.org/2000/svg">
<path d="M7.70996 24.9258C7.45918 24.9258 7.25586 25.129 7.25586 25.3799V30.5457C7.25586 30.7966 7.45918 30.9998 7.70996 30.9998C7.96075 30.9998 8.16406 30.7966 8.16406 30.5457V25.3799C8.16406 25.129 7.96075 24.9258 7.70996 24.9258Z" fill="#1499A2"/>
<path d="M29.9779 30.4658L29.1432 25.8006C28.8798 24.3287 27.7587 23.1988 26.3493 22.8865L26.1667 19.4724C26.1534 19.2219 25.9394 19.0319 25.689 19.0432C25.4385 19.0566 25.2464 19.2705 25.2598 19.5209L25.4352 22.8H19.8467C19.8521 22.7571 19.8558 22.7139 19.8558 22.6696V20.7059C19.8558 20.407 19.7281 20.138 19.5253 19.9483C21.4245 18.9851 22.7293 17.0132 22.7293 14.742V10.7709C22.9018 10.7814 23.0811 10.7873 23.2686 10.7873C23.5195 10.7873 23.7227 10.584 23.7227 10.3332C23.7227 10.0823 23.5195 9.87907 23.2686 9.87907C22.9222 9.87907 22.6088 9.85824 22.322 9.82046C22.3218 9.82046 22.3217 9.8204 22.3215 9.8204C20.6265 9.59698 19.888 8.76265 19.1137 7.88617C18.288 6.95151 17.4342 5.98506 15.5129 5.92802C12.9712 5.8527 11.7557 6.71156 11.3432 7.09373H10.1128C9.0964 7.09373 8.26951 7.92062 8.26951 8.93696V14.742C8.26951 17.0132 9.5743 18.9851 11.4735 19.9483C11.2706 20.138 11.143 20.407 11.143 20.7059V22.6696C11.143 22.7139 11.1467 22.7571 11.1521 22.8H5.57554L6.6164 4.87917C6.68113 3.76402 7.60671 2.89051 8.72361 2.89051C8.84434 2.89051 8.96011 2.84243 9.0453 2.75688L10.1333 1.66474C10.6195 1.17691 11.2667 0.908203 11.9556 0.908203H19.7637C22.2881 0.908203 24.3709 2.88258 24.5052 5.4032L25.1465 17.4001C25.1599 17.6506 25.3745 17.8411 25.6242 17.8294C25.8747 17.816 26.0668 17.6021 26.0535 17.3516L25.4121 5.35477C25.2521 2.35213 22.771 0 19.7637 0H11.9556C11.0235 0 10.148 0.363523 9.4899 1.02367L8.52877 1.98854C7.01976 2.08523 5.79847 3.29696 5.70971 4.82655L4.66092 22.8842C3.24618 23.1928 2.11971 24.3248 1.8556 25.8006L1.02084 30.4658C0.976701 30.7127 1.14097 30.9487 1.38788 30.9928C1.41494 30.9976 1.44182 30.9999 1.4684 30.9999C1.68413 30.9999 1.87558 30.8455 1.91488 30.6258L2.74964 25.9606C2.98316 24.6554 4.11491 23.7082 5.44076 23.7082H22.8352V30.5458C22.8352 30.7966 23.0385 30.9999 23.2893 30.9999C23.5402 30.9999 23.7434 30.7966 23.7434 30.5458V23.7082H25.558C26.8838 23.7082 28.0157 24.6555 28.2492 25.9606L29.0839 30.6258C29.1232 30.8456 29.3146 30.9999 29.5304 30.9999C29.5569 30.9999 29.5838 30.9976 29.6109 30.9928C29.8577 30.9486 30.0221 30.7127 29.9779 30.4658ZM9.17772 14.742V8.93696C9.17772 8.42134 9.59718 8.00194 10.1128 8.00194H11.5342C11.6578 7.99976 11.7988 7.94968 11.8935 7.8255C11.9018 7.81485 12.7962 6.75637 15.4859 6.83586C17.014 6.88115 17.6716 7.62552 18.433 8.4874C18.7944 8.89658 19.1745 9.32634 19.66 9.70227L17.7509 10.5291C17.5207 10.6288 17.4149 10.8961 17.5147 11.1262C17.5889 11.2976 17.756 11.3999 17.9316 11.3999C17.9918 11.3999 18.053 11.3879 18.1118 11.3624L20.6117 10.2797C20.9623 10.4399 21.3608 10.5703 21.8211 10.6589V14.742C21.8211 17.4577 19.6116 19.6673 16.8958 19.6673H14.1031C11.3872 19.6673 9.17772 17.4578 9.17772 14.742ZM12.1816 22.8C12.1096 22.8 12.0512 22.7415 12.0512 22.6696V20.7059C12.0512 20.634 12.1097 20.5755 12.1816 20.5755H18.8173C18.8892 20.5755 18.9476 20.634 18.9476 20.7059V22.6696C18.9476 22.7415 18.8891 22.8 18.8173 22.8H12.1816Z" fill="#1499A2"/>
<path d="M13.0665 11.3998C13.242 11.3998 13.4092 11.2975 13.4834 11.1261C13.5831 10.896 13.4773 10.6286 13.2472 10.529L10.6718 9.41355C10.4415 9.31377 10.1742 9.4196 10.0746 9.64974C9.97496 9.87988 10.0807 10.1473 10.3108 10.2469L12.8862 11.3623C12.945 11.3878 13.0062 11.3998 13.0665 11.3998Z" fill="#1499A2"/>
<path d="M14.1835 17.2972C14.524 17.2972 14.8475 17.1721 15.1006 16.9409C15.1025 16.9392 15.1044 16.9374 15.1064 16.9356C15.3163 16.7372 15.6845 16.7371 15.8943 16.9355C15.8962 16.9372 15.8981 16.9391 15.9001 16.9409C16.1688 17.1863 16.517 17.3114 16.8807 17.2957C17.2442 17.2792 17.5795 17.122 17.8249 16.8532C18.0703 16.5844 18.1963 16.2362 18.1797 15.8727C18.1632 15.5091 18.006 15.1738 17.7372 14.9284C17.1241 14.3688 16.3298 14.0605 15.5004 14.0605C14.6712 14.0605 13.8768 14.3687 13.2636 14.9284C12.7088 15.4348 12.6694 16.2982 13.1758 16.8531C13.4211 17.1219 13.7564 17.2791 14.1199 17.2957C14.1412 17.2968 14.1624 17.2972 14.1835 17.2972ZM13.8758 15.5993C14.3213 15.1927 14.8982 14.9689 15.5004 14.9689C16.1027 14.9689 16.6796 15.1928 17.1249 15.5993C17.2145 15.6811 17.2669 15.7929 17.2725 15.9141C17.278 16.0353 17.2359 16.1514 17.1542 16.241C17.0723 16.3306 16.9606 16.383 16.8394 16.3885C16.7188 16.3949 16.6039 16.3527 16.5146 16.2721C15.9543 15.7461 15.0465 15.7461 14.4862 16.2722C14.3969 16.3527 14.2815 16.3949 14.1615 16.3885C14.0403 16.383 13.9285 16.3306 13.8467 16.241C13.6777 16.056 13.6908 15.7681 13.8758 15.5993Z" fill="#1499A2"/>
<path d="M18.6456 13.7841H20.0378C20.2886 13.7841 20.4919 13.5808 20.4919 13.33C20.4919 13.0791 20.2886 12.8759 20.0378 12.8759H19.5996L19.8263 12.5969C19.9844 12.4023 19.9548 12.1163 19.7602 11.9581C19.5654 11.8 19.2795 11.8296 19.1213 12.0242L18.2931 13.0437C18.1826 13.1797 18.1602 13.367 18.2355 13.5252C18.3109 13.6833 18.4704 13.7841 18.6456 13.7841Z" fill="#1499A2"/>
<path d="M11.8763 12.0251C11.7181 11.8305 11.4321 11.801 11.2375 11.959C11.0428 12.1171 11.0133 12.4032 11.1715 12.5978L11.3981 12.8768H10.96C10.7092 12.8768 10.5059 13.08 10.5059 13.3309C10.5059 13.5817 10.7092 13.785 10.96 13.785H12.3522C12.5273 13.785 12.6869 13.6842 12.7622 13.5261C12.8375 13.3679 12.8151 13.1805 12.7046 13.0445L11.8763 12.0251Z" fill="#1499A2"/>
</svg>
