<svg width="22" height="22" viewBox="0 0 22 22" fill="none" xmlns="http://www.w3.org/2000/svg">
<path d="M11 0.916748C10.2707 0.916748 9.57118 1.20648 9.05546 1.7222C8.53973 2.23793 8.25 2.9374 8.25 3.66675V11.0001C8.25 11.7294 8.53973 12.4289 9.05546 12.9446C9.57118 13.4603 10.2707 13.7501 11 13.7501C11.7293 13.7501 12.4288 13.4603 12.9445 12.9446C13.4603 12.4289 13.75 11.7294 13.75 11.0001V3.66675C13.75 2.9374 13.4603 2.23793 12.9445 1.7222C12.4288 1.20648 11.7293 0.916748 11 0.916748Z" stroke="#1499A2" stroke-linecap="round" stroke-linejoin="round"/>
<path d="M17.4163 9.16675V11.0001C17.4163 12.7019 16.7403 14.334 15.5369 15.5373C14.3336 16.7407 12.7015 17.4167 10.9997 17.4167C9.29787 17.4167 7.66576 16.7407 6.46241 15.5373C5.25905 14.334 4.58301 12.7019 4.58301 11.0001V9.16675" stroke="#1499A2" stroke-linecap="round" stroke-linejoin="round"/>
<path d="M11 17.4167V21.0834" stroke="#1499A2" stroke-linecap="round" stroke-linejoin="round"/>
<path d="M7.33301 21.0833H14.6663" stroke="#1499A2" stroke-linecap="round" stroke-linejoin="round"/>
</svg>
