<svg width="22" height="22" viewBox="0 0 22 22" fill="none" xmlns="http://www.w3.org/2000/svg">
<path d="M16.4587 8.25378H9.75659C8.53803 8.25378 7.54102 7.25677 7.54102 6.03822" stroke="#1499A2" stroke-width="0.9" stroke-miterlimit="10" stroke-linecap="round" stroke-linejoin="round"/>
<path d="M5.38461 8.25533V11.0248C5.38461 14.0712 7.87711 16.5637 10.9235 16.5637C13.9699 16.5637 16.4624 14.0712 16.4624 11.0248V8.25533" stroke="#1499A2" stroke-width="0.9" stroke-miterlimit="10" stroke-linecap="round" stroke-linejoin="round"/>
<path d="M7.04242 17.7811L10.8643 20.9383L14.6861 17.7811" stroke="#1499A2" stroke-width="0.9" stroke-miterlimit="10" stroke-linecap="round" stroke-linejoin="round"/>
<path d="M19.2843 18.6127C20.5582 18.1696 21.4999 16.951 21.4999 15.4555C21.4999 13.6277 20.0043 12.1322 18.1765 12.1322C18.1765 12.1322 18.1765 12.1322 18.1211 12.1322V7.86723C18.1211 4.15616 15.4071 0.943594 11.7514 0.500482C7.43103 0.00198035 3.71996 3.4361 3.71996 7.64567V12.0768C1.89212 12.0768 0.452008 13.5723 0.452008 15.4001C0.452008 16.8403 1.33823 18.0588 2.61218 18.5019" stroke="#1499A2" stroke-width="0.9" stroke-miterlimit="10" stroke-linecap="round" stroke-linejoin="round"/>
<path d="M13.5225 12.7415C12.8578 13.4062 11.9716 13.8493 10.9746 13.8493C9.92219 13.8493 8.92519 13.3508 8.31591 12.6307" stroke="#1499A2" stroke-width="0.9" stroke-miterlimit="10" stroke-linecap="round" stroke-linejoin="round"/>
<path d="M7.59706 15.4551V16.6183C7.59706 17.5045 6.877 18.2245 5.99078 18.2245H4.27371C2.44587 18.2245 0.950369 19.72 0.950369 21.5479" stroke="#1499A2" stroke-width="0.9" stroke-miterlimit="10" stroke-linecap="round" stroke-linejoin="round"/>
<path d="M20.8919 21.5479C20.8919 19.72 19.3964 18.2245 17.5686 18.2245H15.8515C14.9653 18.2245 14.2452 17.5045 14.2452 16.6183V15.4551" stroke="#1499A2" stroke-width="0.9" stroke-miterlimit="10" stroke-linecap="round" stroke-linejoin="round"/>
</svg>
