<svg width="21" height="21" viewBox="0 0 21 21" fill="none" xmlns="http://www.w3.org/2000/svg">
<g clip-path="url(#clip0_943_3580)">
<path d="M14.6998 0.0361328H6.30021C2.82627 0.0361328 1.31119e-09 2.8624 1.31119e-09 6.33638V10.2273C-4.11752e-05 11.4193 0.969747 12.3891 2.16176 12.3891H2.47059V13.0068C2.80939 23.621 18.1941 23.6132 18.5294 13.0068V12.3891H18.8382C20.0302 12.3891 21 11.4193 21 10.2274V6.33638C21 2.8624 18.1737 0.0361328 14.6998 0.0361328ZM6.30021 1.27143H14.6998C17.4926 1.27143 19.7647 3.54359 19.7647 6.33638V8.27456C19.1851 7.99843 18.7152 8.08016 18.5294 8.06555V4.97731H17.2941C17.2941 6.2747 16.2543 6.67428 15.4412 6.78821V4.97731H14.2059C14.2059 6.2747 13.1661 6.67428 12.3529 6.78821V4.97731H11.1176C11.1176 6.2747 10.0778 6.67428 9.26471 6.78821V4.97731H8.02941C8.02941 6.64969 6.30165 6.83025 5.55882 6.83025H2.47059V8.06555C2.28101 8.08049 1.81395 7.99888 1.23529 8.27456V6.33638C1.23529 3.54359 3.50741 1.27143 6.30021 1.27143ZM2.16176 11.1538C0.937053 11.1147 0.937959 9.33955 2.16176 9.30084H2.47059V11.1538H2.16176ZM17.2941 13.0068C17.0074 21.988 3.98959 21.9814 3.70588 13.0068C3.70588 12.4308 3.70588 8.81685 3.70588 8.06555H5.55882C6.54097 8.06555 7.39229 7.83681 8.02941 7.40421V8.06555C8.34322 8.03627 9.89046 8.23742 11.1176 7.40421V8.06555C11.4315 8.03627 12.9787 8.23742 14.2059 7.40421V8.06555C14.5197 8.03627 16.0669 8.23742 17.2941 7.40421V12.3891V13.0068ZM18.8382 11.1538H18.5294V9.30084H18.8382C20.0629 9.33992 20.0621 11.1151 18.8382 11.1538Z" fill="#1499A2"/>
<path d="M5.51873 11.6729L6.75402 11.6729C6.78004 10.8564 7.96354 10.857 7.98932 11.6729L9.22461 11.6729C9.14646 9.22339 5.5961 9.2252 5.51873 11.6729Z" fill="#1499A2"/>
<path d="M13.5472 11.0552C13.8878 11.0552 14.1649 11.3323 14.1649 11.6729L15.4001 11.6729C15.322 9.22339 11.7716 9.2252 11.6943 11.6729L12.9296 11.6729C12.9296 11.3323 13.2066 11.0552 13.5472 11.0552Z" fill="#1499A2"/>
<path d="M9.88281 11.7715H11.1181V13.6244H9.88281V11.7715Z" fill="#1499A2"/>
</g>
<defs>
<clipPath id="clip0_943_3580">
<rect width="21" height="21" fill="white"/>
</clipPath>
</defs>
</svg>
