<svg width="83" height="65" viewBox="0 0 83 65" fill="none" xmlns="http://www.w3.org/2000/svg">
<path d="M36.0719 18.5126C28.8589 18.5997 24.7247 28.8149 29.9774 31.5122C35.23 34.2094 39.1146 45.6021 44.5657 44.4997C47.9842 43.8089 48.33 32.9089 47.1664 28.1902C46.2855 24.6249 43.0202 18.4285 36.0719 18.5126Z" fill="#7F7F91"/>
<path d="M65.7898 44.476C63.2251 53.7091 54.4096 52.3545 51.7487 49.468C44.7312 41.8509 52.5545 37.3365 50.507 31.0019C48.6669 25.3131 43.5015 13.3017 55.1432 13.9414C63.4175 14.395 71.286 24.6883 65.7898 44.476Z" fill="#F9F9F9"/>
<path d="M36.2277 47.2903C39.1773 42.815 43.0168 48.1644 46.8232 50.1257C51.688 52.6307 54.2045 60.3169 50.0313 62.2933C45.9272 64.2336 31.7117 54.1385 36.2277 47.2903Z" fill="#66C1BD"/>
<path d="M47.9814 10.9942C48.9315 7.9726 45.8015 4.45238 42.9572 5.52767C31.2944 9.94296 30.657 14.8779 41.2675 15.5837C44.5087 15.8 47.2177 13.4151 47.9814 10.9942Z" fill="#1499A2"/>
<path d="M0.501085 64.3963C4.13012 64.9399 10.4501 61.8853 10.3539 58.6714C10.2577 55.4576 5.42899 56.5989 6.59558 59.0589C7.76216 61.5188 15.7869 63.2699 21.1478 55.9832C27.0799 47.9215 20.5976 41.4458 23.8387 23.3161C27.0799 5.18634 37.1883 0.131277 46.7825 0.521745C56.3768 0.909209 62.8591 19.6877 58.3191 17.2278C53.779 14.7678 47.9491 20.4656 45.1499 25.5177C42.3507 30.5698 39.78 42.6142 35.6339 47.6632C31.4877 52.7123 25.0053 58.0287 26.5598 60.8731C28.1142 63.7235 34.5966 62.2968 36.2171 57.44C37.5671 53.3911 36.8004 48.1168 37.1883 48.309C37.5762 48.5012 42.4379 57.9235 48.5655 58.314C53.2138 58.6084 54.6269 56.1514 55.8266 54.151C56.9601 52.2587 55.2572 52.5231 53.6527 52.7754C52.856 53.4452 52.7469 54.316 50.089 54.3491C47.4311 54.3821 45.7557 52.6702 44.7584 52.6702C44.2413 52.1837 44.3629 52.3669 45.7557 52.3669C46.9382 52.5201 46.3977 52.9706 49.7982 52.7754C53.1987 52.5801 52.1654 52.7754 52.9521 52.5717C53.7152 52.3742 54.0226 52.2884 55.0285 52.0635C54.3321 51.8649 52.5734 51.4868 51.2985 51.8142C50.9287 51.9103 50.6671 52.0635 50.5409 52.0635C50.3965 52.0635 49.9966 51.9464 49.687 51.9434C48.9864 51.9374 48.1716 52.0335 47.7537 51.9644C46.6803 51.7902 43.8986 52.4944 43.8961 50.2493C42.9851 49.2131 42.91 45.6989 47.1704 45.5217C48.7248 45.4556 45.8084 45.78 47.1704 47.5942C48.5324 49.4083 50.0237 50.3785 51.1241 49.8619C52.2276 49.3453 54.3082 48.1678 53.6527 46.3657C53.0574 44.7287 52.2276 43.9688 52.0983 41.638C51.969 39.3072 52.5764 37.5982 53.9775 37.3639C55.9228 37.0395 56.6804 38.9168 56.464 38.8927C56.2475 38.8717 56.461 37.6943 56.7646 37.7093C57.1705 37.7273 57.8831 38.8777 57.6877 38.8777C57.4922 38.8777 57.5313 37.8595 57.829 37.8385C58.1266 37.8174 58.9896 38.7335 58.752 38.7666C58.4935 38.8026 58.277 37.7093 58.5806 37.7093C58.8843 37.7093 60.0509 38.6374 59.7893 38.6584C59.5277 38.6795 58.9685 37.6222 59.3353 37.5141C59.7021 37.4059 60.7033 38.1388 60.5891 38.1568C60.4748 38.1749 59.8434 37.3789 60.0389 37.0725C60.2343 36.7662 61.5783 37.478 61.3197 37.46C61.0611 37.445 60.3305 36.634 60.3786 36.3907C60.4267 36.1474 61.9601 36.4328 61.8519 36.5199C61.7316 36.616 60.5711 36.1474 60.6522 35.775C60.7334 35.4025 61.5121 34.4955 61.6084 34.2702C61.7046 34.0449 63.3101 32.1166 62.6607 31.5009C62.0112 30.8851 59.3564 32.3088 58.6107 32.9246C57.8651 33.5403 55.0448 34.7387 54.2691 34.8018C53.4904 34.8679 51.3857 18.7115 57.9974 20.0692C64.609 21.4298 63.7341 30.4286 64.0257 33.3451C64.3173 36.2616 63.5386 42.2808 60.9138 46.3597C58.289 50.4386 56.5361 56.5239 59.2271 59.957C62.2728 63.8436 75.8208 62.9365 72.0204 49.3362C68.9506 38.3521 71.4552 23.1238 64.8014 11.7792C61.0431 5.36955 56.8669 2.53716 54.5487 1.89739C53.0484 1.4829 62.0924 10.0341 61.885 16.2486C61.7888 19.1621 67.33 28.5273 68.4004 36.8413C69.7053 46.9874 60.2644 55.0401 65.3216 60.9932C67.8652 63.9878 78.9988 61.3176 75.1744 58.7255C72.8142 57.1276 70.3126 65.006 82.4986 64.3843" stroke="#3B3B4A" stroke-miterlimit="10" stroke-linecap="round" stroke-linejoin="round"/>
</svg>
