<svg width="30" height="30" viewBox="0 0 30 30" fill="none" xmlns="http://www.w3.org/2000/svg">
<g clip-path="url(#clip0_923_8370)">
<path d="M11.5503 25.5928H9.5332C9.29051 25.5928 9.09375 25.7895 9.09375 26.0322C9.09375 26.275 9.29051 26.4717 9.5332 26.4717H11.5503C11.793 26.4717 11.9897 26.275 11.9897 26.0322C11.9897 25.7895 11.793 25.5928 11.5503 25.5928Z" fill="#1499A2"/>
<path d="M22.5391 27.085C22.2964 27.085 22.0996 27.2817 22.0996 27.5244V29.561C22.0996 29.8037 22.2964 30.0004 22.5391 30.0004C22.7818 30.0004 22.9785 29.8037 22.9785 29.561V27.5244C22.9785 27.2817 22.7818 27.085 22.5391 27.085Z" fill="#1499A2"/>
<path d="M29.016 29.5059L28.0731 21.9724C27.8634 20.297 26.432 19.0335 24.7435 19.0335L20.2794 19.0337C21.4797 18.1675 22.1135 16.5801 21.9975 15.0907C23.0543 15.0424 23.9381 14.3213 24.2303 13.3467C24.9911 13.2272 25.8104 12.5968 25.9794 11.7462C26.1608 10.9617 25.9239 10.0775 25.6019 9.41367C26.1453 9.10956 26.9522 8.46573 26.8782 7.34815C26.7901 6.02585 25.8577 4.64501 24.4676 3.73955C24.6627 3.25966 24.8598 2.41918 24.3874 1.54384C24.0814 0.977167 22.9787 0.290673 20.8017 0.0633852C19.6471 -0.057261 17.3814 -0.106246 15.0009 0.880193C12.6205 -0.106129 10.3547 -0.0571438 9.20019 0.0633852C7.02322 0.290673 5.92053 0.977167 5.6145 1.54389C5.14211 2.41918 5.33922 3.2596 5.53434 3.73955C4.14412 4.64501 3.21183 6.02585 3.1237 7.34833C3.04964 8.46579 3.8566 9.10962 4.40006 9.41367C4.07791 10.0774 3.84113 10.9617 4.02254 11.7462C4.20729 12.5617 4.88394 13.1788 5.77159 13.3467C6.0638 14.3213 6.94764 15.0424 8.00439 15.0907C7.88849 16.6415 8.54545 18.1607 9.72654 19.0337L5.25842 19.0335C3.56996 19.0335 2.13855 20.297 1.92884 21.9724L0.985878 29.5059C0.955701 29.7467 1.1265 29.9664 1.36733 29.9966C1.38584 29.9989 1.40424 30 1.42247 30C1.64085 30 1.83017 29.8374 1.858 29.6151L2.80096 22.0816C2.95577 20.845 4.01223 19.9125 5.25842 19.9125H7.02281V29.5605C7.02281 29.8033 7.21957 30 7.46227 30C7.70497 30 7.90173 29.8033 7.90173 29.5605V19.9125H11.8992V21.5512C11.8992 22.3189 12.5238 22.9436 13.2916 22.9436H16.7105C17.4782 22.9436 18.1029 22.3189 18.1029 21.5512V19.9125H22.1003V25.4645C22.1003 25.7072 22.2971 25.9039 22.5398 25.9039C22.7825 25.9039 22.9792 25.7072 22.9792 25.4645V19.9124H24.7436C25.9898 19.9124 27.0463 20.8449 27.2011 22.0815L28.1439 29.6151C28.1718 29.8374 28.3611 30 28.5795 30C28.5977 30 28.6161 29.9988 28.6346 29.9965C28.8754 29.9664 29.0462 29.7467 29.016 29.5059ZM21.9976 14.2105V11.0788C22.8107 11.1369 23.4544 11.817 23.4544 12.6447C23.4545 13.4722 22.8107 14.1524 21.9976 14.2105ZM8.00422 14.2105C7.19116 14.1524 6.54744 13.4722 6.54744 12.6446C6.54744 11.817 7.19116 11.1369 8.00422 11.0787V14.2105ZM17.2238 21.5512C17.2238 21.8343 16.9935 22.0646 16.7104 22.0646H13.2914C13.0083 22.0646 12.778 21.8343 12.778 21.5512V19.4725C12.778 19.2297 12.5812 19.033 12.3385 19.033C10.4333 19.033 8.88319 17.4827 8.88319 15.5772V11.0221C9.75496 10.871 10.4368 9.97079 10.5513 9.03726C12.4081 9.05853 13.606 8.21096 14.2994 7.46657C15.1002 6.6067 15.4053 5.70669 15.4179 5.66877C15.4944 5.43844 15.3698 5.18971 15.1394 5.11318C14.9091 5.0366 14.6604 5.16129 14.5839 5.39162C14.5814 5.39906 14.328 6.14626 13.6562 6.8675C12.7639 7.8257 11.5975 8.25379 10.1901 8.14123C10.068 8.13109 9.94762 8.17375 9.8575 8.25655C9.76744 8.33934 9.71594 8.45682 9.71547 8.57917C9.69789 9.56695 9.11517 10.3194 8.1173 10.1957C6.84457 10.1957 5.79596 11.1718 5.67959 12.4146C5.36893 12.3236 4.9512 11.9587 4.87872 11.5482C4.72644 10.8897 5.03347 9.99932 5.3831 9.45076C5.45541 9.33732 5.471 9.19675 5.42676 9.06972C5.38252 8.94275 5.28174 8.84267 5.15464 8.79872C5.15131 8.79755 4.81896 8.68089 4.50952 8.43139C4.14108 8.13432 3.97461 7.79904 4.00063 7.40657C4.07574 6.27968 5.00904 5.02675 6.32302 4.28881C6.42878 4.2294 6.50455 4.12785 6.53373 4.01008C6.56285 3.8923 6.54129 3.76662 6.47542 3.66472C6.45298 3.63009 5.93184 2.80637 6.38788 1.96138C6.55916 1.64427 7.57319 1.11692 9.29142 0.937499C10.3884 0.822888 12.566 0.777536 14.8256 1.76052C14.9374 1.80915 15.0644 1.80915 15.1762 1.76052C17.4359 0.777653 19.6137 0.823122 20.7104 0.937557C22.4287 1.11697 23.4427 1.64432 23.6139 1.96138C24.07 2.80643 23.5489 3.63015 23.5278 3.66267C23.4603 3.76451 23.4381 3.8899 23.4668 4.00867C23.4954 4.12744 23.5723 4.22905 23.6788 4.28881C24.9928 5.02675 25.9262 6.27968 26.0012 7.4064C26.0648 8.36612 24.897 8.78149 24.8487 8.79819C24.7208 8.84138 24.6198 8.94105 24.5749 9.06843C24.53 9.19587 24.5462 9.33679 24.6188 9.4507C24.9684 9.99926 25.2754 10.8897 25.1231 11.5481C25.0202 11.928 24.7812 12.2494 24.3223 12.4145C24.2094 11.2087 23.2188 10.2543 21.9975 10.1985V8.65604C21.9975 6.69008 20.3981 5.09068 18.4322 5.09068H17.056C16.8133 5.09068 16.6166 5.28738 16.6166 5.53014C16.6166 5.7729 16.8133 5.9696 17.056 5.9696H18.4322C19.9135 5.9696 21.1186 7.17471 21.1186 8.65604V15.5771C21.1186 16.4999 20.7593 17.3678 20.1069 18.0207C19.4541 18.6735 18.5863 19.033 17.6633 19.033C17.4206 19.033 17.2238 19.2297 17.2238 19.4724V21.5512Z" fill="#1499A2"/>
<path d="M17.8362 10.0603C17.9154 10.1204 18.0086 10.1494 18.1011 10.1494C18.2335 10.1494 18.3646 10.0899 18.4513 9.977C18.4572 9.96926 19.0512 9.20913 19.8506 9.3327C20.0907 9.36944 20.315 9.20544 20.3521 8.96555C20.3891 8.72567 20.2248 8.5012 19.985 8.46405C18.6596 8.25932 17.7866 9.3985 17.75 9.44708C17.6048 9.64049 17.6436 9.91395 17.8362 10.0603Z" fill="#1499A2"/>
<path d="M12.1714 11.9102H10.1543C9.9116 11.9102 9.71484 12.1069 9.71484 12.3496C9.71484 12.5924 9.9116 12.7891 10.1543 12.7891H12.1714C12.4141 12.7891 12.6108 12.5924 12.6108 12.3496C12.6108 12.1069 12.4141 11.9102 12.1714 11.9102Z" fill="#1499A2"/>
<path d="M17.8301 12.7891H19.8472C20.0899 12.7891 20.2866 12.5924 20.2866 12.3496C20.2866 12.1069 20.0899 11.9102 19.8472 11.9102H17.8301C17.5874 11.9102 17.3906 12.1069 17.3906 12.3496C17.3906 12.5924 17.5874 12.7891 17.8301 12.7891Z" fill="#1499A2"/>
<path d="M17.5066 14.6543C17.5066 14.4115 17.3098 14.2148 17.0671 14.2148H12.9336C12.6909 14.2148 12.4941 14.4115 12.4941 14.6543C12.4941 14.8971 12.6909 15.0938 12.9336 15.0938H17.0671C17.3098 15.0938 17.5066 14.8971 17.5066 14.6543Z" fill="#1499A2"/>
</g>
<defs>
<clipPath id="clip0_923_8370">
<rect width="30" height="30" fill="white"/>
</clipPath>
</defs>
</svg>
