<svg width="31" height="32" viewBox="0 0 31 32" fill="none" xmlns="http://www.w3.org/2000/svg">
<g clip-path="url(#clip0_923_8251)">
<path d="M28.4502 25.977C28.2107 24.5679 27.0498 23.5451 25.6899 23.5451H25.6581L24.9813 10.2202C25.1273 10.3228 25.2952 10.3767 25.4668 10.3767C25.5953 10.3767 25.7258 10.3468 25.8502 10.2857C26.2048 10.1114 26.405 9.73427 26.3601 9.32503L26.186 7.73547L28.199 6.04572C28.5004 5.79278 28.6129 5.38191 28.4856 4.99891C28.3583 4.61591 28.027 4.36847 27.6416 4.36847H25.842L24.8511 0.684853C24.7448 0.289479 24.4241 0.021042 24.0341 0.00110457C23.644 -0.0181454 23.3002 0.215542 23.158 0.598291L22.5869 2.13435L20.8875 1.8691C20.5341 1.81385 20.1952 1.97654 20.0028 2.29329C19.8123 2.60716 19.813 2.99466 20.0034 3.30754C19.7958 3.28285 19.5865 3.26979 19.3759 3.26979H11.7287C10.8155 3.26979 9.95764 3.64491 9.31354 4.32585L8.37233 5.31984C6.89413 5.41959 5.69796 6.66903 5.61098 8.24615L4.86351 21.7899C4.84926 22.0484 5.03671 22.2701 5.28222 22.2851C5.29101 22.2856 5.29974 22.2859 5.30847 22.2859C5.54258 22.2859 5.73887 22.0935 5.75259 21.8443L6.50006 8.30065C6.56341 7.15134 7.46971 6.25109 8.56328 6.25109C8.68167 6.25109 8.79514 6.20147 8.87868 6.11322L9.94446 4.9876C10.4204 4.48447 11.0541 4.20741 11.7287 4.20741H19.376C19.8229 4.20741 20.2633 4.27447 20.6877 4.40578L21.5199 5.74066L20.6989 7.61315C20.5428 7.96909 20.6094 8.38109 20.8686 8.66265C21.1277 8.94415 21.5167 9.02709 21.8598 8.87428L23.1978 8.27722L24.0381 9.20959L24.7663 23.5452H19.6289C21.2221 22.4767 22.2811 20.6006 22.2811 18.469V16.0669C22.2811 15.808 22.0817 15.5982 21.8358 15.5982C21.5898 15.5982 21.3904 15.808 21.3904 16.0669V18.469C21.3904 21.2556 19.2465 23.5243 16.6038 23.5452H13.7955C11.1527 23.5243 9.00877 21.2557 9.00877 18.469V12.4843C9.00877 11.9531 9.41934 11.521 9.92403 11.521H11.3161C11.4595 11.521 11.5867 11.4493 11.6681 11.3386L11.6685 11.3389L11.6644 11.3443C11.6731 11.3331 12.5597 10.2365 15.1864 10.3188C16.6828 10.3655 17.3267 11.1328 18.0723 12.0213C18.4247 12.4411 18.7951 12.8821 19.2673 13.2684L17.4041 14.1178C17.1784 14.2207 17.0747 14.4967 17.1724 14.7342C17.2452 14.9111 17.4091 15.0168 17.5813 15.0168C17.6403 15.0168 17.7004 15.0043 17.758 14.978L20.1983 13.8656C20.8605 14.1856 21.6959 14.3925 22.8087 14.3925C23.0547 14.3925 23.254 14.1826 23.254 13.9237C23.254 13.6648 23.0547 13.455 22.8087 13.455C20.464 13.455 19.6265 12.457 18.7398 11.4006C17.931 10.4369 17.0947 9.44046 15.2127 9.38165C12.7238 9.30353 11.5329 10.1892 11.1287 10.5835H9.92397C8.9282 10.5835 8.11808 11.4362 8.11808 12.4843V18.469C8.11808 20.6006 9.17709 22.4767 10.7703 23.5452H4.70913C3.34921 23.5452 2.18831 24.5679 1.94886 25.977L1.01875 31.4487C0.975464 31.7035 1.13655 31.9471 1.37868 31.9927C1.40522 31.9977 1.43158 32 1.45765 32C1.6692 32 1.85694 31.8407 1.89548 31.6138L2.82559 26.1421C2.98899 25.1805 3.78116 24.4826 4.70919 24.4826H7.12486V31.5312C7.12486 31.7901 7.32424 31.9999 7.57017 31.9999C7.8161 31.9999 8.01548 31.7901 8.01548 31.5312V24.4826H22.3837V31.5312C22.3837 31.7901 22.5831 31.9999 22.829 31.9999C23.0749 31.9999 23.2743 31.7901 23.2743 31.5312V24.4826H25.2321C25.2333 24.4826 25.2344 24.4828 25.2356 24.4828C25.2378 24.4828 25.24 24.4827 25.2422 24.4826H25.69C26.6179 24.4826 27.4101 25.1805 27.5736 26.1421L28.5037 31.6138C28.5423 31.8407 28.73 32 28.9415 32C28.9675 32 28.9939 31.9977 29.0205 31.9927C29.2626 31.9471 29.4238 31.7035 29.3804 31.4487L28.4502 25.977ZM23.3082 7.2499C23.2497 7.2499 23.1906 7.26203 23.1345 7.28709L21.5123 8.01347C21.5099 8.0124 21.5061 8.00828 21.5075 8.0059L22.432 5.89728C22.4964 5.75041 22.4843 5.57891 22.4 5.44366L20.7515 2.80235C20.7518 2.80016 20.7543 2.79591 20.7568 2.79647L22.807 3.11647C23.0123 3.14866 23.2114 3.02704 23.287 2.8236L23.9873 0.939853C23.9876 0.938915 23.988 0.938165 23.9883 0.937415C23.9899 0.937415 23.9918 0.937353 23.9934 0.937728C23.9936 0.938415 23.9939 0.939228 23.9941 0.940165L25.0767 4.96485C25.1309 5.16666 25.3059 5.30591 25.5051 5.30591H27.6414C27.6424 5.30591 27.6432 5.30591 27.6439 5.30597C27.6446 5.30747 27.6452 5.30934 27.6455 5.31097C27.645 5.31147 27.6443 5.31203 27.6436 5.31259L25.4375 7.1644C25.3174 7.26522 25.2552 7.42403 25.2727 7.58465L25.4752 9.43234C25.4753 9.43334 25.4754 9.43415 25.4754 9.43496C25.474 9.43584 25.4724 9.43665 25.4707 9.43721C25.4702 9.43665 25.4696 9.43603 25.469 9.4354L23.6313 7.39603C23.5455 7.30078 23.428 7.2499 23.3082 7.2499Z" fill="#1499A2"/>
<path d="M12.9902 20.9639H17.4081C17.654 20.9639 17.8534 20.7541 17.8534 20.4952V19.6689C17.8534 18.5053 17.0135 17.5938 15.9413 17.5938H14.5164C13.4293 17.5938 12.5449 18.5247 12.5449 19.6689V20.4952C12.5449 20.7541 12.7443 20.9639 12.9902 20.9639ZM13.4355 19.6689C13.4355 19.0416 13.9204 18.5312 14.5164 18.5312H15.9414C16.5237 18.5312 16.9628 19.0203 16.9628 19.6689V20.0264H13.4356V19.6689H13.4355Z" fill="#1499A2"/>
<path d="M12.8168 15.0172C12.989 15.0172 13.153 14.9115 13.2257 14.7346C13.3234 14.4971 13.2197 14.2211 12.994 14.1182L10.472 12.9685C10.2461 12.8654 9.98412 12.9747 9.88639 13.2123C9.78866 13.4499 9.89239 13.7259 10.1181 13.8287L12.6401 14.9784C12.6978 15.0047 12.7578 15.0172 12.8168 15.0172Z" fill="#1499A2"/>
<path d="M19.4808 16.3291C19.4808 16.0702 19.2815 15.8604 19.0355 15.8604H17.5801C17.3341 15.8604 17.1348 16.0702 17.1348 16.3291C17.1348 16.588 17.3341 16.7979 17.5801 16.7979H19.0355C19.2815 16.7979 19.4808 16.588 19.4808 16.3291Z" fill="#1499A2"/>
<path d="M11.3164 16.7979H12.7719C13.0178 16.7979 13.2172 16.588 13.2172 16.3291C13.2172 16.0702 13.0178 15.8604 12.7719 15.8604H11.3164C11.0705 15.8604 10.8711 16.0702 10.8711 16.3291C10.8711 16.588 11.0705 16.7979 11.3164 16.7979Z" fill="#1499A2"/>
<path d="M28.8769 12.6674L29.2564 12.268C29.4303 12.0848 29.4303 11.7881 29.2564 11.605C29.0825 11.422 28.8005 11.422 28.6266 11.605L28.2471 12.0045L27.8676 11.605C27.6937 11.422 27.4117 11.422 27.2379 11.605C27.0639 11.7881 27.0639 12.0849 27.2379 12.268L27.6173 12.6674L27.2379 13.0668C27.0639 13.25 27.0639 13.5467 27.2379 13.7298C27.3248 13.8213 27.4388 13.867 27.5527 13.867C27.6667 13.867 27.7807 13.8213 27.8676 13.7298L28.2471 13.3303L28.6266 13.7298C28.7136 13.8213 28.8276 13.867 28.9415 13.867C29.0554 13.867 29.1694 13.8213 29.2564 13.7298C29.4303 13.5466 29.4303 13.2499 29.2564 13.0668L28.8769 12.6674Z" fill="#1499A2"/>
<path d="M3.87848 4.47977C3.9654 4.57127 4.0794 4.61702 4.19334 4.61702C4.30729 4.61702 4.42129 4.57127 4.50821 4.47977L4.88768 4.08034L5.26714 4.47977C5.35407 4.57127 5.46807 4.61702 5.58201 4.61702C5.69595 4.61702 5.80995 4.57127 5.89687 4.47977C6.07078 4.29665 6.07078 3.9999 5.89687 3.81684L5.51741 3.4174L5.89687 3.01796C6.07078 2.83484 6.07078 2.53809 5.89687 2.35502C5.72296 2.17202 5.44099 2.17202 5.26714 2.35502L4.88768 2.75446L4.50821 2.35502C4.3343 2.17202 4.05233 2.17202 3.87848 2.35502C3.70457 2.53815 3.70457 2.8349 3.87848 3.01796L4.25794 3.4174L3.87848 3.81684C3.70457 3.9999 3.70457 4.29665 3.87848 4.47977Z" fill="#1499A2"/>
</g>
<defs>
<clipPath id="clip0_923_8251">
<rect width="30.4" height="32" fill="white"/>
</clipPath>
</defs>
</svg>
