<svg width="23" height="21" viewBox="0 0 23 21" fill="none" xmlns="http://www.w3.org/2000/svg">
<g clip-path="url(#clip0_923_11435)">
<path d="M20.157 8.64917C19.928 8.64917 19.7083 8.68719 19.504 8.75647V8.02881C19.504 3.60171 15.7127 0 11.0526 0C6.39252 0 2.60125 3.60171 2.60125 8.02881V8.75647C2.397 8.68719 2.17724 8.64917 1.94824 8.64917C0.873978 8.64917 0 9.47945 0 10.5V11.7356C0 12.7561 0.873978 13.5864 1.94824 13.5864C2.18354 13.5864 2.40926 13.5466 2.61831 13.4736C2.89225 17.6675 6.57019 21 11.0526 21C15.5351 21 19.213 17.6675 19.487 13.4736C19.696 13.5466 19.9217 13.5864 20.157 13.5864C21.2313 13.5864 22.1053 12.7561 22.1053 11.7356V10.5C22.1053 9.47945 21.2313 8.64917 20.157 8.64917ZM11.0526 1.23047C14.4113 1.23047 17.2364 3.44019 18.0031 6.40951C17.3785 6.34598 16.4918 6.23134 15.5684 6.03184C13.4644 5.57739 12.0664 4.87241 11.6319 4.04685C11.5222 3.83841 11.2979 3.70675 11.0526 3.70675C10.8073 3.70675 10.5831 3.83841 10.4734 4.04685C10.0389 4.87241 8.64091 5.57735 6.5369 6.03184C5.61344 6.2313 4.72673 6.34598 4.10217 6.40947C4.86886 3.44019 7.69397 1.23047 11.0526 1.23047ZM1.94824 12.356C1.58817 12.356 1.29523 12.0777 1.29523 11.7356V10.5C1.29523 10.1579 1.58817 9.87964 1.94824 9.87964C2.30832 9.87964 2.60125 10.1579 2.60125 10.5V11.7356C2.60125 12.0777 2.30832 12.356 1.94824 12.356ZM18.2088 12.9712C18.2088 16.7198 14.9986 19.7695 11.0526 19.7695C7.10671 19.7695 3.89648 16.7198 3.89648 12.9712V8.02881C3.89648 7.90687 3.90007 7.78571 3.90676 7.66537C4.55869 7.60832 5.64371 7.48556 6.806 7.23565C8.79643 6.80769 10.219 6.17913 11.0526 5.36164C11.8863 6.17917 13.3089 6.80773 15.2993 7.23565C16.4615 7.48556 17.5466 7.60832 18.1985 7.66537C18.2052 7.78575 18.2088 7.90691 18.2088 8.02881V12.9712ZM20.81 11.7356C20.81 12.0777 20.5171 12.356 20.157 12.356C19.7969 12.356 19.504 12.0777 19.504 11.7356V10.5C19.504 10.1579 19.7969 9.87964 20.157 9.87964C20.5171 9.87964 20.81 10.1579 20.81 10.5V11.7356Z" fill="#1499A2"/>
<path d="M8.35156 8.09277C8.01179 8.09277 7.73633 8.36823 7.73633 8.70801V9.68771C7.73633 10.0275 8.01179 10.3029 8.35156 10.3029C8.69134 10.3029 8.9668 10.0275 8.9668 9.68771V8.70801C8.9668 8.36823 8.69134 8.09277 8.35156 8.09277Z" fill="#1499A2"/>
<path d="M13.2949 8.09277C12.9551 8.09277 12.6797 8.36823 12.6797 8.70801V9.68771C12.6797 10.0275 12.9551 10.3029 13.2949 10.3029C13.6347 10.3029 13.9102 10.0275 13.9102 9.68771V8.70801C13.9102 8.36823 13.6347 8.09277 13.2949 8.09277Z" fill="#1499A2"/>
<path d="M11.0536 12.5392C10.8792 12.5392 10.7152 12.4712 10.5919 12.3479C10.339 12.095 9.92893 12.095 9.67601 12.3479C9.4231 12.6008 9.4231 13.0108 9.67601 13.2637C10.0439 13.6317 10.5332 13.8344 11.0536 13.8344C11.574 13.8344 12.0633 13.6317 12.4312 13.2637C12.6841 13.0108 12.6841 12.6008 12.4312 12.3479C12.1784 12.095 11.7683 12.095 11.5154 12.3479C11.392 12.4712 11.228 12.5392 11.0536 12.5392Z" fill="#1499A2"/>
<path d="M11.0536 15.8546C10.8792 15.8546 10.7152 15.7866 10.5919 15.6633C10.339 15.4104 9.92893 15.4104 9.67601 15.6633C9.4231 15.9162 9.4231 16.3263 9.67601 16.5792C10.0439 16.9472 10.5332 17.1498 11.0536 17.1498C11.574 17.1498 12.0633 16.9472 12.4312 16.5792C12.6841 16.3263 12.6841 15.9162 12.4312 15.6633C12.1784 15.4104 11.7683 15.4104 11.5154 15.6633C11.392 15.7866 11.228 15.8546 11.0536 15.8546Z" fill="#1499A2"/>
</g>
<defs>
<clipPath id="clip0_923_11435">
<rect width="22.1053" height="21" fill="white"/>
</clipPath>
</defs>
</svg>
