<svg width="21" height="21" viewBox="0 0 21 21" fill="none" xmlns="http://www.w3.org/2000/svg">
<g clip-path="url(#clip0_943_3526)">
<path d="M9.80911 12.355C9.56884 12.5953 9.56884 12.9848 9.80911 13.2251C10.1586 13.5746 10.6234 13.7672 11.1178 13.7672C11.6122 13.7672 12.077 13.5746 12.4266 13.2251C12.6668 12.9848 12.6668 12.5953 12.4266 12.355C12.1863 12.1147 11.7968 12.1147 11.5565 12.355C11.4393 12.4721 11.2835 12.5367 11.1178 12.5367C10.9521 12.5367 10.7964 12.4721 10.6792 12.355C10.4389 12.1147 10.0493 12.1147 9.80911 12.355Z" fill="#1499A2"/>
<path d="M20.377 8.15526C20.2147 6.8688 19.778 5.6273 19.1114 4.51968C20.2338 3.2034 20.3814 2.62254 20.3814 2.26271C20.3814 1.01505 19.3663 0 18.1187 0C17.8361 0 17.5564 0.0531562 17.295 0.155408C17.0335 0.0531562 16.7538 0 16.4712 0C15.8052 0 15.2056 0.289365 14.7912 0.748863C13.6453 0.258193 12.4012 0 11.1172 0C7.5882 0 4.46228 1.98257 2.87953 4.94279C1.63204 4.94296 0.617188 5.95793 0.617188 7.2055C0.617188 7.56156 0.762342 8.13455 1.85299 9.42199V20.3848C1.85299 20.7245 2.12845 21 2.46822 21H19.7666C20.1063 21 20.3818 20.7245 20.3818 20.3848V8.23225C20.3818 8.20653 20.3802 8.18081 20.377 8.15526ZM16.4712 1.23047C16.6523 1.23047 16.8306 1.27825 16.9868 1.36869C17.1774 1.47902 17.4125 1.47902 17.6031 1.36869C17.7593 1.27825 17.9376 1.23047 18.1186 1.23047C18.6867 1.23047 19.1489 1.69157 19.1509 2.2591C19.1473 2.29035 19.0826 2.68488 18.0412 3.87643C17.7741 4.18204 17.5068 4.46623 17.2949 4.68513C17.0846 4.46791 16.8196 4.18618 16.5538 3.88229C15.5075 2.6862 15.4426 2.29039 15.439 2.2591C15.4409 1.69157 15.9033 1.23047 16.4712 1.23047ZM1.84766 7.20193C1.84958 6.63436 2.31187 6.17326 2.87986 6.17326C3.0609 6.17326 3.23919 6.22109 3.39546 6.31148C3.5861 6.42178 3.82112 6.42182 4.01176 6.31148C4.16799 6.22105 4.34625 6.17326 4.52729 6.17326C5.09531 6.17326 5.5576 6.63436 5.55953 7.20193C5.55596 7.23319 5.49124 7.62772 4.44981 8.81926C4.18272 9.12483 3.91542 9.40903 3.70353 9.62793C3.49328 9.41071 3.22828 9.12897 2.96246 8.82513C1.91615 7.62903 1.85127 7.23323 1.84766 7.20193ZM3.08346 19.7695V10.7526C3.19678 10.8661 3.2679 10.935 3.27635 10.9431C3.39554 11.0581 3.54956 11.1156 3.70361 11.1156C3.85767 11.1156 4.01168 11.0581 4.13087 10.9431C4.13932 10.9349 4.21061 10.866 4.32418 10.7522V14.1761C4.32418 15.9671 5.01045 17.6612 6.25663 18.9464C6.5542 19.2533 6.87584 19.528 7.21693 19.7695H3.08346ZM11.2437 19.7684C11.202 19.7692 11.1602 19.7695 11.1183 19.7695H11.1161C11.0742 19.7695 11.0324 19.7692 10.9906 19.7684C7.99319 19.7137 5.55465 17.2051 5.55465 14.1761V9.42153C5.94864 8.95638 6.21931 8.58449 6.40408 8.28253C7.29109 8.0793 8.08379 7.83513 8.77101 7.55258C9.79423 7.13188 10.5794 6.62456 11.1172 6.03791C11.6551 6.62452 12.4404 7.13188 13.4634 7.55249C14.3634 7.9225 15.4434 8.22675 16.6797 8.45902V12.4561C16.6106 12.4497 16.5411 12.4464 16.4714 12.4464C15.2238 12.4464 14.2087 13.4615 14.2087 14.7091C14.2087 15.081 14.3663 15.6891 15.5954 17.1016C15.6452 17.1589 15.6949 17.2152 15.7443 17.2707C14.7658 18.7452 13.1135 19.7343 11.2437 19.7684ZM16.987 13.8151C17.1776 13.9254 17.4127 13.9254 17.6033 13.8151C17.7595 13.7246 17.9378 13.6769 18.1188 13.6769C18.6869 13.6769 19.1492 14.138 19.1511 14.7055C19.1475 14.7368 19.0828 15.1313 18.0414 16.3229C17.7743 16.6284 17.507 16.9126 17.2951 17.1315C17.0848 16.9143 16.8198 16.6326 16.554 16.3287C15.5077 15.1326 15.4428 14.7368 15.4392 14.7055C15.4411 14.138 15.9034 13.6769 16.4714 13.6769C16.6525 13.6769 16.8308 13.7247 16.987 13.8151ZM19.1513 19.7695H15.0174C15.3585 19.528 15.6802 19.2533 15.9777 18.9464C16.2085 18.7084 16.4199 18.4564 16.6115 18.1924C16.7616 18.3439 16.858 18.4372 16.8679 18.4467C16.9871 18.5618 17.1411 18.6193 17.2952 18.6193C17.4492 18.6193 17.6032 18.5618 17.7224 18.4467C17.7484 18.4216 18.3667 17.8236 18.9949 17.1017C19.0493 17.0391 19.101 16.9786 19.1513 16.9191V19.7695H19.1513ZM19.1513 12.6967C18.8415 12.5371 18.4907 12.4464 18.1189 12.4464C18.0491 12.4464 17.9794 12.4497 17.9102 12.4561V7.94309C17.9102 7.64224 17.6926 7.38552 17.3958 7.33618C14.2948 6.82078 12.2604 5.8841 11.6674 4.69871C11.5632 4.49031 11.3502 4.35869 11.1171 4.35869C10.8841 4.35869 10.6711 4.49035 10.5669 4.69879C10.1083 5.61606 8.78492 6.38445 6.77195 6.92426C6.63299 5.80888 5.6797 4.94275 4.52733 4.94275C4.45084 4.94275 4.37463 4.94698 4.29891 4.95469C5.75095 2.70186 8.28436 1.23047 11.1172 1.23047C12.2092 1.23047 13.2682 1.44535 14.2461 1.8546C14.2219 1.98708 14.2085 2.12334 14.2085 2.26271C14.2085 2.63464 14.3662 3.24274 15.5953 4.65523C16.2234 5.37715 16.8417 5.97524 16.8677 6.0003C16.9869 6.11535 17.1409 6.17285 17.295 6.17285C17.449 6.17285 17.603 6.11535 17.7222 6.0003C17.7371 5.9859 17.947 5.78283 18.2417 5.47624C18.711 6.34253 19.0229 7.2918 19.1513 8.27166V12.6967Z" fill="#1499A2"/>
<path d="M14.4503 9.4502H13.3983V10.2391H12.6094V11.2911H13.3983V12.08H14.4503V11.2911H15.2392V10.2391H14.4503V9.4502Z" fill="#1499A2"/>
<path d="M9.19049 12.08V11.2911H9.97944V10.2391H9.19049V9.4502H8.13856V10.2391H7.34961V11.2911H8.13856V12.08H9.19049Z" fill="#1499A2"/>
</g>
<defs>
<clipPath id="clip0_943_3526">
<rect width="21" height="21" fill="white"/>
</clipPath>
</defs>
</svg>
