<svg width="18" height="22" viewBox="0 0 18 22" fill="none" xmlns="http://www.w3.org/2000/svg">
<path d="M17.3552 17.3565V21.5479H0.451998V17.3565C0.451998 14.1957 2.23851 11.3785 4.78086 10.0043C5.88026 10.8975 7.32323 11.3785 8.8349 11.3785C10.3466 11.3785 11.7895 10.8975 12.8889 10.0043C13.576 10.3478 14.1944 10.8288 14.7441 11.4472C16.4619 12.8902 17.3552 15.0203 17.3552 17.3565Z" stroke="#1499A2" stroke-width="0.9" stroke-miterlimit="10" stroke-linecap="round" stroke-linejoin="round"/>
<path d="M8.96968 8.97256C11.3225 8.97256 13.2299 7.06521 13.2299 4.71239C13.2299 2.35957 11.3225 0.452243 8.96968 0.452243C6.61686 0.452243 4.70956 2.35957 4.70956 4.71239C4.70956 7.06521 6.61686 8.97256 8.96968 8.97256Z" stroke="#1499A2" stroke-width="0.9" stroke-miterlimit="10" stroke-linecap="round" stroke-linejoin="round"/>
<path d="M3.82077 17.3549V21.5464H14.1276V17.3549" stroke="#1499A2" stroke-width="0.9" stroke-miterlimit="10" stroke-linecap="round" stroke-linejoin="round"/>
<path d="M11.1711 11.0324L10.2779 14.468H7.66684L6.77359 11.0324" stroke="#1499A2" stroke-width="0.9" stroke-miterlimit="10" stroke-linecap="round" stroke-linejoin="round"/>
<path d="M10.2779 14.4688H7.66684L6.77359 21.5462H11.1711L10.2779 14.4688Z" stroke="#1499A2" stroke-width="0.9" stroke-miterlimit="10" stroke-linecap="round" stroke-linejoin="round"/>
</svg>
