<svg width="22" height="22" viewBox="0 0 22 22" fill="none" xmlns="http://www.w3.org/2000/svg">
<path d="M5.36429 15.5361C2.15465 18.6999 2.79658 16.9575 1.19176 18.5623C0.228867 19.5252 0.228866 20.1672 1.0542 20.9466C1.87954 21.7261 2.52147 21.7261 3.48436 20.8091C5.04333 19.2501 4.08044 19.3418 6.64815 16.7741" stroke="#1499A2" stroke-width="0.9" stroke-linecap="round" stroke-linejoin="round"/>
<path d="M12.3782 18.7924C17.4429 18.7924 21.5486 14.6867 21.5486 9.62198C21.5486 4.5573 17.4429 0.451571 12.3782 0.451571C7.31353 0.451571 3.2078 4.5573 3.2078 9.62198C3.2078 14.6867 7.31353 18.7924 12.3782 18.7924Z" stroke="#1499A2" stroke-width="0.9" stroke-linecap="round" stroke-linejoin="round"/>
<path d="M7.33749 14.6661V12.832C7.33749 11.4106 10.0428 10.5394 12.3812 10.5394C14.7197 10.5394 17.4249 11.4106 17.4249 12.832V14.6661" stroke="#1499A2" stroke-width="0.9" stroke-linejoin="round"/>
<path d="M12.8372 10.5394H11.9201C11.0489 10.5394 10.3611 10.0809 9.94847 9.39314C9.76507 9.02633 9.62751 8.65951 9.62751 8.24684V5.49572C9.62751 4.21186 10.6363 3.20311 11.9201 3.20311H12.8372C14.121 3.20311 15.1298 4.21186 15.1298 5.49572V8.24684C15.1298 8.65951 14.9922 9.02633 14.8088 9.39314C14.3961 10.0809 13.7083 10.5394 12.8372 10.5394Z" stroke="#1499A2" stroke-width="0.9" stroke-linejoin="round"/>
<path d="M14.9024 10.9974L12.3805 13.7485L9.85868 10.9974" stroke="#1499A2" stroke-width="0.9" stroke-linejoin="round"/>
<path d="M9.62751 5.49668C9.62751 5.49668 11.0031 4.9006 11.9201 5.49668C13.2957 6.41372 15.1298 5.9552 15.1298 5.9552" stroke="#1499A2" stroke-width="0.9" stroke-linejoin="round"/>
</svg>
