<svg width="21" height="21" viewBox="0 0 21 21" fill="none" xmlns="http://www.w3.org/2000/svg">
<g clip-path="url(#clip0_923_8659)">
<path d="M7.79688 17.2471L8.82468 17.9323C9.48338 16.9443 10.5856 16.3544 11.773 16.3544H12.6343V15.1191H11.773C10.1716 15.1191 8.68517 15.9146 7.79688 17.2471Z" fill="#1499A2"/>
<path d="M9.88281 11.7412H11.1181V13.5942H9.88281V11.7412Z" fill="#1499A2"/>
<path d="M8.02912 11.659V10.4238H8.96909V9.18848H5.88086V10.4238H6.79382V11.659H8.02912Z" fill="#1499A2"/>
<path d="M15.1195 10.4238V9.18848H12.0312V10.4238H12.9712V11.659H14.2065V10.4238H15.1195Z" fill="#1499A2"/>
<path d="M10.5 0.00585938C4.69951 0.00585938 0 4.70829 0 10.5059V12.3588C0 14.1667 0.658124 15.9079 1.85315 17.2618C3.00226 18.5636 4.56598 19.4193 6.27097 19.6829C8.68268 21.4439 12.34 21.419 14.7189 19.6844C16.4278 19.4226 17.9955 18.5662 19.1469 17.2619C20.3419 15.9079 21 14.1667 21 12.3588V10.5059C21 4.70241 16.3043 0.00585938 10.5 0.00585938ZM1.23529 12.3588V10.5059C1.23529 7.45073 2.75714 4.58942 5.25181 2.86981C5.6238 3.74094 6.20044 4.50414 6.93992 5.10281C6.68607 5.2384 6.41842 5.34892 6.13892 5.43345C4.34416 5.9762 3.08824 7.63084 3.08824 9.54315V13.5941C3.08824 15.0837 3.52475 16.506 4.33691 17.7151C2.4731 16.6395 1.23529 14.6211 1.23529 12.3588ZM6.13262 17.9614C4.96605 16.7952 4.32353 15.2442 4.32353 13.5941V9.54315C4.32353 8.18532 5.19676 7.00895 6.49645 6.61584C7.07296 6.44154 7.61003 6.18068 8.09805 5.83847C8.65311 6.10792 9.24362 6.2884 9.85884 6.37627L14.0511 6.97498C15.5478 7.18872 16.6765 8.49023 16.6765 10.0023V13.5941C16.7421 19.0172 9.90965 21.8455 6.13262 17.9614ZM19.7647 12.3588C19.7647 14.6248 18.5229 16.6463 16.6539 17.7205C17.4479 16.5402 17.9118 15.1203 17.9118 13.5941V10.0023C17.9118 7.86451 16.3381 6.05378 14.2257 5.75208L10.0334 5.15337C8.41919 4.92287 6.95129 3.85467 6.32536 2.23277C12.2708 -0.919458 19.9244 3.7444 19.7647 10.5059V12.3588Z" fill="#1499A2"/>
</g>
<defs>
<clipPath id="clip0_923_8659">
<rect width="21" height="21" fill="white"/>
</clipPath>
</defs>
</svg>
