<svg width="24" height="22" viewBox="0 0 24 22" fill="none" xmlns="http://www.w3.org/2000/svg">
<path d="M7.11374 19.8823L4.6711 21.5478L5.4483 14.3309L0.451998 8.50185L7.66888 7.11398L11.5549 0.452243L15.4409 7.11398L22.6578 8.50185L18.2166 14.886L18.4387 21.5478L15.9961 19.8823" stroke="#1499A2" stroke-width="0.9" stroke-miterlimit="10" stroke-linecap="round" stroke-linejoin="round"/>
<path d="M11.5545 13.2219C13.0875 13.2219 14.3302 11.9792 14.3302 10.4462C14.3302 8.91321 13.0875 7.67047 11.5545 7.67047C10.0215 7.67047 8.77876 8.91321 8.77876 10.4462C8.77876 11.9792 10.0215 13.2219 11.5545 13.2219Z" stroke="#1499A2" stroke-width="0.9" stroke-miterlimit="10" stroke-linecap="round" stroke-linejoin="round"/>
<path d="M7.11498 19.883V18.4397C7.11498 16.4411 8.7249 14.8867 10.6679 14.8867H12.3889C14.3874 14.8867 15.9418 16.4967 15.9418 18.4397V19.883" stroke="#1499A2" stroke-width="0.9" stroke-miterlimit="10" stroke-linecap="round" stroke-linejoin="round"/>
</svg>
