<svg width="20" height="21" viewBox="0 0 20 21" fill="none" xmlns="http://www.w3.org/2000/svg">
<path d="M13.1604 8.64941C12.8376 8.64941 12.5759 8.92487 12.5759 9.26465C12.5759 9.60672 12.3115 9.88501 11.9866 9.88501C11.6616 9.88501 11.3972 9.60672 11.3972 9.26465C11.3972 8.92487 11.1355 8.64941 10.8127 8.64941C10.49 8.64941 10.2283 8.92487 10.2283 9.26465C10.2283 10.2852 11.017 11.1155 11.9866 11.1155C12.9561 11.1155 13.7448 10.2852 13.7448 9.26465C13.7448 8.92487 13.4832 8.64941 13.1604 8.64941Z" fill="#1499A2"/>
<path d="M8.39578 12.355C8.16753 12.5953 8.16756 12.9848 8.39582 13.2251C8.73859 13.5859 9.18883 13.7663 9.63911 13.7663C10.0893 13.7663 10.5396 13.5859 10.8824 13.2251C11.1107 12.9848 11.1107 12.5953 10.8824 12.355C10.6541 12.1147 10.2841 12.1147 10.0558 12.355C9.82606 12.5969 9.4522 12.5969 9.22234 12.355C8.99409 12.1147 8.624 12.1148 8.39578 12.355Z" fill="#1499A2"/>
<path d="M6.81353 16.0623C6.58527 16.3025 6.58527 16.692 6.81353 16.9323C7.04174 17.1725 7.41183 17.1725 7.64009 16.9323C8.7426 15.7717 10.5365 15.7717 11.639 16.9323C11.7532 17.0525 11.9028 17.1125 12.0523 17.1125C12.2019 17.1125 12.3515 17.0525 12.4656 16.9323C12.6938 16.6921 12.6938 16.3025 12.4656 16.0623C10.9073 14.4219 8.37181 14.422 6.81353 16.0623Z" fill="#1499A2"/>
<path d="M9.04978 9.26465C9.04978 8.92487 8.78809 8.64941 8.46531 8.64941C8.14252 8.64941 7.88084 8.92487 7.88084 9.26465C7.88084 9.60672 7.61646 9.88501 7.29149 9.88501C6.96652 9.88501 6.70215 9.60672 6.70215 9.26465C6.70215 8.92487 6.44046 8.64941 6.11768 8.64941C5.79489 8.64941 5.5332 8.92487 5.5332 9.26465C5.5332 10.2852 6.32197 11.1155 7.29149 11.1155C8.26101 11.1155 9.04978 10.2852 9.04978 9.26465Z" fill="#1499A2"/>
<path d="M19.1121 2.73442C19.1121 1.22665 17.9468 4.10155e-05 16.5145 4.10155e-05C16.1679 4.10155e-05 15.8253 0.0732948 15.5079 0.213855C15.1904 0.0732948 14.8478 4.10155e-05 14.5013 4.10155e-05C14.0975 4.10155e-05 13.715 0.097576 13.3738 0.271359C12.7675 0.0925721 12.1342 0 11.4873 0L7.79036 8.20311e-05C3.95662 0.000164062 0.837646 3.28338 0.837646 7.3189V20.3848C0.837646 20.7245 1.09933 21 1.42212 21H17.8559C18.1787 21 18.4404 20.7245 18.4404 20.3848V7.31877C18.4404 6.49247 18.3107 5.68726 18.0623 4.92835C18.9902 3.67528 19.1121 3.08269 19.1121 2.73442ZM17.2714 7.31877V8.75653C17.087 8.68721 16.8886 8.64919 16.6819 8.64919C16.4751 8.64919 16.2768 8.68726 16.0924 8.75653V7.23038C16.313 6.9991 16.7122 6.572 17.1487 6.06382C17.2296 6.47209 17.2714 6.89205 17.2714 7.31877ZM17.2712 10.5V11.7356C17.2712 12.0777 17.0069 12.356 16.6819 12.356C16.3569 12.356 16.0925 12.0777 16.0925 11.7356V10.5C16.0925 10.158 16.3569 9.87966 16.6819 9.87966C17.0069 9.87966 17.2712 10.158 17.2712 10.5ZM16.4521 5.0381L16.6424 3.98404C16.6774 3.79037 16.6221 3.59079 16.4937 3.44732L15.5294 2.3698L15.9578 1.34986C16.1332 1.2716 16.3226 1.23051 16.5145 1.23051C17.3022 1.23051 17.9432 1.90513 17.9432 2.73442C17.9432 2.75485 17.9277 3.25323 16.5818 4.88265C16.5385 4.93499 16.4953 4.98679 16.4521 5.0381ZM14.7219 1.24933L14.3034 2.24564C14.2083 2.47201 14.2513 2.73623 14.4125 2.91633L15.4383 4.06259L15.1422 5.70284C14.925 5.46093 14.6815 5.18211 14.4389 4.8886C13.0881 3.2545 13.0726 2.75489 13.0726 2.73442C13.0726 1.90513 13.7135 1.23051 14.5013 1.23051C14.5755 1.23051 14.6491 1.23732 14.7219 1.24933ZM7.7904 1.23055L11.4874 1.23047C11.7608 1.23047 12.0312 1.25069 12.2973 1.28969C12.0482 1.70924 11.9036 2.20426 11.9036 2.73442C11.9036 3.14725 12.075 3.90345 13.5571 5.69628C13.7503 5.92999 13.9426 6.15344 14.1227 6.35745H3.77014C3.44735 6.35745 3.18566 6.63291 3.18566 6.97268V8.75657C3.00124 8.68726 2.80287 8.64919 2.59613 8.64919C2.38938 8.64919 2.19101 8.68726 2.00663 8.75653V7.3189C2.00659 3.96186 4.60121 1.23063 7.7904 1.23055ZM3.18547 10.5V11.7356C3.18547 12.0777 2.92109 12.356 2.59613 12.356C2.27116 12.356 2.00678 12.0777 2.00678 11.7356V10.5C2.00678 10.158 2.27116 9.87966 2.59613 9.87966C2.92109 9.87966 3.18547 10.158 3.18547 10.5ZM2.00659 19.7695V13.4791C2.19097 13.5484 2.38938 13.5864 2.59609 13.5864C2.80283 13.5864 3.00124 13.5484 3.18562 13.4791V14.1761C3.18562 15.9671 3.83758 17.6612 5.02145 18.9464C5.30398 19.2531 5.60912 19.5281 5.93295 19.7695H2.00659V19.7695ZM9.75925 19.7684C9.67926 19.7699 9.5988 19.7699 9.51872 19.7684C6.67122 19.7138 4.35461 17.2051 4.35461 14.1762V7.58792H14.9234V14.1762C14.9234 17.2051 12.6068 19.7138 9.75925 19.7684ZM13.3451 19.7695C13.6689 19.5281 13.974 19.2531 14.2566 18.9464C15.4404 17.6612 16.0924 15.9671 16.0924 14.1762V13.4791C16.2768 13.5484 16.4751 13.5864 16.6819 13.5864C16.8886 13.5864 17.087 13.5484 17.2714 13.4791V19.7695H13.3451Z" fill="#1499A2"/>
</svg>
