<svg width="21" height="21" viewBox="0 0 21 21" fill="none" xmlns="http://www.w3.org/2000/svg">
<path d="M19.7603 8.15526C19.5033 6.11752 18.5585 4.19217 17.1002 2.73381C15.3373 0.970881 12.9935 0 10.5005 0C5.80744 0 1.82675 3.50602 1.24117 8.15538C1.23793 8.18085 1.23633 8.20653 1.23633 8.23225V20.3848C1.23633 20.7245 1.51179 21 1.85156 21H19.1499C19.4897 21 19.7651 20.7245 19.7651 20.3848V8.23225C19.7651 8.20649 19.7635 8.18077 19.7603 8.15526ZM4.93799 14.1761V8.45935C6.17457 8.22687 7.25459 7.92246 8.15439 7.55258C9.17761 7.13188 9.96277 6.62456 10.5006 6.03791C11.0385 6.62452 11.8237 7.13192 12.8469 7.55254C13.7468 7.92254 14.8268 8.22679 16.0631 8.45906V14.1762C16.0631 17.2051 13.6246 19.7138 10.6271 19.7685C10.543 19.77 10.4583 19.77 10.374 19.7685C7.37653 19.7138 4.93799 17.2051 4.93799 14.1761ZM18.5347 19.7695H14.4008C14.7419 19.528 15.0635 19.2533 15.3611 18.9464C16.6073 17.6612 17.2935 15.9671 17.2935 14.1761V7.94309C17.2935 7.64224 17.0759 7.38548 16.7792 7.33618C13.6781 6.82078 11.6437 5.8841 11.0508 4.69867C10.9465 4.49027 10.7335 4.35865 10.5004 4.35869C10.2674 4.35873 10.0544 4.49039 9.95022 4.69879C9.35775 5.88373 7.32338 6.82049 4.22173 7.33659C3.92498 7.38597 3.70748 7.64269 3.70748 7.9435V14.1761C3.70748 15.9671 4.39375 17.6612 5.63993 18.9464C5.9375 19.2533 6.25914 19.528 6.60023 19.7695H2.4668V8.27154C2.99176 4.25476 6.43879 1.23047 10.5005 1.23047C12.6648 1.23047 14.6996 2.07338 16.2301 3.60388C17.4873 4.86109 18.3048 6.51742 18.5347 8.27162V19.7695Z" fill="#1499A2"/>
<path d="M12.6837 15.8814C12.4435 15.6411 12.0539 15.6411 11.8137 15.8814C11.4631 16.2319 10.997 16.425 10.5013 16.425C10.0055 16.425 9.53946 16.2319 9.18894 15.8814C8.94863 15.6411 8.55914 15.6411 8.31887 15.8814C8.0786 16.1216 8.0786 16.5112 8.31887 16.7514C8.90183 17.3344 9.6769 17.6554 10.5013 17.6554C11.3257 17.6554 12.1008 17.3344 12.6837 16.7514C12.924 16.5112 12.924 16.1216 12.6837 15.8814Z" fill="#1499A2"/>
<path d="M12.9719 11.5256C13.9925 11.5256 14.8228 10.6954 14.8228 9.6748C14.8228 9.33503 14.5473 9.05957 14.2075 9.05957C13.8677 9.05957 13.5923 9.33503 13.5923 9.6748C13.5923 10.0169 13.314 10.2952 12.9719 10.2952C12.6299 10.2952 12.3516 10.0169 12.3516 9.6748C12.3516 9.33503 12.0761 9.05957 11.7363 9.05957C11.3966 9.05957 11.1211 9.33503 11.1211 9.6748C11.1211 10.6954 11.9514 11.5256 12.9719 11.5256Z" fill="#1499A2"/>
<path d="M9.19166 12.7652C8.95139 13.0054 8.95143 13.3949 9.1917 13.6353C9.55251 13.996 10.0264 14.1764 10.5004 14.1764C10.9744 14.1764 11.4483 13.996 11.8092 13.6353C12.0494 13.395 12.0494 13.0055 11.8092 12.7652C11.5689 12.525 11.1794 12.5249 10.9391 12.7651C10.6973 13.0071 10.3036 13.007 10.0617 12.7651C9.82149 12.5249 9.43193 12.5249 9.19166 12.7652Z" fill="#1499A2"/>
<path d="M9.87939 9.6748C9.87939 9.33503 9.60393 9.05957 9.26416 9.05957C8.92439 9.05957 8.64893 9.33503 8.64893 9.6748C8.64893 10.0169 8.37063 10.2952 8.02856 10.2952C7.68649 10.2952 7.4082 10.0169 7.4082 9.6748C7.4082 9.33503 7.13274 9.05957 6.79297 9.05957C6.4532 9.05957 6.17773 9.33503 6.17773 9.6748C6.17773 10.6954 7.00801 11.5256 8.02856 11.5256C9.04912 11.5256 9.87939 10.6954 9.87939 9.6748Z" fill="#1499A2"/>
</svg>
