<svg width="18" height="21" viewBox="0 0 18 21" fill="none" xmlns="http://www.w3.org/2000/svg">
<path d="M3.66951 20.9998C2.968 20.9998 2.42838 20.4602 2.42838 19.7588C2.42838 19.1652 2.86008 18.6256 3.45366 18.5177V14.7945C3.45366 13.8233 2.91404 12.96 2.10461 12.5283C0.917448 11.8808 0.215939 11.1793 0.054053 10.4239C-0.0538711 9.93825 9.09443e-05 9.45264 0.323863 9.02096C1.18726 7.67199 3.29178 6.37697 5.18045 6.64676C6.04384 6.75468 7.231 7.24032 7.82458 9.02096C7.93251 9.34472 8.20232 9.61451 8.58006 9.72242C10.037 10.0462 12.7891 10.8555 14.4619 12.6362C16.4046 14.6866 16.2966 17.9242 14.2461 19.8667C13.4906 20.5682 12.5733 20.9459 11.44 20.9998H3.66951ZM4.69479 7.2403C3.18386 7.2403 1.56499 8.26553 0.863484 9.3447C0.647636 9.66846 0.593672 9.93826 0.701596 10.262C0.863482 10.8016 1.45706 11.3951 2.42838 11.9347C3.45366 12.4743 4.10121 13.6074 4.10121 14.7945V18.6796C4.10121 18.9494 3.88536 19.1112 3.66951 19.1112C3.34574 19.1112 3.07593 19.3811 3.07593 19.7048C3.07593 20.0286 3.34574 20.2984 3.66951 20.2984H11.3861C12.3034 20.2444 13.1129 19.9206 13.7604 19.3271C15.5412 17.6544 15.5951 14.8485 13.9223 13.0139C12.3574 11.3412 9.76722 10.5858 8.41817 10.262C7.82459 10.1541 7.39289 9.7224 7.17704 9.12886C6.79931 7.99572 6.0978 7.34821 5.07253 7.2403C4.9646 7.2403 4.80272 7.2403 4.69479 7.2403Z" fill="#1499A2"/>
<path d="M6.69159 8.05021C6.5297 8.05021 6.36781 7.94229 6.36781 7.78041C6.31385 7.61853 6.47574 7.40272 6.63762 7.40272C7.50102 7.29481 10.5769 4.48895 10.9006 2.54643C11.0086 1.89892 10.7927 1.46725 10.1991 1.19745C9.82138 0.981618 9.38969 0.981599 9.01196 1.14348C6.9614 2.00682 5.45046 7.02499 5.45046 7.07895C5.3965 7.24083 5.23461 7.34876 5.01876 7.2948C4.85688 7.24084 4.74895 7.07897 4.80292 6.86314C4.85688 6.6473 6.42178 1.5212 8.74215 0.549941C9.33573 0.280146 9.92931 0.334092 10.5229 0.603886C11.3323 1.03556 11.7101 1.73702 11.5482 2.65432C11.1704 4.81267 7.87875 7.83437 6.69159 8.05021Z" fill="#1499A2"/>
<path d="M3.66945 7.40239C3.50756 7.40239 3.34568 7.24049 3.34568 7.07862C3.29172 5.19005 3.39964 1.84462 4.80266 0.549603C5.23435 0.117932 5.82794 -0.0439446 6.42152 0.0100143C7.33887 0.117932 7.93245 0.603569 8.1483 1.46691C8.20226 1.62879 8.09434 1.84462 7.87849 1.89858C7.71661 1.95253 7.50076 1.84462 7.44679 1.62878C7.28491 1.03523 6.96114 0.711486 6.3136 0.657528C5.8819 0.603569 5.50416 0.765419 5.18039 1.03521C3.93926 2.22231 3.8853 5.62173 3.93926 7.07862C3.99322 7.24049 3.8853 7.40239 3.66945 7.40239Z" fill="#1499A2"/>
<path d="M4.69458 10.1002C4.20892 10.1002 3.77722 9.66856 3.77722 9.18293C3.77722 8.6973 4.20892 8.26562 4.69458 8.26562C5.18024 8.26562 5.61194 8.6973 5.61194 9.18293C5.61194 9.66856 5.2342 10.1002 4.69458 10.1002ZM4.69458 8.96708C4.5327 8.96708 4.42477 9.075 4.42477 9.23688C4.42477 9.39876 4.5327 9.50667 4.69458 9.50667C4.85647 9.50667 4.96439 9.39876 4.96439 9.23688C4.96439 9.075 4.85647 8.96708 4.69458 8.96708Z" fill="#1499A2"/>
<path d="M9.2817 20.9999C9.11982 20.9999 8.95793 20.838 8.95793 20.6762C8.95793 19.8128 8.74208 18.9495 8.41831 18.1941C8.04057 17.3847 7.66284 16.1436 8.09453 15.0105C8.14849 14.8486 8.36434 14.7407 8.52623 14.8486C8.68812 14.9026 8.79604 15.1184 8.68812 15.2803C8.31038 16.1976 8.63416 17.2228 8.95793 17.9243C9.38962 18.7876 9.60548 19.7589 9.60548 20.6762C9.60548 20.838 9.44359 20.9999 9.2817 20.9999Z" fill="#1499A2"/>
<path d="M5.61204 18.6797C5.45016 18.6797 5.28827 18.5178 5.28827 18.356V15.4961C5.28827 15.3343 5.45016 15.1724 5.61204 15.1724C5.77393 15.1724 5.93581 15.3343 5.93581 15.4961V18.356C5.98977 18.5178 5.82789 18.6797 5.61204 18.6797Z" fill="#1499A2"/>
<path d="M15.8109 19.8667C15.1633 19.8667 14.6237 19.543 14.2999 19.0034C14.246 18.8955 14.246 18.7336 14.2999 18.6257C14.7316 18.0321 15.0014 17.3307 15.0554 16.5752C15.0554 16.4673 15.1633 16.3054 15.2713 16.3054C15.4331 16.2515 15.595 16.2515 15.8109 16.2515C16.7822 16.2515 17.5916 17.0608 17.5916 18.0321C17.5916 19.0034 16.8362 19.8667 15.8109 19.8667ZM15.0014 18.8415C15.2173 19.0573 15.5411 19.2192 15.8109 19.2192C16.4584 19.2192 16.9441 18.7336 16.9441 18.0861C16.9441 17.4386 16.4584 16.9529 15.8109 16.9529C15.7569 16.9529 15.7569 16.9529 15.7029 16.9529C15.595 17.6544 15.3792 18.3019 15.0014 18.8415Z" fill="#1499A2"/>
<path d="M17.2139 21H0.323776C0.161889 21 0 20.8382 0 20.6763C0 20.5144 0.161889 20.3525 0.323776 20.3525H17.2139C17.3758 20.3525 17.5377 20.5144 17.5377 20.6763C17.5377 20.8382 17.3758 21 17.2139 21Z" fill="#1499A2"/>
</svg>
