<svg width="21" height="21" viewBox="0 0 21 21" fill="none" xmlns="http://www.w3.org/2000/svg">
<g clip-path="url(#clip0_923_8427)">
<path d="M7.66848 16.7307C7.42821 16.971 7.42821 17.3605 7.66848 17.6008C7.90871 17.8411 8.29828 17.8411 8.53855 17.6008C9.26223 16.8772 10.4397 16.8772 11.1633 17.6008C11.2834 17.7209 11.4409 17.781 11.5983 17.781C11.7557 17.781 11.9132 17.721 12.0333 17.6008C12.2736 17.3605 12.2736 16.971 12.0333 16.7307C10.83 15.5273 8.87188 15.5273 7.66848 16.7307Z" fill="#1499A2"/>
<path d="M11.9393 13.355C11.8221 13.4721 11.6664 13.5367 11.5006 13.5367C11.3349 13.5367 11.1792 13.4721 11.062 13.355C10.8218 13.1147 10.4322 13.1147 10.1919 13.355C9.95165 13.5953 9.95165 13.9848 10.1919 14.2251C10.5415 14.5746 11.0063 14.7672 11.5006 14.7672C11.995 14.7672 12.4598 14.5746 12.8094 14.2251C13.0496 13.9848 13.0496 13.5953 12.8094 13.355C12.5691 13.1147 12.1796 13.1147 11.9393 13.355Z" fill="#1499A2"/>
<path d="M20.7603 9.15526C20.5033 7.11756 19.5585 5.19217 18.1002 3.73386C16.3373 1.97088 13.9935 1 11.5005 1C6.80744 1 2.82675 4.50602 2.24117 9.15534C2.23793 9.18085 2.23633 9.20653 2.23633 9.23225V21.3848C2.23633 21.7245 2.51179 22 2.85156 22H20.1499C20.4897 22 20.7651 21.7245 20.7651 21.3848V9.23225C20.7651 9.20653 20.7635 9.18081 20.7603 9.15526ZM3.4668 11.4961C3.46897 11.1558 3.74624 10.8796 4.08695 10.8796C4.42902 10.8796 4.70731 11.1579 4.70731 11.5V12.7356C4.70731 13.0777 4.42902 13.356 4.08695 13.356C3.74624 13.356 3.46897 13.0798 3.4668 12.7395V11.4961ZM3.4668 20.7695V14.4792C3.6608 14.5484 3.86949 14.5864 4.08695 14.5864C4.30458 14.5864 4.51339 14.5484 4.70752 14.4791V15.1761C4.70752 16.9671 5.39379 18.6612 6.63997 19.9464C6.93754 20.2533 7.25918 20.528 7.60027 20.7695H3.4668ZM11.6271 20.7684C11.5854 20.7692 11.5436 20.7695 11.5017 20.7695H11.4995C11.4576 20.7695 11.4157 20.7692 11.3739 20.7684C8.37653 20.7137 5.93799 18.2051 5.93799 15.1761V9.31526C5.93799 8.78493 6.33576 8.34832 6.86326 8.29967L7.09286 8.27867C8.04722 8.1918 9.03401 8.10194 9.88952 7.85182C10.5703 7.65278 11.1039 7.36866 11.5006 6.99181C11.8975 7.36874 12.4312 7.65286 13.1122 7.85191C13.9678 8.10202 14.9547 8.19176 15.9091 8.27859L16.1377 8.29947C16.6653 8.34807 17.0631 8.78468 17.0631 9.3151V15.1762C17.0631 18.2051 14.6245 20.7137 11.6271 20.7684ZM19.5347 20.7695H15.4008C15.7419 20.528 16.0635 20.2533 16.3611 19.9464C17.6073 18.6612 18.2935 16.9671 18.2935 15.1761V14.4791C18.4877 14.5484 18.6965 14.5864 18.9141 14.5864C19.1317 14.5864 19.3405 14.5484 19.5347 14.4791V20.7695ZM18.2937 12.7356V11.5C18.2937 11.1579 18.572 10.8796 18.9141 10.8796C19.2562 10.8796 19.5345 11.1579 19.5345 11.5V12.7356C19.5345 13.0777 19.2562 13.356 18.9141 13.356C18.572 13.356 18.2937 13.0777 18.2937 12.7356ZM19.5347 9.75651C19.3405 9.68719 19.1317 9.64917 18.9141 9.64917C18.6965 9.64917 18.4877 9.68723 18.2935 9.75651V9.31506C18.2935 8.1448 17.4153 7.18142 16.2505 7.07417L16.0205 7.05313C14.3248 6.89891 12.5714 6.73944 12.0508 5.69871C11.9465 5.49031 11.7335 5.35869 11.5004 5.35873C11.2674 5.35877 11.0544 5.49039 10.9502 5.69883C10.43 6.73932 8.67677 6.89891 6.98126 7.05325L6.75022 7.07437C5.58566 7.18175 4.70748 8.14509 4.70748 9.31522V9.75647C4.51335 9.68715 4.30454 9.64913 4.08691 9.64913C3.86945 9.64913 3.66076 9.68715 3.46676 9.75634V9.2715C3.99176 5.2548 7.43879 2.23047 11.5005 2.23047C13.6648 2.23047 15.6996 3.07338 17.2301 4.60388C18.4873 5.86109 19.3048 7.51742 19.5347 9.27162V9.75651Z" fill="#1499A2"/>
<path d="M9.64893 10.8105V11.5001C9.64893 11.8399 9.92439 12.1153 10.2642 12.1153C10.6039 12.1153 10.8794 11.8399 10.8794 11.5001V10.1953C10.8794 9.85554 10.6039 9.58008 10.2642 9.58008H7.79297C7.4532 9.58008 7.17773 9.85554 7.17773 10.1953C7.17773 10.5351 7.4532 10.8105 7.79297 10.8105H9.64893Z" fill="#1499A2"/>
<path d="M15.2073 9.58008H12.7361C12.3963 9.58008 12.1208 9.85554 12.1208 10.1953C12.1208 10.5351 12.3963 10.8105 12.7361 10.8105H14.592V11.5001C14.592 11.8399 14.8675 12.1153 15.2073 12.1153C15.547 12.1153 15.8225 11.8399 15.8225 11.5001V10.1953C15.8225 9.8555 15.547 9.58008 15.2073 9.58008Z" fill="#1499A2"/>
</g>
<defs>
<clipPath id="clip0_923_8427">
<rect width="21" height="21" fill="white"/>
</clipPath>
</defs>
</svg>
