<svg width="20" height="21" viewBox="0 0 20 21" fill="none" xmlns="http://www.w3.org/2000/svg">
<g clip-path="url(#clip0_923_8192)">
<path d="M18.1917 8.64917C17.985 8.64917 17.7867 8.68719 17.6024 8.75647V8.02881C17.6024 3.60171 14.1807 0 9.975 0C5.76925 0 2.34763 3.60171 2.34763 8.02881V8.75647C2.16329 8.68719 1.96496 8.64917 1.75829 8.64917C0.788765 8.64917 0 9.47945 0 10.5V11.7356C0 12.7561 0.788765 13.5864 1.75829 13.5864C1.97065 13.5864 2.17436 13.5466 2.36302 13.4736C2.61026 17.6675 5.92959 21 9.975 21C14.0204 21 17.3397 17.6675 17.587 13.4736C17.7756 13.5466 17.9793 13.5864 18.1917 13.5864C19.1612 13.5864 19.95 12.7561 19.95 11.7356V10.5C19.95 9.47945 19.1612 8.64917 18.1917 8.64917ZM2.34763 11.7356C2.34763 12.0777 2.08326 12.356 1.75829 12.356C1.43332 12.356 1.16895 12.0777 1.16895 11.7356V10.5C1.16895 10.1579 1.43332 9.87964 1.75829 9.87964C2.08326 9.87964 2.34763 10.1579 2.34763 10.5V11.7356ZM9.975 1.23047C12.5584 1.23047 14.792 2.83566 15.824 5.14812C15.5603 5.20492 15.2304 5.25381 14.8812 5.25119C13.8925 5.24331 13.2266 4.8494 12.8454 4.04693C12.7464 3.83849 12.544 3.70683 12.3226 3.70683C12.1012 3.70683 11.8989 3.83849 11.7999 4.04693C11.437 4.81093 9.83317 5.24992 7.39974 5.25131C7.39576 5.25131 7.39183 5.25131 7.38785 5.25131C6.1319 5.25131 4.91838 5.1368 4.17111 5.04878C5.22219 2.7898 7.42873 1.23047 9.975 1.23047ZM16.4334 12.9712C16.4334 16.7198 13.5362 19.7695 9.975 19.7695C6.41381 19.7695 3.51658 16.7198 3.51658 12.9712V8.02881C3.51658 7.40841 3.59638 6.80736 3.74499 6.23589C4.46775 6.32904 5.88221 6.48174 7.38773 6.48174C9.77854 6.48174 11.3903 6.1078 12.2708 5.34347C12.8909 6.09148 13.7885 6.48174 14.9098 6.48174C15.4156 6.48174 15.8805 6.39979 16.2255 6.31534C16.3611 6.86294 16.4335 7.43712 16.4335 8.02877V12.9712H16.4334ZM18.7811 11.7356C18.7811 12.0777 18.5167 12.356 18.1917 12.356C17.8667 12.356 17.6024 12.0777 17.6024 11.7356V10.5C17.6024 10.1579 17.8667 9.87964 18.1917 9.87964C18.5167 9.87964 18.7811 10.1579 18.7811 10.5V11.7356Z" fill="#1499A2"/>
<path d="M8.73174 12.1743C8.50348 12.4146 8.50348 12.8041 8.73174 13.0444C9.0638 13.394 9.50535 13.5865 9.97503 13.5865C10.4447 13.5865 10.8863 13.394 11.2183 13.0444C11.4466 12.8041 11.4466 12.4146 11.2183 12.1743C10.9901 11.9341 10.62 11.9341 10.3918 12.1743C10.2804 12.2915 10.1324 12.356 9.97503 12.356C9.81761 12.356 9.66962 12.2915 9.5583 12.1743C9.33004 11.9341 8.95996 11.9341 8.73174 12.1743Z" fill="#1499A2"/>
<path d="M11.1489 16.0625H8.80127C8.47848 16.0625 8.2168 16.338 8.2168 16.6777C8.2168 17.0175 8.47848 17.293 8.80127 17.293H11.1489C11.4717 17.293 11.7334 17.0175 11.7334 16.6777C11.7334 16.338 11.4717 16.0625 11.1489 16.0625Z" fill="#1499A2"/>
<path d="M12.3227 11.5308C13.2923 11.5308 14.081 10.7005 14.081 9.67993C14.081 8.65938 13.2923 7.8291 12.3227 7.8291C11.3532 7.8291 10.5645 8.65938 10.5645 9.67993C10.5645 10.7005 11.3532 11.5308 12.3227 11.5308ZM12.3227 9.05957C12.6477 9.05957 12.9121 9.33786 12.9121 9.67993C12.9121 10.022 12.6477 10.3003 12.3227 10.3003C11.9978 10.3003 11.7334 10.022 11.7334 9.67993C11.7334 9.33786 11.9978 9.05957 12.3227 9.05957Z" fill="#1499A2"/>
<path d="M7.62743 11.5308C8.59695 11.5308 9.38572 10.7005 9.38572 9.67993C9.38572 8.65938 8.59695 7.8291 7.62743 7.8291C6.65791 7.8291 5.86914 8.65938 5.86914 9.67993C5.86914 10.7005 6.65791 11.5308 7.62743 11.5308ZM7.62743 9.05957C7.9524 9.05957 8.21677 9.33786 8.21677 9.67993C8.21677 10.022 7.9524 10.3003 7.62743 10.3003C7.30246 10.3003 7.03809 10.022 7.03809 9.67993C7.03809 9.33786 7.30246 9.05957 7.62743 9.05957Z" fill="#1499A2"/>
</g>
<defs>
<clipPath id="clip0_923_8192">
<rect width="19.95" height="21" fill="white"/>
</clipPath>
</defs>
</svg>
