<svg width="21" height="22" viewBox="0 0 21 22" fill="none" xmlns="http://www.w3.org/2000/svg">
<path d="M15.9994 7.66814H9.33756C8.11622 7.66814 7.11694 6.66886 7.11694 5.44752" stroke="#1499A2" stroke-width="0.9" stroke-miterlimit="10" stroke-linecap="round" stroke-linejoin="round"/>
<path d="M4.89595 7.66753V10.4433C4.89595 13.4967 7.39415 15.9949 10.4475 15.9949C13.5009 15.9949 15.9991 13.4967 15.9991 10.4433V7.66753" stroke="#1499A2" stroke-width="0.9" stroke-miterlimit="10" stroke-linecap="round" stroke-linejoin="round"/>
<path d="M6.61871 17.2191C7.61799 18.1628 8.95037 18.7735 10.4493 18.7735C11.9482 18.7735 13.2806 18.1628 14.2799 17.2191" stroke="#1499A2" stroke-width="0.9" stroke-miterlimit="10" stroke-linecap="round" stroke-linejoin="round"/>
<path d="M12.9987 12.1651C12.3325 12.8313 11.4443 13.2754 10.445 13.2754C9.39017 13.2754 8.39089 12.7758 7.78022 12.0541" stroke="#1499A2" stroke-width="0.9" stroke-miterlimit="10" stroke-linecap="round" stroke-linejoin="round"/>
<path d="M7.11387 14.8872V16.0531C7.11387 16.9413 6.39217 17.663 5.50392 17.663H3.78293C1.95092 17.663 0.451998 19.1619 0.451998 20.9939" stroke="#1499A2" stroke-width="0.9" stroke-miterlimit="10" stroke-linecap="round" stroke-linejoin="round"/>
<path d="M20.4362 20.9939C20.4362 19.1619 18.9372 17.663 17.1052 17.663H15.3842C14.496 17.663 13.7743 16.9413 13.7743 16.0531V14.8872" stroke="#1499A2" stroke-width="0.9" stroke-miterlimit="10" stroke-linecap="round" stroke-linejoin="round"/>
<path d="M11.5552 18.772V21.5478" stroke="#1499A2" stroke-width="0.9" stroke-miterlimit="10" stroke-linecap="round" stroke-linejoin="round"/>
<path d="M9.33818 18.772V21.5478" stroke="#1499A2" stroke-width="0.9" stroke-miterlimit="10" stroke-linecap="round" stroke-linejoin="round"/>
<path d="M7.00232 16.6628C5.17031 16.0521 3.61587 14.9418 2.39453 13.4984C2.17247 13.2764 2.11695 12.8877 2.2835 12.6102L2.94968 11.2778C3.11623 10.8892 3.22726 10.4451 3.22726 10.0009V7.66927C3.22726 3.67215 6.44717 0.452243 10.4443 0.452243C14.4414 0.452243 17.6613 3.67215 17.6613 7.66927V10.0009C17.6613 10.4451 17.7724 10.8892 17.9389 11.2778L18.6051 12.6657C18.7716 12.9433 18.7161 13.3319 18.4941 13.5539C17.2727 14.9973 15.7183 16.0521 13.8863 16.7183" stroke="#1499A2" stroke-width="0.9" stroke-miterlimit="10" stroke-linecap="round" stroke-linejoin="round"/>
</svg>
