<svg width="21" height="21" viewBox="0 0 21 21" fill="none" xmlns="http://www.w3.org/2000/svg">
<path d="M10.5017 18.0059C12.0396 18.0059 13.2908 16.7547 13.2908 15.2168C13.2908 14.877 13.0153 14.6016 12.6755 14.6016L8.32788 14.6016C7.98811 14.6016 7.71265 14.877 7.71265 15.2168C7.71265 16.7547 8.96379 18.0059 10.5017 18.0059ZM11.9337 15.832C11.6946 16.3864 11.1427 16.7754 10.5017 16.7754C9.86059 16.7754 9.30873 16.3864 9.06965 15.832L11.9337 15.832Z" fill="#1499A2"/>
<path d="M9.1919 12.355C8.95163 12.5953 8.95167 12.9848 9.19194 13.2251C9.55276 13.5859 10.0267 13.7663 10.5007 13.7663C10.9746 13.7663 11.4486 13.5859 11.8094 13.2251C12.0497 12.9849 12.0497 12.5953 11.8094 12.355C11.5691 12.1147 11.1796 12.1148 10.9393 12.355C10.6975 12.5969 10.3039 12.5969 10.062 12.355C9.8217 12.1148 9.43213 12.1148 9.1919 12.355Z" fill="#1499A2"/>
<path d="M17.6218 2.1436C16.2394 0.761249 14.4015 -4.10139e-05 12.4465 1.65724e-09L8.55498 8.20328e-05C4.51946 0.000164064 1.23633 3.28338 1.23633 7.3189V20.3848C1.23633 20.7245 1.51179 21 1.85156 21H19.1503C19.49 21 19.7655 20.7245 19.7655 20.3848V7.31877C19.7655 5.36381 19.0042 3.5259 17.6218 2.1436ZM8.55502 1.23055L12.4466 1.23047C14.0728 1.23043 15.6018 1.86371 16.7518 3.01366C17.9017 4.16361 18.535 5.69251 18.535 7.31881V8.75657C18.3409 8.68726 18.1321 8.64923 17.9145 8.64923C17.6968 8.64923 17.488 8.6873 17.2939 8.75657V7.67241C17.2939 6.1671 16.0692 4.94241 14.5639 4.94241H6.43792C4.93261 4.94241 3.70792 6.16706 3.70792 7.67241V8.75657C3.5138 8.68726 3.30499 8.64919 3.08736 8.64919C2.86973 8.64919 2.66092 8.68726 2.46684 8.75653V7.3189C2.46684 3.96186 5.19798 1.23063 8.55502 1.23055ZM18.5348 10.5V11.7356C18.5348 12.0777 18.2565 12.356 17.9145 12.356C17.5724 12.356 17.2941 12.0777 17.2941 11.7356V10.5C17.2941 10.158 17.5724 9.87966 17.9145 9.87966C18.2565 9.87966 18.5348 10.158 18.5348 10.5ZM3.70772 10.5V11.7356C3.70772 12.0777 3.42943 12.356 3.08736 12.356C2.74529 12.356 2.467 12.0777 2.467 11.7356V10.5C2.467 10.158 2.74529 9.87966 3.08736 9.87966C3.42943 9.87966 3.70772 10.158 3.70772 10.5ZM2.46684 19.7695V13.4791C2.66092 13.5484 2.86977 13.5864 3.08736 13.5864C3.30499 13.5864 3.51384 13.5484 3.70792 13.4791V14.1761C3.70792 15.9671 4.3942 17.6612 5.64037 18.9464C5.93778 19.2531 6.25897 19.5281 6.59985 19.7695H2.46684V19.7695ZM10.6275 19.7684C10.5433 19.7699 10.4586 19.7699 10.3743 19.7684C7.37693 19.7138 4.93839 17.2051 4.93839 14.1762V7.67241C4.93839 6.84558 5.61109 6.17288 6.43792 6.17288H14.5639C15.3908 6.17288 16.0634 6.84554 16.0634 7.67241V14.1762C16.0635 17.2051 13.625 19.7138 10.6275 19.7684ZM14.402 19.7695C14.7429 19.5281 15.0641 19.2531 15.3615 18.9464C16.6076 17.6612 17.294 15.9671 17.294 14.1762V13.4791C17.4881 13.5484 17.6969 13.5864 17.9145 13.5864C18.1321 13.5864 18.341 13.5484 18.5351 13.4791V19.7695H14.402Z" fill="#1499A2"/>
<path d="M12.97 7.8291C11.9494 7.8291 11.1191 8.65938 11.1191 9.67993C11.1191 10.7005 11.9494 11.5308 12.97 11.5308C13.9905 11.5308 14.8208 10.7005 14.8208 9.67993C14.8208 8.65938 13.9905 7.8291 12.97 7.8291ZM12.97 10.3003C12.6279 10.3003 12.3496 10.022 12.3496 9.67993C12.3496 9.33786 12.6279 9.05957 12.97 9.05957C13.312 9.05957 13.5903 9.33786 13.5903 9.67993C13.5903 10.022 13.312 10.3003 12.97 10.3003Z" fill="#1499A2"/>
<path d="M9.87939 9.67993C9.87939 8.65938 9.04912 7.8291 8.02856 7.8291C7.00801 7.8291 6.17773 8.65938 6.17773 9.67993C6.17773 10.7005 7.00801 11.5308 8.02856 11.5308C9.04912 11.5308 9.87939 10.7005 9.87939 9.67993ZM8.02856 10.3003C7.68649 10.3003 7.4082 10.022 7.4082 9.67993C7.4082 9.33786 7.68649 9.05957 8.02856 9.05957C8.37063 9.05957 8.64893 9.33786 8.64893 9.67993C8.64893 10.022 8.37063 10.3003 8.02856 10.3003Z" fill="#1499A2"/>
</svg>
