<svg width="18" height="11" viewBox="0 0 18 11" fill="none" xmlns="http://www.w3.org/2000/svg">
<path d="M17.6613 10.9093H0.296472C0.12706 10.9093 0 10.7881 0 10.6265V7.71738C0 7.55576 0.12706 7.43457 0.296472 7.43457H17.6613C17.8307 7.43457 17.9577 7.55576 17.9577 7.71738V10.6265C17.9577 10.7477 17.8307 10.9093 17.6613 10.9093ZM0.592944 10.3033H17.3224V8.00022H0.592944V10.3033Z" fill="#403875"/>
<path d="M15.4165 8.00022H2.54116C2.37175 8.00022 2.24469 7.879 2.24469 7.71738C2.24469 7.55576 2.37175 7.43457 2.54116 7.43457H15.4165C15.5859 7.43457 15.713 7.55576 15.713 7.71738C15.713 7.879 15.5859 8.00022 15.4165 8.00022Z" fill="#403875"/>
<path d="M2.54119 8.00001H0.296472C0.12706 8.00001 0 7.8788 0 7.71718V5.37373C0 4.60605 0.635297 4 1.44001 4C2.24472 4 2.88001 4.60605 2.88001 5.37373V7.71718C2.83766 7.8788 2.7106 8.00001 2.54119 8.00001ZM0.592944 7.43437H2.20236V5.37373C2.20236 4.96969 1.82118 4.60607 1.39765 4.60607C0.974122 4.60607 0.592944 4.96969 0.592944 5.37373V7.43437Z" fill="#403875"/>
<path d="M17.6612 8.00001H15.4165C15.247 8.00001 15.12 7.8788 15.12 7.71718V5.37373C15.12 4.60605 15.7553 4 16.56 4C17.3647 4 18 4.60605 18 5.37373V7.71718C17.9576 7.8788 17.8306 8.00001 17.6612 8.00001ZM15.7129 7.43437H17.3223V5.37373C17.3223 4.96969 16.9412 4.60607 16.5176 4.60607C16.0941 4.60607 15.7129 4.96969 15.7129 5.37373V7.43437Z" fill="#403875"/>
<path d="M16.5599 4.60611C16.3905 4.60611 16.2635 4.4849 16.2635 4.32328V3.07073C16.2635 2.58588 15.8399 2.18185 15.3317 2.18185H15.1199C14.1035 2.18185 13.0446 1.89902 12.0282 1.37377C10.1223 0.363659 7.79284 0.363659 5.88695 1.37377C4.91283 1.89902 3.854 2.18185 2.79517 2.18185H2.62576C2.11752 2.18185 1.69399 2.58588 1.69399 3.07073V4.20207C1.69399 4.24248 1.73634 4.28287 1.73634 4.32328C1.73634 4.4849 1.60928 4.60611 1.43987 4.60611H1.39752C1.31281 4.60611 1.2281 4.5657 1.18575 4.5253C1.1434 4.4849 1.10104 4.40409 1.10104 4.32328V3.07073C1.10104 2.26264 1.77869 1.57579 2.66811 1.57579H2.83752C3.76929 1.57579 4.70106 1.33334 5.63283 0.848491C7.70813 -0.28283 10.2917 -0.28283 12.367 0.848491C13.2564 1.33334 14.2305 1.57579 15.1623 1.57579H15.3317C16.1788 1.57579 16.8988 2.22224 16.8988 3.07073V4.32328C16.8564 4.44449 16.7293 4.60611 16.5599 4.60611Z" fill="#403875"/>
<path d="M15.4168 3.71685C15.2474 3.71685 15.1203 3.59563 15.1203 3.43401C15.1203 3.3128 14.9933 3.1916 14.8662 3.1916H14.2309C13.3415 3.1916 12.4097 2.94917 11.5627 2.50472C9.91088 1.61582 7.87793 1.65622 6.26851 2.54511C5.54851 2.94916 4.70145 3.1916 3.85439 3.1916H3.17674C3.00732 3.1916 2.79556 3.27239 2.79556 3.43401C2.79556 3.59563 2.6685 3.71685 2.49909 3.71685C2.32967 3.71685 2.20261 3.59563 2.20261 3.43401C2.20261 2.94916 2.62614 2.58553 3.17674 2.58553H3.85439C4.57439 2.58553 5.29439 2.3835 5.92969 2.01986C7.75087 1.00975 9.99559 0.969343 11.8591 1.93905C12.6215 2.34309 13.4262 2.54511 14.1885 2.54511H14.8238C15.2897 2.54511 15.7133 2.90877 15.7133 3.39362C15.7556 3.59564 15.5862 3.71685 15.4168 3.71685Z" fill="#403875"/>
<path d="M8.97907 10.9093C8.80966 10.9093 8.6826 10.7881 8.6826 10.6265V7.71738C8.6826 7.55576 8.80966 7.43457 8.97907 7.43457C9.14849 7.43457 9.27555 7.55576 9.27555 7.71738V10.6265C9.27555 10.7477 9.14849 10.9093 8.97907 10.9093Z" fill="#403875"/>
</svg>
