<svg width="21" height="21" viewBox="0 0 21 21" fill="none" xmlns="http://www.w3.org/2000/svg">
<g clip-path="url(#clip0_923_8320)">
<path d="M18.8536 8.06079H18.5442V6.10713C19.2976 5.50571 19.7818 4.58042 19.7818 3.54367V0.0166016H6.95231C4.474 0.0166016 2.45755 2.03198 2.45581 4.50992V8.06079H2.14642C-0.716485 8.15217 -0.714463 12.3019 2.14642 12.3923H2.45581V13.0111C2.79524 23.6449 18.2083 23.637 18.5442 13.0111V12.3923H18.8536C21.7165 12.3009 21.7144 8.15126 18.8536 8.06079ZM3.69338 4.5131C3.69338 2.71611 5.15532 1.25417 6.95231 1.25417H18.5442V3.54367C18.5442 4.66961 17.6281 5.58566 16.5022 5.58566H16.1749C16.5092 5.03077 16.6878 4.39375 16.6878 3.7293L15.4503 3.72935C15.4503 4.91151 14.6438 5.48974 14.5752 5.58566H13.081C13.4153 5.03077 13.594 4.39375 13.594 3.7293L12.3564 3.72935C12.3564 4.91151 11.5499 5.48974 11.4813 5.58566H3.69338V4.5131ZM2.14642 11.1547C0.919456 11.1155 0.920364 9.33714 2.14642 9.29836H2.45581V11.1547H2.14642ZM17.3066 13.0111C17.0194 22.0089 3.97761 22.0022 3.69338 13.0111C3.69338 12.0199 3.69338 7.60599 3.69338 6.82322H16.5022C16.7797 6.82322 17.0491 6.78828 17.3066 6.72306V12.3922V13.0111ZM18.8536 11.1547H18.5442V9.29836H18.8536C20.0805 9.33755 20.0797 11.116 18.8536 11.1547Z" fill="#1499A2"/>
<path d="M9.2752 9.29883H8.03764C8.03764 9.64003 7.76005 9.91761 7.41885 9.91761H5.5625V14.2491H6.80007V11.1552H7.41885C8.44244 11.1552 9.2752 10.3225 9.2752 9.29883Z" fill="#1499A2"/>
<path d="M12.9622 9.29883H11.7246C11.7246 10.3224 12.5574 11.1552 13.581 11.1552H14.1997V14.2491H15.4373V9.91761H13.581C13.2398 9.91761 12.9622 9.64007 12.9622 9.29883Z" fill="#1499A2"/>
<path d="M10.5005 15.1562C9.13574 15.1562 8.02539 16.2666 8.02539 17.6314H9.26296C9.31518 15.9954 11.6864 15.9966 11.7381 17.6314H12.9757C12.9757 16.2666 11.8653 15.1562 10.5005 15.1562Z" fill="#1499A2"/>
<path d="M9.88086 11.7734H11.1184V13.6298H9.88086V11.7734Z" fill="#1499A2"/>
</g>
<defs>
<clipPath id="clip0_923_8320">
<rect width="21" height="21" fill="white"/>
</clipPath>
</defs>
</svg>
