<svg width="21" height="21" viewBox="0 0 21 21" fill="none" xmlns="http://www.w3.org/2000/svg">
<g clip-path="url(#clip0_943_3685)">
<path d="M21.1092 9.85155C20.7078 -3.2882 1.63187 -3.2795 1.23438 9.85155V17.9257H5.12189C7.92511 22.0255 14.4196 22.024 17.2217 17.9257H21.1092V9.85155H21.1092ZM2.47655 16.6836V9.85155C2.47655 5.26585 6.04495 1.49833 10.5507 1.17875V3.03411C10.5507 4.17331 9.73724 5.14801 8.61639 5.35181L6.65871 5.70777C4.95515 6.01745 3.71873 7.49904 3.71873 9.23051V13.5781C3.71873 14.6858 3.96199 15.7377 4.39733 16.6836H2.47655ZM11.1718 19.789C7.74711 19.789 4.96091 17.0028 4.96091 13.5781V9.23051C4.96091 8.09971 5.7684 7.13218 6.88094 6.92991L8.83857 6.57395C9.8184 6.39582 10.6444 5.83187 11.1718 5.05588C11.6991 5.83187 12.5252 6.39582 13.505 6.57395L15.4626 6.92991C16.5752 7.13222 17.3827 8.09975 17.3827 9.23051V13.5781C17.3827 17.0028 14.5965 19.789 11.1718 19.789ZM19.867 16.6836H17.9463C18.3816 15.7377 18.6249 14.6858 18.6249 13.5781V9.23051C18.6249 7.49904 17.3884 6.01745 15.6849 5.70777L13.7272 5.35181C12.6064 5.14801 11.7929 4.17327 11.7929 3.03411V1.1788C16.2986 1.49837 19.867 5.26585 19.867 9.85159V16.6836Z" fill="#1499A2"/>
<path d="M11.1719 17.6006C12.5418 17.6006 13.6563 16.4861 13.6563 15.1162L12.4141 15.1162C12.3617 16.7583 9.9816 16.7571 9.92972 15.1162L8.68754 15.1162C8.68754 16.4861 9.80202 17.6006 11.1719 17.6006Z" fill="#1499A2"/>
<path d="M10.5508 11.7148H11.793V13.5781H10.5508V11.7148Z" fill="#1499A2"/>
<path d="M12.3907 11.6162L13.6328 11.6162C13.659 10.7952 14.8491 10.7958 14.875 11.6162L16.1172 11.6162C16.0386 9.1531 12.4685 9.15492 12.3907 11.6162Z" fill="#1499A2"/>
<path d="M8.04079 11.1084C8.38325 11.1084 8.66188 11.387 8.66188 11.7295L9.90405 11.7295C9.82546 9.26638 6.25532 9.2682 6.17752 11.7295L7.4197 11.7295C7.4197 11.387 7.69832 11.1084 8.04079 11.1084Z" fill="#1499A2"/>
</g>
<defs>
<clipPath id="clip0_943_3685">
<rect width="21" height="21" fill="white"/>
</clipPath>
</defs>
</svg>
