<svg width="23" height="21" viewBox="0 0 23 21" fill="none" xmlns="http://www.w3.org/2000/svg">
<g clip-path="url(#clip0_923_8686)">
<path d="M9.67406 14.355C9.42115 14.5952 9.42115 14.9848 9.67406 15.2251C10.042 15.5746 10.5313 15.7672 11.0517 15.7672C11.572 15.7672 12.0613 15.5747 12.4293 15.2251C12.6821 14.9848 12.6821 14.5953 12.4293 14.355C12.1764 14.1147 11.7663 14.1148 11.5134 14.355C11.3901 14.4721 11.2261 14.5367 11.0517 14.5367C10.8773 14.5367 10.7133 14.4722 10.59 14.355C10.337 14.1148 9.92693 14.1148 9.67406 14.355Z" fill="#1499A2"/>
<path d="M20.157 8.64917C19.928 8.64917 19.7083 8.68719 19.504 8.75647V8.02881C19.504 3.60171 15.7127 0 11.0526 0C6.39252 0 2.60125 3.60171 2.60125 8.02881V8.75647C2.397 8.68723 2.17724 8.64917 1.94824 8.64917C0.873978 8.64917 0 9.47945 0 10.5V11.7356C0 12.7561 0.873978 13.5864 1.94824 13.5864C2.18359 13.5864 2.40926 13.5466 2.61831 13.4736C2.89225 17.6675 6.57019 21 11.0526 21C15.5351 21 19.213 17.6675 19.487 13.4736C19.696 13.5466 19.9217 13.5864 20.157 13.5864C21.2313 13.5864 22.1053 12.7561 22.1053 11.7356V10.5C22.1053 9.47945 21.2313 8.64917 20.157 8.64917ZM11.0526 1.23047C14.4113 1.23047 17.2364 3.44019 18.0031 6.40951C17.3785 6.34598 16.4918 6.23134 15.5684 6.03184C13.4644 5.57739 12.0664 4.87241 11.6319 4.04685C11.5222 3.83841 11.2979 3.70675 11.0526 3.70675C10.8073 3.70675 10.5831 3.83841 10.4733 4.04685C10.0389 4.87241 8.64083 5.57735 6.53685 6.03184C5.61344 6.2313 4.72668 6.34598 4.10212 6.40951C4.86886 3.44019 7.69397 1.23047 11.0526 1.23047ZM1.94824 12.356C1.58817 12.356 1.29523 12.0777 1.29523 11.7356V10.5C1.29523 10.1579 1.58817 9.87964 1.94824 9.87964C2.30832 9.87964 2.60125 10.1579 2.60125 10.5V11.7356C2.60125 12.0777 2.30832 12.356 1.94824 12.356ZM18.2088 12.9712C18.2088 16.7198 14.9986 19.7695 11.0526 19.7695C7.10671 19.7695 3.89648 16.7198 3.89648 12.9712V8.02881C3.89648 7.90687 3.90007 7.78571 3.90676 7.66537C4.55869 7.60832 5.64371 7.48552 6.80596 7.23561C8.79638 6.80765 10.2189 6.17909 11.0526 5.3616C11.8863 6.17913 13.3088 6.80769 15.2993 7.23561C16.4615 7.48552 17.5466 7.60828 18.1985 7.66537C18.2052 7.78575 18.2088 7.90687 18.2088 8.02881V12.9712ZM20.81 11.7356C20.81 12.0777 20.5171 12.356 20.157 12.356C19.7969 12.356 19.504 12.0777 19.504 11.7356V10.5C19.504 10.1579 19.7969 9.87964 20.157 9.87964C20.5171 9.87964 20.81 10.1579 20.81 10.5V11.7356Z" fill="#1499A2"/>
<path d="M12.3524 16.8262H9.75113C9.39347 16.8262 9.10352 17.1016 9.10352 17.4414C9.10352 17.7812 9.39347 18.0566 9.75113 18.0566H12.3524C12.71 18.0566 13 17.7812 13 17.4414C13 17.1016 12.71 16.8262 12.3524 16.8262Z" fill="#1499A2"/>
<path d="M10.4003 11.6742V9.26449C10.4003 9.01565 10.2425 8.79134 10.0006 8.6961C9.75852 8.60086 9.47996 8.65353 9.29478 8.82948L8.90056 9.20404C8.23347 8.56264 7.57882 8.0848 7.54493 8.06015C7.34917 7.91795 7.08551 7.89355 6.86463 7.99728C6.64375 8.10096 6.50391 8.31478 6.50391 8.54885V11.6742C6.50391 12.6947 7.37788 13.525 8.45215 13.525C9.52641 13.525 10.4003 12.6947 10.4003 11.6742ZM9.10512 11.6742C9.10512 12.0162 8.81218 12.2945 8.4521 12.2945C8.09203 12.2945 7.79909 12.0162 7.79909 11.6742V9.89987C7.9983 10.0829 8.20359 10.2841 8.39265 10.4924C8.51026 10.6219 8.67929 10.6991 8.85924 10.7055C8.94421 10.7087 9.02727 10.6956 9.10512 10.6686V11.6742Z" fill="#1499A2"/>
<path d="M15.2017 8.6961C14.9597 8.60086 14.6811 8.65353 14.496 8.82948L14.1017 9.20404C13.4346 8.56264 12.78 8.0848 12.7461 8.06015C12.5504 7.91795 12.2867 7.89355 12.0658 7.99728C11.8449 8.10096 11.7051 8.31478 11.7051 8.54885V11.6742C11.7051 12.6947 12.5791 13.525 13.6533 13.525C14.7276 13.525 15.6016 12.6947 15.6016 11.6742V9.26449C15.6015 9.01565 15.4437 8.79134 15.2017 8.6961ZM14.3063 11.6742C14.3063 12.0162 14.0134 12.2945 13.6533 12.2945C13.2932 12.2945 13.0003 12.0162 13.0003 11.6742V9.89987C13.1995 10.0829 13.4048 10.2841 13.5938 10.4924C13.7114 10.6219 13.8805 10.6991 14.0604 10.7055C14.1453 10.7087 14.2284 10.6956 14.3063 10.6686V11.6742Z" fill="#1499A2"/>
</g>
<defs>
<clipPath id="clip0_923_8686">
<rect width="22.1053" height="21" fill="white"/>
</clipPath>
</defs>
</svg>
