<svg width="21" height="21" viewBox="0 0 21 21" fill="none" xmlns="http://www.w3.org/2000/svg">
<path d="M10.5017 18.0059C12.0396 18.0059 13.2908 16.7547 13.2908 15.2168C13.2908 14.877 13.0153 14.6016 12.6755 14.6016L8.32788 14.6016C7.98811 14.6016 7.71265 14.877 7.71265 15.2168C7.71265 16.7547 8.96379 18.0059 10.5017 18.0059ZM11.9337 15.832C11.6946 16.3864 11.1427 16.7754 10.5017 16.7754C9.86059 16.7754 9.30873 16.3864 9.06965 15.832L11.9337 15.832Z" fill="#1499A2"/>
<path d="M9.1919 12.355C8.95163 12.5953 8.95167 12.9848 9.19194 13.2251C9.55276 13.5859 10.0267 13.7663 10.5007 13.7663C10.9746 13.7663 11.4486 13.5859 11.8094 13.2251C12.0497 12.9849 12.0497 12.5953 11.8094 12.355C11.5691 12.1147 11.1796 12.1148 10.9393 12.355C10.6975 12.5969 10.3039 12.5969 10.062 12.355C9.8217 12.1148 9.43213 12.1148 9.1919 12.355Z" fill="#1499A2"/>
<path d="M17.6218 2.1436C16.2394 0.761249 14.4015 -4.10139e-05 12.4465 1.65724e-09L8.55498 8.20328e-05C4.51946 0.000164064 1.23633 3.28338 1.23633 7.3189V20.3848C1.23633 20.7245 1.51179 21 1.85156 21H19.1503C19.49 21 19.7655 20.7245 19.7655 20.3848V7.31877C19.7655 5.36381 19.0042 3.5259 17.6218 2.1436ZM8.55502 1.23055L12.4466 1.23047C14.0728 1.23043 15.6018 1.86371 16.7518 3.01366C17.9017 4.16361 18.535 5.69251 18.535 7.31881V8.75657C18.3409 8.68726 18.1321 8.64923 17.9145 8.64923C17.6968 8.64923 17.488 8.6873 17.2939 8.75657V7.67241C17.2939 6.1671 16.0692 4.94241 14.5639 4.94241H6.43792C4.93261 4.94241 3.70792 6.16706 3.70792 7.67241V8.75657C3.5138 8.68726 3.30499 8.64919 3.08736 8.64919C2.86973 8.64919 2.66092 8.68726 2.46684 8.75653V7.3189C2.46684 3.96186 5.19798 1.23063 8.55502 1.23055ZM18.5348 10.5V11.7356C18.5348 12.0777 18.2565 12.356 17.9145 12.356C17.5724 12.356 17.2941 12.0777 17.2941 11.7356V10.5C17.2941 10.158 17.5724 9.87966 17.9145 9.87966C18.2565 9.87966 18.5348 10.158 18.5348 10.5ZM3.70772 10.5V11.7356C3.70772 12.0777 3.42943 12.356 3.08736 12.356C2.74529 12.356 2.467 12.0777 2.467 11.7356V10.5C2.467 10.158 2.74529 9.87966 3.08736 9.87966C3.42943 9.87966 3.70772 10.158 3.70772 10.5ZM2.46684 19.7695V13.4791C2.66092 13.5484 2.86977 13.5864 3.08736 13.5864C3.30499 13.5864 3.51384 13.5484 3.70792 13.4791V14.1761C3.70792 15.9671 4.3942 17.6612 5.64037 18.9464C5.93778 19.2531 6.25897 19.5281 6.59985 19.7695H2.46684V19.7695ZM10.6275 19.7684C10.5433 19.7699 10.4586 19.7699 10.3743 19.7684C7.37693 19.7138 4.93839 17.2051 4.93839 14.1762V7.67241C4.93839 6.84558 5.61109 6.17288 6.43792 6.17288H14.5639C15.3908 6.17288 16.0634 6.84554 16.0634 7.67241V14.1762C16.0635 17.2051 13.625 19.7138 10.6275 19.7684ZM14.402 19.7695C14.7429 19.5281 15.0641 19.2531 15.3615 18.9464C16.6076 17.6612 17.294 15.9671 17.294 14.1762V13.4791C17.4881 13.5484 17.6969 13.5864 17.9145 13.5864C18.1321 13.5864 18.341 13.5484 18.5351 13.4791V19.7695H14.402Z" fill="#1499A2"/>
<path d="M7.29853 10.791C7.52827 10.5612 7.90226 10.5612 8.13203 10.791C8.24616 10.9051 8.39575 10.9621 8.54529 10.9621C8.69484 10.9621 8.84447 10.905 8.95855 10.7909C9.18681 10.5627 9.18681 10.1926 8.95855 9.96436C8.27301 9.27881 7.15748 9.27881 6.47197 9.96436C6.24372 10.1926 6.24372 10.5627 6.47197 10.7909C6.70019 11.0192 7.07028 11.0192 7.29853 10.791Z" fill="#1499A2"/>
<path d="M12.4642 9.96436C12.2359 10.1926 12.2359 10.5627 12.4642 10.7909C12.6923 11.0191 13.0624 11.0192 13.2907 10.7909C13.5205 10.5611 13.8944 10.5611 14.1242 10.7909C14.2383 10.9051 14.3879 10.9621 14.5375 10.9621C14.687 10.9621 14.8367 10.905 14.9507 10.7909C15.179 10.5626 15.179 10.1926 14.9507 9.96432C14.2652 9.27881 13.1497 9.27881 12.4642 9.96436Z" fill="#1499A2"/>
</svg>
