<svg width="22" height="22" viewBox="0 0 22 22" fill="none" xmlns="http://www.w3.org/2000/svg">
<path d="M3.52051 21.5395V15.2461L5.2723 13.6241C6.11575 12.8455 7.15386 12.4562 8.32171 12.4562H12.6038C13.4473 12.4562 14.0961 13.105 14.0961 13.9485C14.0961 14.7919 13.4473 15.4407 12.6038 15.4407H9.55443C8.71098 15.4407 8.06217 16.0895 8.06217 16.933C8.06217 17.3223 8.25682 17.7115 8.51635 17.9711C8.77587 18.2306 9.16514 18.4252 9.55443 18.4252H12.8634C14.5503 18.4252 15.4586 18.4901 16.4967 17.1276L18.3134 14.6621C18.3134 14.5973 18.3783 14.5973 18.3783 14.5973C18.9622 13.9485 20.0003 13.8836 20.6491 14.4675C20.9735 14.7919 21.1681 15.1812 21.1681 15.6354C21.1681 15.9598 21.0384 16.349 20.8437 16.6086L18.9622 19.0092C17.7943 20.5014 15.9128 21.4098 14.0312 21.4098H3.52051V21.5395Z" stroke="#1499A2" stroke-width="0.9" stroke-miterlimit="10" stroke-linecap="round" stroke-linejoin="round"/>
<path d="M18.4433 14.6617C18.3784 14.5968 18.3784 14.5968 18.3135 14.5319C17.5998 13.8831 16.4968 14.0129 15.9778 14.7265L14.8099 16.2837C13.7719 17.6462 12.1498 18.4248 10.4629 18.4248" stroke="#1499A2" stroke-width="0.9" stroke-miterlimit="10" stroke-linecap="round" stroke-linejoin="round"/>
<path d="M0.453381 21.5464H3.50279L3.50279 12.9822H0.453381L0.453381 21.5464Z" stroke="#1499A2" stroke-width="0.9" stroke-miterlimit="10" stroke-linecap="round" stroke-linejoin="round"/>
<path d="M10.5277 10.1857C13.2152 10.1857 15.3938 8.00711 15.3938 5.31965C15.3938 2.63219 13.2152 0.453578 10.5277 0.453578C7.84027 0.453578 5.66166 2.63219 5.66166 5.31965C5.66166 8.00711 7.84027 10.1857 10.5277 10.1857Z" stroke="#1499A2" stroke-width="0.9" stroke-miterlimit="10" stroke-linecap="round" stroke-linejoin="round"/>
<mask id="mask0_886_8958" style="mask-type:luminance" maskUnits="userSpaceOnUse" x="5" y="0" width="11" height="11">
<path d="M10.5314 10.2506C13.2547 10.2506 15.4624 8.04287 15.4624 5.31958C15.4624 2.59629 13.2547 0.38864 10.5314 0.38864C7.80812 0.38864 5.60047 2.59629 5.60047 5.31958C5.60047 8.04287 7.80812 10.2506 10.5314 10.2506Z" fill="white"/>
</mask>
<g mask="url(#mask0_886_8958)">
<path d="M15.0046 10.5115V12.7823H5.98616V10.5115C5.98616 8.82457 6.9594 7.33233 8.3219 6.55376C8.90583 7.00792 9.68438 7.33234 10.5278 7.33234C11.3713 7.33234 12.085 7.0728 12.7338 6.55376C13.1231 6.7484 13.4475 7.00793 13.7719 7.33234C14.5505 8.17579 15.0046 9.27874 15.0046 10.5115Z" stroke="#1499A2" stroke-width="0.9" stroke-miterlimit="10" stroke-linecap="round" stroke-linejoin="round"/>
<path d="M10.5277 6.03523C11.7819 6.03523 12.7986 5.01854 12.7986 3.76439C12.7986 2.51025 11.7819 1.49356 10.5277 1.49356C9.27358 1.49356 8.25689 2.51025 8.25689 3.76439C8.25689 5.01854 9.27358 6.03523 10.5277 6.03523Z" stroke="#1499A2" stroke-width="0.9" stroke-miterlimit="10" stroke-linecap="round" stroke-linejoin="round"/>
<path d="M8.257 10.512V12.7828H12.7987V10.512" stroke="#1499A2" stroke-width="0.9" stroke-miterlimit="10" stroke-linecap="round" stroke-linejoin="round"/>
<path d="M11.6967 7.13623L11.2425 9.01775H9.81511L9.36094 7.13623" stroke="#1499A2" stroke-width="0.9" stroke-miterlimit="10" stroke-linecap="round" stroke-linejoin="round"/>
<path d="M11.2425 9.01744H9.81511L9.36094 12.7805H11.6967L11.2425 9.01744Z" stroke="#1499A2" stroke-width="0.9" stroke-miterlimit="10" stroke-linecap="round" stroke-linejoin="round"/>
</g>
</svg>
