<svg width="169" height="166" viewBox="0 0 169 166" fill="none" xmlns="http://www.w3.org/2000/svg">
<path d="M84.5 0.858602L84.5 7.92689" stroke="white" stroke-width="1.71186" stroke-linecap="round" stroke-linejoin="round"/>
<path d="M110.352 4.39415L108.056 11.4593" stroke="white" stroke-width="1.71186" stroke-linecap="round" stroke-linejoin="round"/>
<path d="M133.731 17.3991C132.421 19.202 131.686 20.2129 130.376 22.0159" stroke="white" stroke-width="1.71186" stroke-linecap="round" stroke-linejoin="round"/>
<path d="M152.106 34.9333L146.999 38.644" stroke="white" stroke-width="1.71186" stroke-linecap="round" stroke-linejoin="round"/>
<path d="M164.202 58.9996L158.666 60.7985" stroke="white" stroke-width="1.71186" stroke-linecap="round" stroke-linejoin="round"/>
<path d="M168.141 84.5001L163.429 84.5001" stroke="white" stroke-width="1.71186" stroke-linecap="round" stroke-linejoin="round"/>
<path d="M84.5 0.858602L84.5 7.92689" stroke="white" stroke-width="1.71186" stroke-linecap="round" stroke-linejoin="round"/>
<path d="M58.6485 4.3944L60.9441 11.4595" stroke="white" stroke-width="1.71186" stroke-linecap="round" stroke-linejoin="round"/>
<path d="M35.2693 17.3991C36.5793 19.202 37.3137 20.2129 38.6236 22.0159" stroke="white" stroke-width="1.71186" stroke-linecap="round" stroke-linejoin="round"/>
<path d="M16.8934 34.9333L22.0007 38.644" stroke="white" stroke-width="1.71186" stroke-linecap="round" stroke-linejoin="round"/>
<path d="M4.79768 58.9999L10.334 60.7988" stroke="white" stroke-width="1.71186" stroke-linecap="round" stroke-linejoin="round"/>
<path d="M0.858579 84.5001L5.57077 84.5001" stroke="white" stroke-width="1.71186" stroke-linecap="round" stroke-linejoin="round"/>
<path d="M58.8175 164.666L60.77 158.657" stroke="white" stroke-width="1.71186" stroke-linecap="round" stroke-linejoin="round"/>
<path d="M35.2693 151.601C36.5793 149.798 37.3137 148.787 38.6236 146.984" stroke="white" stroke-width="1.71186" stroke-linecap="round" stroke-linejoin="round"/>
<path d="M16.8934 134.067L22.0007 130.356" stroke="white" stroke-width="1.71186" stroke-linecap="round" stroke-linejoin="round"/>
<path d="M4.79768 110L10.334 108.201" stroke="white" stroke-width="1.71186" stroke-linecap="round" stroke-linejoin="round"/>
<path d="M133.799 151.601C132.489 149.798 131.754 148.787 130.444 146.984" stroke="white" stroke-width="1.71186" stroke-linecap="round" stroke-linejoin="round"/>
<path d="M152.174 134.067L147.067 130.356" stroke="white" stroke-width="1.71186" stroke-linecap="round" stroke-linejoin="round"/>
<path d="M164.27 110L158.734 108.201" stroke="white" stroke-width="1.71186" stroke-linecap="round" stroke-linejoin="round"/>
<path d="M0.858579 84.5001L5.57077 84.5001" stroke="white" stroke-width="1.71186" stroke-linecap="round" stroke-linejoin="round"/>
<path d="M121.548 161.812L118.842 157.429" stroke="white" stroke-width="1.71186" stroke-linecap="round" stroke-linejoin="round"/>
</svg>
