<svg width="21" height="22" viewBox="0 0 21 22" fill="none" xmlns="http://www.w3.org/2000/svg">
<g clip-path="url(#clip0_945_3860)">
<path d="M19.058 9.06104C18.8415 9.06104 18.6337 9.10087 18.4406 9.17344V8.41113C18.4406 3.77322 14.856 0 10.45 0C6.04398 0 2.45942 3.77322 2.45942 8.41113V9.17344C2.2663 9.10091 2.05853 9.06104 1.84202 9.06104C0.826326 9.06104 0 9.93085 0 11V12.2944C0 13.3636 0.826326 14.2334 1.84202 14.2334C2.06449 14.2334 2.2779 14.1916 2.47555 14.1152C2.73455 18.5088 6.21195 22 10.45 22C14.688 22 18.1654 18.5088 18.4245 14.1152C18.6221 14.1916 18.8355 14.2334 19.058 14.2334C20.0737 14.2334 20.9 13.3636 20.9 12.2944V11C20.9 9.93085 20.0737 9.06104 19.058 9.06104ZM2.45942 12.2944C2.45942 12.6528 2.18246 12.9443 1.84202 12.9443C1.50158 12.9443 1.22461 12.6528 1.22461 12.2944V11C1.22461 10.6416 1.50158 10.3501 1.84202 10.3501C2.18246 10.3501 2.45942 10.6416 2.45942 11V12.2944ZM10.45 1.28906C12.3073 1.28906 13.992 2.08106 15.2159 3.36084C15.2119 3.36033 15.2079 3.3596 15.2039 3.35908C14.3903 3.25643 13.76 3.70648 13.1504 4.14176C12.4372 4.65111 11.6997 5.17773 10.45 5.17773C9.20192 5.17773 8.46483 4.64591 7.75198 4.13157C7.14437 3.69316 6.51631 3.23989 5.70521 3.33914C6.92733 2.07221 8.60329 1.28906 10.45 1.28906ZM17.216 13.5889C17.216 17.516 14.1808 20.7109 10.45 20.7109C6.71923 20.7109 3.68403 17.516 3.68403 13.5889V8.41113C3.68403 7.61797 3.80796 6.85472 4.03635 6.14157C4.79663 5.18766 5.40404 4.67586 5.84261 4.61991C6.18342 4.57639 6.51051 4.79858 7.05963 5.19484C7.80362 5.73164 8.82249 6.4668 10.45 6.4668C12.0759 6.4668 13.0943 5.73955 13.8379 5.20854C14.3879 4.81589 14.7154 4.59559 15.0581 4.63899C15.4973 4.69438 16.1046 5.20029 16.8642 6.14311C17.0922 6.85579 17.216 7.61853 17.216 8.41113V13.5889H17.216ZM19.6754 12.2944C19.6754 12.6528 19.3984 12.9443 19.058 12.9443C18.7175 12.9443 18.4406 12.6528 18.4406 12.2944V11C18.4406 10.6416 18.7175 10.3501 19.058 10.3501C19.3984 10.3501 19.6754 10.6416 19.6754 11V12.2944Z" fill="#1499A2"/>
<path d="M9.83272 10.1782V9.10398C9.83272 8.57598 9.6347 8.08244 9.27515 7.7142C8.91569 7.34608 8.44176 7.15135 7.93935 7.16579C6.95198 7.19428 6.14868 8.07582 6.14868 9.13092V10.1782C6.14868 11.2474 6.97501 12.1172 7.9907 12.1172C9.00639 12.1172 9.83272 11.2473 9.83272 10.1782ZM8.60811 10.1782C8.60811 10.5366 8.33114 10.8281 7.9907 10.8281C7.65026 10.8281 7.37329 10.5366 7.37329 10.1782V9.13088C7.37329 8.76736 7.6423 8.46387 7.9729 8.45429C7.97878 8.45412 7.98462 8.45403 7.99049 8.45403C8.15255 8.45403 8.30489 8.519 8.42119 8.63807C8.54173 8.76152 8.60811 8.92699 8.60811 9.10394V10.1782Z" fill="#1499A2"/>
<path d="M12.859 7.16579C11.8717 7.19428 11.0684 8.07582 11.0684 9.13092V10.1782C11.0684 11.2474 11.8947 12.1172 12.9104 12.1172C13.9261 12.1172 14.7524 11.2474 14.7524 10.1782V9.10402C14.7524 8.57602 14.5544 8.08248 14.1948 7.71424C13.8354 7.34604 13.3614 7.15135 12.859 7.16579ZM13.5278 10.1782C13.5278 10.5366 13.2508 10.8281 12.9104 10.8281C12.5699 10.8281 12.293 10.5366 12.293 10.1782V9.13088C12.293 8.76736 12.562 8.46387 12.8926 8.45429C12.8985 8.45412 12.9043 8.45403 12.9102 8.45403C13.0722 8.45403 13.2246 8.519 13.3409 8.63807C13.4614 8.76152 13.5278 8.92699 13.5278 9.10394V10.1782Z" fill="#1499A2"/>
<path d="M9.14809 12.9437C8.90897 13.1954 8.90897 13.6035 9.14809 13.8552C9.49596 14.2214 9.95854 14.4231 10.4506 14.4231C10.9426 14.4231 11.4052 14.2214 11.7531 13.8552C11.9922 13.6035 11.9922 13.1954 11.7531 12.9437C11.514 12.692 11.1263 12.692 10.8872 12.9437C10.7705 13.0664 10.6155 13.134 10.4506 13.134C10.2857 13.134 10.1306 13.0664 10.014 12.9437C9.77489 12.692 9.38718 12.692 9.14809 12.9437Z" fill="#1499A2"/>
<path d="M10.4494 15.5332C9.43375 15.5332 8.60742 16.403 8.60742 17.4722C8.60742 18.5413 9.43375 19.4111 10.4494 19.4111C11.4651 19.4111 12.2915 18.5413 12.2915 17.4722C12.2915 16.403 11.4651 15.5332 10.4494 15.5332ZM10.4494 18.1221C10.109 18.1221 9.83203 17.8305 9.83203 17.4722C9.83203 17.1138 10.109 16.8223 10.4494 16.8223C10.7899 16.8223 11.0668 17.1138 11.0668 17.4722C11.0668 17.8305 10.7899 18.1221 10.4494 18.1221Z" fill="#1499A2"/>
</g>
<defs>
<clipPath id="clip0_945_3860">
<rect width="20.9" height="22" fill="white"/>
</clipPath>
</defs>
</svg>
