<svg width="20" height="21" viewBox="0 0 20 21" fill="none" xmlns="http://www.w3.org/2000/svg">
<path d="M18.5964 8.15526C18.3545 6.11756 17.4654 4.19217 16.0928 2.73386C14.4336 0.970881 12.2276 0 9.88136 0C5.46433 0 1.7178 3.50602 1.16666 8.15534C1.16361 8.18085 1.16211 8.20653 1.16211 8.23225V20.3848C1.16211 20.7245 1.42137 21 1.74115 21H18.0219C18.3417 21 18.601 20.7245 18.601 20.3848V8.23225C18.601 8.20653 18.5995 8.18081 18.5964 8.15526ZM9.76219 19.7684C6.94112 19.7137 4.64603 17.2051 4.64603 14.1761V8.45935C5.80987 8.22683 6.82636 7.92246 7.67323 7.55254C8.63626 7.13184 9.37523 6.62456 9.88143 6.03791C10.3877 6.62452 11.1267 7.13188 12.0897 7.55249C12.9367 7.9225 13.9532 8.22675 15.1167 8.45902V14.1761C15.1167 17.2051 12.8216 19.7137 10.0005 19.7684C9.96126 19.7692 9.92189 19.7695 9.88248 19.7695H9.88043C9.84098 19.7695 9.80153 19.7691 9.76219 19.7684ZM17.4429 19.7695H13.5522C13.8732 19.528 14.1759 19.2533 14.456 18.9464C15.6289 17.6612 16.2748 15.9671 16.2748 14.1761V7.94309C16.2748 7.64224 16.07 7.38552 15.7907 7.33618C12.872 6.82078 10.9573 5.8841 10.3992 4.69871C10.3011 4.49031 10.1006 4.35869 9.88128 4.35873C9.66194 4.35877 9.46147 4.49039 9.36342 4.69883C8.80584 5.88373 6.8911 6.82053 3.9719 7.33663C3.69273 7.38597 3.48809 7.64248 3.4879 7.94313V7.94354V14.1762C3.4879 15.9671 4.1338 17.6612 5.30668 18.9464C5.58674 19.2533 5.88946 19.528 6.21049 19.7696H2.3202V8.27154C2.81428 4.2548 6.05851 1.23047 9.88136 1.23047C11.9183 1.23047 13.8334 2.07338 15.2739 3.60388C16.4572 4.86109 17.2266 6.51742 17.4429 8.27162V19.7695Z" fill="#1499A2"/>
<path d="M12.7867 15.0801C12.7867 14.7403 12.5274 14.4648 12.2076 14.4648C11.8878 14.4648 11.6286 14.7403 11.6286 15.0801C11.6286 16.1035 10.845 16.936 9.88178 16.936C9.56199 16.936 9.30273 17.2115 9.30273 17.5513C9.30273 17.891 9.56199 18.1665 9.88178 18.1665C11.4835 18.1665 12.7867 16.7819 12.7867 15.0801Z" fill="#1499A2"/>
<path d="M9.29837 10.5002C9.29837 9.47969 8.51693 8.64941 7.55641 8.64941C6.59589 8.64941 5.81445 9.47969 5.81445 10.5002C5.81445 10.84 6.07371 11.1155 6.3935 11.1155C6.71328 11.1155 6.97254 10.84 6.97254 10.5002C6.97254 10.1582 7.23446 9.87988 7.55641 9.87988C7.87836 9.87988 8.14028 10.1582 8.14028 10.5002C8.14028 10.84 8.39954 11.1155 8.71933 11.1155C9.03911 11.1155 9.29837 10.84 9.29837 10.5002Z" fill="#1499A2"/>
<path d="M11.1136 13.2251C11.3397 12.9848 11.3397 12.5953 11.1136 12.355C10.8875 12.1147 10.5208 12.1147 10.2947 12.355C10.1844 12.4721 10.0378 12.5367 9.88181 12.5367C9.72586 12.5367 9.57924 12.4721 9.46895 12.355C9.24286 12.1147 8.87621 12.1147 8.65007 12.355C8.42393 12.5953 8.42393 12.9848 8.65007 13.2251C8.97908 13.5746 9.41653 13.7672 9.88181 13.7672C10.3471 13.7672 10.7846 13.5746 11.1136 13.2251Z" fill="#1499A2"/>
<path d="M11.0439 11.1155C11.3637 11.1155 11.6229 10.84 11.6229 10.5002C11.6229 10.1582 11.8849 9.87988 12.2068 9.87988C12.5288 9.87988 12.7907 10.1582 12.7907 10.5002C12.7907 10.84 13.0499 11.1155 13.3697 11.1155C13.6895 11.1155 13.9488 10.84 13.9488 10.5002C13.9488 9.47969 13.1673 8.64941 12.2068 8.64941C11.2463 8.64941 10.4648 9.47969 10.4648 10.5002C10.4648 10.84 10.7241 11.1155 11.0439 11.1155Z" fill="#1499A2"/>
</svg>
