<svg width="57" height="65" viewBox="0 0 57 65" fill="none" xmlns="http://www.w3.org/2000/svg">
<path d="M41.9377 33.5479C42.5726 32.4919 43.6537 31.7 44.5289 30.8552C47.8408 27.6346 51.1356 22.3372 49.6255 17.5151C48.6473 14.4176 46.7425 11.2498 45.3354 8.31071C43.9969 5.56525 41.6116 3.10137 39.192 1.28865C35.6055 -1.42161 30.835 0.76068 27.2142 2.22141C22.804 4.01652 18.5139 6.02282 15.3049 9.75384C13.5203 11.8305 12.4907 14.3648 11.3409 16.8463C7.32543 25.4171 5.23187 34.3223 2.45191 43.333C0.684401 49.0527 -2.09555 52.6078 2.55488 57.7467C3.96202 59.313 5.40348 60.8794 7.10234 62.1113C19.5607 71.1045 34.0783 56.638 45.2667 52.115C49.0935 50.5663 51.8906 49.0175 54.7392 45.9905C57.1416 43.4386 58.4973 40.8163 54.2587 39.25C50.6894 37.9301 46.9141 36.9445 43.2075 36.0294C41.766 35.6774 40.908 35.607 41.7489 33.8823C41.8175 33.7591 41.869 33.6535 41.9377 33.5479Z" fill="#66C1BD"/>
</svg>
