<svg width="23" height="21" viewBox="0 0 23 21" fill="none" xmlns="http://www.w3.org/2000/svg">
<g clip-path="url(#clip0_923_8338)">
<path d="M10.59 13.5864C10.8446 13.3445 11.2588 13.3445 11.5135 13.5864C11.7664 13.8267 12.1764 13.8266 12.4294 13.5864C12.6823 13.3461 12.6822 12.9566 12.4293 12.7163C12.0495 12.3555 11.5506 12.1751 11.0517 12.1751C10.5528 12.1751 10.0539 12.3555 9.6741 12.7163C9.42118 12.9565 9.42118 13.3461 9.6741 13.5864C9.92701 13.8267 10.337 13.8267 10.59 13.5864Z" fill="#1499A2"/>
<path d="M20.157 8.64917C19.928 8.64917 19.7083 8.68719 19.504 8.75647V8.02881C19.504 7.68928 19.4814 7.34746 19.4367 7.01277L19.4367 7.01244C19.2037 5.26075 18.3485 3.60552 17.0287 2.35155C15.4324 0.835119 13.3101 0 11.0526 0C9.17394 0 7.171 0.570281 5.41272 1.60576C3.57902 2.68566 2.23552 4.15661 1.6297 5.74752C1.41046 6.32322 0.872424 7.73661 1.55056 8.68805C0.666396 8.86298 0 9.60889 0 10.5V11.7356C0 12.7561 0.873978 13.5864 1.94824 13.5864C2.18359 13.5864 2.40926 13.5466 2.61831 13.4736C2.89225 17.6675 6.57019 21 11.0526 21C15.5351 21 19.213 17.6675 19.487 13.4736C19.696 13.5466 19.9217 13.5864 20.157 13.5864C21.2313 13.5864 22.1053 12.7561 22.1053 11.7356V10.5C22.1053 9.47945 21.2313 8.64917 20.157 8.64917ZM11.0526 1.23047C12.9641 1.23047 14.7612 1.93758 16.1128 3.22161C17.0188 4.08233 17.6662 5.16592 17.9839 6.33495C16.8565 6.09545 14.9938 5.4917 14.2331 4.04664C14.1426 3.87471 13.9727 3.75281 13.7738 3.71725C13.5747 3.68148 13.3699 3.73644 13.2198 3.86527C9.94832 6.67254 7.28446 8.28155 5.30233 8.64757C3.80228 8.92455 3.12353 8.405 2.71795 8.0946C2.50437 7.93115 2.35352 7.46382 2.84769 6.16608C3.88405 3.44457 7.56479 1.23047 11.0526 1.23047ZM1.94824 12.356C1.58817 12.356 1.29523 12.0777 1.29523 11.7356V10.5C1.29523 10.1579 1.58817 9.87964 1.94824 9.87964C2.30832 9.87964 2.60125 10.1579 2.60125 10.5V11.7356C2.60125 12.0777 2.30832 12.356 1.94824 12.356ZM18.2088 12.9712C18.2088 16.7198 14.9986 19.7695 11.0526 19.7695C7.10671 19.7695 3.89648 16.7198 3.89648 12.9712V9.91536C4.08654 9.94083 4.29049 9.95535 4.50939 9.95535C4.8246 9.95531 5.17069 9.92541 5.54946 9.85544C7.64156 9.46911 10.3181 7.92582 13.5115 5.26591C14.7999 6.89046 17.0804 7.44881 18.1962 7.63034C18.2042 7.76303 18.2088 7.89612 18.2088 8.02885V12.9712ZM20.81 11.7356C20.81 12.0777 20.5171 12.356 20.157 12.356C19.7969 12.356 19.504 12.0777 19.504 11.7356V10.5C19.504 10.1579 19.7969 9.87964 20.157 9.87964C20.5171 9.87964 20.81 10.1579 20.81 10.5V11.7356Z" fill="#1499A2"/>
<path d="M8.44699 9.89844C8.10824 9.89844 7.7837 10.1814 7.79937 10.5137C7.81509 10.847 8.08394 11.1289 8.44699 11.1289C8.78573 11.1289 9.11028 10.8459 9.0946 10.5137C9.07889 10.1803 8.81004 9.89844 8.44699 9.89844Z" fill="#1499A2"/>
<path d="M13.6539 9.89844C13.3152 9.89844 12.9906 10.1814 13.0063 10.5137C13.022 10.847 13.2908 11.1289 13.6539 11.1289C13.9926 11.1289 14.3172 10.8459 14.3015 10.5137C14.2858 10.1803 14.017 9.89844 13.6539 9.89844Z" fill="#1499A2"/>
</g>
<defs>
<clipPath id="clip0_923_8338">
<rect width="22.1053" height="21" fill="white"/>
</clipPath>
</defs>
</svg>
