<svg width="21" height="22" viewBox="0 0 21 22" fill="none" xmlns="http://www.w3.org/2000/svg">
<path d="M6.66931 17.9391C7.66858 18.8273 8.94543 19.327 10.3333 19.327C11.7212 19.327 12.998 18.8273 13.9973 17.9391" stroke="#1499A2" stroke-width="0.9" stroke-miterlimit="10" stroke-linecap="round" stroke-linejoin="round"/>
<path d="M12.998 12.7213C12.3318 13.3874 11.4436 13.8316 10.4443 13.8316C9.38951 13.8316 8.39024 13.3319 7.77957 12.6102" stroke="#1499A2" stroke-width="0.9" stroke-miterlimit="10" stroke-linecap="round" stroke-linejoin="round"/>
<path d="M4.89318 11.5551C5.17076 14.3864 7.55791 16.5515 10.4447 16.5515C13.3315 16.5515 15.7186 14.3864 15.9962 11.5551" stroke="#1499A2" stroke-width="0.9" stroke-miterlimit="10" stroke-linecap="round" stroke-linejoin="round"/>
<path d="M7.11382 15.4409V16.6068C7.11382 17.495 6.39212 18.2167 5.50388 18.2167H3.78291C1.95091 18.2167 0.452003 19.7156 0.452003 21.5476" stroke="#1499A2" stroke-width="0.9" stroke-miterlimit="10" stroke-linecap="round" stroke-linejoin="round"/>
<path d="M20.4375 21.5476C20.4375 19.7156 18.9386 18.2167 17.1066 18.2167H15.3856C14.4974 18.2167 13.7757 17.495 13.7757 16.6068V15.4409" stroke="#1499A2" stroke-width="0.9" stroke-miterlimit="10" stroke-linecap="round" stroke-linejoin="round"/>
<path d="M10.4447 19.3272V21.5478" stroke="#1499A2" stroke-width="0.9" stroke-miterlimit="10" stroke-linecap="round" stroke-linejoin="round"/>
<path d="M4.89324 7.66909H3.67191C3.39433 7.66909 3.22779 7.89114 3.22779 8.1132V11.0555C3.22779 11.6107 3.6719 12.1103 4.28257 12.1103H4.89324" stroke="#1499A2" stroke-width="0.9" stroke-miterlimit="10" stroke-linecap="round" stroke-linejoin="round"/>
<path d="M15.9962 7.66909H17.2175C17.4951 7.66909 17.6616 7.89114 17.6616 8.1132V11.0555C17.6616 11.6107 17.2175 12.1103 16.6069 12.1103H15.9962" stroke="#1499A2" stroke-width="0.9" stroke-miterlimit="10" stroke-linecap="round" stroke-linejoin="round"/>
<path d="M4.89318 8.77927V3.78291C4.89318 1.95091 6.39209 0.452003 8.22409 0.452003H12.6653C14.4973 0.452003 15.9962 1.95091 15.9962 3.78291V8.77927" stroke="#1499A2" stroke-width="0.9" stroke-miterlimit="10" stroke-linecap="round" stroke-linejoin="round"/>
<path d="M14.3308 8.77918V4.39349C14.3308 3.67179 13.8867 3.06112 13.276 2.83906C12.7209 3.61627 11.6106 4.17143 10.3337 4.17143C9.1124 4.17143 8.0021 3.67179 7.44694 2.95009C6.89179 3.22767 6.5587 3.78283 6.5587 4.44901V8.8347" stroke="#1499A2" stroke-width="0.9" stroke-miterlimit="10" stroke-linecap="round" stroke-linejoin="round"/>
</svg>
