<svg width="56" height="196" viewBox="0 0 56 196" fill="none" xmlns="http://www.w3.org/2000/svg">
<path d="M34.6383 0.253248C40.104 0.105624 46.2041 0.253248 50.1082 4.78036C53.6218 8.8154 54.2562 15.1632 54.5979 20.9205C56.2083 47.4435 56.0619 74.0649 55.9155 100.637C55.7691 126.816 55.6715 152.994 55.5251 179.173C55.5251 181.535 55.4763 183.946 54.6466 186.062C52.6946 191.081 47.3753 192.508 42.788 193.246C32.8326 194.919 22.7796 196.494 12.7754 195.854C9.89616 195.657 6.6753 195.067 5.01607 192.311C4.23525 190.983 3.89365 189.408 3.60084 187.784C-1.52326 159.194 1.356 129.571 1.356 100.391C1.356 72.0966 -1.37686 43.7529 0.916787 15.6061C1.4536 8.86461 3.06403 1.58186 9.21295 0.597702C17.2651 -0.632493 26.3909 0.450079 34.6383 0.253248Z" fill="#66C1BD"/>
</svg>
