<svg width="23" height="22" viewBox="0 0 23 22" fill="none" xmlns="http://www.w3.org/2000/svg">
<path d="M11.1509 16.2911C14.0729 16.2911 16.4417 13.9223 16.4417 11.0003C16.4417 8.07824 14.0729 5.70944 11.1509 5.70944C8.22882 5.70944 5.86003 8.07824 5.86003 11.0003C5.86003 13.9223 8.22882 16.2911 11.1509 16.2911Z" stroke="#1499A2" stroke-width="0.9" stroke-miterlimit="10" stroke-linecap="round" stroke-linejoin="round"/>
<path d="M21.733 11C21.733 12.0582 19.0876 12.646 18.7937 13.5866C18.4997 14.586 20.2633 16.7024 19.6755 17.5254C19.0876 18.3484 16.6185 17.2314 15.8543 17.8193C15.0901 18.4072 15.3252 21.229 14.3846 21.5229C13.5028 21.8168 12.0919 19.4066 11.0925 19.4066C10.0931 19.4066 8.74105 21.8168 7.80045 21.5229C6.85986 21.229 7.09501 18.4072 6.33078 17.8193C5.56654 17.2314 3.09748 18.3484 2.50961 17.5254C1.92174 16.7024 3.74414 14.586 3.39142 13.5866C3.09748 12.646 0.452059 12.0582 0.452059 11C0.452059 9.94183 3.09748 9.35396 3.39142 8.41336C3.68535 7.41398 1.92174 5.29765 2.50961 4.47463C3.09748 3.65161 5.56654 4.76856 6.33078 4.18069C7.09501 3.59282 6.85986 0.771033 7.80045 0.477097C8.68226 0.183161 10.0931 2.59343 11.0925 2.59343C12.0919 2.59343 13.444 0.183161 14.3846 0.477097C15.3252 0.771033 15.0901 3.59282 15.8543 4.18069C16.6185 4.76856 19.0876 3.65161 19.6755 4.47463C20.2633 5.29765 18.4409 7.41398 18.7937 8.41336C19.0876 9.35396 21.733 9.94183 21.733 11Z" stroke="#1499A2" stroke-width="0.9" stroke-miterlimit="10" stroke-linecap="round" stroke-linejoin="round"/>
</svg>
