<svg width="13" height="18" viewBox="0 0 13 18" fill="none" xmlns="http://www.w3.org/2000/svg">
<path d="M8.22444 15.4605V17.5477H4.36093V15.4605" stroke="#1499A2" stroke-width="0.9" stroke-miterlimit="10" stroke-linecap="round" stroke-linejoin="round"/>
<path d="M6.3097 12.7979C7.11905 12.7979 7.77516 12.1616 7.77516 11.3768C7.77516 10.592 7.11905 9.95575 6.3097 9.95575C5.50034 9.95575 4.84421 10.592 4.84421 11.3768C4.84421 12.1616 5.50034 12.7979 6.3097 12.7979Z" stroke="#1499A2" stroke-width="0.9" stroke-miterlimit="10" stroke-linecap="round" stroke-linejoin="round"/>
<path d="M9.64381 6.22597V8.26875H3.11581V6.22597C3.11581 5.11577 4.00398 4.22761 5.11418 4.22761H7.60102C8.71122 4.22761 9.64381 5.11577 9.64381 6.22597Z" stroke="#1499A2" stroke-width="0.9" stroke-miterlimit="10" stroke-linecap="round" stroke-linejoin="round"/>
<path d="M8.44315 6.58054V8.31245H4.26878V6.58054" stroke="#1499A2" stroke-width="0.9" stroke-miterlimit="10" stroke-linecap="round" stroke-linejoin="round"/>
<path d="M6.35848 3.65009C7.24141 3.65009 7.95716 2.93434 7.95716 2.05141C7.95716 1.16847 7.24141 0.452713 6.35848 0.452713C5.47555 0.452713 4.7598 1.16847 4.7598 2.05141C4.7598 2.93434 5.47555 3.65009 6.35848 3.65009Z" stroke="#1499A2" stroke-width="0.9" stroke-miterlimit="10" stroke-linecap="round" stroke-linejoin="round"/>
<path d="M5.77719 4.22761H6.93179L6.75417 5.11577H5.99923L5.77719 4.22761Z" stroke="#1499A2" stroke-width="0.9" stroke-miterlimit="10" stroke-linecap="round" stroke-linejoin="round"/>
<path d="M6.00437 5.11732L5.73791 7.55977L5.95995 8.31471H6.75932L7.02575 7.55977L6.75932 5.11732H6.00437Z" stroke="#1499A2" stroke-width="0.9" stroke-miterlimit="10" stroke-linecap="round" stroke-linejoin="round"/>
<path d="M9.29236 15.1527V17.5063H3.34169V15.1527C3.34169 14.1313 4.18545 13.332 5.20683 13.332C5.25124 13.332 5.42886 13.4652 5.60649 13.6428C6.00616 14.0425 6.67229 14.0425 7.11638 13.6428C7.29401 13.4652 7.47162 13.332 7.51603 13.332C8.04893 13.332 8.49302 13.554 8.80388 13.8648C9.07033 14.2201 9.29236 14.6642 9.29236 15.1527Z" stroke="#1499A2" stroke-width="0.9" stroke-miterlimit="10" stroke-linecap="round" stroke-linejoin="round"/>
<path d="M9.28971 16.3043V15.1497C9.28971 14.6612 9.06769 14.1727 8.75684 13.8619C8.44598 13.551 7.95748 13.329 7.46899 13.329C7.42458 13.329 7.24694 13.4622 7.06931 13.6398C6.66963 14.0395 6.00353 14.0395 5.55945 13.6398C5.38182 13.4622 5.20417 13.329 5.15977 13.329C4.13838 13.329 3.29462 14.1283 3.29462 15.1497V16.3043H0.452521L1.60712 8.31086H11.0216L12.1762 16.3043H9.28971Z" stroke="#1499A2" stroke-width="0.9" stroke-miterlimit="10" stroke-linecap="round" stroke-linejoin="round"/>
</svg>
