<svg width="135" height="137" viewBox="0 0 135 137" fill="none" xmlns="http://www.w3.org/2000/svg">
<path d="M71.1702 127.435C77.4979 127.192 83.6309 126.118 90.5108 123.216C102.17 118.284 112.21 110.297 120.389 100.663C126.636 93.3058 144.403 73.1198 128.659 66.1942C120.146 62.4645 108.569 69.7289 100.648 72.3797C86.5659 77.1136 71.1825 69.9116 57.2788 74.8693C48.3249 78.0675 42.2611 87.0259 33.1845 89.8166C27.2858 91.6308 20.9179 90.5631 14.7839 91.0812C8.62653 91.5952 1.79672 94.6263 0.329737 100.654C-2.7249 113.412 16.2156 119.534 25.2389 121.83C34.9054 124.308 44.7659 126.216 54.7461 126.865C60.6724 127.277 65.9823 127.632 71.1702 127.435Z" fill="#66C1BD"/>
<path d="M66.8188 0.00735905C66.631 14.3576 66.4667 14.6701 59.2831 15.0787C66.4667 15.4633 66.631 15.7998 66.8188 30.15C67.0066 15.7998 67.1709 15.4873 74.3545 15.0787C67.1709 14.6941 67.0301 14.3816 66.8188 0.00735905Z" stroke="#3B3B4A" stroke-miterlimit="10"/>
<path d="M115.91 132.081C113.462 114.167 111.633 93.5908 108.639 75.7711C108.52 75.0583 108.401 74.3217 108.473 73.609C108.544 72.7536 108.9 71.9458 109.233 71.1617C110.136 68.9758 110.73 66.7424 111.253 64.4615" stroke="#3B3B4A" stroke-miterlimit="10"/>
<path d="M108.972 49.398C108.687 47.616 106.334 36.7103 105.408 34.3344C104.552 32.1247 103.412 30.0339 102.129 28.0618C99.8956 24.6404 97.3058 21.1478 94.4309 18.2729C93.338 17.1799 91.2233 16.2295 90.8432 18.3679C90.368 20.9815 92.4351 23.7138 93.9319 25.6383C95.215 27.2778 96.1653 28.7984 96.9969 30.7229C97.3771 31.6495 97.9473 33.0513 98.4463 34.2393" stroke="#3B3B4A" stroke-miterlimit="10"/>
<path d="M97.8285 37.1143C97.282 36.1877 96.4742 34.9046 95.6664 34.4294C94.9061 33.978 94.0032 33.6691 93.1716 33.9543C92.4588 34.2156 91.9361 34.8334 91.5797 35.4749C90.6293 37.1856 90.4868 39.2289 90.4868 41.2009C90.4868 43.6719 90.6769 46.1429 91.2471 48.5426C91.6035 50.0157 91.9124 51.4888 92.5063 52.8907C92.9103 53.841 93.5755 55.2666 94.716 55.5042C95.5001 55.6705 96.3079 55.029 96.5455 54.3162C96.7593 53.6272 96.6643 52.8669 96.593 52.1779C96.1416 48.6139 95.0724 45.0262 95.7377 41.486" stroke="#3B3B4A" stroke-miterlimit="10"/>
<path d="M90.4629 40.4168C90.2966 40.1792 90.1303 39.9654 89.9402 39.7753C88.8472 38.7061 87.2553 38.5636 86.0198 39.4902C85.2358 40.0842 84.7606 41.0346 84.6418 41.985C84.4755 43.1492 84.7368 44.3134 85.0695 45.4301C85.3546 46.4518 85.6159 47.4734 85.9486 48.4951C86.6138 50.5859 87.4929 52.6293 88.4671 54.6251C88.7997 55.3141 89.1324 56.0031 89.5363 56.6446C90.0115 57.4287 90.3679 58.0465 91.1282 58.5454C91.3182 58.688 91.5558 58.8068 91.7934 58.8068C93.813 58.8543 93.5516 56.312 93.1715 55.0052C92.9339 54.1736 92.6013 53.3896 92.3637 52.558" stroke="#3B3B4A" stroke-miterlimit="10"/>
<path d="M85.1407 45.739C84.8794 44.5272 83.7389 43.7669 82.5984 43.9095C81.458 44.052 80.5076 44.9311 80.0324 45.9766C79.5572 47.022 79.4622 48.1862 79.4384 49.3504C79.2958 60.2323 85.5209 72.9437 93.0289 80.6656C93.4328 81.0695 93.8605 81.4972 94.0268 82.0436C94.1931 82.5426 94.1456 83.0891 94.0981 83.6118C92.625 99.7683 91.1281 115.949 89.655 132.105" stroke="#3B3B4A" stroke-miterlimit="10"/>
<path d="M82.4798 48.8515C83.4539 50.6335 84.4518 52.4154 85.8774 53.9361C86.3051 54.3637 86.6852 54.7439 87.2079 55.1003C87.6831 55.4329 88.1821 55.6468 88.8949 55.5517" stroke="#3B3B4A" stroke-miterlimit="10"/>
<path d="M101.725 48.8277C98.9215 45.1925 97.4484 40.4643 97.9711 35.9025C98.0661 35.0471 98.2562 34.1443 98.8977 33.5978C100.181 32.4573 101.701 33.7879 102.414 34.8333C103.412 36.3064 103.863 38.0646 104.457 39.704C105.74 43.2442 107.831 46.4755 109.186 49.9919C109.898 51.8452 110.397 53.7697 110.873 55.6942C111.3 57.4287 111.728 59.1869 111.728 60.9926C111.728 63.3211 110.944 65.3407 110.492 67.5741" stroke="#3B3B4A" stroke-miterlimit="10"/>
<path d="M103.032 46.7606C98.185 53.7935 96.6881 63.0597 99.0879 71.2568" stroke="#3B3B4A" stroke-miterlimit="10"/>
<path d="M46.4923 82.5089C44.9363 80.6952 43.1372 79.0162 41.367 77.4354C40.152 76.3415 38.9122 75.2487 38.0097 73.893C36.4827 71.5805 36.0765 68.6989 36.0599 65.913C36.0563 63.1389 36.3884 60.3634 36.1861 57.5976C36.0934 56.2704 35.8099 54.8391 34.8029 53.9605C34.4676 53.6759 34.0102 53.4462 33.5812 53.6009C33.3608 53.6847 33.1683 53.842 33.0146 54.035C32.0656 55.1445 31.8944 56.7066 31.5301 58.1151C31.1017 59.7751 30.3462 61.3492 29.7916 62.9646C28.4716 66.8139 28.2372 71.0409 29.1371 75.0216C30.8448 82.5639 36.3623 88.6909 38.7582 96.0303C40.8963 102.559 39.6923 109.19 38.7486 115.798C37.7194 123.044 36.0197 129.721 33.2473 136.629" stroke="#3B3B4A" stroke-miterlimit="10"/>
<path d="M29.9039 62.9725C28.9455 61.4698 28.0607 59.9392 27.2116 58.3698C25.2571 54.7565 23.683 51.0154 22.3143 47.1289C21.8212 45.7437 20.172 40.5005 17.8539 41.5923C15.3531 42.7788 16.1009 46.6912 16.5743 48.7988C18.6846 58.2401 24.1867 66.383 29.045 74.6026" stroke="#3B3B4A" stroke-miterlimit="10"/>
<path d="M54.4387 127.51C54.5023 126.948 54.5561 126.448 54.6249 126.009C56.1601 115.384 57.7081 104.77 59.2433 94.144C59.813 90.2016 60.3925 86.1966 59.9288 82.235C58.9518 73.7169 52.4625 70.5414 47.9073 64.225C44.5403 59.5509 42.6013 53.9216 40.8813 48.4699C40.6655 47.7698 40.4357 47.0329 39.8924 46.5331C39.1551 45.8547 38.2195 46.0928 37.6503 46.7634" stroke="#3B3B4A" stroke-miterlimit="10"/>
<path d="M35.3007 54.5619C34.7853 52.9413 34.3682 51.2916 34.0505 49.6379C33.2717 45.5775 32.9964 41.3593 31.3436 37.5219C30.6823 35.982 29.2138 34.1772 27.5047 35.8532C26.8838 36.4762 26.6349 37.3699 26.5588 38.2314C26.4869 39.1923 26.6137 40.1449 26.7405 41.0975C27.4137 46.2073 28.9092 54.0321 30.8647 60.0587" stroke="#3B3B4A" stroke-miterlimit="10"/>
<path d="M39.6303 64.4208C38.1152 62.0954 37.0596 59.4523 36.0805 56.8558" stroke="#3B3B4A" stroke-miterlimit="10"/>
<path d="M43.5437 63.6977C41.3786 60.1056 40.4395 57.5696 39.3378 53.5227C38.279 49.6108 37.7108 45.5292 35.818 41.9009C35.1153 40.5618 33.7208 39.04 32.3019 40.2187" stroke="#3B3B4A" stroke-miterlimit="10"/>
</svg>
