<svg width="18" height="18" viewBox="0 0 18 18" fill="none" xmlns="http://www.w3.org/2000/svg">
<path d="M15.2474 1.5L13.7423 3.07687M13.7423 3.07687L16 5.44217L13.366 8.20169L11.1083 5.83639M13.7423 3.07687L11.1083 5.83639M8.01532 9.07685C8.4039 9.47853 8.7128 9.95677 8.92423 10.484C9.13566 11.0113 9.24545 11.5772 9.24728 12.1491C9.24911 12.721 9.14294 13.2876 8.93488 13.8164C8.72683 14.3451 8.42099 14.8255 8.03499 15.2299C7.64899 15.6343 7.19045 15.9547 6.68577 16.1727C6.18109 16.3907 5.64023 16.5019 5.09435 16.5C4.54847 16.4981 4.00833 16.383 3.50506 16.1615C3.00178 15.94 2.5453 15.6164 2.16189 15.2093C1.40792 14.3914 0.990726 13.2961 1.00016 12.1591C1.00959 11.0221 1.44489 9.93446 2.21231 9.13046C2.97973 8.32646 4.01787 7.87041 5.10312 7.86053C6.18838 7.85065 7.23392 8.28773 8.01457 9.07764L8.01532 9.07685ZM8.01532 9.07685L11.1083 5.83639" stroke="#1499A2" stroke-linecap="round" stroke-linejoin="round"/>
</svg>
