<svg width="30" height="30" viewBox="0 0 30 30" fill="none" xmlns="http://www.w3.org/2000/svg">
<g clip-path="url(#clip0_923_8532)">
<path d="M19.7906 13.4963C19.7497 13.2571 19.5225 13.0962 19.2834 13.1372C19.0442 13.1781 18.8834 13.4053 18.9243 13.6445L19.0382 14.3103C19.0748 14.5245 19.2607 14.6757 19.4708 14.6757C19.4954 14.6757 19.5204 14.6737 19.5454 14.6694C19.7846 14.6285 19.9454 14.4014 19.9045 14.1622L19.7906 13.4963Z" fill="#1499A2"/>
<path d="M12.1696 14.4514C12.1287 14.2122 11.9019 14.0513 11.6623 14.0923C11.4231 14.1332 11.2623 14.3603 11.3032 14.5996L11.4171 15.2654C11.4537 15.4795 11.6395 15.6308 11.8498 15.6308C11.8743 15.6308 11.8993 15.6288 11.9243 15.6245C12.1636 15.5836 12.3244 15.3565 12.2834 15.1173L12.1696 14.4514Z" fill="#1499A2"/>
<path d="M29.9691 29.4831L29.1605 24.9642C28.8593 23.2803 27.399 22.058 25.6882 22.058H19.0493V19.8902L20.9018 19.6577C22.5507 19.4511 23.9958 18.5963 24.9708 17.2508C25.9459 15.9052 26.3083 14.2658 25.9912 12.6345L24.6149 5.55408C24.2819 3.83957 23.3196 2.33096 21.9052 1.3061C20.491 0.281411 18.7582 -0.163315 17.025 0.0537742C16.7843 0.0839499 16.6135 0.303618 16.6437 0.544437C16.6738 0.785316 16.8939 0.955823 17.1343 0.925882C18.6451 0.736566 20.1565 1.1244 21.3895 2.01783C22.6227 2.91139 23.4617 4.22676 23.7521 5.72171L25.1285 12.8022C25.3986 14.1919 25.0899 15.5887 24.2591 16.735C23.5593 17.7007 22.5747 18.3682 21.4422 18.6602C21.5646 18.5364 21.6812 18.4054 21.7898 18.2658C22.5005 17.3506 22.8125 16.2136 22.6684 15.0641L21.7278 7.56114C21.6975 7.32032 21.4771 7.14952 21.2371 7.17976C20.9963 7.20993 20.8255 7.42966 20.8557 7.67048L21.1245 9.81495C19.4485 9.90729 17.916 9.30284 16.564 8.01284C15.4425 6.94281 14.8716 5.77943 14.8651 5.76613C14.7249 5.43736 14.138 5.41345 14.0386 5.86978C14.0311 5.90628 13.3263 9.20774 10.6669 10.7149L10.8908 9.96202C11.0649 9.37679 10.7603 8.75288 10.1959 8.52811L8.38735 7.60351C7.87436 7.34118 7.24553 7.45585 6.85811 7.8823L5.49423 9.38341L5.41583 8.02022C5.32817 6.50001 5.81655 5.01824 6.79096 3.84789C7.76532 2.6776 9.13406 1.92877 10.645 1.73922L15.0953 1.18153C15.3361 1.15135 15.5068 0.931624 15.4767 0.690804C15.4466 0.449984 15.227 0.279125 14.986 0.309418L10.5357 0.867113C8.80283 1.0845 7.23305 1.94342 6.11555 3.28551C4.998 4.62771 4.4379 6.32716 4.53839 8.07067L4.64772 9.97104C4.11065 10.276 3.74591 10.8402 3.71726 11.4881L3.60593 14.0066L0.0367573 29.4616C-0.0178519 29.6981 0.12957 29.934 0.366054 29.9886C0.399335 29.9963 0.432557 30 0.465311 30C0.66535 30 0.84617 29.8625 0.893103 29.6593L4.47136 14.1652C4.47739 14.1391 4.48103 14.1125 4.4822 14.0857L4.59528 11.5269C4.61304 11.125 4.87817 10.7841 5.24819 10.6598C5.31218 10.6246 5.49745 10.6501 5.6863 10.4789L7.50868 8.47321C7.62991 8.3398 7.82684 8.30394 7.98733 8.38597L9.81627 9.32106C9.94535 9.36448 10.0785 9.48524 10.0484 9.71135L8.95312 13.3933C8.88287 13.6302 8.73697 13.9925 8.55651 14.2933C8.21965 14.8552 7.74539 15.3269 7.1669 15.6631C7.04028 15.7366 6.95866 15.8684 6.94916 16.0146L6.07219 29.532C6.05649 29.7742 6.24007 29.9833 6.48229 29.999C6.72469 30.0151 6.93358 29.8311 6.94928 29.5889L7.38088 22.9371H8.19451V29.5605C8.19451 29.8032 8.39127 29.9999 8.63397 29.9999C8.87666 29.9999 9.07342 29.8032 9.07342 29.5605V22.9371H9.66C9.90269 22.9371 10.0995 22.7403 10.0995 22.4976C10.0995 22.2549 9.90269 22.0582 9.66 22.0582H7.43789L7.58016 19.8659C9.35063 21.0511 11.0249 20.9551 12.841 20.6683V22.058H11.7122C11.4637 22.0666 11.2151 22.28 11.2831 22.5923C11.2919 22.6323 11.5042 23.5811 11.9477 24.5447C12.595 25.9509 13.3932 26.6642 14.3201 26.6647C14.9573 26.6754 15.5948 26.3885 15.9452 25.9125C16.2732 26.3659 16.8897 26.6682 17.5703 26.6647C18.4972 26.6642 19.2954 25.9509 19.9427 24.5448C20.2292 23.9222 20.4191 23.3062 20.5202 22.9371H22.8166V29.5605C22.8166 29.8032 23.0133 29.9999 23.256 29.9999H23.2561H23.2561C23.4989 29.9999 23.6956 29.8032 23.6956 29.5605V22.9369H25.6883C26.9728 22.9369 28.0692 23.8546 28.2954 25.119L29.104 29.6378C29.142 29.8506 29.3273 30 29.5361 30C29.5617 30 29.5878 29.9977 29.614 29.993C29.8528 29.9503 30.0119 29.722 29.9691 29.4831ZM13.9713 8.45522C14.2554 7.93503 14.4609 7.44425 14.6054 7.04277C14.9127 7.49722 15.3545 8.06974 15.9353 8.62755C17.3584 9.9946 19.0292 10.7023 20.8107 10.7023C20.9511 10.7023 21.0923 10.6978 21.2342 10.689L21.7963 15.1735C21.9112 16.0901 21.6624 16.9968 21.0957 17.7266C20.5286 18.4562 19.7114 18.9213 18.7947 19.0363C18.5212 19.0599 18.1845 19.1068 18.1705 19.5024V22.2839L15.9452 24.0323L13.7198 22.2839V20.1591C13.7155 19.9722 13.566 19.7212 13.2569 19.7203C11.4562 19.8161 9.86883 18.4886 9.64418 16.6969L9.38408 14.62C9.59408 14.2723 9.81182 13.6318 9.93521 13.1745C9.99885 13.2678 10.0975 13.3381 10.2137 13.3652C10.4103 13.411 10.593 13.4308 10.7626 13.4308C11.542 13.4308 12.0363 13.0118 12.3788 12.623C12.5543 12.4239 12.5163 12.1164 12.2968 11.9673C12.1147 11.8435 11.8696 11.8738 11.7225 12.0375C11.4167 12.3782 11.0372 12.659 10.4009 12.5063C10.3059 12.4836 10.2108 12.4936 10.1272 12.5291L10.329 11.8505C11.8281 11.2487 13.0843 10.0794 13.9713 8.45522ZM7.64789 18.8213L7.8116 16.2982C8.10873 16.1054 8.38108 15.8823 8.62524 15.6335L8.77213 16.8062C8.9434 18.1725 9.74672 19.3235 10.8579 19.9889C9.68941 19.9843 8.55457 19.5746 7.64789 18.8213ZM15.3375 25.2347C15.1736 25.5659 14.8025 25.7895 14.3205 25.7858C13.3426 25.7852 12.6091 24.0231 12.2831 22.937H13.1284L15.484 24.7877C15.4626 24.911 15.4205 25.0755 15.3375 25.2347ZM17.5698 25.7858C16.9321 25.7924 16.5072 25.4174 16.4064 24.7877L18.7619 22.9371H19.6078C19.2827 24.0231 18.5502 25.7852 17.5698 25.7858Z" fill="#1499A2"/>
<path d="M14.7991 17.1664C14.8583 17.1664 14.9184 17.1543 14.9761 17.129L16.2727 16.5577C16.4674 16.4792 16.6915 16.4947 16.8734 16.5995C17.0836 16.7206 17.3524 16.6484 17.4735 16.4382C17.5947 16.2279 17.5225 15.9591 17.3122 15.838C16.8948 15.5975 16.3795 15.5632 15.9338 15.7468C15.9305 15.7482 15.9273 15.7496 15.924 15.751L14.6218 16.3246C14.3997 16.4225 14.2989 16.6818 14.3968 16.9039C14.4692 17.0684 14.6303 17.1664 14.7991 17.1664Z" fill="#1499A2"/>
<path d="M3.26579 3.94829C1.01052 4.83095 0.984619 6.92597 0.984619 7.01474C0.984619 7.25644 1.17979 7.45138 1.42144 7.45284H1.42413C1.6646 7.45284 1.86065 7.25808 1.86353 7.01732C1.86429 6.95263 1.90185 5.42597 3.58612 4.76679C3.81212 4.67831 3.92362 4.42343 3.8352 4.19738C3.74667 3.97138 3.49173 3.85987 3.26579 3.94829Z" fill="#1499A2"/>
<path d="M0.939334 3.99044C1.02148 4.05894 1.12127 4.09234 1.22047 4.09234C1.34633 4.09234 1.47131 4.03855 1.55826 3.93425C1.56916 3.92124 2.66427 2.63423 4.37111 2.92175C4.6107 2.96207 4.83716 2.8007 4.87748 2.5614C4.91779 2.3221 4.75648 2.09535 4.51713 2.05503C2.31816 1.68466 0.940799 3.30244 0.883201 3.37152C0.727752 3.5579 0.752889 3.83499 0.939334 3.99044Z" fill="#1499A2"/>
<path d="M17.8306 11.9625C18.1786 12.1826 18.5722 12.3882 19.0913 12.3882C19.3976 12.3882 19.7477 12.3166 20.1277 12.1164C20.3748 11.9861 20.4466 11.6537 20.2467 11.4296C20.1121 11.2787 19.8889 11.25 19.7095 11.3432C18.9721 11.7267 18.4668 11.3261 18.4114 11.279L18.2897 11.2079C18.1086 11.1019 17.8779 11.1381 17.7379 11.2944C17.5554 11.4979 17.5997 11.8164 17.8306 11.9625Z" fill="#1499A2"/>
</g>
<defs>
<clipPath id="clip0_923_8532">
<rect width="30" height="30" fill="white"/>
</clipPath>
</defs>
</svg>
