<svg width="21" height="21" viewBox="0 0 21 21" fill="none" xmlns="http://www.w3.org/2000/svg">
<g clip-path="url(#clip0_923_8362)">
<path d="M8.61902 15.7432H12.3249V16.9785H8.61902V15.7432Z" fill="#1499A2"/>
<path d="M8.96909 10.4238V9.18848H5.88086V10.4238H6.80733V11.659H8.04262V10.4238H8.96909Z" fill="#1499A2"/>
<path d="M15.1195 10.4238V9.18848H12.0312V10.4238H12.9727V11.644H14.208V10.4238H15.1195Z" fill="#1499A2"/>
<path d="M9.88281 11.7412H11.1181V13.5942H9.88281V11.7412Z" fill="#1499A2"/>
<path d="M10.5 0.00585938C4.69951 0.00585938 0 4.70829 0 10.5059V12.3588C0 16.0475 2.70225 19.1311 6.27097 19.6829C8.68268 21.4439 12.34 21.419 14.7189 19.6844C18.3081 19.1346 21 16.0354 21 12.3588V10.5059C21 4.70241 16.3043 0.00585938 10.5 0.00585938ZM1.23529 12.3588V10.5059C1.23529 7.45073 2.75714 4.58942 5.25181 2.86981C5.6238 3.74094 6.20044 4.50414 6.93992 5.10281C6.68607 5.2384 6.41842 5.34892 6.13892 5.43345C4.34416 5.9762 3.08824 7.63084 3.08824 9.54315V13.5941C3.08824 15.0837 3.52475 16.506 4.33691 17.7151C2.47306 16.6395 1.23529 14.6211 1.23529 12.3588ZM4.32353 13.5941V9.54315C4.32353 8.18532 5.19676 7.00895 6.49645 6.61584C7.07296 6.44154 7.61003 6.18068 8.09805 5.83847C8.65311 6.10792 9.24362 6.2884 9.85884 6.37627L14.0511 6.97498C15.5478 7.18872 16.6765 8.49023 16.6765 10.0023V13.5941C16.4185 21.7559 4.57306 21.7583 4.32353 13.5941ZM19.7647 12.3588C19.7647 14.6248 18.5229 16.6463 16.6539 17.7205C17.4479 16.5402 17.9118 15.1203 17.9118 13.5941V10.0023C17.9118 7.86451 16.3381 6.05378 14.2257 5.75208L10.0334 5.15337C8.41569 4.92237 6.95005 3.85141 6.32536 2.23277C12.2708 -0.919458 19.9244 3.7444 19.7647 10.5059V12.3588Z" fill="#1499A2"/>
</g>
<defs>
<clipPath id="clip0_923_8362">
<rect width="21" height="21" fill="white"/>
</clipPath>
</defs>
</svg>
