<svg width="110" height="126" viewBox="0 0 110 126" fill="none" xmlns="http://www.w3.org/2000/svg">
<ellipse cx="53.027" cy="46.2138" rx="46.7161" ry="46.2138" fill="#F9F9F9"/>
<path fill-rule="evenodd" clip-rule="evenodd" d="M64.3851 15.4396C64.3758 15.1213 64.1148 14.8683 63.7965 14.8688C63.4781 14.8693 63.2179 15.1232 63.2096 15.4414C63.142 18.0235 63.0169 19.973 62.8156 21.4465C62.7026 22.2739 62.5673 22.9362 62.4113 23.4676C62.1832 23.3368 61.937 23.174 61.6675 22.9753C60.7554 22.3028 59.6595 21.2835 58.1742 19.8804C57.9428 19.6617 57.5793 19.667 57.3543 19.8924C57.1294 20.1177 57.1246 20.4812 57.3437 20.7123L57.3869 20.7579L57.387 20.758L57.387 20.758L57.3871 20.7581C58.5341 21.9682 59.4357 22.9194 60.1317 23.6901C59.9034 23.6071 59.6722 23.5287 59.4383 23.455C57.7512 22.9235 56.1124 22.6577 54.5217 22.6577C52.449 22.6577 50.5932 22.6819 48.9544 22.7302C47.3637 22.7785 45.8695 22.8027 44.4716 22.8027C43.122 22.8027 41.7482 22.7785 40.3504 22.7302C39.0007 22.6336 37.6029 22.5611 36.1568 22.5128C35.964 22.7061 35.8676 23.0443 35.8676 23.5275C35.9158 24.0107 36.0122 24.349 36.1568 24.5422C36.446 24.5422 36.9521 24.5906 37.6752 24.6872C38.4464 24.7355 39.1694 24.8322 39.8442 24.9771C40.5673 25.1221 40.9529 25.3395 41.0011 25.6294C41.1939 26.2093 41.2903 26.9824 41.2903 27.9488C41.3385 28.8669 41.3626 29.8575 41.3626 30.9205L41.4349 61.1448C41.4349 62.2078 41.4108 63.1984 41.3626 64.1165C41.3626 65.0345 41.2662 65.7835 41.0734 66.3634C41.0252 66.605 40.6396 66.8224 39.9165 67.0157C39.2417 67.209 38.5187 67.3539 37.7475 67.4506C36.9762 67.4989 36.446 67.523 36.1568 67.523C36.0122 67.7163 35.9158 68.0546 35.8676 68.5378C35.8676 69.021 35.964 69.3592 36.1568 69.5525C37.6029 69.4558 39.0248 69.3834 40.4227 69.335C41.8205 69.2384 43.1943 69.1901 44.5439 69.1901C45.9418 69.1901 47.2914 69.2384 48.5929 69.335C49.9425 69.3834 51.3404 69.4558 52.7864 69.5525C52.9792 69.3592 53.0515 69.021 53.0033 68.5378C53.0033 68.0546 52.931 67.7163 52.7864 67.523C52.4972 67.523 51.967 67.4989 51.1958 67.4506C50.4245 67.3539 49.7015 67.209 49.0267 67.0157C48.3519 66.8224 47.9662 66.605 47.8698 66.3634C47.7252 65.8801 47.6288 65.2762 47.5806 64.5513V62.0145V61.5797V61.1448V47.9534H51.2681C52.3285 47.9534 53.0515 48.2433 53.4371 48.8231C54.5458 50.5627 55.7026 52.3505 56.9077 54.1867C58.1127 55.9745 59.2455 57.6657 60.3059 59.2603C61.3663 60.8549 62.2822 62.2078 63.0534 63.3192C63.8246 64.4306 64.3549 65.1795 64.6441 65.5661C65.4635 66.6291 66.307 67.3781 67.1747 67.813C68.0423 68.1995 68.7171 68.4894 69.1991 68.6827C69.9222 68.9243 71.0549 69.1418 72.5974 69.335C74.188 69.48 76.1643 69.5525 78.5262 69.5525C78.5744 69.4558 78.6467 69.1418 78.7431 68.6102C78.8395 68.0787 78.7913 67.7163 78.5985 67.523C76.6704 67.3781 75.1039 66.9674 73.8988 66.2909C72.742 65.6144 71.6574 64.5997 70.6452 63.2467C69.1027 61.1689 67.7049 59.2844 66.4516 57.5932C65.1984 55.8537 63.9933 54.1142 62.8365 52.3747C61.6797 50.6351 60.4746 48.7265 59.2214 46.6487C60.812 46.1172 62.3304 45.2474 63.7764 44.0394C65.2707 42.8314 66.4757 41.4301 67.3916 39.8356C68.3556 38.241 68.8376 36.5981 68.8376 34.9069C68.8376 33.8244 68.7142 32.8176 68.4674 31.8863C68.7672 32.1708 69.0844 32.4716 69.4206 32.7892C69.652 33.0078 70.0155 33.0025 70.2405 32.7772C70.4655 32.5518 70.4702 32.1883 70.2511 31.9572C68.8456 30.4744 67.8258 29.3815 67.1537 28.4722C66.9833 28.2416 66.8394 28.0282 66.7195 27.8286C67.2239 27.5894 67.8732 27.4128 68.727 27.2837C70.1689 27.0658 72.0886 26.9966 74.6921 26.9225C75.0103 26.9135 75.2636 26.6527 75.2633 26.3343C75.2631 26.0158 75.0094 25.7555 74.6911 25.747C72.0875 25.6773 70.1701 25.6113 68.7311 25.3954C67.8759 25.2672 67.2269 25.0906 66.7236 24.8507C66.8435 24.6511 66.9873 24.4377 67.1575 24.2071C67.8303 23.2951 68.8496 22.1988 70.2522 20.7112C70.4706 20.4795 70.465 20.1161 70.2395 19.8914C70.014 19.6666 69.6506 19.6621 69.4196 19.8813C67.9394 21.286 66.8474 22.3054 65.938 22.9775C65.7066 23.1485 65.4924 23.2929 65.2921 23.413C65.0538 22.9092 64.8777 22.2602 64.7489 21.4066C64.5314 19.9647 64.4617 18.0446 64.3851 15.4396ZM51.4127 24.9771C54.3583 24.9771 56.6592 25.5409 58.3153 26.6686C58.3913 26.7785 58.5037 26.8613 58.6352 26.8995C59.0427 27.2113 59.4068 27.5611 59.7275 27.9488C61.4146 29.9299 62.2581 32.4667 62.2581 35.5592C62.2581 37.637 61.7279 39.449 60.6674 40.9953C59.607 42.4932 58.2332 43.677 56.5462 44.5468C54.9073 45.3682 53.172 45.779 51.3404 45.779H47.5806L47.5083 30.993V27.8763C47.5565 26.8133 47.677 26.0643 47.8698 25.6294C48.0144 25.2912 48.5206 25.0979 49.3882 25.0496C50.304 25.0013 50.9789 24.9771 51.4127 24.9771Z" fill="#66C1BD"/>
<path d="M8.81615 103.894C9.56791 103.894 10.3425 104.019 11.1398 104.268C11.9371 104.518 12.6661 104.88 13.3267 105.357C14.0102 105.833 14.5569 106.434 14.9669 107.159C15.377 107.862 15.582 108.689 15.582 109.642C15.582 110.435 15.3542 111.206 14.8986 111.954C14.4658 112.703 13.8963 113.36 13.19 113.927C12.5066 114.494 11.789 114.902 11.0373 115.151C11.6296 116.126 12.1991 117.022 12.7458 117.838C13.2926 118.654 13.8621 119.47 14.4544 120.287C15.0467 121.08 15.7073 121.964 16.4363 122.939C16.9147 123.574 17.4273 124.05 17.974 124.368C18.5435 124.685 19.2839 124.878 20.1951 124.946C20.2862 125.036 20.309 125.206 20.2635 125.456C20.2179 125.705 20.1837 125.853 20.161 125.898C19.0447 125.898 18.1107 125.864 17.3589 125.796C16.6299 125.705 16.0946 125.603 15.7529 125.49C15.5251 125.399 15.2061 125.263 14.7961 125.082C14.386 124.878 13.9874 124.526 13.6001 124.027C13.4634 123.846 13.2128 123.495 12.8483 122.973C12.4838 122.452 12.051 121.817 11.5498 121.069C11.0487 120.321 10.5133 119.527 9.94379 118.688C9.37428 117.827 8.82754 116.988 8.30358 116.171C8.12133 115.899 7.77962 115.763 7.27845 115.763H5.53572V121.953C5.53572 122.021 5.53572 122.089 5.53572 122.157C5.53572 122.225 5.53572 122.293 5.53572 122.361C5.53572 122.792 5.53572 123.189 5.53572 123.551C5.5585 123.891 5.60406 124.175 5.6724 124.402C5.71797 124.515 5.90021 124.617 6.21914 124.708C6.53807 124.798 6.87978 124.866 7.24428 124.912C7.60877 124.934 7.85936 124.946 7.99604 124.946C8.06438 125.036 8.09855 125.195 8.09855 125.422C8.12133 125.649 8.08716 125.807 7.99604 125.898C7.31262 125.853 6.65198 125.819 6.01412 125.796C5.39904 125.751 4.76117 125.728 4.10053 125.728C3.46267 125.728 2.81342 125.751 2.15278 125.796C1.49214 125.819 0.820107 125.853 0.136684 125.898C0.0455615 125.807 0 125.649 0 125.422C0.0227807 125.195 0.0683422 125.036 0.136684 124.946C0.273369 124.946 0.523957 124.934 0.888449 124.912C1.25294 124.866 1.59465 124.798 1.91358 124.708C2.25529 124.617 2.43754 124.515 2.46032 124.402C2.55144 124.13 2.597 123.778 2.597 123.347C2.61979 122.917 2.63118 122.452 2.63118 121.953L2.597 107.771C2.597 107.272 2.58561 106.808 2.56283 106.377C2.56283 105.923 2.51727 105.561 2.42615 105.289C2.40337 105.153 2.22112 105.051 1.87941 104.983C1.56048 104.914 1.21877 104.869 0.854278 104.846C0.512567 104.801 0.273369 104.778 0.136684 104.778C0.0683422 104.688 0.0227807 104.529 0 104.302C0 104.076 0.0455615 103.917 0.136684 103.826C0.820107 103.849 1.48075 103.883 2.11861 103.928C2.77925 103.951 3.4285 103.962 4.06636 103.962C4.727 103.962 5.43321 103.951 6.18497 103.928C6.95952 103.906 7.83658 103.894 8.81615 103.894ZM12.4725 109.948C12.4725 108.497 12.0738 107.306 11.2765 106.377C10.5019 105.447 9.19203 104.983 7.34679 104.983C7.14176 104.983 6.82283 104.994 6.39 105.017C5.97994 105.039 5.74075 105.13 5.6724 105.289C5.58128 105.493 5.52433 105.844 5.50155 106.343C5.50155 106.819 5.50155 107.306 5.50155 107.805L5.53572 114.743H7.31262C8.17829 114.743 8.99839 114.55 9.77294 114.165C10.5703 113.757 11.2195 113.201 11.7207 112.498C12.2219 111.773 12.4725 110.923 12.4725 109.948Z" fill="white"/>
<path d="M26.1903 103.962C26.8509 103.962 27.4888 103.951 28.1039 103.928C28.7417 103.883 29.4024 103.849 30.0858 103.826C30.1769 103.917 30.2111 104.076 30.1883 104.302C30.1883 104.529 30.1541 104.688 30.0858 104.778C29.9491 104.778 29.6985 104.801 29.334 104.846C28.9695 104.869 28.6278 104.914 28.3089 104.983C27.99 105.051 27.8077 105.153 27.7622 105.289C27.6938 105.515 27.6483 105.81 27.6255 106.173C27.6255 106.536 27.6255 106.932 27.6255 107.363C27.6255 107.431 27.6255 107.499 27.6255 107.567C27.6255 107.635 27.6255 107.703 27.6255 107.771V121.953C27.6255 122.021 27.6255 122.089 27.6255 122.157C27.6255 122.225 27.6255 122.293 27.6255 122.361C27.6255 122.792 27.6255 123.189 27.6255 123.551C27.6483 123.891 27.6938 124.175 27.7622 124.402C27.8077 124.515 27.99 124.617 28.3089 124.708C28.6278 124.798 28.9695 124.866 29.334 124.912C29.6985 124.934 29.9491 124.946 30.0858 124.946C30.1541 125.036 30.1883 125.195 30.1883 125.422C30.2111 125.649 30.1769 125.807 30.0858 125.898C29.4024 125.853 28.7417 125.819 28.1039 125.796C27.4888 125.751 26.8509 125.728 26.1903 125.728C25.5524 125.728 24.9032 125.751 24.2425 125.796C23.5819 125.819 22.9099 125.853 22.2264 125.898C22.1353 125.807 22.0898 125.649 22.0898 125.422C22.1125 125.195 22.1581 125.036 22.2264 124.946C22.3631 124.946 22.6137 124.934 22.9782 124.912C23.3427 124.866 23.6844 124.798 24.0033 124.708C24.345 124.617 24.5273 124.515 24.5501 124.402C24.6412 124.13 24.6868 123.778 24.6868 123.347C24.7095 122.917 24.7209 122.452 24.7209 121.953V107.771C24.7209 107.272 24.7095 106.808 24.6868 106.377C24.6868 105.923 24.6412 105.561 24.5501 105.289C24.5273 105.153 24.345 105.051 24.0033 104.983C23.6844 104.914 23.3427 104.869 22.9782 104.846C22.6137 104.801 22.3631 104.778 22.2264 104.778C22.1581 104.688 22.1125 104.529 22.0898 104.302C22.0898 104.076 22.1353 103.917 22.2264 103.826C22.9099 103.849 23.5819 103.883 24.2425 103.928C24.9032 103.951 25.5524 103.962 26.1903 103.962Z" fill="white"/>
<path d="M50.4387 119.98C50.4387 119.912 50.4387 119.844 50.4387 119.776C50.4387 119.708 50.4387 119.64 50.4387 119.572C50.4387 119.142 50.4273 118.756 50.4045 118.416C50.4045 118.053 50.3704 117.759 50.302 117.532C50.2792 117.396 50.097 117.294 49.7553 117.226C49.4363 117.135 49.0946 117.078 48.7301 117.056C48.3884 117.01 48.1492 116.988 48.0125 116.988C47.9442 116.897 47.8986 116.738 47.8759 116.512C47.8759 116.285 47.9214 116.126 48.0125 116.035C48.696 116.058 49.3566 116.092 49.9945 116.137C50.6323 116.183 51.2702 116.205 51.908 116.205C52.5687 116.205 53.1838 116.183 53.7533 116.137C54.3456 116.092 54.9835 116.058 55.6669 116.035C55.758 116.126 55.7922 116.285 55.7694 116.512C55.7694 116.738 55.7352 116.897 55.6669 116.988C55.5302 116.988 55.291 117.01 54.9493 117.056C54.6076 117.078 54.2886 117.135 53.9925 117.226C53.6963 117.294 53.5255 117.396 53.4799 117.532C53.3888 117.804 53.3318 118.155 53.3091 118.586C53.3091 119.017 53.3091 119.482 53.3091 119.98V122.327C53.3091 122.69 53.366 122.962 53.4799 123.143C53.5938 123.325 53.6508 123.506 53.6508 123.687C53.6508 123.778 53.6166 123.857 53.5483 123.925C53.4799 123.993 53.2977 124.107 53.0015 124.266C52.5231 124.515 51.965 124.776 51.3271 125.048C50.7121 125.32 49.9261 125.547 48.9693 125.728C48.0353 125.909 46.828 126 45.3472 126C43.707 126 42.2035 125.717 40.8366 125.15C39.4698 124.56 38.2852 123.767 37.2828 122.769C36.3032 121.749 35.5401 120.593 34.9934 119.3C34.4694 117.985 34.2074 116.591 34.2074 115.117C34.2074 113.553 34.4808 112.09 35.0275 110.73C35.597 109.347 36.383 108.123 37.3853 107.057C38.3877 105.991 39.5723 105.164 40.9391 104.574C42.3288 103.962 43.8437 103.656 45.4839 103.656C46.5774 103.656 47.7164 103.702 48.901 103.792C50.1084 103.883 51.3271 104.064 52.5573 104.336C52.5573 104.336 52.5915 104.574 52.6598 105.051C52.7509 105.504 52.8421 106.048 52.9332 106.683C53.0243 107.295 53.104 107.862 53.1724 108.383C53.2635 108.882 53.3091 109.177 53.3091 109.268C53.3318 109.358 53.2635 109.449 53.104 109.54C52.9446 109.63 52.7737 109.676 52.5915 109.676C52.432 109.676 52.2953 109.642 52.1814 109.574C52.1359 109.324 52.022 108.939 51.8397 108.417C51.6802 107.896 51.3727 107.352 50.9171 106.785C50.4843 106.218 49.8464 105.742 49.0035 105.357C48.1606 104.948 47.0444 104.744 45.6547 104.744C44.4246 104.744 43.3083 105.028 42.306 105.595C41.3036 106.139 40.438 106.887 39.709 107.839C39.0028 108.769 38.456 109.812 38.0688 110.968C37.7043 112.102 37.522 113.247 37.522 114.403C37.522 115.695 37.6929 116.965 38.0346 118.212C38.3991 119.459 38.9344 120.593 39.6406 121.613C40.3696 122.61 41.2694 123.415 42.3401 124.027C43.4336 124.617 44.7093 124.912 46.1673 124.912C47.033 124.912 47.7961 124.798 48.4568 124.572C49.1402 124.322 49.7325 124.073 50.2337 123.823C50.3476 123.778 50.4045 123.721 50.4045 123.653C50.4273 123.563 50.4387 123.461 50.4387 123.347V119.98Z" fill="white"/>
<path d="M63.4622 103.962C65.034 103.962 66.7654 103.928 68.6562 103.86C70.547 103.792 72.3922 103.758 74.1919 103.758C74.3058 104.597 74.4539 105.368 74.6361 106.071C74.8184 106.774 74.9892 107.499 75.1487 108.247C75.0348 108.361 74.8411 108.417 74.5678 108.417C74.2716 108.417 74.1122 108.338 74.0894 108.179C73.7249 106.842 73.2123 105.991 72.5517 105.629C71.891 105.266 71.1165 105.085 70.228 105.085H67.3577C67.221 105.085 66.9704 105.096 66.6059 105.119C66.2414 105.119 65.8997 105.141 65.5808 105.187C65.2618 105.232 65.0796 105.311 65.034 105.425C64.9657 105.651 64.9201 105.946 64.8973 106.309C64.8973 106.672 64.8973 107.046 64.8973 107.431C64.8973 107.59 64.8973 107.715 64.8973 107.805V113.995C64.8973 114.086 65.0454 114.142 65.3416 114.165C65.6377 114.188 65.968 114.199 66.3325 114.199H68.0753C68.8726 114.199 69.4877 114.176 69.9205 114.131C70.3761 114.086 70.7064 113.984 70.9115 113.825C71.1165 113.666 71.276 113.428 71.3899 113.111C71.5038 112.793 71.6291 112.362 71.7657 111.818C71.7885 111.66 71.948 111.58 72.2441 111.58C72.5175 111.58 72.7111 111.637 72.825 111.75V118.008C72.7339 118.099 72.5517 118.144 72.2783 118.144C72.0049 118.144 71.8341 118.065 71.7657 117.906C71.6063 117.271 71.4696 116.818 71.3557 116.546C71.2646 116.251 71.1734 116.058 71.0823 115.967C71.014 115.854 70.9229 115.763 70.809 115.695C70.695 115.605 70.4331 115.548 70.023 115.525C69.613 115.48 69.1573 115.457 68.6562 115.457C68.1778 115.435 67.7222 115.423 67.2893 115.423C66.9932 115.423 66.6515 115.435 66.2642 115.457C65.8997 115.457 65.5808 115.48 65.3074 115.525C65.034 115.548 64.8973 115.616 64.8973 115.729V122.055C64.8973 122.1 64.8973 122.168 64.8973 122.259C64.8973 122.576 64.8973 122.985 64.8973 123.483C64.9201 123.982 64.9771 124.266 65.0682 124.334C65.296 124.492 65.5694 124.594 65.8883 124.64C66.23 124.662 66.754 124.674 67.4602 124.674H69.0662C69.8635 124.674 70.6495 124.594 71.424 124.436C72.1986 124.277 72.8136 124.05 73.2693 123.755C73.7932 123.438 74.2033 122.985 74.4994 122.395C74.7956 121.783 75.0803 121.125 75.3537 120.423C75.3993 120.287 75.5587 120.218 75.8321 120.218C76.2422 120.218 76.5155 120.287 76.6522 120.423C76.3333 121.329 75.9802 122.293 75.5929 123.313C75.2284 124.334 74.9892 125.206 74.8753 125.932C73.0756 125.932 71.2873 125.909 69.5104 125.864C67.7335 125.819 65.7288 125.796 63.4963 125.796C62.7218 125.796 62.027 125.807 61.4119 125.83C60.7968 125.875 60.159 125.898 59.4983 125.898C59.4072 125.807 59.3616 125.649 59.3616 125.422C59.3844 125.195 59.43 125.036 59.4983 124.946C59.635 124.946 59.8856 124.934 60.2501 124.912C60.6146 124.866 60.9563 124.798 61.2752 124.708C61.6169 124.617 61.7992 124.515 61.8219 124.402C61.9131 124.13 61.9586 123.778 61.9586 123.347C61.9814 122.917 61.9928 122.452 61.9928 121.953V107.771C61.9928 107.272 61.9814 106.808 61.9586 106.377C61.9586 105.923 61.9131 105.561 61.8219 105.289C61.7992 105.153 61.6169 105.051 61.2752 104.983C60.9563 104.914 60.6146 104.869 60.2501 104.846C59.8856 104.801 59.635 104.778 59.4983 104.778C59.43 104.688 59.3844 104.529 59.3616 104.302C59.3616 104.076 59.4072 103.917 59.4983 103.826C60.1817 103.849 60.8538 103.883 61.5144 103.928C62.175 103.951 62.8243 103.962 63.4622 103.962Z" fill="white"/>
<path d="M85.8525 121.953C85.8525 121.998 85.8525 122.066 85.8525 122.157C85.8525 122.361 85.8525 122.633 85.8525 122.973C85.8525 123.291 85.8639 123.585 85.8867 123.857C85.9095 124.13 85.955 124.288 86.0234 124.334C86.2512 124.492 86.5245 124.594 86.8435 124.64C87.1852 124.662 87.7091 124.674 88.4153 124.674H90.2948C90.9326 124.674 91.6274 124.606 92.3792 124.47C93.1537 124.311 93.7688 124.073 94.2244 123.755C94.6345 123.461 95.0104 123.053 95.3521 122.531C95.7166 122.01 96.0355 121.307 96.3089 120.423C96.3544 120.287 96.5139 120.218 96.7873 120.218C97.1973 120.218 97.4707 120.287 97.6074 120.423C97.2884 121.329 96.9353 122.293 96.5481 123.313C96.1836 124.334 95.9444 125.206 95.8305 125.932C94.0308 125.932 92.2425 125.909 90.4656 125.864C88.6887 125.819 86.684 125.796 84.4515 125.796C83.677 125.796 82.9821 125.807 82.3671 125.83C81.752 125.875 81.1141 125.898 80.4535 125.898C80.3624 125.807 80.3168 125.649 80.3168 125.422C80.3396 125.195 80.3851 125.036 80.4535 124.946C80.5902 124.946 80.8407 124.934 81.2052 124.912C81.5697 124.866 81.9114 124.798 82.2304 124.708C82.5721 124.617 82.7543 124.515 82.7771 124.402C82.8682 124.13 82.9138 123.778 82.9138 123.347C82.9366 122.917 82.948 122.452 82.948 121.953V107.771C82.948 107.272 82.9366 106.808 82.9138 106.377C82.9138 105.923 82.8682 105.561 82.7771 105.289C82.7543 105.153 82.5721 105.051 82.2304 104.983C81.9114 104.914 81.5697 104.869 81.2052 104.846C80.8407 104.801 80.5902 104.778 80.4535 104.778C80.3851 104.688 80.3396 104.529 80.3168 104.302C80.3168 104.076 80.3624 103.917 80.4535 103.826C81.1369 103.849 81.8089 103.883 82.4696 103.928C83.1302 103.951 83.7795 103.962 84.4173 103.962C85.078 103.962 85.7158 103.951 86.3309 103.928C86.9688 103.883 87.6294 103.849 88.3128 103.826C88.404 103.917 88.4381 104.076 88.4153 104.302C88.4153 104.529 88.3812 104.688 88.3128 104.778C88.1761 104.778 87.9256 104.801 87.5611 104.846C87.1966 104.869 86.8549 104.914 86.5359 104.983C86.217 105.051 86.0348 105.153 85.9892 105.289C85.9209 105.515 85.8753 105.81 85.8525 106.173C85.8525 106.536 85.8525 106.932 85.8525 107.363C85.8525 107.431 85.8525 107.499 85.8525 107.567C85.8525 107.635 85.8525 107.703 85.8525 107.771V121.953Z" fill="white"/>
<path d="M95.314 103.656H93.1384V111.888H94.3261V108.995H95.314C96.9251 108.995 97.8424 108.043 97.8424 106.314C97.8424 104.632 96.9251 103.656 95.314 103.656ZM95.3022 107.866H94.3261V104.785H95.3022C96.196 104.785 96.6311 105.303 96.6311 106.314C96.6311 107.372 96.196 107.866 95.3022 107.866Z" fill="white"/>
<path d="M101.394 112.041C102.934 112.041 103.793 110.994 103.793 109.771C103.793 107.219 100.335 107.219 100.335 105.608C100.335 105.02 100.723 104.644 101.394 104.644C102.029 104.644 102.44 105.02 102.464 105.808H103.675C103.64 104.409 102.793 103.503 101.382 103.503C99.9941 103.503 99.1239 104.397 99.1239 105.585C99.1239 108.031 102.57 108.125 102.57 109.76C102.57 110.418 102.181 110.889 101.394 110.889C100.664 110.889 100.206 110.477 100.194 109.63H98.9828C98.9946 111.136 99.9353 112.041 101.394 112.041Z" fill="white"/>
<path d="M106.602 111.888H107.79V109.183L109.789 103.656H108.543L107.626 106.373L107.202 107.69H107.179C107.061 107.278 106.885 106.749 106.767 106.396L105.838 103.656H104.603L106.602 109.183V111.888Z" fill="white"/>
</svg>
