<svg width="22" height="19" viewBox="0 0 22 19" fill="none" xmlns="http://www.w3.org/2000/svg">
<path d="M8.68984 6.11176C9.25611 6.30703 10.0567 6.58041 10.1934 6.75615L10.2129 6.77567C10.2129 6.77567 10.2129 6.7952 10.2324 6.7952L10.252 6.81473C10.2715 6.81473 10.2715 6.83425 10.291 6.83425C10.3105 6.85378 10.3105 6.85378 10.3301 6.85378C10.3496 6.85378 10.3496 6.8733 10.3692 6.8733C10.3887 6.8733 10.4082 6.89283 10.4277 6.89283H10.4472C10.4668 6.89283 10.5058 6.89283 10.5253 6.89283C10.5449 6.89283 10.5839 6.89283 10.6035 6.89283H10.623C10.6425 6.89283 10.662 6.89283 10.6816 6.8733C10.6816 6.8733 10.7011 6.87331 10.7011 6.85378C10.7206 6.85378 10.7401 6.83425 10.7401 6.83425L10.7597 6.81473C10.7597 6.81473 10.7792 6.81473 10.7792 6.7952L10.7987 6.77567C10.7987 6.77567 10.8182 6.77568 10.8182 6.75615C10.9744 6.59994 11.697 6.34609 12.2632 6.15082C13.7863 5.6236 15.6609 4.95969 15.3485 3.69046C15.2313 3.22182 14.8798 2.83128 14.333 2.59696C13.2981 2.14785 11.8141 2.26501 10.5449 2.88986C9.33422 2.20643 7.81114 2.1869 6.8348 2.55791C6.20995 2.79223 5.81944 3.20229 5.68275 3.69046C5.37032 4.95969 7.1277 5.56502 8.68984 6.11176ZM6.48331 3.88572C6.56142 3.59282 6.91291 3.41708 7.1277 3.31945C7.9283 3.00702 9.29516 3.02655 10.291 3.69046H10.3106C10.3301 3.69046 10.3301 3.70998 10.3496 3.70998C10.3691 3.70998 10.3691 3.70999 10.3887 3.72951C10.4082 3.72951 10.4082 3.72951 10.4277 3.74903C10.4472 3.74903 10.4473 3.74903 10.4668 3.74903C10.4863 3.74903 10.4863 3.74903 10.5058 3.74903C10.5254 3.74903 10.5253 3.74903 10.5449 3.74903C10.5644 3.74903 10.5644 3.74903 10.5839 3.74903C10.6034 3.74903 10.6034 3.74903 10.623 3.74903C10.6425 3.74903 10.6425 3.74904 10.6621 3.72951C10.6816 3.72951 10.6816 3.70998 10.7011 3.70998H10.7206C11.9313 3.04608 13.2786 3.02655 14.0011 3.33898C14.2159 3.43661 14.4697 3.59282 14.5478 3.88572C14.6845 4.43247 12.9271 5.0378 11.9898 5.36975C11.3259 5.60407 10.8573 5.77981 10.5253 5.95555C10.1934 5.74076 9.66615 5.56502 8.96319 5.31117C7.98686 4.97922 6.34663 4.41294 6.48331 3.88572Z" fill="#1499A2"/>
<path d="M1.54293 4.35445C1.54293 4.66688 1.60151 4.97931 1.7382 5.27221C2.18731 7.18582 3.51515 11.8722 6.01457 14.3716C6.07315 14.4302 7.36188 15.7971 10.5252 15.7971C13.6885 15.7971 14.9773 14.4302 15.0163 14.3912C15.485 13.9225 15.9341 13.3563 16.3247 12.7509C20.0738 11.8722 21.8898 10.271 21.714 8.00594C21.6359 6.89292 21.1282 6.42428 20.7182 6.22901C20.2495 6.01422 19.6833 6.01422 19.0584 6.24854C19.156 5.87753 19.2536 5.54558 19.3122 5.27221C19.4294 4.97931 19.5075 4.66688 19.5075 4.35445C19.488 1.91361 15.5631 0 10.5252 0C5.48732 0 1.54293 1.89409 1.54293 4.35445ZM14.411 13.8249C14.3915 13.8444 13.3176 14.977 10.5057 14.977C7.73292 14.977 6.6199 13.8249 6.60037 13.8054C4.82344 12.0284 3.65184 8.94322 2.98793 6.77576C4.5696 7.96689 7.32286 8.72843 10.5057 8.72843C13.6886 8.72843 16.4418 7.96689 18.0235 6.77576C17.3791 8.94322 16.2075 12.0284 14.411 13.8249ZM20.3471 6.97103C20.7377 7.14677 20.8548 7.67399 20.8744 8.08405C20.9915 9.72429 19.6637 10.9545 16.9105 11.7551C17.7111 10.2906 18.3164 8.68938 18.7264 7.34204C19.3708 6.93198 19.9761 6.79529 20.3471 6.97103ZM10.5057 0.800596C14.8992 0.800596 18.6093 2.40178 18.6483 4.3154C18.6288 4.41303 18.5702 4.66688 18.4921 5.03788C17.7306 6.63907 14.372 7.88878 10.5057 7.88878C6.63942 7.88878 3.2808 6.63907 2.51926 5.03788C2.42163 4.66688 2.38262 4.41303 2.36309 4.3154C2.40214 2.40178 6.1122 0.800596 10.5057 0.800596Z" fill="#1499A2"/>
<path d="M18.8628 13.1616C18.648 13.0639 18.4137 13.1616 18.316 13.3764C18.2184 13.5912 18.316 13.8255 18.5308 13.9231C19.5853 14.3918 20.2101 14.919 20.2101 15.4071C20.2101 16.7154 16.2267 18.1799 10.5249 18.1799C4.82307 18.1799 0.839657 16.7154 0.839657 15.4071C0.839657 14.8213 1.73788 14.1574 3.2219 13.6497C3.4367 13.5716 3.55387 13.3373 3.47576 13.1225C3.39765 12.9077 3.16334 12.7906 2.94855 12.8687C1.01541 13.5326 0 14.4113 0 15.4071C0 17.7308 5.4089 19.0001 10.5054 19.0001C15.6018 19.0001 21.0107 17.7503 21.0107 15.4071C21.0303 14.8018 20.6397 13.9231 18.8628 13.1616Z" fill="#1499A2"/>
</svg>
