<svg width="18" height="18" viewBox="0 0 18 18" fill="none" xmlns="http://www.w3.org/2000/svg">
<path d="M1.93894 12.3454H1.19572C0.824115 12.3454 0.452505 12.011 0.452505 11.6022V9.00094C0.452505 7.14289 1.19572 6.39967 3.05377 6.39967H4.54021C6.39826 6.39967 7.14148 7.14289 7.14148 9.00094V10.4874" stroke="#1499A2" stroke-width="0.9" stroke-linecap="round" stroke-linejoin="round"/>
<path d="M3.79915 15.6894V17.5474" stroke="#1499A2" stroke-width="0.9" stroke-linecap="round" stroke-linejoin="round"/>
<path d="M1.93728 17.5462V9.74239" stroke="#1499A2" stroke-width="0.9" stroke-linecap="round" stroke-linejoin="round"/>
<path d="M5.65316 14.5738V17.5467" stroke="#1499A2" stroke-width="0.9" stroke-linecap="round" stroke-linejoin="round"/>
<path d="M5.65316 9.74239V11.6004" stroke="#1499A2" stroke-width="0.9" stroke-linecap="round" stroke-linejoin="round"/>
<path d="M8.99848 11.6003H4.91077V14.5732H8.99848V11.6003Z" stroke="#1499A2" stroke-width="0.9" stroke-linecap="round" stroke-linejoin="round"/>
<path d="M10.8924 12.307C11.1154 12.3442 11.3383 12.3442 11.5984 12.3442C14.8686 12.3442 17.5442 9.66862 17.5442 6.39846C17.5442 3.12829 14.8686 0.4527 11.5984 0.4527C9.70324 0.4527 8.03099 1.34457 6.95332 2.71952" stroke="#1499A2" stroke-width="0.9" stroke-linecap="round" stroke-linejoin="round"/>
<path d="M11.6001 6.39751V3.05303" stroke="#1499A2" stroke-width="0.9" stroke-linecap="round" stroke-linejoin="round"/>
<path d="M13.8298 8.62933L11.6001 6.39967" stroke="#1499A2" stroke-width="0.9" stroke-linecap="round" stroke-linejoin="round"/>
<path d="M5.28136 3.01556C5.28136 2.23518 4.61246 1.56628 3.79492 1.56628C2.97738 1.56628 2.30848 2.19802 2.30848 3.01556V3.49865C2.30848 4.27903 2.97738 4.94794 3.79492 4.94794C4.61246 4.94794 5.28136 4.3162 5.28136 3.49865V3.01556Z" stroke="#1499A2" stroke-width="0.9" stroke-linecap="round" stroke-linejoin="round"/>
</svg>
