<svg width="21" height="21" viewBox="0 0 21 21" fill="none" xmlns="http://www.w3.org/2000/svg">
<g clip-path="url(#clip0_923_11186)">
<path d="M8.5441 11.502C8.57535 11.5068 8.6064 11.509 8.63708 11.509C8.93313 11.509 9.19366 11.2949 9.24337 10.9939L9.42196 9.91219L9.91332 8.93204C10.0642 8.63107 9.94515 8.26475 9.64623 8.10996L8.67256 7.6058L7.89224 6.83561C7.65263 6.59911 7.26745 6.59903 7.02788 6.83561L6.24755 7.6058L5.27388 8.10996C4.97492 8.26475 4.85589 8.63107 5.00679 8.93204L5.49816 9.91219L5.67674 10.9939C5.73158 11.3261 6.04334 11.5529 6.37601 11.502L7.4601 11.3376L8.5441 11.502ZM6.79187 10.1944L6.697 9.61966C6.68691 9.55863 6.66772 9.49945 6.63995 9.44416L6.37889 8.92342L6.89617 8.65559C6.95109 8.62717 7.00142 8.59058 7.04547 8.54711L7.46006 8.13789L7.8746 8.54711C7.91861 8.59058 7.96898 8.62713 8.0239 8.65559L8.54119 8.92342L8.28012 9.44416C8.2524 9.49949 8.23316 9.55863 8.22307 9.61966L8.1282 10.1944L7.55226 10.1071C7.49115 10.0977 7.42889 10.0977 7.36777 10.1071L6.79187 10.1944Z" fill="#1499A2"/>
<path d="M12.3257 7.60577L11.352 8.10993C11.0531 8.26472 10.934 8.63103 11.0849 8.93201L11.5763 9.91216L11.7548 10.9939C11.8045 11.2949 12.065 11.509 12.3611 11.509C12.3918 11.509 12.4229 11.5067 12.4541 11.502L13.5382 11.3376L14.6222 11.502C14.955 11.5526 15.2667 11.326 15.3215 10.9939L15.5001 9.91216L15.9915 8.93201C16.1424 8.63103 16.0233 8.26472 15.7244 8.10993L14.7507 7.60577L13.9704 6.83558C13.7308 6.59908 13.3456 6.59908 13.106 6.83558L12.3257 7.60577ZM13.5382 8.13786L13.9528 8.54708C13.9968 8.59055 14.0472 8.6271 14.1021 8.65556L14.6194 8.92339L14.3583 9.44413C14.3306 9.49946 14.3113 9.5586 14.3013 9.61963L14.2064 10.1943L13.6304 10.107C13.5999 10.1024 13.569 10.1 13.5382 10.1C13.5074 10.1 13.4765 10.1024 13.446 10.107L12.87 10.1943L12.7751 9.61963C12.7651 9.5586 12.7458 9.49942 12.7181 9.44413L12.457 8.92339L12.9744 8.65556C13.0293 8.62714 13.0796 8.59055 13.1237 8.54708L13.5382 8.13786Z" fill="#1499A2"/>
<path d="M12.9717 14.8271H8.0293C7.68952 14.8271 7.41406 15.1026 7.41406 15.4424C7.41406 17.1442 8.79863 18.5288 10.5005 18.5288C12.2023 18.5288 13.5869 17.1442 13.5869 15.4424C13.5869 15.1026 13.3115 14.8271 12.9717 14.8271ZM10.5005 17.2983C9.69269 17.2983 9.0037 16.7795 8.74933 16.0576H12.2517C11.9973 16.7795 11.3083 17.2983 10.5005 17.2983Z" fill="#1499A2"/>
<path d="M9.1919 12.355C8.95163 12.5953 8.95167 12.9848 9.19194 13.2251C9.55276 13.5859 10.0267 13.7663 10.5007 13.7663C10.9746 13.7663 11.4486 13.5859 11.8094 13.2251C12.0496 12.9848 12.0497 12.5953 11.8094 12.355C11.5692 12.1148 11.1796 12.1148 10.9393 12.355C10.6975 12.5969 10.3039 12.5969 10.062 12.355C9.82174 12.1147 9.43217 12.1148 9.1919 12.355Z" fill="#1499A2"/>
<path d="M19.1492 8.64917C18.9316 8.64917 18.7229 8.68719 18.5288 8.75647V5.69604C18.5288 2.55523 15.9736 0 12.8328 0H8.16724C5.02642 0 2.47119 2.55523 2.47119 5.69604V8.75647C2.27715 8.68723 2.06838 8.64917 1.85083 8.64917C0.830279 8.64917 0 9.47945 0 10.5V11.7356C0 12.7561 0.830279 13.5864 1.85083 13.5864C2.07441 13.5864 2.28879 13.5466 2.48739 13.4736C2.74764 17.6675 6.24168 21 10.5 21C14.7583 21 18.2524 17.6675 18.5126 13.4736C18.7112 13.5466 18.9256 13.5864 19.1492 13.5864C20.1697 13.5864 21 12.7561 21 11.7356V10.5C21 9.47945 20.1697 8.64917 19.1492 8.64917ZM2.47119 11.7356C2.47119 12.0777 2.1929 12.356 1.85083 12.356C1.50876 12.356 1.23047 12.0777 1.23047 11.7356V10.5C1.23047 10.1579 1.50876 9.87964 1.85083 9.87964C2.1929 9.87964 2.47119 10.1579 2.47119 10.5V11.7356ZM8.16724 1.23047H12.8328C15.025 1.23047 16.8534 2.81843 17.2281 4.90453C16.4146 4.8517 15.0013 4.73386 13.5352 4.49051C9.63244 3.84275 8.76906 2.88885 8.57907 2.5088C8.47485 2.30036 8.26182 2.1687 8.02877 2.1687C7.79572 2.1687 7.58272 2.30036 7.47846 2.5088C6.72906 4.0076 4.84587 4.60216 3.78746 4.8236C4.19438 2.77754 6.00342 1.23047 8.16724 1.23047ZM17.2983 12.9712C17.2983 16.7198 14.2486 19.7695 10.5 19.7695C6.75138 19.7695 3.70166 16.7198 3.70166 12.9712V6.09459C4.71516 5.92134 6.84005 5.38478 8.08578 3.82811C9.01831 4.65794 10.7505 5.27568 13.3338 5.70441C14.9579 5.97397 16.4893 6.09365 17.2983 6.14246V12.9712ZM19.7695 11.7356C19.7695 12.0777 19.4912 12.356 19.1492 12.356C18.8071 12.356 18.5288 12.0777 18.5288 11.7356V10.5C18.5288 10.1579 18.8071 9.87964 19.1492 9.87964C19.4912 9.87964 19.7695 10.1579 19.7695 10.5V11.7356Z" fill="#1499A2"/>
</g>
<defs>
<clipPath id="clip0_923_11186">
<rect width="21" height="21" fill="white"/>
</clipPath>
</defs>
</svg>
