<svg width="13" height="21" viewBox="0 0 13 21" fill="none" xmlns="http://www.w3.org/2000/svg">
<path d="M9.15989 8.75738H9.20574L11.0856 8.61983C11.5899 8.57398 12.0025 8.16134 12.0025 7.657C12.0025 7.38191 11.9108 7.15266 11.6816 6.96927C11.4982 6.78587 11.2231 6.69418 10.948 6.69418L9.57254 6.78587L8.56386 5.96059C8.47216 5.86889 8.33461 5.8689 8.24291 5.91475C8.15122 5.9606 8.05952 6.05229 8.01367 6.14399L7.73858 7.70285C7.73858 7.8404 7.78443 7.9321 7.87613 8.02379L8.7014 8.66568C8.83895 8.71153 8.9765 8.75738 9.15989 8.75738ZM10.9938 7.33606C11.0855 7.33606 11.1772 7.38191 11.2231 7.42776C11.2689 7.4736 11.3148 7.5653 11.3148 7.657C11.3148 7.8404 11.1772 7.97795 10.9938 7.97795L9.11405 8.11549H9.0682L8.42631 7.61116L8.56386 6.78587L9.11405 7.24436C9.25159 7.33606 9.43499 7.42776 9.57254 7.38191L10.9938 7.33606Z" fill="#1499A2"/>
<path d="M1.27351 20.9988C1.6403 20.9988 1.96124 20.8612 2.19049 20.5862L5.62916 16.8265C5.9501 16.5056 6.1335 16.093 6.1335 15.6345L6.2252 14.3048C6.2252 14.259 6.2252 14.2131 6.2252 14.1673L5.17067 11.1413C5.17067 11.0954 5.12483 11.0037 5.12483 10.9579C5.12483 10.912 5.07897 10.8662 5.03312 10.8203L4.98728 10.7745C4.89558 10.6828 4.75803 10.6369 4.66634 10.6828C4.52879 10.7286 4.43709 10.8203 4.43709 10.912L3.56596 15.2677C3.56596 15.3594 3.52011 15.4511 3.42841 15.4969L0.310687 18.8897C-0.0102556 19.2565 -0.101958 19.8067 0.127287 20.2194C0.356532 20.7237 0.769172 20.9988 1.27351 20.9988ZM5.58331 14.3507L5.49161 15.6345C5.49161 15.9554 5.39991 16.1847 5.17067 16.4139L1.732 20.1735C1.6403 20.3111 1.45691 20.3569 1.27351 20.3569C1.04427 20.3569 0.815023 20.2194 0.723325 19.9901C0.631627 19.7609 0.631625 19.5316 0.815021 19.3482L3.93275 15.9554C4.0703 15.8179 4.162 15.6345 4.20785 15.4511L4.84973 12.2416L5.58331 14.3507Z" fill="#1499A2"/>
<path d="M8.93097 20.9999C9.38946 20.9999 9.8021 20.8166 10.0772 20.4498C10.3523 20.083 10.444 19.6245 10.3064 19.2118L7.96815 10.9132C7.9223 10.8215 7.9223 10.7298 7.96815 10.5922L8.79343 5.68641C8.88513 5.22792 8.74758 4.76943 8.42664 4.40264C8.10569 4.03584 7.69305 3.85245 7.23456 3.85245C7.05117 3.85245 6.86777 3.8983 6.73023 3.94415C6.54683 3.98999 6.45513 4.17339 6.54683 4.35678C6.59268 4.54018 6.77608 4.63188 6.95947 4.54018C7.32626 4.40264 7.7389 4.54018 7.96815 4.81527C8.15154 5.04452 8.24324 5.31961 8.15154 5.5947L7.32626 10.5005C7.28041 10.6839 7.32626 10.9132 7.37211 11.0966L9.66456 19.3952C9.71041 19.6245 9.66456 19.8537 9.52701 20.083C9.38946 20.2664 9.16022 20.4039 8.93097 20.4039C8.61003 20.4039 8.33494 20.1747 8.19739 19.8996L5.17136 11.1883C5.07966 10.959 5.07967 10.7298 5.12551 10.5005L5.7674 7.56621C5.81325 7.38281 5.6757 7.19942 5.53815 7.19942C5.35476 7.15357 5.17136 7.29111 5.17136 7.42866L4.52948 10.363C4.43778 10.7298 4.43777 11.0966 4.57532 11.4175L7.60135 20.1288C7.78475 20.6332 8.33493 20.9999 8.93097 20.9999Z" fill="#1499A2"/>
<path d="M2.74046 9.99514C2.83216 9.99514 2.92386 9.99514 3.01556 9.94929C3.3365 9.85759 3.56574 9.6742 3.70329 9.3991L4.84951 7.06081L4.89537 7.01496L5.62894 6.87741C5.81234 6.83156 5.90404 6.69401 5.90404 6.51062C5.85819 6.32722 5.72064 6.23553 5.53725 6.23553L4.80366 6.37308C4.57442 6.41893 4.39103 6.55647 4.29933 6.78571L3.1531 9.12401C3.10726 9.21571 3.01556 9.30741 2.87801 9.35326C2.74046 9.39911 2.55707 9.35326 2.46537 9.21571C2.41952 9.12401 2.32782 8.98646 2.41952 8.75722L3.70329 6.09798C3.74914 6.00628 3.79499 5.96043 3.88668 5.96043L6.68347 5.31855C6.86687 5.2727 6.95856 5.0893 6.91272 4.95176C6.86687 4.76836 6.68347 4.67666 6.54592 4.72251L3.74914 5.36439C3.47405 5.41024 3.2448 5.59364 3.10725 5.86874L1.77764 8.52797C1.77764 8.52797 1.77764 8.52797 1.77764 8.57382C1.64009 8.98646 1.68594 9.3991 1.96103 9.72004C2.14443 9.85759 2.41952 9.99514 2.74046 9.99514Z" fill="#1499A2"/>
<path d="M8.38035 3.57622C9.38903 3.57622 10.1685 2.75094 10.1685 1.78811C10.1685 0.779436 9.34318 0 8.38035 0C7.37168 0 6.59225 0.825285 6.59225 1.78811C6.59225 2.79679 7.41752 3.57622 8.38035 3.57622ZM8.38035 0.641889C9.02224 0.641889 9.52658 1.14623 9.52658 1.78811C9.52658 2.43 9.02224 2.93434 8.38035 2.93434C7.73847 2.93434 7.23413 2.43 7.23413 1.78811C7.23413 1.19208 7.78432 0.641889 8.38035 0.641889Z" fill="#1499A2"/>
</svg>
