<svg width="21" height="21" viewBox="0 0 21 21" fill="none" xmlns="http://www.w3.org/2000/svg">
<g clip-path="url(#clip0_943_3669)">
<path d="M18.8536 8.06079H18.5442V6.10713C19.2976 5.50571 19.7818 4.58042 19.7818 3.54367V0.0166016H6.95231C4.474 0.0166016 2.45755 2.03198 2.45581 4.50992V8.06079H2.14642C-0.716485 8.15217 -0.714463 12.3019 2.14642 12.3923H2.45581V13.0111C2.79524 23.6449 18.2083 23.637 18.5442 13.0111V12.3923H18.8536C21.7165 12.3009 21.7144 8.15126 18.8536 8.06079ZM3.69338 4.5131C3.69338 2.71611 5.15532 1.25417 6.95231 1.25417H18.5442V3.54367C18.5442 4.66961 17.6281 5.58566 16.5022 5.58566H16.1749C16.5092 5.03077 16.6878 4.39375 16.6878 3.7293L15.4503 3.72935C15.4503 4.91151 14.6438 5.48974 14.5752 5.58566H13.081C13.4153 5.03077 13.594 4.39375 13.594 3.7293L12.3564 3.72935C12.3564 4.91151 11.5499 5.48974 11.4813 5.58566H3.69338V4.5131ZM2.14642 11.1547C0.919456 11.1155 0.920364 9.33714 2.14642 9.29836H2.45581V11.1547H2.14642ZM17.3066 13.0111C17.0194 22.0089 3.97761 22.0022 3.69338 13.0111C3.69338 12.0199 3.69338 7.60599 3.69338 6.82322H16.5022C16.7797 6.82322 17.0491 6.78828 17.3066 6.72306V8.06079V13.0111ZM18.8536 11.1547H18.5442V9.29836H18.8536C20.0805 9.33755 20.0797 11.116 18.8536 11.1547Z" fill="#1499A2"/>
<path d="M12.5455 17.5451L12.1848 16.3613C11.0468 16.7081 9.81824 16.4646 8.89849 15.7101L8.23137 15.1628L7.44646 16.1196L8.11358 16.6669C9.35396 17.6845 11.0107 18.0127 12.5455 17.5451Z" fill="#1499A2"/>
<path d="M9.88086 11.7734H11.1184V13.6298H9.88086V11.7734Z" fill="#1499A2"/>
<path d="M8.02526 11.6909V10.4534H8.96697V9.21582H5.87305V10.4534H6.78769V11.6909H8.02526Z" fill="#1499A2"/>
<path d="M12.0334 10.4534H12.9763V11.6763H14.2139V10.4534H15.1274V9.21582H12.0334V10.4534Z" fill="#1499A2"/>
</g>
<defs>
<clipPath id="clip0_943_3669">
<rect width="21" height="21" fill="white"/>
</clipPath>
</defs>
</svg>
