<svg width="139" height="194" viewBox="0 0 139 194" fill="none" xmlns="http://www.w3.org/2000/svg">
<path d="M94.6518 58.202C95.491 58.9892 95.0467 60.4652 94.0594 61.0064C92.7265 61.7443 91.0975 60.908 90.1102 59.9732C88.2836 58.2512 87.6912 55.6437 87.5925 53.1837C87.395 48.2146 89.4684 42.7043 87.0495 38.0304C86.5064 36.948 85.6672 36.0624 84.7293 35.2752C83.8407 34.5372 82.8534 33.8976 81.9648 33.0612C80.9775 32.1265 80.3357 30.9949 80.237 29.5681C80.1382 28.0921 80.3851 26.6161 79.9901 25.1402C78.4104 19.2855 71.5486 17.6619 66.3651 17.0223C63.0576 16.5795 59.7501 16.5303 56.4426 16.8255C53.3819 17.1207 50.2719 17.9571 47.1618 17.4651C46.4707 17.3667 45.8289 17.1699 45.1872 16.9239C45.2859 16.7763 45.3846 16.6287 45.4834 16.4811C47.6061 16.0383 49.7782 15.5463 51.9009 14.9559C52.0984 14.9067 52.1971 14.5624 51.9503 14.464C49.6301 13.4308 46.8162 14.1196 45.1872 15.9891C42.6695 16.5303 40.1025 16.9731 37.5354 17.3667C40.8923 14.464 45.4834 13.1356 49.7782 12.3484C54.1224 11.5612 58.7134 11.4628 62.9589 12.6928C65.3285 13.3816 67.5499 14.5132 69.4258 16.1367C69.6233 16.2843 69.9689 16.1367 69.8701 15.8907C67.9942 9.98683 62.1197 6.59209 56.7388 4.23053C53.53 2.85296 50.1731 1.81977 46.6681 2.31176C43.6075 2.75456 40.843 4.13213 38.2266 5.65731C35.4127 7.33008 32.6976 9.24885 29.7356 10.7248C32.2039 6.83809 36.4988 4.57493 40.6455 2.90215C41.929 2.36096 43.2619 1.91817 44.5454 1.42618C44.7922 1.32778 44.8416 0.983387 44.5454 0.934188C37.0418 -0.640185 28.847 2.16417 23.8117 7.96967C23.17 8.70765 22.5776 9.44564 22.0839 10.282C21.5409 11.1184 20.9979 12.1024 21.3434 13.0864C21.6396 13.9228 22.4295 14.3656 23.2193 14.7592C24.1573 15.2019 25.0952 15.6447 25.9838 16.1859C27.761 17.2191 29.4394 18.5967 30.5255 20.3679C31.6609 22.2866 31.9571 24.599 31.5622 26.7637C31.1672 29.0269 30.2787 31.1425 29.0939 33.0612C28.0078 34.9308 26.7243 36.702 25.2433 38.3255C22.5282 41.3759 18.9739 44.0326 14.8765 44.8198C12.9287 45.798 10.3131 45.5226 9.24877 45.2626C5.69443 44.4754 2.58437 42.2123 1.25149 38.7683C-0.377583 34.5864 0.905932 29.8633 2.63374 25.9274C4.26281 22.1882 6.48428 18.4491 9.6437 15.9891C12.5069 13.9228 16.16 13.1848 19.5169 14.3656C21.0472 14.9067 22.4295 15.8415 23.4168 17.1207C24.5028 18.5475 25.194 20.7614 24.1573 22.385C23.2193 23.861 21.3434 24.4022 19.665 24.4022C17.2954 24.4514 14.9259 23.369 12.5563 23.9594C10.631 24.4514 9.15004 25.9274 8.26145 27.6493C7.22477 29.6665 7.12604 31.9789 7.6197 34.1928C8.11336 36.5052 9.15004 38.6699 10.3842 40.6379C11.5027 43.9892 15.5564 46.2326 17.4435 46.9354C19.3688 47.3782 21.3434 47.1322 23.17 46.4434C27.1192 44.9182 29.7356 41.4251 31.0685 37.5384C31.4141 36.456 31.7103 35.3736 31.9077 34.2912C32.1052 33.3072 32.1052 32.2249 32.4014 31.2409C32.5495 30.7489 32.7963 30.2569 33.3393 30.1585C33.8824 30.0601 34.4748 30.3061 34.9684 30.5029C35.3633 30.6505 35.8076 30.7981 36.2026 30.9949C41.0404 33.1104 45.0884 36.6036 48.6428 40.4411C51.9503 43.9834 54.9616 47.821 58.2198 51.4125C59.0096 52.2981 59.8488 53.1345 60.6881 53.9709C61.3792 54.6597 62.2184 55.742 63.2057 55.8404C63.9462 55.9388 64.4892 55.4469 64.6373 54.7581C64.8348 53.9217 64.5386 53.0853 64.2424 52.2981L61.8728 46.2466C63.5019 47.8702 65.131 49.4938 66.7601 51.0681C67.6487 51.9537 68.4879 52.8393 69.4258 53.6265C70.1663 54.2661 71.1043 54.8565 72.141 54.7581C73.9675 54.6105 74.5105 52.5933 74.6092 51.0681C74.708 48.805 74.2637 46.4926 73.4245 44.4262C70.117 36.0624 60.9349 32.766 53.2832 29.4697C48.4453 27.4033 43.6075 25.337 38.7202 23.2214C43.7556 24.0578 48.8402 24.9434 53.8756 25.7798C56.7388 26.2718 59.602 26.7637 62.4652 27.2557C65.0323 27.6985 67.6487 28.0429 70.1663 28.6333C71.3511 28.9285 72.6346 29.3221 73.7207 29.9125C73.77 31.3393 74.0662 32.7168 74.4612 34.0944C75.5472 37.932 77.5218 41.5235 78.0155 45.5086C78.2623 47.2798 78.1636 49.1494 77.6206 50.9205C77.0775 52.5441 75.3497 54.5613 73.9181 55.4469C70.8574 57.3656 67.155 57.7592 63.65 58.448C60.0463 59.186 56.5413 60.4652 53.3819 62.3347C51.8022 63.2695 50.3212 64.3027 48.939 65.4835C47.6061 66.6151 46.1745 67.845 45.3353 69.3702C44.9403 70.1082 44.6935 70.8954 44.6935 71.7318C44.6935 71.8794 44.7922 71.9778 44.9403 71.9778C45.4834 73.4537 46.4707 74.7329 46.9643 76.2581C47.2112 77.0945 47.2605 77.9309 46.8162 78.7181C46.3719 79.5052 45.6315 79.9972 44.7922 80.2924C42.7189 81.0304 40.3493 80.194 38.2759 79.702C36.2026 79.21 34.1292 78.6689 32.0065 78.2261C28.1559 77.4389 24.1573 76.9469 20.2574 77.5865C16.703 78.1769 13.2968 79.6528 10.8285 82.3096C5.1514 88.4103 5.74379 97.4137 6.18808 105.089C6.73111 114.092 7.42223 123.145 7.91589 132.148C8.40955 141.152 8.75511 150.106 8.60702 159.109C8.60702 160.241 8.55765 161.323 8.50828 162.455" stroke="#3B3B4A"/>
<path d="M80.9066 33.4653C82.4733 35.89 83.4525 38.661 84.2359 41.432C85.7047 46.7761 86.7328 52.2686 87.3693 57.8106C87.663 60.5816 87.8589 63.3526 87.9568 66.1731C88.0058 68.0535 87.9568 70.3791 86.2432 71.5667C86.1943 71.6162 86.0963 71.6162 86.0474 71.6162C86.0474 71.6657 86.0474 71.6657 86.0474 71.7151C86.6838 72.5069 87.3203 73.3481 87.9568 74.1398C88.9849 75.3768 90.0131 76.5644 91.2371 77.6035C92.4611 78.6921 93.8319 79.6323 95.1538 80.622C97.7487 82.4528 100.344 84.3331 102.938 86.2135C102.987 86.2135 103.036 86.2134 103.085 86.2629C104.75 87.4505 106.855 87.7474 108.814 88.1433C110.576 88.4896 112.339 88.9845 113.709 90.2215C115.227 91.5575 116.255 93.3884 117.284 95.1203C118.361 96.8521 119.731 98.6335 119.585 100.811C119.438 102.642 118.556 104.324 118.312 106.155C118.85 106.254 119.389 106.353 119.878 106.501C122.62 107.194 125.411 108.035 127.81 109.619C130.307 111.251 132.02 113.627 133.391 116.2C136.28 121.643 137.651 127.729 137.993 133.865C138.385 140.446 137.553 147.027 136.182 153.41C134.811 160.189 132.951 166.82 131.335 173.5C129.719 180.23 128.397 187.058 128.201 193.986M17.7 48.8543C19.2177 51.4769 17.9448 54.6932 18.2875 57.5632C18.4344 58.9487 19.0708 60.1858 20.1969 61.0765C20.8334 61.5713 21.6167 61.9176 22.3511 62.264C23.2813 62.6599 24.2116 63.0557 25.1418 63.5011L30.919 66.0247C31.4086 66.2226 31.8493 66.4205 32.3388 66.6185C32.7305 66.8164 33.1712 67.0638 33.6118 67.1133C34.1014 67.1628 34.4931 66.9648 34.7868 66.6185C34.8358 66.7174 34.8847 66.7669 34.9337 66.8659C35.5702 67.9545 36.5004 68.7462 37.5775 69.3895C38.6546 70.0327 39.8296 70.5771 41.0047 71.0224C42.1797 71.4677 43.4037 71.6657 44.6277 71.3193C46.9288 70.577 48.5444 68.4988 50.3559 67.0638C52.5101 65.3814 54.9581 64.0949 57.504 63.2042C62.6937 61.4228 68.3241 61.2744 73.3669 58.9487C75.0315 58.2065 76.5982 57.2168 77.9201 55.9303C77.8711 56.1777 77.7732 56.4251 77.7243 56.6725C77.5284 57.4148 77.2347 58.2065 77.1368 58.9982C77.0878 59.7404 77.3815 60.4827 77.7243 61.1259C78.5076 62.5114 79.4868 63.798 80.417 65.0845C82.1306 67.3607 83.2409 68.9863 84.9545 71.213C84.9545 71.4605 85.6067 72.3584 85.6067 72.6058C83.6484 72.111 82.0327 70.8245 80.2702 69.8348C79.291 69.2905 78.3118 68.8452 77.2347 68.4988C76.3534 68.2514 75.2763 67.905 74.6398 68.7957C74.1013 69.5379 74.1013 70.7255 74.2481 71.6162C74.395 72.6553 74.7377 73.6449 75.2273 74.5356C76.2555 76.3665 77.9201 77.752 79.6337 78.8406C80.1233 79.1375 80.6618 79.4344 81.2493 79.3354H81.2983C81.3962 79.8302 81.8369 80.1766 82.2285 80.424C82.816 80.7704 83.4525 81.0673 83.9911 81.5126C85.0682 82.4033 85.9494 83.5909 86.3901 84.9269C86.488 85.2733 86.5859 85.8176 86.7818 86.164C83.6973 88.9845 79.6826 90.4194 76.2065 92.5967C74.1502 93.8832 72.2898 95.3677 70.3803 96.9016C68.5199 98.3861 66.6594 99.92 64.8479 101.553C63.9667 102.345 63.0854 103.186 62.2531 104.077C61.5676 104.819 60.7843 105.611 60.6374 106.65C60.4905 107.59 60.9312 108.48 61.8124 108.827C62.7427 109.223 63.8198 109.223 64.799 109.025C66.9532 108.629 68.8136 107.342 70.4293 105.907C72.1918 104.373 73.7585 102.691 75.7659 101.454C77.7732 100.217 79.9764 99.3263 82.0327 98.1882C82.816 97.7428 83.5994 97.2975 84.3828 96.8027C83.9911 97.0995 83.5994 97.347 83.2077 97.6439C81.1025 99.1283 78.9483 100.563 76.843 101.949C74.6888 103.384 72.5835 104.819 70.4783 106.303C68.5199 107.689 66.4146 109.074 64.75 110.806C63.3791 112.241 61.8614 114.418 62.9385 116.447C64.0156 118.525 66.6105 117.783 68.2261 116.942C70.5272 115.754 72.7304 114.27 74.9336 112.884C77.1857 111.449 79.4378 110.064 81.641 108.579C83.6973 107.194 85.6067 105.709 87.5651 104.225C89.3277 102.889 91.1392 101.553 93.1955 100.613C89.8662 103.037 86.537 105.512 83.2567 107.986C81.3473 109.421 79.4868 110.856 77.6263 112.291C76.6961 113.033 75.7169 113.775 74.7867 114.517C73.8565 115.26 72.9262 115.952 71.996 116.695C71.6533 116.991 71.3595 117.288 71.2616 117.734C71.1637 118.179 71.3106 118.575 71.6043 118.872C72.1429 119.515 72.8283 119.96 73.6117 120.208C75.3253 120.752 77.1368 120.356 78.7035 119.565C80.5639 118.575 82.1796 117.14 83.9421 115.952C84.8723 115.359 85.7536 114.715 86.5859 113.973C87.4182 113.231 88.2016 112.39 89.0829 111.697C90.8454 110.41 92.9507 109.47 94.8601 108.382C95.6434 107.936 96.4268 107.441 97.2101 106.996C97.0632 107.095 96.9653 107.194 96.8184 107.342C95.9861 108.035 95.1538 108.777 94.3705 109.52C93.5871 110.262 92.7548 111.054 91.8735 111.647C90.2089 112.785 88.2505 113.478 86.6838 114.814C85.9984 115.408 85.4109 116.101 85.0192 116.892C84.6765 117.585 84.3338 118.624 84.7744 119.317C85.2151 120.01 86.0963 120.109 86.8307 120.158C87.9078 120.257 88.9849 120.356 90.0131 120.109C91.0412 119.861 91.9225 119.268 92.7548 118.674C93.685 117.981 94.6642 117.338 95.5945 116.645C97.5039 115.309 99.4623 113.973 101.323 112.538C102.938 111.301 104.407 109.816 106.17 108.827C107.981 107.788 110.135 107.59 112.143 106.897C112.779 106.65 113.416 106.402 114.052 106.105" stroke="#3B3B4A"/>
</svg>
