<svg width="69" height="64" viewBox="0 0 69 64" fill="none" xmlns="http://www.w3.org/2000/svg">
<g clip-path="url(#clip0_840_10052)">
<path d="M39.0199 6.11046C37.1565 5.43157 35.2562 5.00955 33.356 4.88111C27.3784 4.47744 20.8659 4.78936 15.6632 8.05542C13.1172 9.65175 10.9955 12.0738 9.02148 14.2756C6.71533 16.8261 4.40918 19.8536 3.68966 23.2664C2.58271 28.6426 2.9148 34.6059 4.63057 39.7985C6.56774 45.6884 10.9955 50.8444 16.6779 53.4683C23.0982 56.4407 31.5479 56.1105 38.3742 54.9912C44.2779 54.0187 49.2592 50.0187 51.6945 44.5508C53.484 40.5325 54.3696 35.7435 54.3696 31.3765C54.3512 26.5875 54.2589 21.9637 52.1372 17.5967C49.6466 12.4407 44.61 8.14716 39.0199 6.11046Z" fill="#F9F9F9"/>
<path d="M52.8014 29.2305C52.949 30.4599 52.9305 28.4783 52.9305 29.2305C52.9859 29.6893 53.0228 30.148 53.0781 30.6067L53.1519 31.3039L53.2073 31.9828C53.1704 31.7076 53.1519 31.5241 53.115 31.3957C53.0781 31.2672 53.0412 31.1938 53.0043 31.1572C52.9305 31.0838 52.8752 31.1571 52.8198 31.1938C52.7276 31.2305 52.7091 31.1021 52.8014 29.2305Z" fill="white"/>
<path d="M54.0009 33.4688C54.0562 33.6339 54.0931 33.8174 54.1485 33.9825C54.0562 34.7348 53.7426 36.2027 53.7241 35.1935C53.8533 34.7165 53.9455 34.221 54.0009 33.4688Z" fill="white"/>
<path d="M57.5431 30.4591L57.4508 31.4866C57.4508 30.9545 57.2295 30.716 57.2664 29.9453L57.5431 30.4591Z" fill="#F4F0ED"/>
<path d="M44.5547 5.63379C45.0528 5.94572 45.5694 6.25764 46.0491 6.60627L45.9199 6.36773C45.6985 6.0925 45.5325 6.03746 45.348 5.98241C45.1451 5.92737 44.9237 5.87232 44.5547 5.63379Z" fill="#F4F0ED"/>
<path d="M52.4509 34.1475C52.3955 34.8814 52.3217 35.6153 52.2295 36.3309C52.3586 36.1842 52.4693 36.0374 52.5985 35.8906C52.7092 35.4502 52.7276 35.1933 52.7276 35.0465C52.7276 34.8998 52.6907 34.8447 52.6354 34.808C52.5431 34.753 52.414 34.753 52.4509 34.1475Z" fill="#F4F0ED"/>
<path d="M12.4716 24.2018C12.4347 23.2844 11.8075 21.3211 10.7927 20.9541C9.72269 20.5872 9.72269 21.9817 9.77804 22.6055C9.05852 22.5688 8.32055 22.3486 7.97002 23.1009C7.65638 23.7798 8.20986 24.5321 8.81868 24.8624C9.37216 25.1743 12.4163 25.578 12.4716 24.2018Z" fill="#3B3B4A"/>
<path d="M56.3253 8.14631C52.3588 3.15549 46.0307 -0.697723 39.5181 1.33897C36.0128 2.42154 33.7804 5.48576 33.5959 9.11879C33.393 13.3573 36.0497 16.0362 37.8024 19.5959C39.1122 22.2564 39.3336 25.9628 38.1529 28.7335C37.3596 30.5867 35.8652 31.8894 34.7398 33.5041C36.5478 32.4582 41.7505 30.3298 43.4847 32.3665C45.2374 34.4215 42.636 37.6142 40.7727 38.4032C39.3152 39.0271 38.0791 38.3481 36.6954 38.1463C34.9612 37.9078 34.5368 39.6509 34.7029 41.3206C34.8505 42.8803 35.9574 44.3481 37.0275 45.4491C41.0679 49.6142 47.7649 50.4766 53.189 48.9353C62.8195 46.2197 66.3986 33.1371 64.609 24.4582C63.9633 21.339 62.1368 19.027 60.5687 16.3665C59.2588 14.1647 58.7606 11.5959 57.2478 9.41237C56.9711 8.99035 56.6574 8.56833 56.3253 8.14631Z" fill="#66C1BD"/>
<path d="M64.3138 3.15585C59.8306 -1.52305 51.4916 3.24759 50.8274 8.86227C50.4215 12.3485 52.414 16.6604 55.9932 17.743C61.4357 19.376 68.4464 15.2292 68.7416 9.37603C68.8338 7.43108 67.7269 3.30264 64.3138 3.15585Z" fill="#1499A2"/>
<path d="M49.7391 23.1561C49.4623 23.0643 48.9458 22.7157 48.6321 22.4038C47.2484 21.0276 46.1784 19.1928 45.4958 17.3946C45.1452 16.4772 44.6471 14.3487 46.326 14.7524C47.3776 15.0093 48.4845 16.4772 49.0564 17.3212C49.942 18.6423 50.477 20.1469 51.0305 21.6515C52.6909 26.2019 52.7094 30.8992 50.2556 35.2295C49.6837 36.257 48.1709 37.2845 48.3 38.5689C48.4661 40.2203 50.8645 38.6056 51.6209 38.0735C54.6281 36.0001 55.6797 31.3763 54.9602 28.0001C53.8532 22.7707 51.5286 16.8441 47.7835 12.8808C46.4367 11.468 45.4958 10.5873 43.4663 11.413C41.8613 12.0735 41.1971 13.9634 41.4738 15.6698C41.7875 17.6148 43.577 19.4313 44.7393 20.9542C46.0492 22.6607 47.1746 24.3487 48.1893 26.2386C50.4955 30.5506 49.0749 35.2295 45.1083 38.1102C44.149 38.8074 38.153 41.1744 40.4776 42.8992C41.4923 43.6515 44.1674 43.2111 45.1821 43.1561C46.1046 43.101 46.9901 42.9726 47.8572 42.6607C49.8498 41.9451 51.9714 41.1194 53.4843 39.5781C56.3623 36.6423 57.0449 32.0552 56.8789 28.0919C56.676 23.5597 55.2185 18.5322 52.7278 14.7341C50.3663 11.1377 46.2891 7.74323 41.972 6.67901C40.2562 6.25699 37.95 6.16525 36.677 7.61479C34.869 9.68818 35.9206 12.2386 37.249 14.1652C38.854 16.5139 40.3853 18.5873 40.7543 21.5047C40.9941 23.5597 41.1971 25.6882 40.7728 27.7432C40.2931 30.1285 38.5958 31.6698 36.9169 33.3396C38.0792 32.624 39.0201 31.9084 40.2931 31.3763C41.0679 31.046 42.0642 30.5689 42.8944 30.8808C44.315 31.3946 44.3888 33.2662 43.946 34.4772C42.5808 38.2019 37.2674 40.1836 34.5923 36.7707C34.5185 37.2478 34.5 37.7249 34.4816 38.2019C34.4262 39.3212 34.4631 39.9818 35.1458 40.9175C35.8653 41.8717 36.7877 42.679 37.7286 43.413C40.7543 45.7249 44.6655 45.2111 48.0786 44.1102C50.8276 43.2295 52.488 42.0919 54.1853 39.7432C56.1225 37.0827 57.8752 33.8717 58.0043 30.5506C58.1888 25.9451 56.7313 21.5047 55.2185 17.2295C54.4252 14.8992 52.6356 13.2111 52.0083 10.8808C51.4917 8.93589 51.5471 7.57809 52.8016 5.87167C54.7573 3.17442 58.484 4.05515 60.8639 5.94506C64.0556 8.47717 63.8896 12.9359 60.4027 15.1194C57.9305 16.6607 54.6097 14.8625 52.9123 12.8441C51.4548 11.1194 50.0343 8.88084 48.1155 7.59644C44.5733 5.22947 40.0901 5.17442 35.9575 5.48635C32.2308 5.76158 28.0244 7.28451 25.2201 9.72488C23.4674 11.2295 21.8808 12.9542 19.9067 14.2019C17.7666 15.5597 15.5343 15.7249 13.1174 16.2203C11.6599 16.5139 11.2356 17.1744 11.992 18.5139C12.361 19.1744 13.0067 19.6698 12.3056 20.2386C11.7337 20.6974 10.7744 20.4772 10.2393 21.0827C9.83345 21.5597 10.0733 22.4772 10.2209 22.9909C9.79656 22.9359 8.7265 23.0827 8.44976 23.4313C8.09923 23.89 8.48666 24.7157 8.50511 25.2478C8.61581 27.5781 6.5864 29.1377 5.84843 31.1744C3.39468 37.9267 15.6819 39.2662 18.357 43.3212C19.427 44.9359 19.9436 47.046 20.3679 48.9359C21.0875 52.1836 21.5671 55.5597 21.2535 58.8992C21.1428 60.0918 20.5709 63.7983 18.8551 63.7983C17.619 57.89 19.7407 52.0185 21.604 46.4955C23.3752 41.2478 25.8658 36.4405 28.4671 31.523C29.8877 28.8258 31.4375 24.8074 29.9062 21.7983C29.0391 20.0735 27.5078 19.9818 25.8843 19.2845C24.0947 18.4955 23.1722 17.0093 22.711 15.3579C23.1538 15.5964 24.5744 15.1194 24.9802 14.7341C25.5337 14.2203 25.2754 12.679 25.0171 12.0001C23.1722 13.0276 25.7736 14.8258 26.7329 15.2295C28.1904 15.8533 31.1607 17.0643 31.0131 19.1194" stroke="#3B3B4A" stroke-miterlimit="10" stroke-linecap="round"/>
<path d="M9.99962 21.633C9.98117 22.1651 10.2026 22.6422 10.3686 23.0092C10.5531 23.4495 10.8852 23.7615 11.328 24C11.494 24.0917 11.9921 24.4037 12.1766 24.3119C12.3796 24.2202 12.2504 23.7982 12.2135 23.633C12.029 22.8073 11.7707 21.633 11.0881 21.0642C10.7191 20.7706 10.0365 21.0092 9.99962 21.633Z" fill="#3B3B4A" stroke="#3B3B4A" stroke-miterlimit="10"/>
<path d="M10.1655 23.0273C9.66741 23.064 8.11768 23.1191 8.52356 23.9815C8.8372 24.6604 10.184 25.009 10.8666 24.9356C11.2725 24.8989 11.7522 24.7705 12.0289 24.4585C11.2356 24.1466 10.5714 23.6512 10.1655 23.0273Z" stroke="#3B3B4A" stroke-miterlimit="10"/>
<path d="M53.0043 12.3118C53.8714 13.9082 55.7533 14.8623 58.1332 14.4036C61.8046 13.7063 62.2658 9.13751 59.5907 7.04577C57.5613 5.46779 54.3696 5.2476 53.115 7.81641C52.3033 9.46779 52.3402 11.0825 53.0043 12.3118Z" stroke="#3B3B4A" stroke-miterlimit="10"/>
<path d="M11.8442 16.8994C12.4346 18.3306 13.56 18.771 14.7592 19.56C14.3902 20.1838 13.191 19.7801 12.6007 19.7435" stroke="#3B3B4A" stroke-miterlimit="10"/>
</g>
<defs>
<clipPath id="clip0_840_10052">
<rect width="69" height="64" fill="white"/>
</clipPath>
</defs>
</svg>
