<svg width="21" height="21" viewBox="0 0 21 21" fill="none" xmlns="http://www.w3.org/2000/svg">
<g clip-path="url(#clip0_923_11347)">
<path d="M19.1492 8.64917C18.9316 8.64917 18.7229 8.68719 18.5288 8.75647V8.02881C18.5288 3.60171 14.9271 0 10.5 0C6.0729 0 2.47119 3.60171 2.47119 8.02881V8.75647C2.27715 8.68723 2.06838 8.64917 1.85083 8.64917C0.830279 8.64917 0 9.47945 0 10.5V11.7356C0 12.7561 0.830279 13.5864 1.85083 13.5864C2.07437 13.5864 2.28879 13.5466 2.48739 13.4736C2.74764 17.6675 6.24168 21 10.5 21C14.7583 21 18.2524 17.6675 18.5126 13.4736C18.7112 13.5466 18.9256 13.5864 19.1492 13.5864C20.1697 13.5864 21 12.7561 21 11.7356V10.5C21 9.47945 20.1697 8.64917 19.1492 8.64917ZM10.5 1.23047C13.6907 1.23047 16.3746 3.44019 17.1029 6.40951C16.5096 6.34598 15.6672 6.23134 14.7899 6.03184C12.7912 5.57739 11.4631 4.87241 11.0503 4.04685C10.9461 3.83841 10.7331 3.70675 10.5 3.70675C10.2669 3.70675 10.0539 3.83841 9.94973 4.04685C9.53695 4.87241 8.20887 5.57735 6.21005 6.03184C5.33277 6.2313 4.49039 6.34598 3.89706 6.40951C4.62541 3.44019 7.30927 1.23047 10.5 1.23047ZM1.85083 12.356C1.50876 12.356 1.23047 12.0777 1.23047 11.7356V10.5C1.23047 10.1579 1.50876 9.87964 1.85083 9.87964C2.1929 9.87964 2.47119 10.1579 2.47119 10.5V11.7356C2.47119 12.0777 2.1929 12.356 1.85083 12.356ZM17.2983 12.9712C17.2983 16.7198 14.2486 19.7695 10.5 19.7695C6.75138 19.7695 3.70166 16.7198 3.70166 12.9712V8.02881C3.70166 7.90687 3.70506 7.78571 3.71142 7.66537C4.33076 7.60832 5.36152 7.48552 6.4657 7.23561C8.35661 6.80765 9.70803 6.17909 10.5 5.3616C11.292 6.17913 12.6434 6.80769 14.5343 7.23561C15.6384 7.48552 16.6692 7.60828 17.2886 7.66537C17.295 7.78575 17.2983 7.90687 17.2983 8.02881V12.9712ZM19.7695 11.7356C19.7695 12.0777 19.4912 12.356 19.1492 12.356C18.8071 12.356 18.5288 12.0777 18.5288 11.7356V10.5C18.5288 10.1579 18.8071 9.87964 19.1492 9.87964C19.4912 9.87964 19.7695 10.1579 19.7695 10.5V11.7356Z" fill="#1499A2"/>
<path d="M9.19192 12.1743C8.95165 12.4145 8.95165 12.8041 9.19192 13.0444C9.54146 13.394 10.0062 13.5865 10.5006 13.5865C10.9951 13.5865 11.4598 13.394 11.8094 13.0444C12.0496 12.8041 12.0496 12.4146 11.8094 12.1743C11.5691 11.9341 11.1796 11.9341 10.9393 12.1743C10.8221 12.2915 10.6664 12.356 10.5006 12.356C10.3349 12.356 10.1792 12.2915 10.062 12.1743C9.82172 11.9341 9.43215 11.9341 9.19192 12.1743Z" fill="#1499A2"/>
<path d="M12.9719 7.8291C11.9514 7.8291 11.1211 8.65938 11.1211 9.67993C11.1211 10.7005 11.9514 11.5308 12.9719 11.5308C13.9925 11.5308 14.8228 10.7005 14.8228 9.67993C14.8228 8.65938 13.9925 7.8291 12.9719 7.8291ZM12.9719 10.3003C12.6299 10.3003 12.3516 10.022 12.3516 9.67993C12.3516 9.33786 12.6299 9.05957 12.9719 9.05957C13.314 9.05957 13.5923 9.33786 13.5923 9.67993C13.5923 10.022 13.314 10.3003 12.9719 10.3003Z" fill="#1499A2"/>
<path d="M9.87939 9.67993C9.87939 8.65938 9.04912 7.8291 8.02856 7.8291C7.00801 7.8291 6.17773 8.65938 6.17773 9.67993C6.17773 10.7005 7.00801 11.5308 8.02856 11.5308C9.04912 11.5308 9.87939 10.7005 9.87939 9.67993ZM8.02856 10.3003C7.68649 10.3003 7.4082 10.022 7.4082 9.67993C7.4082 9.33786 7.68649 9.05957 8.02856 9.05957C8.37063 9.05957 8.64893 9.33786 8.64893 9.67993C8.64893 10.022 8.37063 10.3003 8.02856 10.3003Z" fill="#1499A2"/>
<path d="M11.8909 15.9295C11.2034 16.6531 10.0848 16.6532 9.3974 15.9295C9.28327 15.8094 9.13369 15.7493 8.98414 15.7493C8.83459 15.7493 8.68497 15.8094 8.57088 15.9296C8.34262 16.1698 8.34262 16.5594 8.57088 16.7996C9.71411 18.003 11.5743 18.003 12.7175 16.7996C12.9457 16.5594 12.9457 16.1698 12.7175 15.9296C12.4892 15.6893 12.1191 15.6893 11.8909 15.9295Z" fill="#1499A2"/>
</g>
<defs>
<clipPath id="clip0_923_11347">
<rect width="21" height="21" fill="white"/>
</clipPath>
</defs>
</svg>
