<svg width="23" height="22" viewBox="0 0 23 22" fill="none" xmlns="http://www.w3.org/2000/svg">
<path d="M4.94562 20.86C3.29466 19.3008 2.46919 15.5862 2.46919 15.5862L8.43096 14.669L14.3927 15.5862C14.3927 15.5862 13.6131 19.2091 12.008 20.7683" stroke="#1499A2" stroke-width="0.9" stroke-linecap="round" stroke-linejoin="round"/>
<path d="M8.43093 14.669V18.6588" stroke="#1499A2" stroke-width="0.9" stroke-linecap="round" stroke-linejoin="round"/>
<path d="M16.2271 13.293L8.43093 0.452243V12.3758L16.2271 13.293Z" stroke="#1499A2" stroke-width="0.9" stroke-linecap="round" stroke-linejoin="round"/>
<path d="M7.05519 12.3756L4.3036 12.8342L7.05519 6.41381" stroke="#1499A2" stroke-width="0.9" stroke-linecap="round" stroke-linejoin="round"/>
<path d="M21.731 20.6305C20.4011 20.6305 20.4011 21.5477 19.0711 21.5477C17.7412 21.5477 17.7412 20.6305 16.4113 20.6305C15.0813 20.6305 15.0813 21.5477 13.7514 21.5477C12.4215 21.5477 12.4215 20.6305 11.0915 20.6305C9.7616 20.6305 9.7616 21.5477 8.43167 21.5477C7.10173 21.5477 7.10173 20.6305 5.7718 20.6305C4.44186 20.6305 4.44186 21.5477 3.11193 21.5477C1.78199 21.5477 1.78199 20.6305 0.452059 20.6305" stroke="#1499A2" stroke-width="0.9" stroke-linecap="round" stroke-linejoin="round"/>
<path d="M17.1452 2.74534C16.7325 2.74534 15.7694 3.66254 15.7694 3.66254C15.7694 3.66254 14.8063 2.74534 14.3936 2.74534" stroke="#1499A2" stroke-width="0.9" stroke-linecap="round" stroke-linejoin="round"/>
<path d="M20.814 5.95519C20.4013 5.95519 19.4382 6.87238 19.4382 6.87238C19.4382 6.87238 18.4752 5.95519 18.0624 5.95519" stroke="#1499A2" stroke-width="0.9" stroke-linecap="round" stroke-linejoin="round"/>
</svg>
