<svg width="29" height="30" viewBox="0 0 29 30" fill="none" xmlns="http://www.w3.org/2000/svg">
<g clip-path="url(#clip0_923_11094)">
<path d="M9.5458 13.0401C9.75491 13.1461 10.007 13.0551 10.1086 12.8369C10.2188 12.6001 10.4441 12.4531 10.6964 12.4531C10.9487 12.4531 11.1739 12.6001 11.284 12.8368C11.3569 12.9932 11.507 13.0844 11.6631 13.0844C11.7249 13.0844 11.7876 13.0701 11.8469 13.0401C12.0561 12.9339 12.1433 12.671 12.0417 12.4528C11.7893 11.9108 11.2738 11.5742 10.6964 11.5742C10.1189 11.5742 9.60335 11.9108 9.35106 12.4527C9.24937 12.671 9.33657 12.9339 9.5458 13.0401Z" fill="#1499A2"/>
<path d="M18.0518 11.5742C17.4743 11.5742 16.9588 11.9108 16.7065 12.4528C16.6049 12.6711 16.6921 12.934 16.9013 13.0401C16.9606 13.0701 17.0232 13.0844 17.085 13.0844C17.2412 13.0844 17.3913 12.9932 17.4641 12.8368C17.5743 12.6001 17.7995 12.4531 18.0518 12.4531C18.3041 12.4531 18.5293 12.6001 18.6395 12.8369C18.7412 13.0551 18.9931 13.1461 19.2024 13.0401C19.4116 12.9339 19.4987 12.671 19.3971 12.4527C19.1448 11.9108 18.6293 11.5742 18.0518 11.5742Z" fill="#1499A2"/>
<path d="M15.3132 14.6013C15.0557 14.8466 14.7224 14.9816 14.3745 14.9816C14.0266 14.9816 13.6932 14.8465 13.4358 14.6013C13.264 14.4377 12.9976 14.4504 12.8408 14.6296C12.684 14.8088 12.6961 15.0868 12.8679 15.2504C13.281 15.6439 13.816 15.8605 14.3745 15.8605C14.933 15.8605 15.468 15.6439 15.8811 15.2504C16.0528 15.0868 16.065 14.8088 15.9082 14.6296C15.7513 14.4503 15.4849 14.4375 15.3132 14.6013Z" fill="#1499A2"/>
<path d="M27.2223 20.0735C26.5765 20.0735 26.0362 20.5568 25.9376 21.2228L25.7108 22.7542C25.3327 22.4625 24.8989 22.2557 24.4368 22.1487L24.2878 19.2379L24.4932 19.1252L25.024 19.4164C25.3188 19.578 25.6694 19.5516 25.9388 19.3474C26.2083 19.1431 26.3408 18.8034 26.2845 18.4608L26.1831 17.844L26.6126 17.4072C26.8511 17.1646 26.9353 16.8086 26.8324 16.4781C26.7295 16.1475 26.4608 15.9111 26.1311 15.8612L25.5376 15.7712L25.2722 15.21C25.2722 15.21 25.2722 15.21 25.2722 15.2099C25.1248 14.8983 24.8263 14.7047 24.4932 14.7047C24.3378 14.7047 24.1903 14.7473 24.0617 14.824L23.5676 5.18203C23.4193 2.27625 21.1183 0 18.3292 0H11.0878C10.2234 0 9.4114 0.351797 8.80108 0.990645L7.90972 1.92439C6.80133 1.99852 5.86095 2.74975 5.47653 3.7943C5.30032 3.46693 4.97335 3.26561 4.61015 3.26561C4.22871 3.26561 3.8868 3.48738 3.718 3.84434L3.35009 4.62211L2.52746 4.74686C2.14995 4.8041 1.84223 5.07486 1.72431 5.45344C1.60645 5.83201 1.70292 6.23982 1.9761 6.51768L2.57137 7.12307L2.43082 7.97801C2.36636 8.37029 2.51797 8.75941 2.82664 8.99332C3.00099 9.12557 3.20505 9.19272 3.41046 9.19272C3.56858 9.19266 3.72755 9.15287 3.87439 9.0723L4.61015 8.66865L5.05892 8.9148L4.41878 20.4195C4.40531 20.6618 4.58258 20.8696 4.81483 20.8837C4.82314 20.8842 4.83139 20.8845 4.83959 20.8845C5.061 20.8845 5.24664 20.7041 5.25961 20.4705L5.88728 9.18926C6.06613 9.17449 6.24121 9.10887 6.39366 8.99332C6.70228 8.75935 6.85394 8.37023 6.78942 7.97795L6.64893 7.12295L7.2442 6.51756C7.51738 6.23971 7.61385 5.83195 7.49593 5.45332C7.37807 5.07475 7.0703 4.80398 6.69279 4.74674L6.14081 4.66301C6.22813 3.61207 7.0735 2.79715 8.09042 2.79715C8.20239 2.79715 8.30975 2.75062 8.38876 2.66783L9.39776 1.61092C9.84872 1.13895 10.449 0.878906 11.0878 0.878906H18.3292C20.6705 0.878906 22.602 2.78959 22.7266 5.22891L23.2681 15.7985L22.8554 15.8611C22.5258 15.9111 22.2571 16.1475 22.1542 16.478C22.0512 16.8086 22.1355 17.1646 22.374 17.4072L22.8035 17.844L22.702 18.4607C22.6457 18.8033 22.7781 19.143 23.0477 19.3473C23.1719 19.4415 23.3134 19.4972 23.4586 19.5148L23.5891 22.0646L18.4063 22.0644C18.4113 22.023 18.4147 21.9811 18.4147 21.9383V20.0379C18.4147 19.7486 18.2963 19.4883 18.1082 19.3048C19.8696 18.3727 21.0796 16.4643 21.0796 14.2663V12.0135C21.0796 11.7708 20.8911 11.5741 20.6585 11.5741C20.4259 11.5741 20.2374 11.7708 20.2374 12.0135V14.2663C20.2374 16.8932 18.1905 19.0304 15.6737 19.0328H13.0753C10.5585 19.0304 8.51162 16.8932 8.51162 14.2663V8.64838C8.51162 8.14951 8.90053 7.74369 9.37861 7.74369H10.6971C10.8113 7.74176 10.9423 7.6933 11.0303 7.57301C11.038 7.56264 11.8673 6.53771 14.362 6.61529C15.7792 6.65912 16.3891 7.37947 17.0952 8.21355C17.385 8.55586 17.6879 8.91293 18.0554 9.23854C17.6035 9.12088 17.242 9.20848 17.2149 9.21551C16.989 9.27357 16.8511 9.5117 16.9067 9.74736C16.9624 9.98297 17.1906 10.1268 17.4164 10.0689C17.4229 10.0672 18.0729 9.90979 18.5423 10.6303C18.6238 10.7554 18.7562 10.8228 18.891 10.8228C18.9725 10.8228 19.0548 10.7981 19.1273 10.7467C19.3197 10.6103 19.3696 10.337 19.2388 10.1363C19.1927 10.0654 19.1452 10.0002 19.0967 9.93914C19.7256 10.2426 20.5197 10.4392 21.5798 10.4392C21.8124 10.4392 22.0009 10.2425 22.0009 9.99973C22.0009 9.75697 21.8124 9.56027 21.5798 9.56027C19.3592 9.56027 18.5661 8.62348 17.7264 7.6316C16.9606 6.72709 16.1688 5.79187 14.3869 5.73668C12.0295 5.66338 10.9023 6.49477 10.5198 6.86473H9.37855C8.43604 6.86473 7.66928 7.66482 7.66928 8.64832V14.2663C7.66928 16.4642 8.8793 18.3725 10.6407 19.3047C10.4526 19.4883 10.3342 19.7486 10.3342 20.0378V21.9382C10.3342 21.981 10.3376 22.0229 10.3426 22.0644L5.04584 22.0646C4.31204 22.0646 3.6112 22.3121 3.03805 22.7542L2.81125 21.2228C2.71265 20.5568 2.17235 20.0735 1.52655 20.0735C0.809705 20.0735 0.226562 20.682 0.226562 21.4299V28.6787C0.226562 29.4072 0.794544 29.9999 1.49269 29.9999H3.31359C4.3569 29.9999 5.20565 29.1142 5.20565 28.0256V25.3951C5.20565 24.3967 4.49167 23.5696 3.56869 23.4392C3.99332 23.1215 4.50756 22.9436 5.04578 22.9436H6.72867V29.5605C6.72867 29.8033 6.91723 30 7.14981 30C7.30973 30 7.44888 29.907 7.52019 29.7699C7.55259 29.7076 7.57101 29.6362 7.57101 29.5604V22.9434H21.1777V29.5604C21.1777 29.6363 21.1961 29.7077 21.2285 29.7699C21.2999 29.907 21.439 30 21.5989 30C21.8315 30 22.0201 29.8033 22.0201 29.5605V22.9436H23.703C24.2412 22.9436 24.7554 23.1215 25.1801 23.4391C24.2571 23.5696 23.5431 24.3967 23.5431 25.395V28.0255C23.5431 29.1142 24.3919 29.9998 25.4352 29.9998H27.2561C27.9543 29.9998 28.5222 29.4071 28.5222 28.6787V21.4299C28.5223 20.682 27.9391 20.0735 27.2223 20.0735ZM6.69492 5.72502C6.70587 5.76018 6.71542 5.82814 6.65629 5.8882L5.9025 6.6549C5.80322 6.75592 5.75796 6.90135 5.78138 7.04391L5.95932 8.1266C5.97331 8.2115 5.92726 8.26061 5.89862 8.28234C5.86999 8.30408 5.81097 8.33461 5.73792 8.29441L4.80618 7.78324C4.68343 7.71598 4.53693 7.71598 4.41424 7.78324L3.4825 8.29441C3.40939 8.33455 3.35037 8.30408 3.32179 8.28234C3.29315 8.26061 3.24711 8.2115 3.26109 8.1266L3.43904 7.04391C3.46245 6.90135 3.4172 6.75592 3.31792 6.6549L2.56413 5.8882C2.505 5.82814 2.5146 5.76012 2.5255 5.72496C2.53645 5.6898 2.56699 5.62898 2.64864 5.61656L3.69038 5.45865C3.82756 5.43791 3.94615 5.34797 4.00747 5.21824L4.47336 4.23322C4.50986 4.156 4.57478 4.14439 4.61021 4.14439C4.64564 4.14439 4.71055 4.15594 4.74705 4.23322L5.21289 5.21824C5.27427 5.34797 5.39286 5.43785 5.52998 5.45865L6.57167 5.61656C6.65342 5.62898 6.68391 5.6898 6.69492 5.72502ZM1.06885 21.4299C1.06885 21.1666 1.27414 20.9524 1.52655 20.9524C1.75391 20.9524 1.94415 21.1225 1.97885 21.357L2.28443 23.4207H1.06885V21.4299ZM4.36342 25.3951V28.0256C4.36342 28.6296 3.89247 29.121 3.31365 29.121H1.49269C1.25898 29.121 1.06885 28.9226 1.06885 28.6787V24.2996H3.31365C3.89247 24.2996 4.36342 24.7911 4.36342 25.3951ZM11.2974 22.0645C11.2307 22.0645 11.1765 22.0079 11.1765 21.9383V20.0379C11.1765 19.9683 11.2307 19.9118 11.2974 19.9118H17.4515C17.5182 19.9118 17.5724 19.9684 17.5724 20.0379V21.9383C17.5724 22.0079 17.5181 22.0645 17.4515 22.0645H11.2974ZM26.77 21.357C26.8047 21.1225 26.9949 20.9524 27.2223 20.9524C27.4747 20.9524 27.68 21.1666 27.68 21.4299V23.4207H26.4644L26.77 21.357ZM22.9619 16.7779C22.9564 16.7723 22.9502 16.766 22.9552 16.7497C22.9603 16.7334 22.9689 16.732 22.9765 16.7309L23.7678 16.611C23.7716 16.6104 23.7753 16.6099 23.7791 16.6093L23.7891 16.6078C23.9263 16.587 24.0449 16.4971 24.1062 16.3673L24.4696 15.599C24.473 15.5919 24.4769 15.5837 24.4932 15.5837C24.5097 15.5837 24.5136 15.5919 24.5169 15.5991L24.8803 16.3673C24.9416 16.4971 25.0602 16.587 25.1974 16.6078L26.01 16.731C26.0176 16.7321 26.0262 16.7334 26.0313 16.7497C26.0363 16.766 26.0301 16.7724 26.0246 16.7779L25.4366 17.376C25.3373 17.477 25.2921 17.6224 25.3155 17.765L25.4543 18.6094C25.4556 18.6174 25.457 18.6264 25.4438 18.6364C25.4304 18.6465 25.4228 18.6422 25.416 18.6385L24.6892 18.2398C24.5665 18.1725 24.42 18.1725 24.2973 18.2398L23.5705 18.6385C23.5637 18.6422 23.5561 18.6465 23.5427 18.6364C23.5294 18.6263 23.5309 18.6174 23.5321 18.6094L23.671 17.765C23.6944 17.6224 23.6491 17.477 23.5498 17.376L22.9619 16.7779ZM27.68 28.6787C27.68 28.9226 27.4899 29.121 27.2562 29.121H25.4353C24.8564 29.121 24.3855 28.6296 24.3855 28.0256V25.3951C24.3855 24.791 24.8564 24.2996 25.4353 24.2996H27.6801V28.6787H27.68Z" fill="#1499A2"/>
<path d="M25.2493 12.9645H25.758V13.4954C25.758 13.7381 25.9466 13.9348 26.1792 13.9348C26.4117 13.9348 26.6003 13.7381 26.6003 13.4954V12.9645H27.109C27.3416 12.9645 27.5302 12.7678 27.5302 12.525C27.5302 12.2822 27.3416 12.0855 27.109 12.0855H26.6003V11.5547C26.6003 11.3119 26.4117 11.1152 26.1792 11.1152C25.9466 11.1152 25.758 11.3119 25.758 11.5547V12.0855H25.2493C25.0167 12.0855 24.8281 12.2822 24.8281 12.525C24.8281 12.7678 25.0167 12.9645 25.2493 12.9645Z" fill="#1499A2"/>
<path d="M9.85727 10.8227C9.99204 10.8227 10.1245 10.7553 10.2059 10.6302C10.6572 9.93755 11.2686 10.0543 11.3368 10.07L11.4512 10.0998C11.6736 10.1579 11.8989 10.0163 11.9538 9.78397C12.0117 9.53882 11.857 9.2943 11.6183 9.25376C11.0018 9.14911 10.1414 9.17495 9.51592 10.1262C9.39059 10.3169 9.42108 10.5824 9.59443 10.7264C9.67298 10.7915 9.76569 10.8227 9.85727 10.8227Z" fill="#1499A2"/>
<path d="M27.845 10.3184C28.0776 10.3184 28.2661 10.1216 28.2661 9.87891C28.2661 9.6362 28.0776 9.43945 27.845 9.43945C27.6124 9.43945 27.4238 9.6362 27.4238 9.87891C27.4238 10.1216 27.6124 10.3184 27.845 10.3184Z" fill="#1499A2"/>
</g>
<defs>
<clipPath id="clip0_923_11094">
<rect width="28.75" height="30" fill="white"/>
</clipPath>
</defs>
</svg>
