<svg width="31" height="31" viewBox="0 0 31 31" fill="none" xmlns="http://www.w3.org/2000/svg">
<g clip-path="url(#clip0_923_8441)">
<path d="M29.9733 30.4626L29.1388 25.7988C28.8278 24.0606 27.3205 22.799 25.5547 22.799H23.5441C24.0509 22.4854 24.5148 22.0952 24.9213 21.6349C26.0124 20.3996 26.5522 18.8131 26.4415 17.1676L25.9409 9.74029C25.8198 7.94153 25.028 6.27292 23.7112 5.04182C22.3946 3.81078 20.6767 3.13281 18.8741 3.13281H12.1241C10.3214 3.13281 8.60356 3.81078 7.28692 5.04182C5.97022 6.27286 5.17838 7.94153 5.0573 9.74023L4.55665 17.1677C4.44587 18.8131 4.98581 20.3996 6.07689 21.635C6.48334 22.0952 6.94724 22.4854 7.454 22.799H5.44342C3.67764 22.799 2.17025 24.0606 1.85926 25.7988L1.02475 30.4626C0.980613 30.7094 1.14485 30.9454 1.39173 30.9896C1.41879 30.9944 1.44567 30.9968 1.47224 30.9968C1.68794 30.9968 1.8793 30.8424 1.91865 30.6226L2.75317 25.9587C2.9866 24.654 4.118 23.7071 5.44342 23.7071H7.25738V30.5426C7.25695 30.9758 7.89266 31.2361 8.13857 30.6966L11.2623 22.0299C11.29 21.9531 11.2965 21.8703 11.281 21.7901L10.8682 19.6459C10.8266 19.4301 10.8929 19.2069 11.0457 19.0487L11.3576 18.7255L11.3057 19.2456C11.2809 19.4951 11.463 19.7176 11.7125 19.7424C11.7278 19.744 11.743 19.7447 11.7581 19.7447C11.9885 19.7447 12.186 19.5699 12.2093 19.3357L12.3903 17.52C12.3905 17.5191 12.3907 17.5183 12.3908 17.5174L12.5742 15.8135C12.5808 15.7529 12.6317 15.7072 12.6927 15.7072H13.646C14.4174 15.7072 15.045 16.3348 15.045 17.1062V21.8748C15.045 22.0682 14.9605 22.2514 14.8131 22.3776L14.152 22.9442C14.0712 23.0135 14.0173 23.1089 13.9997 23.2139L12.7829 30.4675C12.7413 30.7148 12.9082 30.9489 13.1555 30.9904C13.4027 31.0321 13.6369 30.865 13.6784 30.6177L14.8376 23.7073H16.1603L16.544 25.9943C16.5854 26.2415 16.8194 26.4086 17.0669 26.3669C17.3142 26.3255 17.481 26.0914 17.4395 25.8441L16.9983 23.2138C16.9807 23.1089 16.9268 23.0134 16.846 22.9442L16.1847 22.3773C16.0374 22.2513 15.953 22.0681 15.953 21.8747V17.1061C15.953 16.3347 16.5806 15.7071 17.352 15.7071H18.3048C18.3658 15.7071 18.4167 15.7528 18.4232 15.8134L18.6071 17.5174C18.6072 17.5183 18.6075 17.5192 18.6076 17.52L18.7886 19.3356C18.812 19.5698 19.0093 19.7446 19.2398 19.7446C19.2549 19.7446 19.2701 19.7438 19.2854 19.7423C19.5349 19.7174 19.7171 19.495 19.6922 19.2454L19.6404 18.7253L19.9524 19.0486C20.105 19.2067 20.1713 19.4299 20.1299 19.6457L19.717 21.79C19.7015 21.8701 19.708 21.9529 19.7357 22.0298L22.8595 30.6964C22.9368 31.063 23.7201 31.1476 23.7407 30.5424V23.7071H25.5547C26.8801 23.7071 28.0115 24.6541 28.2449 25.9587L29.0794 30.6226C29.1187 30.8424 29.3101 30.9968 29.5258 30.9968C29.5523 30.9968 29.5793 30.9944 29.6063 30.9896C29.8532 30.9454 30.0175 30.7094 29.9733 30.4626ZM22.8326 23.7072V27.9439L21.3056 23.7072H22.8326ZM8.16551 23.7072H9.69252L8.16551 27.9438V23.7072ZM19.4934 17.2654L19.3262 15.7161C19.2698 15.1933 18.8307 14.7991 18.305 14.7991H17.3522C16.5938 14.7991 15.9199 15.167 15.4991 15.7336C15.0783 15.167 14.4044 14.7991 13.646 14.7991H12.6927C12.1667 14.7991 11.7277 15.1934 11.6714 15.7163L11.5047 17.2655L10.3923 18.418C10.0345 18.7885 9.87904 19.3117 9.97644 19.8175L10.3657 21.8393L10.3526 21.8757C9.60964 21.2043 9.1794 20.2506 9.1794 19.2292V16.2506C9.1794 15.9998 8.97611 15.7965 8.72536 15.7965C8.47461 15.7965 8.27133 15.9998 8.27133 16.2506V19.2292C8.27133 20.6179 8.9051 21.9068 9.98528 22.7529C8.73717 22.5908 7.60202 21.9901 6.75739 21.0338C5.82807 19.9816 5.36823 18.6302 5.46255 17.2287L5.96319 9.80126C6.06877 8.23308 6.75903 6.77835 7.90695 5.70507C9.05481 4.63185 10.5525 4.04082 12.124 4.04082H18.874C20.4455 4.04082 21.9431 4.63185 23.091 5.70507C24.2389 6.77835 24.9292 8.23302 25.0347 9.80132L25.5353 17.2287C25.6297 18.6302 25.1699 19.9816 24.2405 21.0338C23.3953 21.9908 22.2591 22.5916 21.0099 22.7533C22.0438 21.9712 22.7474 20.5696 22.7265 19.2292V11.4876C22.7265 11.2369 22.5233 11.0336 22.2725 11.0336C22.0217 11.0336 21.8185 11.2369 21.8185 11.4876V13.6549C20.0905 13.5343 18.5991 12.7185 17.3804 11.2242C16.3711 9.98656 15.9355 8.7241 15.9291 8.70558C15.8239 8.34955 15.2339 8.24894 15.0687 8.70552C15.0644 8.71811 14.6292 9.98366 13.6174 11.2243C12.3988 12.7186 10.9073 13.5343 9.17934 13.655V11.4877C9.17934 11.2369 8.97605 11.0336 8.7253 11.0336C8.47456 11.0336 8.27127 11.2369 8.27127 11.4877V14.1224C8.27127 14.1234 8.27115 14.1243 8.27115 14.1253C8.27115 14.3761 8.47443 14.5793 8.72518 14.5793H8.7253H8.72542C10.9127 14.5793 12.8545 13.6091 14.3411 11.7736C14.8637 11.1283 15.2425 10.4858 15.499 9.98105C15.7554 10.4858 16.1342 11.1283 16.6569 11.7736C18.0397 13.4811 19.8167 14.4392 21.8185 14.5647V19.2293C21.815 20.1885 21.4094 21.1956 20.6452 21.8753L20.6322 21.8394L21.0216 19.8176C21.1189 19.3118 20.9635 18.7886 20.6058 18.4182L19.4934 17.2654Z" fill="#1499A2"/>
<path d="M17.7906 27.9396C17.7491 27.6923 17.5147 27.5253 17.2676 27.5669C17.0203 27.6084 16.8535 27.8425 16.895 28.0898L17.319 30.6174C17.3562 30.8393 17.5485 30.9964 17.7663 30.9964C17.7912 30.9964 17.8165 30.9943 17.8419 30.9901C18.0892 30.9486 18.2561 30.7145 18.2146 30.4672L17.7906 27.9396Z" fill="#1499A2"/>
<path d="M24.2952 2.27544L25.2327 2.61597C25.6896 2.7819 25.9819 3.21953 25.9603 3.70517C25.8603 4.56511 26.3833 5.48995 27.2253 5.81607C27.6727 6.00022 27.9465 6.4479 27.9066 6.92997C27.886 7.17987 28.0719 7.3992 28.3218 7.41984C28.3345 7.42087 28.3471 7.42141 28.3596 7.42141C28.5934 7.42141 28.7921 7.24192 28.8116 7.00473C28.8842 6.12687 28.3856 5.31166 27.5711 4.97647C27.117 4.81211 26.7926 4.26805 26.8674 3.74555C26.9069 2.86151 26.3745 2.06459 25.5428 1.7625L24.6053 1.42198C24.3694 1.33625 24.1091 1.45806 24.0235 1.69373C23.9379 1.92941 24.0596 2.1899 24.2952 2.27544Z" fill="#1499A2"/>
<path d="M2.41248 10.429C2.46503 10.429 2.51854 10.4198 2.57067 10.4005C2.80568 10.313 2.92536 10.0516 2.838 9.81663C2.66934 9.3632 2.81197 8.85813 3.19312 8.55986L3.21509 8.54267C3.88162 8.02089 4.15144 7.1302 3.88658 6.32625L3.84027 6.18568C3.6882 5.72408 3.85135 5.22368 4.24636 4.94048L5.05702 4.35919C5.2608 4.21305 5.30753 3.92937 5.16145 3.7256C5.01537 3.52189 4.73175 3.4751 4.52786 3.62117L3.71726 4.20246C2.99807 4.71812 2.70094 5.62928 2.97785 6.46979L3.02416 6.61036C3.16963 7.05186 3.02143 7.54107 2.65524 7.82772L2.63326 7.84491C1.93962 8.38794 1.67985 9.30751 1.9869 10.1331C2.05488 10.3161 2.22814 10.429 2.41248 10.429Z" fill="#1499A2"/>
<path d="M2.68323 3.52831C2.76017 3.57892 2.84674 3.60313 2.93246 3.60313C3.08005 3.60313 3.22492 3.53121 3.3121 3.3987L3.86057 2.56551C4.12778 2.1596 4.62129 1.97654 5.08858 2.11014L5.23091 2.15083C6.04484 2.38347 6.92403 2.07824 7.41875 1.39156L7.43522 1.36874C7.71799 0.976207 8.21694 0.813602 8.67673 0.963917C8.91501 1.04189 9.17145 0.911915 9.24942 0.673577C9.32739 0.435239 9.19736 0.178861 8.95908 0.100888C8.12178 -0.172986 7.21335 0.123226 6.69847 0.837877L6.682 0.8607C6.41031 1.23785 5.92752 1.40554 5.48045 1.27775L5.33812 1.23706C4.4872 0.993884 3.58869 1.32715 3.10209 2.06631L2.55361 2.8995C2.41571 3.10884 2.47377 3.3904 2.68323 3.52831Z" fill="#1499A2"/>
<path d="M28.2326 17.4297C28.0303 17.5779 27.9865 17.862 28.1347 18.0642L28.1511 18.0866C28.4366 18.4771 28.4366 19.0019 28.1511 19.3924C28.0031 19.5948 28.0472 19.8788 28.2496 20.0269C28.3304 20.0859 28.4243 20.1144 28.5172 20.1144C28.6572 20.1144 28.7952 20.0499 28.8842 19.9283C29.4041 19.2172 29.4041 18.2616 28.8839 17.5502L28.8673 17.5275C28.7189 17.3252 28.4349 17.2814 28.2326 17.4297Z" fill="#1499A2"/>
<path d="M2.47955 20.1144C2.57253 20.1144 2.66637 20.086 2.74719 20.0269C2.94963 19.8789 2.9937 19.5948 2.84568 19.3924C2.56012 19.0018 2.56012 18.477 2.84586 18.0863L2.86239 18.0636C3.01028 17.8611 2.96597 17.577 2.76341 17.4292C2.56085 17.2812 2.27681 17.3257 2.12903 17.5282L2.11263 17.5506C1.59267 18.2617 1.59267 19.2172 2.11263 19.9283C2.20162 20.0499 2.33964 20.1144 2.47955 20.1144Z" fill="#1499A2"/>
</g>
<defs>
<clipPath id="clip0_923_8441">
<rect width="31" height="31" fill="white"/>
</clipPath>
</defs>
</svg>
