<svg width="19" height="22" viewBox="0 0 19 22" fill="none" xmlns="http://www.w3.org/2000/svg">
<path d="M4.46079 11.9771C4.46079 14.7331 6.7157 16.988 9.47171 16.988C12.2277 16.988 14.4826 14.7331 14.4826 11.9771" stroke="#1499A2" stroke-width="0.9" stroke-miterlimit="10" stroke-linecap="round" stroke-linejoin="round"/>
<path d="M6.06391 18.2407C6.96587 19.0425 8.11837 19.4934 9.3711 19.4934C10.6238 19.4934 11.7763 19.0425 12.6783 18.2407" stroke="#1499A2" stroke-width="0.9" stroke-miterlimit="10" stroke-linecap="round" stroke-linejoin="round"/>
<path d="M7.96845 21.4979V21.1972C7.96845 20.6962 8.3192 20.1951 8.87041 19.8443L9.17106 19.694C9.3715 19.5937 9.62206 19.5937 9.82249 19.694L10.073 19.8443C10.6242 20.1951 10.975 20.6962 10.975 21.1972V21.548" stroke="#1499A2" stroke-width="0.9" stroke-miterlimit="10" stroke-linecap="round" stroke-linejoin="round"/>
<path d="M11.7763 13.5307C11.175 14.132 10.3733 14.5329 9.47132 14.5329C8.51925 14.5329 7.61729 14.0819 7.06609 13.4305" stroke="#1499A2" stroke-width="0.9" stroke-miterlimit="10" stroke-linecap="round" stroke-linejoin="round"/>
<path d="M6.46518 15.9858V17.0381C6.46518 17.8399 5.81376 18.4913 5.01201 18.4913H3.45862C1.80502 18.4913 0.452069 19.8442 0.452069 21.4978" stroke="#1499A2" stroke-width="0.9" stroke-miterlimit="10" stroke-linecap="round" stroke-linejoin="round"/>
<path d="M18.4914 21.4978C18.4914 19.8442 17.1384 18.4913 15.4848 18.4913H13.9314C13.1297 18.4913 12.4783 17.8399 12.4783 17.0381V15.9858" stroke="#1499A2" stroke-width="0.9" stroke-miterlimit="10" stroke-linecap="round" stroke-linejoin="round"/>
<path d="M4.46083 8.9705H3.35842C3.10787 8.9705 2.95755 9.17094 2.95755 9.37138V12.0272C2.95755 12.5283 3.35842 12.9792 3.90962 12.9792H4.46083" stroke="#1499A2" stroke-width="0.9" stroke-miterlimit="10" stroke-linecap="round" stroke-linejoin="round"/>
<path d="M14.4826 8.9705H15.5851C15.8356 8.9705 15.9859 9.17094 15.9859 9.37138V12.0272C15.9859 12.5283 15.585 12.9792 15.0338 12.9792H14.4826" stroke="#1499A2" stroke-width="0.9" stroke-miterlimit="10" stroke-linecap="round" stroke-linejoin="round"/>
<path d="M4.46079 9.97284V7.96847C4.46079 5.21246 6.7157 2.95755 9.47171 2.95755C12.2277 2.95755 14.4826 5.21246 14.4826 7.96847V9.97284H10.4739C8.26909 9.97284 6.46516 8.16891 6.46516 5.9641" stroke="#1499A2" stroke-width="0.9" stroke-miterlimit="10" stroke-linecap="round" stroke-linejoin="round"/>
<path d="M7.06649 3.55878C7.01638 3.35834 6.96627 3.15791 6.96627 2.95747C6.96627 1.55441 8.06867 0.452008 9.47173 0.452008C10.8748 0.452008 11.9772 1.55441 11.9772 2.95747C11.9772 3.15791 11.9271 3.40845 11.877 3.60889" stroke="#1499A2" stroke-width="0.9" stroke-miterlimit="10" stroke-linecap="round" stroke-linejoin="round"/>
</svg>
