<svg width="21" height="21" viewBox="0 0 21 21" fill="none" xmlns="http://www.w3.org/2000/svg">
<g clip-path="url(#clip0_923_11046)">
<path d="M19.1492 8.64917C18.9316 8.64917 18.7229 8.68719 18.5288 8.75647V5.69604C18.5288 2.55523 15.9736 0 12.8328 0H8.16724C5.02642 0 2.47119 2.55523 2.47119 5.69604V8.75647C2.27715 8.68723 2.06838 8.64917 1.85083 8.64917C0.830279 8.64917 0 9.47945 0 10.5V11.7356C0 12.7561 0.830279 13.5864 1.85083 13.5864C2.07437 13.5864 2.28879 13.5466 2.48739 13.4736C2.74764 17.6675 6.24168 21 10.5 21C14.7583 21 18.2524 17.6675 18.5126 13.4736C18.7112 13.5466 18.9256 13.5864 19.1492 13.5864C20.1697 13.5864 21 12.7561 21 11.7356V10.5C21 9.47945 20.1697 8.64917 19.1492 8.64917ZM2.47119 11.7356C2.47119 12.0777 2.1929 12.356 1.85083 12.356C1.50876 12.356 1.23047 12.0777 1.23047 11.7356V10.5C1.23047 10.1579 1.50876 9.87964 1.85083 9.87964C2.1929 9.87964 2.47119 10.1579 2.47119 10.5V11.7356ZM17.2983 12.9712C17.2983 16.7198 14.2486 19.7695 10.5 19.7695C6.75138 19.7695 3.70166 16.7198 3.70166 12.9712V7.63268C4.7152 7.45943 6.84005 6.92282 8.08582 5.3662C9.01831 6.19602 10.7506 6.81372 13.3338 7.2425C14.958 7.51209 16.4893 7.63174 17.2983 7.68054V12.9712ZM17.2983 6.44704C16.495 6.3963 15.0351 6.27818 13.5239 6.02671C9.63047 5.37891 8.76877 4.42632 8.57903 4.04685C8.47485 3.83841 8.26182 3.70675 8.02877 3.70675C7.79572 3.70675 7.58268 3.83841 7.4785 4.04685C6.70831 5.58715 4.74087 6.17236 3.70166 6.37912V5.696C3.70166 3.23371 5.7049 1.23047 8.16724 1.23047H12.8328C15.2951 1.23047 17.2983 3.23371 17.2983 5.69604V6.44704ZM19.7695 11.7356C19.7695 12.0777 19.4912 12.356 19.1492 12.356C18.8071 12.356 18.5288 12.0777 18.5288 11.7356V10.5C18.5288 10.1579 18.8071 9.87964 19.1492 9.87964C19.4912 9.87964 19.7695 10.1579 19.7695 10.5V11.7356Z" fill="#1499A2"/>
<path d="M11.8117 15.8814C11.088 16.605 9.91058 16.605 9.18699 15.8814C8.94676 15.6411 8.55719 15.6411 8.31692 15.8814C8.07665 16.1216 8.07665 16.5112 8.31692 16.7514C8.91862 17.3531 9.70895 17.6539 10.4993 17.6539C11.2897 17.6539 12.0801 17.3531 12.6818 16.7514C12.922 16.5112 12.922 16.1216 12.6818 15.8814C12.4416 15.6411 12.052 15.6411 11.8117 15.8814Z" fill="#1499A2"/>
<path d="M12.3516 9.26465C12.3516 8.92487 12.0761 8.64941 11.7363 8.64941C11.3966 8.64941 11.1211 8.92487 11.1211 9.26465C11.1211 10.2852 11.9514 11.1155 12.9719 11.1155C13.9925 11.1155 14.8228 10.2852 14.8228 9.26465C14.8228 8.92487 14.5473 8.64941 14.2075 8.64941C13.8677 8.64941 13.5923 8.92487 13.5923 9.26465C13.5923 9.60672 13.314 9.88501 12.9719 9.88501C12.6299 9.88501 12.3516 9.60672 12.3516 9.26465Z" fill="#1499A2"/>
<path d="M9.19192 12.355C8.95165 12.5953 8.95165 12.9848 9.19192 13.2251C9.54146 13.5746 10.0062 13.7672 10.5006 13.7672C10.9951 13.7672 11.4598 13.5746 11.8094 13.2251C12.0496 12.9848 12.0496 12.5953 11.8094 12.355C11.5691 12.1147 11.1796 12.1147 10.9393 12.355C10.8221 12.4721 10.6664 12.5367 10.5006 12.5367C10.3349 12.5367 10.1792 12.4721 10.062 12.355C9.82172 12.1147 9.43215 12.1147 9.19192 12.355Z" fill="#1499A2"/>
<path d="M9.87939 9.26465C9.87939 8.92487 9.60393 8.64941 9.26416 8.64941C8.92439 8.64941 8.64893 8.92487 8.64893 9.26465C8.64893 9.60672 8.37063 9.88501 8.02856 9.88501C7.68649 9.88501 7.4082 9.60672 7.4082 9.26465C7.4082 8.92487 7.13274 8.64941 6.79297 8.64941C6.4532 8.64941 6.17773 8.92487 6.17773 9.26465C6.17773 10.2852 7.00801 11.1155 8.02856 11.1155C9.04912 11.1155 9.87939 10.2852 9.87939 9.26465Z" fill="#1499A2"/>
</g>
<defs>
<clipPath id="clip0_923_11046">
<rect width="21" height="21" fill="white"/>
</clipPath>
</defs>
</svg>
