<svg width="63" height="81" viewBox="0 0 63 81" fill="none" xmlns="http://www.w3.org/2000/svg">
<circle cx="35.6556" cy="56.0306" r="24.6849" fill="#D7E1E1"/>
<path d="M30.5457 50.8834C23.0048 49.9604 26.0905 42.6149 29.0247 41.5854C31.9589 40.5559 36.1534 41.5375 39.8828 38.6314C43.6126 35.7224 54.4359 21.4709 54.1241 32.2119C53.8126 42.9499 46.7065 52.8589 30.5457 50.8834Z" fill="#66C1BD"/>
<path d="M40.2272 3.50052C46.526 2.97775 56.5029 17.6413 49.2804 23.3887C42.058 29.1361 36.8855 37.0866 27.9529 34.0193C19.0204 30.952 16.5649 21.5533 18.0279 16.8161C19.9292 10.6515 27.7216 4.54042 40.2272 3.50052Z" fill="#7F7F91"/>
<path d="M18.6461 31.913C13.9504 29.8461 7.70989 34.2195 8.93157 38.9652C13.9471 58.439 21.7888 60.3542 24.8328 43.4921C25.7671 38.339 22.4139 33.5717 18.6461 31.913Z" fill="#F9F9F9"/>
<path d="M1.61676 37.3571C16.4826 43.6813 21.2253 31.4562 14.8432 28.1406C9.05631 25.1358 4.17355 35.093 12.8216 36.4007C23.976 38.0897 20.8835 24.0322 14.944 23.3311C11.3528 22.9078 9.73704 29.8606 16.4798 29.5048C23.2226 29.1489 24.6772 16.9294 18.6051 19.4997C13.9401 21.4744 19.9482 28.5953 25.3506 25.5131C31.1563 22.2005 34.3477 12.6377 26.7509 14.116C19.1541 15.5942 22.7613 28.6486 30.5142 29.1551C41.2228 29.8552 43.1922 18.7929 42.9618 19.7858C41.9946 23.9524 34.7331 25.3227 31.1523 21.2199C26.6035 16.0063 30.6094 8.93617 39.4978 9.8096C47.0184 10.5486 50.2192 15.1248 51.5186 18.9595C52.818 22.7941 48.7673 22.3022 44.2073 24.1698C39.6443 26.0372 39.6894 33.1767 37.9788 35.4183C36.2682 37.6599 31.4956 39.8295 27.6783 37.8636C23.4455 35.6807 23.3009 39.9752 18.2003 39.2656C13.449 38.605 13.2171 30.4844 19.2599 30.6145C25.3028 30.7445 24.7366 39.4794 22.3604 43.1495C19.3129 47.8542 13.7682 49.5312 11.652 50.4356C9.53569 51.3401 18.8662 55.9434 24.0121 55.4717C29.1579 54.9999 32.4505 42.1246 31.4664 42.1688C30.4823 42.213 27.3075 56.7728 29.2634 56.0581C31.2194 55.3434 34.5234 48.0282 33.6053 48.8419C32.6873 49.6557 29.9967 55.7134 30.6054 56.6068C31.2141 57.5001 34.9206 56.0593 34.0614 54.8625C33.2022 53.6657 33.9682 48.6927 36.3384 46.8564C38.7086 45.0201 35.9742 42.0335 36.6015 44.1791C37.2288 46.3246 42.5413 48.2408 44.883 47.5346C47.2221 46.8253 45.3537 44.1263 46.6057 44.1789C47.8577 44.2315 48.2421 43.7732 48.143 42.8595C48.0469 41.9461 46.2013 41.7471 46.0528 42.117C45.893 42.5122 47.8213 42.1088 48.1013 42.1129C48.3813 42.1169 48.6333 42.1651 48.7299 41.8723C48.8629 41.4803 48.3952 40.774 48.6559 40.013C48.9166 39.252 50.1785 39.4436 50.4945 39.0813C50.8104 38.7191 48.5393 38.5869 48.7672 39.12C48.9952 39.6531 51.3182 39.9488 51.7051 39.3147C52.092 38.6806 50.5786 33.9004 50.8875 31.0574C51.4053 26.2684 56.3048 20.4952 61.3578 22.3801" stroke="#1D1D1B" stroke-miterlimit="10" stroke-linecap="round" stroke-linejoin="round"/>
</svg>
