<svg width="23" height="21" viewBox="0 0 23 21" fill="none" xmlns="http://www.w3.org/2000/svg">
<g clip-path="url(#clip0_923_11010)">
<path d="M20.157 8.64917C19.928 8.64917 19.7083 8.68719 19.504 8.75647V8.02881C19.504 3.60171 15.7127 0 11.0526 0C6.39252 0 2.60125 3.60171 2.60125 8.02881V8.75647C2.397 8.68723 2.17724 8.64917 1.94824 8.64917C0.873978 8.64917 0 9.47945 0 10.5V11.7356C0 12.7561 0.873978 13.5864 1.94824 13.5864C2.18359 13.5864 2.40926 13.5466 2.61831 13.4736C2.89225 17.6675 6.57019 21 11.0526 21C15.5351 21 19.213 17.6675 19.487 13.4736C19.696 13.5466 19.9217 13.5864 20.157 13.5864C21.2313 13.5864 22.1053 12.7561 22.1053 11.7356V10.5C22.1053 9.47945 21.2313 8.64917 20.157 8.64917ZM11.0526 1.23047C14.4113 1.23047 17.2364 3.44019 18.0031 6.40951C17.3785 6.34598 16.4918 6.23134 15.5684 6.03188C13.4644 5.57739 12.0664 4.87241 11.6319 4.04689C11.5222 3.83845 11.2979 3.70679 11.0526 3.70679C10.8073 3.70679 10.5831 3.83845 10.4733 4.04689C10.0389 4.87241 8.64083 5.57739 6.53685 6.03188C5.61344 6.23134 4.72668 6.34598 4.10212 6.40951C4.86881 3.44019 7.69397 1.23047 11.0526 1.23047ZM1.94824 12.356C1.58817 12.356 1.29523 12.0777 1.29523 11.7356V10.5C1.29523 10.1579 1.58817 9.87964 1.94824 9.87964C2.30832 9.87964 2.60125 10.1579 2.60125 10.5V11.7356C2.60125 12.0777 2.30832 12.356 1.94824 12.356ZM18.2088 12.9712C18.2088 16.7198 14.9986 19.7695 11.0526 19.7695C7.10671 19.7695 3.89648 16.7198 3.89648 12.9712V8.02881C3.89648 7.90687 3.90007 7.78571 3.90676 7.66533C4.55869 7.60828 5.64371 7.48547 6.80596 7.23561C8.79638 6.80765 10.2189 6.17913 11.0526 5.3616C11.8863 6.17913 13.3088 6.80765 15.2993 7.23561C16.4615 7.48552 17.5466 7.60828 18.1985 7.66533C18.2052 7.78571 18.2088 7.90687 18.2088 8.02881V12.9712ZM20.81 11.7356C20.81 12.0777 20.5171 12.356 20.157 12.356C19.7969 12.356 19.504 12.0777 19.504 11.7356V10.5C19.504 10.1579 19.7969 9.87964 20.157 9.87964C20.5171 9.87964 20.81 10.1579 20.81 10.5V11.7356Z" fill="#1499A2"/>
<path d="M13.6548 14.8271H8.4523C8.09465 14.8271 7.80469 15.1026 7.80469 15.4424C7.80469 17.1442 9.26212 18.5288 11.0536 18.5288C12.845 18.5288 14.3024 17.1442 14.3024 15.4424C14.3024 15.1026 14.0125 14.8271 13.6548 14.8271ZM11.0536 17.2983C10.2032 17.2983 9.478 16.7795 9.21023 16.0576H12.8969C12.6291 16.7795 11.9039 17.2983 11.0536 17.2983Z" fill="#1499A2"/>
<path d="M8.45215 9.87988C8.81222 9.87988 9.10516 10.1582 9.10516 10.5002C9.10516 10.84 9.39512 11.1155 9.75278 11.1155C10.1104 11.1155 10.4004 10.84 10.4004 10.5002C10.4004 9.47969 9.52641 8.64941 8.45215 8.64941C7.37788 8.64941 6.50391 9.47969 6.50391 10.5002C6.50391 10.84 6.79387 11.1155 7.15152 11.1155C7.50918 11.1155 7.79914 10.84 7.79914 10.5002C7.79914 10.1582 8.09207 9.87988 8.45215 9.87988Z" fill="#1499A2"/>
<path d="M9.67406 12.355C9.42115 12.5953 9.42115 12.9848 9.67406 13.2251C10.042 13.5746 10.5313 13.7672 11.0517 13.7672C11.572 13.7672 12.0613 13.5746 12.4293 13.2251C12.6821 12.9848 12.6821 12.5953 12.4293 12.355C12.1764 12.1148 11.7663 12.1148 11.5134 12.355C11.3901 12.4722 11.2261 12.5367 11.0517 12.5367C10.8773 12.5367 10.7133 12.4721 10.59 12.355C10.337 12.1147 9.92693 12.1147 9.67406 12.355Z" fill="#1499A2"/>
<path d="M13.6533 8.64941C12.5791 8.64941 11.7051 9.47969 11.7051 10.5002C11.7051 10.84 11.995 11.1155 12.3527 11.1155C12.7103 11.1155 13.0003 10.84 13.0003 10.5002C13.0003 10.1582 13.2932 9.87988 13.6533 9.87988C14.0134 9.87988 14.3063 10.1582 14.3063 10.5002C14.3063 10.84 14.5963 11.1155 14.9539 11.1155C15.3116 11.1155 15.6016 10.84 15.6016 10.5002C15.6016 9.47969 14.7276 8.64941 13.6533 8.64941Z" fill="#1499A2"/>
</g>
<defs>
<clipPath id="clip0_923_11010">
<rect width="22.1053" height="21" fill="white"/>
</clipPath>
</defs>
</svg>
