<svg width="57" height="82" viewBox="0 0 57 82" fill="none" xmlns="http://www.w3.org/2000/svg">
<path fill-rule="evenodd" clip-rule="evenodd" d="M42.1978 28.5352C46.9939 28.9785 52.4555 29.0133 55.4257 32.8183C58.2542 36.4418 56.5334 41.5336 55.9035 46.0929C55.3958 49.7677 53.7896 52.7833 52.2042 56.1347C49.0308 62.8428 49.5004 73.8679 42.1978 75.0652C35.2118 76.2106 33.6908 64.6407 28.2833 60.0568C21.7763 54.5408 8.58913 54.6218 8.02001 46.0929C7.45914 37.6877 18.8137 33.9633 26.2859 30.1247C31.2183 27.5909 36.6801 28.0252 42.1978 28.5352Z" fill="#F9F9F9"/>
<path d="M27.8797 26.6659C24.1095 28.3016 20.4699 30.8675 17.8259 32.3268C13.5498 34.6841 9.32268 37.1377 5.38932 40.0243C-6.1986 48.5236 3.90411 63.2933 7.91908 73.1557C8.13125 73.6689 8.35974 74.1981 8.75144 74.599C9.14315 74.9999 9.74703 75.2565 10.2856 75.0961C10.71 74.9678 11.0037 74.6311 11.2649 74.2783C13.9579 70.5738 12.9786 67.2543 13.2887 63.0367C13.5661 59.1077 16.2102 55.6759 19.3438 53.2384C22.4774 50.8008 26.1496 49.133 29.5607 47.0804C32.9718 45.0277 36.2523 42.4298 37.9171 38.8536C39.6145 35.1813 39.2228 31.0599 37.3948 27.5319C35.4526 23.7793 31.1928 25.2226 27.8797 26.6659Z" fill="#66C1BD"/>
<path d="M13.363 10.1107C12.5217 10.2216 11.6087 10.0553 11 9.67846C11.8951 9.74496 12.7723 9.87797 13.6137 10.0553C13.2556 9.97772 12.8976 9.90013 12.5754 9.76713C12.2531 9.63412 11.9846 9.45678 11.8593 9.22402C12.45 9.41244 13.005 9.61195 13.5421 9.83363C13.0766 9.58979 12.5575 9.29052 12.5396 8.90258C12.647 8.86933 12.7723 8.92475 12.8618 8.98017C13.2735 9.22402 13.6853 9.46786 14.0791 9.70062C13.8643 9.37919 13.7211 9.03559 13.6137 8.69199C13.9001 8.90258 14.1686 9.10209 14.4551 9.31269C14.276 8.96909 14.2044 8.6144 14.2223 8.24863C14.2223 8.2043 14.2402 8.15996 14.2939 8.14888C14.3476 8.1378 14.4014 8.14888 14.4372 8.17105C14.9921 8.39273 15.2785 8.81391 15.8335 9.03559C16.1557 9.1686 16.5317 9.22402 16.9076 9.27944C16.9434 9.27944 16.9792 9.29052 16.9971 9.26835C17.015 9.24618 16.9434 9.2351 16.9434 9.25727" stroke="#3B3B4A" stroke-miterlimit="10"/>
<path d="M17.0847 6.14453C17.2488 7.30858 17.0482 8.50209 16.6834 9.63667C16.3185 10.7712 15.7713 11.8616 15.1876 12.9373C15.0599 13.1583 14.9505 13.4088 15.0234 13.6445C15.0781 13.7919 15.2058 13.9245 15.3335 14.0276C16.2821 14.8086 17.6502 15.2211 19 15.1327" stroke="#3B3B4A" stroke-miterlimit="10"/>
<path d="M17.8758 18.9679C17.9991 18.7718 18.1401 18.5758 18.3163 18.5105C18.422 18.4669 18.5278 18.4887 18.6335 18.5105C19.0035 18.5976 19.356 18.859 19.726 18.7718C20.0608 18.7065 20.3075 18.358 20.6247 18.2273C21.2062 17.966 21.8406 18.3798 22.4045 18.6847C22.6865 18.859 24.8186 20.0568 23.6556 20.2746C21.7172 19.5124 21.5234 19.8608 20.0432 20.2746C19.6907 20.3835 18.2282 20.34 17.8758 20.4924C17.6819 20.5796 17.1709 22.3437 17.0475 22.1259C16.8889 21.8863 17.1709 20.5142 17.259 20.2746C17.4176 19.8173 17.6291 19.3817 17.8758 18.9679Z" stroke="#3B3B4A" stroke-miterlimit="10"/>
<path d="M15 43.0411C18.868 43.4976 22.8991 42.4271 26 40.1445" stroke="#3B3B4A" stroke-miterlimit="10"/>
<path d="M30 39.1445C30.9527 39.1445 32.0068 39.1445 33 39.1445" stroke="#3B3B4A" stroke-miterlimit="10"/>
<path d="M12.2566 0.144531C11.5656 2.42827 11.3888 4.89018 11.7745 7.25491C12.0477 8.87459 12.5619 10.4457 12.6583 12.0653C12.7548 13.6364 12.4494 15.1913 12.4976 16.7624C12.5941 19.4835 13.6386 22.2045 15.3903 24.2777C16.9331 26.0917 18.974 27.5494 21.3364 27.9058C22.606 28.1001 23.8755 28.0839 25.1451 28.1811C25.2737 28.1973 25.4022 28.1973 25.4986 28.2945C25.579 28.3755 25.6111 28.4889 25.6272 28.6022C25.8522 29.655 25.9808 30.724 25.9968 31.8092C26.0129 32.4733 25.9808 33.1697 25.5951 33.7042C24.2451 35.5345 20.6936 35.9232 18.7008 36.5063C15.6635 37.3971 12.6583 38.4823 9.73352 39.7132C7.49973 40.6688 5.16951 41.835 3.96423 43.9568C3.22499 45.2687 3 46.8074 3 48.3137C3 52.7354 4.83203 56.9142 6.3748 61.0444C8.72108 67.3449 11.2763 74.4229 11.887 81.1445" stroke="#3B3B4A" stroke-miterlimit="10"/>
<path d="M23 0.144531C23.8894 5.65253 30.0215 7.45073 34.016 10.5449C39.3991 14.7083 42.0205 20.9777 42.8318 27.8951C43.6744 35.2175 41.1935 42.7505 38.8842 49.6841C36.9962 55.3217 33.7819 60.3923 30.5052 65.2685C27.2909 70.0475 24.139 74.9885 24.8256 81.1445" stroke="#3B3B4A" stroke-miterlimit="10"/>
<path d="M34.8015 18.4827C35.2674 16.9 34.9325 14.985 33.593 13.8929C32.1225 12.6901 29.953 12.9591 28.8174 14.5418C27.9584 15.7446 27.74 17.4856 28.3369 18.8625C28.9339 20.2553 30.317 21.2049 31.7148 21.1415C33.3018 21.0782 34.3792 19.9071 34.8015 18.4827Z" stroke="#3B3B4A" stroke-miterlimit="10"/>
</svg>
