<svg width="21" height="21" viewBox="0 0 21 21" fill="none" xmlns="http://www.w3.org/2000/svg">
<g clip-path="url(#clip0_923_11256)">
<path d="M15.1332 11.1236V9.88834H14.2067V8.96191H12.9714V9.88834H12.0449V11.1236H12.9714V12.0501H14.2067V11.1236H15.1332Z" fill="#1499A2"/>
<path d="M8.02895 12.0501V11.1236H8.95542V9.88834H8.02895V8.96191H6.79366V9.88834H5.86719V11.1236H6.79366V12.0501H8.02895Z" fill="#1499A2"/>
<path d="M10.4999 16.3603C9.81874 16.3603 9.26459 15.8061 9.26459 15.125H8.0293C8.13356 18.3909 12.8673 18.3885 12.9705 15.125H11.7352C11.7352 15.8061 11.181 16.3603 10.4999 16.3603Z" fill="#1499A2"/>
<path d="M9.88281 11.7412H11.1181V13.5942H9.88281V11.7412Z" fill="#1499A2"/>
<path d="M10.5 0.00585938C4.68909 0.00585938 0 4.71715 0 10.5058V12.3588C0 16.0475 2.70225 19.1311 6.27097 19.6829C8.68268 21.4439 12.34 21.4189 14.7189 19.6843C16.4278 19.4226 17.9955 18.5662 19.1469 17.2618C20.3419 15.9079 21 14.1667 21 12.3588V10.5058C21 4.70245 16.3044 0.00585938 10.5 0.00585938ZM1.23529 12.3588V10.5058C1.23529 7.45069 2.75714 4.58938 5.25181 2.86977C5.6238 3.7409 6.20044 4.5041 6.93992 5.10281C6.68603 5.23836 6.41842 5.34892 6.13888 5.43341C4.34408 5.97628 3.08824 7.63084 3.08824 9.54315V13.5941C3.08824 15.0837 3.52475 16.506 4.33691 17.715C2.47306 16.6395 1.23529 14.6211 1.23529 12.3588ZM4.32353 13.5941V9.54315C4.32353 8.18532 5.19676 7.00891 6.49641 6.61584C7.07288 6.44158 7.60995 6.18073 8.09805 5.83847C8.65311 6.10792 9.24362 6.28844 9.85884 6.37627L14.0511 6.97498C15.5478 7.18877 16.6765 8.49023 16.6765 10.0023V13.5941C16.4185 21.7559 4.57306 21.7582 4.32353 13.5941ZM19.7647 12.3588C19.7647 14.6248 18.5229 16.6462 16.6539 17.7204C17.4479 16.5402 17.9118 15.1203 17.9118 13.5941V10.0022C17.9118 7.86464 16.3384 6.05378 14.2257 5.75204L10.0335 5.15333C8.41589 4.92241 6.95009 3.85141 6.32541 2.23268C12.2708 -0.919376 19.9244 3.7444 19.7647 10.5058V12.3588Z" fill="#1499A2"/>
</g>
<defs>
<clipPath id="clip0_923_11256">
<rect width="21" height="21" fill="white"/>
</clipPath>
</defs>
</svg>
