<svg width="21" height="21" viewBox="0 0 21 21" fill="none" xmlns="http://www.w3.org/2000/svg">
<g clip-path="url(#clip0_923_8492)">
<path d="M20.4373 9.85155C20.0359 -3.2882 0.959997 -3.2795 0.5625 9.85155V17.9257H4.45002C7.25324 22.0255 13.7478 22.024 16.5498 17.9257H20.4373V9.85155H20.4373ZM1.80468 16.6836V9.85155C1.80468 5.26585 5.37308 1.49833 9.87883 1.17875V3.03411C9.87883 4.17331 9.06537 5.14801 7.94451 5.35181L5.98684 5.70777C4.28328 6.01745 3.04685 7.49904 3.04685 9.23051V13.5781C3.04685 14.6858 3.29011 15.7377 3.72546 16.6836H1.80468ZM10.4999 19.789C7.07524 19.789 4.28903 17.0028 4.28903 13.5781V9.23051C4.28903 8.09971 5.09653 7.13218 6.20906 6.92991L8.1667 6.57395C9.14652 6.39582 9.97257 5.83187 10.4999 5.05588C11.0272 5.83187 11.8533 6.39582 12.8331 6.57395L14.7908 6.92991C15.9033 7.13222 16.7108 8.09975 16.7108 9.23051V13.5781C16.7108 17.0028 13.9246 19.789 10.4999 19.789ZM19.1952 16.6836H17.2744C17.7097 15.7377 17.953 14.6858 17.953 13.5781V9.23051C17.953 7.49904 16.7166 6.01745 15.013 5.70777L13.0553 5.35181C11.9345 5.14801 11.121 4.17327 11.121 3.03411V1.1788C15.6268 1.49837 19.1952 5.26585 19.1952 9.85159V16.6836Z" fill="#1499A2"/>
<path d="M8.60938 15.7393H12.3359V16.9814H8.60938V15.7393Z" fill="#1499A2"/>
<path d="M9.21677 9.85156H7.97459C7.94842 10.6726 6.75833 10.672 6.73241 9.85156H5.49023C5.56882 12.3147 9.13897 12.3129 9.21677 9.85156Z" fill="#1499A2"/>
<path d="M13.5644 10.4727C13.222 10.4727 12.9433 10.194 12.9433 9.85156H11.7012C11.7798 12.3147 15.3499 12.3129 15.4277 9.85156H14.1855C14.1855 10.1941 13.9069 10.4727 13.5644 10.4727Z" fill="#1499A2"/>
<path d="M9.87891 11.7148H11.1211V13.5781H9.87891V11.7148Z" fill="#1499A2"/>
</g>
<defs>
<clipPath id="clip0_923_8492">
<rect width="21" height="21" fill="white"/>
</clipPath>
</defs>
</svg>
