<svg width="30" height="30" viewBox="0 0 30 30" fill="none" xmlns="http://www.w3.org/2000/svg">
<g clip-path="url(#clip0_923_8221)">
<path d="M17.0667 14.5647C17.0982 14.7837 17.2861 14.9417 17.5011 14.9417C17.5219 14.9417 17.543 14.9403 17.5642 14.9372C17.8045 14.9027 17.9712 14.68 17.9367 14.4397L17.8061 13.5312C17.7715 13.291 17.5485 13.1245 17.3086 13.1588C17.0684 13.1933 16.9017 13.416 16.9362 13.6562L17.0667 14.5647Z" fill="#1499A2"/>
<path d="M9.44177 15.6605C9.47323 15.8795 9.6612 16.0375 9.87618 16.0375C9.89698 16.0375 9.91808 16.036 9.93929 16.033C10.1795 15.9985 10.3462 15.7757 10.3117 15.5355L10.1811 14.627C10.1466 14.3867 9.92382 14.2201 9.68359 14.2545C9.44335 14.289 9.27665 14.5118 9.31116 14.752L9.44177 15.6605Z" fill="#1499A2"/>
<path d="M29.9587 28.5497L27.4769 23.2348C26.9036 22.0071 25.6576 21.2138 24.3027 21.2138L18.6068 21.2137C20.0674 20.5005 21.0616 18.9962 21.0616 17.3073C21.0616 17.1024 21.0465 16.8928 21.0166 16.684L20.9469 16.1989C22.2278 15.9553 23.1056 14.7404 22.9183 13.437C22.7703 12.407 21.9993 11.6178 21.0421 11.3945C21.2583 11.0017 21.4255 10.4828 21.5387 9.84408C21.7424 8.69483 21.739 7.28895 21.5296 6.08339C21.3551 5.07881 20.965 3.78648 20.0974 3.33496C18.3708 2.4362 16.5402 2.92428 16.0478 3.08395C13.1854 2.52995 10.8661 2.37819 8.96075 2.61989C6.23236 2.96606 4.41943 4.13611 3.5724 6.09757C2.93567 7.57207 3.28711 9.82492 3.91787 11.4035C4.00799 11.6289 4.26374 11.7385 4.48904 11.6485C4.71438 11.5585 4.82413 11.3028 4.73407 11.0774C4.06775 9.40984 3.92185 7.50533 4.37929 6.44608C5.10444 4.76674 6.63923 3.80043 9.07137 3.49187C10.9077 3.25891 13.1724 3.415 15.9947 3.96917C16.075 3.98488 16.1589 3.97761 16.2354 3.94878C16.2535 3.94193 18.0738 3.27256 19.6916 4.11466C20.5681 4.57087 21.0727 7.43707 20.6733 9.6908C20.5297 10.5012 20.2125 11.3408 19.8265 11.4L19.8143 11.4017C18.8655 11.5143 17.5827 8.84577 17.0157 7.00289C16.961 6.82536 16.8006 6.70137 16.6151 6.69317C16.4272 6.68555 16.2587 6.79442 16.1886 6.96633C16.171 7.00957 14.3985 11.2916 11.9258 11.647C10.7001 11.8236 10.1389 10.561 10.1163 10.5089C10.0429 10.335 9.86619 10.227 9.67834 10.2416C9.49008 10.2559 9.332 10.3887 9.28553 10.5717C9.27973 10.5946 8.73124 12.6858 7.21555 13.1815L7.19065 13.0082C7.1293 12.5813 6.82093 12.2315 6.40515 12.1172C5.85127 11.9648 5.27372 12.2719 5.09038 12.8164L4.04174 15.9303C3.92361 16.2809 3.90176 16.6575 3.97845 17.0192L4.73952 20.6134L4.38398 21.2137H3.9365C1.76604 21.2137 0.000212793 22.9795 0.000212793 25.15V28.7359C-0.0126191 29.1265 0.558196 29.3765 0.817763 28.9596L5.58297 20.9139C5.6391 20.8191 5.65756 20.7067 5.63477 20.599L4.83813 16.8371C4.79407 16.629 4.80667 16.4125 4.87452 16.2109L5.92316 13.097C5.95791 12.994 6.06695 12.9358 6.17201 12.9647C6.2507 12.9863 6.309 13.0525 6.3206 13.1333L6.98071 17.7272C7.00227 17.7994 6.97755 17.7894 7.05999 17.9225L8.3907 19.7577C9.08602 20.7044 8.77384 21.8428 7.97521 22.6604L5.91062 28.5912C5.83082 28.8205 5.95193 29.071 6.18115 29.1508C6.22896 29.1674 6.27765 29.1753 6.32564 29.1753C6.50745 29.1753 6.67755 29.0616 6.74065 28.8802L7.4085 26.9617H18.0818C18.3246 26.9617 18.5213 26.765 18.5213 26.5223C18.5213 26.2796 18.3246 26.0828 18.0818 26.0828H7.71447L8.09855 24.9795H21.0188V26.0828H20.1346C19.8919 26.0828 19.6952 26.2796 19.6952 26.5223C19.6952 26.765 19.8919 26.9617 20.1346 26.9617H21.0188V28.7357V28.7359C21.0188 28.9786 21.2155 29.1754 21.4582 29.1754C21.701 29.1754 21.8976 28.9786 21.8976 28.7359V28.7357V22.0927H24.3027C25.3177 22.0927 26.2511 22.687 26.6805 23.6067L29.1623 28.9216C29.2369 29.0814 29.3953 29.1752 29.5608 29.1752C29.623 29.1752 29.6863 29.1619 29.7464 29.1338C29.9663 29.0312 30.0613 28.7697 29.9587 28.5497ZM3.86226 22.0944L0.87911 27.1313V25.15C0.87911 23.489 2.2107 22.1341 3.86226 22.0944ZM22.0484 13.562C22.1667 14.3856 21.6229 15.1544 20.8218 15.3278L20.3742 12.2131C21.1921 12.1535 21.9299 12.7385 22.0484 13.562ZM7.83529 17.4944L7.342 14.0616C8.68378 13.7027 9.44485 12.4954 9.82429 11.6507C10.3002 12.1848 11.0488 12.661 12.0508 12.5169C14.2013 12.2077 15.7914 9.714 16.5357 8.28597C16.7019 8.71874 16.9204 9.24291 17.1806 9.76568C17.3312 10.0682 17.4828 10.3433 17.6354 10.5917C17.3055 10.6204 16.9213 10.5913 16.6437 10.3946C16.4457 10.2542 16.1713 10.301 16.031 10.499C15.8907 10.697 15.9374 10.9713 16.1354 11.1116C16.4791 11.3552 16.9202 11.4809 17.4236 11.4809C17.5175 11.4809 17.6135 11.4765 17.7114 11.4678C17.9011 11.4507 18.0713 11.4194 18.2059 11.3886C18.6296 11.8841 19.0593 12.1745 19.4926 12.2583L20.1465 16.8086C20.4401 18.6346 19.0694 20.4924 17.2056 20.737L11.9159 21.497C11.1289 21.6098 10.337 21.4509 9.65871 21.0497C9.67887 20.4231 9.4974 19.7867 9.10213 19.2416L7.83529 17.4944ZM8.40446 24.1006L8.76938 23.0524C9.09698 22.7359 9.33627 22.3594 9.48398 21.9552C10.2366 22.3279 11.1426 22.4962 12.0409 22.367L13.9309 22.0925H21.0188V24.1005L8.40446 24.1006Z" fill="#1499A2"/>
<path d="M12.908 17.4434H15.2627C15.5055 17.4434 15.7022 17.2466 15.7022 17.0039C15.7022 16.7612 15.5055 16.5645 15.2627 16.5645H12.908C12.6652 16.5645 12.4685 16.7612 12.4685 17.0039C12.4685 17.2466 12.6652 17.4434 12.908 17.4434Z" fill="#1499A2"/>
<path d="M23.5798 5.36028C23.3371 5.36028 23.1404 5.16352 23.1404 4.92083C23.1404 4.28169 23.4832 3.67776 24.0351 3.34471C24.334 3.1643 24.4956 2.83518 24.4571 2.48573C24.4123 2.08067 24.0857 1.75472 23.6805 1.71065C23.2875 1.66811 22.9194 1.88245 22.7662 2.24456C22.6716 2.46809 22.4138 2.57274 22.1902 2.47805C21.9668 2.38354 21.8621 2.12567 21.9567 1.90214C22.2622 1.17997 22.9932 0.751707 23.7753 0.836903C24.587 0.925086 25.2411 1.57794 25.3307 2.38929C25.4061 3.07278 25.0758 3.74315 24.4892 4.09718C24.1994 4.27208 24.0193 4.58772 24.0193 4.92083C24.0193 5.16352 23.8226 5.36028 23.5798 5.36028Z" fill="#1499A2"/>
<path d="M26.7789 12.0098C26.5362 12.0098 26.3395 11.813 26.3395 11.5703C26.3395 10.9312 26.6823 10.3272 27.2342 9.99414C27.533 9.81379 27.6947 9.48461 27.6561 9.13516C27.6113 8.73004 27.2848 8.40408 26.8795 8.36008C26.4863 8.3176 26.1185 8.53187 25.9652 8.89393C25.8707 9.11746 25.6127 9.22205 25.3894 9.12748C25.1659 9.03297 25.0612 8.7751 25.1558 8.55156C25.4612 7.82945 26.1922 7.40107 26.9744 7.48633C27.786 7.57445 28.4401 8.2273 28.5297 9.03865C28.6052 9.72209 28.2749 10.3925 27.6884 10.7465C27.3941 10.9241 27.2184 11.232 27.2184 11.5703C27.2184 11.813 27.0217 12.0098 26.7789 12.0098Z" fill="#1499A2"/>
<path d="M23.6312 7.12656C23.874 7.12656 24.0709 6.92968 24.0709 6.68682C24.0709 6.44395 23.874 6.24707 23.6312 6.24707C23.3883 6.24707 23.1914 6.44395 23.1914 6.68682C23.1914 6.92968 23.3883 7.12656 23.6312 7.12656Z" fill="#1499A2"/>
<path d="M26.8304 13.776C27.0732 13.776 27.2701 13.5791 27.2701 13.3362C27.2701 13.0934 27.0732 12.8965 26.8304 12.8965C26.5875 12.8965 26.3906 13.0934 26.3906 13.3362C26.3906 13.5791 26.5875 13.776 26.8304 13.776Z" fill="#1499A2"/>
</g>
<defs>
<clipPath id="clip0_923_8221">
<rect width="30" height="30" fill="white"/>
</clipPath>
</defs>
</svg>
