<svg width="21" height="21" viewBox="0 0 21 21" fill="none" xmlns="http://www.w3.org/2000/svg">
<g clip-path="url(#clip0_923_8104)">
<path d="M19.1492 8.64917C18.9316 8.64917 18.7229 8.68719 18.5288 8.75647V8.02881C18.5288 3.60171 14.9271 0 10.5 0C6.0729 0 2.47119 3.60171 2.47119 8.02881V8.75647C2.27715 8.68723 2.06838 8.64917 1.85083 8.64917C0.830279 8.64917 0 9.47945 0 10.5V11.7356C0 12.7561 0.830279 13.5864 1.85083 13.5864C2.07441 13.5864 2.28879 13.5466 2.48739 13.4736C2.74764 17.6675 6.24168 21 10.5 21C14.7583 21 18.2524 17.6675 18.5126 13.4736C18.7112 13.5466 18.9256 13.5864 19.1492 13.5864C20.1697 13.5864 21 12.7561 21 11.7356V10.5C21 9.47945 20.1697 8.64917 19.1492 8.64917ZM2.47119 11.7356C2.47119 12.0777 2.1929 12.356 1.85083 12.356C1.50876 12.356 1.23047 12.0777 1.23047 11.7356V10.5C1.23047 10.1579 1.50876 9.87964 1.85083 9.87964C2.1929 9.87964 2.47119 10.1579 2.47119 10.5V11.7356ZM3.70166 8.02881C3.70166 4.28019 6.75138 1.23047 10.5 1.23047C13.6636 1.23047 16.3294 3.40262 17.0844 6.33384C16.0083 6.09222 14.2416 5.48703 13.5215 4.04689C13.4126 3.82905 13.1857 3.69584 12.9422 3.70748C12.699 3.71897 12.4854 3.87282 12.3975 4.09992C11.2385 7.09357 9.33048 9.18356 6.72636 10.3118C5.47653 10.8533 4.35405 11.0333 3.70166 11.0926V8.02881ZM17.2983 12.9712C17.2983 16.7198 14.2486 19.7695 10.5 19.7695C6.75138 19.7695 3.70166 16.7198 3.70166 12.9712V12.3285C4.431 12.2721 5.71155 12.0829 7.15903 11.4651C8.45028 10.9141 9.61107 10.1342 10.6091 9.14714C11.6075 8.15981 12.442 6.96421 13.0986 5.58251C14.3553 6.96745 16.317 7.46361 17.2864 7.63067C17.294 7.76249 17.2983 7.89514 17.2983 8.02885V12.9712ZM19.7695 11.7356C19.7695 12.0777 19.4912 12.356 19.1492 12.356C18.8071 12.356 18.5288 12.0777 18.5288 11.7356V10.5C18.5288 10.1579 18.8071 9.87964 19.1492 9.87964C19.4912 9.87964 19.7695 10.1579 19.7695 10.5V11.7356Z" fill="#1499A2"/>
<path d="M10.4993 14.8271C9.67492 14.8271 8.89985 15.1482 8.31689 15.7312C8.07666 15.9714 8.07666 16.361 8.31689 16.6012C8.55712 16.8415 8.94669 16.8415 9.18696 16.6012C9.53752 16.2507 10.0036 16.0576 10.4993 16.0576C10.9951 16.0576 11.4611 16.2507 11.8117 16.6012C11.9318 16.7213 12.0893 16.7814 12.2467 16.7814C12.4041 16.7814 12.5616 16.7213 12.6817 16.6012C12.922 16.361 12.922 15.9714 12.6817 15.7312C12.0988 15.1482 11.3237 14.8271 10.4993 14.8271Z" fill="#1499A2"/>
<path d="M10.5006 13.7672C10.995 13.7672 11.4598 13.5746 11.8093 13.2251C12.0496 12.9848 12.0496 12.5953 11.8093 12.355C11.5691 12.1148 11.1795 12.1148 10.9393 12.355C10.8221 12.4722 10.6664 12.5367 10.5006 12.5367C10.3349 12.5367 10.1792 12.4721 10.062 12.355C9.82176 12.1147 9.43219 12.1147 9.19192 12.355C8.95165 12.5953 8.95165 12.9848 9.19192 13.2251C9.54146 13.5746 10.0062 13.7672 10.5006 13.7672Z" fill="#1499A2"/>
<path d="M15.0278 8.64941C14.6881 8.64941 14.4126 8.92487 14.4126 9.26465C14.4126 9.60672 14.1343 9.88501 13.7922 9.88501C13.4502 9.88501 13.1719 9.60672 13.1719 9.26465C13.1719 8.92487 12.8964 8.64941 12.5566 8.64941C12.2169 8.64941 11.9414 8.92487 11.9414 9.26465C11.9414 10.2852 12.7717 11.1155 13.7922 11.1155C14.8128 11.1155 15.6431 10.2852 15.6431 9.26465C15.6431 8.92487 15.3676 8.64941 15.0278 8.64941Z" fill="#1499A2"/>
</g>
<defs>
<clipPath id="clip0_923_8104">
<rect width="21" height="21" fill="white"/>
</clipPath>
</defs>
</svg>
