<svg width="22" height="22" viewBox="0 0 22 22" fill="none" xmlns="http://www.w3.org/2000/svg">
<path d="M2.75 16.5V11C2.75 8.81196 3.61919 6.71354 5.16637 5.16637C6.71354 3.61919 8.81196 2.75 11 2.75C13.188 2.75 15.2865 3.61919 16.8336 5.16637C18.3808 6.71354 19.25 8.81196 19.25 11V16.5" stroke="#1499A2" stroke-linecap="round" stroke-linejoin="round"/>
<path d="M19.25 17.4163C19.25 17.9026 19.0568 18.3689 18.713 18.7127C18.3692 19.0565 17.9029 19.2497 17.4167 19.2497H16.5C16.0138 19.2497 15.5475 19.0565 15.2036 18.7127C14.8598 18.3689 14.6667 17.9026 14.6667 17.4163V14.6663C14.6667 14.1801 14.8598 13.7138 15.2036 13.37C15.5475 13.0262 16.0138 12.833 16.5 12.833H19.25V17.4163ZM2.75 17.4163C2.75 17.9026 2.94315 18.3689 3.28697 18.7127C3.63079 19.0565 4.0971 19.2497 4.58333 19.2497H5.5C5.98623 19.2497 6.45255 19.0565 6.79636 18.7127C7.14018 18.3689 7.33333 17.9026 7.33333 17.4163V14.6663C7.33333 14.1801 7.14018 13.7138 6.79636 13.37C6.45255 13.0262 5.98623 12.833 5.5 12.833H2.75V17.4163Z" stroke="#1499A2" stroke-linecap="round" stroke-linejoin="round"/>
</svg>
