<svg width="23" height="23" viewBox="0 0 23 23" fill="none" xmlns="http://www.w3.org/2000/svg">
<path d="M13.2203 12.2256V10.0631C13.2203 9.10205 14.6619 8.62151 16.1035 8.62151C17.5452 8.62151 18.9868 9.10205 18.9868 10.0631V12.2256" stroke="#1499A2" stroke-width="0.9" stroke-linecap="round" stroke-linejoin="round"/>
<path d="M18.0257 4.72884C18.0257 3.71969 17.1607 2.85471 16.1035 2.85471C15.0463 2.85471 14.1814 3.67164 14.1814 4.72884V5.35355C14.1814 6.3627 15.0463 7.22769 16.1035 7.22769C17.1607 7.22769 18.0257 6.41075 18.0257 5.35355V4.72884Z" stroke="#1499A2" stroke-width="0.9" stroke-linecap="round" stroke-linejoin="round"/>
<path d="M9.95217 5.49791C10.5288 2.61462 13.0277 0.452163 16.1032 0.452163C19.5631 0.452163 22.3503 3.23934 22.3503 6.69927C22.3503 10.1592 19.5631 12.9464 16.1032 12.9464C14.5174 12.9464 13.0757 12.3697 11.9705 11.4086" stroke="#1499A2" stroke-width="0.9" stroke-linecap="round" stroke-linejoin="round"/>
<path d="M6.6367 20.5387C7.74196 19.2893 9.85637 16.7905 10.7214 15.7813C11.8747 14.4358 8.9914 11.8889 8.9914 11.8889L10.9136 9.67839C11.298 9.19784 11.298 8.52508 10.7214 8.04453C10.1928 7.56398 9.47193 7.66009 9.0875 8.09258L5.14702 12.7058L3.9937 10.7836C3.41704 9.82255 1.9754 10.3512 2.31178 11.4084C2.93649 13.5708 3.4651 15.3969 3.17678 15.7333C3.17678 15.7333 2.40789 16.5983 2.31178 16.7424" stroke="#1499A2" stroke-width="0.9" stroke-linecap="round" stroke-linejoin="round"/>
<path d="M1.92728 16.4435L0.451979 18.1537L5.54616 22.5482L7.02146 20.838L1.92728 16.4435Z" stroke="#1499A2" stroke-width="0.9" stroke-linecap="round" stroke-linejoin="round"/>
</svg>
