<svg width="20" height="22" viewBox="0 0 20 22" fill="none" xmlns="http://www.w3.org/2000/svg">
<path d="M11.7866 21.8733C11.7866 20.3269 12.2869 18.6896 13.6513 18.6896C13.6513 18.6896 14.1061 18.7351 15.4706 19.1444C18.6542 20.054 17.7446 16.4156 18.1994 15.0512C18.1994 15.0512 18.1994 14.5964 19.109 14.1416C19.5183 13.9596 19.8367 13.1865 19.109 12.3223C18.4723 11.5037 18.1994 10.5031 18.1994 9.5935C18.1994 9.13869 18.6542 9.13869 18.6542 8.22908C18.6542 7.77427 17.7901 4.1813 15.9254 2.3166C12.9691 -0.639643 6.37443 0.497373 4.1004 1.86179C2.28118 2.95333 0.37099 4.77255 0.461952 8.22908C0.461952 10.8215 1.96281 12.4133 2.73598 14.1416C3.19079 15.1421 3.32723 16.2337 3.19079 17.3252C3.05435 18.5532 2.64502 19.3264 2.28118 20.5088V21.8733" stroke="#1499A2" stroke-width="0.9" stroke-miterlimit="10" stroke-linejoin="round"/>
<path d="M12.608 5.04632C11.38 4.90988 10.0156 5.63757 9.56079 6.7291C9.10598 5.63757 7.74156 4.90988 6.51358 5.04632C4.87628 5.22824 3.83023 7.00199 4.1486 8.68477C4.6034 10.9588 6.28618 12.1868 9.56079 14.5972C12.8354 12.1868 14.5182 10.9588 14.973 8.68477C15.2913 7.00199 14.2453 5.27372 12.608 5.04632Z" stroke="#1499A2" stroke-width="0.9" stroke-linecap="round" stroke-linejoin="round"/>
</svg>
