<svg width="26" height="22" viewBox="0 0 26 22" fill="none" xmlns="http://www.w3.org/2000/svg">
<path d="M3.38201 17.4457V20.9616" stroke="#1499A2" stroke-width="0.9" stroke-miterlimit="10" stroke-linecap="round" stroke-linejoin="round"/>
<path d="M5.1987 17.4457C5.78468 17.4457 6.19486 16.8011 5.90187 16.2737L4.67131 13.8711C4.55412 13.6367 4.7299 13.3438 5.02289 13.3438H5.31588C5.31588 13.3438 5.78468 13.0508 5.66748 12.8164L4.55411 10.7068C4.43691 10.4724 4.61271 10.1794 4.9057 10.1794C5.1987 10.1794 5.3745 9.88644 5.2573 9.65205L4.20251 7.65968C3.90952 7.07369 3.08914 7.07369 2.79615 7.65968L1.74138 9.65205C1.62418 9.88644 1.79997 10.1794 2.09296 10.1794C2.38595 10.1794 2.56175 10.4724 2.44455 10.7068L1.33118 12.8164C1.21399 13.0508 1.68278 13.9297 1.68278 13.9297H1.97577C1.97577 13.9297 2.44457 13.6367 2.32737 13.8711L1.03819 16.2737C0.745197 16.8011 1.74138 17.3871 1.74138 17.3871L5.1987 17.4457Z" stroke="#1499A2" stroke-width="0.9" stroke-miterlimit="10" stroke-linecap="round" stroke-linejoin="round"/>
<path d="M18.6177 9.82819L13.9298 21.2549" stroke="#1499A2" stroke-width="0.9" stroke-miterlimit="10" stroke-linecap="round" stroke-linejoin="round"/>
<path d="M0.452059 21.5478H25.0635" stroke="#1499A2" stroke-width="0.9" stroke-miterlimit="10" stroke-linecap="round" stroke-linejoin="round"/>
<path d="M5.72594 21.4307L10.4138 9.82819H18.6176L23.3055 21.4307" stroke="#1499A2" stroke-width="0.9" stroke-miterlimit="10" stroke-linecap="round" stroke-linejoin="round"/>
<path d="M9.18286 0.686634C8.88987 0.569437 8.65548 0.510842 8.36249 0.452243C8.12809 0.452243 8.0109 0.745243 8.1867 0.862441C8.65549 1.27263 8.94847 1.91722 8.83127 2.6204C8.71407 3.38218 8.0695 3.96815 7.30772 4.14395C6.60453 4.26115 5.95995 3.96817 5.54976 3.49938C5.37396 3.32358 5.08096 3.44077 5.13956 3.67517C5.13956 3.90956 5.25675 4.20255 5.37395 4.49555C5.78414 5.49172 6.72173 6.19491 7.8351 6.31211C9.65166 6.4879 11.1752 4.96434 10.9994 3.14778C10.8822 2.03441 10.179 1.09682 9.18286 0.686634Z" stroke="#1499A2" stroke-width="0.9" stroke-miterlimit="10" stroke-linecap="round" stroke-linejoin="round"/>
</svg>
