<svg width="138" height="445" viewBox="0 0 138 445" fill="none" xmlns="http://www.w3.org/2000/svg">
<path d="M44.3095 98.1498C44.3095 82.2285 45.6112 66.1068 46.212 50.1854C46.4123 44.9784 46.6126 39.6713 47.9143 34.5645C51.0185 22.8488 59.9304 13.2358 70.6448 7.7284C76.1522 4.92464 105.792 -5.38918 108.095 5.12493C108.996 9.13031 107.094 13.6364 104.19 16.34C99.9842 20.2452 94.2766 21.8474 89.1697 24.551C83.1616 27.6552 77.7544 32.6619 75.5514 39.1706C74.2497 42.8756 74.1496 46.9811 73.9493 50.8864C73.4486 64.5047 72.9479 78.2231 75.5514 91.5409C76.7531 97.7493 78.6556 103.857 81.4594 109.565C84.3633 115.373 88.1684 120.079 92.5743 124.786C92.7746 125.086 93.2752 125.787 93.6757 125.787C94.7772 125.687 95.6784 116.975 95.8787 115.673C96.4795 111.968 96.88 108.163 97.1805 104.458C97.6811 96.9482 97.6811 89.338 97.0803 81.8279C96.9802 81.1269 96.9802 80.5261 96.8801 79.8252C95.1778 62.8023 91.6731 42.3749 104.59 31.1599C106.193 29.758 107.995 28.5564 110.098 28.3561C114.003 27.8555 117.508 30.9596 119.11 34.5645C120.612 38.1693 120.612 42.1747 120.712 46.0799C121.012 62.9025 123.416 79.8252 128.022 96.047C130.726 105.76 134.23 115.373 135.131 125.386C137.334 150.22 123.716 172.55 115.004 194.88C105.592 219.112 105.692 241.342 108.095 267.477C109.697 284.8 112.701 302.023 115.605 319.146C122.815 361.103 129.924 402.959 137.134 444.915" stroke="white" stroke-miterlimit="10"/>
<path d="M14.2692 103.958C19.4761 83.1296 25.6845 62.602 32.8942 42.475C34.4963 37.8688 36.2987 33.2627 39.4029 29.5577C42.5071 25.8527 47.4136 23.3493 52.7208 23.9502" stroke="white" stroke-miterlimit="10"/>
<path d="M33.1949 212.303C25.785 190.874 15.0706 159.232 7.66063 137.803C5.75807 132.396 3.95567 126.888 2.45366 121.381C0.751371 114.572 -0.350113 107.362 1.35217 100.553C2.25338 96.9481 3.95565 93.5436 5.65794 90.2391C11.7661 78.5234 19.5766 67.3083 27.7877 56.9945" stroke="white" stroke-miterlimit="10"/>
<path d="M83.8626 27.4548C89.6704 29.8581 94.9775 33.4629 99.2833 37.9689" stroke="white" stroke-miterlimit="10"/>
<path d="M74.0486 50.7861C75.9512 49.0838 77.8537 47.3815 79.7563 45.6792" stroke="white" stroke-miterlimit="10"/>
<path d="M75.9516 48.9837C83.6619 50.5859 90.6713 55.0919 95.3776 61.2001" stroke="white" stroke-miterlimit="10"/>
<path d="M97.3811 81.0267C96.9806 81.3271 96.5801 81.5274 96.0794 81.6275C95.2783 81.8278 94.4772 81.7277 93.7763 81.6275C87.4678 80.3258 82.361 72.9158 77.9551 68.6101C76.453 67.2082 75.1513 66.1067 73.7494 65.2055" stroke="white" stroke-miterlimit="10"/>
<path d="M74.9502 87.2352C76.8528 88.8373 78.7553 90.6397 80.4576 92.5423C81.5591 93.7439 82.6606 95.1458 83.9623 96.047C87.2668 98.4502 92.8743 98.5503 93.6754 93.7439C94.176 90.6397 92.8743 87.0349 91.4724 84.3312C90.3709 82.2284 88.9691 80.2257 87.5672 78.3232" stroke="white" stroke-miterlimit="10"/>
<path d="M33.1942 212.303C24.5826 307.231 19.676 348.085 11.0644 443.013C11.0644 443.514 10.9643 444.114 10.8642 444.615" stroke="white" stroke-miterlimit="10"/>
</svg>
