<svg width="63" height="80" viewBox="0 0 63 80" fill="none" xmlns="http://www.w3.org/2000/svg">
<circle cx="31.5" cy="47.9521" r="31.5" fill="#F9F9F9"/>
<path d="M44.9377 37C45.5726 35.9441 46.6537 35.1521 47.5289 34.3074C50.8408 31.0867 54.1356 25.7894 52.6255 20.9672C51.6473 17.8698 49.7425 14.7019 48.3354 11.7629C46.9969 9.01739 44.6116 6.55351 42.192 4.7408C38.6055 2.03053 33.835 4.21283 30.2142 5.67356C25.804 7.46867 21.5139 9.47497 18.3049 13.206C16.5203 15.2827 15.4907 17.817 14.3409 20.2984C10.3254 28.8692 8.23187 37.7744 5.45191 46.7852C3.6844 52.5049 0.904447 56.0599 5.55488 61.1989C6.96202 62.7652 8.40348 64.3315 10.1023 65.5634C22.5607 74.5566 37.0783 60.0901 48.2667 55.5671C52.0935 54.0184 54.8906 52.4697 57.7392 49.4426C60.1416 46.8908 61.4973 44.2685 57.2587 42.7022C53.6894 41.3822 49.9141 40.3967 46.2075 39.4815C44.766 39.1295 43.908 39.0591 44.7489 37.3344C44.8175 37.2112 44.869 37.1056 44.9377 37Z" fill="#66C1BD"/>
<path d="M48 25.4521C47.77 27.6995 46.538 30.2605 44.4682 31.1839C42.5627 32.0375 39.6716 31.6717 38.111 33.2222C36.5833 34.7553 36.9282 38.1177 37.4046 40.4521" stroke="#3B3B4A" stroke-miterlimit="10"/>
<path d="M33 35.4521C34.7941 39.3175 38.6756 41.8376 42.6261 43.5404C46.5766 45.2432 50.8031 46.3159 54.581 48.3593C56.1164 49.1936 57.5827 50.1983 58.6178 51.5775C61.4642 55.3237 61.2054 59.5977 60.6361 64.11C59.9806 69.2865 58.98 74.4119 57.6345 79.4521" stroke="#3B3B4A" stroke-miterlimit="10"/>
<path d="M37.6741 9.16511C36.9722 8.3211 35.3343 8.24147 34.3399 8.84661C33.3259 9.45175 32.9165 10.5665 33.014 11.5857C33.1115 12.6049 33.6574 13.5603 34.2229 14.4681C34.8078 15.3758 35.4513 16.2676 35.7828 17.2549C35.9582 17.7963 36.0752 18.3537 36.4262 18.8155C36.7967 19.2773 37.5376 19.6118 38.1616 19.3729C38.5905 19.2136 38.8245 18.8155 39 18.4652" stroke="#3B3B4A" stroke-miterlimit="10"/>
<path d="M20 32.4521C19.4883 33.3448 18.8708 34.1687 18.1475 34.9069C16.5419 36.5376 14.46 37.6534 12.7134 39.1297C8.53195 42.6315 7.42044 46.6139 7.19108 51.901C6.85586 60.2264 6.96171 71.1439 7.50865 79.4521" stroke="#3B3B4A" stroke-miterlimit="10"/>
<path d="M37 18.4521C35.9933 20.6425 34.8453 22.8986 32.7965 24.3149C32.1606 24.7596 31.4365 25.1054 30.9243 25.6653C30.3944 26.2417 30.1295 26.9993 29.635 27.6086C28.7872 28.679 27.5862 28.9261 26.3675 29.4531C25.2725 29.9142 24.3188 30.54 23.2061 31.0011C20.9453 31.9563 18.0664 32.9114 16.6005 34.9041C16.2296 35.3982 16.0353 35.9252 16 36.4521" stroke="#3B3B4A" stroke-miterlimit="10"/>
<path d="M21 0.452148C15.4359 3.09215 10.9703 7.69523 8.66543 13.1445C7.33294 16.2921 6.72072 19.6598 6.36058 23.0275C5.8744 27.5798 5.8564 32.166 6.45062 36.7014C6.77474 39.0706 7.27893 41.4737 8.50338 43.5721C8.68345 43.8768 8.86351 44.1645 9.07959 44.4521" stroke="#3B3B4A" stroke-miterlimit="10"/>
<path d="M46.6389 63.4521C47.2779 68.78 47.0712 74.1571 46 79.4521" stroke="#3B3B4A" stroke-miterlimit="10"/>
</svg>
