<svg width="24" height="24" viewBox="0 0 24 24" fill="none" xmlns="http://www.w3.org/2000/svg">
<g clip-path="url(#clip0_1809_1809)">
<path d="M21.9075 2.09251C20.5856 0.76876 18.8269 0.0412598 16.9556 0.0412598C15.0844 0.0412598 13.3275 0.770635 12.0056 2.09251L6.88687 7.21126L6.86625 7.23188L6.83812 7.26188L6.8325 7.26751L6.17812 7.93688C5.895 8.24063 5.79562 8.58188 5.79562 8.90626L1.97062 12.7313C0.727496 13.9706 0.0431213 15.6225 0.0431213 17.3794C0.0431213 19.1363 0.727496 20.7881 1.96875 22.0313C3.21 23.2744 4.86375 23.9588 6.62062 23.9588C8.3775 23.9588 10.0294 23.2744 11.2725 22.0313L15.1781 18.1256C15.5119 18.1256 15.8644 18.0263 16.1756 17.7263L16.6781 17.2125C16.6987 17.1956 16.7212 17.1825 16.74 17.1619L21.9075 11.9944C24.6394 9.26438 24.6394 4.82251 21.9075 2.09251Z" fill="#1499A2"/>
<path d="M3.16875 20.8331C2.24625 19.9106 1.73813 18.6844 1.73813 17.3812C1.73813 16.0762 2.24625 14.8519 3.16875 13.9294L7.6575 9.44062C8.03813 9.53062 9.66188 10.02 11.8219 12.18C13.9894 14.3456 14.475 15.9712 14.5631 16.3444L10.0744 20.8331C9.15188 21.7556 7.92563 22.2619 6.6225 22.2619C5.31938 22.2619 4.09125 21.7556 3.16875 20.8331ZM19.1306 2.67562C19.095 2.6775 19.0594 2.67937 19.035 2.68312C18.8119 2.71125 18.5925 2.76187 18.375 2.82C18.2475 2.85562 18.12 2.88937 17.9963 2.9325C17.0194 3.27562 16.14 3.87375 15.4106 4.60312L11.4694 8.54437L11.295 8.72062C10.1044 8.01937 9.37125 7.92187 9.37125 7.92187L14.0513 3.24187C14.2294 3.06375 14.4206 2.90625 14.6213 2.75812C15.3881 2.19375 16.3069 1.8525 17.2631 1.78125C17.7225 1.7475 18.1838 1.77375 18.6375 1.85812C18.8775 1.90312 19.8338 2.05312 19.7906 2.44312C19.7644 2.66437 19.3631 2.66437 19.1306 2.67562Z" fill="white"/>
<path d="M11.9981 15.0225L8.56313 18.4575C7.95563 19.065 7.22063 19.5656 6.40688 19.8506C6.12563 19.95 5.83688 20.0212 5.54063 20.0587C5.385 20.0775 4.935 20.0437 4.91063 20.2593C4.875 20.5856 5.67188 20.7093 5.8725 20.7468C6.24938 20.8162 6.63563 20.8387 7.01813 20.8106C8.02313 20.7375 8.985 20.3062 9.69938 19.5918L12.9094 16.3818C12.9094 16.3856 12.5644 15.555 11.9981 15.0225Z" fill="#1499A2"/>
</g>
<defs>
<clipPath id="clip0_1809_1809">
<rect width="24" height="24" fill="white"/>
</clipPath>
</defs>
</svg>
