<svg width="31" height="31" viewBox="0 0 31 31" fill="none" xmlns="http://www.w3.org/2000/svg">
<g id="Group 105">
<ellipse id="Ellipse 147" cx="15.5" cy="11" rx="11.5" ry="11" fill="#F9F9F9"/>
<path id="Union" fill-rule="evenodd" clip-rule="evenodd" d="M18.0031 3.84168C18.0008 3.76353 17.9367 3.70141 17.8585 3.70154C17.7804 3.70166 17.7165 3.76399 17.7144 3.84215C17.6979 4.47618 17.6671 4.95488 17.6177 5.31671C17.5899 5.5199 17.5567 5.68255 17.5184 5.81302C17.4623 5.7809 17.4018 5.7409 17.3356 5.69203C17.1116 5.52689 16.8425 5.2766 16.4778 4.93207C16.4209 4.87837 16.3317 4.87968 16.2764 4.93501C16.2212 4.99035 16.22 5.0796 16.2738 5.13635L16.2844 5.14754L16.2845 5.14756L16.2845 5.14757L16.2845 5.14765C16.5663 5.44487 16.7877 5.67851 16.9587 5.86777C16.9024 5.84733 16.8455 5.82803 16.7879 5.80988C16.3736 5.67936 15.9712 5.6141 15.5806 5.6141C15.0716 5.6141 14.6159 5.62004 14.2135 5.6319C13.8229 5.64377 13.456 5.6497 13.1128 5.6497C12.7813 5.6497 12.444 5.64377 12.1008 5.6319C11.7694 5.60817 11.4261 5.59037 11.071 5.57851C11.0237 5.62597 11 5.70903 11 5.82768C11.0118 5.94633 11.0355 6.02939 11.071 6.07685C11.142 6.07685 11.2663 6.08871 11.4439 6.11244C11.6332 6.12431 11.8108 6.14804 11.9765 6.18363C12.154 6.21923 12.2487 6.27262 12.2606 6.34381C12.3079 6.4862 12.3316 6.67604 12.3316 6.91335C12.3434 7.13879 12.3493 7.38202 12.3493 7.64306L12.3671 15.0648C12.3671 15.3258 12.3612 15.569 12.3493 15.7945C12.3493 16.0199 12.3257 16.2038 12.2783 16.3462C12.2665 16.4055 12.1718 16.4589 11.9942 16.5064C11.8285 16.5538 11.651 16.5894 11.4616 16.6132C11.2722 16.625 11.142 16.631 11.071 16.631C11.0355 16.6784 11.0118 16.7615 11 16.8801C11 16.9988 11.0237 17.0818 11.071 17.1293C11.4261 17.1056 11.7753 17.0878 12.1185 17.0759C12.4618 17.0522 12.7991 17.0403 13.1305 17.0403C13.4738 17.0403 13.8052 17.0522 14.1247 17.0759C14.4562 17.0878 14.7994 17.1056 15.1545 17.1293C15.2018 17.0818 15.2196 16.9988 15.2078 16.8801C15.2078 16.7615 15.19 16.6784 15.1545 16.631C15.0835 16.631 14.9533 16.625 14.7639 16.6132C14.5745 16.5894 14.397 16.5538 14.2313 16.5064C14.0656 16.4589 13.9709 16.4055 13.9472 16.3462C13.9117 16.2276 13.888 16.0792 13.8762 15.9013V15.2783V15.1715V15.0648V11.8256H14.7817C15.0421 11.8256 15.2196 11.8967 15.3143 12.0391C15.5865 12.4663 15.8706 12.9053 16.1665 13.3562C16.4624 13.7952 16.7405 14.2105 17.0009 14.602C17.2613 14.9936 17.4862 15.3258 17.6756 15.5987C17.865 15.8716 17.9952 16.0555 18.0662 16.1504C18.2674 16.4115 18.4745 16.5954 18.6876 16.7022C18.9006 16.7971 19.0663 16.8683 19.1847 16.9157C19.3623 16.9751 19.6404 17.0285 20.0192 17.0759C20.4098 17.1115 20.895 17.1293 21.475 17.1293C21.4868 17.1056 21.5046 17.0285 21.5283 16.8979C21.5519 16.7674 21.5401 16.6784 21.4928 16.631C21.0193 16.5954 20.6346 16.4945 20.3387 16.3284C20.0547 16.1623 19.7884 15.9131 19.5398 15.5809C19.161 15.0707 18.8178 14.6079 18.51 14.1927C18.2023 13.7655 17.9064 13.3384 17.6223 12.9112C17.3383 12.4841 17.0424 12.0154 16.7346 11.5052C17.1252 11.3747 17.4981 11.1611 17.8531 10.8645C18.2201 10.5678 18.516 10.2237 18.7409 9.83219C18.9776 9.44064 19.0959 9.03722 19.0959 8.62194C19.0959 8.35597 19.0656 8.10859 19.0049 7.87979C19.0787 7.94978 19.1567 8.02375 19.2394 8.10187C19.2962 8.15557 19.3855 8.15426 19.4407 8.09893C19.4959 8.04359 19.4971 7.95434 19.4433 7.89759C19.0982 7.53346 18.8478 7.26512 18.6827 7.04183C18.6409 6.98525 18.6056 6.93289 18.5762 6.88393C18.7001 6.82517 18.8596 6.78178 19.0693 6.75007C19.4233 6.69654 19.8947 6.67956 20.534 6.66137C20.6122 6.65915 20.6744 6.59512 20.6743 6.51693C20.6742 6.43874 20.6119 6.3748 20.5338 6.37271C19.8945 6.3556 19.4236 6.33939 19.0703 6.28639C18.8602 6.25488 18.7007 6.21149 18.5771 6.15254C18.6066 6.10353 18.6419 6.05112 18.6837 5.9945C18.8489 5.77056 19.0992 5.50135 19.4436 5.13607C19.4972 5.07919 19.4958 4.98996 19.4405 4.93476C19.3851 4.87957 19.2958 4.87847 19.2391 4.93229C18.8757 5.27721 18.6075 5.52754 18.3842 5.69258C18.3274 5.73454 18.2749 5.76995 18.2257 5.79944C18.1672 5.67575 18.124 5.51644 18.0924 5.30692C18.039 4.95284 18.0219 4.48137 18.0031 3.84168ZM14.8172 6.18363C15.541 6.18363 16.1063 6.32229 16.513 6.59959C16.5315 6.6261 16.5587 6.64611 16.5904 6.65551C16.6906 6.73212 16.7801 6.81807 16.8589 6.91335C17.2732 7.39982 17.4803 8.02275 17.4803 8.78212C17.4803 9.29233 17.3501 9.73727 17.0897 10.117C16.8293 10.4848 16.492 10.7755 16.0777 10.9891C15.6753 11.1908 15.2492 11.2916 14.7994 11.2916H13.8762L13.8584 7.66086V6.89555C13.8703 6.63451 13.8999 6.4506 13.9472 6.34381C13.9827 6.26076 14.107 6.2133 14.32 6.20143C14.5449 6.18957 14.7106 6.18363 14.8172 6.18363Z" fill="#66C1BD"/>
<g id="Group 36">
<g id="Group 35">
<g id="RIGEL">
<path d="M2.16484 25.5621C2.34944 25.5621 2.53964 25.5927 2.73542 25.654C2.93121 25.7152 3.11021 25.8043 3.27244 25.9212C3.44025 26.0381 3.57451 26.1857 3.6752 26.3638C3.77589 26.5364 3.82623 26.7396 3.82623 26.9734C3.82623 27.1683 3.7703 27.3576 3.65842 27.5413C3.55213 27.725 3.41229 27.8865 3.23887 28.0257C3.07106 28.1649 2.89485 28.2651 2.71025 28.3263C2.85569 28.5657 2.99554 28.7856 3.12979 28.986C3.26405 29.1865 3.40389 29.3869 3.54934 29.5873C3.69478 29.7822 3.857 29.9993 4.03601 30.2387C4.15348 30.3946 4.27934 30.5115 4.41359 30.5894C4.55344 30.6674 4.73524 30.7147 4.959 30.7314C4.98138 30.7537 4.98697 30.7954 4.97578 30.8567C4.96459 30.9179 4.9562 30.9541 4.95061 30.9652C4.67651 30.9652 4.44716 30.9569 4.26256 30.9402C4.08355 30.9179 3.9521 30.8929 3.86819 30.865C3.81225 30.8428 3.73393 30.8094 3.63324 30.7648C3.53255 30.7147 3.43466 30.6284 3.33956 30.5059C3.306 30.4614 3.24447 30.3751 3.15497 30.2471C3.06546 30.119 2.95918 29.9631 2.83611 29.7794C2.71305 29.5957 2.58159 29.4008 2.44174 29.1948C2.30189 28.9833 2.16764 28.7773 2.03898 28.5768C1.99423 28.51 1.91032 28.4766 1.78725 28.4766H1.35932V29.9965C1.35932 30.0132 1.35932 30.0299 1.35932 30.0466C1.35932 30.0633 1.35932 30.08 1.35932 30.0967C1.35932 30.2025 1.35932 30.2999 1.35932 30.389C1.36491 30.4725 1.3761 30.5421 1.39288 30.5978C1.40407 30.6256 1.44882 30.6507 1.52714 30.673C1.60545 30.6952 1.68936 30.7119 1.77886 30.7231C1.86837 30.7286 1.9299 30.7314 1.96346 30.7314C1.98024 30.7537 1.98863 30.7927 1.98863 30.8483C1.99423 30.904 1.98584 30.943 1.96346 30.9652C1.79565 30.9541 1.63342 30.9458 1.47679 30.9402C1.32576 30.9291 1.16913 30.9235 1.0069 30.9235C0.850274 30.9235 0.690848 30.9291 0.528625 30.9402C0.366401 30.9458 0.201381 30.9541 0.0335635 30.9652C0.0111878 30.943 0 30.904 0 30.8483C0.0055939 30.7927 0.0167817 30.7537 0.0335635 30.7314C0.0671269 30.7314 0.12866 30.7286 0.218162 30.7231C0.307665 30.7119 0.391574 30.6952 0.469888 30.673C0.553797 30.6507 0.598548 30.6256 0.604142 30.5978C0.626518 30.531 0.637706 30.4447 0.637706 30.3389C0.6433 30.2331 0.646097 30.119 0.646097 29.9965L0.637706 26.5141C0.637706 26.3917 0.634909 26.2775 0.629315 26.1717C0.629315 26.0604 0.618127 25.9713 0.595751 25.9045C0.590158 25.8711 0.545406 25.8461 0.461498 25.8294C0.383183 25.8127 0.299274 25.8015 0.209772 25.7959C0.125863 25.7848 0.0671269 25.7792 0.0335635 25.7792C0.0167817 25.757 0.0055939 25.718 0 25.6623C0 25.6067 0.0111878 25.5677 0.0335635 25.5454C0.201381 25.551 0.363604 25.5593 0.520234 25.5705C0.682457 25.576 0.841883 25.5788 0.998513 25.5788C1.16074 25.5788 1.33415 25.576 1.51875 25.5705C1.70894 25.5649 1.92431 25.5621 2.16484 25.5621ZM3.06267 27.0486C3.06267 26.6923 2.96477 26.4 2.76899 26.1717C2.57879 25.9435 2.25714 25.8294 1.80404 25.8294C1.75369 25.8294 1.67538 25.8321 1.56909 25.8377C1.4684 25.8433 1.40967 25.8655 1.39288 25.9045C1.37051 25.9546 1.35652 26.0409 1.35093 26.1634C1.35093 26.2803 1.35093 26.4 1.35093 26.5225L1.35932 28.2261H1.79564C2.00821 28.2261 2.20959 28.1788 2.39979 28.0841C2.59557 27.9839 2.755 27.8475 2.87807 27.6749C3.00113 27.4968 3.06267 27.288 3.06267 27.0486Z" fill="white"/>
<path d="M6.43114 25.5788C6.59336 25.5788 6.74999 25.576 6.90103 25.5705C7.05766 25.5593 7.21988 25.551 7.3877 25.5454C7.41007 25.5677 7.41846 25.6067 7.41287 25.6623C7.41287 25.718 7.40448 25.757 7.3877 25.7792C7.35413 25.7792 7.2926 25.7848 7.2031 25.7959C7.1136 25.8015 7.02969 25.8127 6.95137 25.8294C6.87306 25.8461 6.82831 25.8711 6.81712 25.9045C6.80034 25.9602 6.78915 26.0326 6.78356 26.1216C6.78356 26.2107 6.78356 26.3081 6.78356 26.4139C6.78356 26.4306 6.78356 26.4473 6.78356 26.464C6.78356 26.4807 6.78356 26.4974 6.78356 26.5141V29.9965C6.78356 30.0132 6.78356 30.0299 6.78356 30.0466C6.78356 30.0633 6.78356 30.08 6.78356 30.0967C6.78356 30.2025 6.78356 30.2999 6.78356 30.389C6.78915 30.4725 6.80034 30.5421 6.81712 30.5978C6.82831 30.6256 6.87306 30.6507 6.95137 30.673C7.02969 30.6952 7.1136 30.7119 7.2031 30.7231C7.2926 30.7286 7.35413 30.7314 7.3877 30.7314C7.40448 30.7537 7.41287 30.7927 7.41287 30.8483C7.41846 30.904 7.41007 30.943 7.3877 30.9652C7.21988 30.9541 7.05766 30.9458 6.90103 30.9402C6.74999 30.9291 6.59336 30.9235 6.43114 30.9235C6.27451 30.9235 6.11508 30.9291 5.95286 30.9402C5.79064 30.9458 5.62562 30.9541 5.4578 30.9652C5.43542 30.943 5.42424 30.904 5.42424 30.8483C5.42983 30.7927 5.44102 30.7537 5.4578 30.7314C5.49136 30.7314 5.55289 30.7286 5.6424 30.7231C5.7319 30.7119 5.81581 30.6952 5.89412 30.673C5.97803 30.6507 6.02278 30.6256 6.02838 30.5978C6.05075 30.531 6.06194 30.4447 6.06194 30.3389C6.06753 30.2331 6.07033 30.119 6.07033 29.9965V26.5141C6.07033 26.3917 6.06753 26.2775 6.06194 26.1717C6.06194 26.0604 6.05075 25.9713 6.02838 25.9045C6.02278 25.8711 5.97803 25.8461 5.89412 25.8294C5.81581 25.8127 5.7319 25.8015 5.6424 25.7959C5.55289 25.7848 5.49136 25.7792 5.4578 25.7792C5.44102 25.757 5.42983 25.718 5.42424 25.6623C5.42424 25.6067 5.43542 25.5677 5.4578 25.5454C5.62562 25.551 5.79064 25.5593 5.95286 25.5705C6.11508 25.576 6.27451 25.5788 6.43114 25.5788Z" fill="white"/>
<path d="M12.3854 29.5122C12.3854 29.4955 12.3854 29.4788 12.3854 29.4621C12.3854 29.4454 12.3854 29.4286 12.3854 29.4119C12.3854 29.3062 12.3826 29.2115 12.3771 29.128C12.3771 29.0389 12.3687 28.9666 12.3519 28.9109C12.3463 28.8775 12.3015 28.8524 12.2176 28.8357C12.1393 28.8135 12.0554 28.7995 11.9659 28.794C11.882 28.7828 11.8233 28.7773 11.7897 28.7773C11.7729 28.755 11.7617 28.716 11.7561 28.6604C11.7561 28.6047 11.7673 28.5657 11.7897 28.5434C11.9575 28.549 12.1197 28.5574 12.2764 28.5685C12.433 28.5796 12.5896 28.5852 12.7462 28.5852C12.9085 28.5852 13.0595 28.5796 13.1994 28.5685C13.3448 28.5574 13.5014 28.549 13.6692 28.5434C13.6916 28.5657 13.7 28.6047 13.6944 28.6604C13.6944 28.716 13.686 28.755 13.6692 28.7773C13.6357 28.7773 13.5769 28.7828 13.493 28.794C13.4091 28.7995 13.3308 28.8135 13.2581 28.8357C13.1854 28.8524 13.1434 28.8775 13.1322 28.9109C13.1099 28.9777 13.0959 29.064 13.0903 29.1698C13.0903 29.2755 13.0903 29.3897 13.0903 29.5122V30.0884C13.0903 30.1775 13.1043 30.2443 13.1322 30.2888C13.1602 30.3333 13.1742 30.3779 13.1742 30.4224C13.1742 30.4447 13.1658 30.4642 13.149 30.4809C13.1322 30.4976 13.0875 30.5254 13.0148 30.5644C12.8973 30.6256 12.7602 30.6897 12.6036 30.7565C12.4526 30.8233 12.2596 30.8789 12.0246 30.9235C11.7953 30.968 11.4988 30.9903 11.1352 30.9903C10.7324 30.9903 10.3632 30.9207 10.0276 30.7815C9.69197 30.6368 9.40109 30.4419 9.15496 30.1969C8.91442 29.9464 8.72702 29.6625 8.59277 29.3451C8.46411 29.0222 8.39978 28.6798 8.39978 28.318C8.39978 27.9338 8.46691 27.5747 8.60116 27.2407C8.74101 26.9011 8.934 26.6004 9.18013 26.3388C9.42626 26.0771 9.71715 25.8739 10.0528 25.7291C10.394 25.5788 10.766 25.5037 11.1688 25.5037C11.4373 25.5037 11.717 25.5148 12.0079 25.5371C12.3043 25.5593 12.6036 25.6039 12.9057 25.6707C12.9057 25.6707 12.9141 25.7291 12.9308 25.8461C12.9532 25.9574 12.9756 26.091 12.998 26.2469C13.0203 26.3972 13.0399 26.5364 13.0567 26.6645C13.0791 26.7869 13.0903 26.8593 13.0903 26.8816C13.0959 26.9039 13.0791 26.9261 13.0399 26.9484C13.0008 26.9707 12.9588 26.9818 12.9141 26.9818C12.8749 26.9818 12.8413 26.9734 12.8134 26.9567C12.8022 26.8955 12.7742 26.8009 12.7295 26.6728C12.6903 26.5448 12.6148 26.4111 12.5029 26.272C12.3966 26.1328 12.24 26.0159 12.033 25.9212C11.826 25.821 11.5519 25.7709 11.2107 25.7709C10.9086 25.7709 10.6345 25.8405 10.3884 25.9797C10.1423 26.1133 9.92971 26.297 9.75071 26.5308C9.5773 26.7591 9.44304 27.0152 9.34795 27.2991C9.25844 27.5775 9.21369 27.8587 9.21369 28.1426C9.21369 28.4599 9.25565 28.7717 9.33956 29.0779C9.42906 29.3841 9.56052 29.6625 9.73393 29.913C9.91293 30.158 10.1339 30.3556 10.3968 30.5059C10.6653 30.6507 10.9786 30.7231 11.3366 30.7231C11.5492 30.7231 11.7365 30.6952 11.8988 30.6395C12.0666 30.5783 12.212 30.5171 12.3351 30.4558C12.3631 30.4447 12.3771 30.4308 12.3771 30.4141C12.3826 30.3918 12.3854 30.3667 12.3854 30.3389V29.5122Z" fill="white"/>
<path d="M15.5834 25.5788C15.9694 25.5788 16.3945 25.5705 16.8588 25.5538C17.3231 25.5371 17.7762 25.5287 18.2181 25.5287C18.2461 25.7347 18.2825 25.924 18.3272 26.0966C18.372 26.2692 18.4139 26.4473 18.4531 26.6311C18.4251 26.6589 18.3776 26.6728 18.3104 26.6728C18.2377 26.6728 18.1986 26.6533 18.193 26.6144C18.1035 26.2859 17.9776 26.0771 17.8154 25.988C17.6532 25.8989 17.463 25.8544 17.2448 25.8544H16.54C16.5064 25.8544 16.4449 25.8572 16.3554 25.8628C16.2659 25.8628 16.182 25.8683 16.1036 25.8795C16.0253 25.8906 15.9806 25.9101 15.9694 25.9379C15.9526 25.9936 15.9414 26.066 15.9358 26.155C15.9358 26.2441 15.9358 26.336 15.9358 26.4306C15.9358 26.4696 15.9358 26.5002 15.9358 26.5225V28.0424C15.9358 28.0646 15.9722 28.0786 16.0449 28.0841C16.1176 28.0897 16.1987 28.0925 16.2882 28.0925H16.7162C16.912 28.0925 17.063 28.0869 17.1693 28.0758C17.2812 28.0646 17.3623 28.0396 17.4126 28.0006C17.463 27.9617 17.5021 27.9032 17.5301 27.8253C17.5581 27.7473 17.5888 27.6415 17.6224 27.5079C17.628 27.4689 17.6671 27.4495 17.7399 27.4495C17.807 27.4495 17.8545 27.4634 17.8825 27.4912V29.0278C17.8601 29.0501 17.8154 29.0612 17.7483 29.0612C17.6811 29.0612 17.6392 29.0417 17.6224 29.0027C17.5832 28.8469 17.5497 28.7355 17.5217 28.6687C17.4993 28.5963 17.4769 28.549 17.4546 28.5267C17.4378 28.4989 17.4154 28.4766 17.3874 28.4599C17.3595 28.4377 17.2951 28.4237 17.1945 28.4182C17.0938 28.407 16.9819 28.4015 16.8588 28.4015C16.7413 28.3959 16.6295 28.3931 16.5232 28.3931C16.4505 28.3931 16.3666 28.3959 16.2715 28.4015C16.182 28.4015 16.1036 28.407 16.0365 28.4182C15.9694 28.4237 15.9358 28.4404 15.9358 28.4683V30.0216C15.9358 30.0327 15.9358 30.0494 15.9358 30.0717C15.9358 30.1496 15.9358 30.2498 15.9358 30.3723C15.9414 30.4948 15.9554 30.5644 15.9778 30.5811C16.0337 30.6201 16.1008 30.6451 16.1792 30.6563C16.2631 30.6618 16.3917 30.6646 16.5651 30.6646H16.9595C17.1553 30.6646 17.3483 30.6451 17.5385 30.6061C17.7287 30.5672 17.8797 30.5115 17.9916 30.4391C18.1202 30.3612 18.2209 30.2498 18.2937 30.1051C18.3664 29.9548 18.4363 29.7933 18.5034 29.6207C18.5146 29.5873 18.5538 29.5706 18.6209 29.5706C18.7216 29.5706 18.7887 29.5873 18.8223 29.6207C18.744 29.8434 18.6573 30.08 18.5622 30.3306C18.4727 30.5811 18.4139 30.7954 18.386 30.9736C17.944 30.9736 17.5049 30.968 17.0686 30.9569C16.6323 30.9458 16.14 30.9402 15.5918 30.9402C15.4016 30.9402 15.231 30.943 15.08 30.9485C14.9289 30.9597 14.7723 30.9652 14.6101 30.9652C14.5877 30.943 14.5765 30.904 14.5765 30.8483C14.5821 30.7927 14.5933 30.7537 14.6101 30.7314C14.6436 30.7314 14.7052 30.7286 14.7947 30.7231C14.8842 30.7119 14.9681 30.6952 15.0464 30.673C15.1303 30.6507 15.1751 30.6256 15.1806 30.5978C15.203 30.531 15.2142 30.4447 15.2142 30.3389C15.2198 30.2331 15.2226 30.119 15.2226 29.9965V26.5141C15.2226 26.3917 15.2198 26.2775 15.2142 26.1717C15.2142 26.0604 15.203 25.9713 15.1806 25.9045C15.1751 25.8711 15.1303 25.8461 15.0464 25.8294C14.9681 25.8127 14.8842 25.8015 14.7947 25.7959C14.7052 25.7848 14.6436 25.7792 14.6101 25.7792C14.5933 25.757 14.5821 25.718 14.5765 25.6623C14.5765 25.6067 14.5877 25.5677 14.6101 25.5454C14.7779 25.551 14.9429 25.5593 15.1051 25.5705C15.2674 25.576 15.4268 25.5788 15.5834 25.5788Z" fill="white"/>
<path d="M21.0815 29.9965C21.0815 30.0077 21.0815 30.0244 21.0815 30.0466C21.0815 30.0967 21.0815 30.1635 21.0815 30.2471C21.0815 30.325 21.0843 30.3974 21.0898 30.4642C21.0954 30.531 21.1066 30.57 21.1234 30.5811C21.1794 30.6201 21.2465 30.6451 21.3248 30.6563C21.4087 30.6618 21.5374 30.6646 21.7108 30.6646H22.1723C22.3289 30.6646 22.4995 30.6479 22.6841 30.6145C22.8743 30.5755 23.0253 30.5171 23.1372 30.4391C23.2379 30.3667 23.3302 30.2665 23.4141 30.1385C23.5036 30.0104 23.5819 29.8379 23.6491 29.6207C23.6603 29.5873 23.6994 29.5706 23.7665 29.5706C23.8672 29.5706 23.9344 29.5873 23.9679 29.6207C23.8896 29.8434 23.8029 30.08 23.7078 30.3306C23.6183 30.5811 23.5596 30.7954 23.5316 30.9736C23.0897 30.9736 22.6506 30.968 22.2142 30.9569C21.7779 30.9458 21.2856 30.9402 20.7374 30.9402C20.5472 30.9402 20.3766 30.943 20.2256 30.9485C20.0746 30.9597 19.9179 30.9652 19.7557 30.9652C19.7333 30.943 19.7221 30.904 19.7221 30.8483C19.7277 30.7927 19.7389 30.7537 19.7557 30.7314C19.7893 30.7314 19.8508 30.7286 19.9403 30.7231C20.0298 30.7119 20.1137 30.6952 20.192 30.673C20.2759 30.6507 20.3207 30.6256 20.3263 30.5978C20.3487 30.531 20.3598 30.4447 20.3598 30.3389C20.3654 30.2331 20.3682 30.119 20.3682 29.9965V26.5141C20.3682 26.3917 20.3654 26.2775 20.3598 26.1717C20.3598 26.0604 20.3487 25.9713 20.3263 25.9045C20.3207 25.8711 20.2759 25.8461 20.192 25.8294C20.1137 25.8127 20.0298 25.8015 19.9403 25.7959C19.8508 25.7848 19.7893 25.7792 19.7557 25.7792C19.7389 25.757 19.7277 25.718 19.7221 25.6623C19.7221 25.6067 19.7333 25.5677 19.7557 25.5454C19.9235 25.551 20.0885 25.5593 20.2508 25.5705C20.413 25.576 20.5724 25.5788 20.729 25.5788C20.8913 25.5788 21.0479 25.576 21.1989 25.5705C21.3556 25.5593 21.5178 25.551 21.6856 25.5454C21.708 25.5677 21.7164 25.6067 21.7108 25.6623C21.7108 25.718 21.7024 25.757 21.6856 25.7792C21.652 25.7792 21.5905 25.7848 21.501 25.7959C21.4115 25.8015 21.3276 25.8127 21.2493 25.8294C21.171 25.8461 21.1262 25.8711 21.115 25.9045C21.0982 25.9602 21.0871 26.0326 21.0815 26.1216C21.0815 26.2107 21.0815 26.3081 21.0815 26.4139C21.0815 26.4306 21.0815 26.4473 21.0815 26.464C21.0815 26.4807 21.0815 26.4974 21.0815 26.5141V29.9965Z" fill="white"/>
</g>
<g id="PSY">
<path d="M25.7839 25.0537C26.3645 25.0537 26.695 25.3967 26.695 25.9876C26.695 26.595 26.3645 26.9298 25.7839 26.9298H25.428V27.9463H25V25.0537H25.7839ZM25.7797 26.5331C26.1018 26.5331 26.2586 26.3595 26.2586 25.9876C26.2586 25.6322 26.1018 25.4504 25.7797 25.4504H25.428V26.5331H25.7797Z" fill="white"/>
<path d="M27.9747 28C27.4492 28 27.1102 27.6818 27.106 27.1529H27.5424C27.5467 27.4504 27.7119 27.595 27.9747 27.595C28.2586 27.595 28.3984 27.4298 28.3984 27.1983C28.3984 26.624 27.1568 26.5909 27.1568 25.7314C27.1568 25.314 27.4704 25 27.9704 25C28.4789 25 28.784 25.3182 28.7967 25.8099H28.3603C28.3518 25.5331 28.2035 25.4008 27.9747 25.4008C27.7331 25.4008 27.5933 25.5331 27.5933 25.7397C27.5933 26.3058 28.8391 26.3058 28.8391 27.2025C28.8391 27.6322 28.5298 28 27.9747 28Z" fill="white"/>
<path d="M29.8516 27.9463V26.9959L29.1312 25.0537H29.5762L29.911 26.0165C29.9533 26.1405 30.0169 26.3264 30.0593 26.4711H30.0677L30.2203 26.0083L30.5508 25.0537H31L30.2796 26.9959V27.9463H29.8516Z" fill="white"/>
</g>
</g>
</g>
</g>
</svg>
